M48
; DRILL file {KiCad 9.0.2} date 2025-12-01T07:50:06-0500
; FORMAT={-:-/ absolute / metric / decimal}
; #@! TF.CreationDate,2025-12-01T07:50:06-05:00
; #@! TF.GenerationSoftware,Kicad,Pcbnew,9.0.2
; #@! TF.FileFunction,Plated,1,4,PTH
FMAT,2
METRIC
; #@! TA.AperFunction,Plated,PTH,ViaDrill
T1C0.300
; #@! TA.AperFunction,Plated,PTH,ComponentDrill
T2C0.300
; #@! TA.AperFunction,Plated,PTH,ComponentDrill
T3C0.600
; #@! TA.AperFunction,Plated,PTH,ComponentDrill
T4C0.600
; #@! TA.AperFunction,Plated,PTH,ComponentDrill
T5C0.700
; #@! TA.AperFunction,Plated,PTH,ComponentDrill
T6C0.950
; #@! TA.AperFunction,Plated,PTH,ComponentDrill
T7C1.000
; #@! TA.AperFunction,Plated,PTH,ComponentDrill
T8C2.700
%
G90
G05
T1
X97.7Y-72.5
X98.3Y-71.0
X100.9Y-90.7
X101.8Y-94.4
X101.8Y-95.4
X101.9Y-87.2
X101.9Y-88.2
X102.4Y-94.4
X102.4Y-95.4
X102.5Y-87.2
X102.5Y-88.2
X105.2Y-69.3
X106.2Y-94.6
X106.2Y-95.4
X106.4Y-86.9
X106.4Y-87.6
X108.6Y-94.2
X109.2Y-83.3
X109.3Y-103.6
X111.3Y-96.7
X112.8Y-104.7
X112.8Y-108.0
X113.15Y-98.8
X113.15Y-102.25
X113.5Y-68.8
X114.5Y-70.7
X115.4Y-67.1
X115.4Y-103.735
X116.1Y-90.8
X116.5Y-92.3
X116.7Y-109.6
X117.1Y-92.3
X117.4Y-97.8
X117.4Y-98.5
X117.4Y-99.2
X117.4Y-99.9
X117.4Y-100.6
X117.4Y-101.3
X117.4Y-102.0
X117.4Y-102.6
X117.7Y-92.3
X117.9Y-74.2
X118.3Y-92.3
X118.7Y-102.5
X118.9Y-92.3
X118.9Y-110.8
X119.4Y-104.1
X120.0Y-95.7
X120.95Y-104.15
X121.8Y-99.3
X122.4Y-99.3
X123.0Y-99.3
X123.683Y-67.517
X123.7Y-84.3
X124.0Y-107.3
X124.0Y-108.1
X124.0Y-108.8
X124.174Y-68.126
X126.0Y-111.4
X126.25Y-105.45
X126.3Y-87.7
X126.8Y-113.9
X126.9Y-82.602
X127.1Y-88.3
X127.15Y-105.45
X127.4Y-112.8
X127.55Y-78.45
X127.8Y-67.5
X128.0Y-105.45
X128.1Y-70.1
X128.3Y-106.9
X128.3Y-107.5
X128.3Y-108.1
X128.9Y-106.9
X128.9Y-107.5
X128.9Y-108.1
X129.7Y-114.5
X130.7Y-70.1
X131.026Y-68.126
X132.0Y-102.3
X132.5Y-109.5
X133.5Y-70.1
X134.3Y-77.7
X134.8Y-86.4
X136.3Y-105.2
X136.5Y-112.85
X136.6Y-80.55
X136.7Y-97.3
X137.5Y-101.3
X138.4Y-77.7
X138.9Y-111.4
X139.4Y-98.5
X141.15Y-107.6
X142.1Y-107.6
X143.05Y-113.15
X143.15Y-107.6
X143.7Y-80.2
X144.7Y-78.2
X144.7Y-83.6
X144.8Y-81.25
X145.0Y-94.8
X145.85Y-107.6
X146.5Y-102.3
X146.9Y-94.8
X146.9Y-107.6
X147.788Y-79.812
X147.788Y-82.188
X149.45Y-109.55
X150.9Y-104.8
T2
X91.75Y-86.75
X91.75Y-87.75
X91.75Y-93.25
X91.75Y-94.25
X92.75Y-86.75
X92.75Y-87.75
X92.75Y-93.25
X92.75Y-94.25
T5
X147.08Y-78.11
X147.08Y-83.89
T6
X107.75Y-106.305
X110.25Y-106.305
X112.75Y-106.305
X126.3Y-73.645
X128.8Y-73.645
X131.3Y-73.645
X133.8Y-73.645
X136.3Y-73.645
T7
X82.945Y-75.5
X82.945Y-78.0
X82.945Y-84.0
X82.945Y-86.5
X82.945Y-98.5
X82.945Y-101.0
X127.46Y-93.75
X130.0Y-93.75
X132.54Y-93.75
X135.08Y-93.75
T8
X92.75Y-100.35
X99.95Y-100.35
T3
G00X146.1Y-76.68
M15
G01X147.0Y-76.68
M16
G05
G00X146.1Y-85.32
M15
G01X147.0Y-85.32
M16
G05
G00X150.46Y-76.68
M15
G01X151.06Y-76.68
M16
G05
G00X150.46Y-85.32
M15
G01X151.06Y-85.32
M16
G05
T4
G00X89.6Y-106.9
M15
G01X89.6Y-105.8
M16
G05
G00X103.1Y-106.9
M15
G01X103.1Y-105.8
M16
G05
M30
