%TF.GenerationSoftware,KiCad,Pcbnew,9.0.2*%
%TF.CreationDate,2025-12-01T07:49:58-05:00*%
%TF.ProjectId,VolleyBot,566f6c6c-6579-4426-9f74-2e6b69636164,rev?*%
%TF.SameCoordinates,Original*%
%TF.FileFunction,Copper,L4,Bot*%
%TF.FilePolarity,Positive*%
%FSLAX46Y46*%
G04 Gerber Fmt 4.6, Leading zero omitted, Abs format (unit mm)*
G04 Created by KiCad (PCBNEW 9.0.2) date 2025-12-01 07:49:58*
%MOMM*%
%LPD*%
G01*
G04 APERTURE LIST*
G04 Aperture macros list*
%AMRoundRect*
0 Rectangle with rounded corners*
0 $1 Rounding radius*
0 $2 $3 $4 $5 $6 $7 $8 $9 X,Y pos of 4 corners*
0 Add a 4 corners polygon primitive as box body*
4,1,4,$2,$3,$4,$5,$6,$7,$8,$9,$2,$3,0*
0 Add four circle primitives for the rounded corners*
1,1,$1+$1,$2,$3*
1,1,$1+$1,$4,$5*
1,1,$1+$1,$6,$7*
1,1,$1+$1,$8,$9*
0 Add four rect primitives between the rounded corners*
20,1,$1+$1,$2,$3,$4,$5,0*
20,1,$1+$1,$4,$5,$6,$7,0*
20,1,$1+$1,$6,$7,$8,$9,0*
20,1,$1+$1,$8,$9,$2,$3,0*%
G04 Aperture macros list end*
%TA.AperFunction,ComponentPad*%
%ADD10O,1.700000X1.950000*%
%TD*%
%TA.AperFunction,ComponentPad*%
%ADD11RoundRect,0.250000X0.600000X0.725000X-0.600000X0.725000X-0.600000X-0.725000X0.600000X-0.725000X0*%
%TD*%
%TA.AperFunction,ComponentPad*%
%ADD12O,1.800000X1.200000*%
%TD*%
%TA.AperFunction,ComponentPad*%
%ADD13O,2.000000X1.100000*%
%TD*%
%TA.AperFunction,ComponentPad*%
%ADD14C,0.700000*%
%TD*%
%TA.AperFunction,ComponentPad*%
%ADD15C,0.610000*%
%TD*%
%TA.AperFunction,ComponentPad*%
%ADD16C,1.700000*%
%TD*%
%TA.AperFunction,ComponentPad*%
%ADD17R,1.700000X1.700000*%
%TD*%
%TA.AperFunction,ComponentPad*%
%ADD18RoundRect,0.250000X-0.750000X0.600000X-0.750000X-0.600000X0.750000X-0.600000X0.750000X0.600000X0*%
%TD*%
%TA.AperFunction,ComponentPad*%
%ADD19O,2.000000X1.700000*%
%TD*%
%TA.AperFunction,ComponentPad*%
%ADD20RoundRect,0.250000X-0.600000X-0.725000X0.600000X-0.725000X0.600000X0.725000X-0.600000X0.725000X0*%
%TD*%
%TA.AperFunction,ComponentPad*%
%ADD21R,0.900000X2.000000*%
%TD*%
%TA.AperFunction,ComponentPad*%
%ADD22RoundRect,1.025000X1.025000X1.025000X-1.025000X1.025000X-1.025000X-1.025000X1.025000X-1.025000X0*%
%TD*%
%TA.AperFunction,ComponentPad*%
%ADD23C,4.100000*%
%TD*%
%TA.AperFunction,ViaPad*%
%ADD24C,0.450000*%
%TD*%
%TA.AperFunction,Conductor*%
%ADD25C,0.254000*%
%TD*%
%TA.AperFunction,Conductor*%
%ADD26C,0.508000*%
%TD*%
%TA.AperFunction,Conductor*%
%ADD27C,0.406400*%
%TD*%
G04 APERTURE END LIST*
D10*
%TO.P,J2,5,Pin_5*%
%TO.N,-BATT*%
X126300000Y-73645000D03*
%TO.P,J2,4,Pin_4*%
%TO.N,/NRST*%
X128800000Y-73645000D03*
%TO.P,J2,3,Pin_3*%
%TO.N,/SWDIO*%
X131300000Y-73645000D03*
%TO.P,J2,2,Pin_2*%
%TO.N,/SWCLK*%
X133800000Y-73645000D03*
D11*
%TO.P,J2,1,Pin_1*%
%TO.N,+3.3V*%
X136300000Y-73645000D03*
%TD*%
D12*
%TO.P,USB2,14,SHELL*%
%TO.N,-BATT*%
X150760000Y-76680000D03*
D13*
X146550000Y-76680000D03*
D12*
%TO.P,USB2,13,SHELL*%
X150760000Y-85320000D03*
D13*
X146550000Y-85320000D03*
D14*
%TO.P,USB2,*%
%TO.N,*%
X147080000Y-78110000D03*
X147080000Y-83890000D03*
%TD*%
D15*
%TO.P,U2,*%
%TO.N,*%
X92750000Y-86750000D03*
X92750000Y-87750000D03*
X91750000Y-86750000D03*
X91750000Y-87750000D03*
%TD*%
%TO.P,U3,*%
%TO.N,*%
X92750000Y-93250000D03*
X92750000Y-94250000D03*
X91750000Y-93250000D03*
X91750000Y-94250000D03*
%TD*%
D16*
%TO.P,J1,4,Pin_4*%
%TO.N,/PI_POWER*%
X135080000Y-93750000D03*
%TO.P,J1,3,Pin_3*%
%TO.N,-BATT*%
X132540000Y-93750000D03*
%TO.P,J1,2,Pin_2*%
%TO.N,/USART1_RX*%
X130000000Y-93750000D03*
D17*
%TO.P,J1,1,Pin_1*%
%TO.N,/USART1_TX*%
X127460000Y-93750000D03*
%TD*%
D18*
%TO.P,J7,1,Pin_1*%
%TO.N,Net-(J7-Pin_1)*%
X82945000Y-98500000D03*
D19*
%TO.P,J7,2,Pin_2*%
%TO.N,Net-(J7-Pin_2)*%
X82945000Y-101000000D03*
%TD*%
D18*
%TO.P,J6,1,Pin_1*%
%TO.N,Net-(J6-Pin_1)*%
X82945000Y-84000000D03*
D19*
%TO.P,J6,2,Pin_2*%
%TO.N,Net-(J6-Pin_2)*%
X82945000Y-86500000D03*
%TD*%
D18*
%TO.P,J5,1,Pin_1*%
%TO.N,Net-(J5-Pin_1)*%
X82945000Y-75500000D03*
D19*
%TO.P,J5,2,Pin_2*%
%TO.N,Net-(J5-Pin_2)*%
X82945000Y-78000000D03*
%TD*%
D20*
%TO.P,J4,1,Pin_1*%
%TO.N,-BATT*%
X107750000Y-106305000D03*
D10*
%TO.P,J4,2,Pin_2*%
%TO.N,Net-(J4-Pin_2)*%
X110250000Y-106305000D03*
%TO.P,J4,3,Pin_3*%
%TO.N,+BATT*%
X112750000Y-106305000D03*
%TD*%
D21*
%TO.P,J3,*%
%TO.N,*%
X103100000Y-106350000D03*
X89600000Y-106350000D03*
D22*
%TO.P,J3,1,Pin_1*%
%TO.N,+BATT*%
X92750000Y-100350000D03*
D23*
%TO.P,J3,2,Pin_2*%
%TO.N,-BATT*%
X99950000Y-100350000D03*
%TD*%
D24*
%TO.N,-BATT*%
X113150000Y-102250000D03*
X113150000Y-98800000D03*
%TO.N,/NSLEEP2*%
X100900000Y-90700000D03*
X109200000Y-83300000D03*
%TO.N,+3.3V*%
X136300000Y-105200000D03*
X132000000Y-102300000D03*
%TO.N,/5.55V*%
X150900000Y-104800000D03*
X146500000Y-102300000D03*
%TO.N,-BATT*%
X139400000Y-98500000D03*
X137500000Y-101300000D03*
X128000000Y-105450000D03*
X127150000Y-105450000D03*
X126250000Y-105450000D03*
X120950000Y-104150000D03*
%TO.N,/BATT+_IN*%
X141150000Y-107600000D03*
X146900000Y-107600000D03*
X145850000Y-107600000D03*
X143150000Y-107600000D03*
X142100000Y-107600000D03*
%TO.N,-BATT*%
X149450000Y-109550000D03*
%TO.N,+BATT*%
X112800000Y-108000000D03*
%TO.N,-BATT*%
X133500000Y-70100000D03*
X130700000Y-70100000D03*
X128100000Y-70100000D03*
%TO.N,+3.3V*%
X127550000Y-78450000D03*
%TO.N,-BATT*%
X143050000Y-113150000D03*
X129700000Y-114500000D03*
X136500000Y-112850000D03*
X126800000Y-113900000D03*
%TO.N,+3.3V*%
X134800000Y-86400000D03*
%TO.N,+BATT*%
X109300000Y-103600000D03*
%TO.N,+5V*%
X145000000Y-94800000D03*
X146900000Y-94800000D03*
%TO.N,-BATT*%
X127100000Y-88300000D03*
%TO.N,/BATT+_IN*%
X126300000Y-87700000D03*
X119400000Y-104100000D03*
%TO.N,VBUS*%
X108600000Y-94200000D03*
X111300000Y-96700000D03*
%TO.N,-BATT*%
X117900000Y-74200000D03*
X113500000Y-68800000D03*
%TO.N,+3.3V*%
X98300000Y-71000000D03*
X97700000Y-72500000D03*
X105200000Y-69300000D03*
X114500000Y-70700000D03*
X138400000Y-77700000D03*
%TO.N,+3.3VA*%
X123000000Y-99300000D03*
X122400000Y-99300000D03*
X121800000Y-99300000D03*
%TO.N,VBUS*%
X147787621Y-79812379D03*
X147787621Y-82187621D03*
X144700000Y-83600000D03*
X144700000Y-78200000D03*
X132500000Y-109500000D03*
%TO.N,/BATT+_IN*%
X128900000Y-108100000D03*
X128300000Y-108100000D03*
X128900000Y-107500000D03*
X128300000Y-107500000D03*
X128900000Y-106900000D03*
X128300000Y-106900000D03*
X102400000Y-94400000D03*
X102400000Y-95400000D03*
X101800000Y-95400000D03*
X101800000Y-94400000D03*
X102500000Y-88200000D03*
X102500000Y-87200000D03*
X101900000Y-88200000D03*
X101900000Y-87200000D03*
%TO.N,+BATT*%
X112800000Y-104700000D03*
%TO.N,VBUS*%
X124000000Y-108800000D03*
X124000000Y-108100000D03*
X124000000Y-107300000D03*
%TO.N,+3.3VA*%
X115400000Y-67100000D03*
X123700000Y-84300000D03*
%TO.N,VBUS*%
X106400000Y-87600000D03*
X106400000Y-86900000D03*
X106200000Y-95400000D03*
X106200000Y-94600000D03*
X117400000Y-102600000D03*
X117400000Y-102000000D03*
X117400000Y-101300000D03*
X117400000Y-100600000D03*
X117400000Y-99900000D03*
X117400000Y-99200000D03*
X117400000Y-98500000D03*
X117400000Y-97800000D03*
%TO.N,Net-(U7-VBATM)*%
X120000000Y-95700000D03*
%TO.N,+BATT*%
X118900000Y-92300000D03*
X118300000Y-92300000D03*
X117700000Y-92300000D03*
X117100000Y-92300000D03*
X116500000Y-92300000D03*
%TO.N,/PI_POWER*%
X138900000Y-111400000D03*
X136700000Y-97300000D03*
%TO.N,Net-(J4-Pin_2)*%
X115400000Y-103735000D03*
X118700000Y-102500000D03*
%TO.N,+BATT*%
X126000000Y-111400000D03*
X127400000Y-112800000D03*
%TO.N,Net-(Q2-G)*%
X116700000Y-109600000D03*
X118900000Y-110800000D03*
%TO.N,/SWDIO*%
X136600000Y-80550000D03*
%TO.N,/SWCLK*%
X134300000Y-77700000D03*
%TO.N,/SPI1_NSS*%
X131026359Y-68126359D03*
X124173641Y-68126359D03*
%TO.N,/SPI1_CLK*%
X123682649Y-67517351D03*
X127800000Y-67500000D03*
%TO.N,/NRST*%
X126900000Y-82602000D03*
%TO.N,/USB_D+*%
X144800000Y-81250000D03*
X143700000Y-80200000D03*
%TO.N,Net-(U7-VBATM)*%
X116100000Y-90800000D03*
%TD*%
D25*
%TO.N,/NSLEEP2*%
X107600000Y-84000000D02*
X100900000Y-90700000D01*
X108500000Y-84000000D02*
X107600000Y-84000000D01*
X109200000Y-83300000D02*
X108500000Y-84000000D01*
%TO.N,/BATT+_IN*%
X125000000Y-98800000D02*
X125000000Y-89000000D01*
X119700000Y-104100000D02*
X125000000Y-98800000D01*
X119400000Y-104100000D02*
X119700000Y-104100000D01*
X125000000Y-89000000D02*
X126300000Y-87700000D01*
%TO.N,+5V*%
X145000000Y-94800000D02*
X146900000Y-94800000D01*
D26*
%TO.N,Net-(J4-Pin_2)*%
X115400000Y-103735000D02*
X117465000Y-103735000D01*
X117465000Y-103735000D02*
X118700000Y-102500000D01*
%TO.N,Net-(U7-VBATM)*%
X118600000Y-90800000D02*
X116100000Y-90800000D01*
X120000000Y-95700000D02*
X120000000Y-92200000D01*
X120000000Y-92200000D02*
X118600000Y-90800000D01*
D25*
%TO.N,/PI_POWER*%
X138900000Y-99500000D02*
X136700000Y-97300000D01*
X138900000Y-111400000D02*
X138900000Y-99500000D01*
D26*
%TO.N,+BATT*%
X126000000Y-111400000D02*
X127400000Y-112800000D01*
%TO.N,Net-(Q2-G)*%
X117900000Y-110800000D02*
X118900000Y-110800000D01*
X116700000Y-109600000D02*
X117900000Y-110800000D01*
D25*
%TO.N,/SWDIO*%
X131300000Y-75482061D02*
X131300000Y-73645000D01*
X136600000Y-79100000D02*
X134917939Y-79100000D01*
X136900000Y-80250000D02*
X136900000Y-79400000D01*
X134917939Y-79100000D02*
X131300000Y-75482061D01*
X136600000Y-80550000D02*
X136900000Y-80250000D01*
X136900000Y-79400000D02*
X136600000Y-79100000D01*
%TO.N,/SWCLK*%
X133800000Y-75500000D02*
X133800000Y-73645000D01*
X134300000Y-76000000D02*
X133800000Y-75500000D01*
X134300000Y-77700000D02*
X134300000Y-76000000D01*
%TO.N,/SPI1_NSS*%
X131026359Y-68126359D02*
X124173641Y-68126359D01*
%TO.N,/SPI1_CLK*%
X127800000Y-67500000D02*
X123700000Y-67500000D01*
X123700000Y-67500000D02*
X123682649Y-67517351D01*
%TO.N,/NRST*%
X126400000Y-82102000D02*
X126400000Y-76045000D01*
X126400000Y-76045000D02*
X128800000Y-73645000D01*
X126900000Y-82602000D02*
X126400000Y-82102000D01*
%TO.N,/USB_D+*%
X144750000Y-81250000D02*
X143700000Y-80200000D01*
X144800000Y-81250000D02*
X144750000Y-81250000D01*
D27*
%TO.N,/5.55V*%
X150900000Y-104800000D02*
X149000000Y-104800000D01*
X149000000Y-104800000D02*
X146500000Y-102300000D01*
%TO.N,+3.3V*%
X136300000Y-105200000D02*
X134900000Y-105200000D01*
X134900000Y-105200000D02*
X132000000Y-102300000D01*
%TD*%
%TA.AperFunction,Conductor*%
%TO.N,-BATT*%
G36*
X149503032Y-64450649D02*
G01*
X149567797Y-64453830D01*
X149866338Y-64468497D01*
X149878440Y-64469689D01*
X150235230Y-64522613D01*
X150247140Y-64524982D01*
X150597046Y-64612629D01*
X150608663Y-64616154D01*
X150948275Y-64737669D01*
X150959497Y-64742317D01*
X151285582Y-64896543D01*
X151296290Y-64902267D01*
X151484308Y-65014961D01*
X151605659Y-65087696D01*
X151615777Y-65094456D01*
X151905488Y-65309321D01*
X151914894Y-65317041D01*
X152182146Y-65559264D01*
X152190735Y-65567853D01*
X152277459Y-65663538D01*
X152432958Y-65835105D01*
X152440678Y-65844511D01*
X152655543Y-66134222D01*
X152662303Y-66144340D01*
X152847725Y-66453697D01*
X152853460Y-66464425D01*
X152893048Y-66548127D01*
X153007679Y-66790495D01*
X153012334Y-66801734D01*
X153133343Y-67139932D01*
X153133840Y-67141319D01*
X153137373Y-67152964D01*
X153225014Y-67502846D01*
X153227388Y-67514782D01*
X153280309Y-67871555D01*
X153281502Y-67883664D01*
X153299351Y-68246967D01*
X153299500Y-68253052D01*
X153299500Y-112246947D01*
X153299351Y-112253032D01*
X153281502Y-112616335D01*
X153280309Y-112628444D01*
X153227388Y-112985217D01*
X153225014Y-112997153D01*
X153137373Y-113347035D01*
X153133840Y-113358680D01*
X153012335Y-113698262D01*
X153007679Y-113709504D01*
X152853462Y-114035570D01*
X152847725Y-114046302D01*
X152662303Y-114355659D01*
X152655543Y-114365777D01*
X152440678Y-114655488D01*
X152432958Y-114664894D01*
X152190743Y-114932138D01*
X152182138Y-114940743D01*
X151914894Y-115182958D01*
X151905488Y-115190678D01*
X151615777Y-115405543D01*
X151605659Y-115412303D01*
X151296302Y-115597725D01*
X151285570Y-115603462D01*
X150959504Y-115757679D01*
X150948262Y-115762335D01*
X150608680Y-115883840D01*
X150597035Y-115887373D01*
X150247153Y-115975014D01*
X150235217Y-115977388D01*
X149878444Y-116030309D01*
X149866335Y-116031502D01*
X149503033Y-116049351D01*
X149496948Y-116049500D01*
X114229500Y-116049500D01*
X114162461Y-116029815D01*
X114116706Y-115977011D01*
X114105500Y-115925500D01*
X114105500Y-114324071D01*
X118599499Y-114324071D01*
X118624497Y-114449738D01*
X118624499Y-114449744D01*
X118673533Y-114568124D01*
X118673538Y-114568133D01*
X118744723Y-114674668D01*
X118744726Y-114674672D01*
X118835327Y-114765273D01*
X118835331Y-114765276D01*
X118941866Y-114836461D01*
X118941872Y-114836464D01*
X118941873Y-114836465D01*
X119060256Y-114885501D01*
X119060260Y-114885501D01*
X119060261Y-114885502D01*
X119185928Y-114910500D01*
X119185931Y-114910500D01*
X119314071Y-114910500D01*
X119398615Y-114893682D01*
X119439744Y-114885501D01*
X119558127Y-114836465D01*
X119664669Y-114765276D01*
X119755276Y-114674669D01*
X119826465Y-114568127D01*
X119875501Y-114449744D01*
X119900500Y-114324071D01*
X121599499Y-114324071D01*
X121624497Y-114449738D01*
X121624499Y-114449744D01*
X121673533Y-114568124D01*
X121673538Y-114568133D01*
X121744723Y-114674668D01*
X121744726Y-114674672D01*
X121835327Y-114765273D01*
X121835331Y-114765276D01*
X121941866Y-114836461D01*
X121941872Y-114836464D01*
X121941873Y-114836465D01*
X122060256Y-114885501D01*
X122060260Y-114885501D01*
X122060261Y-114885502D01*
X122185928Y-114910500D01*
X122185931Y-114910500D01*
X122314071Y-114910500D01*
X122398615Y-114893682D01*
X122439744Y-114885501D01*
X122558127Y-114836465D01*
X122664669Y-114765276D01*
X122755276Y-114674669D01*
X122826465Y-114568127D01*
X122875501Y-114449744D01*
X122900500Y-114324069D01*
X122900500Y-114195931D01*
X122900500Y-114195928D01*
X122875502Y-114070261D01*
X122875501Y-114070260D01*
X122875501Y-114070256D01*
X122826465Y-113951873D01*
X122826464Y-113951872D01*
X122826461Y-113951866D01*
X122755276Y-113845331D01*
X122755273Y-113845327D01*
X122664672Y-113754726D01*
X122664668Y-113754723D01*
X122558133Y-113683538D01*
X122558124Y-113683533D01*
X122439744Y-113634499D01*
X122439738Y-113634497D01*
X122314071Y-113609500D01*
X122314069Y-113609500D01*
X122185931Y-113609500D01*
X122185929Y-113609500D01*
X122060261Y-113634497D01*
X122060255Y-113634499D01*
X121941875Y-113683533D01*
X121941866Y-113683538D01*
X121835331Y-113754723D01*
X121835327Y-113754726D01*
X121744726Y-113845327D01*
X121744723Y-113845331D01*
X121673538Y-113951866D01*
X121673533Y-113951875D01*
X121624499Y-114070255D01*
X121624497Y-114070261D01*
X121599500Y-114195928D01*
X121599500Y-114195931D01*
X121599500Y-114324069D01*
X121599500Y-114324071D01*
X121599499Y-114324071D01*
X119900500Y-114324071D01*
X119900500Y-114324069D01*
X119900500Y-114195931D01*
X119900500Y-114195928D01*
X119875502Y-114070261D01*
X119875501Y-114070260D01*
X119875501Y-114070256D01*
X119826465Y-113951873D01*
X119826464Y-113951872D01*
X119826461Y-113951866D01*
X119755276Y-113845331D01*
X119755273Y-113845327D01*
X119664672Y-113754726D01*
X119664668Y-113754723D01*
X119558133Y-113683538D01*
X119558124Y-113683533D01*
X119439744Y-113634499D01*
X119439738Y-113634497D01*
X119314071Y-113609500D01*
X119314069Y-113609500D01*
X119185931Y-113609500D01*
X119185929Y-113609500D01*
X119060261Y-113634497D01*
X119060255Y-113634499D01*
X118941875Y-113683533D01*
X118941866Y-113683538D01*
X118835331Y-113754723D01*
X118835327Y-113754726D01*
X118744726Y-113845327D01*
X118744723Y-113845331D01*
X118673538Y-113951866D01*
X118673533Y-113951875D01*
X118624499Y-114070255D01*
X118624497Y-114070261D01*
X118599500Y-114195928D01*
X118599500Y-114195931D01*
X118599500Y-114324069D01*
X118599500Y-114324071D01*
X118599499Y-114324071D01*
X114105500Y-114324071D01*
X114105500Y-111340164D01*
X125545499Y-111340164D01*
X125545499Y-111459836D01*
X125576473Y-111575430D01*
X125636310Y-111679070D01*
X127120930Y-113163690D01*
X127224570Y-113223527D01*
X127340164Y-113254501D01*
X127340166Y-113254501D01*
X127459834Y-113254501D01*
X127459836Y-113254501D01*
X127575430Y-113223527D01*
X127679070Y-113163690D01*
X127763690Y-113079070D01*
X127823527Y-112975430D01*
X127854501Y-112859836D01*
X127854501Y-112740164D01*
X127823527Y-112624570D01*
X127763690Y-112520930D01*
X127390408Y-112147648D01*
X148199500Y-112147648D01*
X148199500Y-112352351D01*
X148231522Y-112554534D01*
X148294781Y-112749223D01*
X148387715Y-112931613D01*
X148508028Y-113097213D01*
X148652786Y-113241971D01*
X148797397Y-113347035D01*
X148818390Y-113362287D01*
X148934607Y-113421503D01*
X149000776Y-113455218D01*
X149000778Y-113455218D01*
X149000781Y-113455220D01*
X149105137Y-113489127D01*
X149195465Y-113518477D01*
X149296557Y-113534488D01*
X149397648Y-113550500D01*
X149397649Y-113550500D01*
X149602351Y-113550500D01*
X149602352Y-113550500D01*
X149804534Y-113518477D01*
X149999219Y-113455220D01*
X150181610Y-113362287D01*
X150274590Y-113294732D01*
X150347213Y-113241971D01*
X150347215Y-113241968D01*
X150347219Y-113241966D01*
X150491966Y-113097219D01*
X150491968Y-113097215D01*
X150491971Y-113097213D01*
X150544732Y-113024590D01*
X150612287Y-112931610D01*
X150705220Y-112749219D01*
X150768477Y-112554534D01*
X150800500Y-112352352D01*
X150800500Y-112147648D01*
X150768477Y-111945466D01*
X150705220Y-111750781D01*
X150705218Y-111750778D01*
X150705218Y-111750776D01*
X150659606Y-111661259D01*
X150612287Y-111568390D01*
X150533419Y-111459836D01*
X150491971Y-111402786D01*
X150347213Y-111258028D01*
X150181613Y-111137715D01*
X150181612Y-111137714D01*
X150181610Y-111137713D01*
X150124145Y-111108433D01*
X149999223Y-111044781D01*
X149804534Y-110981522D01*
X149629995Y-110953878D01*
X149602352Y-110949500D01*
X149397648Y-110949500D01*
X149373329Y-110953351D01*
X149195465Y-110981522D01*
X149000776Y-111044781D01*
X148818386Y-111137715D01*
X148652786Y-111258028D01*
X148508028Y-111402786D01*
X148387715Y-111568386D01*
X148294781Y-111750776D01*
X148231522Y-111945465D01*
X148199500Y-112147648D01*
X127390408Y-112147648D01*
X126279070Y-111036310D01*
X126175430Y-110976473D01*
X126059836Y-110945499D01*
X125940164Y-110945499D01*
X125863101Y-110966148D01*
X125824569Y-110976473D01*
X125720930Y-111036310D01*
X125720927Y-111036312D01*
X125636312Y-111120927D01*
X125636310Y-111120930D01*
X125576473Y-111224569D01*
X125576473Y-111224570D01*
X125545499Y-111340164D01*
X114105500Y-111340164D01*
X114105500Y-109540164D01*
X116245499Y-109540164D01*
X116245499Y-109659836D01*
X116276473Y-109775430D01*
X116336310Y-109879070D01*
X116336312Y-109879072D01*
X117531968Y-111074728D01*
X117531978Y-111074739D01*
X117536308Y-111079069D01*
X117536309Y-111079070D01*
X117620930Y-111163691D01*
X117724569Y-111223527D01*
X117840164Y-111254500D01*
X117840166Y-111254500D01*
X118959834Y-111254500D01*
X118959836Y-111254500D01*
X119075431Y-111223527D01*
X119179070Y-111163691D01*
X119263691Y-111079070D01*
X119323527Y-110975431D01*
X119354500Y-110859836D01*
X119354500Y-110740164D01*
X119323527Y-110624569D01*
X119263691Y-110520930D01*
X119179070Y-110436309D01*
X119075431Y-110376473D01*
X118959836Y-110345500D01*
X118959835Y-110345500D01*
X118139622Y-110345500D01*
X118072583Y-110325815D01*
X118051941Y-110309181D01*
X117186742Y-109443982D01*
X132074500Y-109443982D01*
X132074500Y-109556018D01*
X132103497Y-109664237D01*
X132159515Y-109761263D01*
X132238737Y-109840485D01*
X132335763Y-109896503D01*
X132443982Y-109925500D01*
X132443984Y-109925500D01*
X132556016Y-109925500D01*
X132556018Y-109925500D01*
X132664237Y-109896503D01*
X132761263Y-109840485D01*
X132840485Y-109761263D01*
X132896503Y-109664237D01*
X132925500Y-109556018D01*
X132925500Y-109443982D01*
X132896503Y-109335763D01*
X132840485Y-109238737D01*
X132761263Y-109159515D01*
X132664237Y-109103497D01*
X132556018Y-109074500D01*
X132443982Y-109074500D01*
X132335763Y-109103497D01*
X132335760Y-109103498D01*
X132238740Y-109159513D01*
X132238734Y-109159517D01*
X132159517Y-109238734D01*
X132159513Y-109238740D01*
X132103498Y-109335760D01*
X132103497Y-109335763D01*
X132074500Y-109443982D01*
X117186742Y-109443982D01*
X116979072Y-109236312D01*
X116979070Y-109236310D01*
X116875430Y-109176473D01*
X116759836Y-109145499D01*
X116640164Y-109145499D01*
X116563101Y-109166148D01*
X116524569Y-109176473D01*
X116420930Y-109236310D01*
X116420927Y-109236312D01*
X116336312Y-109320927D01*
X116336310Y-109320930D01*
X116276473Y-109424569D01*
X116276473Y-109424570D01*
X116245499Y-109540164D01*
X114105500Y-109540164D01*
X114105500Y-107243982D01*
X123574500Y-107243982D01*
X123574500Y-107356018D01*
X123603497Y-107464237D01*
X123659515Y-107561263D01*
X123659517Y-107561265D01*
X123710571Y-107612319D01*
X123744056Y-107673642D01*
X123739072Y-107743334D01*
X123710571Y-107787681D01*
X123659517Y-107838734D01*
X123659513Y-107838740D01*
X123603498Y-107935760D01*
X123603497Y-107935763D01*
X123574500Y-108043982D01*
X123574500Y-108156018D01*
X123603497Y-108264237D01*
X123659515Y-108361263D01*
X123659517Y-108361265D01*
X123660577Y-108362325D01*
X123661184Y-108363437D01*
X123664462Y-108367709D01*
X123663795Y-108368220D01*
X123694057Y-108423651D01*
X123689068Y-108493342D01*
X123664177Y-108532072D01*
X123664462Y-108532291D01*
X123661847Y-108535698D01*
X123660577Y-108537675D01*
X123659517Y-108538734D01*
X123659513Y-108538740D01*
X123603498Y-108635760D01*
X123603497Y-108635763D01*
X123574500Y-108743982D01*
X123574500Y-108856018D01*
X123603497Y-108964237D01*
X123659515Y-109061263D01*
X123738737Y-109140485D01*
X123835763Y-109196503D01*
X123943982Y-109225500D01*
X123943984Y-109225500D01*
X124056016Y-109225500D01*
X124056018Y-109225500D01*
X124164237Y-109196503D01*
X124261263Y-109140485D01*
X124340485Y-109061263D01*
X124396503Y-108964237D01*
X124425500Y-108856018D01*
X124425500Y-108743982D01*
X124396503Y-108635763D01*
X124340485Y-108538737D01*
X124339429Y-108537681D01*
X124338824Y-108536573D01*
X124335538Y-108532291D01*
X124336205Y-108531778D01*
X124305944Y-108476358D01*
X124310928Y-108406666D01*
X124335823Y-108367928D01*
X124335538Y-108367709D01*
X124338165Y-108364284D01*
X124339429Y-108362319D01*
X124340485Y-108361263D01*
X124396503Y-108264237D01*
X124425500Y-108156018D01*
X124425500Y-108043982D01*
X124396503Y-107935763D01*
X124340485Y-107838737D01*
X124289429Y-107787681D01*
X124255944Y-107726358D01*
X124260928Y-107656666D01*
X124289429Y-107612319D01*
X124340485Y-107561263D01*
X124396503Y-107464237D01*
X124425500Y-107356018D01*
X124425500Y-107243982D01*
X124396503Y-107135763D01*
X124340485Y-107038737D01*
X124261263Y-106959515D01*
X124164237Y-106903497D01*
X124056018Y-106874500D01*
X123943982Y-106874500D01*
X123835763Y-106903497D01*
X123835760Y-106903498D01*
X123738740Y-106959513D01*
X123738734Y-106959517D01*
X123659517Y-107038734D01*
X123659513Y-107038740D01*
X123603498Y-107135760D01*
X123603497Y-107135763D01*
X123574500Y-107243982D01*
X114105500Y-107243982D01*
X114105500Y-106843982D01*
X127874500Y-106843982D01*
X127874500Y-106956018D01*
X127901527Y-107056882D01*
X127903497Y-107064236D01*
X127903498Y-107064239D01*
X127946084Y-107138000D01*
X127962557Y-107205900D01*
X127946084Y-107262000D01*
X127903498Y-107335760D01*
X127903497Y-107335763D01*
X127874500Y-107443982D01*
X127874500Y-107556018D01*
X127901469Y-107656666D01*
X127903497Y-107664236D01*
X127903498Y-107664239D01*
X127946084Y-107738000D01*
X127962557Y-107805900D01*
X127946084Y-107862000D01*
X127903498Y-107935760D01*
X127903497Y-107935763D01*
X127874500Y-108043982D01*
X127874500Y-108156018D01*
X127903497Y-108264237D01*
X127959515Y-108361263D01*
X128038737Y-108440485D01*
X128135763Y-108496503D01*
X128243982Y-108525500D01*
X128243984Y-108525500D01*
X128356016Y-108525500D01*
X128356018Y-108525500D01*
X128464237Y-108496503D01*
X128538003Y-108453913D01*
X128605899Y-108437442D01*
X128661995Y-108453913D01*
X128735763Y-108496503D01*
X128843982Y-108525500D01*
X128843984Y-108525500D01*
X128956016Y-108525500D01*
X128956018Y-108525500D01*
X129064237Y-108496503D01*
X129161263Y-108440485D01*
X129240485Y-108361263D01*
X129296503Y-108264237D01*
X129325500Y-108156018D01*
X129325500Y-108043982D01*
X129296503Y-107935763D01*
X129253913Y-107861996D01*
X129237442Y-107794101D01*
X129253913Y-107738004D01*
X129296503Y-107664237D01*
X129325500Y-107556018D01*
X129325500Y-107443982D01*
X129296503Y-107335763D01*
X129253913Y-107261996D01*
X129237442Y-107194101D01*
X129253913Y-107138004D01*
X129296503Y-107064237D01*
X129325500Y-106956018D01*
X129325500Y-106843982D01*
X129296503Y-106735763D01*
X129240485Y-106638737D01*
X129161263Y-106559515D01*
X129064237Y-106503497D01*
X128956018Y-106474500D01*
X128843982Y-106474500D01*
X128735763Y-106503497D01*
X128735760Y-106503498D01*
X128662000Y-106546084D01*
X128594100Y-106562557D01*
X128538000Y-106546084D01*
X128464239Y-106503498D01*
X128464238Y-106503497D01*
X128464237Y-106503497D01*
X128356018Y-106474500D01*
X128243982Y-106474500D01*
X128135763Y-106503497D01*
X128135760Y-106503498D01*
X128038740Y-106559513D01*
X128038734Y-106559517D01*
X127959517Y-106638734D01*
X127959513Y-106638740D01*
X127903498Y-106735760D01*
X127903497Y-106735763D01*
X127874500Y-106843982D01*
X114105500Y-106843982D01*
X114105500Y-103675164D01*
X114945500Y-103675164D01*
X114945500Y-103794836D01*
X114976473Y-103910431D01*
X115036309Y-104014070D01*
X115120930Y-104098691D01*
X115224569Y-104158527D01*
X115340164Y-104189500D01*
X117397552Y-104189500D01*
X117397568Y-104189501D01*
X117405164Y-104189501D01*
X117524834Y-104189501D01*
X117524836Y-104189501D01*
X117616415Y-104164962D01*
X117640431Y-104158527D01*
X117744070Y-104098691D01*
X117798779Y-104043982D01*
X118974500Y-104043982D01*
X118974500Y-104156018D01*
X119003497Y-104264237D01*
X119059515Y-104361263D01*
X119138737Y-104440485D01*
X119235763Y-104496503D01*
X119343982Y-104525500D01*
X119343984Y-104525500D01*
X119456016Y-104525500D01*
X119456018Y-104525500D01*
X119564237Y-104496503D01*
X119597228Y-104477454D01*
X119606627Y-104472551D01*
X119615208Y-104468531D01*
X119629496Y-104464339D01*
X119675361Y-104440355D01*
X119677812Y-104439208D01*
X119691002Y-104437181D01*
X119730410Y-104427500D01*
X119743114Y-104427500D01*
X119743116Y-104427500D01*
X119826410Y-104405181D01*
X119901090Y-104362065D01*
X119969687Y-104293467D01*
X119973331Y-104290439D01*
X120020520Y-104248267D01*
X120024767Y-104244363D01*
X120025244Y-104243912D01*
X120038517Y-104224637D01*
X122019172Y-102243982D01*
X131574500Y-102243982D01*
X131574500Y-102356018D01*
X131603497Y-102464237D01*
X131659515Y-102561263D01*
X131738737Y-102640485D01*
X131797545Y-102674437D01*
X131823225Y-102694143D01*
X134572618Y-105443536D01*
X134572628Y-105443547D01*
X134576958Y-105447877D01*
X134576959Y-105447878D01*
X134652122Y-105523041D01*
X134744177Y-105576189D01*
X134846851Y-105603700D01*
X134846852Y-105603700D01*
X136146298Y-105603700D01*
X136178390Y-105607924D01*
X136243982Y-105625500D01*
X136243984Y-105625500D01*
X136356016Y-105625500D01*
X136356018Y-105625500D01*
X136464237Y-105596503D01*
X136561263Y-105540485D01*
X136640485Y-105461263D01*
X136696503Y-105364237D01*
X136725500Y-105256018D01*
X136725500Y-105143982D01*
X136696503Y-105035763D01*
X136640485Y-104938737D01*
X136561263Y-104859515D01*
X136464237Y-104803497D01*
X136356018Y-104774500D01*
X136243982Y-104774500D01*
X136178391Y-104792075D01*
X136146298Y-104796300D01*
X135118580Y-104796300D01*
X135051541Y-104776615D01*
X135030899Y-104759981D01*
X132394143Y-102123225D01*
X132374436Y-102097543D01*
X132362272Y-102076474D01*
X132340485Y-102038737D01*
X132261263Y-101959515D01*
X132164237Y-101903497D01*
X132056018Y-101874500D01*
X131943982Y-101874500D01*
X131835763Y-101903497D01*
X131835760Y-101903498D01*
X131738740Y-101959513D01*
X131738734Y-101959517D01*
X131659517Y-102038734D01*
X131659513Y-102038740D01*
X131603498Y-102135760D01*
X131603497Y-102135763D01*
X131574500Y-102243982D01*
X122019172Y-102243982D01*
X125262065Y-99001090D01*
X125305181Y-98926410D01*
X125327500Y-98843116D01*
X125327500Y-98756884D01*
X125327500Y-97243982D01*
X136274500Y-97243982D01*
X136274500Y-97356018D01*
X136303497Y-97464237D01*
X136359515Y-97561263D01*
X136438737Y-97640485D01*
X136468367Y-97657592D01*
X136486732Y-97673091D01*
X136615832Y-97744401D01*
X136623990Y-97748671D01*
X136624937Y-97749140D01*
X136633408Y-97753098D01*
X136645417Y-97758379D01*
X136692736Y-97782406D01*
X136716169Y-97797869D01*
X136785248Y-97855674D01*
X136788193Y-97857370D01*
X136813986Y-97877141D01*
X138536181Y-99599336D01*
X138569666Y-99660659D01*
X138572500Y-99687017D01*
X138572500Y-110918647D01*
X138571984Y-110929951D01*
X138571103Y-110939573D01*
X138567201Y-110955059D01*
X138564137Y-111015671D01*
X138563906Y-111018197D01*
X138563557Y-111019077D01*
X138562263Y-111029929D01*
X138558566Y-111049483D01*
X138553812Y-111067271D01*
X138537523Y-111113989D01*
X138536983Y-111115506D01*
X138512211Y-111183691D01*
X138508995Y-111193269D01*
X138508654Y-111194372D01*
X138505838Y-111204390D01*
X138483165Y-111293633D01*
X138481858Y-111299080D01*
X138481752Y-111299552D01*
X138481751Y-111299555D01*
X138481707Y-111302559D01*
X138477499Y-111332785D01*
X138474500Y-111343977D01*
X138474500Y-111343982D01*
X138474500Y-111456018D01*
X138503497Y-111564237D01*
X138559515Y-111661263D01*
X138638737Y-111740485D01*
X138735763Y-111796503D01*
X138843982Y-111825500D01*
X138843984Y-111825500D01*
X138956016Y-111825500D01*
X138956018Y-111825500D01*
X139064237Y-111796503D01*
X139161263Y-111740485D01*
X139240485Y-111661263D01*
X139296503Y-111564237D01*
X139325500Y-111456018D01*
X139325500Y-111343982D01*
X139316643Y-111310928D01*
X139314619Y-111286988D01*
X139273756Y-111145277D01*
X139270981Y-111136412D01*
X139270643Y-111135412D01*
X139267479Y-111126703D01*
X139262711Y-111114449D01*
X139249636Y-111074400D01*
X139246248Y-111064019D01*
X139240613Y-111036514D01*
X139232640Y-110946794D01*
X139231757Y-110943511D01*
X139227500Y-110911300D01*
X139227500Y-107543982D01*
X140724500Y-107543982D01*
X140724500Y-107656018D01*
X140743348Y-107726358D01*
X140753497Y-107764236D01*
X140753498Y-107764239D01*
X140761907Y-107778804D01*
X140809515Y-107861263D01*
X140888737Y-107940485D01*
X140985763Y-107996503D01*
X141093982Y-108025500D01*
X141093984Y-108025500D01*
X141206016Y-108025500D01*
X141206018Y-108025500D01*
X141314237Y-107996503D01*
X141411263Y-107940485D01*
X141490485Y-107861263D01*
X141517614Y-107814273D01*
X141568179Y-107766060D01*
X141636786Y-107752836D01*
X141701651Y-107778804D01*
X141732385Y-107814272D01*
X141759515Y-107861263D01*
X141838737Y-107940485D01*
X141935763Y-107996503D01*
X142043982Y-108025500D01*
X142043984Y-108025500D01*
X142156016Y-108025500D01*
X142156018Y-108025500D01*
X142264237Y-107996503D01*
X142361263Y-107940485D01*
X142440485Y-107861263D01*
X142496503Y-107764237D01*
X142505225Y-107731682D01*
X142541590Y-107672023D01*
X142604436Y-107641494D01*
X142673812Y-107649788D01*
X142727690Y-107694274D01*
X142744773Y-107731681D01*
X142750442Y-107752836D01*
X142753497Y-107764236D01*
X142753498Y-107764239D01*
X142761907Y-107778804D01*
X142809515Y-107861263D01*
X142888737Y-107940485D01*
X142985763Y-107996503D01*
X143093982Y-108025500D01*
X143093984Y-108025500D01*
X143206016Y-108025500D01*
X143206018Y-108025500D01*
X143314237Y-107996503D01*
X143411263Y-107940485D01*
X143490485Y-107861263D01*
X143546503Y-107764237D01*
X143575500Y-107656018D01*
X143575500Y-107543982D01*
X145424500Y-107543982D01*
X145424500Y-107656018D01*
X145443348Y-107726358D01*
X145453497Y-107764236D01*
X145453498Y-107764239D01*
X145461907Y-107778804D01*
X145509515Y-107861263D01*
X145588737Y-107940485D01*
X145685763Y-107996503D01*
X145793982Y-108025500D01*
X145793984Y-108025500D01*
X145906016Y-108025500D01*
X145906018Y-108025500D01*
X146014237Y-107996503D01*
X146111263Y-107940485D01*
X146190485Y-107861263D01*
X146246503Y-107764237D01*
X146255225Y-107731682D01*
X146291590Y-107672023D01*
X146354436Y-107641494D01*
X146423812Y-107649788D01*
X146477690Y-107694274D01*
X146494773Y-107731681D01*
X146500442Y-107752836D01*
X146503497Y-107764236D01*
X146503498Y-107764239D01*
X146511907Y-107778804D01*
X146559515Y-107861263D01*
X146638737Y-107940485D01*
X146735763Y-107996503D01*
X146843982Y-108025500D01*
X146843984Y-108025500D01*
X146956016Y-108025500D01*
X146956018Y-108025500D01*
X147064237Y-107996503D01*
X147161263Y-107940485D01*
X147240485Y-107861263D01*
X147296503Y-107764237D01*
X147325500Y-107656018D01*
X147325500Y-107543982D01*
X147296503Y-107435763D01*
X147240485Y-107338737D01*
X147161263Y-107259515D01*
X147067183Y-107205198D01*
X147064239Y-107203498D01*
X147064238Y-107203497D01*
X147064237Y-107203497D01*
X146956018Y-107174500D01*
X146843982Y-107174500D01*
X146735763Y-107203497D01*
X146735760Y-107203498D01*
X146638740Y-107259513D01*
X146638734Y-107259517D01*
X146559517Y-107338734D01*
X146559513Y-107338740D01*
X146503498Y-107435760D01*
X146503497Y-107435761D01*
X146501294Y-107443984D01*
X146495868Y-107464237D01*
X146494775Y-107468316D01*
X146458410Y-107527976D01*
X146395563Y-107558505D01*
X146326187Y-107550210D01*
X146272309Y-107505725D01*
X146255225Y-107468316D01*
X146254132Y-107464237D01*
X146246503Y-107435763D01*
X146190485Y-107338737D01*
X146111263Y-107259515D01*
X146017183Y-107205198D01*
X146014239Y-107203498D01*
X146014238Y-107203497D01*
X146014237Y-107203497D01*
X145906018Y-107174500D01*
X145793982Y-107174500D01*
X145685763Y-107203497D01*
X145685760Y-107203498D01*
X145588740Y-107259513D01*
X145588734Y-107259517D01*
X145509517Y-107338734D01*
X145509513Y-107338740D01*
X145453498Y-107435760D01*
X145453498Y-107435761D01*
X145453497Y-107435763D01*
X145424500Y-107543982D01*
X143575500Y-107543982D01*
X143546503Y-107435763D01*
X143490485Y-107338737D01*
X143411263Y-107259515D01*
X143317183Y-107205198D01*
X143314239Y-107203498D01*
X143314238Y-107203497D01*
X143314237Y-107203497D01*
X143206018Y-107174500D01*
X143093982Y-107174500D01*
X142985763Y-107203497D01*
X142985760Y-107203498D01*
X142888740Y-107259513D01*
X142888734Y-107259517D01*
X142809517Y-107338734D01*
X142809513Y-107338740D01*
X142753498Y-107435760D01*
X142753497Y-107435761D01*
X142751294Y-107443984D01*
X142745868Y-107464237D01*
X142744775Y-107468316D01*
X142708410Y-107527976D01*
X142645563Y-107558505D01*
X142576187Y-107550210D01*
X142522309Y-107505725D01*
X142505225Y-107468316D01*
X142504132Y-107464237D01*
X142496503Y-107435763D01*
X142440485Y-107338737D01*
X142361263Y-107259515D01*
X142267183Y-107205198D01*
X142264239Y-107203498D01*
X142264238Y-107203497D01*
X142264237Y-107203497D01*
X142156018Y-107174500D01*
X142043982Y-107174500D01*
X141935763Y-107203497D01*
X141935760Y-107203498D01*
X141838740Y-107259513D01*
X141838734Y-107259517D01*
X141759517Y-107338734D01*
X141759513Y-107338740D01*
X141732387Y-107385724D01*
X141681820Y-107433940D01*
X141613213Y-107447163D01*
X141548348Y-107421195D01*
X141517613Y-107385724D01*
X141500462Y-107356018D01*
X141490485Y-107338737D01*
X141411263Y-107259515D01*
X141317183Y-107205198D01*
X141314239Y-107203498D01*
X141314238Y-107203497D01*
X141314237Y-107203497D01*
X141206018Y-107174500D01*
X141093982Y-107174500D01*
X140985763Y-107203497D01*
X140985760Y-107203498D01*
X140888740Y-107259513D01*
X140888734Y-107259517D01*
X140809517Y-107338734D01*
X140809513Y-107338740D01*
X140753498Y-107435760D01*
X140753498Y-107435761D01*
X140753497Y-107435763D01*
X140724500Y-107543982D01*
X139227500Y-107543982D01*
X139227500Y-102243982D01*
X146074500Y-102243982D01*
X146074500Y-102356018D01*
X146103497Y-102464237D01*
X146159515Y-102561263D01*
X146238737Y-102640485D01*
X146297545Y-102674437D01*
X146323225Y-102694143D01*
X148672618Y-105043536D01*
X148672628Y-105043547D01*
X148676958Y-105047877D01*
X148676959Y-105047878D01*
X148752122Y-105123041D01*
X148844177Y-105176189D01*
X148844181Y-105176190D01*
X148844185Y-105176192D01*
X148856982Y-105179620D01*
X148856985Y-105179620D01*
X148865875Y-105182002D01*
X148946852Y-105203701D01*
X149053148Y-105203701D01*
X149053152Y-105203700D01*
X150746298Y-105203700D01*
X150778390Y-105207924D01*
X150843982Y-105225500D01*
X150843984Y-105225500D01*
X150956016Y-105225500D01*
X150956018Y-105225500D01*
X151064237Y-105196503D01*
X151161263Y-105140485D01*
X151240485Y-105061263D01*
X151296503Y-104964237D01*
X151325500Y-104856018D01*
X151325500Y-104743982D01*
X151296503Y-104635763D01*
X151240485Y-104538737D01*
X151161263Y-104459515D01*
X151064237Y-104403497D01*
X150956018Y-104374500D01*
X150843982Y-104374500D01*
X150778391Y-104392075D01*
X150746298Y-104396300D01*
X149218580Y-104396300D01*
X149151541Y-104376615D01*
X149130899Y-104359981D01*
X146894143Y-102123225D01*
X146874436Y-102097543D01*
X146862272Y-102076474D01*
X146840485Y-102038737D01*
X146761263Y-101959515D01*
X146664237Y-101903497D01*
X146556018Y-101874500D01*
X146443982Y-101874500D01*
X146335763Y-101903497D01*
X146335760Y-101903498D01*
X146238740Y-101959513D01*
X146238734Y-101959517D01*
X146159517Y-102038734D01*
X146159513Y-102038740D01*
X146103498Y-102135760D01*
X146103497Y-102135763D01*
X146074500Y-102243982D01*
X139227500Y-102243982D01*
X139227500Y-99456885D01*
X139225946Y-99451086D01*
X139205181Y-99373590D01*
X139162065Y-99298910D01*
X139101090Y-99237935D01*
X137271944Y-97408789D01*
X137264317Y-97400432D01*
X137258132Y-97393001D01*
X137249943Y-97379294D01*
X137209251Y-97334270D01*
X137207623Y-97332314D01*
X137207248Y-97331448D01*
X137200492Y-97322863D01*
X137189286Y-97306434D01*
X137180065Y-97290487D01*
X137158565Y-97245969D01*
X137157873Y-97244512D01*
X137127147Y-97178720D01*
X137122606Y-97169596D01*
X137122050Y-97168545D01*
X137117034Y-97159611D01*
X137102848Y-97135760D01*
X137069976Y-97080495D01*
X137069096Y-97079057D01*
X137067294Y-97076110D01*
X137067018Y-97075672D01*
X137067010Y-97075661D01*
X137064772Y-97073351D01*
X137046460Y-97049087D01*
X137040485Y-97038737D01*
X136961263Y-96959515D01*
X136864237Y-96903497D01*
X136756018Y-96874500D01*
X136643982Y-96874500D01*
X136535763Y-96903497D01*
X136535760Y-96903498D01*
X136438740Y-96959513D01*
X136438734Y-96959517D01*
X136359517Y-97038734D01*
X136359513Y-97038740D01*
X136303498Y-97135760D01*
X136303497Y-97135763D01*
X136274500Y-97243982D01*
X125327500Y-97243982D01*
X125327500Y-92880247D01*
X126409500Y-92880247D01*
X126409500Y-94619752D01*
X126421131Y-94678229D01*
X126421132Y-94678230D01*
X126465447Y-94744552D01*
X126531769Y-94788867D01*
X126531770Y-94788868D01*
X126590247Y-94800499D01*
X126590250Y-94800500D01*
X126590252Y-94800500D01*
X128329750Y-94800500D01*
X128329751Y-94800499D01*
X128344568Y-94797552D01*
X128388229Y-94788868D01*
X128388229Y-94788867D01*
X128388231Y-94788867D01*
X128454552Y-94744552D01*
X128498867Y-94678231D01*
X128498867Y-94678229D01*
X128498868Y-94678229D01*
X128510499Y-94619752D01*
X128510500Y-94619750D01*
X128510500Y-93646530D01*
X128949500Y-93646530D01*
X128949500Y-93853469D01*
X128989868Y-94056412D01*
X128989870Y-94056420D01*
X129064155Y-94235760D01*
X129069059Y-94247598D01*
X129077022Y-94259515D01*
X129184024Y-94419657D01*
X129330342Y-94565975D01*
X129330345Y-94565977D01*
X129502402Y-94680941D01*
X129693580Y-94760130D01*
X129876441Y-94796503D01*
X129896530Y-94800499D01*
X129896534Y-94800500D01*
X129896535Y-94800500D01*
X130103466Y-94800500D01*
X130103467Y-94800499D01*
X130306420Y-94760130D01*
X130497598Y-94680941D01*
X130669655Y-94565977D01*
X130815977Y-94419655D01*
X130930941Y-94247598D01*
X131010130Y-94056420D01*
X131050500Y-93853465D01*
X131050500Y-93646535D01*
X131050499Y-93646530D01*
X134029500Y-93646530D01*
X134029500Y-93853469D01*
X134069868Y-94056412D01*
X134069870Y-94056420D01*
X134144155Y-94235760D01*
X134149059Y-94247598D01*
X134157022Y-94259515D01*
X134264024Y-94419657D01*
X134410342Y-94565975D01*
X134410345Y-94565977D01*
X134582402Y-94680941D01*
X134773580Y-94760130D01*
X134956441Y-94796503D01*
X134976530Y-94800499D01*
X134976534Y-94800500D01*
X134976535Y-94800500D01*
X135183466Y-94800500D01*
X135183467Y-94800499D01*
X135386420Y-94760130D01*
X135425404Y-94743982D01*
X144574500Y-94743982D01*
X144574500Y-94856018D01*
X144603497Y-94964237D01*
X144659515Y-95061263D01*
X144738737Y-95140485D01*
X144835763Y-95196503D01*
X144943982Y-95225500D01*
X144943984Y-95225500D01*
X145056016Y-95225500D01*
X145056018Y-95225500D01*
X145089071Y-95216643D01*
X145113011Y-95214619D01*
X145254721Y-95173756D01*
X145263586Y-95170981D01*
X145264586Y-95170643D01*
X145273295Y-95167479D01*
X145285553Y-95162709D01*
X145324827Y-95149887D01*
X145335978Y-95146248D01*
X145363482Y-95140613D01*
X145453204Y-95132640D01*
X145456482Y-95131757D01*
X145488697Y-95127500D01*
X146418649Y-95127500D01*
X146429950Y-95128016D01*
X146439575Y-95128896D01*
X146455061Y-95132799D01*
X146515685Y-95135862D01*
X146518205Y-95136093D01*
X146519084Y-95136441D01*
X146529929Y-95137733D01*
X146549464Y-95141426D01*
X146567249Y-95146178D01*
X146614071Y-95162502D01*
X146615393Y-95162973D01*
X146683708Y-95187793D01*
X146693408Y-95191046D01*
X146694522Y-95191389D01*
X146704391Y-95194160D01*
X146793603Y-95216826D01*
X146798584Y-95218026D01*
X146799133Y-95218151D01*
X146800085Y-95218166D01*
X146802327Y-95218202D01*
X146832456Y-95222412D01*
X146843978Y-95225499D01*
X146843982Y-95225500D01*
X146956016Y-95225500D01*
X146956018Y-95225500D01*
X147064237Y-95196503D01*
X147161263Y-95140485D01*
X147240485Y-95061263D01*
X147296503Y-94964237D01*
X147325500Y-94856018D01*
X147325500Y-94743982D01*
X147296503Y-94635763D01*
X147240485Y-94538737D01*
X147161263Y-94459515D01*
X147092227Y-94419657D01*
X147064239Y-94403498D01*
X147064238Y-94403497D01*
X147064237Y-94403497D01*
X146956018Y-94374500D01*
X146843982Y-94374500D01*
X146843979Y-94374500D01*
X146822027Y-94380382D01*
X146821958Y-94380400D01*
X146810933Y-94383355D01*
X146786988Y-94385380D01*
X146645255Y-94426249D01*
X146636468Y-94428997D01*
X146635520Y-94429317D01*
X146626728Y-94432510D01*
X146614458Y-94437284D01*
X146608463Y-94439240D01*
X146608434Y-94439249D01*
X146564014Y-94453750D01*
X146536511Y-94459385D01*
X146446804Y-94467357D01*
X146446789Y-94467360D01*
X146443517Y-94468241D01*
X146411298Y-94472500D01*
X145481354Y-94472500D01*
X145470052Y-94471984D01*
X145460427Y-94471103D01*
X145444938Y-94467200D01*
X145384320Y-94464137D01*
X145381796Y-94463906D01*
X145380915Y-94463557D01*
X145370061Y-94462263D01*
X145350524Y-94458569D01*
X145332738Y-94453816D01*
X145285969Y-94437510D01*
X145284450Y-94436969D01*
X145216283Y-94412203D01*
X145211521Y-94410607D01*
X145206514Y-94408929D01*
X145205405Y-94408588D01*
X145205028Y-94408482D01*
X145195608Y-94405838D01*
X145106370Y-94383166D01*
X145101132Y-94381908D01*
X145101120Y-94381905D01*
X145100603Y-94381788D01*
X145100602Y-94381787D01*
X145100598Y-94381787D01*
X145100597Y-94381787D01*
X145097517Y-94381740D01*
X145067330Y-94377530D01*
X145056025Y-94374501D01*
X145056019Y-94374500D01*
X145056018Y-94374500D01*
X144943982Y-94374500D01*
X144835763Y-94403497D01*
X144835760Y-94403498D01*
X144738740Y-94459513D01*
X144738734Y-94459517D01*
X144659517Y-94538734D01*
X144659513Y-94538740D01*
X144603498Y-94635760D01*
X144603497Y-94635763D01*
X144574500Y-94743982D01*
X135425404Y-94743982D01*
X135577598Y-94680941D01*
X135577599Y-94680940D01*
X135577600Y-94680940D01*
X135649713Y-94632756D01*
X135649718Y-94632752D01*
X135749655Y-94565977D01*
X135895977Y-94419655D01*
X136010941Y-94247598D01*
X136090130Y-94056420D01*
X136130500Y-93853465D01*
X136130500Y-93646535D01*
X136090130Y-93443580D01*
X136010941Y-93252402D01*
X135895977Y-93080345D01*
X135895975Y-93080342D01*
X135749657Y-92934024D01*
X135663626Y-92876541D01*
X135577598Y-92819059D01*
X135506811Y-92789738D01*
X135386420Y-92739870D01*
X135386412Y-92739868D01*
X135183469Y-92699500D01*
X135183465Y-92699500D01*
X134976535Y-92699500D01*
X134976530Y-92699500D01*
X134773587Y-92739868D01*
X134773579Y-92739870D01*
X134582403Y-92819058D01*
X134410342Y-92934024D01*
X134264024Y-93080342D01*
X134149058Y-93252403D01*
X134069870Y-93443579D01*
X134069868Y-93443587D01*
X134029500Y-93646530D01*
X131050499Y-93646530D01*
X131010130Y-93443580D01*
X130930941Y-93252402D01*
X130815977Y-93080345D01*
X130815975Y-93080342D01*
X130669657Y-92934024D01*
X130583626Y-92876541D01*
X130497598Y-92819059D01*
X130426811Y-92789738D01*
X130306420Y-92739870D01*
X130306412Y-92739868D01*
X130103469Y-92699500D01*
X130103465Y-92699500D01*
X129896535Y-92699500D01*
X129896530Y-92699500D01*
X129693587Y-92739868D01*
X129693579Y-92739870D01*
X129502403Y-92819058D01*
X129330342Y-92934024D01*
X129184024Y-93080342D01*
X129069058Y-93252403D01*
X128989870Y-93443579D01*
X128989868Y-93443587D01*
X128949500Y-93646530D01*
X128510500Y-93646530D01*
X128510500Y-92880249D01*
X128510499Y-92880247D01*
X128498868Y-92821770D01*
X128498867Y-92821769D01*
X128454552Y-92755447D01*
X128388230Y-92711132D01*
X128388229Y-92711131D01*
X128329752Y-92699500D01*
X128329748Y-92699500D01*
X126590252Y-92699500D01*
X126590247Y-92699500D01*
X126531770Y-92711131D01*
X126531769Y-92711132D01*
X126465447Y-92755447D01*
X126421132Y-92821769D01*
X126421131Y-92821770D01*
X126409500Y-92880247D01*
X125327500Y-92880247D01*
X125327500Y-92377973D01*
X140949500Y-92377973D01*
X140949500Y-92622026D01*
X140984894Y-92845497D01*
X140987679Y-92863076D01*
X141063096Y-93095185D01*
X141143202Y-93252403D01*
X141173896Y-93312642D01*
X141317339Y-93510076D01*
X141317343Y-93510081D01*
X141489918Y-93682656D01*
X141489923Y-93682660D01*
X141616331Y-93774500D01*
X141687361Y-93826106D01*
X141904815Y-93936904D01*
X142136924Y-94012321D01*
X142377973Y-94050500D01*
X142377974Y-94050500D01*
X142622026Y-94050500D01*
X142622027Y-94050500D01*
X142863076Y-94012321D01*
X143095185Y-93936904D01*
X143312639Y-93826106D01*
X143510083Y-93682655D01*
X143682655Y-93510083D01*
X143826106Y-93312639D01*
X143936904Y-93095185D01*
X144012321Y-92863076D01*
X144043841Y-92664071D01*
X151059499Y-92664071D01*
X151084497Y-92789738D01*
X151084499Y-92789744D01*
X151133533Y-92908124D01*
X151133538Y-92908133D01*
X151204723Y-93014668D01*
X151204726Y-93014672D01*
X151295327Y-93105273D01*
X151295331Y-93105276D01*
X151401866Y-93176461D01*
X151401872Y-93176464D01*
X151401873Y-93176465D01*
X151520256Y-93225501D01*
X151520260Y-93225501D01*
X151520261Y-93225502D01*
X151645928Y-93250500D01*
X151645931Y-93250500D01*
X151774071Y-93250500D01*
X151858615Y-93233682D01*
X151899744Y-93225501D01*
X152018127Y-93176465D01*
X152124669Y-93105276D01*
X152215276Y-93014669D01*
X152286465Y-92908127D01*
X152335501Y-92789744D01*
X152348280Y-92725500D01*
X152360500Y-92664071D01*
X152360500Y-92535928D01*
X152335502Y-92410261D01*
X152335501Y-92410260D01*
X152335501Y-92410256D01*
X152286465Y-92291873D01*
X152286464Y-92291872D01*
X152286461Y-92291866D01*
X152215276Y-92185331D01*
X152215273Y-92185327D01*
X152124672Y-92094726D01*
X152124668Y-92094723D01*
X152018133Y-92023538D01*
X152018124Y-92023533D01*
X151899744Y-91974499D01*
X151899738Y-91974497D01*
X151774071Y-91949500D01*
X151774069Y-91949500D01*
X151645931Y-91949500D01*
X151645929Y-91949500D01*
X151520261Y-91974497D01*
X151520255Y-91974499D01*
X151401875Y-92023533D01*
X151401866Y-92023538D01*
X151295331Y-92094723D01*
X151295327Y-92094726D01*
X151204726Y-92185327D01*
X151204723Y-92185331D01*
X151133538Y-92291866D01*
X151133533Y-92291875D01*
X151084499Y-92410255D01*
X151084497Y-92410261D01*
X151059500Y-92535928D01*
X151059500Y-92535931D01*
X151059500Y-92664069D01*
X151059500Y-92664071D01*
X151059499Y-92664071D01*
X144043841Y-92664071D01*
X144050500Y-92622027D01*
X144050500Y-92377973D01*
X144012321Y-92136924D01*
X143936904Y-91904815D01*
X143826106Y-91687361D01*
X143807779Y-91662136D01*
X143682660Y-91489923D01*
X143682656Y-91489918D01*
X143510081Y-91317343D01*
X143510076Y-91317339D01*
X143312642Y-91173896D01*
X143312641Y-91173895D01*
X143312639Y-91173894D01*
X143095185Y-91063096D01*
X142863076Y-90987679D01*
X142863074Y-90987678D01*
X142863072Y-90987678D01*
X142694769Y-90961021D01*
X142622027Y-90949500D01*
X142377973Y-90949500D01*
X142322093Y-90958350D01*
X142136927Y-90987678D01*
X141904812Y-91063097D01*
X141687357Y-91173896D01*
X141489923Y-91317339D01*
X141489918Y-91317343D01*
X141317343Y-91489918D01*
X141317339Y-91489923D01*
X141173896Y-91687357D01*
X141063097Y-91904812D01*
X141063096Y-91904814D01*
X141063096Y-91904815D01*
X141045323Y-91959515D01*
X140987678Y-92136927D01*
X140949500Y-92377973D01*
X125327500Y-92377973D01*
X125327500Y-89664071D01*
X151059499Y-89664071D01*
X151084497Y-89789738D01*
X151084499Y-89789744D01*
X151133533Y-89908124D01*
X151133538Y-89908133D01*
X151204723Y-90014668D01*
X151204726Y-90014672D01*
X151295327Y-90105273D01*
X151295331Y-90105276D01*
X151401866Y-90176461D01*
X151401872Y-90176464D01*
X151401873Y-90176465D01*
X151520256Y-90225501D01*
X151520260Y-90225501D01*
X151520261Y-90225502D01*
X151645928Y-90250500D01*
X151645931Y-90250500D01*
X151774071Y-90250500D01*
X151858615Y-90233682D01*
X151899744Y-90225501D01*
X152018127Y-90176465D01*
X152124669Y-90105276D01*
X152215276Y-90014669D01*
X152286465Y-89908127D01*
X152335501Y-89789744D01*
X152360500Y-89664069D01*
X152360500Y-89535931D01*
X152360500Y-89535928D01*
X152335502Y-89410261D01*
X152335501Y-89410260D01*
X152335501Y-89410256D01*
X152286465Y-89291873D01*
X152286464Y-89291872D01*
X152286461Y-89291866D01*
X152215276Y-89185331D01*
X152215273Y-89185327D01*
X152124672Y-89094726D01*
X152124668Y-89094723D01*
X152018133Y-89023538D01*
X152018124Y-89023533D01*
X151899744Y-88974499D01*
X151899738Y-88974497D01*
X151774071Y-88949500D01*
X151774069Y-88949500D01*
X151645931Y-88949500D01*
X151645929Y-88949500D01*
X151520261Y-88974497D01*
X151520255Y-88974499D01*
X151401875Y-89023533D01*
X151401866Y-89023538D01*
X151295331Y-89094723D01*
X151295327Y-89094726D01*
X151204726Y-89185327D01*
X151204723Y-89185331D01*
X151133538Y-89291866D01*
X151133533Y-89291875D01*
X151084499Y-89410255D01*
X151084497Y-89410261D01*
X151059500Y-89535928D01*
X151059500Y-89535931D01*
X151059500Y-89664069D01*
X151059500Y-89664071D01*
X151059499Y-89664071D01*
X125327500Y-89664071D01*
X125327500Y-89187016D01*
X125347185Y-89119977D01*
X125363815Y-89099339D01*
X126191221Y-88271932D01*
X126199565Y-88264317D01*
X126206991Y-88258135D01*
X126220705Y-88249943D01*
X126265754Y-88209225D01*
X126267682Y-88207622D01*
X126268551Y-88207245D01*
X126277130Y-88200493D01*
X126293569Y-88189281D01*
X126309498Y-88180070D01*
X126354116Y-88158521D01*
X126355509Y-88157861D01*
X126362704Y-88154501D01*
X126421266Y-88127153D01*
X126430422Y-88122596D01*
X126431452Y-88122051D01*
X126440395Y-88117030D01*
X126519504Y-88069976D01*
X126523857Y-88067313D01*
X126524334Y-88067013D01*
X126526645Y-88064774D01*
X126550909Y-88046462D01*
X126561263Y-88040485D01*
X126640485Y-87961263D01*
X126696503Y-87864237D01*
X126725500Y-87756018D01*
X126725500Y-87643982D01*
X126696503Y-87535763D01*
X126640485Y-87438737D01*
X126561263Y-87359515D01*
X126464237Y-87303497D01*
X126356018Y-87274500D01*
X126243982Y-87274500D01*
X126135763Y-87303497D01*
X126135760Y-87303498D01*
X126038740Y-87359513D01*
X126038738Y-87359514D01*
X125959515Y-87438736D01*
X125948084Y-87458531D01*
X125947949Y-87458768D01*
X125942410Y-87468362D01*
X125926908Y-87486730D01*
X125855591Y-87615842D01*
X125851347Y-87623946D01*
X125850894Y-87624860D01*
X125846904Y-87633397D01*
X125841608Y-87645440D01*
X125838753Y-87651061D01*
X125838739Y-87651087D01*
X125817591Y-87692736D01*
X125802128Y-87716167D01*
X125744330Y-87785241D01*
X125744322Y-87785251D01*
X125742622Y-87788204D01*
X125722858Y-87813985D01*
X124798910Y-88737935D01*
X124737936Y-88798908D01*
X124737934Y-88798911D01*
X124694819Y-88873589D01*
X124672500Y-88956885D01*
X124672500Y-98612982D01*
X124652815Y-98680021D01*
X124636181Y-98700663D01*
X119671625Y-103665218D01*
X119662971Y-103669943D01*
X119656958Y-103677762D01*
X119632808Y-103686413D01*
X119610302Y-103698703D01*
X119598714Y-103698627D01*
X119591182Y-103701326D01*
X119566812Y-103698420D01*
X119556013Y-103698350D01*
X119551851Y-103697387D01*
X119516111Y-103686498D01*
X119506488Y-103683820D01*
X119505402Y-103683546D01*
X119490230Y-103683141D01*
X119478068Y-103680330D01*
X119477031Y-103679746D01*
X119473909Y-103679293D01*
X119456020Y-103674500D01*
X119456018Y-103674500D01*
X119343982Y-103674500D01*
X119235763Y-103703497D01*
X119235760Y-103703498D01*
X119138740Y-103759513D01*
X119138734Y-103759517D01*
X119059517Y-103838734D01*
X119059513Y-103838740D01*
X119003498Y-103935760D01*
X119003497Y-103935763D01*
X118974500Y-104043982D01*
X117798779Y-104043982D01*
X117828691Y-104014070D01*
X117828691Y-104014068D01*
X117838894Y-104003866D01*
X117838898Y-104003860D01*
X119063691Y-102779069D01*
X119123527Y-102675430D01*
X119154501Y-102559836D01*
X119154501Y-102440164D01*
X119123527Y-102324569D01*
X119112748Y-102305900D01*
X119063693Y-102220933D01*
X119063688Y-102220927D01*
X118979072Y-102136311D01*
X118979066Y-102136306D01*
X118875434Y-102076474D01*
X118875435Y-102076474D01*
X118865954Y-102073933D01*
X118759836Y-102045499D01*
X118640164Y-102045499D01*
X118538227Y-102072813D01*
X118524566Y-102076474D01*
X118420934Y-102136306D01*
X118420928Y-102136311D01*
X118017045Y-102540193D01*
X117955722Y-102573678D01*
X117886030Y-102568694D01*
X117830097Y-102526822D01*
X117816128Y-102503046D01*
X117812132Y-102494092D01*
X117796503Y-102435763D01*
X117750687Y-102356408D01*
X117748066Y-102350534D01*
X117744220Y-102322042D01*
X117737442Y-102294101D01*
X117739502Y-102287083D01*
X117738721Y-102281292D01*
X117745402Y-102266991D01*
X117753913Y-102238004D01*
X117796503Y-102164237D01*
X117825500Y-102056018D01*
X117825500Y-101943982D01*
X117796503Y-101835763D01*
X117740485Y-101738737D01*
X117739429Y-101737681D01*
X117738824Y-101736573D01*
X117735538Y-101732291D01*
X117736205Y-101731778D01*
X117705944Y-101676358D01*
X117710928Y-101606666D01*
X117735823Y-101567928D01*
X117735538Y-101567709D01*
X117738165Y-101564284D01*
X117739429Y-101562319D01*
X117740485Y-101561263D01*
X117796503Y-101464237D01*
X117825500Y-101356018D01*
X117825500Y-101243982D01*
X117796503Y-101135763D01*
X117740485Y-101038737D01*
X117739429Y-101037681D01*
X117738824Y-101036573D01*
X117735538Y-101032291D01*
X117736205Y-101031778D01*
X117705944Y-100976358D01*
X117710928Y-100906666D01*
X117735823Y-100867928D01*
X117735538Y-100867709D01*
X117738165Y-100864284D01*
X117739429Y-100862319D01*
X117740485Y-100861263D01*
X117796503Y-100764237D01*
X117825500Y-100656018D01*
X117825500Y-100543982D01*
X117796503Y-100435763D01*
X117740485Y-100338737D01*
X117739429Y-100337681D01*
X117738824Y-100336573D01*
X117735538Y-100332291D01*
X117736205Y-100331778D01*
X117705944Y-100276358D01*
X117710928Y-100206666D01*
X117735823Y-100167928D01*
X117735538Y-100167709D01*
X117738165Y-100164284D01*
X117739429Y-100162319D01*
X117740485Y-100161263D01*
X117796503Y-100064237D01*
X117825500Y-99956018D01*
X117825500Y-99843982D01*
X117796503Y-99735763D01*
X117740485Y-99638737D01*
X117739429Y-99637681D01*
X117738824Y-99636573D01*
X117735538Y-99632291D01*
X117736205Y-99631778D01*
X117705944Y-99576358D01*
X117710928Y-99506666D01*
X117735823Y-99467928D01*
X117735538Y-99467709D01*
X117738165Y-99464284D01*
X117739429Y-99462319D01*
X117740485Y-99461263D01*
X117796503Y-99364237D01*
X117825500Y-99256018D01*
X117825500Y-99243982D01*
X121374500Y-99243982D01*
X121374500Y-99356018D01*
X121396076Y-99436539D01*
X121403497Y-99464236D01*
X121403498Y-99464239D01*
X121422169Y-99496579D01*
X121459515Y-99561263D01*
X121538737Y-99640485D01*
X121635763Y-99696503D01*
X121743982Y-99725500D01*
X121743984Y-99725500D01*
X121856016Y-99725500D01*
X121856018Y-99725500D01*
X121964237Y-99696503D01*
X122038003Y-99653913D01*
X122105899Y-99637442D01*
X122161995Y-99653913D01*
X122235763Y-99696503D01*
X122343982Y-99725500D01*
X122343984Y-99725500D01*
X122456016Y-99725500D01*
X122456018Y-99725500D01*
X122564237Y-99696503D01*
X122638003Y-99653913D01*
X122705899Y-99637442D01*
X122761995Y-99653913D01*
X122835763Y-99696503D01*
X122943982Y-99725500D01*
X122943984Y-99725500D01*
X123056016Y-99725500D01*
X123056018Y-99725500D01*
X123164237Y-99696503D01*
X123261263Y-99640485D01*
X123340485Y-99561263D01*
X123396503Y-99464237D01*
X123425500Y-99356018D01*
X123425500Y-99243982D01*
X123396503Y-99135763D01*
X123340485Y-99038737D01*
X123261263Y-98959515D01*
X123164237Y-98903497D01*
X123056018Y-98874500D01*
X122943982Y-98874500D01*
X122835763Y-98903497D01*
X122835760Y-98903498D01*
X122762000Y-98946084D01*
X122694100Y-98962557D01*
X122638000Y-98946084D01*
X122564239Y-98903498D01*
X122564238Y-98903497D01*
X122564237Y-98903497D01*
X122456018Y-98874500D01*
X122343982Y-98874500D01*
X122235763Y-98903497D01*
X122235760Y-98903498D01*
X122162000Y-98946084D01*
X122094100Y-98962557D01*
X122038000Y-98946084D01*
X121964239Y-98903498D01*
X121964238Y-98903497D01*
X121964237Y-98903497D01*
X121856018Y-98874500D01*
X121743982Y-98874500D01*
X121635763Y-98903497D01*
X121635760Y-98903498D01*
X121538740Y-98959513D01*
X121538734Y-98959517D01*
X121459517Y-99038734D01*
X121459513Y-99038740D01*
X121403498Y-99135760D01*
X121403497Y-99135763D01*
X121374500Y-99243982D01*
X117825500Y-99243982D01*
X117825500Y-99143982D01*
X117796503Y-99035763D01*
X117740485Y-98938737D01*
X117739429Y-98937681D01*
X117738824Y-98936573D01*
X117735538Y-98932291D01*
X117736205Y-98931778D01*
X117705944Y-98876358D01*
X117710928Y-98806666D01*
X117735823Y-98767928D01*
X117735538Y-98767709D01*
X117738165Y-98764284D01*
X117739429Y-98762319D01*
X117740485Y-98761263D01*
X117796503Y-98664237D01*
X117825500Y-98556018D01*
X117825500Y-98443982D01*
X117796503Y-98335763D01*
X117740485Y-98238737D01*
X117739429Y-98237681D01*
X117738824Y-98236573D01*
X117735538Y-98232291D01*
X117736205Y-98231778D01*
X117705944Y-98176358D01*
X117710928Y-98106666D01*
X117735823Y-98067928D01*
X117735538Y-98067709D01*
X117738165Y-98064284D01*
X117739429Y-98062319D01*
X117740485Y-98061263D01*
X117796503Y-97964237D01*
X117825500Y-97856018D01*
X117825500Y-97743982D01*
X117796503Y-97635763D01*
X117740485Y-97538737D01*
X117661263Y-97459515D01*
X117564237Y-97403497D01*
X117456018Y-97374500D01*
X117343982Y-97374500D01*
X117235763Y-97403497D01*
X117235760Y-97403498D01*
X117138740Y-97459513D01*
X117138734Y-97459517D01*
X117059517Y-97538734D01*
X117059513Y-97538740D01*
X117003498Y-97635760D01*
X117003497Y-97635763D01*
X116974500Y-97743982D01*
X116974500Y-97856018D01*
X117003497Y-97964237D01*
X117059515Y-98061263D01*
X117059517Y-98061265D01*
X117060577Y-98062325D01*
X117061184Y-98063437D01*
X117064462Y-98067709D01*
X117063795Y-98068220D01*
X117094057Y-98123651D01*
X117089068Y-98193342D01*
X117064177Y-98232072D01*
X117064462Y-98232291D01*
X117061847Y-98235698D01*
X117060577Y-98237675D01*
X117059517Y-98238734D01*
X117059513Y-98238740D01*
X117003498Y-98335760D01*
X117003497Y-98335763D01*
X116974500Y-98443982D01*
X116974500Y-98556018D01*
X116997520Y-98641928D01*
X117003497Y-98664236D01*
X117003498Y-98664239D01*
X117003890Y-98664918D01*
X117059515Y-98761263D01*
X117059517Y-98761265D01*
X117060577Y-98762325D01*
X117061184Y-98763437D01*
X117064462Y-98767709D01*
X117063795Y-98768220D01*
X117094057Y-98823651D01*
X117089068Y-98893342D01*
X117064177Y-98932072D01*
X117064462Y-98932291D01*
X117061847Y-98935698D01*
X117060577Y-98937675D01*
X117059517Y-98938734D01*
X117059513Y-98938740D01*
X117003498Y-99035760D01*
X117003497Y-99035763D01*
X116974500Y-99143982D01*
X116974500Y-99256018D01*
X117003497Y-99364237D01*
X117059515Y-99461263D01*
X117059517Y-99461265D01*
X117060577Y-99462325D01*
X117061184Y-99463437D01*
X117064462Y-99467709D01*
X117063795Y-99468220D01*
X117094057Y-99523651D01*
X117089068Y-99593342D01*
X117064177Y-99632072D01*
X117064462Y-99632291D01*
X117061847Y-99635698D01*
X117060577Y-99637675D01*
X117059517Y-99638734D01*
X117059513Y-99638740D01*
X117003498Y-99735760D01*
X117003497Y-99735763D01*
X116974500Y-99843982D01*
X116974500Y-99956018D01*
X117003497Y-100064237D01*
X117059515Y-100161263D01*
X117059517Y-100161265D01*
X117060577Y-100162325D01*
X117061184Y-100163437D01*
X117064462Y-100167709D01*
X117063795Y-100168220D01*
X117094057Y-100223651D01*
X117089068Y-100293342D01*
X117064177Y-100332072D01*
X117064462Y-100332291D01*
X117061847Y-100335698D01*
X117060577Y-100337675D01*
X117059517Y-100338734D01*
X117059513Y-100338740D01*
X117003498Y-100435760D01*
X117003497Y-100435763D01*
X116974500Y-100543982D01*
X116974500Y-100656018D01*
X117003497Y-100764237D01*
X117059515Y-100861263D01*
X117059517Y-100861265D01*
X117060577Y-100862325D01*
X117061184Y-100863437D01*
X117064462Y-100867709D01*
X117063795Y-100868220D01*
X117094057Y-100923651D01*
X117089068Y-100993342D01*
X117064177Y-101032072D01*
X117064462Y-101032291D01*
X117061847Y-101035698D01*
X117060577Y-101037675D01*
X117059517Y-101038734D01*
X117059513Y-101038740D01*
X117003498Y-101135760D01*
X117003497Y-101135763D01*
X116974500Y-101243982D01*
X116974500Y-101356018D01*
X117003497Y-101464237D01*
X117059515Y-101561263D01*
X117059517Y-101561265D01*
X117060577Y-101562325D01*
X117061184Y-101563437D01*
X117064462Y-101567709D01*
X117063795Y-101568220D01*
X117094057Y-101623651D01*
X117089068Y-101693342D01*
X117064177Y-101732072D01*
X117064462Y-101732291D01*
X117061847Y-101735698D01*
X117060577Y-101737675D01*
X117059517Y-101738734D01*
X117059513Y-101738740D01*
X117003498Y-101835760D01*
X117003497Y-101835763D01*
X116974500Y-101943982D01*
X116974500Y-102056018D01*
X116996015Y-102136311D01*
X117003497Y-102164236D01*
X117003498Y-102164239D01*
X117046084Y-102238000D01*
X117062557Y-102305900D01*
X117046084Y-102362000D01*
X117003498Y-102435760D01*
X117003497Y-102435763D01*
X116974500Y-102543982D01*
X116974500Y-102656018D01*
X117003497Y-102764237D01*
X117059515Y-102861263D01*
X117138737Y-102940485D01*
X117235763Y-102996503D01*
X117284606Y-103009590D01*
X117289787Y-103012748D01*
X117295841Y-103013181D01*
X117319269Y-103030718D01*
X117344265Y-103045953D01*
X117346917Y-103051413D01*
X117351776Y-103055050D01*
X117362004Y-103082470D01*
X117374795Y-103108799D01*
X117374074Y-103114825D01*
X117376196Y-103120513D01*
X117369975Y-103149112D01*
X117366501Y-103178175D01*
X117362305Y-103184373D01*
X117361346Y-103188787D01*
X117340196Y-103217042D01*
X117313062Y-103244178D01*
X117251741Y-103277665D01*
X117225378Y-103280500D01*
X115340164Y-103280500D01*
X115224569Y-103311473D01*
X115224566Y-103311474D01*
X115120933Y-103371307D01*
X115120927Y-103371311D01*
X115036311Y-103455927D01*
X115036307Y-103455933D01*
X114976474Y-103559566D01*
X114976473Y-103559569D01*
X114945500Y-103675164D01*
X114105500Y-103675164D01*
X114105500Y-97899006D01*
X114105500Y-97899000D01*
X114102970Y-97866856D01*
X114098125Y-97836263D01*
X114097352Y-97831713D01*
X114061408Y-97747617D01*
X114025444Y-97698117D01*
X114001203Y-97670372D01*
X114001202Y-97670371D01*
X113922694Y-97623464D01*
X113864504Y-97604557D01*
X113801004Y-97594500D01*
X113801000Y-97594500D01*
X88199000Y-97594500D01*
X88198994Y-97594500D01*
X88166861Y-97597029D01*
X88136222Y-97601881D01*
X88131717Y-97602646D01*
X88131714Y-97602647D01*
X88047617Y-97638592D01*
X87998115Y-97674557D01*
X87970371Y-97698797D01*
X87923464Y-97777305D01*
X87904557Y-97835494D01*
X87904557Y-97835497D01*
X87894500Y-97898995D01*
X87894500Y-115925500D01*
X87874815Y-115992539D01*
X87822011Y-116038294D01*
X87770500Y-116049500D01*
X77503052Y-116049500D01*
X77496967Y-116049351D01*
X77133664Y-116031502D01*
X77121555Y-116030309D01*
X76764782Y-115977388D01*
X76752846Y-115975014D01*
X76402964Y-115887373D01*
X76391323Y-115883841D01*
X76051734Y-115762334D01*
X76040495Y-115757679D01*
X75714429Y-115603462D01*
X75703702Y-115597727D01*
X75394340Y-115412303D01*
X75384222Y-115405543D01*
X75094511Y-115190678D01*
X75085105Y-115182958D01*
X75042479Y-115144324D01*
X74817853Y-114940735D01*
X74809264Y-114932146D01*
X74567041Y-114664894D01*
X74559321Y-114655488D01*
X74494534Y-114568133D01*
X74344454Y-114365774D01*
X74337696Y-114355659D01*
X74318762Y-114324069D01*
X74152267Y-114046290D01*
X74146543Y-114035582D01*
X73992317Y-113709497D01*
X73987669Y-113698275D01*
X73866154Y-113358663D01*
X73862629Y-113347046D01*
X73774982Y-112997140D01*
X73772613Y-112985230D01*
X73719689Y-112628440D01*
X73718497Y-112616334D01*
X73700649Y-112253031D01*
X73700500Y-112246947D01*
X73700500Y-112147648D01*
X76199500Y-112147648D01*
X76199500Y-112352351D01*
X76231522Y-112554534D01*
X76294781Y-112749223D01*
X76387715Y-112931613D01*
X76508028Y-113097213D01*
X76652786Y-113241971D01*
X76797397Y-113347035D01*
X76818390Y-113362287D01*
X76934607Y-113421503D01*
X77000776Y-113455218D01*
X77000778Y-113455218D01*
X77000781Y-113455220D01*
X77105137Y-113489127D01*
X77195465Y-113518477D01*
X77296557Y-113534488D01*
X77397648Y-113550500D01*
X77397649Y-113550500D01*
X77602351Y-113550500D01*
X77602352Y-113550500D01*
X77804534Y-113518477D01*
X77999219Y-113455220D01*
X78181610Y-113362287D01*
X78274590Y-113294732D01*
X78347213Y-113241971D01*
X78347215Y-113241968D01*
X78347219Y-113241966D01*
X78491966Y-113097219D01*
X78491968Y-113097215D01*
X78491971Y-113097213D01*
X78544732Y-113024590D01*
X78612287Y-112931610D01*
X78705220Y-112749219D01*
X78768477Y-112554534D01*
X78800500Y-112352352D01*
X78800500Y-112147648D01*
X78768477Y-111945466D01*
X78705220Y-111750781D01*
X78705218Y-111750778D01*
X78705218Y-111750776D01*
X78659606Y-111661259D01*
X78612287Y-111568390D01*
X78533419Y-111459836D01*
X78491971Y-111402786D01*
X78347213Y-111258028D01*
X78181613Y-111137715D01*
X78181612Y-111137714D01*
X78181610Y-111137713D01*
X78124145Y-111108433D01*
X77999223Y-111044781D01*
X77804534Y-110981522D01*
X77629995Y-110953878D01*
X77602352Y-110949500D01*
X77397648Y-110949500D01*
X77373329Y-110953351D01*
X77195465Y-110981522D01*
X77000776Y-111044781D01*
X76818386Y-111137715D01*
X76652786Y-111258028D01*
X76508028Y-111402786D01*
X76387715Y-111568386D01*
X76294781Y-111750776D01*
X76231522Y-111945465D01*
X76199500Y-112147648D01*
X73700500Y-112147648D01*
X73700500Y-100896530D01*
X81744500Y-100896530D01*
X81744500Y-101103469D01*
X81784868Y-101306412D01*
X81784870Y-101306420D01*
X81864058Y-101497596D01*
X81979024Y-101669657D01*
X82125342Y-101815975D01*
X82125345Y-101815977D01*
X82297402Y-101930941D01*
X82488580Y-102010130D01*
X82666393Y-102045499D01*
X82691530Y-102050499D01*
X82691534Y-102050500D01*
X82691535Y-102050500D01*
X83198466Y-102050500D01*
X83198467Y-102050499D01*
X83401420Y-102010130D01*
X83592598Y-101930941D01*
X83764655Y-101815977D01*
X83910977Y-101669655D01*
X84025941Y-101497598D01*
X84105130Y-101306420D01*
X84145500Y-101103465D01*
X84145500Y-100896535D01*
X84105130Y-100693580D01*
X84025941Y-100502402D01*
X83910977Y-100330345D01*
X83910975Y-100330342D01*
X83764657Y-100184024D01*
X83678626Y-100126541D01*
X83592598Y-100069059D01*
X83580954Y-100064236D01*
X83401420Y-99989870D01*
X83401412Y-99989868D01*
X83198469Y-99949500D01*
X83198465Y-99949500D01*
X82691535Y-99949500D01*
X82691530Y-99949500D01*
X82488587Y-99989868D01*
X82488579Y-99989870D01*
X82297403Y-100069058D01*
X82125342Y-100184024D01*
X81979024Y-100330342D01*
X81864058Y-100502403D01*
X81784870Y-100693579D01*
X81784868Y-100693587D01*
X81744500Y-100896530D01*
X73700500Y-100896530D01*
X73700500Y-97845730D01*
X81744500Y-97845730D01*
X81744500Y-99154269D01*
X81747353Y-99184699D01*
X81747353Y-99184701D01*
X81787317Y-99298908D01*
X81792207Y-99312882D01*
X81872850Y-99422150D01*
X81982118Y-99502793D01*
X82024845Y-99517744D01*
X82110299Y-99547646D01*
X82140730Y-99550500D01*
X82140734Y-99550500D01*
X83749270Y-99550500D01*
X83779699Y-99547646D01*
X83779701Y-99547646D01*
X83848273Y-99523651D01*
X83907882Y-99502793D01*
X84017150Y-99422150D01*
X84097793Y-99312882D01*
X84133295Y-99211423D01*
X84142646Y-99184701D01*
X84142646Y-99184699D01*
X84145500Y-99154269D01*
X84145500Y-97845730D01*
X84142646Y-97815300D01*
X84142646Y-97815298D01*
X84109006Y-97719163D01*
X84097793Y-97687118D01*
X84017150Y-97577850D01*
X83907882Y-97497207D01*
X83907880Y-97497206D01*
X83779700Y-97452353D01*
X83749270Y-97449500D01*
X83749266Y-97449500D01*
X82140734Y-97449500D01*
X82140730Y-97449500D01*
X82110300Y-97452353D01*
X82110298Y-97452353D01*
X81982119Y-97497206D01*
X81982117Y-97497207D01*
X81872850Y-97577850D01*
X81792207Y-97687117D01*
X81792206Y-97687119D01*
X81747353Y-97815298D01*
X81747353Y-97815300D01*
X81744500Y-97845730D01*
X73700500Y-97845730D01*
X73700500Y-96643982D01*
X110874500Y-96643982D01*
X110874500Y-96756018D01*
X110903497Y-96864237D01*
X110959515Y-96961263D01*
X111038737Y-97040485D01*
X111135763Y-97096503D01*
X111243982Y-97125500D01*
X111243984Y-97125500D01*
X111356016Y-97125500D01*
X111356018Y-97125500D01*
X111464237Y-97096503D01*
X111561263Y-97040485D01*
X111640485Y-96961263D01*
X111696503Y-96864237D01*
X111725500Y-96756018D01*
X111725500Y-96643982D01*
X111696503Y-96535763D01*
X111640485Y-96438737D01*
X111561263Y-96359515D01*
X111464237Y-96303497D01*
X111356018Y-96274500D01*
X111243982Y-96274500D01*
X111135763Y-96303497D01*
X111135760Y-96303498D01*
X111038740Y-96359513D01*
X111038734Y-96359517D01*
X110959517Y-96438734D01*
X110959513Y-96438740D01*
X110903498Y-96535760D01*
X110903497Y-96535763D01*
X110874500Y-96643982D01*
X73700500Y-96643982D01*
X73700500Y-92377973D01*
X82949500Y-92377973D01*
X82949500Y-92622026D01*
X82984894Y-92845497D01*
X82987679Y-92863076D01*
X83063096Y-93095185D01*
X83143202Y-93252403D01*
X83173896Y-93312642D01*
X83317339Y-93510076D01*
X83317343Y-93510081D01*
X83489918Y-93682656D01*
X83489923Y-93682660D01*
X83616331Y-93774500D01*
X83687361Y-93826106D01*
X83904815Y-93936904D01*
X84136924Y-94012321D01*
X84377973Y-94050500D01*
X84377974Y-94050500D01*
X84622026Y-94050500D01*
X84622027Y-94050500D01*
X84863076Y-94012321D01*
X85095185Y-93936904D01*
X85312639Y-93826106D01*
X85510083Y-93682655D01*
X85682655Y-93510083D01*
X85826106Y-93312639D01*
X85891931Y-93183450D01*
X91244500Y-93183450D01*
X91244500Y-93316550D01*
X91278949Y-93445116D01*
X91345499Y-93560384D01*
X91345501Y-93560386D01*
X91445363Y-93660248D01*
X91443516Y-93662094D01*
X91477077Y-93708073D01*
X91481219Y-93777819D01*
X91446996Y-93838734D01*
X91442387Y-93842727D01*
X91345501Y-93939613D01*
X91345497Y-93939619D01*
X91278950Y-94054881D01*
X91278949Y-94054884D01*
X91244500Y-94183450D01*
X91244500Y-94316550D01*
X91276851Y-94437284D01*
X91278949Y-94445115D01*
X91278950Y-94445118D01*
X91289797Y-94463906D01*
X91345499Y-94560384D01*
X91439616Y-94654501D01*
X91554884Y-94721051D01*
X91683450Y-94755500D01*
X91683452Y-94755500D01*
X91816548Y-94755500D01*
X91816550Y-94755500D01*
X91945116Y-94721051D01*
X92060384Y-94654501D01*
X92154501Y-94560384D01*
X92154501Y-94560383D01*
X92160248Y-94554637D01*
X92162096Y-94556485D01*
X92208052Y-94522930D01*
X92277798Y-94518775D01*
X92338718Y-94552987D01*
X92342716Y-94557601D01*
X92345499Y-94560384D01*
X92439616Y-94654501D01*
X92554884Y-94721051D01*
X92683450Y-94755500D01*
X92683452Y-94755500D01*
X92816548Y-94755500D01*
X92816550Y-94755500D01*
X92945116Y-94721051D01*
X93060384Y-94654501D01*
X93154501Y-94560384D01*
X93221051Y-94445116D01*
X93248150Y-94343982D01*
X101374500Y-94343982D01*
X101374500Y-94456018D01*
X101398071Y-94543984D01*
X101403497Y-94564236D01*
X101403498Y-94564239D01*
X101422125Y-94596501D01*
X101459515Y-94661263D01*
X101538737Y-94740485D01*
X101610654Y-94782006D01*
X101629025Y-94792613D01*
X101677241Y-94843180D01*
X101690463Y-94911787D01*
X101664495Y-94976652D01*
X101629025Y-95007387D01*
X101538740Y-95059513D01*
X101538734Y-95059517D01*
X101459517Y-95138734D01*
X101459513Y-95138740D01*
X101403498Y-95235760D01*
X101403497Y-95235763D01*
X101374500Y-95343982D01*
X101374500Y-95456018D01*
X101403497Y-95564237D01*
X101459515Y-95661263D01*
X101538737Y-95740485D01*
X101635763Y-95796503D01*
X101743982Y-95825500D01*
X101743984Y-95825500D01*
X101856016Y-95825500D01*
X101856018Y-95825500D01*
X101964237Y-95796503D01*
X102038003Y-95753913D01*
X102105899Y-95737442D01*
X102161995Y-95753913D01*
X102235763Y-95796503D01*
X102343982Y-95825500D01*
X102343984Y-95825500D01*
X102456016Y-95825500D01*
X102456018Y-95825500D01*
X102564237Y-95796503D01*
X102661263Y-95740485D01*
X102740485Y-95661263D01*
X102796503Y-95564237D01*
X102825500Y-95456018D01*
X102825500Y-95343982D01*
X102796503Y-95235763D01*
X102740485Y-95138737D01*
X102661263Y-95059515D01*
X102570973Y-95007386D01*
X102522759Y-94956820D01*
X102509535Y-94888213D01*
X102535503Y-94823349D01*
X102570972Y-94792614D01*
X102661263Y-94740485D01*
X102740485Y-94661263D01*
X102796503Y-94564237D01*
X102801930Y-94543982D01*
X105774500Y-94543982D01*
X105774500Y-94656018D01*
X105803497Y-94764237D01*
X105859515Y-94861263D01*
X105859517Y-94861265D01*
X105910571Y-94912319D01*
X105944056Y-94973642D01*
X105939072Y-95043334D01*
X105910571Y-95087681D01*
X105859517Y-95138734D01*
X105859513Y-95138740D01*
X105803498Y-95235760D01*
X105803497Y-95235763D01*
X105774500Y-95343982D01*
X105774500Y-95456018D01*
X105803497Y-95564237D01*
X105859515Y-95661263D01*
X105938737Y-95740485D01*
X106035763Y-95796503D01*
X106143982Y-95825500D01*
X106143984Y-95825500D01*
X106256016Y-95825500D01*
X106256018Y-95825500D01*
X106364237Y-95796503D01*
X106461263Y-95740485D01*
X106540485Y-95661263D01*
X106596503Y-95564237D01*
X106625500Y-95456018D01*
X106625500Y-95343982D01*
X106596503Y-95235763D01*
X106540485Y-95138737D01*
X106489429Y-95087681D01*
X106455944Y-95026358D01*
X106460928Y-94956666D01*
X106489429Y-94912319D01*
X106513535Y-94888213D01*
X106540485Y-94861263D01*
X106596503Y-94764237D01*
X106625500Y-94656018D01*
X106625500Y-94543982D01*
X106596503Y-94435763D01*
X106540485Y-94338737D01*
X106461263Y-94259515D01*
X106364237Y-94203497D01*
X106256018Y-94174500D01*
X106143982Y-94174500D01*
X106035763Y-94203497D01*
X106035760Y-94203498D01*
X105938740Y-94259513D01*
X105938734Y-94259517D01*
X105859517Y-94338734D01*
X105859513Y-94338740D01*
X105803498Y-94435760D01*
X105803497Y-94435763D01*
X105774500Y-94543982D01*
X102801930Y-94543982D01*
X102825500Y-94456018D01*
X102825500Y-94343982D01*
X102796503Y-94235763D01*
X102743513Y-94143982D01*
X108174500Y-94143982D01*
X108174500Y-94256018D01*
X108203497Y-94364237D01*
X108259515Y-94461263D01*
X108338737Y-94540485D01*
X108435763Y-94596503D01*
X108543982Y-94625500D01*
X108543984Y-94625500D01*
X108656016Y-94625500D01*
X108656018Y-94625500D01*
X108764237Y-94596503D01*
X108861263Y-94540485D01*
X108940485Y-94461263D01*
X108996503Y-94364237D01*
X109025500Y-94256018D01*
X109025500Y-94143982D01*
X108996503Y-94035763D01*
X108940485Y-93938737D01*
X108861263Y-93859515D01*
X108764237Y-93803497D01*
X108656018Y-93774500D01*
X108543982Y-93774500D01*
X108435763Y-93803497D01*
X108435760Y-93803498D01*
X108338740Y-93859513D01*
X108338734Y-93859517D01*
X108259517Y-93938734D01*
X108259513Y-93938740D01*
X108203498Y-94035760D01*
X108203497Y-94035763D01*
X108174500Y-94143982D01*
X102743513Y-94143982D01*
X102740485Y-94138737D01*
X102661263Y-94059515D01*
X102564237Y-94003497D01*
X102456018Y-93974500D01*
X102343982Y-93974500D01*
X102235763Y-94003497D01*
X102235760Y-94003498D01*
X102162000Y-94046084D01*
X102094100Y-94062557D01*
X102038000Y-94046084D01*
X101964239Y-94003498D01*
X101964238Y-94003497D01*
X101964237Y-94003497D01*
X101856018Y-93974500D01*
X101743982Y-93974500D01*
X101635763Y-94003497D01*
X101635760Y-94003498D01*
X101538740Y-94059513D01*
X101538734Y-94059517D01*
X101459517Y-94138734D01*
X101459513Y-94138740D01*
X101403498Y-94235760D01*
X101403497Y-94235763D01*
X101374500Y-94343982D01*
X93248150Y-94343982D01*
X93255500Y-94316550D01*
X93255500Y-94183450D01*
X93221051Y-94054884D01*
X93154501Y-93939616D01*
X93060384Y-93845499D01*
X93054637Y-93839752D01*
X93056485Y-93837903D01*
X93022930Y-93791948D01*
X93018775Y-93722202D01*
X93052987Y-93661282D01*
X93057601Y-93657283D01*
X93060381Y-93654502D01*
X93060384Y-93654501D01*
X93154501Y-93560384D01*
X93221051Y-93445116D01*
X93255500Y-93316550D01*
X93255500Y-93183450D01*
X93221051Y-93054884D01*
X93154501Y-92939616D01*
X93060384Y-92845499D01*
X92983538Y-92801132D01*
X92945118Y-92778950D01*
X92945117Y-92778949D01*
X92945116Y-92778949D01*
X92816550Y-92744500D01*
X92683450Y-92744500D01*
X92554884Y-92778949D01*
X92554881Y-92778950D01*
X92439619Y-92845497D01*
X92439613Y-92845501D01*
X92339752Y-92945363D01*
X92337905Y-92943516D01*
X92291927Y-92977077D01*
X92222181Y-92981219D01*
X92161266Y-92946996D01*
X92157272Y-92942387D01*
X92060386Y-92845501D01*
X92060384Y-92845499D01*
X91983538Y-92801132D01*
X91945118Y-92778950D01*
X91945117Y-92778949D01*
X91945116Y-92778949D01*
X91816550Y-92744500D01*
X91683450Y-92744500D01*
X91554884Y-92778949D01*
X91554881Y-92778950D01*
X91439619Y-92845497D01*
X91439613Y-92845501D01*
X91345501Y-92939613D01*
X91345497Y-92939619D01*
X91278950Y-93054881D01*
X91278949Y-93054884D01*
X91244500Y-93183450D01*
X85891931Y-93183450D01*
X85902390Y-93162923D01*
X85924756Y-93119028D01*
X85924756Y-93119027D01*
X85936902Y-93095188D01*
X85936904Y-93095185D01*
X86012321Y-92863076D01*
X86050500Y-92622027D01*
X86050500Y-92377973D01*
X86012321Y-92136924D01*
X85936904Y-91904815D01*
X85826106Y-91687361D01*
X85807779Y-91662136D01*
X85682660Y-91489923D01*
X85682656Y-91489918D01*
X85510081Y-91317343D01*
X85510076Y-91317339D01*
X85312642Y-91173896D01*
X85312641Y-91173895D01*
X85312639Y-91173894D01*
X85095185Y-91063096D01*
X84863076Y-90987679D01*
X84863074Y-90987678D01*
X84863072Y-90987678D01*
X84694769Y-90961021D01*
X84622027Y-90949500D01*
X84377973Y-90949500D01*
X84322093Y-90958350D01*
X84136927Y-90987678D01*
X83904812Y-91063097D01*
X83687357Y-91173896D01*
X83489923Y-91317339D01*
X83489918Y-91317343D01*
X83317343Y-91489918D01*
X83317339Y-91489923D01*
X83173896Y-91687357D01*
X83063097Y-91904812D01*
X83063096Y-91904814D01*
X83063096Y-91904815D01*
X83045323Y-91959515D01*
X82987678Y-92136927D01*
X82949500Y-92377973D01*
X73700500Y-92377973D01*
X73700500Y-90643982D01*
X100474500Y-90643982D01*
X100474500Y-90756018D01*
X100503497Y-90864237D01*
X100559515Y-90961263D01*
X100638737Y-91040485D01*
X100735763Y-91096503D01*
X100843982Y-91125500D01*
X100843984Y-91125500D01*
X100956016Y-91125500D01*
X100956018Y-91125500D01*
X101064237Y-91096503D01*
X101161263Y-91040485D01*
X101240485Y-90961263D01*
X101257594Y-90931628D01*
X101273092Y-90913267D01*
X101344404Y-90784162D01*
X101348752Y-90775847D01*
X101349220Y-90774900D01*
X101353104Y-90766578D01*
X101358380Y-90754578D01*
X101365699Y-90740164D01*
X115645500Y-90740164D01*
X115645500Y-90859836D01*
X115676473Y-90975431D01*
X115736309Y-91079070D01*
X115820930Y-91163691D01*
X115924569Y-91223527D01*
X116040164Y-91254500D01*
X118360378Y-91254500D01*
X118427417Y-91274185D01*
X118448059Y-91290819D01*
X118840194Y-91682954D01*
X118873679Y-91744277D01*
X118868695Y-91813969D01*
X118826823Y-91869902D01*
X118803047Y-91883871D01*
X118794088Y-91887868D01*
X118735763Y-91903497D01*
X118656415Y-91949308D01*
X118650534Y-91951933D01*
X118622039Y-91955778D01*
X118594100Y-91962557D01*
X118587082Y-91960496D01*
X118581292Y-91961278D01*
X118566991Y-91954596D01*
X118538000Y-91946084D01*
X118464239Y-91903498D01*
X118464238Y-91903497D01*
X118464237Y-91903497D01*
X118356018Y-91874500D01*
X118243982Y-91874500D01*
X118135763Y-91903497D01*
X118135760Y-91903498D01*
X118062000Y-91946084D01*
X117994100Y-91962557D01*
X117938000Y-91946084D01*
X117864239Y-91903498D01*
X117864238Y-91903497D01*
X117864237Y-91903497D01*
X117756018Y-91874500D01*
X117643982Y-91874500D01*
X117535763Y-91903497D01*
X117535760Y-91903498D01*
X117462000Y-91946084D01*
X117394100Y-91962557D01*
X117338000Y-91946084D01*
X117264239Y-91903498D01*
X117264238Y-91903497D01*
X117264237Y-91903497D01*
X117156018Y-91874500D01*
X117043982Y-91874500D01*
X116935763Y-91903497D01*
X116935760Y-91903498D01*
X116862000Y-91946084D01*
X116794100Y-91962557D01*
X116738000Y-91946084D01*
X116664239Y-91903498D01*
X116664238Y-91903497D01*
X116664237Y-91903497D01*
X116556018Y-91874500D01*
X116443982Y-91874500D01*
X116335763Y-91903497D01*
X116335760Y-91903498D01*
X116238740Y-91959513D01*
X116238734Y-91959517D01*
X116159517Y-92038734D01*
X116159513Y-92038740D01*
X116103498Y-92135760D01*
X116103497Y-92135763D01*
X116074500Y-92243982D01*
X116074500Y-92356018D01*
X116103497Y-92464237D01*
X116159515Y-92561263D01*
X116238737Y-92640485D01*
X116335763Y-92696503D01*
X116443982Y-92725500D01*
X116443984Y-92725500D01*
X116556016Y-92725500D01*
X116556018Y-92725500D01*
X116664237Y-92696503D01*
X116738003Y-92653913D01*
X116805899Y-92637442D01*
X116861995Y-92653913D01*
X116935763Y-92696503D01*
X117043982Y-92725500D01*
X117043984Y-92725500D01*
X117156016Y-92725500D01*
X117156018Y-92725500D01*
X117264237Y-92696503D01*
X117338003Y-92653913D01*
X117405899Y-92637442D01*
X117461995Y-92653913D01*
X117535763Y-92696503D01*
X117643982Y-92725500D01*
X117643984Y-92725500D01*
X117756016Y-92725500D01*
X117756018Y-92725500D01*
X117864237Y-92696503D01*
X117938003Y-92653913D01*
X118005899Y-92637442D01*
X118061995Y-92653913D01*
X118135763Y-92696503D01*
X118243982Y-92725500D01*
X118243984Y-92725500D01*
X118356016Y-92725500D01*
X118356018Y-92725500D01*
X118464237Y-92696503D01*
X118538003Y-92653913D01*
X118605899Y-92637442D01*
X118661995Y-92653913D01*
X118735763Y-92696503D01*
X118843982Y-92725500D01*
X118843984Y-92725500D01*
X118956016Y-92725500D01*
X118956018Y-92725500D01*
X119064237Y-92696503D01*
X119161263Y-92640485D01*
X119240485Y-92561263D01*
X119296503Y-92464237D01*
X119301725Y-92444746D01*
X119338089Y-92385086D01*
X119400936Y-92354556D01*
X119470312Y-92362850D01*
X119524190Y-92407335D01*
X119545465Y-92473887D01*
X119545500Y-92476839D01*
X119545500Y-95759836D01*
X119576473Y-95875431D01*
X119636309Y-95979070D01*
X119720930Y-96063691D01*
X119824569Y-96123527D01*
X119940164Y-96154500D01*
X119940166Y-96154500D01*
X120059834Y-96154500D01*
X120059836Y-96154500D01*
X120175431Y-96123527D01*
X120279070Y-96063691D01*
X120363691Y-95979070D01*
X120423527Y-95875431D01*
X120454500Y-95759836D01*
X120454500Y-92269838D01*
X120454501Y-92269825D01*
X120454501Y-92140165D01*
X120453633Y-92136927D01*
X120423527Y-92024570D01*
X120423527Y-92024569D01*
X120423527Y-92024568D01*
X120385967Y-91959513D01*
X120363691Y-91920930D01*
X120279070Y-91836309D01*
X120279069Y-91836308D01*
X120274739Y-91831978D01*
X120274728Y-91831968D01*
X118970761Y-90528001D01*
X118970759Y-90527998D01*
X118879072Y-90436311D01*
X118879066Y-90436306D01*
X118775434Y-90376474D01*
X118775429Y-90376472D01*
X118751003Y-90369926D01*
X118751003Y-90369927D01*
X118690211Y-90353638D01*
X118659836Y-90345499D01*
X118540164Y-90345499D01*
X118532568Y-90345499D01*
X118532552Y-90345500D01*
X116040164Y-90345500D01*
X115924569Y-90376473D01*
X115924566Y-90376474D01*
X115820933Y-90436307D01*
X115820927Y-90436311D01*
X115736311Y-90520927D01*
X115736307Y-90520933D01*
X115676474Y-90624566D01*
X115676473Y-90624569D01*
X115645500Y-90740164D01*
X101365699Y-90740164D01*
X101382408Y-90707256D01*
X101397873Y-90683823D01*
X101405012Y-90675290D01*
X101455673Y-90614751D01*
X101457365Y-90611812D01*
X101477134Y-90586019D01*
X105219172Y-86843982D01*
X105974500Y-86843982D01*
X105974500Y-86956018D01*
X106003497Y-87064237D01*
X106059515Y-87161263D01*
X106059517Y-87161265D01*
X106060577Y-87162325D01*
X106061184Y-87163437D01*
X106064462Y-87167709D01*
X106063795Y-87168220D01*
X106094057Y-87223651D01*
X106089068Y-87293342D01*
X106064177Y-87332072D01*
X106064462Y-87332291D01*
X106061847Y-87335698D01*
X106060577Y-87337675D01*
X106059517Y-87338734D01*
X106059513Y-87338740D01*
X106003498Y-87435760D01*
X106003497Y-87435763D01*
X105974500Y-87543982D01*
X105974500Y-87656018D01*
X106003497Y-87764237D01*
X106059515Y-87861263D01*
X106138737Y-87940485D01*
X106235763Y-87996503D01*
X106343982Y-88025500D01*
X106343984Y-88025500D01*
X106456016Y-88025500D01*
X106456018Y-88025500D01*
X106564237Y-87996503D01*
X106661263Y-87940485D01*
X106740485Y-87861263D01*
X106796503Y-87764237D01*
X106825500Y-87656018D01*
X106825500Y-87543982D01*
X106796503Y-87435763D01*
X106740485Y-87338737D01*
X106739429Y-87337681D01*
X106738824Y-87336573D01*
X106735538Y-87332291D01*
X106736205Y-87331778D01*
X106705944Y-87276358D01*
X106710928Y-87206666D01*
X106735823Y-87167928D01*
X106735538Y-87167709D01*
X106738165Y-87164284D01*
X106739429Y-87162319D01*
X106739654Y-87162094D01*
X106740485Y-87161263D01*
X106796503Y-87064237D01*
X106825500Y-86956018D01*
X106825500Y-86843982D01*
X106796503Y-86735763D01*
X106740485Y-86638737D01*
X106661263Y-86559515D01*
X106564237Y-86503497D01*
X106456018Y-86474500D01*
X106343982Y-86474500D01*
X106235763Y-86503497D01*
X106235760Y-86503498D01*
X106138740Y-86559513D01*
X106138734Y-86559517D01*
X106059517Y-86638734D01*
X106059513Y-86638740D01*
X106003498Y-86735760D01*
X106003497Y-86735763D01*
X105974500Y-86843982D01*
X105219172Y-86843982D01*
X105719172Y-86343982D01*
X134374500Y-86343982D01*
X134374500Y-86456018D01*
X134403497Y-86564237D01*
X134459515Y-86661263D01*
X134538737Y-86740485D01*
X134635763Y-86796503D01*
X134743982Y-86825500D01*
X134743984Y-86825500D01*
X134856016Y-86825500D01*
X134856018Y-86825500D01*
X134964237Y-86796503D01*
X135061263Y-86740485D01*
X135140485Y-86661263D01*
X135196503Y-86564237D01*
X135225500Y-86456018D01*
X135225500Y-86343982D01*
X135196503Y-86235763D01*
X135140485Y-86138737D01*
X135061263Y-86059515D01*
X134964237Y-86003497D01*
X134856018Y-85974500D01*
X134743982Y-85974500D01*
X134635763Y-86003497D01*
X134635760Y-86003498D01*
X134538740Y-86059513D01*
X134538734Y-86059517D01*
X134459517Y-86138734D01*
X134459513Y-86138740D01*
X134403498Y-86235760D01*
X134403497Y-86235763D01*
X134374500Y-86343982D01*
X105719172Y-86343982D01*
X107699336Y-84363819D01*
X107760659Y-84330334D01*
X107787017Y-84327500D01*
X108543114Y-84327500D01*
X108543116Y-84327500D01*
X108626410Y-84305181D01*
X108701090Y-84262065D01*
X108719173Y-84243982D01*
X123274500Y-84243982D01*
X123274500Y-84356018D01*
X123303497Y-84464237D01*
X123359515Y-84561263D01*
X123438737Y-84640485D01*
X123535763Y-84696503D01*
X123643982Y-84725500D01*
X123643984Y-84725500D01*
X123756016Y-84725500D01*
X123756018Y-84725500D01*
X123864237Y-84696503D01*
X123961263Y-84640485D01*
X124040485Y-84561263D01*
X124096503Y-84464237D01*
X124125500Y-84356018D01*
X124125500Y-84243982D01*
X124096503Y-84135763D01*
X124040485Y-84038737D01*
X123961263Y-83959515D01*
X123864237Y-83903497D01*
X123756018Y-83874500D01*
X123643982Y-83874500D01*
X123535763Y-83903497D01*
X123535760Y-83903498D01*
X123438740Y-83959513D01*
X123438734Y-83959517D01*
X123359517Y-84038734D01*
X123359513Y-84038740D01*
X123303498Y-84135760D01*
X123303497Y-84135763D01*
X123274500Y-84243982D01*
X108719173Y-84243982D01*
X109091221Y-83871932D01*
X109099565Y-83864317D01*
X109106991Y-83858135D01*
X109120705Y-83849943D01*
X109165754Y-83809225D01*
X109167682Y-83807622D01*
X109168551Y-83807245D01*
X109177130Y-83800493D01*
X109193569Y-83789281D01*
X109209498Y-83780070D01*
X109254116Y-83758521D01*
X109255509Y-83757861D01*
X109321266Y-83727153D01*
X109330422Y-83722596D01*
X109331452Y-83722051D01*
X109340395Y-83717030D01*
X109419504Y-83669976D01*
X109423857Y-83667313D01*
X109424334Y-83667013D01*
X109426645Y-83664774D01*
X109450909Y-83646462D01*
X109461263Y-83640485D01*
X109540485Y-83561263D01*
X109550462Y-83543982D01*
X144274500Y-83543982D01*
X144274500Y-83656018D01*
X144301975Y-83758554D01*
X144303497Y-83764236D01*
X144303498Y-83764239D01*
X144317959Y-83789286D01*
X144359515Y-83861263D01*
X144438737Y-83940485D01*
X144535763Y-83996503D01*
X144643982Y-84025500D01*
X144643984Y-84025500D01*
X144756016Y-84025500D01*
X144756018Y-84025500D01*
X144864237Y-83996503D01*
X144961263Y-83940485D01*
X145040485Y-83861263D01*
X145065737Y-83817525D01*
X146529500Y-83817525D01*
X146529500Y-83962475D01*
X146567016Y-84102485D01*
X146567017Y-84102488D01*
X146639488Y-84228011D01*
X146639490Y-84228013D01*
X146639491Y-84228015D01*
X146741985Y-84330509D01*
X146741986Y-84330510D01*
X146741988Y-84330511D01*
X146867511Y-84402982D01*
X146867512Y-84402982D01*
X146867515Y-84402984D01*
X147007525Y-84440500D01*
X147007528Y-84440500D01*
X147152472Y-84440500D01*
X147152475Y-84440500D01*
X147292485Y-84402984D01*
X147418015Y-84330509D01*
X147520509Y-84228015D01*
X147592984Y-84102485D01*
X147630500Y-83962475D01*
X147630500Y-83817525D01*
X147592984Y-83677515D01*
X147588631Y-83669976D01*
X147520511Y-83551988D01*
X147520506Y-83551982D01*
X147418017Y-83449493D01*
X147418011Y-83449488D01*
X147292488Y-83377017D01*
X147292489Y-83377017D01*
X147281006Y-83373940D01*
X147152475Y-83339500D01*
X147007525Y-83339500D01*
X146878993Y-83373940D01*
X146867511Y-83377017D01*
X146741988Y-83449488D01*
X146741982Y-83449493D01*
X146639493Y-83551982D01*
X146639488Y-83551988D01*
X146567017Y-83677511D01*
X146567016Y-83677515D01*
X146529500Y-83817525D01*
X145065737Y-83817525D01*
X145096503Y-83764237D01*
X145125500Y-83656018D01*
X145125500Y-83543982D01*
X145096503Y-83435763D01*
X145040485Y-83338737D01*
X144961263Y-83259515D01*
X144864237Y-83203497D01*
X144756018Y-83174500D01*
X144643982Y-83174500D01*
X144535763Y-83203497D01*
X144535760Y-83203498D01*
X144438740Y-83259513D01*
X144438734Y-83259517D01*
X144359517Y-83338734D01*
X144359513Y-83338740D01*
X144303498Y-83435760D01*
X144303497Y-83435763D01*
X144274500Y-83543982D01*
X109550462Y-83543982D01*
X109596503Y-83464237D01*
X109625500Y-83356018D01*
X109625500Y-83243982D01*
X109596503Y-83135763D01*
X109540485Y-83038737D01*
X109461263Y-82959515D01*
X109364237Y-82903497D01*
X109256018Y-82874500D01*
X109143982Y-82874500D01*
X109035763Y-82903497D01*
X109035760Y-82903498D01*
X108938740Y-82959513D01*
X108938738Y-82959514D01*
X108859515Y-83038736D01*
X108848084Y-83058531D01*
X108847949Y-83058768D01*
X108842410Y-83068362D01*
X108826908Y-83086730D01*
X108755591Y-83215842D01*
X108751347Y-83223946D01*
X108750894Y-83224860D01*
X108746904Y-83233397D01*
X108741608Y-83245440D01*
X108738753Y-83251061D01*
X108738739Y-83251087D01*
X108717591Y-83292736D01*
X108702128Y-83316167D01*
X108644330Y-83385241D01*
X108644322Y-83385251D01*
X108642622Y-83388204D01*
X108622858Y-83413985D01*
X108400662Y-83636182D01*
X108339342Y-83669666D01*
X108312983Y-83672500D01*
X107643116Y-83672500D01*
X107556884Y-83672500D01*
X107501354Y-83687379D01*
X107473589Y-83694819D01*
X107398911Y-83737934D01*
X107398908Y-83737936D01*
X103085652Y-88051192D01*
X103024329Y-88084677D01*
X102954637Y-88079693D01*
X102898704Y-88037821D01*
X102890584Y-88025511D01*
X102873836Y-87996503D01*
X102840485Y-87938737D01*
X102761263Y-87859515D01*
X102670973Y-87807386D01*
X102622759Y-87756820D01*
X102609535Y-87688213D01*
X102635503Y-87623349D01*
X102670972Y-87592614D01*
X102761263Y-87540485D01*
X102840485Y-87461263D01*
X102896503Y-87364237D01*
X102925500Y-87256018D01*
X102925500Y-87143982D01*
X102896503Y-87035763D01*
X102840485Y-86938737D01*
X102761263Y-86859515D01*
X102696579Y-86822169D01*
X102664239Y-86803498D01*
X102664238Y-86803497D01*
X102664237Y-86803497D01*
X102556018Y-86774500D01*
X102443982Y-86774500D01*
X102335763Y-86803497D01*
X102335760Y-86803498D01*
X102262000Y-86846084D01*
X102194100Y-86862557D01*
X102138000Y-86846084D01*
X102064239Y-86803498D01*
X102064238Y-86803497D01*
X102064237Y-86803497D01*
X101956018Y-86774500D01*
X101843982Y-86774500D01*
X101735763Y-86803497D01*
X101735760Y-86803498D01*
X101638740Y-86859513D01*
X101638734Y-86859517D01*
X101559517Y-86938734D01*
X101559513Y-86938740D01*
X101503498Y-87035760D01*
X101503497Y-87035763D01*
X101474500Y-87143982D01*
X101474500Y-87256018D01*
X101503497Y-87364237D01*
X101559515Y-87461263D01*
X101638737Y-87540485D01*
X101710654Y-87582006D01*
X101729025Y-87592613D01*
X101777241Y-87643180D01*
X101790463Y-87711787D01*
X101764495Y-87776652D01*
X101729025Y-87807387D01*
X101638740Y-87859513D01*
X101638734Y-87859517D01*
X101559517Y-87938734D01*
X101559513Y-87938740D01*
X101503498Y-88035760D01*
X101503497Y-88035763D01*
X101474500Y-88143982D01*
X101474500Y-88256018D01*
X101503497Y-88364237D01*
X101559515Y-88461263D01*
X101638737Y-88540485D01*
X101735763Y-88596503D01*
X101843982Y-88625500D01*
X101843984Y-88625500D01*
X101956016Y-88625500D01*
X101956018Y-88625500D01*
X102064237Y-88596503D01*
X102138003Y-88553913D01*
X102149665Y-88551084D01*
X102159445Y-88544121D01*
X102182989Y-88542999D01*
X102205899Y-88537442D01*
X102218989Y-88541285D01*
X102229235Y-88540798D01*
X102261998Y-88553914D01*
X102295903Y-88573490D01*
X102325512Y-88590585D01*
X102373727Y-88641152D01*
X102386949Y-88709759D01*
X102360981Y-88774624D01*
X102351192Y-88785652D01*
X101008790Y-90128053D01*
X100984715Y-90146816D01*
X100979293Y-90150055D01*
X100979282Y-90150064D01*
X100936130Y-90189064D01*
X100922854Y-90199512D01*
X100906429Y-90210714D01*
X100890490Y-90219930D01*
X100845914Y-90241459D01*
X100844457Y-90242151D01*
X100778710Y-90272855D01*
X100769638Y-90277367D01*
X100768661Y-90277883D01*
X100759613Y-90282963D01*
X100680464Y-90330042D01*
X100675885Y-90332846D01*
X100675455Y-90333118D01*
X100675446Y-90333125D01*
X100673220Y-90335284D01*
X100648917Y-90353636D01*
X100641830Y-90357728D01*
X100638735Y-90359516D01*
X100559517Y-90438734D01*
X100559513Y-90438740D01*
X100503498Y-90535760D01*
X100503497Y-90535763D01*
X100474500Y-90643982D01*
X73700500Y-90643982D01*
X73700500Y-86396530D01*
X81744500Y-86396530D01*
X81744500Y-86603469D01*
X81784868Y-86806412D01*
X81784870Y-86806420D01*
X81839676Y-86938734D01*
X81864059Y-86997598D01*
X81908587Y-87064239D01*
X81979024Y-87169657D01*
X82125342Y-87315975D01*
X82125345Y-87315977D01*
X82297402Y-87430941D01*
X82488580Y-87510130D01*
X82617432Y-87535760D01*
X82691530Y-87550499D01*
X82691534Y-87550500D01*
X82691535Y-87550500D01*
X83198466Y-87550500D01*
X83198467Y-87550499D01*
X83401420Y-87510130D01*
X83592598Y-87430941D01*
X83764655Y-87315977D01*
X83910977Y-87169655D01*
X84025941Y-86997598D01*
X84105130Y-86806420D01*
X84129590Y-86683450D01*
X91244500Y-86683450D01*
X91244500Y-86816550D01*
X91278949Y-86945116D01*
X91345499Y-87060384D01*
X91345501Y-87060386D01*
X91445363Y-87160248D01*
X91443516Y-87162094D01*
X91477077Y-87208073D01*
X91481219Y-87277819D01*
X91446996Y-87338734D01*
X91442387Y-87342727D01*
X91345501Y-87439613D01*
X91345497Y-87439619D01*
X91278950Y-87554881D01*
X91278949Y-87554884D01*
X91244500Y-87683450D01*
X91244500Y-87816550D01*
X91278949Y-87945116D01*
X91345499Y-88060384D01*
X91439616Y-88154501D01*
X91554884Y-88221051D01*
X91683450Y-88255500D01*
X91683452Y-88255500D01*
X91816548Y-88255500D01*
X91816550Y-88255500D01*
X91945116Y-88221051D01*
X92060384Y-88154501D01*
X92154501Y-88060384D01*
X92154501Y-88060383D01*
X92160248Y-88054637D01*
X92162096Y-88056485D01*
X92208052Y-88022930D01*
X92277798Y-88018775D01*
X92338718Y-88052987D01*
X92342716Y-88057601D01*
X92345499Y-88060384D01*
X92439616Y-88154501D01*
X92554884Y-88221051D01*
X92683450Y-88255500D01*
X92683452Y-88255500D01*
X92816548Y-88255500D01*
X92816550Y-88255500D01*
X92945116Y-88221051D01*
X93060384Y-88154501D01*
X93154501Y-88060384D01*
X93221051Y-87945116D01*
X93255500Y-87816550D01*
X93255500Y-87683450D01*
X93221051Y-87554884D01*
X93154501Y-87439616D01*
X93060384Y-87345499D01*
X93054637Y-87339752D01*
X93056485Y-87337903D01*
X93022930Y-87291948D01*
X93018775Y-87222202D01*
X93052987Y-87161282D01*
X93057601Y-87157283D01*
X93060381Y-87154502D01*
X93060384Y-87154501D01*
X93154501Y-87060384D01*
X93221051Y-86945116D01*
X93255500Y-86816550D01*
X93255500Y-86683450D01*
X93221051Y-86554884D01*
X93154501Y-86439616D01*
X93060384Y-86345499D01*
X92945116Y-86278949D01*
X92816550Y-86244500D01*
X92683450Y-86244500D01*
X92554884Y-86278949D01*
X92554881Y-86278950D01*
X92439619Y-86345497D01*
X92439613Y-86345501D01*
X92339752Y-86445363D01*
X92337905Y-86443516D01*
X92291927Y-86477077D01*
X92222181Y-86481219D01*
X92161266Y-86446996D01*
X92157272Y-86442387D01*
X92060386Y-86345501D01*
X92060384Y-86345499D01*
X91945116Y-86278949D01*
X91816550Y-86244500D01*
X91683450Y-86244500D01*
X91554884Y-86278949D01*
X91554881Y-86278950D01*
X91439619Y-86345497D01*
X91439613Y-86345501D01*
X91345501Y-86439613D01*
X91345497Y-86439619D01*
X91278950Y-86554881D01*
X91278949Y-86554884D01*
X91244500Y-86683450D01*
X84129590Y-86683450D01*
X84136019Y-86651132D01*
X84145499Y-86603469D01*
X84145500Y-86603466D01*
X84145500Y-86396534D01*
X84145499Y-86396530D01*
X84115989Y-86248174D01*
X84105130Y-86193580D01*
X84025941Y-86002402D01*
X83910977Y-85830345D01*
X83910975Y-85830342D01*
X83764657Y-85684024D01*
X83678626Y-85626541D01*
X83592598Y-85569059D01*
X83401420Y-85489870D01*
X83401412Y-85489868D01*
X83198469Y-85449500D01*
X83198465Y-85449500D01*
X82691535Y-85449500D01*
X82691530Y-85449500D01*
X82488587Y-85489868D01*
X82488579Y-85489870D01*
X82297403Y-85569058D01*
X82125342Y-85684024D01*
X81979024Y-85830342D01*
X81864058Y-86002403D01*
X81784870Y-86193579D01*
X81784868Y-86193587D01*
X81744500Y-86396530D01*
X73700500Y-86396530D01*
X73700500Y-83345730D01*
X81744500Y-83345730D01*
X81744500Y-84654269D01*
X81747353Y-84684699D01*
X81747353Y-84684701D01*
X81792206Y-84812880D01*
X81792207Y-84812882D01*
X81872850Y-84922150D01*
X81982118Y-85002793D01*
X82024845Y-85017744D01*
X82110299Y-85047646D01*
X82140730Y-85050500D01*
X82140734Y-85050500D01*
X83749270Y-85050500D01*
X83779699Y-85047646D01*
X83779701Y-85047646D01*
X83843790Y-85025219D01*
X83907882Y-85002793D01*
X84017150Y-84922150D01*
X84097793Y-84812882D01*
X84138516Y-84696503D01*
X84142646Y-84684701D01*
X84142646Y-84684699D01*
X84145500Y-84654269D01*
X84145500Y-83345730D01*
X84142646Y-83315300D01*
X84142646Y-83315298D01*
X84107844Y-83215842D01*
X84097793Y-83187118D01*
X84017150Y-83077850D01*
X83907882Y-82997207D01*
X83907880Y-82997206D01*
X83779700Y-82952353D01*
X83749270Y-82949500D01*
X83749266Y-82949500D01*
X82140734Y-82949500D01*
X82140730Y-82949500D01*
X82110300Y-82952353D01*
X82110298Y-82952353D01*
X81982119Y-82997206D01*
X81982117Y-82997207D01*
X81872850Y-83077850D01*
X81792207Y-83187117D01*
X81792206Y-83187119D01*
X81747353Y-83315298D01*
X81747353Y-83315300D01*
X81744500Y-83345730D01*
X73700500Y-83345730D01*
X73700500Y-77896530D01*
X81744500Y-77896530D01*
X81744500Y-78103469D01*
X81761462Y-78188740D01*
X81784870Y-78306420D01*
X81864059Y-78497598D01*
X81869685Y-78506018D01*
X81979024Y-78669657D01*
X82125342Y-78815975D01*
X82125345Y-78815977D01*
X82297402Y-78930941D01*
X82488580Y-79010130D01*
X82691530Y-79050499D01*
X82691534Y-79050500D01*
X82691535Y-79050500D01*
X83198466Y-79050500D01*
X83198467Y-79050499D01*
X83401420Y-79010130D01*
X83592598Y-78930941D01*
X83764655Y-78815977D01*
X83910977Y-78669655D01*
X84025941Y-78497598D01*
X84105130Y-78306420D01*
X84145500Y-78103465D01*
X84145500Y-77896535D01*
X84105130Y-77693580D01*
X84025941Y-77502402D01*
X83910977Y-77330345D01*
X83910975Y-77330342D01*
X83764657Y-77184024D01*
X83678626Y-77126541D01*
X83592598Y-77069059D01*
X83401420Y-76989870D01*
X83401412Y-76989868D01*
X83198469Y-76949500D01*
X83198465Y-76949500D01*
X82691535Y-76949500D01*
X82691530Y-76949500D01*
X82488587Y-76989868D01*
X82488579Y-76989870D01*
X82297403Y-77069058D01*
X82125342Y-77184024D01*
X81979024Y-77330342D01*
X81864058Y-77502403D01*
X81784870Y-77693579D01*
X81784868Y-77693587D01*
X81744500Y-77896530D01*
X73700500Y-77896530D01*
X73700500Y-74845730D01*
X81744500Y-74845730D01*
X81744500Y-76154269D01*
X81747353Y-76184699D01*
X81747353Y-76184701D01*
X81792206Y-76312880D01*
X81792207Y-76312882D01*
X81872850Y-76422150D01*
X81982118Y-76502793D01*
X82024845Y-76517744D01*
X82110299Y-76547646D01*
X82140730Y-76550500D01*
X82140734Y-76550500D01*
X83749270Y-76550500D01*
X83779699Y-76547646D01*
X83779701Y-76547646D01*
X83843790Y-76525219D01*
X83907882Y-76502793D01*
X84017150Y-76422150D01*
X84097793Y-76312882D01*
X84126089Y-76232016D01*
X84142646Y-76184701D01*
X84142646Y-76184699D01*
X84145500Y-76154269D01*
X84145500Y-76001884D01*
X126072500Y-76001884D01*
X126072500Y-82058884D01*
X126072500Y-82145116D01*
X126094819Y-82228410D01*
X126104056Y-82244410D01*
X126137934Y-82303088D01*
X126137936Y-82303091D01*
X126328053Y-82493208D01*
X126335680Y-82501565D01*
X126341863Y-82508994D01*
X126350055Y-82522705D01*
X126390753Y-82567735D01*
X126392379Y-82569689D01*
X126392754Y-82570555D01*
X126399512Y-82579143D01*
X126410034Y-82594571D01*
X126410710Y-82595561D01*
X126419928Y-82611504D01*
X126441441Y-82656049D01*
X126442132Y-82657504D01*
X126472840Y-82723257D01*
X126477373Y-82732367D01*
X126477928Y-82733418D01*
X126482968Y-82742395D01*
X126530020Y-82821499D01*
X126530033Y-82821520D01*
X126532769Y-82825989D01*
X126533060Y-82826451D01*
X126533061Y-82826452D01*
X126535253Y-82828714D01*
X126553591Y-82853005D01*
X126559510Y-82863257D01*
X126559514Y-82863262D01*
X126559515Y-82863263D01*
X126638737Y-82942485D01*
X126735763Y-82998503D01*
X126843982Y-83027500D01*
X126843984Y-83027500D01*
X126956016Y-83027500D01*
X126956018Y-83027500D01*
X127064237Y-82998503D01*
X127161263Y-82942485D01*
X127240485Y-82863263D01*
X127296503Y-82766237D01*
X127325500Y-82658018D01*
X127325500Y-82545982D01*
X127296503Y-82437763D01*
X127240485Y-82340737D01*
X127161263Y-82261515D01*
X127141185Y-82249923D01*
X127126837Y-82240244D01*
X127124985Y-82238797D01*
X127113267Y-82228907D01*
X127110068Y-82227140D01*
X127110067Y-82227139D01*
X126984172Y-82157600D01*
X126984163Y-82157595D01*
X126980384Y-82155617D01*
X126975986Y-82153315D01*
X126975083Y-82152868D01*
X126966604Y-82148905D01*
X126958688Y-82145423D01*
X126957707Y-82144992D01*
X126951496Y-82142052D01*
X126930918Y-82131603D01*
X147362121Y-82131603D01*
X147362121Y-82243639D01*
X147391118Y-82351858D01*
X147447136Y-82448884D01*
X147526358Y-82528106D01*
X147623384Y-82584124D01*
X147731603Y-82613121D01*
X147731605Y-82613121D01*
X147843637Y-82613121D01*
X147843639Y-82613121D01*
X147951858Y-82584124D01*
X148048884Y-82528106D01*
X148128106Y-82448884D01*
X148184124Y-82351858D01*
X148213121Y-82243639D01*
X148213121Y-82131603D01*
X148184124Y-82023384D01*
X148128106Y-81926358D01*
X148048884Y-81847136D01*
X147951858Y-81791118D01*
X147843639Y-81762121D01*
X147731603Y-81762121D01*
X147623384Y-81791118D01*
X147623381Y-81791119D01*
X147526361Y-81847134D01*
X147526355Y-81847138D01*
X147447138Y-81926355D01*
X147447134Y-81926361D01*
X147391119Y-82023381D01*
X147391118Y-82023384D01*
X147362121Y-82131603D01*
X126930918Y-82131603D01*
X126907260Y-82119590D01*
X126883829Y-82104128D01*
X126814751Y-82046325D01*
X126814749Y-82046324D01*
X126814747Y-82046322D01*
X126811802Y-82044626D01*
X126786012Y-82024857D01*
X126763819Y-82002664D01*
X126730334Y-81941341D01*
X126727500Y-81914983D01*
X126727500Y-78393982D01*
X127124500Y-78393982D01*
X127124500Y-78506018D01*
X127153497Y-78614237D01*
X127209515Y-78711263D01*
X127288737Y-78790485D01*
X127385763Y-78846503D01*
X127493982Y-78875500D01*
X127493984Y-78875500D01*
X127606016Y-78875500D01*
X127606018Y-78875500D01*
X127714237Y-78846503D01*
X127811263Y-78790485D01*
X127890485Y-78711263D01*
X127946503Y-78614237D01*
X127975500Y-78506018D01*
X127975500Y-78393982D01*
X127946503Y-78285763D01*
X127890485Y-78188737D01*
X127811263Y-78109515D01*
X127714237Y-78053497D01*
X127606018Y-78024500D01*
X127493982Y-78024500D01*
X127385763Y-78053497D01*
X127385760Y-78053498D01*
X127288740Y-78109513D01*
X127288734Y-78109517D01*
X127209517Y-78188734D01*
X127209513Y-78188740D01*
X127153498Y-78285760D01*
X127153497Y-78285763D01*
X127124500Y-78393982D01*
X126727500Y-78393982D01*
X126727500Y-76232016D01*
X126747185Y-76164977D01*
X126763814Y-76144339D01*
X127746110Y-75162043D01*
X127769504Y-75144818D01*
X127769157Y-75144291D01*
X127774246Y-75140938D01*
X127774251Y-75140936D01*
X127889905Y-75047315D01*
X127906201Y-75036150D01*
X128091580Y-74929812D01*
X128103160Y-74923953D01*
X128208522Y-74877422D01*
X128216765Y-74874131D01*
X128332748Y-74832584D01*
X128341615Y-74829778D01*
X128449202Y-74800140D01*
X128459149Y-74797836D01*
X128498937Y-74790337D01*
X128546087Y-74790573D01*
X128654055Y-74812050D01*
X128696533Y-74820500D01*
X128696535Y-74820500D01*
X128903466Y-74820500D01*
X128903467Y-74820499D01*
X129106420Y-74780130D01*
X129297598Y-74700941D01*
X129469655Y-74585977D01*
X129615977Y-74439655D01*
X129730941Y-74267598D01*
X129810130Y-74076420D01*
X129850500Y-73873465D01*
X129850500Y-73416535D01*
X129850499Y-73416530D01*
X130249500Y-73416530D01*
X130249500Y-73873469D01*
X130289868Y-74076412D01*
X130289870Y-74076420D01*
X130369058Y-74267596D01*
X130484024Y-74439657D01*
X130630339Y-74585972D01*
X130630346Y-74585978D01*
X130673483Y-74614801D01*
X130680586Y-74622097D01*
X130686640Y-74624929D01*
X130709506Y-74651804D01*
X130756977Y-74727159D01*
X130765322Y-74742780D01*
X130854728Y-74943414D01*
X130860247Y-74958293D01*
X130931885Y-75197364D01*
X130934899Y-75209684D01*
X130954644Y-75313016D01*
X130956160Y-75323247D01*
X130965989Y-75416182D01*
X130966627Y-75425715D01*
X130967260Y-75448104D01*
X130967261Y-75448106D01*
X130969577Y-75458583D01*
X130972500Y-75485347D01*
X130972500Y-75525177D01*
X130994819Y-75608471D01*
X131037935Y-75683151D01*
X134716849Y-79362065D01*
X134791529Y-79405181D01*
X134874823Y-79427500D01*
X134961055Y-79427500D01*
X136412983Y-79427500D01*
X136442423Y-79436144D01*
X136472410Y-79442668D01*
X136477425Y-79446422D01*
X136480022Y-79447185D01*
X136500664Y-79463819D01*
X136536181Y-79499336D01*
X136569666Y-79560659D01*
X136572500Y-79587017D01*
X136572500Y-80018345D01*
X136552815Y-80085384D01*
X136500011Y-80131139D01*
X136480009Y-80138275D01*
X136468045Y-80141418D01*
X136447228Y-80148089D01*
X136447207Y-80148096D01*
X136444876Y-80148983D01*
X136424699Y-80157925D01*
X136424679Y-80157934D01*
X136393450Y-80173834D01*
X136382857Y-80179625D01*
X136382143Y-80180043D01*
X136381702Y-80180302D01*
X136381609Y-80180357D01*
X136381575Y-80180376D01*
X136379935Y-80181920D01*
X136356984Y-80198980D01*
X136338735Y-80209516D01*
X136259514Y-80288738D01*
X136259513Y-80288740D01*
X136203498Y-80385760D01*
X136203497Y-80385763D01*
X136174500Y-80493982D01*
X136174500Y-80606018D01*
X136203497Y-80714237D01*
X136259515Y-80811263D01*
X136338737Y-80890485D01*
X136435763Y-80946503D01*
X136543982Y-80975500D01*
X136543984Y-80975500D01*
X136656016Y-80975500D01*
X136656018Y-80975500D01*
X136764237Y-80946503D01*
X136861263Y-80890485D01*
X136940485Y-80811263D01*
X136940486Y-80811260D01*
X136944248Y-80806359D01*
X136945916Y-80804234D01*
X136951905Y-80796769D01*
X136954647Y-80794447D01*
X137043585Y-80682521D01*
X137043716Y-80682359D01*
X137043786Y-80682309D01*
X137049658Y-80675486D01*
X137060420Y-80663926D01*
X137061552Y-80662699D01*
X137061726Y-80662509D01*
X137062869Y-80661244D01*
X137063583Y-80660454D01*
X137070133Y-80653098D01*
X137111630Y-80606495D01*
X137122189Y-80593623D01*
X137123327Y-80592115D01*
X137132764Y-80578500D01*
X137168218Y-80522676D01*
X137181294Y-80498704D01*
X137182598Y-80495882D01*
X137192410Y-80470289D01*
X137214846Y-80397599D01*
X137220383Y-80375310D01*
X137220870Y-80372744D01*
X137223886Y-80349966D01*
X137230958Y-80256712D01*
X137231403Y-80248829D01*
X137231436Y-80247944D01*
X137229453Y-80236902D01*
X137227500Y-80214983D01*
X137227500Y-80143982D01*
X143274500Y-80143982D01*
X143274500Y-80256018D01*
X143283268Y-80288738D01*
X143303497Y-80364236D01*
X143303498Y-80364239D01*
X143309889Y-80375309D01*
X143359515Y-80461263D01*
X143438737Y-80540485D01*
X143468367Y-80557592D01*
X143486732Y-80573091D01*
X143615832Y-80644401D01*
X143623990Y-80648671D01*
X143624937Y-80649140D01*
X143633408Y-80653098D01*
X143645417Y-80658379D01*
X143692736Y-80682406D01*
X143716169Y-80697869D01*
X143785248Y-80755674D01*
X143788193Y-80757370D01*
X143813986Y-80777141D01*
X144204952Y-81168107D01*
X144210508Y-81174039D01*
X144217366Y-81181861D01*
X144227203Y-81197818D01*
X144300644Y-81276842D01*
X144301823Y-81278187D01*
X144302119Y-81278825D01*
X144309329Y-81287640D01*
X144346307Y-81339168D01*
X144350778Y-81345844D01*
X144366922Y-81371730D01*
X144368138Y-81373656D01*
X144433388Y-81475701D01*
X144434350Y-81477190D01*
X144434444Y-81477334D01*
X144434449Y-81477341D01*
X144436609Y-81479535D01*
X144455616Y-81504510D01*
X144459512Y-81511259D01*
X144459515Y-81511263D01*
X144538737Y-81590485D01*
X144635763Y-81646503D01*
X144743982Y-81675500D01*
X144743984Y-81675500D01*
X144856016Y-81675500D01*
X144856018Y-81675500D01*
X144964237Y-81646503D01*
X145061263Y-81590485D01*
X145140485Y-81511263D01*
X145196503Y-81414237D01*
X145225500Y-81306018D01*
X145225500Y-81193982D01*
X145196503Y-81085763D01*
X145140485Y-80988737D01*
X145061263Y-80909515D01*
X145061262Y-80909514D01*
X145061259Y-80909512D01*
X145034483Y-80894053D01*
X145019436Y-80883824D01*
X145007197Y-80874119D01*
X144899386Y-80818794D01*
X144899384Y-80818793D01*
X144899378Y-80818790D01*
X144882324Y-80811000D01*
X144882317Y-80810997D01*
X144880354Y-80810206D01*
X144880323Y-80810195D01*
X144862633Y-80803995D01*
X144862635Y-80803995D01*
X144862622Y-80803991D01*
X144812127Y-80788843D01*
X144806338Y-80786949D01*
X144761613Y-80771095D01*
X144720966Y-80747170D01*
X144693919Y-80723287D01*
X144693920Y-80723287D01*
X144688056Y-80719753D01*
X144664392Y-80701237D01*
X144271944Y-80308789D01*
X144264317Y-80300432D01*
X144258132Y-80293001D01*
X144249943Y-80279294D01*
X144209251Y-80234270D01*
X144207623Y-80232314D01*
X144207248Y-80231448D01*
X144200492Y-80222863D01*
X144189286Y-80206434D01*
X144180065Y-80190487D01*
X144158565Y-80145969D01*
X144157873Y-80144512D01*
X144127147Y-80078720D01*
X144122606Y-80069596D01*
X144122050Y-80068545D01*
X144117034Y-80059611D01*
X144102848Y-80035760D01*
X144069976Y-79980495D01*
X144069096Y-79979057D01*
X144067294Y-79976110D01*
X144067018Y-79975672D01*
X144067010Y-79975661D01*
X144065186Y-79973779D01*
X144054118Y-79962351D01*
X144040485Y-79938737D01*
X143961263Y-79859515D01*
X143864237Y-79803497D01*
X143756018Y-79774500D01*
X143643982Y-79774500D01*
X143535763Y-79803497D01*
X143535760Y-79803498D01*
X143438740Y-79859513D01*
X143438734Y-79859517D01*
X143359517Y-79938734D01*
X143359513Y-79938740D01*
X143303498Y-80035760D01*
X143303497Y-80035763D01*
X143274500Y-80143982D01*
X137227500Y-80143982D01*
X137227500Y-79756361D01*
X147362121Y-79756361D01*
X147362121Y-79868397D01*
X147390983Y-79976110D01*
X147391118Y-79976615D01*
X147391119Y-79976618D01*
X147409790Y-80008958D01*
X147447136Y-80073642D01*
X147526358Y-80152864D01*
X147623384Y-80208882D01*
X147731603Y-80237879D01*
X147731605Y-80237879D01*
X147843637Y-80237879D01*
X147843639Y-80237879D01*
X147951858Y-80208882D01*
X148048884Y-80152864D01*
X148128106Y-80073642D01*
X148184124Y-79976616D01*
X148213121Y-79868397D01*
X148213121Y-79756361D01*
X148184124Y-79648142D01*
X148128106Y-79551116D01*
X148048884Y-79471894D01*
X147951858Y-79415876D01*
X147843639Y-79386879D01*
X147731603Y-79386879D01*
X147623384Y-79415876D01*
X147623381Y-79415877D01*
X147526361Y-79471892D01*
X147526355Y-79471896D01*
X147447138Y-79551113D01*
X147447134Y-79551119D01*
X147391119Y-79648139D01*
X147391118Y-79648142D01*
X147362121Y-79756361D01*
X137227500Y-79756361D01*
X137227500Y-79356885D01*
X137227500Y-79356884D01*
X137205181Y-79273590D01*
X137162065Y-79198910D01*
X137101090Y-79137935D01*
X136801090Y-78837935D01*
X136726410Y-78794819D01*
X136726411Y-78794819D01*
X136698645Y-78787379D01*
X136643116Y-78772500D01*
X136643114Y-78772500D01*
X135104956Y-78772500D01*
X135037917Y-78752815D01*
X135017275Y-78736181D01*
X134523577Y-78242483D01*
X134490092Y-78181160D01*
X134492751Y-78143982D01*
X144274500Y-78143982D01*
X144274500Y-78256018D01*
X144303497Y-78364237D01*
X144359515Y-78461263D01*
X144438737Y-78540485D01*
X144535763Y-78596503D01*
X144643982Y-78625500D01*
X144643984Y-78625500D01*
X144756016Y-78625500D01*
X144756018Y-78625500D01*
X144864237Y-78596503D01*
X144961263Y-78540485D01*
X145040485Y-78461263D01*
X145096503Y-78364237D01*
X145125500Y-78256018D01*
X145125500Y-78143982D01*
X145096975Y-78037525D01*
X146529500Y-78037525D01*
X146529500Y-78182475D01*
X146567016Y-78322485D01*
X146567017Y-78322488D01*
X146639488Y-78448011D01*
X146639490Y-78448013D01*
X146639491Y-78448015D01*
X146741985Y-78550509D01*
X146741986Y-78550510D01*
X146741988Y-78550511D01*
X146867511Y-78622982D01*
X146867512Y-78622982D01*
X146867515Y-78622984D01*
X147007525Y-78660500D01*
X147007528Y-78660500D01*
X147152472Y-78660500D01*
X147152475Y-78660500D01*
X147292485Y-78622984D01*
X147418015Y-78550509D01*
X147520509Y-78448015D01*
X147592984Y-78322485D01*
X147630500Y-78182475D01*
X147630500Y-78037525D01*
X147592984Y-77897515D01*
X147592418Y-77896535D01*
X147520511Y-77771988D01*
X147520506Y-77771982D01*
X147418017Y-77669493D01*
X147418011Y-77669488D01*
X147292488Y-77597017D01*
X147292489Y-77597017D01*
X147255060Y-77586988D01*
X147152475Y-77559500D01*
X147007525Y-77559500D01*
X146904940Y-77586988D01*
X146867511Y-77597017D01*
X146741988Y-77669488D01*
X146741982Y-77669493D01*
X146639493Y-77771982D01*
X146639488Y-77771988D01*
X146567017Y-77897511D01*
X146567016Y-77897515D01*
X146529500Y-78037525D01*
X145096975Y-78037525D01*
X145096503Y-78035763D01*
X145040485Y-77938737D01*
X144961263Y-77859515D01*
X144864237Y-77803497D01*
X144756018Y-77774500D01*
X144643982Y-77774500D01*
X144535763Y-77803497D01*
X144535760Y-77803498D01*
X144438740Y-77859513D01*
X144438734Y-77859517D01*
X144359517Y-77938734D01*
X144359513Y-77938740D01*
X144303498Y-78035760D01*
X144303497Y-78035763D01*
X144274500Y-78143982D01*
X134492751Y-78143982D01*
X134495076Y-78111468D01*
X134536948Y-78055535D01*
X134549240Y-78047426D01*
X134561263Y-78040485D01*
X134640485Y-77961263D01*
X134696503Y-77864237D01*
X134725500Y-77756018D01*
X134725500Y-77643982D01*
X137974500Y-77643982D01*
X137974500Y-77756018D01*
X138003497Y-77864237D01*
X138059515Y-77961263D01*
X138138737Y-78040485D01*
X138235763Y-78096503D01*
X138343982Y-78125500D01*
X138343984Y-78125500D01*
X138456016Y-78125500D01*
X138456018Y-78125500D01*
X138564237Y-78096503D01*
X138661263Y-78040485D01*
X138740485Y-77961263D01*
X138796503Y-77864237D01*
X138825500Y-77756018D01*
X138825500Y-77643982D01*
X138796503Y-77535763D01*
X138740485Y-77438737D01*
X138661263Y-77359515D01*
X138564237Y-77303497D01*
X138456018Y-77274500D01*
X138343982Y-77274500D01*
X138235763Y-77303497D01*
X138235760Y-77303498D01*
X138138740Y-77359513D01*
X138138734Y-77359517D01*
X138059517Y-77438734D01*
X138059513Y-77438740D01*
X138003498Y-77535760D01*
X138003497Y-77535763D01*
X137974500Y-77643982D01*
X134725500Y-77643982D01*
X134718779Y-77618902D01*
X134718183Y-77616197D01*
X134718288Y-77614665D01*
X134715713Y-77599939D01*
X134714619Y-77586988D01*
X134706693Y-77559500D01*
X134673766Y-77445309D01*
X134673756Y-77445277D01*
X134670981Y-77436412D01*
X134670643Y-77435412D01*
X134667479Y-77426703D01*
X134663953Y-77417642D01*
X134661646Y-77411188D01*
X134646248Y-77364019D01*
X134640613Y-77336514D01*
X134632640Y-77246794D01*
X134631757Y-77243511D01*
X134627500Y-77211300D01*
X134627500Y-75956885D01*
X134627500Y-75956884D01*
X134605181Y-75873590D01*
X134562065Y-75798910D01*
X134501090Y-75737935D01*
X134182281Y-75419126D01*
X134181488Y-75417675D01*
X134180057Y-75416845D01*
X134164803Y-75387119D01*
X134148796Y-75357803D01*
X134148671Y-75355679D01*
X134148159Y-75354681D01*
X134146546Y-75319424D01*
X134146676Y-75318099D01*
X134148694Y-75297374D01*
X134151749Y-75279575D01*
X134210109Y-75044137D01*
X134213660Y-75032355D01*
X134255385Y-74915330D01*
X134258656Y-74907100D01*
X134271694Y-74877430D01*
X134310564Y-74788968D01*
X134314765Y-74780333D01*
X134365584Y-74685411D01*
X134371140Y-74676050D01*
X134382123Y-74659268D01*
X134385499Y-74654109D01*
X134420362Y-74618912D01*
X134469655Y-74585977D01*
X134615977Y-74439655D01*
X134730941Y-74267598D01*
X134810130Y-74076420D01*
X134850500Y-73873465D01*
X134850500Y-73416535D01*
X134810130Y-73213580D01*
X134730941Y-73022402D01*
X134670353Y-72931725D01*
X134670352Y-72931722D01*
X134626257Y-72865730D01*
X135249500Y-72865730D01*
X135249500Y-74424269D01*
X135252353Y-74454699D01*
X135252353Y-74454701D01*
X135286778Y-74553078D01*
X135297207Y-74582882D01*
X135377850Y-74692150D01*
X135487118Y-74772793D01*
X135520781Y-74784572D01*
X135615299Y-74817646D01*
X135645730Y-74820500D01*
X135645734Y-74820500D01*
X136954270Y-74820500D01*
X136984699Y-74817646D01*
X136984701Y-74817646D01*
X137048790Y-74795219D01*
X137112882Y-74772793D01*
X137222150Y-74692150D01*
X137302793Y-74582882D01*
X137332772Y-74497206D01*
X137347646Y-74454701D01*
X137347646Y-74454699D01*
X137350500Y-74424269D01*
X137350500Y-72865730D01*
X137347646Y-72835300D01*
X137347646Y-72835298D01*
X137302793Y-72707119D01*
X137302792Y-72707117D01*
X137222150Y-72597850D01*
X137112882Y-72517207D01*
X137112880Y-72517206D01*
X136984700Y-72472353D01*
X136954270Y-72469500D01*
X136954266Y-72469500D01*
X135645734Y-72469500D01*
X135645730Y-72469500D01*
X135615300Y-72472353D01*
X135615298Y-72472353D01*
X135487119Y-72517206D01*
X135487117Y-72517207D01*
X135377850Y-72597850D01*
X135297207Y-72707117D01*
X135297206Y-72707119D01*
X135252353Y-72835298D01*
X135252353Y-72835300D01*
X135249500Y-72865730D01*
X134626257Y-72865730D01*
X134615980Y-72850349D01*
X134615974Y-72850341D01*
X134469657Y-72704024D01*
X134383626Y-72646541D01*
X134297598Y-72589059D01*
X134217830Y-72556018D01*
X134106420Y-72509870D01*
X134106412Y-72509868D01*
X133903469Y-72469500D01*
X133903465Y-72469500D01*
X133696535Y-72469500D01*
X133696530Y-72469500D01*
X133493587Y-72509868D01*
X133493579Y-72509870D01*
X133302403Y-72589058D01*
X133130342Y-72704024D01*
X132984024Y-72850342D01*
X132869058Y-73022403D01*
X132789870Y-73213579D01*
X132789868Y-73213587D01*
X132749500Y-73416530D01*
X132749500Y-73873469D01*
X132789868Y-74076412D01*
X132789870Y-74076420D01*
X132869058Y-74267596D01*
X132984024Y-74439657D01*
X133130339Y-74585972D01*
X133130346Y-74585978D01*
X133173483Y-74614801D01*
X133180586Y-74622097D01*
X133186640Y-74624929D01*
X133209506Y-74651804D01*
X133256977Y-74727159D01*
X133265322Y-74742780D01*
X133354728Y-74943414D01*
X133360247Y-74958293D01*
X133431885Y-75197364D01*
X133434899Y-75209684D01*
X133454644Y-75313016D01*
X133456160Y-75323247D01*
X133465989Y-75416182D01*
X133466627Y-75425715D01*
X133467260Y-75448104D01*
X133467261Y-75448106D01*
X133469577Y-75458583D01*
X133472500Y-75485347D01*
X133472500Y-75543116D01*
X133490012Y-75608471D01*
X133494819Y-75626410D01*
X133537934Y-75701088D01*
X133537936Y-75701091D01*
X133936181Y-76099336D01*
X133969666Y-76160659D01*
X133972500Y-76187017D01*
X133972500Y-77218647D01*
X133971984Y-77229951D01*
X133971103Y-77239573D01*
X133967201Y-77255059D01*
X133964137Y-77315671D01*
X133963906Y-77318197D01*
X133963557Y-77319077D01*
X133962263Y-77329929D01*
X133958566Y-77349483D01*
X133953813Y-77367270D01*
X133939899Y-77407178D01*
X133899241Y-77464000D01*
X133834317Y-77489820D01*
X133765740Y-77476441D01*
X133735130Y-77454036D01*
X131683873Y-75402779D01*
X131683079Y-75401325D01*
X131681646Y-75400494D01*
X131666395Y-75370772D01*
X131650388Y-75341456D01*
X131650263Y-75339330D01*
X131649750Y-75338330D01*
X131648138Y-75303080D01*
X131648694Y-75297366D01*
X131651749Y-75279575D01*
X131710109Y-75044137D01*
X131713660Y-75032355D01*
X131755385Y-74915330D01*
X131758656Y-74907100D01*
X131771694Y-74877430D01*
X131810564Y-74788968D01*
X131814765Y-74780333D01*
X131865584Y-74685411D01*
X131871140Y-74676050D01*
X131882123Y-74659268D01*
X131885499Y-74654109D01*
X131920362Y-74618912D01*
X131969655Y-74585977D01*
X132115977Y-74439655D01*
X132230941Y-74267598D01*
X132310130Y-74076420D01*
X132350500Y-73873465D01*
X132350500Y-73416535D01*
X132310130Y-73213580D01*
X132230941Y-73022402D01*
X132115977Y-72850345D01*
X132115975Y-72850342D01*
X131969657Y-72704024D01*
X131883626Y-72646541D01*
X131797598Y-72589059D01*
X131717830Y-72556018D01*
X131606420Y-72509870D01*
X131606412Y-72509868D01*
X131403469Y-72469500D01*
X131403465Y-72469500D01*
X131196535Y-72469500D01*
X131196530Y-72469500D01*
X130993587Y-72509868D01*
X130993579Y-72509870D01*
X130802403Y-72589058D01*
X130630342Y-72704024D01*
X130484024Y-72850342D01*
X130369058Y-73022403D01*
X130289870Y-73213579D01*
X130289868Y-73213587D01*
X130249500Y-73416530D01*
X129850499Y-73416530D01*
X129810130Y-73213580D01*
X129730941Y-73022402D01*
X129615977Y-72850345D01*
X129615975Y-72850342D01*
X129469657Y-72704024D01*
X129383626Y-72646541D01*
X129297598Y-72589059D01*
X129217830Y-72556018D01*
X129106420Y-72509870D01*
X129106412Y-72509868D01*
X128903469Y-72469500D01*
X128903465Y-72469500D01*
X128696535Y-72469500D01*
X128696530Y-72469500D01*
X128493587Y-72509868D01*
X128493579Y-72509870D01*
X128302403Y-72589058D01*
X128130342Y-72704024D01*
X127984024Y-72850342D01*
X127869058Y-73022403D01*
X127789870Y-73213579D01*
X127789868Y-73213587D01*
X127749500Y-73416530D01*
X127749500Y-73740587D01*
X127745984Y-73769907D01*
X127704556Y-73940148D01*
X127699868Y-73955181D01*
X127607883Y-74195333D01*
X127601575Y-74209190D01*
X127476117Y-74445168D01*
X127469552Y-74456116D01*
X127410005Y-74544736D01*
X127403880Y-74553078D01*
X127343368Y-74628658D01*
X127336952Y-74636053D01*
X127315143Y-74659271D01*
X127309563Y-74668062D01*
X127292555Y-74689288D01*
X126198910Y-75782935D01*
X126137936Y-75843908D01*
X126137934Y-75843911D01*
X126094819Y-75918589D01*
X126094819Y-75918590D01*
X126072500Y-76001884D01*
X84145500Y-76001884D01*
X84145500Y-74845730D01*
X84142646Y-74815300D01*
X84142646Y-74815298D01*
X84102630Y-74700941D01*
X84097793Y-74687118D01*
X84017150Y-74577850D01*
X83907882Y-74497207D01*
X83907880Y-74497206D01*
X83779700Y-74452353D01*
X83749270Y-74449500D01*
X83749266Y-74449500D01*
X82140734Y-74449500D01*
X82140730Y-74449500D01*
X82110300Y-74452353D01*
X82110298Y-74452353D01*
X81982119Y-74497206D01*
X81982117Y-74497207D01*
X81872850Y-74577850D01*
X81792207Y-74687117D01*
X81792206Y-74687119D01*
X81747353Y-74815298D01*
X81747353Y-74815300D01*
X81744500Y-74845730D01*
X73700500Y-74845730D01*
X73700500Y-72443982D01*
X97274500Y-72443982D01*
X97274500Y-72556018D01*
X97303497Y-72664237D01*
X97359515Y-72761263D01*
X97438737Y-72840485D01*
X97535763Y-72896503D01*
X97643982Y-72925500D01*
X97643984Y-72925500D01*
X97756016Y-72925500D01*
X97756018Y-72925500D01*
X97864237Y-72896503D01*
X97961263Y-72840485D01*
X98040485Y-72761263D01*
X98096503Y-72664237D01*
X98125500Y-72556018D01*
X98125500Y-72443982D01*
X98096503Y-72335763D01*
X98040485Y-72238737D01*
X97961263Y-72159515D01*
X97864237Y-72103497D01*
X97756018Y-72074500D01*
X97643982Y-72074500D01*
X97535763Y-72103497D01*
X97535760Y-72103498D01*
X97438740Y-72159513D01*
X97438734Y-72159517D01*
X97359517Y-72238734D01*
X97359513Y-72238740D01*
X97303498Y-72335760D01*
X97303497Y-72335763D01*
X97274500Y-72443982D01*
X73700500Y-72443982D01*
X73700500Y-68253052D01*
X73700649Y-68246967D01*
X73705529Y-68147648D01*
X76199500Y-68147648D01*
X76199500Y-68352351D01*
X76231522Y-68554534D01*
X76294781Y-68749223D01*
X76387715Y-68931613D01*
X76508028Y-69097213D01*
X76652786Y-69241971D01*
X76807749Y-69354556D01*
X76818390Y-69362287D01*
X76934607Y-69421503D01*
X77000776Y-69455218D01*
X77000778Y-69455218D01*
X77000781Y-69455220D01*
X77028539Y-69464239D01*
X77195465Y-69518477D01*
X77296557Y-69534488D01*
X77397648Y-69550500D01*
X77397649Y-69550500D01*
X77602351Y-69550500D01*
X77602352Y-69550500D01*
X77804534Y-69518477D01*
X77999219Y-69455220D01*
X78150825Y-69377973D01*
X82949500Y-69377973D01*
X82949500Y-69622027D01*
X82987679Y-69863076D01*
X83063096Y-70095185D01*
X83169236Y-70303498D01*
X83173896Y-70312642D01*
X83317339Y-70510076D01*
X83317343Y-70510081D01*
X83489918Y-70682656D01*
X83489923Y-70682660D01*
X83662136Y-70807779D01*
X83687361Y-70826106D01*
X83904815Y-70936904D01*
X84136924Y-71012321D01*
X84377973Y-71050500D01*
X84377974Y-71050500D01*
X84622026Y-71050500D01*
X84622027Y-71050500D01*
X84863076Y-71012321D01*
X85073401Y-70943982D01*
X97874500Y-70943982D01*
X97874500Y-71056018D01*
X97903497Y-71164237D01*
X97959515Y-71261263D01*
X98038737Y-71340485D01*
X98135763Y-71396503D01*
X98243982Y-71425500D01*
X98243984Y-71425500D01*
X98356016Y-71425500D01*
X98356018Y-71425500D01*
X98464237Y-71396503D01*
X98561263Y-71340485D01*
X98640485Y-71261263D01*
X98696503Y-71164237D01*
X98725500Y-71056018D01*
X98725500Y-70943982D01*
X98696503Y-70835763D01*
X98640485Y-70738737D01*
X98561263Y-70659515D01*
X98534359Y-70643982D01*
X114074500Y-70643982D01*
X114074500Y-70756018D01*
X114103497Y-70864237D01*
X114159515Y-70961263D01*
X114238737Y-71040485D01*
X114335763Y-71096503D01*
X114443982Y-71125500D01*
X114443984Y-71125500D01*
X114556016Y-71125500D01*
X114556018Y-71125500D01*
X114664237Y-71096503D01*
X114761263Y-71040485D01*
X114840485Y-70961263D01*
X114896503Y-70864237D01*
X114925500Y-70756018D01*
X114925500Y-70643982D01*
X114896503Y-70535763D01*
X114840485Y-70438737D01*
X114761263Y-70359515D01*
X114680077Y-70312642D01*
X114664239Y-70303498D01*
X114664238Y-70303497D01*
X114664237Y-70303497D01*
X114556018Y-70274500D01*
X114443982Y-70274500D01*
X114335763Y-70303497D01*
X114335760Y-70303498D01*
X114238740Y-70359513D01*
X114238734Y-70359517D01*
X114159517Y-70438734D01*
X114159513Y-70438740D01*
X114103498Y-70535760D01*
X114103497Y-70535763D01*
X114074500Y-70643982D01*
X98534359Y-70643982D01*
X98464237Y-70603497D01*
X98356018Y-70574500D01*
X98243982Y-70574500D01*
X98135763Y-70603497D01*
X98135760Y-70603498D01*
X98038740Y-70659513D01*
X98038734Y-70659517D01*
X97959517Y-70738734D01*
X97959513Y-70738740D01*
X97903498Y-70835760D01*
X97903497Y-70835763D01*
X97874500Y-70943982D01*
X85073401Y-70943982D01*
X85095185Y-70936904D01*
X85312639Y-70826106D01*
X85510083Y-70682655D01*
X85682655Y-70510083D01*
X85826106Y-70312639D01*
X85936904Y-70095185D01*
X86012321Y-69863076D01*
X86050500Y-69622027D01*
X86050500Y-69377973D01*
X86047023Y-69356018D01*
X86031063Y-69255253D01*
X86029278Y-69243982D01*
X104774500Y-69243982D01*
X104774500Y-69356018D01*
X104803497Y-69464237D01*
X104859515Y-69561263D01*
X104938737Y-69640485D01*
X105035763Y-69696503D01*
X105143982Y-69725500D01*
X105143984Y-69725500D01*
X105256016Y-69725500D01*
X105256018Y-69725500D01*
X105364237Y-69696503D01*
X105461263Y-69640485D01*
X105540485Y-69561263D01*
X105596503Y-69464237D01*
X105619617Y-69377973D01*
X140949500Y-69377973D01*
X140949500Y-69622027D01*
X140987679Y-69863076D01*
X141063096Y-70095185D01*
X141169236Y-70303498D01*
X141173896Y-70312642D01*
X141317339Y-70510076D01*
X141317343Y-70510081D01*
X141489918Y-70682656D01*
X141489923Y-70682660D01*
X141662136Y-70807779D01*
X141687361Y-70826106D01*
X141904815Y-70936904D01*
X142136924Y-71012321D01*
X142377973Y-71050500D01*
X142377974Y-71050500D01*
X142622026Y-71050500D01*
X142622027Y-71050500D01*
X142863076Y-71012321D01*
X143095185Y-70936904D01*
X143312639Y-70826106D01*
X143510083Y-70682655D01*
X143682655Y-70510083D01*
X143826106Y-70312639D01*
X143936904Y-70095185D01*
X144012321Y-69863076D01*
X144050500Y-69622027D01*
X144050500Y-69377973D01*
X144012321Y-69136924D01*
X143936904Y-68904815D01*
X143826106Y-68687361D01*
X143729602Y-68554534D01*
X143682660Y-68489923D01*
X143682656Y-68489918D01*
X143510081Y-68317343D01*
X143510076Y-68317339D01*
X143407886Y-68243094D01*
X143312642Y-68173896D01*
X143312641Y-68173895D01*
X143312639Y-68173894D01*
X143261128Y-68147648D01*
X148199500Y-68147648D01*
X148199500Y-68352351D01*
X148231522Y-68554534D01*
X148294781Y-68749223D01*
X148387715Y-68931613D01*
X148508028Y-69097213D01*
X148652786Y-69241971D01*
X148807749Y-69354556D01*
X148818390Y-69362287D01*
X148934607Y-69421503D01*
X149000776Y-69455218D01*
X149000778Y-69455218D01*
X149000781Y-69455220D01*
X149028539Y-69464239D01*
X149195465Y-69518477D01*
X149296557Y-69534488D01*
X149397648Y-69550500D01*
X149397649Y-69550500D01*
X149602351Y-69550500D01*
X149602352Y-69550500D01*
X149804534Y-69518477D01*
X149999219Y-69455220D01*
X150181610Y-69362287D01*
X150304803Y-69272783D01*
X150347213Y-69241971D01*
X150347215Y-69241968D01*
X150347219Y-69241966D01*
X150491966Y-69097219D01*
X150491968Y-69097215D01*
X150491971Y-69097213D01*
X150544732Y-69024590D01*
X150612287Y-68931610D01*
X150705220Y-68749219D01*
X150768477Y-68554534D01*
X150800500Y-68352352D01*
X150800500Y-68147648D01*
X150769116Y-67949500D01*
X150768477Y-67945465D01*
X150720841Y-67798859D01*
X150705220Y-67750781D01*
X150705218Y-67750778D01*
X150705218Y-67750776D01*
X150663578Y-67669054D01*
X150612287Y-67568390D01*
X150573339Y-67514782D01*
X150491971Y-67402786D01*
X150347213Y-67258028D01*
X150181613Y-67137715D01*
X150181612Y-67137714D01*
X150181610Y-67137713D01*
X150124653Y-67108691D01*
X149999223Y-67044781D01*
X149804534Y-66981522D01*
X149629995Y-66953878D01*
X149602352Y-66949500D01*
X149397648Y-66949500D01*
X149373329Y-66953351D01*
X149195465Y-66981522D01*
X149000776Y-67044781D01*
X148818386Y-67137715D01*
X148652786Y-67258028D01*
X148508028Y-67402786D01*
X148387715Y-67568386D01*
X148294781Y-67750776D01*
X148231522Y-67945465D01*
X148199500Y-68147648D01*
X143261128Y-68147648D01*
X143095185Y-68063096D01*
X142863076Y-67987679D01*
X142863074Y-67987678D01*
X142863072Y-67987678D01*
X142694769Y-67961021D01*
X142622027Y-67949500D01*
X142377973Y-67949500D01*
X142322093Y-67958350D01*
X142136927Y-67987678D01*
X141904812Y-68063097D01*
X141687357Y-68173896D01*
X141489923Y-68317339D01*
X141489918Y-68317343D01*
X141317343Y-68489918D01*
X141317339Y-68489923D01*
X141173896Y-68687357D01*
X141063097Y-68904812D01*
X141063096Y-68904814D01*
X141063096Y-68904815D01*
X141045323Y-68959515D01*
X140987678Y-69136927D01*
X140952977Y-69356018D01*
X140949500Y-69377973D01*
X105619617Y-69377973D01*
X105625500Y-69356018D01*
X105625500Y-69243982D01*
X105596503Y-69135763D01*
X105540485Y-69038737D01*
X105461263Y-68959515D01*
X105364237Y-68903497D01*
X105256018Y-68874500D01*
X105143982Y-68874500D01*
X105035763Y-68903497D01*
X105035760Y-68903498D01*
X104938740Y-68959513D01*
X104938734Y-68959517D01*
X104859517Y-69038734D01*
X104859513Y-69038740D01*
X104803498Y-69135760D01*
X104803497Y-69135763D01*
X104774500Y-69243982D01*
X86029278Y-69243982D01*
X86012321Y-69136927D01*
X86012321Y-69136924D01*
X85936904Y-68904815D01*
X85826106Y-68687361D01*
X85729602Y-68554534D01*
X85682660Y-68489923D01*
X85682656Y-68489918D01*
X85510081Y-68317343D01*
X85510076Y-68317339D01*
X85312642Y-68173896D01*
X85312641Y-68173895D01*
X85312639Y-68173894D01*
X85095185Y-68063096D01*
X84863076Y-67987679D01*
X84863074Y-67987678D01*
X84863072Y-67987678D01*
X84694769Y-67961021D01*
X84622027Y-67949500D01*
X84377973Y-67949500D01*
X84322093Y-67958350D01*
X84136927Y-67987678D01*
X83904812Y-68063097D01*
X83687357Y-68173896D01*
X83489923Y-68317339D01*
X83489918Y-68317343D01*
X83317343Y-68489918D01*
X83317339Y-68489923D01*
X83173896Y-68687357D01*
X83063097Y-68904812D01*
X83063096Y-68904814D01*
X83063096Y-68904815D01*
X83045323Y-68959515D01*
X82987678Y-69136927D01*
X82952977Y-69356018D01*
X82949500Y-69377973D01*
X78150825Y-69377973D01*
X78181610Y-69362287D01*
X78238697Y-69320811D01*
X78304804Y-69272783D01*
X78347213Y-69241971D01*
X78347215Y-69241968D01*
X78347219Y-69241966D01*
X78491966Y-69097219D01*
X78491968Y-69097215D01*
X78491971Y-69097213D01*
X78544732Y-69024590D01*
X78612287Y-68931610D01*
X78705220Y-68749219D01*
X78768477Y-68554534D01*
X78800500Y-68352352D01*
X78800500Y-68147648D01*
X78769116Y-67949500D01*
X78768477Y-67945465D01*
X78720841Y-67798859D01*
X78705220Y-67750781D01*
X78705218Y-67750778D01*
X78705218Y-67750776D01*
X78663578Y-67669054D01*
X78612287Y-67568390D01*
X78573339Y-67514782D01*
X78491971Y-67402786D01*
X78347219Y-67258034D01*
X78320655Y-67238734D01*
X78181610Y-67137713D01*
X78148511Y-67120848D01*
X77999223Y-67044781D01*
X77996764Y-67043982D01*
X114974500Y-67043982D01*
X114974500Y-67156018D01*
X115003497Y-67264237D01*
X115059515Y-67361263D01*
X115138737Y-67440485D01*
X115235763Y-67496503D01*
X115343982Y-67525500D01*
X115343984Y-67525500D01*
X115456016Y-67525500D01*
X115456018Y-67525500D01*
X115564237Y-67496503D01*
X115625153Y-67461333D01*
X123257149Y-67461333D01*
X123257149Y-67573369D01*
X123286146Y-67681588D01*
X123342164Y-67778614D01*
X123421386Y-67857836D01*
X123518412Y-67913854D01*
X123626631Y-67942851D01*
X123626639Y-67942851D01*
X123634691Y-67943912D01*
X123634432Y-67945873D01*
X123691180Y-67962536D01*
X123736935Y-68015340D01*
X123748141Y-68066851D01*
X123748141Y-68070341D01*
X123748141Y-68182377D01*
X123777138Y-68290596D01*
X123833156Y-68387622D01*
X123912378Y-68466844D01*
X124009404Y-68522862D01*
X124117623Y-68551859D01*
X124117625Y-68551859D01*
X124229657Y-68551859D01*
X124229659Y-68551859D01*
X124262712Y-68543002D01*
X124286652Y-68540978D01*
X124428362Y-68500115D01*
X124437227Y-68497340D01*
X124438227Y-68497002D01*
X124446936Y-68493838D01*
X124459194Y-68489068D01*
X124498468Y-68476246D01*
X124509619Y-68472607D01*
X124537123Y-68466972D01*
X124626845Y-68458999D01*
X124630123Y-68458116D01*
X124662338Y-68453859D01*
X130545008Y-68453859D01*
X130556309Y-68454375D01*
X130565934Y-68455255D01*
X130581420Y-68459158D01*
X130642044Y-68462221D01*
X130644564Y-68462452D01*
X130645443Y-68462800D01*
X130656288Y-68464092D01*
X130675823Y-68467785D01*
X130693608Y-68472537D01*
X130740430Y-68488861D01*
X130741752Y-68489332D01*
X130810067Y-68514152D01*
X130819767Y-68517405D01*
X130820881Y-68517748D01*
X130830750Y-68520519D01*
X130919962Y-68543185D01*
X130924943Y-68544385D01*
X130925492Y-68544510D01*
X130926444Y-68544525D01*
X130928686Y-68544561D01*
X130958815Y-68548771D01*
X130970337Y-68551858D01*
X130970341Y-68551859D01*
X131082375Y-68551859D01*
X131082377Y-68551859D01*
X131190596Y-68522862D01*
X131287622Y-68466844D01*
X131366844Y-68387622D01*
X131422862Y-68290596D01*
X131451859Y-68182377D01*
X131451859Y-68070341D01*
X131422862Y-67962122D01*
X131366844Y-67865096D01*
X131287622Y-67785874D01*
X131190596Y-67729856D01*
X131082377Y-67700859D01*
X130970341Y-67700859D01*
X130970338Y-67700859D01*
X130948386Y-67706741D01*
X130948317Y-67706759D01*
X130937292Y-67709714D01*
X130913347Y-67711739D01*
X130771614Y-67752608D01*
X130762827Y-67755356D01*
X130761879Y-67755676D01*
X130753087Y-67758869D01*
X130740817Y-67763643D01*
X130734822Y-67765599D01*
X130734793Y-67765608D01*
X130690373Y-67780109D01*
X130662870Y-67785744D01*
X130573163Y-67793716D01*
X130573148Y-67793719D01*
X130569876Y-67794600D01*
X130537657Y-67798859D01*
X128322031Y-67798859D01*
X128254992Y-67779174D01*
X128209237Y-67726370D01*
X128199293Y-67657212D01*
X128202256Y-67642766D01*
X128225500Y-67556018D01*
X128225500Y-67443982D01*
X128196503Y-67335763D01*
X128140485Y-67238737D01*
X128061263Y-67159515D01*
X127964237Y-67103497D01*
X127856018Y-67074500D01*
X127743982Y-67074500D01*
X127743979Y-67074500D01*
X127722027Y-67080382D01*
X127721958Y-67080400D01*
X127710933Y-67083355D01*
X127686988Y-67085380D01*
X127545255Y-67126249D01*
X127536468Y-67128997D01*
X127535520Y-67129317D01*
X127526728Y-67132510D01*
X127514458Y-67137284D01*
X127508463Y-67139240D01*
X127508434Y-67139249D01*
X127464014Y-67153750D01*
X127436511Y-67159385D01*
X127346804Y-67167357D01*
X127346789Y-67167360D01*
X127343517Y-67168241D01*
X127311298Y-67172500D01*
X124162713Y-67172500D01*
X124152843Y-67172107D01*
X124142906Y-67171313D01*
X124126135Y-67167206D01*
X124049309Y-67163839D01*
X124047097Y-67163663D01*
X124046352Y-67163378D01*
X124035888Y-67162251D01*
X124000509Y-67156148D01*
X123987252Y-67153104D01*
X123978551Y-67150597D01*
X123943899Y-67140610D01*
X123941401Y-67139907D01*
X123941303Y-67139880D01*
X123938085Y-67139022D01*
X123789845Y-67100775D01*
X123784350Y-67099437D01*
X123783811Y-67099314D01*
X123780631Y-67099261D01*
X123750625Y-67095054D01*
X123738672Y-67091851D01*
X123738667Y-67091851D01*
X123626631Y-67091851D01*
X123518412Y-67120848D01*
X123518409Y-67120849D01*
X123421389Y-67176864D01*
X123421383Y-67176868D01*
X123342166Y-67256085D01*
X123342162Y-67256091D01*
X123286147Y-67353111D01*
X123286146Y-67353114D01*
X123257149Y-67461333D01*
X115625153Y-67461333D01*
X115661263Y-67440485D01*
X115740485Y-67361263D01*
X115796503Y-67264237D01*
X115825500Y-67156018D01*
X115825500Y-67043982D01*
X115796503Y-66935763D01*
X115740485Y-66838737D01*
X115661263Y-66759515D01*
X115564237Y-66703497D01*
X115456018Y-66674500D01*
X115343982Y-66674500D01*
X115235763Y-66703497D01*
X115235760Y-66703498D01*
X115138740Y-66759513D01*
X115138734Y-66759517D01*
X115059517Y-66838734D01*
X115059513Y-66838740D01*
X115003498Y-66935760D01*
X115003497Y-66935763D01*
X114974500Y-67043982D01*
X77996764Y-67043982D01*
X77804534Y-66981522D01*
X77629995Y-66953878D01*
X77602352Y-66949500D01*
X77397648Y-66949500D01*
X77373329Y-66953351D01*
X77195465Y-66981522D01*
X77000776Y-67044781D01*
X76818386Y-67137715D01*
X76652786Y-67258028D01*
X76508028Y-67402786D01*
X76387715Y-67568386D01*
X76294781Y-67750776D01*
X76231522Y-67945465D01*
X76199500Y-68147648D01*
X73705529Y-68147648D01*
X73706067Y-68136691D01*
X73706067Y-68136690D01*
X73715537Y-67943912D01*
X73718497Y-67883659D01*
X73719690Y-67871555D01*
X73721725Y-67857836D01*
X73772614Y-67514765D01*
X73774981Y-67502863D01*
X73862631Y-67152947D01*
X73866152Y-67141341D01*
X73987672Y-66801717D01*
X73992314Y-66790509D01*
X74146547Y-66464409D01*
X74152262Y-66453717D01*
X74241957Y-66304071D01*
X105299499Y-66304071D01*
X105324497Y-66429738D01*
X105324499Y-66429744D01*
X105373533Y-66548124D01*
X105373538Y-66548133D01*
X105444723Y-66654668D01*
X105444726Y-66654672D01*
X105535327Y-66745273D01*
X105535331Y-66745276D01*
X105641866Y-66816461D01*
X105641872Y-66816464D01*
X105641873Y-66816465D01*
X105760256Y-66865501D01*
X105760260Y-66865501D01*
X105760261Y-66865502D01*
X105885928Y-66890500D01*
X105885931Y-66890500D01*
X106014071Y-66890500D01*
X106098615Y-66873682D01*
X106139744Y-66865501D01*
X106258127Y-66816465D01*
X106364669Y-66745276D01*
X106455276Y-66654669D01*
X106526465Y-66548127D01*
X106575501Y-66429744D01*
X106600500Y-66304071D01*
X108299499Y-66304071D01*
X108324497Y-66429738D01*
X108324499Y-66429744D01*
X108373533Y-66548124D01*
X108373538Y-66548133D01*
X108444723Y-66654668D01*
X108444726Y-66654672D01*
X108535327Y-66745273D01*
X108535331Y-66745276D01*
X108641866Y-66816461D01*
X108641872Y-66816464D01*
X108641873Y-66816465D01*
X108760256Y-66865501D01*
X108760260Y-66865501D01*
X108760261Y-66865502D01*
X108885928Y-66890500D01*
X108885931Y-66890500D01*
X109014071Y-66890500D01*
X109098615Y-66873682D01*
X109139744Y-66865501D01*
X109258127Y-66816465D01*
X109364669Y-66745276D01*
X109455276Y-66654669D01*
X109526465Y-66548127D01*
X109575501Y-66429744D01*
X109600500Y-66304069D01*
X109600500Y-66175931D01*
X109600500Y-66175928D01*
X109575502Y-66050261D01*
X109575501Y-66050260D01*
X109575501Y-66050256D01*
X109526465Y-65931873D01*
X109526464Y-65931872D01*
X109526461Y-65931866D01*
X109455276Y-65825331D01*
X109455273Y-65825327D01*
X109364672Y-65734726D01*
X109364668Y-65734723D01*
X109258133Y-65663538D01*
X109258124Y-65663533D01*
X109139744Y-65614499D01*
X109139738Y-65614497D01*
X109014071Y-65589500D01*
X109014069Y-65589500D01*
X108885931Y-65589500D01*
X108885929Y-65589500D01*
X108760261Y-65614497D01*
X108760255Y-65614499D01*
X108641875Y-65663533D01*
X108641866Y-65663538D01*
X108535331Y-65734723D01*
X108535327Y-65734726D01*
X108444726Y-65825327D01*
X108444723Y-65825331D01*
X108373538Y-65931866D01*
X108373533Y-65931875D01*
X108324499Y-66050255D01*
X108324497Y-66050261D01*
X108299500Y-66175928D01*
X108299500Y-66175931D01*
X108299500Y-66304069D01*
X108299500Y-66304071D01*
X108299499Y-66304071D01*
X106600500Y-66304071D01*
X106600500Y-66304069D01*
X106600500Y-66175931D01*
X106600500Y-66175928D01*
X106575502Y-66050261D01*
X106575501Y-66050260D01*
X106575501Y-66050256D01*
X106526465Y-65931873D01*
X106526464Y-65931872D01*
X106526461Y-65931866D01*
X106455276Y-65825331D01*
X106455273Y-65825327D01*
X106364672Y-65734726D01*
X106364668Y-65734723D01*
X106258133Y-65663538D01*
X106258124Y-65663533D01*
X106139744Y-65614499D01*
X106139738Y-65614497D01*
X106014071Y-65589500D01*
X106014069Y-65589500D01*
X105885931Y-65589500D01*
X105885929Y-65589500D01*
X105760261Y-65614497D01*
X105760255Y-65614499D01*
X105641875Y-65663533D01*
X105641866Y-65663538D01*
X105535331Y-65734723D01*
X105535327Y-65734726D01*
X105444726Y-65825327D01*
X105444723Y-65825331D01*
X105373538Y-65931866D01*
X105373533Y-65931875D01*
X105324499Y-66050255D01*
X105324497Y-66050261D01*
X105299500Y-66175928D01*
X105299500Y-66175931D01*
X105299500Y-66304069D01*
X105299500Y-66304071D01*
X105299499Y-66304071D01*
X74241957Y-66304071D01*
X74337704Y-66144327D01*
X74344456Y-66134223D01*
X74372824Y-66095973D01*
X74559329Y-65844500D01*
X74567032Y-65835115D01*
X74809273Y-65567843D01*
X74817843Y-65559273D01*
X75085115Y-65317032D01*
X75094500Y-65309329D01*
X75384234Y-65094447D01*
X75394327Y-65087704D01*
X75703717Y-64902262D01*
X75714409Y-64896547D01*
X76040509Y-64742314D01*
X76051717Y-64737672D01*
X76391341Y-64616152D01*
X76402947Y-64612631D01*
X76752863Y-64524981D01*
X76764765Y-64522614D01*
X77121561Y-64469689D01*
X77133659Y-64468497D01*
X77442885Y-64453305D01*
X77496968Y-64450649D01*
X77503052Y-64450500D01*
X77539882Y-64450500D01*
X149460118Y-64450500D01*
X149496948Y-64450500D01*
X149503032Y-64450649D01*
G37*
%TD.AperFunction*%
%TA.AperFunction,Conductor*%
G36*
X108411515Y-105341959D02*
G01*
X108448132Y-105354772D01*
X108449131Y-105355300D01*
X108449717Y-105355338D01*
X108480809Y-105372042D01*
X108510157Y-105393701D01*
X108536295Y-105419838D01*
X108557957Y-105449189D01*
X108575227Y-105481866D01*
X108588041Y-105518485D01*
X108595000Y-105559439D01*
X108595000Y-107050559D01*
X108594305Y-107054648D01*
X108594839Y-107056882D01*
X108588041Y-107091515D01*
X108575228Y-107128131D01*
X108557959Y-107160806D01*
X108536298Y-107190157D01*
X108510157Y-107216298D01*
X108480806Y-107237959D01*
X108448132Y-107255227D01*
X108411512Y-107268041D01*
X108370560Y-107275000D01*
X107129442Y-107275000D01*
X107125352Y-107274305D01*
X107123118Y-107274839D01*
X107088485Y-107268041D01*
X107051864Y-107255226D01*
X107019189Y-107237956D01*
X106989840Y-107216296D01*
X106963701Y-107190157D01*
X106942042Y-107160809D01*
X106924771Y-107128131D01*
X106911958Y-107091513D01*
X106905000Y-107050559D01*
X106905000Y-105559437D01*
X106905694Y-105555350D01*
X106905161Y-105553119D01*
X106911957Y-105518486D01*
X106924772Y-105481860D01*
X106942038Y-105449192D01*
X106963708Y-105419830D01*
X106989830Y-105393708D01*
X107019192Y-105372038D01*
X107051863Y-105354771D01*
X107088482Y-105341959D01*
X107088488Y-105341957D01*
X107129438Y-105335000D01*
X108370560Y-105335000D01*
X108411515Y-105341959D01*
G37*
%TD.AperFunction*%
%TA.AperFunction,Conductor*%
G36*
X100092095Y-98306061D02*
G01*
X100341762Y-98338929D01*
X100357653Y-98342090D01*
X100600922Y-98407274D01*
X100616259Y-98412480D01*
X100848905Y-98508844D01*
X100863448Y-98516017D01*
X101081535Y-98641928D01*
X101095016Y-98650935D01*
X101095019Y-98650937D01*
X101251534Y-98771035D01*
X101294816Y-98804247D01*
X101306984Y-98814918D01*
X101381360Y-98889293D01*
X101381360Y-98889292D01*
X101439947Y-98947879D01*
X101485055Y-98992987D01*
X101495749Y-99005181D01*
X101649060Y-99204978D01*
X101658072Y-99218465D01*
X101783976Y-99436539D01*
X101791150Y-99451086D01*
X101887515Y-99683731D01*
X101892729Y-99699090D01*
X101907851Y-99755529D01*
X101957907Y-99942339D01*
X101961070Y-99958243D01*
X101987798Y-100161263D01*
X101993939Y-100207904D01*
X101995000Y-100224089D01*
X101995000Y-100475909D01*
X101993939Y-100492094D01*
X101961070Y-100741755D01*
X101957906Y-100757664D01*
X101892729Y-101000908D01*
X101887515Y-101016267D01*
X101791150Y-101248912D01*
X101783976Y-101263459D01*
X101658072Y-101481533D01*
X101649060Y-101495020D01*
X101495749Y-101694817D01*
X101485055Y-101707011D01*
X101307011Y-101885055D01*
X101294817Y-101895749D01*
X101118627Y-102030947D01*
X101118623Y-102030950D01*
X101095020Y-102049060D01*
X101081537Y-102058069D01*
X100863459Y-102183976D01*
X100848913Y-102191150D01*
X100810032Y-102207255D01*
X100776765Y-102221035D01*
X100776764Y-102221035D01*
X100616266Y-102287515D01*
X100600908Y-102292729D01*
X100443449Y-102334920D01*
X100364714Y-102356017D01*
X100357664Y-102357906D01*
X100341755Y-102361070D01*
X100092093Y-102393939D01*
X100075910Y-102395000D01*
X99824091Y-102395000D01*
X99807906Y-102393939D01*
X99558243Y-102361070D01*
X99542339Y-102357907D01*
X99299090Y-102292729D01*
X99283731Y-102287515D01*
X99051086Y-102191150D01*
X99036539Y-102183976D01*
X98886831Y-102097543D01*
X98818461Y-102058069D01*
X98804982Y-102049063D01*
X98615278Y-101903498D01*
X98605191Y-101895758D01*
X98592997Y-101885063D01*
X98414940Y-101707007D01*
X98404246Y-101694813D01*
X98250940Y-101495023D01*
X98241935Y-101481547D01*
X98116020Y-101263455D01*
X98108850Y-101248914D01*
X98012484Y-101016266D01*
X98007270Y-101000907D01*
X97979302Y-100896530D01*
X97942090Y-100757653D01*
X97938929Y-100741762D01*
X97906061Y-100492094D01*
X97905000Y-100475910D01*
X97905000Y-100224088D01*
X97906061Y-100207903D01*
X97911324Y-100167928D01*
X97938930Y-99958233D01*
X97942090Y-99942345D01*
X98007274Y-99699075D01*
X98012478Y-99683743D01*
X98108847Y-99451086D01*
X98116017Y-99436549D01*
X98157766Y-99364237D01*
X98241933Y-99218453D01*
X98250929Y-99204988D01*
X98404248Y-99005179D01*
X98414929Y-98993001D01*
X98593001Y-98814929D01*
X98605179Y-98804248D01*
X98804988Y-98650929D01*
X98818453Y-98641933D01*
X99036549Y-98516017D01*
X99051086Y-98508847D01*
X99283743Y-98412478D01*
X99299075Y-98407274D01*
X99542345Y-98342090D01*
X99558233Y-98338930D01*
X99807904Y-98306061D01*
X99824089Y-98305000D01*
X100075910Y-98305000D01*
X100092095Y-98306061D01*
G37*
%TD.AperFunction*%
%TD*%
%TA.AperFunction,Conductor*%
%TO.N,+BATT*%
G36*
X113859191Y-97818907D02*
G01*
X113895155Y-97868407D01*
X113900000Y-97899000D01*
X113900000Y-115950500D01*
X113881093Y-116008691D01*
X113831593Y-116044655D01*
X113801000Y-116049500D01*
X88199000Y-116049500D01*
X88140809Y-116030593D01*
X88104845Y-115981093D01*
X88100000Y-115950500D01*
X88100000Y-105330253D01*
X88949500Y-105330253D01*
X88949500Y-107369746D01*
X88949501Y-107369758D01*
X88961132Y-107428227D01*
X88961134Y-107428233D01*
X89005445Y-107494548D01*
X89005448Y-107494552D01*
X89071769Y-107538867D01*
X89116231Y-107547711D01*
X89130241Y-107550498D01*
X89130246Y-107550498D01*
X89130252Y-107550500D01*
X89130253Y-107550500D01*
X90069747Y-107550500D01*
X90069748Y-107550500D01*
X90128231Y-107538867D01*
X90194552Y-107494552D01*
X90238867Y-107428231D01*
X90250500Y-107369748D01*
X90250500Y-105330253D01*
X102449500Y-105330253D01*
X102449500Y-107369746D01*
X102449501Y-107369758D01*
X102461132Y-107428227D01*
X102461134Y-107428233D01*
X102505445Y-107494548D01*
X102505448Y-107494552D01*
X102571769Y-107538867D01*
X102616231Y-107547711D01*
X102630241Y-107550498D01*
X102630246Y-107550498D01*
X102630252Y-107550500D01*
X102630253Y-107550500D01*
X103569747Y-107550500D01*
X103569748Y-107550500D01*
X103628231Y-107538867D01*
X103694552Y-107494552D01*
X103738867Y-107428231D01*
X103750500Y-107369748D01*
X103750500Y-105525725D01*
X106699500Y-105525725D01*
X106699500Y-107084274D01*
X106702353Y-107114694D01*
X106702355Y-107114703D01*
X106747207Y-107242883D01*
X106827845Y-107352144D01*
X106827847Y-107352146D01*
X106827850Y-107352150D01*
X106827853Y-107352152D01*
X106827855Y-107352154D01*
X106937116Y-107432792D01*
X106937117Y-107432792D01*
X106937118Y-107432793D01*
X107065301Y-107477646D01*
X107095725Y-107480499D01*
X107095727Y-107480500D01*
X107095734Y-107480500D01*
X108404273Y-107480500D01*
X108404273Y-107480499D01*
X108434699Y-107477646D01*
X108562882Y-107432793D01*
X108672150Y-107352150D01*
X108752793Y-107242882D01*
X108797646Y-107114699D01*
X108800499Y-107084273D01*
X108800500Y-107084273D01*
X108800500Y-106076532D01*
X109199500Y-106076532D01*
X109199500Y-106533467D01*
X109239869Y-106736418D01*
X109319058Y-106927597D01*
X109434020Y-107099651D01*
X109434023Y-107099655D01*
X109580345Y-107245977D01*
X109752402Y-107360941D01*
X109943580Y-107440130D01*
X110146535Y-107480500D01*
X110146536Y-107480500D01*
X110353464Y-107480500D01*
X110353465Y-107480500D01*
X110556420Y-107440130D01*
X110747598Y-107360941D01*
X110919655Y-107245977D01*
X111065977Y-107099655D01*
X111180941Y-106927598D01*
X111260130Y-106736420D01*
X111300500Y-106533465D01*
X111300500Y-106076535D01*
X111260130Y-105873580D01*
X111180941Y-105682402D01*
X111065977Y-105510345D01*
X110919655Y-105364023D01*
X110919651Y-105364020D01*
X110747597Y-105249058D01*
X110556418Y-105169869D01*
X110353467Y-105129500D01*
X110353465Y-105129500D01*
X110146535Y-105129500D01*
X110146532Y-105129500D01*
X109943581Y-105169869D01*
X109752402Y-105249058D01*
X109580348Y-105364020D01*
X109434020Y-105510348D01*
X109319058Y-105682402D01*
X109239869Y-105873581D01*
X109199500Y-106076532D01*
X108800500Y-106076532D01*
X108800500Y-105525727D01*
X108800499Y-105525725D01*
X108797646Y-105495305D01*
X108797646Y-105495301D01*
X108752793Y-105367118D01*
X108682420Y-105271766D01*
X108672154Y-105257855D01*
X108672152Y-105257853D01*
X108672150Y-105257850D01*
X108672146Y-105257847D01*
X108672144Y-105257845D01*
X108562883Y-105177207D01*
X108434703Y-105132355D01*
X108434694Y-105132353D01*
X108404274Y-105129500D01*
X108404266Y-105129500D01*
X107095734Y-105129500D01*
X107095725Y-105129500D01*
X107065305Y-105132353D01*
X107065296Y-105132355D01*
X106937116Y-105177207D01*
X106827855Y-105257845D01*
X106827845Y-105257855D01*
X106747207Y-105367116D01*
X106702355Y-105495296D01*
X106702353Y-105495305D01*
X106699500Y-105525725D01*
X103750500Y-105525725D01*
X103750500Y-105330252D01*
X103738867Y-105271769D01*
X103694552Y-105205448D01*
X103694548Y-105205445D01*
X103628233Y-105161134D01*
X103628231Y-105161133D01*
X103628228Y-105161132D01*
X103628227Y-105161132D01*
X103569758Y-105149501D01*
X103569748Y-105149500D01*
X102630252Y-105149500D01*
X102630251Y-105149500D01*
X102630241Y-105149501D01*
X102571772Y-105161132D01*
X102571766Y-105161134D01*
X102505451Y-105205445D01*
X102505445Y-105205451D01*
X102461134Y-105271766D01*
X102461132Y-105271772D01*
X102449501Y-105330241D01*
X102449500Y-105330253D01*
X90250500Y-105330253D01*
X90250500Y-105330252D01*
X90238867Y-105271769D01*
X90194552Y-105205448D01*
X90194548Y-105205445D01*
X90128233Y-105161134D01*
X90128231Y-105161133D01*
X90128228Y-105161132D01*
X90128227Y-105161132D01*
X90069758Y-105149501D01*
X90069748Y-105149500D01*
X89130252Y-105149500D01*
X89130251Y-105149500D01*
X89130241Y-105149501D01*
X89071772Y-105161132D01*
X89071766Y-105161134D01*
X89005451Y-105205445D01*
X89005445Y-105205451D01*
X88961134Y-105271766D01*
X88961132Y-105271772D01*
X88949501Y-105330241D01*
X88949500Y-105330253D01*
X88100000Y-105330253D01*
X88100000Y-100202494D01*
X97699500Y-100202494D01*
X97699500Y-100497506D01*
X97738007Y-100789993D01*
X97796470Y-101008183D01*
X97814361Y-101074953D01*
X97927253Y-101347499D01*
X97927255Y-101347503D01*
X97927257Y-101347507D01*
X98074762Y-101602994D01*
X98074764Y-101602997D01*
X98254348Y-101837035D01*
X98254350Y-101837037D01*
X98254354Y-101837042D01*
X98462958Y-102045646D01*
X98462962Y-102045649D01*
X98462964Y-102045651D01*
X98656274Y-102193983D01*
X98697006Y-102225238D01*
X98952493Y-102372743D01*
X99225048Y-102485639D01*
X99510007Y-102561993D01*
X99802494Y-102600500D01*
X99802495Y-102600500D01*
X100097505Y-102600500D01*
X100097506Y-102600500D01*
X100389993Y-102561993D01*
X100674952Y-102485639D01*
X100947507Y-102372743D01*
X101202994Y-102225238D01*
X101243727Y-102193982D01*
X112724500Y-102193982D01*
X112724500Y-102306018D01*
X112742379Y-102372743D01*
X112753498Y-102414241D01*
X112809513Y-102511260D01*
X112809515Y-102511263D01*
X112888737Y-102590485D01*
X112921079Y-102609157D01*
X112985759Y-102646501D01*
X112985757Y-102646501D01*
X112985761Y-102646502D01*
X112985763Y-102646503D01*
X113093982Y-102675500D01*
X113093984Y-102675500D01*
X113206016Y-102675500D01*
X113206018Y-102675500D01*
X113314237Y-102646503D01*
X113314239Y-102646501D01*
X113314241Y-102646501D01*
X113343064Y-102629859D01*
X113411263Y-102590485D01*
X113490485Y-102511263D01*
X113546503Y-102414237D01*
X113575500Y-102306018D01*
X113575500Y-102193982D01*
X113546503Y-102085763D01*
X113546501Y-102085760D01*
X113546501Y-102085758D01*
X113490486Y-101988739D01*
X113490485Y-101988737D01*
X113411263Y-101909515D01*
X113411260Y-101909513D01*
X113314240Y-101853498D01*
X113314242Y-101853498D01*
X113272251Y-101842247D01*
X113206018Y-101824500D01*
X113093982Y-101824500D01*
X113027748Y-101842247D01*
X112985758Y-101853498D01*
X112888739Y-101909513D01*
X112809513Y-101988739D01*
X112753498Y-102085758D01*
X112753497Y-102085763D01*
X112724500Y-102193982D01*
X101243727Y-102193982D01*
X101437042Y-102045646D01*
X101645646Y-101837042D01*
X101825238Y-101602994D01*
X101972743Y-101347507D01*
X102085639Y-101074952D01*
X102161993Y-100789993D01*
X102200500Y-100497506D01*
X102200500Y-100202494D01*
X102161993Y-99910007D01*
X102085639Y-99625048D01*
X101972743Y-99352493D01*
X101825238Y-99097006D01*
X101797809Y-99061260D01*
X101645651Y-98862964D01*
X101645649Y-98862962D01*
X101645646Y-98862958D01*
X101526670Y-98743982D01*
X112724500Y-98743982D01*
X112724500Y-98856018D01*
X112750072Y-98951455D01*
X112753498Y-98964241D01*
X112809513Y-99061260D01*
X112809515Y-99061263D01*
X112888737Y-99140485D01*
X112888739Y-99140486D01*
X112985759Y-99196501D01*
X112985757Y-99196501D01*
X112985761Y-99196502D01*
X112985763Y-99196503D01*
X113093982Y-99225500D01*
X113093984Y-99225500D01*
X113206016Y-99225500D01*
X113206018Y-99225500D01*
X113314237Y-99196503D01*
X113314239Y-99196501D01*
X113314241Y-99196501D01*
X113343064Y-99179859D01*
X113411263Y-99140485D01*
X113490485Y-99061263D01*
X113546503Y-98964237D01*
X113575500Y-98856018D01*
X113575500Y-98743982D01*
X113546503Y-98635763D01*
X113546501Y-98635760D01*
X113546501Y-98635758D01*
X113490486Y-98538739D01*
X113490485Y-98538737D01*
X113411263Y-98459515D01*
X113411260Y-98459513D01*
X113314240Y-98403498D01*
X113314242Y-98403498D01*
X113272251Y-98392247D01*
X113206018Y-98374500D01*
X113093982Y-98374500D01*
X113027748Y-98392247D01*
X112985758Y-98403498D01*
X112888739Y-98459513D01*
X112809513Y-98538739D01*
X112753498Y-98635758D01*
X112737286Y-98696263D01*
X112724500Y-98743982D01*
X101526670Y-98743982D01*
X101437042Y-98654354D01*
X101437037Y-98654350D01*
X101437035Y-98654348D01*
X101202997Y-98474764D01*
X101176585Y-98459515D01*
X100947507Y-98327257D01*
X100947503Y-98327255D01*
X100947499Y-98327253D01*
X100674953Y-98214361D01*
X100608183Y-98196470D01*
X100389993Y-98138007D01*
X100389986Y-98138006D01*
X100097506Y-98099500D01*
X99802494Y-98099500D01*
X99802493Y-98099500D01*
X99510013Y-98138006D01*
X99510011Y-98138006D01*
X99510007Y-98138007D01*
X99358584Y-98178580D01*
X99225046Y-98214361D01*
X98952500Y-98327253D01*
X98697002Y-98474764D01*
X98462964Y-98654348D01*
X98254348Y-98862964D01*
X98074764Y-99097002D01*
X97927253Y-99352500D01*
X97814361Y-99625046D01*
X97778580Y-99758584D01*
X97738007Y-99910007D01*
X97699500Y-100202494D01*
X88100000Y-100202494D01*
X88100000Y-97899000D01*
X88118907Y-97840809D01*
X88168407Y-97804845D01*
X88199000Y-97800000D01*
X113801000Y-97800000D01*
X113859191Y-97818907D01*
G37*
%TD.AperFunction*%
%TD*%
%TA.AperFunction,Conductor*%
%TO.N,/NSLEEP2*%
G36*
X101133203Y-90302922D02*
G01*
X101297372Y-90467091D01*
X101300799Y-90475364D01*
X101298072Y-90482872D01*
X101216175Y-90580742D01*
X101216172Y-90580747D01*
X101172578Y-90666600D01*
X101172565Y-90666627D01*
X101164989Y-90683855D01*
X101164521Y-90684802D01*
X101093209Y-90813907D01*
X101086209Y-90819492D01*
X101077310Y-90818492D01*
X101076519Y-90818012D01*
X100901277Y-90702020D01*
X100897979Y-90698722D01*
X100888765Y-90684802D01*
X100781773Y-90523156D01*
X100780064Y-90514365D01*
X100785071Y-90506942D01*
X100785515Y-90506662D01*
X100864672Y-90459578D01*
X100865671Y-90459050D01*
X100933389Y-90427425D01*
X101001949Y-90394313D01*
X101057235Y-90356608D01*
X101117086Y-90302514D01*
X101125520Y-90299510D01*
X101133203Y-90302922D01*
G37*
%TD.AperFunction*%
%TD*%
%TA.AperFunction,Conductor*%
%TO.N,/NSLEEP2*%
G36*
X109022688Y-83181508D02*
G01*
X109023484Y-83181990D01*
X109198722Y-83297979D01*
X109202020Y-83301277D01*
X109318226Y-83476843D01*
X109319935Y-83485634D01*
X109314928Y-83493057D01*
X109314451Y-83493357D01*
X109235342Y-83540411D01*
X109234312Y-83540956D01*
X109166616Y-83572570D01*
X109098047Y-83605687D01*
X109098043Y-83605689D01*
X109042763Y-83643393D01*
X108982914Y-83697484D01*
X108974478Y-83700489D01*
X108966796Y-83697077D01*
X108802627Y-83532908D01*
X108799200Y-83524635D01*
X108801926Y-83517128D01*
X108883824Y-83419255D01*
X108927425Y-83333389D01*
X108935020Y-83316117D01*
X108935473Y-83315203D01*
X109006790Y-83186091D01*
X109013789Y-83180507D01*
X109022688Y-83181508D01*
G37*
%TD.AperFunction*%
%TD*%
%TA.AperFunction,Conductor*%
%TO.N,/BATT+_IN*%
G36*
X119456215Y-103883076D02*
G01*
X119504657Y-103897836D01*
X119506221Y-103898438D01*
X119555021Y-103921359D01*
X119555019Y-103921362D01*
X119555035Y-103921366D01*
X119581582Y-103933891D01*
X119593016Y-103939286D01*
X119593023Y-103939288D01*
X119615575Y-103942700D01*
X119646775Y-103947421D01*
X119678160Y-103935424D01*
X119705024Y-103913780D01*
X119713615Y-103911259D01*
X119720636Y-103914619D01*
X119884060Y-104078043D01*
X119887487Y-104086316D01*
X119884060Y-104094589D01*
X119883583Y-104095040D01*
X119836394Y-104137212D01*
X119835068Y-104138236D01*
X119788044Y-104169446D01*
X119785901Y-104170568D01*
X119699344Y-104205022D01*
X119698760Y-104205237D01*
X119650097Y-104221668D01*
X119650087Y-104221673D01*
X119534273Y-104282232D01*
X119525354Y-104283029D01*
X119519152Y-104278407D01*
X119402029Y-104104763D01*
X119400244Y-104095987D01*
X119400245Y-104095979D01*
X119441349Y-103891959D01*
X119446342Y-103884528D01*
X119455129Y-103882802D01*
X119456215Y-103883076D01*
G37*
%TD.AperFunction*%
%TD*%
%TA.AperFunction,Conductor*%
%TO.N,/BATT+_IN*%
G36*
X126122688Y-87581508D02*
G01*
X126123484Y-87581990D01*
X126298722Y-87697979D01*
X126302020Y-87701277D01*
X126418226Y-87876843D01*
X126419935Y-87885634D01*
X126414928Y-87893057D01*
X126414451Y-87893357D01*
X126335342Y-87940411D01*
X126334312Y-87940956D01*
X126266616Y-87972570D01*
X126198047Y-88005687D01*
X126198043Y-88005689D01*
X126142763Y-88043393D01*
X126082914Y-88097484D01*
X126074478Y-88100489D01*
X126066796Y-88097077D01*
X125902627Y-87932908D01*
X125899200Y-87924635D01*
X125901926Y-87917128D01*
X125983824Y-87819255D01*
X126027425Y-87733389D01*
X126035020Y-87716117D01*
X126035473Y-87715203D01*
X126106790Y-87586091D01*
X126113789Y-87580507D01*
X126122688Y-87581508D01*
G37*
%TD.AperFunction*%
%TD*%
%TA.AperFunction,Conductor*%
%TO.N,+5V*%
G36*
X146852824Y-94583836D02*
G01*
X146858409Y-94590835D01*
X146858632Y-94591745D01*
X146900525Y-94797668D01*
X146900525Y-94802332D01*
X146858552Y-95008646D01*
X146853545Y-95016070D01*
X146844755Y-95017779D01*
X146844206Y-95017654D01*
X146837971Y-95016070D01*
X146832438Y-95014664D01*
X146754994Y-94994988D01*
X146753880Y-94994645D01*
X146683656Y-94969132D01*
X146611754Y-94944063D01*
X146611744Y-94944060D01*
X146546007Y-94931634D01*
X146546008Y-94931634D01*
X146546002Y-94931633D01*
X146545998Y-94931632D01*
X146545993Y-94931632D01*
X146465432Y-94927561D01*
X146457343Y-94923721D01*
X146454323Y-94915876D01*
X146454323Y-94683706D01*
X146457750Y-94675433D01*
X146464986Y-94672052D01*
X146592103Y-94660756D01*
X146683649Y-94630870D01*
X146701244Y-94624024D01*
X146702192Y-94623704D01*
X146843925Y-94582835D01*
X146852824Y-94583836D01*
G37*
%TD.AperFunction*%
%TD*%
%TA.AperFunction,Conductor*%
%TO.N,+5V*%
G36*
X145055761Y-94582337D02*
G01*
X145145008Y-94605012D01*
X145146117Y-94605353D01*
X145216350Y-94630870D01*
X145288244Y-94655936D01*
X145288249Y-94655937D01*
X145288256Y-94655939D01*
X145318360Y-94661629D01*
X145353999Y-94668367D01*
X145434568Y-94672438D01*
X145442657Y-94676278D01*
X145445677Y-94684123D01*
X145445677Y-94916293D01*
X145442250Y-94924566D01*
X145435013Y-94927947D01*
X145307892Y-94939244D01*
X145216365Y-94969124D01*
X145216334Y-94969135D01*
X145198784Y-94975963D01*
X145197784Y-94976301D01*
X145056074Y-95017164D01*
X145047175Y-95016163D01*
X145041590Y-95009164D01*
X145041370Y-95008269D01*
X144999474Y-94802329D01*
X144999474Y-94797668D01*
X145024951Y-94672438D01*
X145041447Y-94591351D01*
X145046454Y-94583929D01*
X145055244Y-94582220D01*
X145055761Y-94582337D01*
G37*
%TD.AperFunction*%
%TD*%
%TA.AperFunction,Conductor*%
%TO.N,/PI_POWER*%
G36*
X136893057Y-97185071D02*
G01*
X136893357Y-97185548D01*
X136940411Y-97264657D01*
X136940956Y-97265687D01*
X136972571Y-97333383D01*
X137005687Y-97401951D01*
X137005689Y-97401955D01*
X137034890Y-97444769D01*
X137043392Y-97457235D01*
X137070367Y-97487081D01*
X137097484Y-97517085D01*
X137100489Y-97525520D01*
X137097077Y-97533203D01*
X136932908Y-97697372D01*
X136924635Y-97700799D01*
X136917127Y-97698072D01*
X136819256Y-97616175D01*
X136819251Y-97616172D01*
X136733399Y-97572579D01*
X136733372Y-97572566D01*
X136716139Y-97564987D01*
X136715192Y-97564518D01*
X136586092Y-97493208D01*
X136580507Y-97486209D01*
X136581508Y-97477310D01*
X136581976Y-97476536D01*
X136697981Y-97301274D01*
X136701274Y-97297981D01*
X136876844Y-97181772D01*
X136885634Y-97180064D01*
X136893057Y-97185071D01*
G37*
%TD.AperFunction*%
%TD*%
%TA.AperFunction,Conductor*%
%TO.N,/PI_POWER*%
G36*
X139024567Y-110957750D02*
G01*
X139027947Y-110964986D01*
X139034251Y-111035919D01*
X139039244Y-111092107D01*
X139069124Y-111183633D01*
X139069135Y-111183664D01*
X139075963Y-111201214D01*
X139076301Y-111202214D01*
X139117164Y-111343925D01*
X139116163Y-111352824D01*
X139109164Y-111358409D01*
X139108254Y-111358632D01*
X138902332Y-111400525D01*
X138897668Y-111400525D01*
X138691353Y-111358552D01*
X138683929Y-111353545D01*
X138682220Y-111344755D01*
X138682335Y-111344245D01*
X138705013Y-111254984D01*
X138705354Y-111253879D01*
X138730870Y-111183649D01*
X138755936Y-111111756D01*
X138755937Y-111111747D01*
X138755939Y-111111743D01*
X138760158Y-111089419D01*
X138768367Y-111046001D01*
X138772439Y-110965432D01*
X138776279Y-110957343D01*
X138784124Y-110954323D01*
X139016294Y-110954323D01*
X139024567Y-110957750D01*
G37*
%TD.AperFunction*%
%TD*%
%TA.AperFunction,Conductor*%
%TO.N,/SWDIO*%
G36*
X131307559Y-73650398D02*
G01*
X131995010Y-74232298D01*
X131999111Y-74240258D01*
X131996381Y-74248787D01*
X131994040Y-74250896D01*
X131899763Y-74315148D01*
X131828672Y-74384909D01*
X131828672Y-74384910D01*
X131762526Y-74466747D01*
X131762513Y-74466765D01*
X131691256Y-74575642D01*
X131691249Y-74575653D01*
X131627567Y-74694601D01*
X131627566Y-74694605D01*
X131565788Y-74835196D01*
X131565767Y-74835248D01*
X131514595Y-74978771D01*
X131514584Y-74978807D01*
X131446497Y-75253491D01*
X131428029Y-75443101D01*
X131423816Y-75451003D01*
X131416384Y-75453667D01*
X131184374Y-75453667D01*
X131176101Y-75450240D01*
X131172679Y-75442298D01*
X131171687Y-75407217D01*
X131171687Y-75407212D01*
X131169885Y-75390175D01*
X131159074Y-75287949D01*
X131133581Y-75154541D01*
X131051035Y-74879067D01*
X130943429Y-74637590D01*
X130826452Y-74451898D01*
X130708719Y-74322541D01*
X130708709Y-74322532D01*
X130605754Y-74250930D01*
X130600918Y-74243393D01*
X130602829Y-74234645D01*
X130604872Y-74232398D01*
X131292441Y-73650397D01*
X131300970Y-73647668D01*
X131307559Y-73650398D01*
G37*
%TD.AperFunction*%
%TD*%
%TA.AperFunction,Conductor*%
%TO.N,/SWDIO*%
G36*
X137022652Y-80232014D02*
G01*
X137026079Y-80240287D01*
X137026046Y-80241172D01*
X137018974Y-80334426D01*
X137018487Y-80336992D01*
X136996051Y-80409682D01*
X136994747Y-80412504D01*
X136959293Y-80468328D01*
X136958155Y-80469836D01*
X136910175Y-80523720D01*
X136910001Y-80523910D01*
X136890472Y-80544890D01*
X136793758Y-80666599D01*
X136785928Y-80670944D01*
X136778134Y-80669072D01*
X136601970Y-80552306D01*
X136598692Y-80549032D01*
X136482267Y-80373858D01*
X136480542Y-80365073D01*
X136485536Y-80357640D01*
X136486682Y-80356969D01*
X136517932Y-80341059D01*
X136520259Y-80340174D01*
X136562425Y-80329098D01*
X136564634Y-80328741D01*
X136648259Y-80323397D01*
X136713167Y-80319260D01*
X136754571Y-80297183D01*
X136768196Y-80270079D01*
X136771801Y-80238940D01*
X136776156Y-80231117D01*
X136783423Y-80228587D01*
X137014379Y-80228587D01*
X137022652Y-80232014D01*
G37*
%TD.AperFunction*%
%TD*%
%TA.AperFunction,Conductor*%
%TO.N,/SWCLK*%
G36*
X133807559Y-73650398D02*
G01*
X134495010Y-74232298D01*
X134499111Y-74240258D01*
X134496381Y-74248787D01*
X134494040Y-74250896D01*
X134399763Y-74315148D01*
X134328672Y-74384909D01*
X134328672Y-74384910D01*
X134262526Y-74466747D01*
X134262513Y-74466765D01*
X134191256Y-74575642D01*
X134191249Y-74575653D01*
X134127567Y-74694601D01*
X134127566Y-74694605D01*
X134065788Y-74835196D01*
X134065767Y-74835248D01*
X134014595Y-74978771D01*
X134014584Y-74978807D01*
X133946497Y-75253491D01*
X133928029Y-75443101D01*
X133923816Y-75451003D01*
X133916384Y-75453667D01*
X133684374Y-75453667D01*
X133676101Y-75450240D01*
X133672679Y-75442298D01*
X133671687Y-75407217D01*
X133671687Y-75407212D01*
X133669885Y-75390175D01*
X133659074Y-75287949D01*
X133633581Y-75154541D01*
X133551035Y-74879067D01*
X133443429Y-74637590D01*
X133326452Y-74451898D01*
X133208719Y-74322541D01*
X133208709Y-74322532D01*
X133105754Y-74250930D01*
X133100918Y-74243393D01*
X133102829Y-74234645D01*
X133104872Y-74232398D01*
X133792441Y-73650397D01*
X133800970Y-73647668D01*
X133807559Y-73650398D01*
G37*
%TD.AperFunction*%
%TD*%
%TA.AperFunction,Conductor*%
%TO.N,/SWCLK*%
G36*
X134424567Y-77257750D02*
G01*
X134427947Y-77264986D01*
X134434251Y-77335919D01*
X134439244Y-77392107D01*
X134469124Y-77483633D01*
X134469135Y-77483664D01*
X134475963Y-77501214D01*
X134476301Y-77502214D01*
X134517164Y-77643925D01*
X134516163Y-77652824D01*
X134509164Y-77658409D01*
X134508254Y-77658632D01*
X134302332Y-77700525D01*
X134297668Y-77700525D01*
X134091353Y-77658552D01*
X134083929Y-77653545D01*
X134082220Y-77644755D01*
X134082335Y-77644245D01*
X134105013Y-77554984D01*
X134105354Y-77553879D01*
X134130870Y-77483649D01*
X134155936Y-77411756D01*
X134155937Y-77411747D01*
X134155939Y-77411743D01*
X134160158Y-77389419D01*
X134168367Y-77346001D01*
X134172439Y-77265432D01*
X134176279Y-77257343D01*
X134184124Y-77254323D01*
X134416294Y-77254323D01*
X134424567Y-77257750D01*
G37*
%TD.AperFunction*%
%TD*%
%TA.AperFunction,Conductor*%
%TO.N,/SPI1_NSS*%
G36*
X124229402Y-67908696D02*
G01*
X124318649Y-67931371D01*
X124319758Y-67931712D01*
X124389991Y-67957229D01*
X124461885Y-67982295D01*
X124461890Y-67982296D01*
X124461897Y-67982298D01*
X124492001Y-67987988D01*
X124527640Y-67994726D01*
X124608209Y-67998797D01*
X124616298Y-68002637D01*
X124619318Y-68010482D01*
X124619318Y-68242652D01*
X124615891Y-68250925D01*
X124608654Y-68254306D01*
X124481533Y-68265603D01*
X124390006Y-68295483D01*
X124389975Y-68295494D01*
X124372425Y-68302322D01*
X124371425Y-68302660D01*
X124229715Y-68343523D01*
X124220816Y-68342522D01*
X124215231Y-68335523D01*
X124215011Y-68334628D01*
X124173115Y-68128688D01*
X124173115Y-68124027D01*
X124198592Y-67998797D01*
X124215088Y-67917710D01*
X124220095Y-67910288D01*
X124228885Y-67908579D01*
X124229402Y-67908696D01*
G37*
%TD.AperFunction*%
%TD*%
%TA.AperFunction,Conductor*%
%TO.N,/SPI1_NSS*%
G36*
X130979183Y-67910195D02*
G01*
X130984768Y-67917194D01*
X130984991Y-67918104D01*
X131026884Y-68124027D01*
X131026884Y-68128691D01*
X130984911Y-68335005D01*
X130979904Y-68342429D01*
X130971114Y-68344138D01*
X130970565Y-68344013D01*
X130964330Y-68342429D01*
X130958797Y-68341023D01*
X130881353Y-68321347D01*
X130880239Y-68321004D01*
X130810015Y-68295491D01*
X130738113Y-68270422D01*
X130738103Y-68270419D01*
X130672366Y-68257993D01*
X130672367Y-68257993D01*
X130672361Y-68257992D01*
X130672357Y-68257991D01*
X130672352Y-68257991D01*
X130591791Y-68253920D01*
X130583702Y-68250080D01*
X130580682Y-68242235D01*
X130580682Y-68010065D01*
X130584109Y-68001792D01*
X130591345Y-67998411D01*
X130718462Y-67987115D01*
X130810008Y-67957229D01*
X130827603Y-67950383D01*
X130828551Y-67950063D01*
X130970284Y-67909194D01*
X130979183Y-67910195D01*
G37*
%TD.AperFunction*%
%TD*%
%TA.AperFunction,Conductor*%
%TO.N,/SPI1_CLK*%
G36*
X127752824Y-67283836D02*
G01*
X127758409Y-67290835D01*
X127758632Y-67291745D01*
X127800525Y-67497668D01*
X127800525Y-67502332D01*
X127758552Y-67708646D01*
X127753545Y-67716070D01*
X127744755Y-67717779D01*
X127744206Y-67717654D01*
X127737971Y-67716070D01*
X127732438Y-67714664D01*
X127654994Y-67694988D01*
X127653880Y-67694645D01*
X127583656Y-67669132D01*
X127511754Y-67644063D01*
X127511744Y-67644060D01*
X127446007Y-67631634D01*
X127446008Y-67631634D01*
X127446002Y-67631633D01*
X127445998Y-67631632D01*
X127445993Y-67631632D01*
X127365432Y-67627561D01*
X127357343Y-67623721D01*
X127354323Y-67615876D01*
X127354323Y-67383706D01*
X127357750Y-67375433D01*
X127364986Y-67372052D01*
X127492103Y-67360756D01*
X127583649Y-67330870D01*
X127601244Y-67324024D01*
X127602192Y-67323704D01*
X127743925Y-67282835D01*
X127752824Y-67283836D01*
G37*
%TD.AperFunction*%
%TD*%
%TA.AperFunction,Conductor*%
%TO.N,/SPI1_CLK*%
G36*
X123738464Y-67299749D02*
G01*
X123886759Y-67338010D01*
X123886999Y-67338076D01*
X123947739Y-67355581D01*
X124021603Y-67368323D01*
X124117139Y-67372509D01*
X124125253Y-67376295D01*
X124128326Y-67384198D01*
X124128326Y-67616514D01*
X124124899Y-67624787D01*
X124117903Y-67628144D01*
X123993717Y-67641781D01*
X123993716Y-67641781D01*
X123905616Y-67676903D01*
X123905582Y-67676917D01*
X123866879Y-67694877D01*
X123865384Y-67695450D01*
X123738868Y-67734248D01*
X123729954Y-67733397D01*
X123724252Y-67726492D01*
X123723976Y-67725408D01*
X123682123Y-67519680D01*
X123682123Y-67515019D01*
X123724087Y-67308748D01*
X123729094Y-67301325D01*
X123737884Y-67299616D01*
X123738464Y-67299749D01*
G37*
%TD.AperFunction*%
%TD*%
%TA.AperFunction,Conductor*%
%TO.N,/NRST*%
G36*
X127983369Y-73360096D02*
G01*
X128018023Y-73372146D01*
X128794190Y-73642027D01*
X128800878Y-73647981D01*
X128801877Y-73651093D01*
X128962448Y-74584037D01*
X128960475Y-74592772D01*
X128952903Y-74597552D01*
X128947039Y-74597060D01*
X128943723Y-74595894D01*
X128943697Y-74595887D01*
X128857683Y-74574203D01*
X128766219Y-74563123D01*
X128766211Y-74563122D01*
X128655307Y-74562398D01*
X128540588Y-74573369D01*
X128536153Y-74574205D01*
X128412287Y-74597552D01*
X128407724Y-74598412D01*
X128407723Y-74598412D01*
X128275103Y-74634947D01*
X128275103Y-74634948D01*
X128136314Y-74684664D01*
X128004332Y-74742952D01*
X127781095Y-74871007D01*
X127644956Y-74981208D01*
X127636370Y-74983750D01*
X127629322Y-74980387D01*
X127465183Y-74816248D01*
X127461756Y-74807975D01*
X127464926Y-74799967D01*
X127495650Y-74767260D01*
X127572897Y-74670779D01*
X127649596Y-74556633D01*
X127792537Y-74287768D01*
X127899275Y-74009101D01*
X127961503Y-73753385D01*
X127981766Y-73534424D01*
X127981765Y-73534419D01*
X127981766Y-73534416D01*
X127975521Y-73461492D01*
X127967871Y-73372143D01*
X127970579Y-73363611D01*
X127978530Y-73359491D01*
X127983369Y-73360096D01*
G37*
%TD.AperFunction*%
%TD*%
%TA.AperFunction,Conductor*%
%TO.N,/NRST*%
G36*
X126682872Y-82203927D02*
G01*
X126780742Y-82285823D01*
X126780747Y-82285826D01*
X126866598Y-82329419D01*
X126866625Y-82329432D01*
X126874747Y-82333003D01*
X126883872Y-82337017D01*
X126884803Y-82337478D01*
X126955411Y-82376479D01*
X127013907Y-82408790D01*
X127019492Y-82415789D01*
X127018491Y-82424688D01*
X127018006Y-82425489D01*
X126902020Y-82600722D01*
X126898722Y-82604020D01*
X126723156Y-82720226D01*
X126714365Y-82721935D01*
X126706942Y-82716928D01*
X126706651Y-82716466D01*
X126659583Y-82637335D01*
X126659042Y-82636312D01*
X126643348Y-82602707D01*
X126627425Y-82568610D01*
X126594313Y-82500050D01*
X126594311Y-82500047D01*
X126594309Y-82500043D01*
X126573611Y-82469695D01*
X126556608Y-82444765D01*
X126502514Y-82384913D01*
X126499510Y-82376479D01*
X126502921Y-82368797D01*
X126667092Y-82204626D01*
X126675364Y-82201200D01*
X126682872Y-82203927D01*
G37*
%TD.AperFunction*%
%TD*%
%TA.AperFunction,Conductor*%
%TO.N,/USB_D+*%
G36*
X143893057Y-80085071D02*
G01*
X143893357Y-80085548D01*
X143940411Y-80164657D01*
X143940956Y-80165687D01*
X143972571Y-80233383D01*
X144005687Y-80301951D01*
X144005689Y-80301955D01*
X144034890Y-80344769D01*
X144043392Y-80357235D01*
X144070367Y-80387081D01*
X144097484Y-80417085D01*
X144100489Y-80425520D01*
X144097077Y-80433203D01*
X143932908Y-80597372D01*
X143924635Y-80600799D01*
X143917127Y-80598072D01*
X143819256Y-80516175D01*
X143819251Y-80516172D01*
X143733399Y-80472579D01*
X143733372Y-80472566D01*
X143716139Y-80464987D01*
X143715192Y-80464518D01*
X143586092Y-80393208D01*
X143580507Y-80386209D01*
X143581508Y-80377310D01*
X143581976Y-80376536D01*
X143697981Y-80201274D01*
X143701274Y-80197981D01*
X143876844Y-80081772D01*
X143885634Y-80080064D01*
X143893057Y-80085071D01*
G37*
%TD.AperFunction*%
%TD*%
%TA.AperFunction,Conductor*%
%TO.N,/USB_D+*%
G36*
X144557903Y-80877333D02*
G01*
X144606699Y-80920419D01*
X144655931Y-80951663D01*
X144745312Y-80983347D01*
X144803576Y-81000825D01*
X144805555Y-81001622D01*
X144913374Y-81056951D01*
X144919170Y-81063777D01*
X144918441Y-81072702D01*
X144917788Y-81073818D01*
X144802020Y-81248722D01*
X144798722Y-81252020D01*
X144622831Y-81368442D01*
X144614040Y-81370151D01*
X144606617Y-81365144D01*
X144606516Y-81364989D01*
X144541360Y-81263091D01*
X144541289Y-81262979D01*
X144534454Y-81252020D01*
X144519500Y-81228041D01*
X144464139Y-81150897D01*
X144377734Y-81057923D01*
X144374613Y-81049531D01*
X144378031Y-81041687D01*
X144541888Y-80877830D01*
X144550160Y-80874404D01*
X144557903Y-80877333D01*
G37*
%TD.AperFunction*%
%TD*%
M02*
