%TF.GenerationSoftware,KiCad,Pcbnew,9.0.2*%
%TF.CreationDate,2025-12-01T07:49:58-05:00*%
%TF.ProjectId,VolleyBot,566f6c6c-6579-4426-9f74-2e6b69636164,rev?*%
%TF.SameCoordinates,Original*%
%TF.FileFunction,Soldermask,Top*%
%TF.FilePolarity,Negative*%
%FSLAX46Y46*%
G04 Gerber Fmt 4.6, Leading zero omitted, Abs format (unit mm)*
G04 Created by KiCad (PCBNEW 9.0.2) date 2025-12-01 07:49:58*
%MOMM*%
%LPD*%
G01*
G04 APERTURE LIST*
G04 Aperture macros list*
%AMRoundRect*
0 Rectangle with rounded corners*
0 $1 Rounding radius*
0 $2 $3 $4 $5 $6 $7 $8 $9 X,Y pos of 4 corners*
0 Add a 4 corners polygon primitive as box body*
4,1,4,$2,$3,$4,$5,$6,$7,$8,$9,$2,$3,0*
0 Add four circle primitives for the rounded corners*
1,1,$1+$1,$2,$3*
1,1,$1+$1,$4,$5*
1,1,$1+$1,$6,$7*
1,1,$1+$1,$8,$9*
0 Add four rect primitives between the rounded corners*
20,1,$1+$1,$2,$3,$4,$5,0*
20,1,$1+$1,$4,$5,$6,$7,0*
20,1,$1+$1,$6,$7,$8,$9,0*
20,1,$1+$1,$8,$9,$2,$3,0*%
G04 Aperture macros list end*
%ADD10R,2.000000X2.000000*%
%ADD11RoundRect,0.135000X0.135000X0.185000X-0.135000X0.185000X-0.135000X-0.185000X0.135000X-0.185000X0*%
%ADD12RoundRect,0.135000X-0.185000X0.135000X-0.185000X-0.135000X0.185000X-0.135000X0.185000X0.135000X0*%
%ADD13R,5.600000X5.600000*%
%ADD14RoundRect,0.062500X-0.062500X-0.375000X0.062500X-0.375000X0.062500X0.375000X-0.062500X0.375000X0*%
%ADD15RoundRect,0.062500X-0.375000X-0.062500X0.375000X-0.062500X0.375000X0.062500X-0.375000X0.062500X0*%
%ADD16RoundRect,0.087500X-0.225000X0.087500X-0.225000X-0.087500X0.225000X-0.087500X0.225000X0.087500X0*%
%ADD17RoundRect,0.087500X-0.087500X0.225000X-0.087500X-0.225000X0.087500X-0.225000X0.087500X0.225000X0*%
%ADD18RoundRect,0.135000X-0.135000X-0.185000X0.135000X-0.185000X0.135000X0.185000X-0.135000X0.185000X0*%
%ADD19RoundRect,0.225000X-0.250000X0.225000X-0.250000X-0.225000X0.250000X-0.225000X0.250000X0.225000X0*%
%ADD20RoundRect,0.140000X-0.170000X0.140000X-0.170000X-0.140000X0.170000X-0.140000X0.170000X0.140000X0*%
%ADD21RoundRect,0.140000X0.170000X-0.140000X0.170000X0.140000X-0.170000X0.140000X-0.170000X-0.140000X0*%
%ADD22RoundRect,0.250000X0.450000X0.350000X-0.450000X0.350000X-0.450000X-0.350000X0.450000X-0.350000X0*%
%ADD23RoundRect,0.140000X-0.140000X-0.170000X0.140000X-0.170000X0.140000X0.170000X-0.140000X0.170000X0*%
%ADD24RoundRect,0.218750X0.256250X-0.218750X0.256250X0.218750X-0.256250X0.218750X-0.256250X-0.218750X0*%
%ADD25RoundRect,0.225000X0.250000X-0.225000X0.250000X0.225000X-0.250000X0.225000X-0.250000X-0.225000X0*%
%ADD26R,1.800000X1.800000*%
%ADD27RoundRect,0.112500X0.112500X-0.187500X0.112500X0.187500X-0.112500X0.187500X-0.112500X-0.187500X0*%
%ADD28RoundRect,0.150000X0.150000X-0.587500X0.150000X0.587500X-0.150000X0.587500X-0.150000X-0.587500X0*%
%ADD29R,1.000000X0.800000*%
%ADD30O,1.700000X1.950000*%
%ADD31RoundRect,0.250000X0.600000X0.725000X-0.600000X0.725000X-0.600000X-0.725000X0.600000X-0.725000X0*%
%ADD32R,1.800000X4.200000*%
%ADD33RoundRect,0.150000X-0.512500X-0.150000X0.512500X-0.150000X0.512500X0.150000X-0.512500X0.150000X0*%
%ADD34RoundRect,0.250000X-0.475000X0.250000X-0.475000X-0.250000X0.475000X-0.250000X0.475000X0.250000X0*%
%ADD35C,2.200000*%
%ADD36RoundRect,0.135000X0.185000X-0.135000X0.185000X0.135000X-0.185000X0.135000X-0.185000X-0.135000X0*%
%ADD37RoundRect,0.200000X0.200000X0.275000X-0.200000X0.275000X-0.200000X-0.275000X0.200000X-0.275000X0*%
%ADD38RoundRect,0.200000X0.275000X-0.200000X0.275000X0.200000X-0.275000X0.200000X-0.275000X-0.200000X0*%
%ADD39RoundRect,0.250000X-0.625000X0.312500X-0.625000X-0.312500X0.625000X-0.312500X0.625000X0.312500X0*%
%ADD40O,1.800000X1.200000*%
%ADD41O,2.000000X1.100000*%
%ADD42R,1.100000X0.550000*%
%ADD43R,1.100000X0.300000*%
%ADD44C,0.700000*%
%ADD45RoundRect,0.218750X0.218750X0.256250X-0.218750X0.256250X-0.218750X-0.256250X0.218750X-0.256250X0*%
%ADD46RoundRect,0.140000X0.140000X0.170000X-0.140000X0.170000X-0.140000X-0.170000X0.140000X-0.170000X0*%
%ADD47RoundRect,0.218750X-0.218750X-0.256250X0.218750X-0.256250X0.218750X0.256250X-0.218750X0.256250X0*%
%ADD48R,0.700000X1.500000*%
%ADD49C,0.900000*%
%ADD50C,0.610000*%
%ADD51R,2.100000X2.030000*%
%ADD52O,1.750000X0.340000*%
%ADD53C,2.700000*%
%ADD54C,1.700000*%
%ADD55R,1.700000X1.700000*%
%ADD56RoundRect,0.250000X-0.750000X0.600000X-0.750000X-0.600000X0.750000X-0.600000X0.750000X0.600000X0*%
%ADD57O,2.000000X1.700000*%
%ADD58R,2.600000X2.600000*%
%ADD59R,0.700000X0.300000*%
%ADD60R,0.300000X0.700000*%
%ADD61RoundRect,0.200000X-0.200000X-0.275000X0.200000X-0.275000X0.200000X0.275000X-0.200000X0.275000X0*%
%ADD62R,1.250000X0.700000*%
%ADD63R,2.500000X5.700000*%
%ADD64RoundRect,0.250000X-0.600000X-0.725000X0.600000X-0.725000X0.600000X0.725000X-0.600000X0.725000X0*%
%ADD65RoundRect,0.112500X-0.187500X-0.112500X0.187500X-0.112500X0.187500X0.112500X-0.187500X0.112500X0*%
%ADD66RoundRect,0.250000X0.475000X-0.250000X0.475000X0.250000X-0.475000X0.250000X-0.475000X-0.250000X0*%
%ADD67R,0.800000X1.000000*%
%ADD68R,1.500000X0.700000*%
%ADD69R,0.900000X2.000000*%
%ADD70RoundRect,1.025000X1.025000X1.025000X-1.025000X1.025000X-1.025000X-1.025000X1.025000X-1.025000X0*%
%ADD71C,4.100000*%
G04 APERTURE END LIST*
D10*
%TO.C,D12*%
X122500000Y-107450000D03*
X126900000Y-107450000D03*
%TD*%
D11*
%TO.C,R21*%
X120490000Y-110800000D03*
X121510000Y-110800000D03*
%TD*%
D12*
%TO.C,R4*%
X148300000Y-92510000D03*
X148300000Y-91490000D03*
%TD*%
D13*
%TO.C,U1*%
X131300000Y-82300000D03*
D14*
X128550000Y-78862500D03*
X129050000Y-78862500D03*
X129550000Y-78862500D03*
X130050000Y-78862500D03*
X130550000Y-78862500D03*
X131050000Y-78862500D03*
X131550000Y-78862500D03*
X132050000Y-78862500D03*
X132550000Y-78862500D03*
X133050000Y-78862500D03*
X133550000Y-78862500D03*
X134050000Y-78862500D03*
D15*
X134737500Y-79550000D03*
X134737500Y-80050000D03*
X134737500Y-80550000D03*
X134737500Y-81050000D03*
X134737500Y-81550000D03*
X134737500Y-82050000D03*
X134737500Y-82550000D03*
X134737500Y-83050000D03*
X134737500Y-83550000D03*
X134737500Y-84050000D03*
X134737500Y-84550000D03*
X134737500Y-85050000D03*
D14*
X134050000Y-85737500D03*
X133550000Y-85737500D03*
X133050000Y-85737500D03*
X132550000Y-85737500D03*
X132050000Y-85737500D03*
X131550000Y-85737500D03*
X131050000Y-85737500D03*
X130550000Y-85737500D03*
X130050000Y-85737500D03*
X129550000Y-85737500D03*
X129050000Y-85737500D03*
X128550000Y-85737500D03*
D15*
X127862500Y-85050000D03*
X127862500Y-84550000D03*
X127862500Y-84050000D03*
X127862500Y-83550000D03*
X127862500Y-83050000D03*
X127862500Y-82550000D03*
X127862500Y-82050000D03*
X127862500Y-81550000D03*
X127862500Y-81050000D03*
X127862500Y-80550000D03*
X127862500Y-80050000D03*
X127862500Y-79550000D03*
%TD*%
D16*
%TO.C,U6*%
X116462500Y-66900000D03*
X116462500Y-67400000D03*
X116462500Y-67900000D03*
D17*
X116300000Y-68562500D03*
X115800000Y-68562500D03*
X115300000Y-68562500D03*
X114800000Y-68562500D03*
D16*
X114637500Y-67900000D03*
X114637500Y-67400000D03*
X114637500Y-66900000D03*
D17*
X114800000Y-66237500D03*
X115300000Y-66237500D03*
X115800000Y-66237500D03*
X116300000Y-66237500D03*
%TD*%
D18*
%TO.C,R12*%
X135880000Y-88000000D03*
X136900000Y-88000000D03*
%TD*%
D19*
%TO.C,C1*%
X137300000Y-78150000D03*
X137300000Y-79700000D03*
%TD*%
D20*
%TO.C,C2*%
X135600000Y-86000000D03*
X135600000Y-86960000D03*
%TD*%
D21*
%TO.C,C5*%
X126000000Y-83790000D03*
X126000000Y-82830000D03*
%TD*%
%TO.C,C22*%
X126600000Y-79080000D03*
X126600000Y-78120000D03*
%TD*%
D22*
%TO.C,Y1*%
X124400000Y-79472000D03*
X122200000Y-79472000D03*
X122200000Y-81172000D03*
X124400000Y-81172000D03*
%TD*%
D20*
%TO.C,C4*%
X136000000Y-78940000D03*
X136000000Y-79900000D03*
%TD*%
D11*
%TO.C,R6*%
X129000000Y-88200000D03*
X127980000Y-88200000D03*
%TD*%
D23*
%TO.C,C11*%
X133220000Y-87100000D03*
X134180000Y-87100000D03*
%TD*%
D18*
%TO.C,R5*%
X127980000Y-87100000D03*
X129000000Y-87100000D03*
%TD*%
D23*
%TO.C,C3*%
X128020000Y-77600000D03*
X128980000Y-77600000D03*
%TD*%
D24*
%TO.C,D3*%
X137000000Y-86675000D03*
X137000000Y-85100000D03*
%TD*%
D25*
%TO.C,C6*%
X124700000Y-84610000D03*
X124700000Y-83060000D03*
%TD*%
D18*
%TO.C,R22*%
X101200000Y-71700000D03*
X100180000Y-71700000D03*
%TD*%
D26*
%TO.C,BUZZER1*%
X96100000Y-65520000D03*
X89120000Y-72500000D03*
X89120000Y-65520000D03*
X96100000Y-72500000D03*
%TD*%
D27*
%TO.C,D7*%
X98300000Y-68050000D03*
X98300000Y-70150000D03*
%TD*%
D28*
%TO.C,Q4*%
X101100000Y-68162500D03*
X102050000Y-70037500D03*
X100150000Y-70037500D03*
%TD*%
D29*
%TO.C,Q2*%
X118950000Y-105300000D03*
X116650000Y-106250000D03*
X116650000Y-104350000D03*
%TD*%
D30*
%TO.C,J2*%
X126300000Y-73645000D03*
X128800000Y-73645000D03*
X131300000Y-73645000D03*
X133800000Y-73645000D03*
D31*
X136300000Y-73645000D03*
%TD*%
D32*
%TO.C,L2*%
X144300000Y-98750000D03*
X148600000Y-98750000D03*
%TD*%
D33*
%TO.C,U5*%
X149087500Y-104300000D03*
X149087500Y-105250000D03*
X149087500Y-106200000D03*
X146812500Y-106200000D03*
X146812500Y-105250000D03*
X146812500Y-104300000D03*
%TD*%
D34*
%TO.C,C26*%
X141950000Y-104150000D03*
X141950000Y-102250000D03*
%TD*%
D25*
%TO.C,C23*%
X144450000Y-105700000D03*
X144450000Y-107250000D03*
%TD*%
D34*
%TO.C,C25*%
X144200000Y-104150000D03*
X144200000Y-102250000D03*
%TD*%
D21*
%TO.C,C24*%
X149700000Y-102000000D03*
X149700000Y-102960000D03*
%TD*%
D35*
%TO.C,H3*%
X149500000Y-112250000D03*
%TD*%
D36*
%TO.C,R10*%
X149450000Y-107750000D03*
X149450000Y-108770000D03*
%TD*%
D37*
%TO.C,R11*%
X150850000Y-106500000D03*
X152500000Y-106500000D03*
%TD*%
D38*
%TO.C,R25*%
X120500000Y-109525000D03*
X120500000Y-107875000D03*
%TD*%
D39*
%TO.C,R19*%
X120000000Y-98937500D03*
X120000000Y-101862500D03*
%TD*%
D10*
%TO.C,D1*%
X137500000Y-103400000D03*
X137500000Y-99000000D03*
%TD*%
D21*
%TO.C,C13*%
X135250000Y-103130000D03*
X135250000Y-102170000D03*
%TD*%
D11*
%TO.C,R9*%
X137520000Y-106400000D03*
X136500000Y-106400000D03*
%TD*%
D32*
%TO.C,L1*%
X134150000Y-98650000D03*
X129850000Y-98650000D03*
%TD*%
D33*
%TO.C,U4*%
X132362500Y-104450000D03*
X132362500Y-105400000D03*
X132362500Y-106350000D03*
X134637500Y-106350000D03*
X134637500Y-105400000D03*
X134637500Y-104450000D03*
%TD*%
D34*
%TO.C,C14*%
X129750000Y-102150000D03*
X129750000Y-104050000D03*
%TD*%
%TO.C,C15*%
X127500000Y-102150000D03*
X127500000Y-104050000D03*
%TD*%
D25*
%TO.C,C12*%
X130000000Y-107200000D03*
X130000000Y-105650000D03*
%TD*%
D36*
%TO.C,R8*%
X135000000Y-108920000D03*
X135000000Y-107900000D03*
%TD*%
D12*
%TO.C,R3*%
X143600000Y-83220000D03*
X143600000Y-82200000D03*
%TD*%
D21*
%TO.C,C17*%
X96800000Y-86840000D03*
X96800000Y-87800000D03*
%TD*%
D40*
%TO.C,USB2*%
X150760000Y-76680000D03*
D41*
X146550000Y-76680000D03*
D40*
X150760000Y-85320000D03*
D41*
X146550000Y-85320000D03*
D42*
X146000000Y-77800000D03*
X146000000Y-78600000D03*
D43*
X146000000Y-79250000D03*
X146000000Y-79750000D03*
X146000000Y-80250000D03*
X146000000Y-80750000D03*
X146000000Y-81250000D03*
X146000000Y-81750000D03*
X146000000Y-82250000D03*
X146000000Y-82750000D03*
D42*
X146000000Y-83400000D03*
X146000000Y-84200000D03*
D44*
X147080000Y-78110000D03*
X147080000Y-83890000D03*
%TD*%
D45*
%TO.C,D2*%
X142550000Y-115300000D03*
X144125000Y-115300000D03*
%TD*%
D46*
%TO.C,C20*%
X113550000Y-69750000D03*
X114510000Y-69750000D03*
%TD*%
D29*
%TO.C,Q1*%
X136650000Y-96200000D03*
X138950000Y-95250000D03*
X138950000Y-97150000D03*
%TD*%
D36*
%TO.C,R2*%
X143600000Y-78280000D03*
X143600000Y-79300000D03*
%TD*%
D23*
%TO.C,C10*%
X123200000Y-82800000D03*
X122240000Y-82800000D03*
%TD*%
D18*
%TO.C,R1*%
X107697500Y-69632500D03*
X106677500Y-69632500D03*
%TD*%
D11*
%TO.C,R13*%
X135452500Y-113750000D03*
X136472500Y-113750000D03*
%TD*%
D12*
%TO.C,R7*%
X111550000Y-95847500D03*
X111550000Y-94827500D03*
%TD*%
D45*
%TO.C,FB1*%
X124337500Y-100550000D03*
X122762500Y-100550000D03*
%TD*%
D46*
%TO.C,C9*%
X122120000Y-77972000D03*
X123080000Y-77972000D03*
%TD*%
D47*
%TO.C,D4*%
X137250000Y-115250000D03*
X135675000Y-115250000D03*
%TD*%
D48*
%TO.C,SW3*%
X123000000Y-112500000D03*
X121500000Y-112500000D03*
X118500000Y-112500000D03*
D29*
X124400000Y-115360000D03*
X124400000Y-113150000D03*
D49*
X122250000Y-114260000D03*
X119250000Y-114260000D03*
D29*
X117100000Y-115360000D03*
X117100000Y-113150000D03*
%TD*%
D45*
%TO.C,D5*%
X126925000Y-115300000D03*
X128500000Y-115300000D03*
%TD*%
D50*
%TO.C,U2*%
X92750000Y-86750000D03*
X92750000Y-87750000D03*
X91750000Y-86750000D03*
X91750000Y-87750000D03*
D51*
X92250000Y-87250000D03*
D52*
X89380000Y-84970000D03*
X89380000Y-85620000D03*
X89380000Y-86270000D03*
X89380000Y-86930000D03*
X89380000Y-87580000D03*
X89380000Y-88230000D03*
X89380000Y-88880000D03*
X89380000Y-89530000D03*
X95120000Y-84970000D03*
X95120000Y-85620000D03*
X95120000Y-86270000D03*
X95120000Y-86930000D03*
X95120000Y-87580000D03*
X95120000Y-88230000D03*
X95120000Y-88880000D03*
X95120000Y-89530000D03*
%TD*%
D50*
%TO.C,U3*%
X92750000Y-93250000D03*
X92750000Y-94250000D03*
X91750000Y-93250000D03*
X91750000Y-94250000D03*
D51*
X92250000Y-93750000D03*
D52*
X89380000Y-91470000D03*
X89380000Y-92120000D03*
X89380000Y-92770000D03*
X89380000Y-93430000D03*
X89380000Y-94080000D03*
X89380000Y-94730000D03*
X89380000Y-95380000D03*
X89380000Y-96030000D03*
X95120000Y-91470000D03*
X95120000Y-92120000D03*
X95120000Y-92770000D03*
X95120000Y-93430000D03*
X95120000Y-94080000D03*
X95120000Y-94730000D03*
X95120000Y-95380000D03*
X95120000Y-96030000D03*
%TD*%
D34*
%TO.C,C8*%
X124550000Y-104050000D03*
X124550000Y-102150000D03*
%TD*%
%TO.C,C7*%
X122450000Y-102150000D03*
X122450000Y-104050000D03*
%TD*%
D25*
%TO.C,C16*%
X98200000Y-86500000D03*
X98200000Y-88050000D03*
%TD*%
%TO.C,C19*%
X98200000Y-92950000D03*
X98200000Y-94500000D03*
%TD*%
D20*
%TO.C,C21*%
X113450000Y-67880000D03*
X113450000Y-66920000D03*
%TD*%
D21*
%TO.C,C18*%
X96800000Y-93300000D03*
X96800000Y-94260000D03*
%TD*%
D53*
%TO.C,H7*%
X142500000Y-92500000D03*
%TD*%
D54*
%TO.C,J1*%
X135080000Y-93750000D03*
X132540000Y-93750000D03*
X130000000Y-93750000D03*
D55*
X127460000Y-93750000D03*
%TD*%
D56*
%TO.C,J7*%
X82945000Y-98500000D03*
D57*
X82945000Y-101000000D03*
%TD*%
D56*
%TO.C,J6*%
X82945000Y-84000000D03*
D57*
X82945000Y-86500000D03*
%TD*%
D56*
%TO.C,J5*%
X82945000Y-75500000D03*
D57*
X82945000Y-78000000D03*
%TD*%
D58*
%TO.C,U7*%
X113350000Y-91800000D03*
D59*
X115300000Y-90550000D03*
X115300000Y-91050000D03*
X115300000Y-91550000D03*
X115300000Y-92050000D03*
X115300000Y-92550000D03*
X115300000Y-93050000D03*
D60*
X114600000Y-93740000D03*
X114100000Y-93740000D03*
X113600000Y-93740000D03*
X113100000Y-93740000D03*
X112600000Y-93740000D03*
X112100000Y-93740000D03*
D59*
X111400000Y-93050000D03*
X111400000Y-92550000D03*
X111400000Y-92050000D03*
X111400000Y-91550000D03*
X111400000Y-91050000D03*
X111400000Y-90550000D03*
D60*
X112100000Y-89860000D03*
X112600000Y-89860000D03*
X113100000Y-89860000D03*
X113600000Y-89860000D03*
X114100000Y-89860000D03*
X114600000Y-89860000D03*
%TD*%
D11*
%TO.C,R28*%
X106575000Y-101100000D03*
X105555000Y-101100000D03*
%TD*%
%TO.C,R27*%
X144100000Y-113950000D03*
X143080000Y-113950000D03*
%TD*%
D18*
%TO.C,R26*%
X109230000Y-93422500D03*
X110250000Y-93422500D03*
%TD*%
D12*
%TO.C,R24*%
X128550000Y-111800000D03*
X128550000Y-112820000D03*
%TD*%
D36*
%TO.C,R23*%
X132500000Y-111410000D03*
X132500000Y-110390000D03*
%TD*%
D37*
%TO.C,R18*%
X115125000Y-88460000D03*
X113475000Y-88460000D03*
%TD*%
D61*
%TO.C,R17*%
X108400000Y-90422500D03*
X110050000Y-90422500D03*
%TD*%
%TO.C,R16*%
X108400000Y-92022500D03*
X110050000Y-92022500D03*
%TD*%
D18*
%TO.C,R15*%
X127500000Y-113900000D03*
X128520000Y-113900000D03*
%TD*%
D12*
%TO.C,R14*%
X117750000Y-94427500D03*
X117750000Y-95447500D03*
%TD*%
D29*
%TO.C,Q5*%
X118950000Y-107800000D03*
X116650000Y-108750000D03*
X118950000Y-109700000D03*
%TD*%
D62*
%TO.C,Q3*%
X131000000Y-111450000D03*
X131000000Y-109550000D03*
X129000000Y-110500000D03*
%TD*%
D63*
%TO.C,L4*%
X115500000Y-100190000D03*
X110800000Y-100210000D03*
%TD*%
D64*
%TO.C,J4*%
X107750000Y-106305000D03*
D30*
X110250000Y-106305000D03*
X112750000Y-106305000D03*
%TD*%
D10*
%TO.C,D10*%
X104800000Y-87700000D03*
X100400000Y-87700000D03*
%TD*%
%TO.C,D9*%
X104700000Y-94900000D03*
X100300000Y-94900000D03*
%TD*%
D65*
%TO.C,D8*%
X129800000Y-113200000D03*
X131900000Y-113200000D03*
%TD*%
D45*
%TO.C,D6*%
X107175000Y-102500000D03*
X105600000Y-102500000D03*
%TD*%
D46*
%TO.C,C35*%
X111980000Y-104500000D03*
X111020000Y-104500000D03*
%TD*%
%TO.C,C34*%
X108340000Y-104500000D03*
X109300000Y-104500000D03*
%TD*%
D19*
%TO.C,C33*%
X110150000Y-96322500D03*
X110150000Y-94772500D03*
%TD*%
D25*
%TO.C,C32*%
X116350000Y-95622500D03*
X116350000Y-94072500D03*
%TD*%
D23*
%TO.C,C31*%
X112590000Y-94900000D03*
X113550000Y-94900000D03*
%TD*%
D66*
%TO.C,C30*%
X122400000Y-91947500D03*
X122400000Y-90047500D03*
%TD*%
%TO.C,C29*%
X120300000Y-91947500D03*
X120300000Y-90047500D03*
%TD*%
D25*
%TO.C,C28*%
X118500000Y-91547500D03*
X118500000Y-89997500D03*
%TD*%
%TO.C,C27*%
X116900000Y-91547500D03*
X116900000Y-89997500D03*
%TD*%
D67*
%TO.C,SW2*%
X150600000Y-94750000D03*
X152810000Y-94750000D03*
D49*
X151710000Y-92600000D03*
X151710000Y-89600000D03*
D67*
X150600000Y-87450000D03*
X152810000Y-87450000D03*
D68*
X149950000Y-93350000D03*
X149950000Y-90350000D03*
X149950000Y-88850000D03*
%TD*%
D35*
%TO.C,H2*%
X77500000Y-112250000D03*
%TD*%
D69*
%TO.C,J3*%
X103100000Y-106350000D03*
X89600000Y-106350000D03*
D70*
X92750000Y-100350000D03*
D71*
X99950000Y-100350000D03*
%TD*%
D35*
%TO.C,H4*%
X77500000Y-68250000D03*
%TD*%
D53*
%TO.C,H5*%
X84500000Y-69500000D03*
%TD*%
%TO.C,H8*%
X84500000Y-92500000D03*
%TD*%
D35*
%TO.C,H1*%
X149500000Y-68250000D03*
%TD*%
D53*
%TO.C,H6*%
X142500000Y-69500000D03*
%TD*%
D29*
%TO.C,SW1*%
X111100000Y-67350000D03*
X111100000Y-65140000D03*
D49*
X108950000Y-66240000D03*
X105950000Y-66240000D03*
D29*
X103800000Y-67350000D03*
X103800000Y-65140000D03*
D48*
X109700000Y-68000000D03*
X106700000Y-68000000D03*
X105200000Y-68000000D03*
%TD*%
M02*
