%TF.GenerationSoftware,KiCad,Pcbnew,9.0.2*%
%TF.CreationDate,2025-12-01T07:49:58-05:00*%
%TF.ProjectId,VolleyBot,566f6c6c-6579-4426-9f74-2e6b69636164,rev?*%
%TF.SameCoordinates,Original*%
%TF.FileFunction,Soldermask,Bot*%
%TF.FilePolarity,Negative*%
%FSLAX46Y46*%
G04 Gerber Fmt 4.6, Leading zero omitted, Abs format (unit mm)*
G04 Created by KiCad (PCBNEW 9.0.2) date 2025-12-01 07:49:58*
%MOMM*%
%LPD*%
G01*
G04 APERTURE LIST*
G04 Aperture macros list*
%AMRoundRect*
0 Rectangle with rounded corners*
0 $1 Rounding radius*
0 $2 $3 $4 $5 $6 $7 $8 $9 X,Y pos of 4 corners*
0 Add a 4 corners polygon primitive as box body*
4,1,4,$2,$3,$4,$5,$6,$7,$8,$9,$2,$3,0*
0 Add four circle primitives for the rounded corners*
1,1,$1+$1,$2,$3*
1,1,$1+$1,$4,$5*
1,1,$1+$1,$6,$7*
1,1,$1+$1,$8,$9*
0 Add four rect primitives between the rounded corners*
20,1,$1+$1,$2,$3,$4,$5,0*
20,1,$1+$1,$4,$5,$6,$7,0*
20,1,$1+$1,$6,$7,$8,$9,0*
20,1,$1+$1,$8,$9,$2,$3,0*%
G04 Aperture macros list end*
%ADD10O,1.700000X1.950000*%
%ADD11RoundRect,0.250000X0.600000X0.725000X-0.600000X0.725000X-0.600000X-0.725000X0.600000X-0.725000X0*%
%ADD12C,2.200000*%
%ADD13O,1.800000X1.200000*%
%ADD14O,2.000000X1.100000*%
%ADD15C,0.700000*%
%ADD16C,0.900000*%
%ADD17C,0.610000*%
%ADD18C,2.700000*%
%ADD19C,1.700000*%
%ADD20R,1.700000X1.700000*%
%ADD21RoundRect,0.250000X-0.750000X0.600000X-0.750000X-0.600000X0.750000X-0.600000X0.750000X0.600000X0*%
%ADD22O,2.000000X1.700000*%
%ADD23RoundRect,0.250000X-0.600000X-0.725000X0.600000X-0.725000X0.600000X0.725000X-0.600000X0.725000X0*%
%ADD24R,0.900000X2.000000*%
%ADD25RoundRect,1.025000X1.025000X1.025000X-1.025000X1.025000X-1.025000X-1.025000X1.025000X-1.025000X0*%
%ADD26C,4.100000*%
G04 APERTURE END LIST*
D10*
%TO.C,J2*%
X126300000Y-73645000D03*
X128800000Y-73645000D03*
X131300000Y-73645000D03*
X133800000Y-73645000D03*
D11*
X136300000Y-73645000D03*
%TD*%
D12*
%TO.C,H3*%
X149500000Y-112250000D03*
%TD*%
D13*
%TO.C,USB2*%
X150760000Y-76680000D03*
D14*
X146550000Y-76680000D03*
D13*
X150760000Y-85320000D03*
D14*
X146550000Y-85320000D03*
D15*
X147080000Y-78110000D03*
X147080000Y-83890000D03*
%TD*%
D16*
%TO.C,SW3*%
X122250000Y-114260000D03*
X119250000Y-114260000D03*
%TD*%
D17*
%TO.C,U2*%
X92750000Y-86750000D03*
X92750000Y-87750000D03*
X91750000Y-86750000D03*
X91750000Y-87750000D03*
%TD*%
%TO.C,U3*%
X92750000Y-93250000D03*
X92750000Y-94250000D03*
X91750000Y-93250000D03*
X91750000Y-94250000D03*
%TD*%
D18*
%TO.C,H7*%
X142500000Y-92500000D03*
%TD*%
D19*
%TO.C,J1*%
X135080000Y-93750000D03*
X132540000Y-93750000D03*
X130000000Y-93750000D03*
D20*
X127460000Y-93750000D03*
%TD*%
D21*
%TO.C,J7*%
X82945000Y-98500000D03*
D22*
X82945000Y-101000000D03*
%TD*%
D21*
%TO.C,J6*%
X82945000Y-84000000D03*
D22*
X82945000Y-86500000D03*
%TD*%
D21*
%TO.C,J5*%
X82945000Y-75500000D03*
D22*
X82945000Y-78000000D03*
%TD*%
D23*
%TO.C,J4*%
X107750000Y-106305000D03*
D10*
X110250000Y-106305000D03*
X112750000Y-106305000D03*
%TD*%
D16*
%TO.C,SW2*%
X151710000Y-92600000D03*
X151710000Y-89600000D03*
%TD*%
D12*
%TO.C,H2*%
X77500000Y-112250000D03*
%TD*%
D24*
%TO.C,J3*%
X103100000Y-106350000D03*
X89600000Y-106350000D03*
D25*
X92750000Y-100350000D03*
D26*
X99950000Y-100350000D03*
%TD*%
D12*
%TO.C,H4*%
X77500000Y-68250000D03*
%TD*%
D18*
%TO.C,H5*%
X84500000Y-69500000D03*
%TD*%
%TO.C,H8*%
X84500000Y-92500000D03*
%TD*%
D12*
%TO.C,H1*%
X149500000Y-68250000D03*
%TD*%
D18*
%TO.C,H6*%
X142500000Y-69500000D03*
%TD*%
D16*
%TO.C,SW1*%
X108950000Y-66240000D03*
X105950000Y-66240000D03*
%TD*%
M02*
