%TF.GenerationSoftware,KiCad,Pcbnew,9.0.2*%
%TF.CreationDate,2025-12-01T22:51:16-05:00*%
%TF.ProjectId,VolleyBot,566f6c6c-6579-4426-9f74-2e6b69636164,rev?*%
%TF.SameCoordinates,Original*%
%TF.FileFunction,Copper,L2,Bot*%
%TF.FilePolarity,Positive*%
%FSLAX46Y46*%
G04 Gerber Fmt 4.6, Leading zero omitted, Abs format (unit mm)*
G04 Created by KiCad (PCBNEW 9.0.2) date 2025-12-01 22:51:16*
%MOMM*%
%LPD*%
G01*
G04 APERTURE LIST*
G04 Aperture macros list*
%AMRoundRect*
0 Rectangle with rounded corners*
0 $1 Rounding radius*
0 $2 $3 $4 $5 $6 $7 $8 $9 X,Y pos of 4 corners*
0 Add a 4 corners polygon primitive as box body*
4,1,4,$2,$3,$4,$5,$6,$7,$8,$9,$2,$3,0*
0 Add four circle primitives for the rounded corners*
1,1,$1+$1,$2,$3*
1,1,$1+$1,$4,$5*
1,1,$1+$1,$6,$7*
1,1,$1+$1,$8,$9*
0 Add four rect primitives between the rounded corners*
20,1,$1+$1,$2,$3,$4,$5,0*
20,1,$1+$1,$4,$5,$6,$7,0*
20,1,$1+$1,$6,$7,$8,$9,0*
20,1,$1+$1,$8,$9,$2,$3,0*%
G04 Aperture macros list end*
%TA.AperFunction,ComponentPad*%
%ADD10RoundRect,0.250000X0.600000X0.725000X-0.600000X0.725000X-0.600000X-0.725000X0.600000X-0.725000X0*%
%TD*%
%TA.AperFunction,ComponentPad*%
%ADD11O,1.700000X1.950000*%
%TD*%
%TA.AperFunction,ComponentPad*%
%ADD12RoundRect,0.250000X-0.600000X-0.725000X0.600000X-0.725000X0.600000X0.725000X-0.600000X0.725000X0*%
%TD*%
%TA.AperFunction,ComponentPad*%
%ADD13R,1.700000X1.700000*%
%TD*%
%TA.AperFunction,ComponentPad*%
%ADD14C,1.700000*%
%TD*%
%TA.AperFunction,ComponentPad*%
%ADD15R,0.900000X2.000000*%
%TD*%
%TA.AperFunction,ComponentPad*%
%ADD16RoundRect,1.025000X1.025000X1.025000X-1.025000X1.025000X-1.025000X-1.025000X1.025000X-1.025000X0*%
%TD*%
%TA.AperFunction,ComponentPad*%
%ADD17C,4.100000*%
%TD*%
%TA.AperFunction,ComponentPad*%
%ADD18RoundRect,0.250000X-0.750000X0.600000X-0.750000X-0.600000X0.750000X-0.600000X0.750000X0.600000X0*%
%TD*%
%TA.AperFunction,ComponentPad*%
%ADD19O,2.000000X1.700000*%
%TD*%
%TA.AperFunction,ComponentPad*%
%ADD20C,0.610000*%
%TD*%
%TA.AperFunction,ComponentPad*%
%ADD21C,0.700000*%
%TD*%
%TA.AperFunction,ComponentPad*%
%ADD22O,2.000000X1.100000*%
%TD*%
%TA.AperFunction,ComponentPad*%
%ADD23O,1.800000X1.200000*%
%TD*%
%TA.AperFunction,ViaPad*%
%ADD24C,0.450000*%
%TD*%
%TA.AperFunction,ViaPad*%
%ADD25C,0.600000*%
%TD*%
%TA.AperFunction,Conductor*%
%ADD26C,0.254000*%
%TD*%
%TA.AperFunction,Conductor*%
%ADD27C,0.508000*%
%TD*%
%TA.AperFunction,Conductor*%
%ADD28C,1.016000*%
%TD*%
%TA.AperFunction,Conductor*%
%ADD29C,0.406400*%
%TD*%
G04 APERTURE END LIST*
D10*
%TO.P,J8,1,Pin_1*%
%TO.N,/GPIO_EXT5*%
X120350000Y-73650000D03*
D11*
%TO.P,J8,2,Pin_2*%
%TO.N,/I2C1_CLK*%
X117850000Y-73650000D03*
%TO.P,J8,3,Pin_3*%
%TO.N,/I2C1_SDA*%
X115350000Y-73650000D03*
%TO.P,J8,4,Pin_4*%
%TO.N,-BATT*%
X112850000Y-73650000D03*
%TO.P,J8,5,Pin_5*%
%TO.N,+3.3V*%
X110350000Y-73650000D03*
%TD*%
D12*
%TO.P,J4,1,Pin_1*%
%TO.N,-BATT*%
X107750000Y-106305000D03*
D11*
%TO.P,J4,2,Pin_2*%
%TO.N,Net-(J4-Pin_2)*%
X110250000Y-106305000D03*
%TO.P,J4,3,Pin_3*%
%TO.N,+BATT*%
X112750000Y-106305000D03*
%TD*%
D13*
%TO.P,J1,1,Pin_1*%
%TO.N,/USART1_TX*%
X127460000Y-93750000D03*
D14*
%TO.P,J1,2,Pin_2*%
%TO.N,/USART1_RX*%
X130000000Y-93750000D03*
%TO.P,J1,3,Pin_3*%
%TO.N,-BATT*%
X132540000Y-93750000D03*
%TO.P,J1,4,Pin_4*%
%TO.N,/PI_POWER*%
X135080000Y-93750000D03*
%TD*%
D15*
%TO.P,J3,*%
%TO.N,*%
X103100000Y-106350000D03*
X89600000Y-106350000D03*
D16*
%TO.P,J3,1,Pin_1*%
%TO.N,+BATT*%
X92750000Y-100350000D03*
D17*
%TO.P,J3,2,Pin_2*%
%TO.N,-BATT*%
X99950000Y-100350000D03*
%TD*%
D18*
%TO.P,J7,1,Pin_1*%
%TO.N,Net-(J7-Pin_1)*%
X82945000Y-98500000D03*
D19*
%TO.P,J7,2,Pin_2*%
%TO.N,Net-(J7-Pin_2)*%
X82945000Y-101000000D03*
%TD*%
D10*
%TO.P,J2,1,Pin_1*%
%TO.N,+3.3V*%
X136300000Y-73645000D03*
D11*
%TO.P,J2,2,Pin_2*%
%TO.N,/SWCLK*%
X133800000Y-73645000D03*
%TO.P,J2,3,Pin_3*%
%TO.N,/SWDIO*%
X131300000Y-73645000D03*
%TO.P,J2,4,Pin_4*%
%TO.N,/NRST*%
X128800000Y-73645000D03*
%TO.P,J2,5,Pin_5*%
%TO.N,-BATT*%
X126300000Y-73645000D03*
%TD*%
D20*
%TO.P,U2,*%
%TO.N,*%
X91750000Y-86750000D03*
X91750000Y-87750000D03*
X92750000Y-86750000D03*
X92750000Y-87750000D03*
%TD*%
%TO.P,U3,*%
%TO.N,*%
X91750000Y-93250000D03*
X91750000Y-94250000D03*
X92750000Y-93250000D03*
X92750000Y-94250000D03*
%TD*%
D18*
%TO.P,J6,1,Pin_1*%
%TO.N,Net-(J6-Pin_1)*%
X82945000Y-84000000D03*
D19*
%TO.P,J6,2,Pin_2*%
%TO.N,Net-(J6-Pin_2)*%
X82945000Y-86500000D03*
%TD*%
D18*
%TO.P,J5,1,Pin_1*%
%TO.N,Net-(J5-Pin_1)*%
X82945000Y-75500000D03*
D19*
%TO.P,J5,2,Pin_2*%
%TO.N,Net-(J5-Pin_2)*%
X82945000Y-78000000D03*
%TD*%
D21*
%TO.P,USB2,*%
%TO.N,*%
X147080000Y-83890000D03*
X147080000Y-78110000D03*
D22*
%TO.P,USB2,13,SHELL*%
%TO.N,-BATT*%
X146550000Y-85320000D03*
D23*
X150760000Y-85320000D03*
D22*
%TO.P,USB2,14,SHELL*%
X146550000Y-76680000D03*
D23*
X150760000Y-76680000D03*
%TD*%
D24*
%TO.N,-BATT*%
X133300000Y-75875000D03*
X129498000Y-77750000D03*
X126650000Y-77575000D03*
X123625000Y-83725000D03*
X122700000Y-83700000D03*
X122000000Y-83575000D03*
X121450000Y-83175000D03*
X121150000Y-82425000D03*
X120850000Y-81700000D03*
X120800000Y-80900000D03*
X120775000Y-80150000D03*
X120775000Y-79400000D03*
X120800000Y-78750000D03*
X121275000Y-78025000D03*
%TO.N,+3.3VA*%
X123700000Y-84975000D03*
X125750000Y-89850000D03*
%TO.N,-BATT*%
X115625000Y-78225000D03*
X110300000Y-83675000D03*
%TO.N,+3.3V*%
X100100000Y-69125000D03*
X98575000Y-73275000D03*
%TO.N,-BATT*%
X118700000Y-98700000D03*
X118700000Y-100500000D03*
X132200000Y-103600000D03*
X131125000Y-103600000D03*
X131100000Y-104975000D03*
X137800000Y-88300000D03*
X137500000Y-86125000D03*
%TO.N,+3.3V*%
X137250000Y-87600000D03*
%TO.N,-BATT*%
X132300000Y-87300000D03*
X128600000Y-90150000D03*
X126925000Y-90150000D03*
X123450000Y-89025000D03*
X115425000Y-89750000D03*
%TO.N,VBUS*%
X139837500Y-90437500D03*
X139150000Y-91100000D03*
X138500000Y-91750000D03*
%TO.N,-BATT*%
X141150000Y-105725000D03*
X142250000Y-105725000D03*
X143225000Y-105725000D03*
X145550000Y-104300000D03*
X132050000Y-109550000D03*
X134250000Y-111600000D03*
X133650000Y-115250000D03*
%TO.N,/BATT+_IN*%
X135475000Y-110175000D03*
X139662500Y-109787500D03*
X139275000Y-110175000D03*
X135975000Y-110175000D03*
%TO.N,VBUS*%
X133225000Y-110400000D03*
X137675000Y-94675000D03*
%TO.N,-BATT*%
X136225000Y-113000000D03*
X143425000Y-112900000D03*
X136600000Y-109125000D03*
X129350000Y-113950000D03*
X121700000Y-93200000D03*
%TO.N,Net-(Q2-G)*%
X118450000Y-111150000D03*
X116946000Y-110054684D03*
%TO.N,-BATT*%
X96950000Y-86000000D03*
X107800000Y-85750000D03*
D25*
%TO.N,Net-(U7-VBATM)*%
X120050000Y-93150000D03*
D24*
%TO.N,+3.3V*%
X132550000Y-102400000D03*
X138400000Y-77700000D03*
X127550000Y-78500000D03*
X136300000Y-105200000D03*
%TO.N,/NRST*%
X126900000Y-82602000D03*
%TO.N,/SWDIO*%
X136600000Y-80550000D03*
%TO.N,/SWCLK*%
X134300000Y-77700000D03*
%TO.N,+5V*%
X146900000Y-94800000D03*
X145000000Y-94800000D03*
%TO.N,-BATT*%
X127150000Y-105450000D03*
X126250000Y-105450000D03*
X126800000Y-113900000D03*
X149450000Y-109550000D03*
X128000000Y-105450000D03*
%TO.N,+BATT*%
X112800000Y-104700000D03*
X117700000Y-92300000D03*
X112800000Y-108000000D03*
X117100000Y-92300000D03*
X118300000Y-92300000D03*
X109300000Y-103600000D03*
%TO.N,/BATT+_IN*%
X128300000Y-108100000D03*
X101900000Y-87200000D03*
X128900000Y-107500000D03*
X128900000Y-108100000D03*
X128300000Y-107500000D03*
X128300000Y-106900000D03*
X102500000Y-87200000D03*
X102500000Y-88200000D03*
X128900000Y-106900000D03*
X102400000Y-95400000D03*
X101800000Y-95400000D03*
X102400000Y-94400000D03*
X101800000Y-94400000D03*
X101900000Y-88200000D03*
%TO.N,Net-(U7-VBATM)*%
X116100000Y-90800000D03*
%TO.N,/5.55V*%
X146500000Y-102300000D03*
X150900000Y-104800000D03*
%TO.N,/USB_D+*%
X144800000Y-81250000D03*
X143700000Y-80200000D03*
%TO.N,VBUS*%
X117400000Y-102600000D03*
X117400000Y-101300000D03*
X106400000Y-86900000D03*
X111300000Y-96700000D03*
X117400000Y-100600000D03*
X106400000Y-87600000D03*
X117400000Y-98500000D03*
X108600000Y-94200000D03*
X117400000Y-102000000D03*
X124000000Y-107300000D03*
X124000000Y-108100000D03*
X124000000Y-108800000D03*
X106200000Y-95400000D03*
X117400000Y-99900000D03*
X106200000Y-94600000D03*
X117400000Y-97800000D03*
X117400000Y-99200000D03*
%TD*%
D26*
%TO.N,+3.3V*%
X131500000Y-71625000D02*
X134280000Y-71625000D01*
X130050000Y-74750000D02*
X130050000Y-73075000D01*
X127550000Y-77250000D02*
X130050000Y-74750000D01*
X127550000Y-78500000D02*
X127550000Y-77250000D01*
X130050000Y-73075000D02*
X131500000Y-71625000D01*
%TO.N,/NRST*%
X125925000Y-76520000D02*
X128800000Y-73645000D01*
X125925000Y-81627000D02*
X125925000Y-76520000D01*
X126900000Y-82602000D02*
X125925000Y-81627000D01*
D27*
%TO.N,+3.3VA*%
X125750000Y-88550000D02*
X123700000Y-86500000D01*
X123700000Y-86500000D02*
X123700000Y-84975000D01*
X125750000Y-89850000D02*
X125750000Y-88550000D01*
%TO.N,+3.3V*%
X98950000Y-73650000D02*
X98575000Y-73275000D01*
X110350000Y-73650000D02*
X98950000Y-73650000D01*
X98575000Y-70650000D02*
X98575000Y-73275000D01*
X100100000Y-69125000D02*
X98575000Y-70650000D01*
X112375000Y-71625000D02*
X134280000Y-71625000D01*
X110350000Y-73650000D02*
X112375000Y-71625000D01*
%TO.N,VBUS*%
X137675000Y-105950000D02*
X137675000Y-94675000D01*
X133225000Y-110400000D02*
X137675000Y-105950000D01*
%TO.N,+3.3V*%
X138400000Y-75745000D02*
X136300000Y-73645000D01*
X138400000Y-77700000D02*
X138400000Y-75745000D01*
X138400000Y-86450000D02*
X138400000Y-77700000D01*
X137250000Y-87600000D02*
X138400000Y-86450000D01*
X134280000Y-71625000D02*
X136300000Y-73645000D01*
D28*
%TO.N,VBUS*%
X123675000Y-91750000D02*
X119025000Y-87100000D01*
X108525000Y-87100000D02*
X108500000Y-87125000D01*
X138525000Y-91750000D02*
X123675000Y-91750000D01*
X119025000Y-87100000D02*
X108525000Y-87100000D01*
X139837500Y-90437500D02*
X138525000Y-91750000D01*
X139812500Y-90437500D02*
X139837500Y-90437500D01*
X138500000Y-91750000D02*
X139812500Y-90437500D01*
D27*
%TO.N,Net-(U7-VBATM)*%
X119525000Y-92625000D02*
X120050000Y-93150000D01*
X119100000Y-90800000D02*
X119525000Y-91225000D01*
X116100000Y-90800000D02*
X119100000Y-90800000D01*
X119525000Y-91225000D02*
X119525000Y-92625000D01*
D28*
%TO.N,/BATT+_IN*%
X139275000Y-110175000D02*
X139662500Y-109787500D01*
X135475000Y-110175000D02*
X139275000Y-110175000D01*
D27*
%TO.N,Net-(Q2-G)*%
X118041316Y-111150000D02*
X116946000Y-110054684D01*
X118450000Y-111150000D02*
X118041316Y-111150000D01*
D29*
%TO.N,+3.3V*%
X135350000Y-105200000D02*
X136300000Y-105200000D01*
X132550000Y-102400000D02*
X135350000Y-105200000D01*
D26*
%TO.N,/SWDIO*%
X136900000Y-80250000D02*
X136900000Y-79400000D01*
X136900000Y-79400000D02*
X136600000Y-79100000D01*
X134917939Y-79100000D02*
X131300000Y-75482061D01*
X136600000Y-80550000D02*
X136900000Y-80250000D01*
X131300000Y-75482061D02*
X131300000Y-73645000D01*
X136600000Y-79100000D02*
X134917939Y-79100000D01*
%TO.N,/SWCLK*%
X134300000Y-77700000D02*
X134300000Y-76000000D01*
X133800000Y-75500000D02*
X133800000Y-73645000D01*
X134300000Y-76000000D02*
X133800000Y-75500000D01*
%TO.N,+5V*%
X145000000Y-94800000D02*
X146900000Y-94800000D01*
D29*
%TO.N,/5.55V*%
X149000000Y-104800000D02*
X146500000Y-102300000D01*
X150900000Y-104800000D02*
X149000000Y-104800000D01*
D26*
%TO.N,/USB_D+*%
X144800000Y-81250000D02*
X144750000Y-81250000D01*
X144750000Y-81250000D02*
X143700000Y-80200000D01*
%TD*%
%TA.AperFunction,Conductor*%
%TO.N,-BATT*%
G36*
X126373529Y-64470185D02*
G01*
X126419284Y-64522989D01*
X126425157Y-64538526D01*
X126426702Y-64543623D01*
X126430241Y-64551844D01*
X126430242Y-64551846D01*
X126475708Y-64617895D01*
X132993470Y-70957613D01*
X133027801Y-71018467D01*
X133023782Y-71088221D01*
X132982689Y-71144729D01*
X132917569Y-71170050D01*
X132907011Y-71170500D01*
X112315164Y-71170500D01*
X112199569Y-71201473D01*
X112199566Y-71201474D01*
X112095933Y-71261307D01*
X112095927Y-71261311D01*
X112011307Y-71345932D01*
X111311091Y-72046147D01*
X111287278Y-72064109D01*
X111287300Y-72064140D01*
X111286553Y-72064656D01*
X111283631Y-72066861D01*
X111282291Y-72067605D01*
X111106677Y-72216540D01*
X111096788Y-72224107D01*
X110992453Y-72295935D01*
X110985012Y-72300676D01*
X110865106Y-72371213D01*
X110856861Y-72375653D01*
X110752059Y-72427083D01*
X110742557Y-72431262D01*
X110637569Y-72472282D01*
X110626604Y-72475987D01*
X110587613Y-72487161D01*
X110529261Y-72489576D01*
X110453469Y-72474500D01*
X110453465Y-72474500D01*
X110246535Y-72474500D01*
X110246530Y-72474500D01*
X110043587Y-72514868D01*
X110043579Y-72514870D01*
X109852403Y-72594058D01*
X109680342Y-72709024D01*
X109534025Y-72855341D01*
X109477172Y-72940427D01*
X109471280Y-72946319D01*
X109469224Y-72951044D01*
X109442970Y-72974631D01*
X109425291Y-72986446D01*
X109407792Y-72996195D01*
X109240128Y-73072566D01*
X109224205Y-73078537D01*
X109010541Y-73142336D01*
X108995092Y-73145892D01*
X108763565Y-73183786D01*
X108753165Y-73185040D01*
X108751473Y-73185171D01*
X108650857Y-73190200D01*
X108633336Y-73194373D01*
X108623672Y-73195126D01*
X108621366Y-73194639D01*
X108614043Y-73195500D01*
X99189622Y-73195500D01*
X99122583Y-73175815D01*
X99101941Y-73159181D01*
X99065819Y-73123059D01*
X99032334Y-73061736D01*
X99029500Y-73035378D01*
X99029500Y-70889622D01*
X99049185Y-70822583D01*
X99065819Y-70801941D01*
X99581453Y-70286307D01*
X100463691Y-69404069D01*
X100523527Y-69300430D01*
X100554501Y-69184836D01*
X100554501Y-69065164D01*
X100523527Y-68949569D01*
X100513158Y-68931610D01*
X100463693Y-68845933D01*
X100463688Y-68845927D01*
X100379072Y-68761311D01*
X100379066Y-68761306D01*
X100275434Y-68701474D01*
X100275435Y-68701474D01*
X100265954Y-68698933D01*
X100159836Y-68670499D01*
X100040164Y-68670499D01*
X99977236Y-68687361D01*
X99924566Y-68701474D01*
X99820934Y-68761306D01*
X99820928Y-68761311D01*
X98295932Y-70286307D01*
X98211311Y-70370927D01*
X98211307Y-70370933D01*
X98151472Y-70474568D01*
X98151473Y-70474568D01*
X98151473Y-70474570D01*
X98120499Y-70590165D01*
X98120499Y-70719825D01*
X98120500Y-70719838D01*
X98120500Y-73207551D01*
X98120499Y-73207569D01*
X98120499Y-73215164D01*
X98120499Y-73334836D01*
X98138630Y-73402500D01*
X98151473Y-73450431D01*
X98211309Y-73554070D01*
X98211311Y-73554072D01*
X98302995Y-73645756D01*
X98303001Y-73645761D01*
X98581968Y-73924728D01*
X98581978Y-73924739D01*
X98586308Y-73929069D01*
X98586309Y-73929070D01*
X98670930Y-74013691D01*
X98774569Y-74073527D01*
X98798993Y-74080071D01*
X98798995Y-74080072D01*
X98798996Y-74080072D01*
X98829386Y-74088215D01*
X98890164Y-74104501D01*
X98890166Y-74104501D01*
X99017432Y-74104501D01*
X99017448Y-74104500D01*
X108607814Y-74104500D01*
X108619661Y-74105067D01*
X108631150Y-74106169D01*
X108643262Y-74109670D01*
X108860050Y-74128139D01*
X108860644Y-74128197D01*
X108860882Y-74128292D01*
X108872032Y-74129826D01*
X108990817Y-74152485D01*
X108999425Y-74154447D01*
X109129459Y-74189000D01*
X109138239Y-74191684D01*
X109250150Y-74230511D01*
X109259525Y-74234197D01*
X109365636Y-74280978D01*
X109375561Y-74285894D01*
X109432180Y-74317165D01*
X109475332Y-74356818D01*
X109534022Y-74444655D01*
X109680342Y-74590975D01*
X109680345Y-74590977D01*
X109852402Y-74705941D01*
X110043580Y-74785130D01*
X110232187Y-74822646D01*
X110246530Y-74825499D01*
X110246534Y-74825500D01*
X110246535Y-74825500D01*
X110453466Y-74825500D01*
X110453467Y-74825499D01*
X110656420Y-74785130D01*
X110847598Y-74705941D01*
X111019655Y-74590977D01*
X111165977Y-74444655D01*
X111280941Y-74272598D01*
X111360130Y-74081420D01*
X111400500Y-73878465D01*
X111400500Y-73609366D01*
X111400799Y-73607445D01*
X111400534Y-73606457D01*
X111406374Y-73571654D01*
X111427438Y-73505685D01*
X111433204Y-73490953D01*
X111465639Y-73421530D01*
X114299500Y-73421530D01*
X114299500Y-73878469D01*
X114339868Y-74081412D01*
X114339870Y-74081420D01*
X114387054Y-74195333D01*
X114419059Y-74272598D01*
X114475333Y-74356818D01*
X114534024Y-74444657D01*
X114680342Y-74590975D01*
X114680345Y-74590977D01*
X114852402Y-74705941D01*
X115043580Y-74785130D01*
X115232187Y-74822646D01*
X115246530Y-74825499D01*
X115246534Y-74825500D01*
X115246535Y-74825500D01*
X115453466Y-74825500D01*
X115453467Y-74825499D01*
X115656420Y-74785130D01*
X115847598Y-74705941D01*
X116019655Y-74590977D01*
X116165977Y-74444655D01*
X116280941Y-74272598D01*
X116360130Y-74081420D01*
X116400500Y-73878465D01*
X116400500Y-73421535D01*
X116400499Y-73421530D01*
X116799500Y-73421530D01*
X116799500Y-73878469D01*
X116839868Y-74081412D01*
X116839870Y-74081420D01*
X116887054Y-74195333D01*
X116919059Y-74272598D01*
X116975333Y-74356818D01*
X117034024Y-74444657D01*
X117180342Y-74590975D01*
X117180345Y-74590977D01*
X117352402Y-74705941D01*
X117543580Y-74785130D01*
X117732187Y-74822646D01*
X117746530Y-74825499D01*
X117746534Y-74825500D01*
X117746535Y-74825500D01*
X117953466Y-74825500D01*
X117953467Y-74825499D01*
X118156420Y-74785130D01*
X118347598Y-74705941D01*
X118519655Y-74590977D01*
X118665977Y-74444655D01*
X118780941Y-74272598D01*
X118860130Y-74081420D01*
X118900500Y-73878465D01*
X118900500Y-73421535D01*
X118860130Y-73218580D01*
X118780941Y-73027402D01*
X118720353Y-72936725D01*
X118720352Y-72936722D01*
X118676257Y-72870730D01*
X119299500Y-72870730D01*
X119299500Y-74429269D01*
X119302353Y-74459699D01*
X119302353Y-74459701D01*
X119347206Y-74587880D01*
X119347207Y-74587882D01*
X119427850Y-74697150D01*
X119537118Y-74777793D01*
X119569080Y-74788977D01*
X119665299Y-74822646D01*
X119695730Y-74825500D01*
X119695734Y-74825500D01*
X121004270Y-74825500D01*
X121034699Y-74822646D01*
X121034701Y-74822646D01*
X121119091Y-74793116D01*
X121162882Y-74777793D01*
X121272150Y-74697150D01*
X121352793Y-74587882D01*
X121375219Y-74523790D01*
X121397646Y-74459701D01*
X121397646Y-74459699D01*
X121400500Y-74429269D01*
X121400500Y-72870730D01*
X121397646Y-72840300D01*
X121397646Y-72840298D01*
X121357674Y-72726068D01*
X121352793Y-72712118D01*
X121272150Y-72602850D01*
X121162882Y-72522207D01*
X121162880Y-72522206D01*
X121034700Y-72477353D01*
X121004270Y-72474500D01*
X121004266Y-72474500D01*
X119695734Y-72474500D01*
X119695730Y-72474500D01*
X119665300Y-72477353D01*
X119665298Y-72477353D01*
X119537119Y-72522206D01*
X119537117Y-72522207D01*
X119427850Y-72602850D01*
X119347207Y-72712117D01*
X119347206Y-72712119D01*
X119302353Y-72840298D01*
X119302353Y-72840300D01*
X119299500Y-72870730D01*
X118676257Y-72870730D01*
X118665980Y-72855349D01*
X118665974Y-72855341D01*
X118519657Y-72709024D01*
X118433626Y-72651541D01*
X118347598Y-72594059D01*
X118300062Y-72574369D01*
X118156420Y-72514870D01*
X118156412Y-72514868D01*
X117953469Y-72474500D01*
X117953465Y-72474500D01*
X117746535Y-72474500D01*
X117746530Y-72474500D01*
X117543587Y-72514868D01*
X117543579Y-72514870D01*
X117352403Y-72594058D01*
X117180342Y-72709024D01*
X117034024Y-72855342D01*
X116919058Y-73027403D01*
X116839870Y-73218579D01*
X116839868Y-73218587D01*
X116799500Y-73421530D01*
X116400499Y-73421530D01*
X116360130Y-73218580D01*
X116280941Y-73027402D01*
X116165977Y-72855345D01*
X116165975Y-72855342D01*
X116019657Y-72709024D01*
X115933626Y-72651541D01*
X115847598Y-72594059D01*
X115800062Y-72574369D01*
X115656420Y-72514870D01*
X115656412Y-72514868D01*
X115453469Y-72474500D01*
X115453465Y-72474500D01*
X115246535Y-72474500D01*
X115246530Y-72474500D01*
X115043587Y-72514868D01*
X115043579Y-72514870D01*
X114852403Y-72594058D01*
X114680342Y-72709024D01*
X114534024Y-72855342D01*
X114419058Y-73027403D01*
X114339870Y-73218579D01*
X114339868Y-73218587D01*
X114299500Y-73421530D01*
X111465639Y-73421530D01*
X111540507Y-73261288D01*
X111547226Y-73248819D01*
X111694853Y-73008849D01*
X111702950Y-72997234D01*
X111873000Y-72780832D01*
X111880402Y-72772252D01*
X111924098Y-72726066D01*
X111929904Y-72716972D01*
X111946730Y-72696028D01*
X112526941Y-72115819D01*
X112588264Y-72082334D01*
X112614622Y-72079500D01*
X130282983Y-72079500D01*
X130350022Y-72099185D01*
X130395777Y-72151989D01*
X130405721Y-72221147D01*
X130376696Y-72284703D01*
X130370664Y-72291181D01*
X129848909Y-72812936D01*
X129800850Y-72860994D01*
X129739527Y-72894478D01*
X129669835Y-72889493D01*
X129620608Y-72854328D01*
X129620285Y-72854652D01*
X129618342Y-72852709D01*
X129617317Y-72851977D01*
X129615975Y-72850342D01*
X129469657Y-72704024D01*
X129383626Y-72646541D01*
X129297598Y-72589059D01*
X129262133Y-72574369D01*
X129106420Y-72509870D01*
X129106412Y-72509868D01*
X128903469Y-72469500D01*
X128903465Y-72469500D01*
X128696535Y-72469500D01*
X128696530Y-72469500D01*
X128493587Y-72509868D01*
X128493579Y-72509870D01*
X128302403Y-72589058D01*
X128130342Y-72704024D01*
X127984024Y-72850342D01*
X127869058Y-73022403D01*
X127789870Y-73213579D01*
X127789868Y-73213587D01*
X127749500Y-73416530D01*
X127749500Y-73740587D01*
X127745984Y-73769907D01*
X127704556Y-73940148D01*
X127699868Y-73955181D01*
X127607883Y-74195333D01*
X127601575Y-74209190D01*
X127476117Y-74445168D01*
X127469552Y-74456116D01*
X127410005Y-74544736D01*
X127403880Y-74553078D01*
X127343368Y-74628658D01*
X127336952Y-74636053D01*
X127315143Y-74659271D01*
X127309563Y-74668062D01*
X127292555Y-74689288D01*
X125723910Y-76257935D01*
X125662936Y-76318908D01*
X125662934Y-76318911D01*
X125619819Y-76393589D01*
X125619819Y-76393590D01*
X125597500Y-76476884D01*
X125597500Y-81583884D01*
X125597500Y-81670116D01*
X125598943Y-81675500D01*
X125619819Y-81753410D01*
X125662934Y-81828088D01*
X125662936Y-81828091D01*
X126328053Y-82493208D01*
X126335680Y-82501565D01*
X126341863Y-82508994D01*
X126350055Y-82522705D01*
X126390753Y-82567735D01*
X126392379Y-82569689D01*
X126392754Y-82570555D01*
X126399513Y-82579144D01*
X126410710Y-82595561D01*
X126419928Y-82611504D01*
X126441441Y-82656049D01*
X126442132Y-82657504D01*
X126472840Y-82723257D01*
X126477373Y-82732367D01*
X126477928Y-82733418D01*
X126482968Y-82742395D01*
X126530020Y-82821499D01*
X126530033Y-82821520D01*
X126532769Y-82825989D01*
X126533060Y-82826451D01*
X126533061Y-82826452D01*
X126535253Y-82828714D01*
X126553591Y-82853005D01*
X126559510Y-82863257D01*
X126559514Y-82863262D01*
X126559515Y-82863263D01*
X126638737Y-82942485D01*
X126735763Y-82998503D01*
X126843982Y-83027500D01*
X126843984Y-83027500D01*
X126956016Y-83027500D01*
X126956018Y-83027500D01*
X127064237Y-82998503D01*
X127161263Y-82942485D01*
X127240485Y-82863263D01*
X127296503Y-82766237D01*
X127325500Y-82658018D01*
X127325500Y-82545982D01*
X127296503Y-82437763D01*
X127240485Y-82340737D01*
X127161263Y-82261515D01*
X127155511Y-82258194D01*
X127141551Y-82250134D01*
X127141511Y-82250111D01*
X127131636Y-82244410D01*
X127113267Y-82228907D01*
X126984163Y-82157595D01*
X126975993Y-82153319D01*
X126975062Y-82152858D01*
X126966618Y-82148912D01*
X126957493Y-82144898D01*
X126957458Y-82144883D01*
X126954574Y-82143615D01*
X126948932Y-82140750D01*
X126948916Y-82140741D01*
X126907260Y-82119590D01*
X126883829Y-82104128D01*
X126814751Y-82046325D01*
X126814749Y-82046324D01*
X126814747Y-82046322D01*
X126811802Y-82044626D01*
X126786012Y-82024857D01*
X126288819Y-81527664D01*
X126255334Y-81466341D01*
X126252500Y-81439983D01*
X126252500Y-76707016D01*
X126272185Y-76639977D01*
X126288814Y-76619340D01*
X127746116Y-75162037D01*
X127756891Y-75152450D01*
X127765902Y-75145326D01*
X127774251Y-75140936D01*
X127890549Y-75046793D01*
X127891016Y-75046425D01*
X127891474Y-75046239D01*
X127906201Y-75036150D01*
X128091580Y-74929812D01*
X128103160Y-74923953D01*
X128208522Y-74877422D01*
X128216765Y-74874131D01*
X128332748Y-74832584D01*
X128341615Y-74829778D01*
X128449202Y-74800140D01*
X128459149Y-74797836D01*
X128498937Y-74790337D01*
X128546087Y-74790573D01*
X128654055Y-74812050D01*
X128696533Y-74820500D01*
X128696535Y-74820500D01*
X128903466Y-74820500D01*
X128903467Y-74820499D01*
X129106420Y-74780130D01*
X129297598Y-74700941D01*
X129297600Y-74700939D01*
X129299185Y-74700283D01*
X129368654Y-74692814D01*
X129431133Y-74724089D01*
X129466786Y-74784178D01*
X129464293Y-74854003D01*
X129434319Y-74902525D01*
X127348910Y-76987935D01*
X127287936Y-77048908D01*
X127287934Y-77048911D01*
X127244819Y-77123589D01*
X127244819Y-77123590D01*
X127228626Y-77184024D01*
X127222500Y-77206885D01*
X127222500Y-78018647D01*
X127221984Y-78029951D01*
X127221103Y-78039573D01*
X127217201Y-78055059D01*
X127214137Y-78115671D01*
X127213906Y-78118197D01*
X127213557Y-78119077D01*
X127212263Y-78129929D01*
X127208566Y-78149483D01*
X127203812Y-78167271D01*
X127187523Y-78213989D01*
X127186983Y-78215506D01*
X127162211Y-78283691D01*
X127158995Y-78293269D01*
X127158654Y-78294372D01*
X127155838Y-78304390D01*
X127133165Y-78393633D01*
X127131858Y-78399080D01*
X127131752Y-78399552D01*
X127131751Y-78399555D01*
X127131707Y-78402559D01*
X127127499Y-78432785D01*
X127124500Y-78443977D01*
X127124500Y-78443982D01*
X127124500Y-78556018D01*
X127153497Y-78664237D01*
X127209515Y-78761263D01*
X127288737Y-78840485D01*
X127385763Y-78896503D01*
X127493982Y-78925500D01*
X127493984Y-78925500D01*
X127606016Y-78925500D01*
X127606018Y-78925500D01*
X127714237Y-78896503D01*
X127811263Y-78840485D01*
X127890485Y-78761263D01*
X127946503Y-78664237D01*
X127975500Y-78556018D01*
X127975500Y-78443982D01*
X127966643Y-78410928D01*
X127964619Y-78386988D01*
X127923756Y-78245277D01*
X127920981Y-78236412D01*
X127920643Y-78235412D01*
X127917479Y-78226703D01*
X127912711Y-78214449D01*
X127899636Y-78174400D01*
X127896248Y-78164019D01*
X127890613Y-78136514D01*
X127882640Y-78046794D01*
X127881757Y-78043511D01*
X127877500Y-78011300D01*
X127877500Y-77437017D01*
X127897185Y-77369978D01*
X127913819Y-77349336D01*
X129108889Y-76154266D01*
X130312065Y-74951090D01*
X130355181Y-74876410D01*
X130377500Y-74793116D01*
X130377500Y-74706884D01*
X130377500Y-74632495D01*
X130382143Y-74616682D01*
X130381778Y-74600203D01*
X130391784Y-74583847D01*
X130397185Y-74565456D01*
X130409638Y-74554664D01*
X130418242Y-74540603D01*
X130435502Y-74532253D01*
X130449989Y-74519701D01*
X130466300Y-74517355D01*
X130481139Y-74510178D01*
X130500170Y-74512485D01*
X130519147Y-74509757D01*
X130534760Y-74516679D01*
X130550501Y-74518588D01*
X130572109Y-74533238D01*
X130580608Y-74537007D01*
X130585079Y-74540711D01*
X130630345Y-74585977D01*
X130678790Y-74618347D01*
X130683701Y-74622415D01*
X130690027Y-74631796D01*
X130709507Y-74651806D01*
X130755043Y-74724089D01*
X130756977Y-74727159D01*
X130765322Y-74742780D01*
X130854728Y-74943414D01*
X130860247Y-74958293D01*
X130931885Y-75197364D01*
X130934899Y-75209684D01*
X130954644Y-75313016D01*
X130956160Y-75323247D01*
X130965989Y-75416182D01*
X130966627Y-75425715D01*
X130967260Y-75448104D01*
X130967261Y-75448106D01*
X130969577Y-75458583D01*
X130972500Y-75485347D01*
X130972500Y-75525177D01*
X130994819Y-75608471D01*
X131037935Y-75683151D01*
X134655874Y-79301090D01*
X134716849Y-79362065D01*
X134791529Y-79405181D01*
X134874823Y-79427500D01*
X136412983Y-79427500D01*
X136442423Y-79436144D01*
X136472410Y-79442668D01*
X136477425Y-79446422D01*
X136480022Y-79447185D01*
X136500664Y-79463819D01*
X136536181Y-79499336D01*
X136569666Y-79560659D01*
X136572500Y-79587017D01*
X136572500Y-80018345D01*
X136552815Y-80085384D01*
X136500011Y-80131139D01*
X136480009Y-80138275D01*
X136468045Y-80141418D01*
X136447228Y-80148089D01*
X136447207Y-80148096D01*
X136444876Y-80148983D01*
X136424699Y-80157925D01*
X136424679Y-80157934D01*
X136393450Y-80173834D01*
X136382857Y-80179625D01*
X136382143Y-80180043D01*
X136381702Y-80180302D01*
X136381609Y-80180357D01*
X136381575Y-80180376D01*
X136379935Y-80181920D01*
X136356984Y-80198980D01*
X136338735Y-80209516D01*
X136259514Y-80288738D01*
X136259513Y-80288740D01*
X136203498Y-80385760D01*
X136203497Y-80385763D01*
X136174500Y-80493982D01*
X136174500Y-80606018D01*
X136203497Y-80714237D01*
X136259515Y-80811263D01*
X136338737Y-80890485D01*
X136435763Y-80946503D01*
X136543982Y-80975500D01*
X136543984Y-80975500D01*
X136656016Y-80975500D01*
X136656018Y-80975500D01*
X136764237Y-80946503D01*
X136861263Y-80890485D01*
X136940485Y-80811263D01*
X136940486Y-80811260D01*
X136944248Y-80806359D01*
X136945916Y-80804234D01*
X136951905Y-80796769D01*
X136954647Y-80794447D01*
X137043585Y-80682521D01*
X137043716Y-80682359D01*
X137043786Y-80682309D01*
X137049658Y-80675486D01*
X137060420Y-80663926D01*
X137061552Y-80662699D01*
X137061726Y-80662509D01*
X137062869Y-80661244D01*
X137063583Y-80660454D01*
X137070133Y-80653098D01*
X137111630Y-80606495D01*
X137122189Y-80593623D01*
X137123327Y-80592115D01*
X137132764Y-80578500D01*
X137168218Y-80522676D01*
X137181294Y-80498704D01*
X137182598Y-80495882D01*
X137192410Y-80470289D01*
X137214846Y-80397599D01*
X137220383Y-80375310D01*
X137220870Y-80372744D01*
X137223886Y-80349966D01*
X137230958Y-80256712D01*
X137231403Y-80248829D01*
X137231436Y-80247944D01*
X137229453Y-80236902D01*
X137227500Y-80214983D01*
X137227500Y-79356885D01*
X137227500Y-79356884D01*
X137205181Y-79273590D01*
X137162065Y-79198910D01*
X137101090Y-79137935D01*
X136801090Y-78837935D01*
X136726410Y-78794819D01*
X136726411Y-78794819D01*
X136698645Y-78787379D01*
X136643116Y-78772500D01*
X136643114Y-78772500D01*
X135104956Y-78772500D01*
X135037917Y-78752815D01*
X135017275Y-78736181D01*
X134523577Y-78242483D01*
X134490092Y-78181160D01*
X134495076Y-78111468D01*
X134536948Y-78055535D01*
X134549240Y-78047426D01*
X134561263Y-78040485D01*
X134640485Y-77961263D01*
X134696503Y-77864237D01*
X134725500Y-77756018D01*
X134725500Y-77643982D01*
X134716643Y-77610928D01*
X134714619Y-77586988D01*
X134673756Y-77445277D01*
X134670981Y-77436412D01*
X134670643Y-77435412D01*
X134667479Y-77426703D01*
X134662711Y-77414449D01*
X134646248Y-77364019D01*
X134640613Y-77336514D01*
X134632640Y-77246794D01*
X134631757Y-77243511D01*
X134627500Y-77211300D01*
X134627500Y-75956885D01*
X134627500Y-75956884D01*
X134605181Y-75873590D01*
X134562065Y-75798910D01*
X134501090Y-75737935D01*
X134182281Y-75419126D01*
X134181488Y-75417675D01*
X134180057Y-75416845D01*
X134164803Y-75387119D01*
X134148796Y-75357803D01*
X134148671Y-75355679D01*
X134148159Y-75354681D01*
X134146546Y-75319424D01*
X134146676Y-75318099D01*
X134148694Y-75297374D01*
X134151749Y-75279575D01*
X134210109Y-75044137D01*
X134213660Y-75032355D01*
X134255385Y-74915330D01*
X134258656Y-74907100D01*
X134260667Y-74902525D01*
X134310564Y-74788968D01*
X134314765Y-74780333D01*
X134365584Y-74685411D01*
X134371140Y-74676050D01*
X134382123Y-74659268D01*
X134385499Y-74654109D01*
X134420362Y-74618912D01*
X134469655Y-74585977D01*
X134615977Y-74439655D01*
X134730941Y-74267598D01*
X134810130Y-74076420D01*
X134850500Y-73873465D01*
X134850500Y-73416535D01*
X134850496Y-73416517D01*
X134850265Y-73415351D01*
X134850321Y-73414720D01*
X134849903Y-73410472D01*
X134850708Y-73410392D01*
X134851995Y-73396014D01*
X134848707Y-73376879D01*
X134855044Y-73361931D01*
X134856492Y-73345759D01*
X134868404Y-73330424D01*
X134875982Y-73312553D01*
X134889392Y-73303406D01*
X134899355Y-73290582D01*
X134917666Y-73284122D01*
X134933704Y-73273184D01*
X134949933Y-73272739D01*
X134965245Y-73267338D01*
X134984138Y-73271802D01*
X135003547Y-73271271D01*
X135017441Y-73279672D01*
X135033242Y-73283406D01*
X135046724Y-73297378D01*
X135063337Y-73307423D01*
X135080021Y-73331885D01*
X135081758Y-73333685D01*
X135083224Y-73336581D01*
X135083424Y-73336989D01*
X135086721Y-73344306D01*
X135116486Y-73416535D01*
X135140650Y-73475175D01*
X135143676Y-73483317D01*
X135187101Y-73614005D01*
X135189736Y-73623077D01*
X135216973Y-73732200D01*
X135219044Y-73742248D01*
X135235724Y-73844411D01*
X135237185Y-73858110D01*
X135243924Y-73990952D01*
X135248355Y-74023331D01*
X135249500Y-74040143D01*
X135249500Y-74424269D01*
X135252353Y-74454699D01*
X135252353Y-74454701D01*
X135286778Y-74553078D01*
X135297207Y-74582882D01*
X135377850Y-74692150D01*
X135487118Y-74772793D01*
X135522375Y-74785130D01*
X135615299Y-74817646D01*
X135645730Y-74820500D01*
X136069129Y-74820500D01*
X136095846Y-74824789D01*
X136211146Y-74820500D01*
X136247212Y-74820500D01*
X136265054Y-74821790D01*
X136414813Y-74843565D01*
X136433376Y-74847739D01*
X136627024Y-74907212D01*
X136642170Y-74912973D01*
X136866177Y-75015402D01*
X136878933Y-75022158D01*
X137093675Y-75152450D01*
X137114614Y-75165154D01*
X137126433Y-75173297D01*
X137340294Y-75339678D01*
X137345392Y-75343866D01*
X137347292Y-75345513D01*
X137399155Y-75394337D01*
X137415796Y-75404919D01*
X137422738Y-75410939D01*
X137423842Y-75412659D01*
X137429180Y-75416940D01*
X137909181Y-75896941D01*
X137942666Y-75958264D01*
X137945500Y-75984622D01*
X137945500Y-86210378D01*
X137925815Y-86277417D01*
X137909181Y-86298059D01*
X136886312Y-87320927D01*
X136886310Y-87320930D01*
X136826473Y-87424569D01*
X136810986Y-87482367D01*
X136795499Y-87540164D01*
X136795499Y-87659836D01*
X136826473Y-87775430D01*
X136886310Y-87879070D01*
X136970930Y-87963690D01*
X137074570Y-88023527D01*
X137190164Y-88054501D01*
X137190166Y-88054501D01*
X137309834Y-88054501D01*
X137309836Y-88054501D01*
X137425430Y-88023527D01*
X137529070Y-87963690D01*
X138668860Y-86823898D01*
X138668865Y-86823895D01*
X138679068Y-86813691D01*
X138679070Y-86813691D01*
X138763691Y-86729070D01*
X138823527Y-86625431D01*
X138823528Y-86625430D01*
X138854501Y-86509836D01*
X138854501Y-86390164D01*
X138854501Y-86382569D01*
X138854500Y-86382551D01*
X138854500Y-83817525D01*
X146529500Y-83817525D01*
X146529500Y-83962475D01*
X146567016Y-84102485D01*
X146567017Y-84102488D01*
X146639488Y-84228011D01*
X146639490Y-84228013D01*
X146639491Y-84228015D01*
X146741985Y-84330509D01*
X146741986Y-84330510D01*
X146741988Y-84330511D01*
X146867511Y-84402982D01*
X146867512Y-84402982D01*
X146867515Y-84402984D01*
X147007525Y-84440500D01*
X147007528Y-84440500D01*
X147152472Y-84440500D01*
X147152475Y-84440500D01*
X147292485Y-84402984D01*
X147418015Y-84330509D01*
X147520509Y-84228015D01*
X147592984Y-84102485D01*
X147630500Y-83962475D01*
X147630500Y-83817525D01*
X147592984Y-83677515D01*
X147520509Y-83551985D01*
X147418015Y-83449491D01*
X147418013Y-83449490D01*
X147418011Y-83449488D01*
X147292488Y-83377017D01*
X147292489Y-83377017D01*
X147281006Y-83373940D01*
X147152475Y-83339500D01*
X147007525Y-83339500D01*
X146878993Y-83373940D01*
X146867511Y-83377017D01*
X146741988Y-83449488D01*
X146741982Y-83449493D01*
X146639493Y-83551982D01*
X146639488Y-83551988D01*
X146567017Y-83677511D01*
X146567016Y-83677515D01*
X146529500Y-83817525D01*
X138854500Y-83817525D01*
X138854500Y-80143982D01*
X143274500Y-80143982D01*
X143274500Y-80256018D01*
X143283268Y-80288738D01*
X143303497Y-80364236D01*
X143303498Y-80364239D01*
X143309889Y-80375309D01*
X143359515Y-80461263D01*
X143438737Y-80540485D01*
X143468367Y-80557592D01*
X143486732Y-80573091D01*
X143615832Y-80644401D01*
X143623990Y-80648671D01*
X143624937Y-80649140D01*
X143633408Y-80653098D01*
X143645417Y-80658379D01*
X143692736Y-80682406D01*
X143716169Y-80697869D01*
X143785248Y-80755674D01*
X143788193Y-80757370D01*
X143813986Y-80777141D01*
X144204952Y-81168107D01*
X144210508Y-81174039D01*
X144217366Y-81181861D01*
X144227203Y-81197818D01*
X144300644Y-81276842D01*
X144301823Y-81278187D01*
X144302119Y-81278825D01*
X144309329Y-81287640D01*
X144346307Y-81339168D01*
X144350778Y-81345844D01*
X144366922Y-81371730D01*
X144368138Y-81373656D01*
X144433388Y-81475701D01*
X144434350Y-81477190D01*
X144434444Y-81477334D01*
X144434449Y-81477341D01*
X144436609Y-81479535D01*
X144455616Y-81504510D01*
X144459512Y-81511259D01*
X144459515Y-81511263D01*
X144538737Y-81590485D01*
X144635763Y-81646503D01*
X144743982Y-81675500D01*
X144743984Y-81675500D01*
X144856016Y-81675500D01*
X144856018Y-81675500D01*
X144964237Y-81646503D01*
X145061263Y-81590485D01*
X145140485Y-81511263D01*
X145196503Y-81414237D01*
X145225500Y-81306018D01*
X145225500Y-81193982D01*
X145196503Y-81085763D01*
X145140485Y-80988737D01*
X145061263Y-80909515D01*
X145061262Y-80909514D01*
X145061259Y-80909512D01*
X145034483Y-80894053D01*
X145019436Y-80883824D01*
X145007197Y-80874119D01*
X144899386Y-80818794D01*
X144899384Y-80818793D01*
X144899378Y-80818790D01*
X144882324Y-80811000D01*
X144882317Y-80810997D01*
X144880354Y-80810206D01*
X144880323Y-80810195D01*
X144862633Y-80803995D01*
X144862635Y-80803995D01*
X144862622Y-80803991D01*
X144812127Y-80788843D01*
X144806338Y-80786949D01*
X144761613Y-80771095D01*
X144720966Y-80747170D01*
X144693919Y-80723287D01*
X144693920Y-80723287D01*
X144688056Y-80719753D01*
X144664392Y-80701237D01*
X144271944Y-80308789D01*
X144264317Y-80300432D01*
X144258132Y-80293001D01*
X144249943Y-80279294D01*
X144209251Y-80234270D01*
X144207623Y-80232314D01*
X144207248Y-80231448D01*
X144200492Y-80222863D01*
X144189286Y-80206434D01*
X144180065Y-80190487D01*
X144158565Y-80145969D01*
X144157873Y-80144512D01*
X144127147Y-80078720D01*
X144122606Y-80069596D01*
X144122050Y-80068545D01*
X144117034Y-80059611D01*
X144102848Y-80035760D01*
X144069976Y-79980495D01*
X144069096Y-79979057D01*
X144067294Y-79976110D01*
X144067018Y-79975672D01*
X144067010Y-79975661D01*
X144064772Y-79973351D01*
X144046460Y-79949087D01*
X144040485Y-79938737D01*
X143961263Y-79859515D01*
X143864237Y-79803497D01*
X143756018Y-79774500D01*
X143643982Y-79774500D01*
X143535763Y-79803497D01*
X143535760Y-79803498D01*
X143438740Y-79859513D01*
X143438734Y-79859517D01*
X143359517Y-79938734D01*
X143359513Y-79938740D01*
X143303498Y-80035760D01*
X143303497Y-80035763D01*
X143274500Y-80143982D01*
X138854500Y-80143982D01*
X138854500Y-78037525D01*
X146529500Y-78037525D01*
X146529500Y-78182475D01*
X146567016Y-78322485D01*
X146567017Y-78322488D01*
X146639488Y-78448011D01*
X146639490Y-78448013D01*
X146639491Y-78448015D01*
X146741985Y-78550509D01*
X146741986Y-78550510D01*
X146741988Y-78550511D01*
X146867511Y-78622982D01*
X146867512Y-78622982D01*
X146867515Y-78622984D01*
X147007525Y-78660500D01*
X147007528Y-78660500D01*
X147152472Y-78660500D01*
X147152475Y-78660500D01*
X147292485Y-78622984D01*
X147418015Y-78550509D01*
X147520509Y-78448015D01*
X147592984Y-78322485D01*
X147630500Y-78182475D01*
X147630500Y-78037525D01*
X147592984Y-77897515D01*
X147592418Y-77896535D01*
X147520511Y-77771988D01*
X147520506Y-77771982D01*
X147418017Y-77669493D01*
X147418011Y-77669488D01*
X147292488Y-77597017D01*
X147292489Y-77597017D01*
X147255060Y-77586988D01*
X147152475Y-77559500D01*
X147007525Y-77559500D01*
X146904940Y-77586988D01*
X146867511Y-77597017D01*
X146741988Y-77669488D01*
X146741982Y-77669493D01*
X146639493Y-77771982D01*
X146639488Y-77771988D01*
X146567017Y-77897511D01*
X146567016Y-77897515D01*
X146529500Y-78037525D01*
X138854500Y-78037525D01*
X138854500Y-75685166D01*
X138854500Y-75685164D01*
X138823527Y-75569569D01*
X138763691Y-75465930D01*
X138679070Y-75381309D01*
X138679069Y-75381308D01*
X138674739Y-75376978D01*
X138674728Y-75376968D01*
X138076940Y-74779180D01*
X138057029Y-74753143D01*
X138055260Y-74750055D01*
X137874290Y-74542331D01*
X137867663Y-74534030D01*
X137857197Y-74519701D01*
X137775091Y-74407286D01*
X137771101Y-74401483D01*
X137694624Y-74283212D01*
X137677434Y-74256628D01*
X137673745Y-74250546D01*
X137664459Y-74234197D01*
X137592819Y-74108064D01*
X137589296Y-74101396D01*
X137575638Y-74073527D01*
X137516577Y-73953014D01*
X137513279Y-73945694D01*
X137510994Y-73940148D01*
X137459338Y-73814798D01*
X137456315Y-73806662D01*
X137412890Y-73675973D01*
X137410260Y-73666915D01*
X137404980Y-73645761D01*
X137383026Y-73557797D01*
X137380956Y-73547752D01*
X137364276Y-73445595D01*
X137362814Y-73431895D01*
X137356075Y-73299050D01*
X137351644Y-73266651D01*
X137350500Y-73249849D01*
X137350500Y-72865730D01*
X137347646Y-72835300D01*
X137347646Y-72835298D01*
X137304543Y-72712119D01*
X137302793Y-72707118D01*
X137222150Y-72597850D01*
X137112882Y-72517207D01*
X137112880Y-72517206D01*
X136984700Y-72472353D01*
X136954270Y-72469500D01*
X136954266Y-72469500D01*
X136530876Y-72469500D01*
X136504154Y-72465210D01*
X136388807Y-72469500D01*
X136352802Y-72469500D01*
X136334960Y-72468210D01*
X136295276Y-72462440D01*
X136194568Y-72447797D01*
X136194566Y-72447797D01*
X136190137Y-72447153D01*
X136190127Y-72447151D01*
X136185170Y-72446430D01*
X136166613Y-72442257D01*
X135972977Y-72382786D01*
X135957827Y-72377024D01*
X135733816Y-72274594D01*
X135721059Y-72267837D01*
X135611821Y-72201558D01*
X135485395Y-72124851D01*
X135473588Y-72116716D01*
X135259704Y-71950319D01*
X135254609Y-71946133D01*
X135252687Y-71944466D01*
X135200845Y-71895662D01*
X135184204Y-71885080D01*
X135177260Y-71879058D01*
X135176155Y-71877338D01*
X135170817Y-71873057D01*
X134650761Y-71353001D01*
X134650759Y-71352998D01*
X134559072Y-71261311D01*
X134559066Y-71261306D01*
X134448393Y-71197409D01*
X134449009Y-71196340D01*
X134420166Y-71177354D01*
X132656134Y-69462000D01*
X132569722Y-69377973D01*
X140949500Y-69377973D01*
X140949500Y-69622027D01*
X140987679Y-69863076D01*
X141063096Y-70095185D01*
X141160478Y-70286309D01*
X141173896Y-70312642D01*
X141317339Y-70510076D01*
X141317343Y-70510081D01*
X141489918Y-70682656D01*
X141489923Y-70682660D01*
X141541077Y-70719825D01*
X141687361Y-70826106D01*
X141904815Y-70936904D01*
X142136924Y-71012321D01*
X142377973Y-71050500D01*
X142377974Y-71050500D01*
X142622026Y-71050500D01*
X142622027Y-71050500D01*
X142863076Y-71012321D01*
X143095185Y-70936904D01*
X143312639Y-70826106D01*
X143510083Y-70682655D01*
X143682655Y-70510083D01*
X143826106Y-70312639D01*
X143936904Y-70095185D01*
X144012321Y-69863076D01*
X144050500Y-69622027D01*
X144050500Y-69377973D01*
X144012321Y-69136924D01*
X143936904Y-68904815D01*
X143826106Y-68687361D01*
X143729602Y-68554534D01*
X143682660Y-68489923D01*
X143682656Y-68489918D01*
X143510081Y-68317343D01*
X143510076Y-68317339D01*
X143407886Y-68243094D01*
X143312642Y-68173896D01*
X143312641Y-68173895D01*
X143312639Y-68173894D01*
X143261128Y-68147648D01*
X148199500Y-68147648D01*
X148199500Y-68352351D01*
X148231522Y-68554534D01*
X148294781Y-68749223D01*
X148387715Y-68931613D01*
X148508028Y-69097213D01*
X148652786Y-69241971D01*
X148807749Y-69354556D01*
X148818390Y-69362287D01*
X148900384Y-69404065D01*
X149000776Y-69455218D01*
X149000778Y-69455218D01*
X149000781Y-69455220D01*
X149105137Y-69489127D01*
X149195465Y-69518477D01*
X149296557Y-69534488D01*
X149397648Y-69550500D01*
X149397649Y-69550500D01*
X149602351Y-69550500D01*
X149602352Y-69550500D01*
X149804534Y-69518477D01*
X149999219Y-69455220D01*
X150181610Y-69362287D01*
X150304803Y-69272783D01*
X150347213Y-69241971D01*
X150347215Y-69241968D01*
X150347219Y-69241966D01*
X150491966Y-69097219D01*
X150491968Y-69097215D01*
X150491971Y-69097213D01*
X150544732Y-69024590D01*
X150612287Y-68931610D01*
X150705220Y-68749219D01*
X150768477Y-68554534D01*
X150800500Y-68352352D01*
X150800500Y-68147648D01*
X150768477Y-67945466D01*
X150705220Y-67750781D01*
X150705218Y-67750778D01*
X150705218Y-67750776D01*
X150663578Y-67669054D01*
X150612287Y-67568390D01*
X150573339Y-67514782D01*
X150491971Y-67402786D01*
X150347213Y-67258028D01*
X150181613Y-67137715D01*
X150181612Y-67137714D01*
X150181610Y-67137713D01*
X150124653Y-67108691D01*
X149999223Y-67044781D01*
X149804534Y-66981522D01*
X149629995Y-66953878D01*
X149602352Y-66949500D01*
X149397648Y-66949500D01*
X149373329Y-66953351D01*
X149195465Y-66981522D01*
X149000776Y-67044781D01*
X148818386Y-67137715D01*
X148652786Y-67258028D01*
X148508028Y-67402786D01*
X148387715Y-67568386D01*
X148294781Y-67750776D01*
X148231522Y-67945465D01*
X148199500Y-68147648D01*
X143261128Y-68147648D01*
X143095185Y-68063096D01*
X142863076Y-67987679D01*
X142863074Y-67987678D01*
X142863072Y-67987678D01*
X142694769Y-67961021D01*
X142622027Y-67949500D01*
X142377973Y-67949500D01*
X142322093Y-67958350D01*
X142136927Y-67987678D01*
X141904812Y-68063097D01*
X141687357Y-68173896D01*
X141489923Y-68317339D01*
X141489918Y-68317343D01*
X141317343Y-68489918D01*
X141317339Y-68489923D01*
X141173896Y-68687357D01*
X141063097Y-68904812D01*
X140987678Y-69136927D01*
X140961782Y-69300430D01*
X140949500Y-69377973D01*
X132569722Y-69377973D01*
X127721359Y-64663399D01*
X127687019Y-64602551D01*
X127691028Y-64532796D01*
X127732113Y-64476282D01*
X127797230Y-64450952D01*
X127807805Y-64450500D01*
X149460118Y-64450500D01*
X149496948Y-64450500D01*
X149503032Y-64450649D01*
X149567797Y-64453830D01*
X149866338Y-64468497D01*
X149878440Y-64469689D01*
X150235230Y-64522613D01*
X150247140Y-64524982D01*
X150597046Y-64612629D01*
X150608663Y-64616154D01*
X150948275Y-64737669D01*
X150959497Y-64742317D01*
X151285582Y-64896543D01*
X151296290Y-64902267D01*
X151484308Y-65014961D01*
X151605659Y-65087696D01*
X151615777Y-65094456D01*
X151905488Y-65309321D01*
X151914894Y-65317041D01*
X152182146Y-65559264D01*
X152190735Y-65567853D01*
X152394324Y-65792479D01*
X152432958Y-65835105D01*
X152440678Y-65844511D01*
X152655543Y-66134222D01*
X152662303Y-66144340D01*
X152790440Y-66358124D01*
X152847725Y-66453697D01*
X152853460Y-66464425D01*
X152853577Y-66464672D01*
X153007679Y-66790495D01*
X153012334Y-66801734D01*
X153099297Y-67044780D01*
X153133840Y-67141319D01*
X153137373Y-67152964D01*
X153225014Y-67502846D01*
X153227388Y-67514782D01*
X153280309Y-67871555D01*
X153281502Y-67883664D01*
X153299351Y-68246967D01*
X153299500Y-68253052D01*
X153299500Y-112246947D01*
X153299351Y-112253032D01*
X153281502Y-112616335D01*
X153280309Y-112628444D01*
X153227388Y-112985217D01*
X153225014Y-112997153D01*
X153137373Y-113347035D01*
X153133840Y-113358680D01*
X153012335Y-113698262D01*
X153007679Y-113709504D01*
X152853462Y-114035570D01*
X152847725Y-114046302D01*
X152662303Y-114355659D01*
X152655543Y-114365777D01*
X152440678Y-114655488D01*
X152432958Y-114664894D01*
X152190743Y-114932138D01*
X152182138Y-114940743D01*
X151914894Y-115182958D01*
X151905488Y-115190678D01*
X151615777Y-115405543D01*
X151605659Y-115412303D01*
X151296302Y-115597725D01*
X151285570Y-115603462D01*
X150959504Y-115757679D01*
X150948262Y-115762335D01*
X150608680Y-115883840D01*
X150597035Y-115887373D01*
X150247153Y-115975014D01*
X150235217Y-115977388D01*
X149878444Y-116030309D01*
X149866335Y-116031502D01*
X149503033Y-116049351D01*
X149496948Y-116049500D01*
X123672141Y-116049500D01*
X123605102Y-116029815D01*
X123559347Y-115977011D01*
X123549403Y-115907853D01*
X123578428Y-115844297D01*
X123591158Y-115831597D01*
X123855688Y-115603462D01*
X124634108Y-114932138D01*
X126166475Y-113610597D01*
X126230098Y-113581721D01*
X126247458Y-113580500D01*
X130825991Y-113580500D01*
X130826000Y-113580500D01*
X130869684Y-113575803D01*
X130898875Y-113569452D01*
X130921174Y-113564602D01*
X130921190Y-113564598D01*
X130921195Y-113564597D01*
X130931373Y-113562110D01*
X131012085Y-113519100D01*
X131064889Y-113473345D01*
X131082843Y-113455754D01*
X131127490Y-113375937D01*
X131147175Y-113308898D01*
X131155500Y-113251000D01*
X131155500Y-112147648D01*
X148199500Y-112147648D01*
X148199500Y-112352351D01*
X148231522Y-112554534D01*
X148294781Y-112749223D01*
X148387715Y-112931613D01*
X148508028Y-113097213D01*
X148652786Y-113241971D01*
X148797397Y-113347035D01*
X148818390Y-113362287D01*
X148934607Y-113421503D01*
X149000776Y-113455218D01*
X149000778Y-113455218D01*
X149000781Y-113455220D01*
X149105137Y-113489127D01*
X149195465Y-113518477D01*
X149296557Y-113534488D01*
X149397648Y-113550500D01*
X149397649Y-113550500D01*
X149602351Y-113550500D01*
X149602352Y-113550500D01*
X149804534Y-113518477D01*
X149999219Y-113455220D01*
X150181610Y-113362287D01*
X150334785Y-113251000D01*
X150347213Y-113241971D01*
X150347215Y-113241968D01*
X150347219Y-113241966D01*
X150491966Y-113097219D01*
X150491968Y-113097215D01*
X150491971Y-113097213D01*
X150544732Y-113024590D01*
X150612287Y-112931610D01*
X150705220Y-112749219D01*
X150768477Y-112554534D01*
X150800500Y-112352352D01*
X150800500Y-112147648D01*
X150768477Y-111945466D01*
X150705220Y-111750781D01*
X150705218Y-111750778D01*
X150705218Y-111750776D01*
X150671503Y-111684607D01*
X150612287Y-111568390D01*
X150604556Y-111557749D01*
X150491971Y-111402786D01*
X150347213Y-111258028D01*
X150181613Y-111137715D01*
X150181612Y-111137714D01*
X150181610Y-111137713D01*
X150124653Y-111108691D01*
X149999223Y-111044781D01*
X149804534Y-110981522D01*
X149629995Y-110953878D01*
X149602352Y-110949500D01*
X149397648Y-110949500D01*
X149373329Y-110953351D01*
X149195465Y-110981522D01*
X149000776Y-111044781D01*
X148818386Y-111137715D01*
X148652786Y-111258028D01*
X148508028Y-111402786D01*
X148387715Y-111568386D01*
X148294781Y-111750776D01*
X148231522Y-111945465D01*
X148199500Y-112147648D01*
X131155500Y-112147648D01*
X131155500Y-110340164D01*
X132770499Y-110340164D01*
X132770499Y-110459836D01*
X132801473Y-110575430D01*
X132861310Y-110679070D01*
X132945930Y-110763690D01*
X133049570Y-110823527D01*
X133165164Y-110854501D01*
X133165166Y-110854501D01*
X133284834Y-110854501D01*
X133284836Y-110854501D01*
X133400430Y-110823527D01*
X133504070Y-110763690D01*
X134162546Y-110105214D01*
X134766500Y-110105214D01*
X134766500Y-110244785D01*
X134793725Y-110381654D01*
X134793727Y-110381662D01*
X134847134Y-110510597D01*
X134847139Y-110510607D01*
X134924671Y-110626641D01*
X134924674Y-110626645D01*
X135023354Y-110725325D01*
X135023358Y-110725328D01*
X135139392Y-110802860D01*
X135139396Y-110802862D01*
X135139399Y-110802864D01*
X135268338Y-110856273D01*
X135405214Y-110883499D01*
X135405218Y-110883500D01*
X135405219Y-110883500D01*
X139344783Y-110883500D01*
X139344783Y-110883499D01*
X139446078Y-110863351D01*
X139481662Y-110856273D01*
X139519427Y-110840630D01*
X139610601Y-110802865D01*
X139726643Y-110725328D01*
X140212828Y-110239142D01*
X140290365Y-110123100D01*
X140343773Y-109994161D01*
X140371000Y-109857281D01*
X140371000Y-109717718D01*
X140371000Y-109717715D01*
X140370999Y-109717713D01*
X140343775Y-109580846D01*
X140343772Y-109580837D01*
X140307690Y-109493727D01*
X140290365Y-109451899D01*
X140290363Y-109451897D01*
X140290363Y-109451895D01*
X140212828Y-109335857D01*
X140212825Y-109335853D01*
X140114146Y-109237174D01*
X140114142Y-109237171D01*
X139998104Y-109159636D01*
X139998101Y-109159635D01*
X139869162Y-109106227D01*
X139869153Y-109106224D01*
X139732285Y-109079000D01*
X139732282Y-109079000D01*
X139592719Y-109079000D01*
X139592714Y-109079000D01*
X139455846Y-109106225D01*
X139455834Y-109106228D01*
X139326906Y-109159631D01*
X139326893Y-109159638D01*
X139210858Y-109237171D01*
X139210854Y-109237174D01*
X139017849Y-109430181D01*
X138956526Y-109463666D01*
X138930168Y-109466500D01*
X135405214Y-109466500D01*
X135268345Y-109493725D01*
X135268337Y-109493727D01*
X135139402Y-109547134D01*
X135139392Y-109547139D01*
X135023358Y-109624671D01*
X135023354Y-109624674D01*
X134924674Y-109723354D01*
X134924671Y-109723358D01*
X134847139Y-109839392D01*
X134847134Y-109839402D01*
X134793727Y-109968337D01*
X134793725Y-109968345D01*
X134766500Y-110105214D01*
X134162546Y-110105214D01*
X137943860Y-106323898D01*
X137943865Y-106323895D01*
X137954068Y-106313691D01*
X137954070Y-106313691D01*
X138038691Y-106229070D01*
X138098527Y-106125431D01*
X138129500Y-106009836D01*
X138129500Y-102243982D01*
X146074500Y-102243982D01*
X146074500Y-102356018D01*
X146103497Y-102464237D01*
X146159515Y-102561263D01*
X146238737Y-102640485D01*
X146297545Y-102674437D01*
X146323225Y-102694143D01*
X148672618Y-105043536D01*
X148672628Y-105043547D01*
X148676958Y-105047877D01*
X148676959Y-105047878D01*
X148752122Y-105123041D01*
X148844177Y-105176189D01*
X148844181Y-105176190D01*
X148844185Y-105176192D01*
X148856982Y-105179620D01*
X148856985Y-105179620D01*
X148865875Y-105182002D01*
X148946852Y-105203701D01*
X149053148Y-105203701D01*
X149053152Y-105203700D01*
X150746298Y-105203700D01*
X150778390Y-105207924D01*
X150843982Y-105225500D01*
X150843984Y-105225500D01*
X150956016Y-105225500D01*
X150956018Y-105225500D01*
X151064237Y-105196503D01*
X151161263Y-105140485D01*
X151240485Y-105061263D01*
X151296503Y-104964237D01*
X151325500Y-104856018D01*
X151325500Y-104743982D01*
X151296503Y-104635763D01*
X151240485Y-104538737D01*
X151161263Y-104459515D01*
X151064237Y-104403497D01*
X150956018Y-104374500D01*
X150843982Y-104374500D01*
X150778391Y-104392075D01*
X150746298Y-104396300D01*
X149218580Y-104396300D01*
X149151541Y-104376615D01*
X149130899Y-104359981D01*
X146894143Y-102123225D01*
X146874436Y-102097543D01*
X146852481Y-102059515D01*
X146840485Y-102038737D01*
X146761263Y-101959515D01*
X146664237Y-101903497D01*
X146556018Y-101874500D01*
X146443982Y-101874500D01*
X146335763Y-101903497D01*
X146335760Y-101903498D01*
X146238740Y-101959513D01*
X146238734Y-101959517D01*
X146159517Y-102038734D01*
X146159513Y-102038740D01*
X146103498Y-102135760D01*
X146103497Y-102135763D01*
X146074500Y-102243982D01*
X138129500Y-102243982D01*
X138129500Y-94743982D01*
X144574500Y-94743982D01*
X144574500Y-94856018D01*
X144603497Y-94964237D01*
X144659515Y-95061263D01*
X144738737Y-95140485D01*
X144835763Y-95196503D01*
X144943982Y-95225500D01*
X144943984Y-95225500D01*
X145056016Y-95225500D01*
X145056018Y-95225500D01*
X145089071Y-95216643D01*
X145113011Y-95214619D01*
X145254721Y-95173756D01*
X145263586Y-95170981D01*
X145264586Y-95170643D01*
X145273295Y-95167479D01*
X145285553Y-95162709D01*
X145324827Y-95149887D01*
X145335978Y-95146248D01*
X145363482Y-95140613D01*
X145453204Y-95132640D01*
X145456482Y-95131757D01*
X145488697Y-95127500D01*
X146418649Y-95127500D01*
X146429950Y-95128016D01*
X146439575Y-95128896D01*
X146455061Y-95132799D01*
X146515685Y-95135862D01*
X146518205Y-95136093D01*
X146519084Y-95136441D01*
X146529929Y-95137733D01*
X146549464Y-95141426D01*
X146567249Y-95146178D01*
X146614071Y-95162502D01*
X146615393Y-95162973D01*
X146683708Y-95187793D01*
X146693408Y-95191046D01*
X146694522Y-95191389D01*
X146704391Y-95194160D01*
X146793603Y-95216826D01*
X146798584Y-95218026D01*
X146799133Y-95218151D01*
X146800085Y-95218166D01*
X146802327Y-95218202D01*
X146832456Y-95222412D01*
X146843978Y-95225499D01*
X146843982Y-95225500D01*
X146956016Y-95225500D01*
X146956018Y-95225500D01*
X147064237Y-95196503D01*
X147161263Y-95140485D01*
X147240485Y-95061263D01*
X147296503Y-94964237D01*
X147325500Y-94856018D01*
X147325500Y-94743982D01*
X147296503Y-94635763D01*
X147240485Y-94538737D01*
X147161263Y-94459515D01*
X147092227Y-94419657D01*
X147064239Y-94403498D01*
X147064238Y-94403497D01*
X147064237Y-94403497D01*
X146956018Y-94374500D01*
X146843982Y-94374500D01*
X146843979Y-94374500D01*
X146822027Y-94380382D01*
X146821958Y-94380400D01*
X146810933Y-94383355D01*
X146786988Y-94385380D01*
X146645255Y-94426249D01*
X146636468Y-94428997D01*
X146635520Y-94429317D01*
X146626728Y-94432510D01*
X146614458Y-94437284D01*
X146608463Y-94439240D01*
X146608434Y-94439249D01*
X146564014Y-94453750D01*
X146536511Y-94459385D01*
X146446804Y-94467357D01*
X146446789Y-94467360D01*
X146443517Y-94468241D01*
X146411298Y-94472500D01*
X145481354Y-94472500D01*
X145470052Y-94471984D01*
X145460427Y-94471103D01*
X145444938Y-94467200D01*
X145384320Y-94464137D01*
X145381796Y-94463906D01*
X145380915Y-94463557D01*
X145370061Y-94462263D01*
X145350524Y-94458569D01*
X145332738Y-94453816D01*
X145285969Y-94437510D01*
X145284450Y-94436969D01*
X145216283Y-94412203D01*
X145211521Y-94410607D01*
X145206514Y-94408929D01*
X145205405Y-94408588D01*
X145205028Y-94408482D01*
X145195608Y-94405838D01*
X145106370Y-94383166D01*
X145101132Y-94381908D01*
X145101120Y-94381905D01*
X145100603Y-94381788D01*
X145100602Y-94381787D01*
X145100598Y-94381787D01*
X145100597Y-94381787D01*
X145097517Y-94381740D01*
X145067330Y-94377530D01*
X145056025Y-94374501D01*
X145056019Y-94374500D01*
X145056018Y-94374500D01*
X144943982Y-94374500D01*
X144835763Y-94403497D01*
X144835760Y-94403498D01*
X144738740Y-94459513D01*
X144738734Y-94459517D01*
X144659517Y-94538734D01*
X144659513Y-94538740D01*
X144603498Y-94635760D01*
X144603497Y-94635763D01*
X144574500Y-94743982D01*
X138129500Y-94743982D01*
X138129500Y-94615164D01*
X138098527Y-94499569D01*
X138038691Y-94395930D01*
X137954070Y-94311309D01*
X137850431Y-94251473D01*
X137734836Y-94220500D01*
X137615164Y-94220500D01*
X137499569Y-94251473D01*
X137499566Y-94251474D01*
X137395933Y-94311307D01*
X137395927Y-94311311D01*
X137311311Y-94395927D01*
X137311307Y-94395933D01*
X137251474Y-94499566D01*
X137251473Y-94499569D01*
X137220500Y-94615164D01*
X137220500Y-105710378D01*
X137200815Y-105777417D01*
X137184181Y-105798059D01*
X132861312Y-110120927D01*
X132861310Y-110120930D01*
X132801473Y-110224569D01*
X132796057Y-110244781D01*
X132770499Y-110340164D01*
X131155500Y-110340164D01*
X131155500Y-105901362D01*
X131154322Y-105879393D01*
X131151488Y-105853035D01*
X131127529Y-105776518D01*
X131094044Y-105715195D01*
X131058991Y-105668371D01*
X127734602Y-102343982D01*
X132124500Y-102343982D01*
X132124500Y-102456018D01*
X132153497Y-102564237D01*
X132209515Y-102661263D01*
X132288737Y-102740485D01*
X132347545Y-102774437D01*
X132373225Y-102794143D01*
X135022618Y-105443536D01*
X135022628Y-105443547D01*
X135026958Y-105447877D01*
X135026959Y-105447878D01*
X135102122Y-105523041D01*
X135194177Y-105576189D01*
X135194181Y-105576190D01*
X135194185Y-105576192D01*
X135206982Y-105579620D01*
X135206985Y-105579620D01*
X135215875Y-105582002D01*
X135296852Y-105603701D01*
X135403148Y-105603701D01*
X135403152Y-105603700D01*
X136146298Y-105603700D01*
X136178390Y-105607924D01*
X136243982Y-105625500D01*
X136243984Y-105625500D01*
X136356016Y-105625500D01*
X136356018Y-105625500D01*
X136464237Y-105596503D01*
X136561263Y-105540485D01*
X136640485Y-105461263D01*
X136696503Y-105364237D01*
X136725500Y-105256018D01*
X136725500Y-105143982D01*
X136696503Y-105035763D01*
X136640485Y-104938737D01*
X136561263Y-104859515D01*
X136464237Y-104803497D01*
X136356018Y-104774500D01*
X136243982Y-104774500D01*
X136178391Y-104792075D01*
X136146298Y-104796300D01*
X135568580Y-104796300D01*
X135501541Y-104776615D01*
X135480899Y-104759981D01*
X132944143Y-102223225D01*
X132924436Y-102197543D01*
X132920745Y-102191150D01*
X132890485Y-102138737D01*
X132811263Y-102059515D01*
X132746579Y-102022169D01*
X132714239Y-102003498D01*
X132714238Y-102003497D01*
X132714237Y-102003497D01*
X132606018Y-101974500D01*
X132493982Y-101974500D01*
X132385763Y-102003497D01*
X132385760Y-102003498D01*
X132288740Y-102059513D01*
X132288734Y-102059517D01*
X132209517Y-102138734D01*
X132209513Y-102138740D01*
X132153498Y-102235760D01*
X132153497Y-102235763D01*
X132124500Y-102343982D01*
X127734602Y-102343982D01*
X121934218Y-96543598D01*
X121933249Y-96542619D01*
X120915850Y-95502357D01*
X120883048Y-95440665D01*
X120880500Y-95415655D01*
X120880500Y-94551361D01*
X120879321Y-94529381D01*
X120876488Y-94503034D01*
X120876487Y-94503029D01*
X120863721Y-94462263D01*
X120852529Y-94426518D01*
X120819044Y-94365195D01*
X120783991Y-94318371D01*
X120255274Y-93789654D01*
X120221789Y-93728331D01*
X120226773Y-93658639D01*
X120268645Y-93602706D01*
X120280955Y-93594586D01*
X120357314Y-93550500D01*
X120450500Y-93457314D01*
X120516392Y-93343186D01*
X120550500Y-93215892D01*
X120550500Y-93084108D01*
X120516392Y-92956814D01*
X120450500Y-92842686D01*
X120357314Y-92749500D01*
X120357313Y-92749499D01*
X120353144Y-92747092D01*
X120342288Y-92740043D01*
X120332878Y-92733210D01*
X120326638Y-92726588D01*
X120179495Y-92621825D01*
X120179034Y-92621490D01*
X120178852Y-92621255D01*
X120167801Y-92612281D01*
X120075411Y-92527003D01*
X120071096Y-92522820D01*
X120045982Y-92497270D01*
X120045797Y-92497063D01*
X120042332Y-92493556D01*
X120042332Y-92493555D01*
X120040428Y-92491629D01*
X120040423Y-92491624D01*
X120015290Y-92466185D01*
X119982177Y-92404660D01*
X119979500Y-92379036D01*
X119979500Y-91294838D01*
X119979501Y-91294825D01*
X119979501Y-91165165D01*
X119979333Y-91164539D01*
X119951660Y-91061263D01*
X119948527Y-91049569D01*
X119888691Y-90945930D01*
X119804070Y-90861309D01*
X119804069Y-90861308D01*
X119799739Y-90856978D01*
X119799728Y-90856968D01*
X119470761Y-90528001D01*
X119470759Y-90527998D01*
X119379072Y-90436311D01*
X119379070Y-90436309D01*
X119275433Y-90376474D01*
X119275432Y-90376473D01*
X119251943Y-90370179D01*
X119251939Y-90370178D01*
X119242760Y-90367719D01*
X119159836Y-90345499D01*
X119040164Y-90345499D01*
X119040160Y-90345500D01*
X116040164Y-90345500D01*
X115924569Y-90376473D01*
X115924566Y-90376474D01*
X115820933Y-90436307D01*
X115820927Y-90436311D01*
X115736311Y-90520927D01*
X115736307Y-90520933D01*
X115676474Y-90624566D01*
X115676473Y-90624569D01*
X115645500Y-90740164D01*
X115645500Y-90859836D01*
X115676473Y-90975431D01*
X115736309Y-91079070D01*
X115820930Y-91163691D01*
X115820933Y-91163693D01*
X115822036Y-91164539D01*
X115822734Y-91165495D01*
X115826677Y-91169438D01*
X115826062Y-91170052D01*
X115863238Y-91220967D01*
X115867392Y-91290714D01*
X115865525Y-91297850D01*
X115852826Y-91341094D01*
X115844500Y-91399003D01*
X115844500Y-94670500D01*
X115824815Y-94737539D01*
X115772011Y-94783294D01*
X115720500Y-94794500D01*
X109579500Y-94794500D01*
X109512461Y-94774815D01*
X109466706Y-94722011D01*
X109455500Y-94670500D01*
X109455500Y-87932500D01*
X109475185Y-87865461D01*
X109527989Y-87819706D01*
X109579500Y-87808500D01*
X118680167Y-87808500D01*
X118747206Y-87828185D01*
X118767848Y-87844819D01*
X123223353Y-92300325D01*
X123223357Y-92300328D01*
X123339394Y-92377862D01*
X123339395Y-92377862D01*
X123339399Y-92377865D01*
X123417599Y-92410256D01*
X123468338Y-92431273D01*
X123536778Y-92444886D01*
X123585235Y-92454525D01*
X123605217Y-92458500D01*
X126542846Y-92458500D01*
X126609885Y-92478185D01*
X126655640Y-92530989D01*
X126665584Y-92600147D01*
X126636559Y-92663703D01*
X126577781Y-92701477D01*
X126567037Y-92704117D01*
X126531770Y-92711131D01*
X126531769Y-92711132D01*
X126465447Y-92755447D01*
X126421132Y-92821769D01*
X126421131Y-92821770D01*
X126409500Y-92880247D01*
X126409500Y-94619752D01*
X126421131Y-94678229D01*
X126421132Y-94678230D01*
X126465447Y-94744552D01*
X126531769Y-94788867D01*
X126531770Y-94788868D01*
X126590247Y-94800499D01*
X126590250Y-94800500D01*
X126590252Y-94800500D01*
X128329750Y-94800500D01*
X128329751Y-94800499D01*
X128344568Y-94797552D01*
X128388229Y-94788868D01*
X128388229Y-94788867D01*
X128388231Y-94788867D01*
X128454552Y-94744552D01*
X128498867Y-94678231D01*
X128498867Y-94678229D01*
X128498868Y-94678229D01*
X128510499Y-94619752D01*
X128510500Y-94619750D01*
X128510500Y-92880249D01*
X128510499Y-92880247D01*
X128498868Y-92821770D01*
X128498867Y-92821769D01*
X128454552Y-92755447D01*
X128388230Y-92711132D01*
X128388229Y-92711131D01*
X128352963Y-92704117D01*
X128291052Y-92671732D01*
X128256478Y-92611017D01*
X128260217Y-92541247D01*
X128301084Y-92484575D01*
X128366102Y-92458994D01*
X128377154Y-92458500D01*
X129849130Y-92458500D01*
X129916169Y-92478185D01*
X129961924Y-92530989D01*
X129971868Y-92600147D01*
X129942843Y-92663703D01*
X129884065Y-92701477D01*
X129873321Y-92704117D01*
X129693587Y-92739868D01*
X129693579Y-92739870D01*
X129502403Y-92819058D01*
X129330342Y-92934024D01*
X129184024Y-93080342D01*
X129069058Y-93252403D01*
X128989870Y-93443579D01*
X128989868Y-93443587D01*
X128949500Y-93646530D01*
X128949500Y-93853469D01*
X128989868Y-94056412D01*
X128989870Y-94056420D01*
X129069058Y-94247596D01*
X129184024Y-94419657D01*
X129330342Y-94565975D01*
X129330345Y-94565977D01*
X129502402Y-94680941D01*
X129693580Y-94760130D01*
X129838052Y-94788867D01*
X129896530Y-94800499D01*
X129896534Y-94800500D01*
X129896535Y-94800500D01*
X130103466Y-94800500D01*
X130103467Y-94800499D01*
X130306420Y-94760130D01*
X130497598Y-94680941D01*
X130669655Y-94565977D01*
X130815977Y-94419655D01*
X130930941Y-94247598D01*
X131010130Y-94056420D01*
X131050500Y-93853465D01*
X131050500Y-93646535D01*
X131010130Y-93443580D01*
X130930941Y-93252402D01*
X130815977Y-93080345D01*
X130815975Y-93080342D01*
X130669657Y-92934024D01*
X130583626Y-92876541D01*
X130497598Y-92819059D01*
X130426811Y-92789738D01*
X130306420Y-92739870D01*
X130306412Y-92739868D01*
X130126679Y-92704117D01*
X130064768Y-92671732D01*
X130030194Y-92611017D01*
X130033933Y-92541247D01*
X130074799Y-92484575D01*
X130139818Y-92458994D01*
X130150870Y-92458500D01*
X134929130Y-92458500D01*
X134996169Y-92478185D01*
X135041924Y-92530989D01*
X135051868Y-92600147D01*
X135022843Y-92663703D01*
X134964065Y-92701477D01*
X134953321Y-92704117D01*
X134773587Y-92739868D01*
X134773579Y-92739870D01*
X134582403Y-92819058D01*
X134410342Y-92934024D01*
X134264024Y-93080342D01*
X134149058Y-93252403D01*
X134069870Y-93443579D01*
X134069868Y-93443587D01*
X134029500Y-93646530D01*
X134029500Y-93853469D01*
X134069868Y-94056412D01*
X134069870Y-94056420D01*
X134149058Y-94247596D01*
X134264024Y-94419657D01*
X134410342Y-94565975D01*
X134410345Y-94565977D01*
X134582402Y-94680941D01*
X134773580Y-94760130D01*
X134918052Y-94788867D01*
X134976530Y-94800499D01*
X134976534Y-94800500D01*
X134976535Y-94800500D01*
X135183466Y-94800500D01*
X135183467Y-94800499D01*
X135386420Y-94760130D01*
X135577598Y-94680941D01*
X135749655Y-94565977D01*
X135895977Y-94419655D01*
X136010941Y-94247598D01*
X136090130Y-94056420D01*
X136130500Y-93853465D01*
X136130500Y-93646535D01*
X136090130Y-93443580D01*
X136010941Y-93252402D01*
X135895977Y-93080345D01*
X135895975Y-93080342D01*
X135749657Y-92934024D01*
X135663626Y-92876541D01*
X135577598Y-92819059D01*
X135506811Y-92789738D01*
X135386420Y-92739870D01*
X135386412Y-92739868D01*
X135206679Y-92704117D01*
X135144768Y-92671732D01*
X135110194Y-92611017D01*
X135113933Y-92541247D01*
X135154799Y-92484575D01*
X135219818Y-92458994D01*
X135230870Y-92458500D01*
X138594782Y-92458500D01*
X138663221Y-92444886D01*
X138731662Y-92431273D01*
X138782401Y-92410256D01*
X138860340Y-92377973D01*
X140949500Y-92377973D01*
X140949500Y-92622026D01*
X140984894Y-92845497D01*
X140987679Y-92863076D01*
X141063096Y-93095185D01*
X141143202Y-93252403D01*
X141173896Y-93312642D01*
X141317339Y-93510076D01*
X141317343Y-93510081D01*
X141489918Y-93682656D01*
X141489923Y-93682660D01*
X141620899Y-93777819D01*
X141687361Y-93826106D01*
X141904815Y-93936904D01*
X142136924Y-94012321D01*
X142377973Y-94050500D01*
X142377974Y-94050500D01*
X142622026Y-94050500D01*
X142622027Y-94050500D01*
X142863076Y-94012321D01*
X143095185Y-93936904D01*
X143312639Y-93826106D01*
X143510083Y-93682655D01*
X143682655Y-93510083D01*
X143826106Y-93312639D01*
X143936904Y-93095185D01*
X144012321Y-92863076D01*
X144043841Y-92664071D01*
X151059499Y-92664071D01*
X151084497Y-92789738D01*
X151084499Y-92789744D01*
X151133533Y-92908124D01*
X151133538Y-92908133D01*
X151204723Y-93014668D01*
X151204726Y-93014672D01*
X151295327Y-93105273D01*
X151295331Y-93105276D01*
X151401866Y-93176461D01*
X151401872Y-93176464D01*
X151401873Y-93176465D01*
X151520256Y-93225501D01*
X151520260Y-93225501D01*
X151520261Y-93225502D01*
X151645928Y-93250500D01*
X151645931Y-93250500D01*
X151774071Y-93250500D01*
X151858615Y-93233682D01*
X151899744Y-93225501D01*
X152018127Y-93176465D01*
X152124669Y-93105276D01*
X152215276Y-93014669D01*
X152286465Y-92908127D01*
X152335501Y-92789744D01*
X152351138Y-92711133D01*
X152360500Y-92664071D01*
X152360500Y-92535928D01*
X152335501Y-92410256D01*
X152335500Y-92410254D01*
X152334438Y-92407691D01*
X152286465Y-92291873D01*
X152286464Y-92291872D01*
X152286461Y-92291866D01*
X152215276Y-92185331D01*
X152215273Y-92185327D01*
X152124672Y-92094726D01*
X152124668Y-92094723D01*
X152018133Y-92023538D01*
X152018124Y-92023533D01*
X151899744Y-91974499D01*
X151899738Y-91974497D01*
X151774071Y-91949500D01*
X151774069Y-91949500D01*
X151645931Y-91949500D01*
X151645929Y-91949500D01*
X151520261Y-91974497D01*
X151520255Y-91974499D01*
X151401875Y-92023533D01*
X151401866Y-92023538D01*
X151295331Y-92094723D01*
X151295327Y-92094726D01*
X151204726Y-92185327D01*
X151204723Y-92185331D01*
X151133538Y-92291866D01*
X151133533Y-92291875D01*
X151097917Y-92377862D01*
X151085562Y-92407691D01*
X151084500Y-92410254D01*
X151084499Y-92410256D01*
X151059500Y-92535928D01*
X151059500Y-92535931D01*
X151059500Y-92664069D01*
X151059500Y-92664071D01*
X151059499Y-92664071D01*
X144043841Y-92664071D01*
X144050500Y-92622027D01*
X144050500Y-92377973D01*
X144012321Y-92136924D01*
X143936904Y-91904815D01*
X143826106Y-91687361D01*
X143807779Y-91662136D01*
X143682660Y-91489923D01*
X143682656Y-91489918D01*
X143510081Y-91317343D01*
X143510076Y-91317339D01*
X143312642Y-91173896D01*
X143312641Y-91173895D01*
X143312639Y-91173894D01*
X143095185Y-91063096D01*
X142863076Y-90987679D01*
X142863074Y-90987678D01*
X142863072Y-90987678D01*
X142694769Y-90961021D01*
X142622027Y-90949500D01*
X142377973Y-90949500D01*
X142322093Y-90958350D01*
X142136927Y-90987678D01*
X141904812Y-91063097D01*
X141687357Y-91173896D01*
X141489923Y-91317339D01*
X141489918Y-91317343D01*
X141317343Y-91489918D01*
X141317339Y-91489923D01*
X141173896Y-91687357D01*
X141063097Y-91904812D01*
X140987678Y-92136927D01*
X140949500Y-92377973D01*
X138860340Y-92377973D01*
X138860601Y-92377865D01*
X138976643Y-92300328D01*
X138976646Y-92300325D01*
X138991552Y-92285420D01*
X140387825Y-90889146D01*
X140387828Y-90889143D01*
X140465365Y-90773101D01*
X140506206Y-90674500D01*
X140518773Y-90644162D01*
X140546000Y-90507281D01*
X140546000Y-90367719D01*
X140518773Y-90230838D01*
X140466763Y-90105276D01*
X140465365Y-90101900D01*
X140414271Y-90025433D01*
X140387831Y-89985862D01*
X140387825Y-89985854D01*
X140289145Y-89887174D01*
X140289141Y-89887171D01*
X140173103Y-89809636D01*
X140173100Y-89809635D01*
X140125078Y-89789744D01*
X140044162Y-89756227D01*
X140044154Y-89756225D01*
X139907285Y-89729000D01*
X139907281Y-89729000D01*
X139882281Y-89729000D01*
X139742718Y-89729000D01*
X139742714Y-89729000D01*
X139723237Y-89732874D01*
X139605843Y-89756225D01*
X139605837Y-89756227D01*
X139530307Y-89787513D01*
X139476895Y-89809636D01*
X139360857Y-89887171D01*
X139360853Y-89887174D01*
X138242848Y-91005181D01*
X138181525Y-91038666D01*
X138155167Y-91041500D01*
X124019833Y-91041500D01*
X123952794Y-91021815D01*
X123932152Y-91005181D01*
X119476646Y-86549674D01*
X119476643Y-86549671D01*
X119460596Y-86538949D01*
X119460590Y-86538946D01*
X119360601Y-86472135D01*
X119283415Y-86440164D01*
X123245499Y-86440164D01*
X123245499Y-86559836D01*
X123263076Y-86625431D01*
X123265732Y-86635346D01*
X123265733Y-86635349D01*
X123276471Y-86675428D01*
X123276472Y-86675429D01*
X123276473Y-86675431D01*
X123336309Y-86779070D01*
X123336311Y-86779072D01*
X123427995Y-86870756D01*
X123428001Y-86870761D01*
X125259181Y-88701941D01*
X125292666Y-88763264D01*
X125295500Y-88789622D01*
X125295500Y-89909836D01*
X125326473Y-90025431D01*
X125386309Y-90129070D01*
X125470930Y-90213691D01*
X125574569Y-90273527D01*
X125690164Y-90304500D01*
X125690166Y-90304500D01*
X125809834Y-90304500D01*
X125809836Y-90304500D01*
X125925431Y-90273527D01*
X126029070Y-90213691D01*
X126113691Y-90129070D01*
X126173527Y-90025431D01*
X126204500Y-89909836D01*
X126204500Y-89664071D01*
X151059499Y-89664071D01*
X151084497Y-89789738D01*
X151084499Y-89789744D01*
X151133533Y-89908124D01*
X151133538Y-89908133D01*
X151204723Y-90014668D01*
X151204726Y-90014672D01*
X151295327Y-90105273D01*
X151295331Y-90105276D01*
X151401866Y-90176461D01*
X151401872Y-90176464D01*
X151401873Y-90176465D01*
X151520256Y-90225501D01*
X151520260Y-90225501D01*
X151520261Y-90225502D01*
X151645928Y-90250500D01*
X151645931Y-90250500D01*
X151774071Y-90250500D01*
X151858615Y-90233682D01*
X151899744Y-90225501D01*
X152018127Y-90176465D01*
X152124669Y-90105276D01*
X152215276Y-90014669D01*
X152286465Y-89908127D01*
X152335501Y-89789744D01*
X152343682Y-89748615D01*
X152360500Y-89664071D01*
X152360500Y-89535928D01*
X152335502Y-89410261D01*
X152335501Y-89410260D01*
X152335501Y-89410256D01*
X152286465Y-89291873D01*
X152286464Y-89291872D01*
X152286461Y-89291866D01*
X152215276Y-89185331D01*
X152215273Y-89185327D01*
X152124672Y-89094726D01*
X152124668Y-89094723D01*
X152018133Y-89023538D01*
X152018124Y-89023533D01*
X151899744Y-88974499D01*
X151899738Y-88974497D01*
X151774071Y-88949500D01*
X151774069Y-88949500D01*
X151645931Y-88949500D01*
X151645929Y-88949500D01*
X151520261Y-88974497D01*
X151520255Y-88974499D01*
X151401875Y-89023533D01*
X151401866Y-89023538D01*
X151295331Y-89094723D01*
X151295327Y-89094726D01*
X151204726Y-89185327D01*
X151204723Y-89185331D01*
X151133538Y-89291866D01*
X151133533Y-89291875D01*
X151084499Y-89410255D01*
X151084497Y-89410261D01*
X151059500Y-89535928D01*
X151059500Y-89535931D01*
X151059500Y-89664069D01*
X151059500Y-89664071D01*
X151059499Y-89664071D01*
X126204500Y-89664071D01*
X126204500Y-88619838D01*
X126204501Y-88619825D01*
X126204501Y-88490165D01*
X126173527Y-88374570D01*
X126173527Y-88374568D01*
X126147144Y-88328872D01*
X126113691Y-88270930D01*
X126029070Y-88186309D01*
X126029069Y-88186308D01*
X126024739Y-88181978D01*
X126024728Y-88181968D01*
X124190819Y-86348059D01*
X124157334Y-86286736D01*
X124154500Y-86260378D01*
X124154500Y-84915166D01*
X124154500Y-84915164D01*
X124123527Y-84799569D01*
X124063691Y-84695930D01*
X123979070Y-84611309D01*
X123875431Y-84551473D01*
X123759836Y-84520500D01*
X123640164Y-84520500D01*
X123524569Y-84551473D01*
X123524566Y-84551474D01*
X123420933Y-84611307D01*
X123420927Y-84611311D01*
X123336311Y-84695927D01*
X123336307Y-84695933D01*
X123276474Y-84799566D01*
X123276473Y-84799569D01*
X123245500Y-84915164D01*
X123245500Y-86440160D01*
X123245499Y-86440164D01*
X119283415Y-86440164D01*
X119261308Y-86431007D01*
X119255524Y-86428611D01*
X119255522Y-86428610D01*
X119231662Y-86418727D01*
X119145834Y-86401655D01*
X119111799Y-86394885D01*
X119094783Y-86391500D01*
X119094782Y-86391500D01*
X119094781Y-86391500D01*
X109404565Y-86391500D01*
X109337526Y-86371815D01*
X109331418Y-86367528D01*
X109250940Y-86322511D01*
X109250935Y-86322509D01*
X109183903Y-86302826D01*
X109183899Y-86302825D01*
X109183898Y-86302825D01*
X109126000Y-86294500D01*
X105929500Y-86294500D01*
X105929492Y-86294500D01*
X105885813Y-86299197D01*
X105834325Y-86310397D01*
X105824127Y-86312890D01*
X105824123Y-86312891D01*
X105760771Y-86346650D01*
X105692350Y-86360804D01*
X105641926Y-86345437D01*
X105600937Y-86322510D01*
X105600935Y-86322509D01*
X105533903Y-86302826D01*
X105533899Y-86302825D01*
X105533898Y-86302825D01*
X105476000Y-86294500D01*
X101274000Y-86294500D01*
X101273992Y-86294500D01*
X101230313Y-86299197D01*
X101178825Y-86310397D01*
X101168627Y-86312890D01*
X101168624Y-86312891D01*
X101087916Y-86355899D01*
X101087913Y-86355901D01*
X101035111Y-86401655D01*
X101035110Y-86401655D01*
X101017160Y-86419242D01*
X101017154Y-86419249D01*
X100972511Y-86499059D01*
X100972509Y-86499064D01*
X100952826Y-86566096D01*
X100944500Y-86624003D01*
X100944500Y-97470500D01*
X100924815Y-97537539D01*
X100872011Y-97583294D01*
X100820500Y-97594500D01*
X88198994Y-97594500D01*
X88166861Y-97597029D01*
X88136222Y-97601881D01*
X88131717Y-97602646D01*
X88131714Y-97602647D01*
X88047617Y-97638592D01*
X87998115Y-97674557D01*
X87970371Y-97698797D01*
X87923464Y-97777305D01*
X87904557Y-97835494D01*
X87904557Y-97835497D01*
X87894500Y-97898995D01*
X87894500Y-115925500D01*
X87874815Y-115992539D01*
X87822011Y-116038294D01*
X87770500Y-116049500D01*
X77503052Y-116049500D01*
X77496967Y-116049351D01*
X77133664Y-116031502D01*
X77121555Y-116030309D01*
X76764782Y-115977388D01*
X76752846Y-115975014D01*
X76402964Y-115887373D01*
X76391323Y-115883841D01*
X76051734Y-115762334D01*
X76040495Y-115757679D01*
X75714429Y-115603462D01*
X75703702Y-115597727D01*
X75394340Y-115412303D01*
X75384222Y-115405543D01*
X75094511Y-115190678D01*
X75085105Y-115182958D01*
X75042479Y-115144324D01*
X74817853Y-114940735D01*
X74809264Y-114932146D01*
X74567041Y-114664894D01*
X74559321Y-114655488D01*
X74344456Y-114365777D01*
X74337696Y-114355659D01*
X74152267Y-114046290D01*
X74146543Y-114035582D01*
X73992317Y-113709497D01*
X73987669Y-113698275D01*
X73866154Y-113358663D01*
X73862629Y-113347046D01*
X73774982Y-112997140D01*
X73772613Y-112985230D01*
X73719689Y-112628440D01*
X73718497Y-112616334D01*
X73700649Y-112253031D01*
X73700500Y-112246947D01*
X73700500Y-112147648D01*
X76199500Y-112147648D01*
X76199500Y-112352351D01*
X76231522Y-112554534D01*
X76294781Y-112749223D01*
X76387715Y-112931613D01*
X76508028Y-113097213D01*
X76652786Y-113241971D01*
X76797397Y-113347035D01*
X76818390Y-113362287D01*
X76934607Y-113421503D01*
X77000776Y-113455218D01*
X77000778Y-113455218D01*
X77000781Y-113455220D01*
X77105137Y-113489127D01*
X77195465Y-113518477D01*
X77296557Y-113534488D01*
X77397648Y-113550500D01*
X77397649Y-113550500D01*
X77602351Y-113550500D01*
X77602352Y-113550500D01*
X77804534Y-113518477D01*
X77999219Y-113455220D01*
X78181610Y-113362287D01*
X78334785Y-113251000D01*
X78347213Y-113241971D01*
X78347215Y-113241968D01*
X78347219Y-113241966D01*
X78491966Y-113097219D01*
X78491968Y-113097215D01*
X78491971Y-113097213D01*
X78544732Y-113024590D01*
X78612287Y-112931610D01*
X78705220Y-112749219D01*
X78768477Y-112554534D01*
X78800500Y-112352352D01*
X78800500Y-112147648D01*
X78768477Y-111945466D01*
X78705220Y-111750781D01*
X78705218Y-111750778D01*
X78705218Y-111750776D01*
X78671503Y-111684607D01*
X78612287Y-111568390D01*
X78604556Y-111557749D01*
X78491971Y-111402786D01*
X78347213Y-111258028D01*
X78181613Y-111137715D01*
X78181612Y-111137714D01*
X78181610Y-111137713D01*
X78124653Y-111108691D01*
X77999223Y-111044781D01*
X77804534Y-110981522D01*
X77629995Y-110953878D01*
X77602352Y-110949500D01*
X77397648Y-110949500D01*
X77373329Y-110953351D01*
X77195465Y-110981522D01*
X77000776Y-111044781D01*
X76818386Y-111137715D01*
X76652786Y-111258028D01*
X76508028Y-111402786D01*
X76387715Y-111568386D01*
X76294781Y-111750776D01*
X76231522Y-111945465D01*
X76199500Y-112147648D01*
X73700500Y-112147648D01*
X73700500Y-100896530D01*
X81744500Y-100896530D01*
X81744500Y-101103469D01*
X81784868Y-101306412D01*
X81784870Y-101306420D01*
X81864058Y-101497596D01*
X81979024Y-101669657D01*
X82125342Y-101815975D01*
X82125345Y-101815977D01*
X82297402Y-101930941D01*
X82488580Y-102010130D01*
X82684296Y-102049060D01*
X82691530Y-102050499D01*
X82691534Y-102050500D01*
X82691535Y-102050500D01*
X83198466Y-102050500D01*
X83198467Y-102050499D01*
X83401420Y-102010130D01*
X83592598Y-101930941D01*
X83764655Y-101815977D01*
X83910977Y-101669655D01*
X84025941Y-101497598D01*
X84105130Y-101306420D01*
X84145500Y-101103465D01*
X84145500Y-100896535D01*
X84105130Y-100693580D01*
X84025941Y-100502402D01*
X83910977Y-100330345D01*
X83910975Y-100330342D01*
X83764657Y-100184024D01*
X83678626Y-100126541D01*
X83592598Y-100069059D01*
X83401420Y-99989870D01*
X83401412Y-99989868D01*
X83198469Y-99949500D01*
X83198465Y-99949500D01*
X82691535Y-99949500D01*
X82691530Y-99949500D01*
X82488587Y-99989868D01*
X82488579Y-99989870D01*
X82297403Y-100069058D01*
X82125342Y-100184024D01*
X81979024Y-100330342D01*
X81864058Y-100502403D01*
X81784870Y-100693579D01*
X81784868Y-100693587D01*
X81744500Y-100896530D01*
X73700500Y-100896530D01*
X73700500Y-97845730D01*
X81744500Y-97845730D01*
X81744500Y-99154269D01*
X81747353Y-99184699D01*
X81747353Y-99184701D01*
X81792206Y-99312880D01*
X81792207Y-99312882D01*
X81872850Y-99422150D01*
X81982118Y-99502793D01*
X82024845Y-99517744D01*
X82110299Y-99547646D01*
X82140730Y-99550500D01*
X82140734Y-99550500D01*
X83749270Y-99550500D01*
X83779699Y-99547646D01*
X83779701Y-99547646D01*
X83843790Y-99525219D01*
X83907882Y-99502793D01*
X84017150Y-99422150D01*
X84097793Y-99312882D01*
X84133295Y-99211423D01*
X84142646Y-99184701D01*
X84142646Y-99184699D01*
X84145500Y-99154269D01*
X84145500Y-97845730D01*
X84142646Y-97815300D01*
X84142646Y-97815298D01*
X84109006Y-97719163D01*
X84097793Y-97687118D01*
X84017150Y-97577850D01*
X83907882Y-97497207D01*
X83907880Y-97497206D01*
X83779700Y-97452353D01*
X83749270Y-97449500D01*
X83749266Y-97449500D01*
X82140734Y-97449500D01*
X82140730Y-97449500D01*
X82110300Y-97452353D01*
X82110298Y-97452353D01*
X81982119Y-97497206D01*
X81982117Y-97497207D01*
X81872850Y-97577850D01*
X81792207Y-97687117D01*
X81792206Y-97687119D01*
X81747353Y-97815298D01*
X81747353Y-97815300D01*
X81744500Y-97845730D01*
X73700500Y-97845730D01*
X73700500Y-92377973D01*
X82949500Y-92377973D01*
X82949500Y-92622026D01*
X82984894Y-92845497D01*
X82987679Y-92863076D01*
X83063096Y-93095185D01*
X83143202Y-93252403D01*
X83173896Y-93312642D01*
X83317339Y-93510076D01*
X83317343Y-93510081D01*
X83489918Y-93682656D01*
X83489923Y-93682660D01*
X83620899Y-93777819D01*
X83687361Y-93826106D01*
X83904815Y-93936904D01*
X84136924Y-94012321D01*
X84377973Y-94050500D01*
X84377974Y-94050500D01*
X84622026Y-94050500D01*
X84622027Y-94050500D01*
X84863076Y-94012321D01*
X85095185Y-93936904D01*
X85312639Y-93826106D01*
X85510083Y-93682655D01*
X85682655Y-93510083D01*
X85826106Y-93312639D01*
X85891931Y-93183450D01*
X91244500Y-93183450D01*
X91244500Y-93316550D01*
X91278540Y-93443587D01*
X91278949Y-93445115D01*
X91278950Y-93445118D01*
X91285993Y-93457316D01*
X91345499Y-93560384D01*
X91345501Y-93560386D01*
X91445363Y-93660248D01*
X91443516Y-93662094D01*
X91477077Y-93708073D01*
X91481219Y-93777819D01*
X91446996Y-93838734D01*
X91442387Y-93842727D01*
X91345501Y-93939613D01*
X91345497Y-93939619D01*
X91278950Y-94054881D01*
X91278949Y-94054884D01*
X91244500Y-94183450D01*
X91244500Y-94316550D01*
X91276851Y-94437284D01*
X91278949Y-94445115D01*
X91278950Y-94445118D01*
X91289797Y-94463906D01*
X91345499Y-94560384D01*
X91439616Y-94654501D01*
X91554884Y-94721051D01*
X91683450Y-94755500D01*
X91683452Y-94755500D01*
X91816548Y-94755500D01*
X91816550Y-94755500D01*
X91945116Y-94721051D01*
X92060384Y-94654501D01*
X92154501Y-94560384D01*
X92154501Y-94560383D01*
X92160248Y-94554637D01*
X92162096Y-94556485D01*
X92208052Y-94522930D01*
X92277798Y-94518775D01*
X92338718Y-94552987D01*
X92342716Y-94557601D01*
X92345499Y-94560384D01*
X92439616Y-94654501D01*
X92554884Y-94721051D01*
X92683450Y-94755500D01*
X92683452Y-94755500D01*
X92816548Y-94755500D01*
X92816550Y-94755500D01*
X92945116Y-94721051D01*
X93060384Y-94654501D01*
X93154501Y-94560384D01*
X93221051Y-94445116D01*
X93255500Y-94316550D01*
X93255500Y-94183450D01*
X93221051Y-94054884D01*
X93154501Y-93939616D01*
X93060384Y-93845499D01*
X93054637Y-93839752D01*
X93056485Y-93837903D01*
X93022930Y-93791948D01*
X93018775Y-93722202D01*
X93052987Y-93661282D01*
X93057601Y-93657283D01*
X93060381Y-93654502D01*
X93060384Y-93654501D01*
X93154501Y-93560384D01*
X93221051Y-93445116D01*
X93255500Y-93316550D01*
X93255500Y-93183450D01*
X93221051Y-93054884D01*
X93154501Y-92939616D01*
X93060384Y-92845499D01*
X92983538Y-92801132D01*
X92945118Y-92778950D01*
X92945117Y-92778949D01*
X92945116Y-92778949D01*
X92816550Y-92744500D01*
X92683450Y-92744500D01*
X92554884Y-92778949D01*
X92554881Y-92778950D01*
X92439619Y-92845497D01*
X92439613Y-92845501D01*
X92339752Y-92945363D01*
X92337905Y-92943516D01*
X92291927Y-92977077D01*
X92222181Y-92981219D01*
X92161266Y-92946996D01*
X92157272Y-92942387D01*
X92060386Y-92845501D01*
X92060384Y-92845499D01*
X91983538Y-92801132D01*
X91945118Y-92778950D01*
X91945117Y-92778949D01*
X91945116Y-92778949D01*
X91816550Y-92744500D01*
X91683450Y-92744500D01*
X91554884Y-92778949D01*
X91554881Y-92778950D01*
X91439619Y-92845497D01*
X91439613Y-92845501D01*
X91345501Y-92939613D01*
X91345497Y-92939619D01*
X91278950Y-93054881D01*
X91278949Y-93054884D01*
X91244500Y-93183450D01*
X85891931Y-93183450D01*
X85902390Y-93162923D01*
X85924756Y-93119028D01*
X85924756Y-93119027D01*
X85936902Y-93095188D01*
X85936904Y-93095185D01*
X86012321Y-92863076D01*
X86050500Y-92622027D01*
X86050500Y-92377973D01*
X86012321Y-92136924D01*
X85936904Y-91904815D01*
X85826106Y-91687361D01*
X85807779Y-91662136D01*
X85682660Y-91489923D01*
X85682656Y-91489918D01*
X85510081Y-91317343D01*
X85510076Y-91317339D01*
X85312642Y-91173896D01*
X85312641Y-91173895D01*
X85312639Y-91173894D01*
X85095185Y-91063096D01*
X84863076Y-90987679D01*
X84863074Y-90987678D01*
X84863072Y-90987678D01*
X84694769Y-90961021D01*
X84622027Y-90949500D01*
X84377973Y-90949500D01*
X84322093Y-90958350D01*
X84136927Y-90987678D01*
X83904812Y-91063097D01*
X83687357Y-91173896D01*
X83489923Y-91317339D01*
X83489918Y-91317343D01*
X83317343Y-91489918D01*
X83317339Y-91489923D01*
X83173896Y-91687357D01*
X83063097Y-91904812D01*
X82987678Y-92136927D01*
X82949500Y-92377973D01*
X73700500Y-92377973D01*
X73700500Y-86396530D01*
X81744500Y-86396530D01*
X81744500Y-86603469D01*
X81784868Y-86806412D01*
X81784870Y-86806420D01*
X81864058Y-86997596D01*
X81979024Y-87169657D01*
X82125342Y-87315975D01*
X82125345Y-87315977D01*
X82297402Y-87430941D01*
X82488580Y-87510130D01*
X82691530Y-87550499D01*
X82691534Y-87550500D01*
X82691535Y-87550500D01*
X83198466Y-87550500D01*
X83198467Y-87550499D01*
X83401420Y-87510130D01*
X83592598Y-87430941D01*
X83764655Y-87315977D01*
X83910977Y-87169655D01*
X84025941Y-86997598D01*
X84105130Y-86806420D01*
X84129590Y-86683450D01*
X91244500Y-86683450D01*
X91244500Y-86816550D01*
X91278949Y-86945116D01*
X91345499Y-87060384D01*
X91345501Y-87060386D01*
X91445363Y-87160248D01*
X91443516Y-87162094D01*
X91477077Y-87208073D01*
X91481219Y-87277819D01*
X91446996Y-87338734D01*
X91442387Y-87342727D01*
X91345501Y-87439613D01*
X91345497Y-87439619D01*
X91278950Y-87554881D01*
X91278949Y-87554884D01*
X91244500Y-87683450D01*
X91244500Y-87816550D01*
X91278949Y-87945116D01*
X91345499Y-88060384D01*
X91439616Y-88154501D01*
X91554884Y-88221051D01*
X91683450Y-88255500D01*
X91683452Y-88255500D01*
X91816548Y-88255500D01*
X91816550Y-88255500D01*
X91945116Y-88221051D01*
X92060384Y-88154501D01*
X92154501Y-88060384D01*
X92154501Y-88060383D01*
X92160248Y-88054637D01*
X92162096Y-88056485D01*
X92208052Y-88022930D01*
X92277798Y-88018775D01*
X92338718Y-88052987D01*
X92342716Y-88057601D01*
X92345499Y-88060384D01*
X92439616Y-88154501D01*
X92554884Y-88221051D01*
X92683450Y-88255500D01*
X92683452Y-88255500D01*
X92816548Y-88255500D01*
X92816550Y-88255500D01*
X92945116Y-88221051D01*
X93060384Y-88154501D01*
X93154501Y-88060384D01*
X93221051Y-87945116D01*
X93255500Y-87816550D01*
X93255500Y-87683450D01*
X93221051Y-87554884D01*
X93154501Y-87439616D01*
X93060384Y-87345499D01*
X93054637Y-87339752D01*
X93056485Y-87337903D01*
X93022930Y-87291948D01*
X93018775Y-87222202D01*
X93052987Y-87161282D01*
X93057601Y-87157283D01*
X93060381Y-87154502D01*
X93060384Y-87154501D01*
X93154501Y-87060384D01*
X93221051Y-86945116D01*
X93255500Y-86816550D01*
X93255500Y-86683450D01*
X93221051Y-86554884D01*
X93154501Y-86439616D01*
X93060384Y-86345499D01*
X92980187Y-86299197D01*
X92945118Y-86278950D01*
X92945117Y-86278949D01*
X92945116Y-86278949D01*
X92816550Y-86244500D01*
X92683450Y-86244500D01*
X92554884Y-86278949D01*
X92554881Y-86278950D01*
X92439619Y-86345497D01*
X92439613Y-86345501D01*
X92339752Y-86445363D01*
X92337905Y-86443516D01*
X92291927Y-86477077D01*
X92222181Y-86481219D01*
X92161266Y-86446996D01*
X92157272Y-86442387D01*
X92060386Y-86345501D01*
X92060384Y-86345499D01*
X91980187Y-86299197D01*
X91945118Y-86278950D01*
X91945117Y-86278949D01*
X91945116Y-86278949D01*
X91816550Y-86244500D01*
X91683450Y-86244500D01*
X91554884Y-86278949D01*
X91554881Y-86278950D01*
X91439619Y-86345497D01*
X91439613Y-86345501D01*
X91345501Y-86439613D01*
X91345497Y-86439619D01*
X91278950Y-86554881D01*
X91278949Y-86554884D01*
X91244500Y-86683450D01*
X84129590Y-86683450D01*
X84131186Y-86675428D01*
X84136019Y-86651132D01*
X84145499Y-86603469D01*
X84145500Y-86603466D01*
X84145500Y-86396534D01*
X84145499Y-86396530D01*
X84137417Y-86355899D01*
X84105130Y-86193580D01*
X84025941Y-86002402D01*
X83910977Y-85830345D01*
X83910975Y-85830342D01*
X83764657Y-85684024D01*
X83678626Y-85626541D01*
X83592598Y-85569059D01*
X83401420Y-85489870D01*
X83401412Y-85489868D01*
X83198469Y-85449500D01*
X83198465Y-85449500D01*
X82691535Y-85449500D01*
X82691530Y-85449500D01*
X82488587Y-85489868D01*
X82488579Y-85489870D01*
X82297403Y-85569058D01*
X82125342Y-85684024D01*
X81979024Y-85830342D01*
X81864058Y-86002403D01*
X81784870Y-86193579D01*
X81784868Y-86193587D01*
X81744500Y-86396530D01*
X73700500Y-86396530D01*
X73700500Y-83345730D01*
X81744500Y-83345730D01*
X81744500Y-84654269D01*
X81747353Y-84684699D01*
X81747353Y-84684701D01*
X81792206Y-84812880D01*
X81792207Y-84812882D01*
X81872850Y-84922150D01*
X81982118Y-85002793D01*
X82024845Y-85017744D01*
X82110299Y-85047646D01*
X82140730Y-85050500D01*
X82140734Y-85050500D01*
X83749270Y-85050500D01*
X83779699Y-85047646D01*
X83779701Y-85047646D01*
X83843790Y-85025219D01*
X83907882Y-85002793D01*
X84017150Y-84922150D01*
X84097793Y-84812882D01*
X84120219Y-84748790D01*
X84142646Y-84684701D01*
X84142646Y-84684699D01*
X84145500Y-84654269D01*
X84145500Y-83345730D01*
X84142646Y-83315300D01*
X84142646Y-83315298D01*
X84097793Y-83187119D01*
X84097792Y-83187117D01*
X84017150Y-83077850D01*
X83907882Y-82997207D01*
X83907880Y-82997206D01*
X83779700Y-82952353D01*
X83749270Y-82949500D01*
X83749266Y-82949500D01*
X82140734Y-82949500D01*
X82140730Y-82949500D01*
X82110300Y-82952353D01*
X82110298Y-82952353D01*
X81982119Y-82997206D01*
X81982117Y-82997207D01*
X81872850Y-83077850D01*
X81792207Y-83187117D01*
X81792206Y-83187119D01*
X81747353Y-83315298D01*
X81747353Y-83315300D01*
X81744500Y-83345730D01*
X73700500Y-83345730D01*
X73700500Y-77896530D01*
X81744500Y-77896530D01*
X81744500Y-78103469D01*
X81784868Y-78306412D01*
X81784870Y-78306420D01*
X81864058Y-78497596D01*
X81979024Y-78669657D01*
X82125342Y-78815975D01*
X82125345Y-78815977D01*
X82297402Y-78930941D01*
X82488580Y-79010130D01*
X82691530Y-79050499D01*
X82691534Y-79050500D01*
X82691535Y-79050500D01*
X83198466Y-79050500D01*
X83198467Y-79050499D01*
X83401420Y-79010130D01*
X83592598Y-78930941D01*
X83764655Y-78815977D01*
X83910977Y-78669655D01*
X84025941Y-78497598D01*
X84105130Y-78306420D01*
X84145500Y-78103465D01*
X84145500Y-77896535D01*
X84105130Y-77693580D01*
X84025941Y-77502402D01*
X83910977Y-77330345D01*
X83910975Y-77330342D01*
X83764657Y-77184024D01*
X83674208Y-77123589D01*
X83592598Y-77069059D01*
X83543954Y-77048910D01*
X83401420Y-76989870D01*
X83401412Y-76989868D01*
X83198469Y-76949500D01*
X83198465Y-76949500D01*
X82691535Y-76949500D01*
X82691530Y-76949500D01*
X82488587Y-76989868D01*
X82488579Y-76989870D01*
X82297403Y-77069058D01*
X82125342Y-77184024D01*
X81979024Y-77330342D01*
X81864058Y-77502403D01*
X81784870Y-77693579D01*
X81784868Y-77693587D01*
X81744500Y-77896530D01*
X73700500Y-77896530D01*
X73700500Y-74845730D01*
X81744500Y-74845730D01*
X81744500Y-76154269D01*
X81747353Y-76184699D01*
X81747353Y-76184701D01*
X81792206Y-76312880D01*
X81792207Y-76312882D01*
X81872850Y-76422150D01*
X81982118Y-76502793D01*
X82024845Y-76517744D01*
X82110299Y-76547646D01*
X82140730Y-76550500D01*
X82140734Y-76550500D01*
X83749270Y-76550500D01*
X83779699Y-76547646D01*
X83779701Y-76547646D01*
X83843790Y-76525219D01*
X83907882Y-76502793D01*
X84017150Y-76422150D01*
X84097793Y-76312882D01*
X84120219Y-76248790D01*
X84142646Y-76184701D01*
X84142646Y-76184699D01*
X84145500Y-76154269D01*
X84145500Y-74845730D01*
X84142646Y-74815300D01*
X84142646Y-74815298D01*
X84102630Y-74700941D01*
X84097793Y-74687118D01*
X84017150Y-74577850D01*
X83907882Y-74497207D01*
X83907880Y-74497206D01*
X83779700Y-74452353D01*
X83749270Y-74449500D01*
X83749266Y-74449500D01*
X82140734Y-74449500D01*
X82140730Y-74449500D01*
X82110300Y-74452353D01*
X82110298Y-74452353D01*
X81982119Y-74497206D01*
X81982117Y-74497207D01*
X81872850Y-74577850D01*
X81792207Y-74687117D01*
X81792206Y-74687119D01*
X81747353Y-74815298D01*
X81747353Y-74815300D01*
X81744500Y-74845730D01*
X73700500Y-74845730D01*
X73700500Y-68253052D01*
X73700649Y-68246967D01*
X73705529Y-68147648D01*
X76199500Y-68147648D01*
X76199500Y-68352351D01*
X76231522Y-68554534D01*
X76294781Y-68749223D01*
X76387715Y-68931613D01*
X76508028Y-69097213D01*
X76652786Y-69241971D01*
X76807749Y-69354556D01*
X76818390Y-69362287D01*
X76900384Y-69404065D01*
X77000776Y-69455218D01*
X77000778Y-69455218D01*
X77000781Y-69455220D01*
X77105137Y-69489127D01*
X77195465Y-69518477D01*
X77296557Y-69534488D01*
X77397648Y-69550500D01*
X77397649Y-69550500D01*
X77602351Y-69550500D01*
X77602352Y-69550500D01*
X77804534Y-69518477D01*
X77999219Y-69455220D01*
X78150825Y-69377973D01*
X82949500Y-69377973D01*
X82949500Y-69622027D01*
X82987679Y-69863076D01*
X83063096Y-70095185D01*
X83160478Y-70286309D01*
X83173896Y-70312642D01*
X83317339Y-70510076D01*
X83317343Y-70510081D01*
X83489918Y-70682656D01*
X83489923Y-70682660D01*
X83541077Y-70719825D01*
X83687361Y-70826106D01*
X83904815Y-70936904D01*
X84136924Y-71012321D01*
X84377973Y-71050500D01*
X84377974Y-71050500D01*
X84622026Y-71050500D01*
X84622027Y-71050500D01*
X84863076Y-71012321D01*
X85095185Y-70936904D01*
X85312639Y-70826106D01*
X85510083Y-70682655D01*
X85682655Y-70510083D01*
X85826106Y-70312639D01*
X85936904Y-70095185D01*
X86012321Y-69863076D01*
X86050500Y-69622027D01*
X86050500Y-69377973D01*
X86012321Y-69136924D01*
X85936904Y-68904815D01*
X85826106Y-68687361D01*
X85729602Y-68554534D01*
X85682660Y-68489923D01*
X85682656Y-68489918D01*
X85510081Y-68317343D01*
X85510076Y-68317339D01*
X85312642Y-68173896D01*
X85312641Y-68173895D01*
X85312639Y-68173894D01*
X85095185Y-68063096D01*
X84863076Y-67987679D01*
X84863074Y-67987678D01*
X84863072Y-67987678D01*
X84694769Y-67961021D01*
X84622027Y-67949500D01*
X84377973Y-67949500D01*
X84322093Y-67958350D01*
X84136927Y-67987678D01*
X83904812Y-68063097D01*
X83687357Y-68173896D01*
X83489923Y-68317339D01*
X83489918Y-68317343D01*
X83317343Y-68489918D01*
X83317339Y-68489923D01*
X83173896Y-68687357D01*
X83063097Y-68904812D01*
X82987678Y-69136927D01*
X82961782Y-69300430D01*
X82949500Y-69377973D01*
X78150825Y-69377973D01*
X78181610Y-69362287D01*
X78238697Y-69320811D01*
X78304804Y-69272783D01*
X78347213Y-69241971D01*
X78347215Y-69241968D01*
X78347219Y-69241966D01*
X78491966Y-69097219D01*
X78491968Y-69097215D01*
X78491971Y-69097213D01*
X78544732Y-69024590D01*
X78612287Y-68931610D01*
X78705220Y-68749219D01*
X78768477Y-68554534D01*
X78800500Y-68352352D01*
X78800500Y-68147648D01*
X78768477Y-67945466D01*
X78705220Y-67750781D01*
X78705218Y-67750778D01*
X78705218Y-67750776D01*
X78663578Y-67669054D01*
X78612287Y-67568390D01*
X78573339Y-67514782D01*
X78491971Y-67402786D01*
X78347213Y-67258028D01*
X78181613Y-67137715D01*
X78181612Y-67137714D01*
X78181610Y-67137713D01*
X78124653Y-67108691D01*
X77999223Y-67044781D01*
X77804534Y-66981522D01*
X77629995Y-66953878D01*
X77602352Y-66949500D01*
X77397648Y-66949500D01*
X77373329Y-66953351D01*
X77195465Y-66981522D01*
X77000776Y-67044781D01*
X76818386Y-67137715D01*
X76652786Y-67258028D01*
X76508028Y-67402786D01*
X76387715Y-67568386D01*
X76294781Y-67750776D01*
X76231522Y-67945465D01*
X76199500Y-68147648D01*
X73705529Y-68147648D01*
X73706067Y-68136691D01*
X73706067Y-68136690D01*
X73718497Y-67883665D01*
X73719690Y-67871555D01*
X73737605Y-67750781D01*
X73772614Y-67514765D01*
X73774981Y-67502863D01*
X73862631Y-67152947D01*
X73866152Y-67141341D01*
X73987672Y-66801717D01*
X73992314Y-66790509D01*
X74146547Y-66464409D01*
X74152262Y-66453717D01*
X74337704Y-66144327D01*
X74344447Y-66134234D01*
X74359401Y-66114071D01*
X100199499Y-66114071D01*
X100224497Y-66239738D01*
X100224499Y-66239744D01*
X100273533Y-66358124D01*
X100273538Y-66358133D01*
X100344723Y-66464668D01*
X100344726Y-66464672D01*
X100435327Y-66555273D01*
X100435331Y-66555276D01*
X100541866Y-66626461D01*
X100541872Y-66626464D01*
X100541873Y-66626465D01*
X100660256Y-66675501D01*
X100660260Y-66675501D01*
X100660261Y-66675502D01*
X100785928Y-66700500D01*
X100785931Y-66700500D01*
X100914071Y-66700500D01*
X100998615Y-66683682D01*
X101039744Y-66675501D01*
X101158127Y-66626465D01*
X101264669Y-66555276D01*
X101355276Y-66464669D01*
X101426465Y-66358127D01*
X101475501Y-66239744D01*
X101495519Y-66139111D01*
X101500500Y-66114071D01*
X103199499Y-66114071D01*
X103224497Y-66239738D01*
X103224499Y-66239744D01*
X103273533Y-66358124D01*
X103273538Y-66358133D01*
X103344723Y-66464668D01*
X103344726Y-66464672D01*
X103435327Y-66555273D01*
X103435331Y-66555276D01*
X103541866Y-66626461D01*
X103541872Y-66626464D01*
X103541873Y-66626465D01*
X103660256Y-66675501D01*
X103660260Y-66675501D01*
X103660261Y-66675502D01*
X103785928Y-66700500D01*
X103785931Y-66700500D01*
X103914071Y-66700500D01*
X103998615Y-66683682D01*
X104039744Y-66675501D01*
X104158127Y-66626465D01*
X104264669Y-66555276D01*
X104355276Y-66464669D01*
X104426465Y-66358127D01*
X104475501Y-66239744D01*
X104495519Y-66139111D01*
X104500500Y-66114071D01*
X104500500Y-65985928D01*
X104475502Y-65860261D01*
X104475501Y-65860260D01*
X104475501Y-65860256D01*
X104426465Y-65741873D01*
X104426464Y-65741872D01*
X104426461Y-65741866D01*
X104355276Y-65635331D01*
X104355273Y-65635327D01*
X104264672Y-65544726D01*
X104264668Y-65544723D01*
X104158133Y-65473538D01*
X104158124Y-65473533D01*
X104039744Y-65424499D01*
X104039738Y-65424497D01*
X103914071Y-65399500D01*
X103914069Y-65399500D01*
X103785931Y-65399500D01*
X103785929Y-65399500D01*
X103660261Y-65424497D01*
X103660255Y-65424499D01*
X103541875Y-65473533D01*
X103541866Y-65473538D01*
X103435331Y-65544723D01*
X103435327Y-65544726D01*
X103344726Y-65635327D01*
X103344723Y-65635331D01*
X103273538Y-65741866D01*
X103273533Y-65741875D01*
X103224499Y-65860255D01*
X103224497Y-65860261D01*
X103199500Y-65985928D01*
X103199500Y-65985931D01*
X103199500Y-66114069D01*
X103199500Y-66114071D01*
X103199499Y-66114071D01*
X101500500Y-66114071D01*
X101500500Y-65985928D01*
X101475502Y-65860261D01*
X101475501Y-65860260D01*
X101475501Y-65860256D01*
X101426465Y-65741873D01*
X101426464Y-65741872D01*
X101426461Y-65741866D01*
X101355276Y-65635331D01*
X101355273Y-65635327D01*
X101264672Y-65544726D01*
X101264668Y-65544723D01*
X101158133Y-65473538D01*
X101158124Y-65473533D01*
X101039744Y-65424499D01*
X101039738Y-65424497D01*
X100914071Y-65399500D01*
X100914069Y-65399500D01*
X100785931Y-65399500D01*
X100785929Y-65399500D01*
X100660261Y-65424497D01*
X100660255Y-65424499D01*
X100541875Y-65473533D01*
X100541866Y-65473538D01*
X100435331Y-65544723D01*
X100435327Y-65544726D01*
X100344726Y-65635327D01*
X100344723Y-65635331D01*
X100273538Y-65741866D01*
X100273533Y-65741875D01*
X100224499Y-65860255D01*
X100224497Y-65860261D01*
X100199500Y-65985928D01*
X100199500Y-65985931D01*
X100199500Y-66114069D01*
X100199500Y-66114071D01*
X100199499Y-66114071D01*
X74359401Y-66114071D01*
X74547641Y-65860261D01*
X74559322Y-65844511D01*
X74567032Y-65835115D01*
X74809273Y-65567843D01*
X74817843Y-65559273D01*
X75085115Y-65317032D01*
X75094500Y-65309329D01*
X75384234Y-65094447D01*
X75394327Y-65087704D01*
X75703717Y-64902262D01*
X75714409Y-64896547D01*
X76040509Y-64742314D01*
X76051717Y-64737672D01*
X76391341Y-64616152D01*
X76402947Y-64612631D01*
X76752863Y-64524981D01*
X76764765Y-64522614D01*
X77121561Y-64469689D01*
X77133659Y-64468497D01*
X77490800Y-64450952D01*
X77496968Y-64450649D01*
X77503052Y-64450500D01*
X77539882Y-64450500D01*
X126306490Y-64450500D01*
X126373529Y-64470185D01*
G37*
%TD.AperFunction*%
%TA.AperFunction,Conductor*%
G36*
X108411515Y-105341959D02*
G01*
X108448132Y-105354772D01*
X108449131Y-105355300D01*
X108449717Y-105355338D01*
X108480809Y-105372042D01*
X108510157Y-105393701D01*
X108536295Y-105419838D01*
X108557957Y-105449189D01*
X108575227Y-105481866D01*
X108588041Y-105518485D01*
X108595000Y-105559439D01*
X108595000Y-107050559D01*
X108594305Y-107054648D01*
X108594839Y-107056882D01*
X108588041Y-107091515D01*
X108575228Y-107128131D01*
X108557959Y-107160806D01*
X108536298Y-107190157D01*
X108510157Y-107216298D01*
X108480806Y-107237959D01*
X108448132Y-107255227D01*
X108411512Y-107268041D01*
X108370560Y-107275000D01*
X107129442Y-107275000D01*
X107125352Y-107274305D01*
X107123118Y-107274839D01*
X107088485Y-107268041D01*
X107051864Y-107255226D01*
X107019189Y-107237956D01*
X106989840Y-107216296D01*
X106963701Y-107190157D01*
X106942042Y-107160809D01*
X106924771Y-107128131D01*
X106911958Y-107091513D01*
X106905000Y-107050559D01*
X106905000Y-105559437D01*
X106905694Y-105555350D01*
X106905161Y-105553119D01*
X106911957Y-105518486D01*
X106924772Y-105481860D01*
X106942038Y-105449192D01*
X106963708Y-105419830D01*
X106989830Y-105393708D01*
X107019192Y-105372038D01*
X107051863Y-105354771D01*
X107088482Y-105341959D01*
X107088488Y-105341957D01*
X107129438Y-105335000D01*
X108370560Y-105335000D01*
X108411515Y-105341959D01*
G37*
%TD.AperFunction*%
%TA.AperFunction,Conductor*%
G36*
X118610703Y-97351769D02*
G01*
X118617181Y-97357801D01*
X122668365Y-101408986D01*
X122668366Y-101408987D01*
X122684716Y-101423674D01*
X122684730Y-101423686D01*
X122684738Y-101423693D01*
X122693136Y-101430460D01*
X122705379Y-101440327D01*
X122776424Y-101477490D01*
X122843456Y-101497173D01*
X122843458Y-101497173D01*
X122843464Y-101497175D01*
X122901362Y-101505500D01*
X124363518Y-101505500D01*
X124430557Y-101525185D01*
X124451199Y-101541819D01*
X128842199Y-105932819D01*
X128875684Y-105994142D01*
X128870700Y-106063834D01*
X128828828Y-106119767D01*
X128763364Y-106144184D01*
X128754518Y-106144500D01*
X124723992Y-106144500D01*
X124680313Y-106149197D01*
X124628825Y-106160397D01*
X124618627Y-106162890D01*
X124618624Y-106162891D01*
X124537916Y-106205899D01*
X124537913Y-106205901D01*
X124485104Y-106251660D01*
X124467160Y-106269242D01*
X124467154Y-106269249D01*
X124422511Y-106349059D01*
X124422509Y-106349064D01*
X124402826Y-106416096D01*
X124394500Y-106474003D01*
X124394500Y-106654518D01*
X124374815Y-106721557D01*
X124322011Y-106767312D01*
X124252853Y-106777256D01*
X124189297Y-106748231D01*
X124182819Y-106742199D01*
X118441819Y-101001199D01*
X118408334Y-100939876D01*
X118405500Y-100913518D01*
X118405500Y-97445482D01*
X118425185Y-97378443D01*
X118477989Y-97332688D01*
X118547147Y-97322744D01*
X118610703Y-97351769D01*
G37*
%TD.AperFunction*%
%TA.AperFunction,Conductor*%
G36*
X100092095Y-98306061D02*
G01*
X100341762Y-98338929D01*
X100357653Y-98342090D01*
X100600922Y-98407274D01*
X100616263Y-98412482D01*
X100807251Y-98491591D01*
X100848899Y-98508842D01*
X100863447Y-98516016D01*
X101081544Y-98641934D01*
X101095030Y-98650945D01*
X101294799Y-98804233D01*
X101306994Y-98814928D01*
X101485058Y-98992991D01*
X101495752Y-99005185D01*
X101649060Y-99204978D01*
X101658072Y-99218465D01*
X101783976Y-99436539D01*
X101791150Y-99451086D01*
X101887515Y-99683731D01*
X101892729Y-99699090D01*
X101957907Y-99942339D01*
X101961070Y-99958243D01*
X101993939Y-100207904D01*
X101995000Y-100224089D01*
X101995000Y-100475909D01*
X101993939Y-100492094D01*
X101961070Y-100741755D01*
X101957906Y-100757664D01*
X101892729Y-101000908D01*
X101887515Y-101016267D01*
X101791150Y-101248912D01*
X101783976Y-101263459D01*
X101658072Y-101481533D01*
X101649060Y-101495020D01*
X101495749Y-101694817D01*
X101485055Y-101707011D01*
X101307011Y-101885055D01*
X101294817Y-101895749D01*
X101095020Y-102049060D01*
X101081533Y-102058072D01*
X100863459Y-102183976D01*
X100848912Y-102191150D01*
X100616267Y-102287515D01*
X100600908Y-102292729D01*
X100414103Y-102342783D01*
X100364714Y-102356017D01*
X100357664Y-102357906D01*
X100341755Y-102361070D01*
X100092093Y-102393939D01*
X100075910Y-102395000D01*
X99824091Y-102395000D01*
X99807906Y-102393939D01*
X99558243Y-102361070D01*
X99542339Y-102357907D01*
X99299090Y-102292729D01*
X99283731Y-102287515D01*
X99051086Y-102191150D01*
X99036539Y-102183976D01*
X98820968Y-102059517D01*
X98818461Y-102058069D01*
X98804982Y-102049063D01*
X98615278Y-101903498D01*
X98605191Y-101895758D01*
X98592997Y-101885063D01*
X98414940Y-101707007D01*
X98404246Y-101694813D01*
X98250940Y-101495023D01*
X98241935Y-101481547D01*
X98116020Y-101263455D01*
X98108850Y-101248914D01*
X98012484Y-101016266D01*
X98007270Y-101000907D01*
X97942093Y-100757664D01*
X97942090Y-100757653D01*
X97938929Y-100741762D01*
X97906061Y-100492094D01*
X97905000Y-100475910D01*
X97905000Y-100224088D01*
X97906061Y-100207903D01*
X97934765Y-99989870D01*
X97938930Y-99958233D01*
X97942090Y-99942345D01*
X98007274Y-99699075D01*
X98012478Y-99683743D01*
X98108847Y-99451086D01*
X98116017Y-99436549D01*
X98143437Y-99389055D01*
X98241933Y-99218453D01*
X98250929Y-99204988D01*
X98404248Y-99005179D01*
X98414929Y-98993001D01*
X98593003Y-98814928D01*
X98605179Y-98804248D01*
X98804988Y-98650929D01*
X98818453Y-98641933D01*
X99036549Y-98516017D01*
X99051086Y-98508847D01*
X99283743Y-98412478D01*
X99299075Y-98407274D01*
X99542345Y-98342090D01*
X99558233Y-98338930D01*
X99807904Y-98306061D01*
X99824089Y-98305000D01*
X100075910Y-98305000D01*
X100092095Y-98306061D01*
G37*
%TD.AperFunction*%
%TA.AperFunction,Conductor*%
G36*
X134107417Y-72099185D02*
G01*
X134128059Y-72115819D01*
X134375244Y-72363004D01*
X134408729Y-72424327D01*
X134403745Y-72494019D01*
X134361873Y-72549952D01*
X134296409Y-72574369D01*
X134240111Y-72565246D01*
X134106424Y-72509871D01*
X134106412Y-72509868D01*
X133903469Y-72469500D01*
X133903465Y-72469500D01*
X133696535Y-72469500D01*
X133696530Y-72469500D01*
X133493587Y-72509868D01*
X133493579Y-72509870D01*
X133302403Y-72589058D01*
X133130342Y-72704024D01*
X132984024Y-72850342D01*
X132869058Y-73022403D01*
X132789870Y-73213579D01*
X132789868Y-73213587D01*
X132749500Y-73416530D01*
X132749500Y-73873469D01*
X132789868Y-74076412D01*
X132789870Y-74076420D01*
X132853696Y-74230510D01*
X132869059Y-74267598D01*
X132877999Y-74280978D01*
X132984024Y-74439657D01*
X133130339Y-74585972D01*
X133130346Y-74585978D01*
X133173483Y-74614801D01*
X133180586Y-74622097D01*
X133186640Y-74624929D01*
X133209506Y-74651804D01*
X133255043Y-74724089D01*
X133256977Y-74727159D01*
X133265322Y-74742780D01*
X133354728Y-74943414D01*
X133360247Y-74958293D01*
X133431885Y-75197364D01*
X133434899Y-75209684D01*
X133454644Y-75313016D01*
X133456160Y-75323247D01*
X133465989Y-75416182D01*
X133466627Y-75425715D01*
X133467260Y-75448104D01*
X133467261Y-75448106D01*
X133469577Y-75458583D01*
X133472500Y-75485347D01*
X133472500Y-75543116D01*
X133494819Y-75626410D01*
X133528741Y-75685166D01*
X133537934Y-75701088D01*
X133537936Y-75701091D01*
X133936181Y-76099336D01*
X133969666Y-76160659D01*
X133972500Y-76187017D01*
X133972500Y-77218647D01*
X133971984Y-77229951D01*
X133971103Y-77239573D01*
X133967201Y-77255059D01*
X133964137Y-77315671D01*
X133963906Y-77318197D01*
X133963557Y-77319077D01*
X133962263Y-77329929D01*
X133958566Y-77349483D01*
X133953813Y-77367270D01*
X133939899Y-77407178D01*
X133899241Y-77464000D01*
X133834317Y-77489820D01*
X133765740Y-77476441D01*
X133735130Y-77454036D01*
X131683873Y-75402779D01*
X131683079Y-75401325D01*
X131681646Y-75400494D01*
X131666395Y-75370772D01*
X131650388Y-75341456D01*
X131650263Y-75339330D01*
X131649750Y-75338330D01*
X131648138Y-75303080D01*
X131648694Y-75297366D01*
X131651749Y-75279575D01*
X131710109Y-75044137D01*
X131713660Y-75032355D01*
X131755385Y-74915330D01*
X131758656Y-74907100D01*
X131760667Y-74902525D01*
X131810564Y-74788968D01*
X131814765Y-74780333D01*
X131865584Y-74685411D01*
X131871140Y-74676050D01*
X131882123Y-74659268D01*
X131885499Y-74654109D01*
X131920362Y-74618912D01*
X131969655Y-74585977D01*
X132115977Y-74439655D01*
X132230941Y-74267598D01*
X132310130Y-74076420D01*
X132350500Y-73873465D01*
X132350500Y-73416535D01*
X132310130Y-73213580D01*
X132230941Y-73022402D01*
X132115977Y-72850345D01*
X132115975Y-72850342D01*
X131969657Y-72704024D01*
X131883626Y-72646541D01*
X131797598Y-72589059D01*
X131762133Y-72574369D01*
X131606420Y-72509870D01*
X131606412Y-72509868D01*
X131397490Y-72468311D01*
X131397807Y-72466716D01*
X131390078Y-72463595D01*
X131373924Y-72462440D01*
X131358348Y-72450779D01*
X131340309Y-72443494D01*
X131330954Y-72430272D01*
X131317991Y-72420568D01*
X131311192Y-72402340D01*
X131299954Y-72386456D01*
X131299232Y-72370275D01*
X131293574Y-72355104D01*
X131297709Y-72336094D01*
X131296843Y-72316655D01*
X131305140Y-72301932D01*
X131308426Y-72286831D01*
X131329572Y-72258582D01*
X131472338Y-72115816D01*
X131533659Y-72082334D01*
X131560017Y-72079500D01*
X134040378Y-72079500D01*
X134107417Y-72099185D01*
G37*
%TD.AperFunction*%
%TD*%
%TA.AperFunction,Conductor*%
%TO.N,+BATT*%
G36*
X102559191Y-97818907D02*
G01*
X102595155Y-97868407D01*
X102600000Y-97899000D01*
X102600000Y-103250000D01*
X113801000Y-103250000D01*
X113859191Y-103268907D01*
X113895155Y-103318407D01*
X113900000Y-103349000D01*
X113900000Y-116049500D01*
X88199000Y-116049500D01*
X88140809Y-116030593D01*
X88104845Y-115981093D01*
X88100000Y-115950500D01*
X88100000Y-105330253D01*
X88949500Y-105330253D01*
X88949500Y-107369746D01*
X88949501Y-107369758D01*
X88961132Y-107428227D01*
X88961134Y-107428233D01*
X89005445Y-107494548D01*
X89005448Y-107494552D01*
X89071769Y-107538867D01*
X89116231Y-107547711D01*
X89130241Y-107550498D01*
X89130246Y-107550498D01*
X89130252Y-107550500D01*
X89130253Y-107550500D01*
X90069747Y-107550500D01*
X90069748Y-107550500D01*
X90128231Y-107538867D01*
X90194552Y-107494552D01*
X90238867Y-107428231D01*
X90250500Y-107369748D01*
X90250500Y-105330253D01*
X102449500Y-105330253D01*
X102449500Y-107369746D01*
X102449501Y-107369758D01*
X102461132Y-107428227D01*
X102461134Y-107428233D01*
X102505445Y-107494548D01*
X102505448Y-107494552D01*
X102571769Y-107538867D01*
X102616231Y-107547711D01*
X102630241Y-107550498D01*
X102630246Y-107550498D01*
X102630252Y-107550500D01*
X102630253Y-107550500D01*
X103569747Y-107550500D01*
X103569748Y-107550500D01*
X103628231Y-107538867D01*
X103694552Y-107494552D01*
X103738867Y-107428231D01*
X103750500Y-107369748D01*
X103750500Y-105525725D01*
X106699500Y-105525725D01*
X106699500Y-107084274D01*
X106702353Y-107114694D01*
X106702355Y-107114703D01*
X106747207Y-107242883D01*
X106827845Y-107352144D01*
X106827847Y-107352146D01*
X106827850Y-107352150D01*
X106827853Y-107352152D01*
X106827855Y-107352154D01*
X106937116Y-107432792D01*
X106937117Y-107432792D01*
X106937118Y-107432793D01*
X107065301Y-107477646D01*
X107095725Y-107480499D01*
X107095727Y-107480500D01*
X107095734Y-107480500D01*
X108404273Y-107480500D01*
X108404273Y-107480499D01*
X108434699Y-107477646D01*
X108562882Y-107432793D01*
X108672150Y-107352150D01*
X108752793Y-107242882D01*
X108797646Y-107114699D01*
X108800499Y-107084273D01*
X108800500Y-107084273D01*
X108800500Y-106076532D01*
X109199500Y-106076532D01*
X109199500Y-106533467D01*
X109239869Y-106736418D01*
X109319058Y-106927597D01*
X109434020Y-107099651D01*
X109434023Y-107099655D01*
X109580345Y-107245977D01*
X109752402Y-107360941D01*
X109943580Y-107440130D01*
X110146535Y-107480500D01*
X110146536Y-107480500D01*
X110353464Y-107480500D01*
X110353465Y-107480500D01*
X110556420Y-107440130D01*
X110747598Y-107360941D01*
X110919655Y-107245977D01*
X111065977Y-107099655D01*
X111180941Y-106927598D01*
X111260130Y-106736420D01*
X111300500Y-106533465D01*
X111300500Y-106076535D01*
X111260130Y-105873580D01*
X111180941Y-105682402D01*
X111065977Y-105510345D01*
X110919655Y-105364023D01*
X110919651Y-105364020D01*
X110747597Y-105249058D01*
X110556418Y-105169869D01*
X110353467Y-105129500D01*
X110353465Y-105129500D01*
X110146535Y-105129500D01*
X110146532Y-105129500D01*
X109943581Y-105169869D01*
X109752402Y-105249058D01*
X109580348Y-105364020D01*
X109434020Y-105510348D01*
X109319058Y-105682402D01*
X109239869Y-105873581D01*
X109199500Y-106076532D01*
X108800500Y-106076532D01*
X108800500Y-105525727D01*
X108800499Y-105525725D01*
X108797646Y-105495305D01*
X108797646Y-105495301D01*
X108752793Y-105367118D01*
X108682420Y-105271766D01*
X108672154Y-105257855D01*
X108672152Y-105257853D01*
X108672150Y-105257850D01*
X108672146Y-105257847D01*
X108672144Y-105257845D01*
X108562883Y-105177207D01*
X108434703Y-105132355D01*
X108434694Y-105132353D01*
X108404274Y-105129500D01*
X108404266Y-105129500D01*
X107095734Y-105129500D01*
X107095725Y-105129500D01*
X107065305Y-105132353D01*
X107065296Y-105132355D01*
X106937116Y-105177207D01*
X106827855Y-105257845D01*
X106827845Y-105257855D01*
X106747207Y-105367116D01*
X106702355Y-105495296D01*
X106702353Y-105495305D01*
X106699500Y-105525725D01*
X103750500Y-105525725D01*
X103750500Y-105330252D01*
X103738867Y-105271769D01*
X103694552Y-105205448D01*
X103694548Y-105205445D01*
X103628233Y-105161134D01*
X103628231Y-105161133D01*
X103628228Y-105161132D01*
X103628227Y-105161132D01*
X103569758Y-105149501D01*
X103569748Y-105149500D01*
X102630252Y-105149500D01*
X102630251Y-105149500D01*
X102630241Y-105149501D01*
X102571772Y-105161132D01*
X102571766Y-105161134D01*
X102505451Y-105205445D01*
X102505445Y-105205451D01*
X102461134Y-105271766D01*
X102461132Y-105271772D01*
X102449501Y-105330241D01*
X102449500Y-105330253D01*
X90250500Y-105330253D01*
X90250500Y-105330252D01*
X90238867Y-105271769D01*
X90194552Y-105205448D01*
X90194548Y-105205445D01*
X90128233Y-105161134D01*
X90128231Y-105161133D01*
X90128228Y-105161132D01*
X90128227Y-105161132D01*
X90069758Y-105149501D01*
X90069748Y-105149500D01*
X89130252Y-105149500D01*
X89130251Y-105149500D01*
X89130241Y-105149501D01*
X89071772Y-105161132D01*
X89071766Y-105161134D01*
X89005451Y-105205445D01*
X89005445Y-105205451D01*
X88961134Y-105271766D01*
X88961132Y-105271772D01*
X88949501Y-105330241D01*
X88949500Y-105330253D01*
X88100000Y-105330253D01*
X88100000Y-100202494D01*
X97699500Y-100202494D01*
X97699500Y-100497506D01*
X97738007Y-100789993D01*
X97796470Y-101008183D01*
X97814361Y-101074953D01*
X97927253Y-101347499D01*
X97927255Y-101347503D01*
X97927257Y-101347507D01*
X98074762Y-101602994D01*
X98074764Y-101602997D01*
X98254348Y-101837035D01*
X98254350Y-101837037D01*
X98254354Y-101837042D01*
X98462958Y-102045646D01*
X98462962Y-102045649D01*
X98462964Y-102045651D01*
X98697002Y-102225235D01*
X98697006Y-102225238D01*
X98952493Y-102372743D01*
X99225048Y-102485639D01*
X99510007Y-102561993D01*
X99802494Y-102600500D01*
X99802495Y-102600500D01*
X100097505Y-102600500D01*
X100097506Y-102600500D01*
X100389993Y-102561993D01*
X100674952Y-102485639D01*
X100947507Y-102372743D01*
X101202994Y-102225238D01*
X101437042Y-102045646D01*
X101645646Y-101837042D01*
X101825238Y-101602994D01*
X101972743Y-101347507D01*
X102085639Y-101074952D01*
X102161993Y-100789993D01*
X102200500Y-100497506D01*
X102200500Y-100202494D01*
X102161993Y-99910007D01*
X102085639Y-99625048D01*
X101972743Y-99352493D01*
X101825238Y-99097006D01*
X101645646Y-98862958D01*
X101437042Y-98654354D01*
X101437037Y-98654350D01*
X101437035Y-98654348D01*
X101202997Y-98474764D01*
X101202994Y-98474762D01*
X100947507Y-98327257D01*
X100947503Y-98327255D01*
X100947499Y-98327253D01*
X100674953Y-98214361D01*
X100608183Y-98196470D01*
X100389993Y-98138007D01*
X100389986Y-98138006D01*
X100097506Y-98099500D01*
X99802494Y-98099500D01*
X99802493Y-98099500D01*
X99510013Y-98138006D01*
X99510011Y-98138006D01*
X99510007Y-98138007D01*
X99358584Y-98178580D01*
X99225046Y-98214361D01*
X98952500Y-98327253D01*
X98697002Y-98474764D01*
X98462964Y-98654348D01*
X98254348Y-98862964D01*
X98074764Y-99097002D01*
X97927253Y-99352500D01*
X97814361Y-99625046D01*
X97778580Y-99758584D01*
X97738007Y-99910007D01*
X97699500Y-100202494D01*
X88100000Y-100202494D01*
X88100000Y-97899000D01*
X88118907Y-97840809D01*
X88168407Y-97804845D01*
X88199000Y-97800000D01*
X102501000Y-97800000D01*
X102559191Y-97818907D01*
G37*
%TD.AperFunction*%
%TD*%
%TA.AperFunction,Conductor*%
%TO.N,VBUS*%
G36*
X109193039Y-86519685D02*
G01*
X109238794Y-86572489D01*
X109250000Y-86624000D01*
X109250000Y-95000000D01*
X105805500Y-95000000D01*
X105805500Y-86624000D01*
X105825185Y-86556961D01*
X105877989Y-86511206D01*
X105929500Y-86500000D01*
X109126000Y-86500000D01*
X109193039Y-86519685D01*
G37*
%TD.AperFunction*%
%TD*%
%TA.AperFunction,Conductor*%
%TO.N,VBUS*%
G36*
X115871583Y-95018907D02*
G01*
X115900761Y-95052442D01*
X115905899Y-95062083D01*
X115905898Y-95062083D01*
X115905900Y-95062085D01*
X115951655Y-95114889D01*
X115951667Y-95114901D01*
X115969247Y-95132844D01*
X115969249Y-95132846D01*
X116049058Y-95177488D01*
X116049062Y-95177490D01*
X116116095Y-95197173D01*
X116116102Y-95197175D01*
X116174000Y-95205500D01*
X117895500Y-95205500D01*
X117953691Y-95224407D01*
X117989655Y-95273907D01*
X117994500Y-95304500D01*
X117994500Y-96598656D01*
X117995677Y-96620594D01*
X117995678Y-96620603D01*
X117998511Y-96646961D01*
X117998512Y-96646966D01*
X118022469Y-96723479D01*
X118055957Y-96784806D01*
X118091010Y-96831630D01*
X118171004Y-96911624D01*
X118198781Y-96966141D01*
X118200000Y-96981628D01*
X118200000Y-101050000D01*
X123700000Y-106550000D01*
X124365504Y-107215504D01*
X124393281Y-107270021D01*
X124394500Y-107285508D01*
X124394500Y-109095500D01*
X124375593Y-109153691D01*
X124326093Y-109189655D01*
X124295500Y-109194500D01*
X123626128Y-109194500D01*
X123567937Y-109175593D01*
X123556124Y-109165504D01*
X116834496Y-102443876D01*
X116806719Y-102389359D01*
X116805500Y-102373872D01*
X116805500Y-97474005D01*
X116805500Y-97474000D01*
X116800803Y-97430316D01*
X116789597Y-97378805D01*
X116787110Y-97368627D01*
X116744100Y-97287915D01*
X116698345Y-97235111D01*
X116680754Y-97217157D01*
X116680753Y-97217156D01*
X116680752Y-97217155D01*
X116680750Y-97217153D01*
X116600941Y-97172511D01*
X116600937Y-97172509D01*
X116533904Y-97152826D01*
X116533895Y-97152824D01*
X116487684Y-97146180D01*
X116476000Y-97144500D01*
X116475999Y-97144500D01*
X105904500Y-97144500D01*
X105846309Y-97125593D01*
X105810345Y-97076093D01*
X105805500Y-97045500D01*
X105805500Y-95000000D01*
X109250000Y-95000000D01*
X109250001Y-95000000D01*
X115813392Y-95000000D01*
X115871583Y-95018907D01*
G37*
%TD.AperFunction*%
%TD*%
%TA.AperFunction,Conductor*%
%TO.N,/BATT+_IN*%
G36*
X105543039Y-86519685D02*
G01*
X105588794Y-86572489D01*
X105600000Y-86624000D01*
X105600000Y-97350000D01*
X116476000Y-97350000D01*
X116543039Y-97369685D01*
X116588794Y-97422489D01*
X116600000Y-97474000D01*
X116600000Y-102500000D01*
X123500000Y-109400000D01*
X124600000Y-109400000D01*
X124600000Y-106474000D01*
X124619685Y-106406961D01*
X124672489Y-106361206D01*
X124724000Y-106350000D01*
X129208018Y-106350000D01*
X129237458Y-106358644D01*
X129267445Y-106365168D01*
X129272460Y-106368922D01*
X129275057Y-106369685D01*
X129295699Y-106386319D01*
X129308181Y-106398801D01*
X129341666Y-106460124D01*
X129344500Y-106486482D01*
X129344500Y-110970500D01*
X129324815Y-111037539D01*
X129272011Y-111083294D01*
X129220500Y-111094500D01*
X119386482Y-111094500D01*
X119319443Y-111074815D01*
X119298801Y-111058181D01*
X119255641Y-111015021D01*
X119255636Y-111015016D01*
X119225510Y-110990141D01*
X119186640Y-110963833D01*
X119186637Y-110963831D01*
X119186603Y-110963808D01*
X119181970Y-110960763D01*
X119181962Y-110960759D01*
X119095853Y-110929972D01*
X119095852Y-110929971D01*
X119095850Y-110929971D01*
X119095848Y-110929970D01*
X119095838Y-110929968D01*
X119026493Y-110921679D01*
X119026484Y-110921678D01*
X119026474Y-110921677D01*
X119001378Y-110920225D01*
X119001377Y-110920225D01*
X119001374Y-110920225D01*
X118961938Y-110929368D01*
X118952055Y-110928796D01*
X118942780Y-110932256D01*
X118917755Y-110926812D01*
X118892185Y-110925333D01*
X118882359Y-110919112D01*
X118874507Y-110917404D01*
X118846253Y-110896253D01*
X118700594Y-110750594D01*
X118667109Y-110689271D01*
X118664686Y-110652826D01*
X118664862Y-110650664D01*
X118665524Y-110642556D01*
X118667200Y-110629996D01*
X118667293Y-110629492D01*
X118667297Y-110629480D01*
X118667297Y-110629466D01*
X118667299Y-110629461D01*
X118670699Y-110581891D01*
X118670700Y-110581892D01*
X118672160Y-110561456D01*
X118672244Y-110560372D01*
X118672284Y-110559897D01*
X118672283Y-110559891D01*
X118672311Y-110559559D01*
X118672347Y-110559154D01*
X118672311Y-110556715D01*
X118672536Y-110534657D01*
X118666875Y-110514629D01*
X118663460Y-110498535D01*
X118662343Y-110490763D01*
X118662342Y-110490754D01*
X118657246Y-110466121D01*
X118657244Y-110466116D01*
X118653241Y-110458604D01*
X118653064Y-110458272D01*
X118648521Y-110449685D01*
X118647663Y-110446648D01*
X118641207Y-110434826D01*
X118640783Y-110435057D01*
X118624771Y-110404788D01*
X118624797Y-110404775D01*
X118614900Y-110386650D01*
X118614413Y-110385746D01*
X118614234Y-110385410D01*
X118614233Y-110385409D01*
X118614231Y-110385405D01*
X118612888Y-110383458D01*
X118611423Y-110381649D01*
X118579133Y-110338514D01*
X118579121Y-110338500D01*
X114141819Y-105901198D01*
X114108334Y-105839875D01*
X114105500Y-105813517D01*
X114105500Y-103349006D01*
X114105500Y-103349000D01*
X114102970Y-103316856D01*
X114098125Y-103286263D01*
X114097352Y-103281713D01*
X114061408Y-103197617D01*
X114025444Y-103148117D01*
X114001203Y-103120372D01*
X114001202Y-103120371D01*
X113922694Y-103073464D01*
X113864504Y-103054557D01*
X113801004Y-103044500D01*
X113801000Y-103044500D01*
X102929500Y-103044500D01*
X102862461Y-103024815D01*
X102816706Y-102972011D01*
X102805500Y-102920500D01*
X102805500Y-97899006D01*
X102805500Y-97899000D01*
X102802970Y-97866856D01*
X102798125Y-97836263D01*
X102797352Y-97831713D01*
X102761408Y-97747617D01*
X102725444Y-97698117D01*
X102701203Y-97670372D01*
X102701202Y-97670371D01*
X102622694Y-97623464D01*
X102564504Y-97604557D01*
X102501004Y-97594500D01*
X102501000Y-97594500D01*
X101274000Y-97594500D01*
X101206961Y-97574815D01*
X101161206Y-97522011D01*
X101150000Y-97470500D01*
X101150000Y-86624000D01*
X101169685Y-86556961D01*
X101222489Y-86511206D01*
X101274000Y-86500000D01*
X105476000Y-86500000D01*
X105543039Y-86519685D01*
G37*
%TD.AperFunction*%
%TD*%
%TA.AperFunction,Conductor*%
%TO.N,+BATT*%
G36*
X118868039Y-91294685D02*
G01*
X118913794Y-91347489D01*
X118925000Y-91399000D01*
X118925000Y-92750000D01*
X120638681Y-94463681D01*
X120672166Y-94525004D01*
X120675000Y-94551362D01*
X120675000Y-95550000D01*
X121787500Y-96687500D01*
X121787536Y-96687536D01*
X130913681Y-105813681D01*
X130947166Y-105875004D01*
X130950000Y-105901362D01*
X130950000Y-113251000D01*
X130930315Y-113318039D01*
X130877511Y-113363794D01*
X130826000Y-113375000D01*
X126124999Y-113375000D01*
X123058734Y-116019403D01*
X122995111Y-116048279D01*
X122977751Y-116049500D01*
X113900000Y-116049500D01*
X113900000Y-114324071D01*
X118599499Y-114324071D01*
X118624497Y-114449738D01*
X118624499Y-114449744D01*
X118673533Y-114568124D01*
X118673538Y-114568133D01*
X118744723Y-114674668D01*
X118744726Y-114674672D01*
X118835327Y-114765273D01*
X118835331Y-114765276D01*
X118941866Y-114836461D01*
X118941872Y-114836464D01*
X118941873Y-114836465D01*
X119060256Y-114885501D01*
X119060260Y-114885501D01*
X119060261Y-114885502D01*
X119185928Y-114910500D01*
X119185931Y-114910500D01*
X119314071Y-114910500D01*
X119398615Y-114893682D01*
X119439744Y-114885501D01*
X119558127Y-114836465D01*
X119664669Y-114765276D01*
X119755276Y-114674669D01*
X119826465Y-114568127D01*
X119875501Y-114449744D01*
X119883682Y-114408615D01*
X119900500Y-114324071D01*
X121599499Y-114324071D01*
X121624497Y-114449738D01*
X121624499Y-114449744D01*
X121673533Y-114568124D01*
X121673538Y-114568133D01*
X121744723Y-114674668D01*
X121744726Y-114674672D01*
X121835327Y-114765273D01*
X121835331Y-114765276D01*
X121941866Y-114836461D01*
X121941872Y-114836464D01*
X121941873Y-114836465D01*
X122060256Y-114885501D01*
X122060260Y-114885501D01*
X122060261Y-114885502D01*
X122185928Y-114910500D01*
X122185931Y-114910500D01*
X122314071Y-114910500D01*
X122398615Y-114893682D01*
X122439744Y-114885501D01*
X122558127Y-114836465D01*
X122664669Y-114765276D01*
X122755276Y-114674669D01*
X122826465Y-114568127D01*
X122875501Y-114449744D01*
X122883682Y-114408615D01*
X122900500Y-114324071D01*
X122900500Y-114195928D01*
X122875502Y-114070261D01*
X122875501Y-114070260D01*
X122875501Y-114070256D01*
X122826465Y-113951873D01*
X122826464Y-113951872D01*
X122826461Y-113951866D01*
X122755276Y-113845331D01*
X122755273Y-113845327D01*
X122664672Y-113754726D01*
X122664668Y-113754723D01*
X122558133Y-113683538D01*
X122558124Y-113683533D01*
X122439744Y-113634499D01*
X122439738Y-113634497D01*
X122314071Y-113609500D01*
X122314069Y-113609500D01*
X122185931Y-113609500D01*
X122185929Y-113609500D01*
X122060261Y-113634497D01*
X122060255Y-113634499D01*
X121941875Y-113683533D01*
X121941866Y-113683538D01*
X121835331Y-113754723D01*
X121835327Y-113754726D01*
X121744726Y-113845327D01*
X121744723Y-113845331D01*
X121673538Y-113951866D01*
X121673533Y-113951875D01*
X121624499Y-114070255D01*
X121624497Y-114070261D01*
X121599500Y-114195928D01*
X121599500Y-114195931D01*
X121599500Y-114324069D01*
X121599500Y-114324071D01*
X121599499Y-114324071D01*
X119900500Y-114324071D01*
X119900500Y-114195928D01*
X119875502Y-114070261D01*
X119875501Y-114070260D01*
X119875501Y-114070256D01*
X119826465Y-113951873D01*
X119826464Y-113951872D01*
X119826461Y-113951866D01*
X119755276Y-113845331D01*
X119755273Y-113845327D01*
X119664672Y-113754726D01*
X119664668Y-113754723D01*
X119558133Y-113683538D01*
X119558124Y-113683533D01*
X119439744Y-113634499D01*
X119439738Y-113634497D01*
X119314071Y-113609500D01*
X119314069Y-113609500D01*
X119185931Y-113609500D01*
X119185929Y-113609500D01*
X119060261Y-113634497D01*
X119060255Y-113634499D01*
X118941875Y-113683533D01*
X118941866Y-113683538D01*
X118835331Y-113754723D01*
X118835327Y-113754726D01*
X118744726Y-113845327D01*
X118744723Y-113845331D01*
X118673538Y-113951866D01*
X118673533Y-113951875D01*
X118624499Y-114070255D01*
X118624497Y-114070261D01*
X118599500Y-114195928D01*
X118599500Y-114195931D01*
X118599500Y-114324069D01*
X118599500Y-114324071D01*
X118599499Y-114324071D01*
X113900000Y-114324071D01*
X113900000Y-105950000D01*
X118433819Y-110483819D01*
X118444431Y-110503255D01*
X118458932Y-110519989D01*
X118460848Y-110533320D01*
X118467304Y-110545142D01*
X118465724Y-110567228D01*
X118468876Y-110589147D01*
X118463280Y-110601398D01*
X118462320Y-110614834D01*
X118449049Y-110632560D01*
X118439851Y-110652703D01*
X118428519Y-110659985D01*
X118420448Y-110670767D01*
X118399702Y-110678504D01*
X118381073Y-110690477D01*
X118359154Y-110693628D01*
X118354984Y-110695184D01*
X118346138Y-110695500D01*
X118280938Y-110695500D01*
X118213899Y-110675815D01*
X118193257Y-110659181D01*
X117225072Y-109690996D01*
X117225070Y-109690994D01*
X117121430Y-109631157D01*
X117005836Y-109600183D01*
X116886164Y-109600183D01*
X116809101Y-109620832D01*
X116770569Y-109631157D01*
X116666930Y-109690994D01*
X116666927Y-109690996D01*
X116582312Y-109775611D01*
X116582310Y-109775614D01*
X116522473Y-109879253D01*
X116522473Y-109879254D01*
X116491499Y-109994848D01*
X116491499Y-110114520D01*
X116522473Y-110230114D01*
X116582310Y-110333754D01*
X116582312Y-110333756D01*
X117673284Y-111424728D01*
X117673294Y-111424739D01*
X117677624Y-111429069D01*
X117677625Y-111429070D01*
X117762246Y-111513691D01*
X117847803Y-111563087D01*
X117865881Y-111573525D01*
X117865885Y-111573527D01*
X117890309Y-111580071D01*
X117890311Y-111580072D01*
X117890312Y-111580072D01*
X117920702Y-111588215D01*
X117981480Y-111604501D01*
X117981482Y-111604501D01*
X118108748Y-111604501D01*
X118108764Y-111604500D01*
X118509834Y-111604500D01*
X118509836Y-111604500D01*
X118625431Y-111573527D01*
X118729070Y-111513691D01*
X118813691Y-111429070D01*
X118873527Y-111325431D01*
X118902872Y-111215911D01*
X118939234Y-111156254D01*
X119002080Y-111125724D01*
X119071456Y-111134018D01*
X119110326Y-111160326D01*
X119250000Y-111300000D01*
X129550000Y-111300000D01*
X129550000Y-106350000D01*
X124500000Y-101300000D01*
X122901362Y-101300000D01*
X122834323Y-101280315D01*
X122813681Y-101263681D01*
X118236319Y-96686319D01*
X118202834Y-96624996D01*
X118200000Y-96598638D01*
X118200000Y-95000000D01*
X116174000Y-95000000D01*
X116106961Y-94980315D01*
X116061206Y-94927511D01*
X116050000Y-94876000D01*
X116050000Y-91399000D01*
X116069685Y-91331961D01*
X116122489Y-91286206D01*
X116174000Y-91275000D01*
X118801000Y-91275000D01*
X118868039Y-91294685D01*
G37*
%TD.AperFunction*%
%TD*%
%TA.AperFunction,Conductor*%
%TO.N,+3.3V*%
G36*
X127674567Y-78057750D02*
G01*
X127677947Y-78064986D01*
X127684251Y-78135919D01*
X127689244Y-78192107D01*
X127719124Y-78283633D01*
X127719135Y-78283664D01*
X127725963Y-78301214D01*
X127726301Y-78302214D01*
X127767164Y-78443925D01*
X127766163Y-78452824D01*
X127759164Y-78458409D01*
X127758254Y-78458632D01*
X127552332Y-78500525D01*
X127547668Y-78500525D01*
X127341353Y-78458552D01*
X127333929Y-78453545D01*
X127332220Y-78444755D01*
X127332335Y-78444245D01*
X127355013Y-78354984D01*
X127355354Y-78353879D01*
X127380870Y-78283649D01*
X127405936Y-78211756D01*
X127405937Y-78211747D01*
X127405939Y-78211743D01*
X127410158Y-78189419D01*
X127418367Y-78146001D01*
X127422439Y-78065432D01*
X127426279Y-78057343D01*
X127434124Y-78054323D01*
X127666294Y-78054323D01*
X127674567Y-78057750D01*
G37*
%TD.AperFunction*%
%TD*%
%TA.AperFunction,Conductor*%
%TO.N,/NRST*%
G36*
X127983369Y-73360096D02*
G01*
X128018023Y-73372146D01*
X128794190Y-73642027D01*
X128800878Y-73647981D01*
X128801877Y-73651093D01*
X128962448Y-74584037D01*
X128960475Y-74592772D01*
X128952903Y-74597552D01*
X128947039Y-74597060D01*
X128943723Y-74595894D01*
X128943697Y-74595887D01*
X128857683Y-74574203D01*
X128766219Y-74563123D01*
X128766211Y-74563122D01*
X128655307Y-74562398D01*
X128540588Y-74573369D01*
X128536153Y-74574205D01*
X128412287Y-74597552D01*
X128407724Y-74598412D01*
X128407723Y-74598412D01*
X128275103Y-74634947D01*
X128275103Y-74634948D01*
X128136314Y-74684664D01*
X128004332Y-74742952D01*
X127781095Y-74871007D01*
X127644956Y-74981208D01*
X127636370Y-74983750D01*
X127629322Y-74980387D01*
X127465183Y-74816248D01*
X127461756Y-74807975D01*
X127464926Y-74799967D01*
X127495650Y-74767260D01*
X127572897Y-74670779D01*
X127649596Y-74556633D01*
X127792537Y-74287768D01*
X127899275Y-74009101D01*
X127961503Y-73753385D01*
X127981766Y-73534424D01*
X127981765Y-73534419D01*
X127981766Y-73534416D01*
X127975521Y-73461492D01*
X127967871Y-73372143D01*
X127970579Y-73363611D01*
X127978530Y-73359491D01*
X127983369Y-73360096D01*
G37*
%TD.AperFunction*%
%TD*%
%TA.AperFunction,Conductor*%
%TO.N,/NRST*%
G36*
X126682872Y-82203927D02*
G01*
X126780742Y-82285823D01*
X126780747Y-82285826D01*
X126866598Y-82329419D01*
X126866625Y-82329432D01*
X126874747Y-82333003D01*
X126883872Y-82337017D01*
X126884803Y-82337478D01*
X126955411Y-82376479D01*
X127013907Y-82408790D01*
X127019492Y-82415789D01*
X127018491Y-82424688D01*
X127018006Y-82425489D01*
X126902020Y-82600722D01*
X126898722Y-82604020D01*
X126723156Y-82720226D01*
X126714365Y-82721935D01*
X126706942Y-82716928D01*
X126706651Y-82716466D01*
X126659583Y-82637335D01*
X126659042Y-82636312D01*
X126643348Y-82602707D01*
X126627425Y-82568610D01*
X126594313Y-82500050D01*
X126594311Y-82500047D01*
X126594309Y-82500043D01*
X126573611Y-82469695D01*
X126556608Y-82444765D01*
X126502514Y-82384913D01*
X126499510Y-82376479D01*
X126502921Y-82368797D01*
X126667092Y-82204626D01*
X126675364Y-82201200D01*
X126682872Y-82203927D01*
G37*
%TD.AperFunction*%
%TD*%
%TA.AperFunction,Conductor*%
%TO.N,+3.3V*%
G36*
X109883498Y-72831213D02*
G01*
X109887508Y-72835375D01*
X110347707Y-73644214D01*
X110348820Y-73653099D01*
X110347707Y-73655786D01*
X109887523Y-74464596D01*
X109880453Y-74470092D01*
X109871568Y-74468979D01*
X109867398Y-74464956D01*
X109800718Y-74356940D01*
X109800716Y-74356938D01*
X109737063Y-74286954D01*
X109737058Y-74286949D01*
X109737053Y-74286944D01*
X109663607Y-74223425D01*
X109615377Y-74190186D01*
X109567149Y-74156949D01*
X109567140Y-74156944D01*
X109462021Y-74098887D01*
X109462018Y-74098885D01*
X109462015Y-74098884D01*
X109330160Y-74040754D01*
X109330161Y-74040754D01*
X109330158Y-74040753D01*
X109194059Y-73993535D01*
X109040851Y-73952824D01*
X108893782Y-73924770D01*
X108660707Y-73904912D01*
X108652754Y-73900795D01*
X108650000Y-73893254D01*
X108650000Y-73407129D01*
X108653427Y-73398856D01*
X108661114Y-73395444D01*
X108768291Y-73390088D01*
X108778458Y-73389581D01*
X108778458Y-73389580D01*
X108778477Y-73389580D01*
X109049106Y-73345287D01*
X109304711Y-73268965D01*
X109517268Y-73172144D01*
X109681198Y-73062599D01*
X109799671Y-72944373D01*
X109867394Y-72834999D01*
X109874660Y-72829772D01*
X109883498Y-72831213D01*
G37*
%TD.AperFunction*%
%TD*%
%TA.AperFunction,Conductor*%
%TO.N,+3.3V*%
G36*
X111431048Y-72224984D02*
G01*
X111774589Y-72568525D01*
X111778016Y-72576798D01*
X111774815Y-72584839D01*
X111720756Y-72641982D01*
X111720751Y-72641987D01*
X111529710Y-72885101D01*
X111362316Y-73157202D01*
X111362311Y-73157211D01*
X111238092Y-73423084D01*
X111160284Y-73666764D01*
X111125485Y-73883304D01*
X111125485Y-73883308D01*
X111128453Y-74053232D01*
X111125171Y-74061563D01*
X111116959Y-74065134D01*
X111111179Y-74063722D01*
X110354283Y-73653412D01*
X110348643Y-73646456D01*
X110348332Y-73645125D01*
X110187222Y-72709050D01*
X110189195Y-72700317D01*
X110196767Y-72695537D01*
X110201606Y-72695720D01*
X110297052Y-72719744D01*
X110385660Y-72725898D01*
X110385661Y-72725897D01*
X110385662Y-72725898D01*
X110398612Y-72725140D01*
X110476951Y-72720559D01*
X110587064Y-72701092D01*
X110698014Y-72669296D01*
X110830197Y-72617650D01*
X110958571Y-72554652D01*
X110958583Y-72554644D01*
X110958592Y-72554640D01*
X111099312Y-72471859D01*
X111099320Y-72471853D01*
X111099333Y-72471846D01*
X111226960Y-72383983D01*
X111415207Y-72224333D01*
X111423734Y-72221596D01*
X111431048Y-72224984D01*
G37*
%TD.AperFunction*%
%TD*%
%TA.AperFunction,Conductor*%
%TO.N,+3.3V*%
G36*
X137143642Y-73299251D02*
G01*
X137149968Y-73305589D01*
X137150839Y-73309463D01*
X137158507Y-73460609D01*
X137158508Y-73460621D01*
X137180334Y-73594306D01*
X137180336Y-73594314D01*
X137180337Y-73594319D01*
X137191520Y-73639122D01*
X137213920Y-73728867D01*
X137213923Y-73728876D01*
X137264944Y-73882429D01*
X137264946Y-73882434D01*
X137327344Y-74033855D01*
X137327345Y-74033856D01*
X137409173Y-74200825D01*
X137409179Y-74200837D01*
X137452529Y-74277160D01*
X137499734Y-74360272D01*
X137603626Y-74520941D01*
X137710049Y-74666650D01*
X137710052Y-74666654D01*
X137710054Y-74666656D01*
X137858026Y-74836504D01*
X137900315Y-74885044D01*
X137903165Y-74893533D01*
X137899766Y-74901003D01*
X137556307Y-75244462D01*
X137548034Y-75247889D01*
X137540014Y-75244708D01*
X137518230Y-75224201D01*
X137478724Y-75187010D01*
X137478719Y-75187006D01*
X137478715Y-75187002D01*
X137237536Y-74999368D01*
X137237532Y-74999366D01*
X136969113Y-74836506D01*
X136969108Y-74836504D01*
X136707995Y-74717108D01*
X136707992Y-74717107D01*
X136469481Y-74643855D01*
X136469482Y-74643855D01*
X136469478Y-74643854D01*
X136469476Y-74643853D01*
X136469466Y-74643851D01*
X136258066Y-74613113D01*
X136088208Y-74619431D01*
X136079813Y-74616314D01*
X136076081Y-74608174D01*
X136076376Y-74605095D01*
X136170169Y-74200837D01*
X136297931Y-73650162D01*
X136303139Y-73642878D01*
X136304861Y-73641993D01*
X136420279Y-73594321D01*
X137134689Y-73299242D01*
X137143642Y-73299251D01*
G37*
%TD.AperFunction*%
%TD*%
%TA.AperFunction,Conductor*%
%TO.N,+3.3V*%
G36*
X135059985Y-72045291D02*
G01*
X135121277Y-72102991D01*
X135362475Y-72290638D01*
X135513998Y-72382573D01*
X135630888Y-72453495D01*
X135630893Y-72453497D01*
X135892006Y-72572892D01*
X135892008Y-72572892D01*
X135892011Y-72572894D01*
X136130523Y-72646147D01*
X136130534Y-72646148D01*
X136130536Y-72646149D01*
X136164999Y-72651159D01*
X136341935Y-72676886D01*
X136511792Y-72670568D01*
X136520186Y-72673685D01*
X136523918Y-72681825D01*
X136523623Y-72684904D01*
X136302068Y-73639836D01*
X136296860Y-73647121D01*
X136295138Y-73648006D01*
X135465312Y-73990757D01*
X135456357Y-73990748D01*
X135450031Y-73984410D01*
X135449160Y-73980539D01*
X135441493Y-73829393D01*
X135441491Y-73829384D01*
X135441491Y-73829377D01*
X135419665Y-73695695D01*
X135419663Y-73695680D01*
X135386078Y-73561125D01*
X135335054Y-73407567D01*
X135272664Y-73256164D01*
X135272659Y-73256154D01*
X135272655Y-73256144D01*
X135272654Y-73256142D01*
X135190827Y-73089175D01*
X135190822Y-73089164D01*
X135100260Y-72929719D01*
X134996370Y-72769054D01*
X134889950Y-72623349D01*
X134889946Y-72623344D01*
X134699683Y-72404954D01*
X134696834Y-72396466D01*
X134700232Y-72388997D01*
X135043693Y-72045536D01*
X135051965Y-72042110D01*
X135059985Y-72045291D01*
G37*
%TD.AperFunction*%
%TD*%
%TA.AperFunction,Conductor*%
%TO.N,Net-(U7-VBATM)*%
G36*
X119817640Y-92558530D02*
G01*
X119817690Y-92558580D01*
X119857589Y-92598961D01*
X119895651Y-92637485D01*
X119895663Y-92637514D01*
X119895672Y-92637506D01*
X119930142Y-92672574D01*
X119930154Y-92672585D01*
X119930158Y-92672589D01*
X120043770Y-92777457D01*
X120207449Y-92893993D01*
X120212201Y-92901583D01*
X120210412Y-92909992D01*
X120052015Y-93148734D01*
X120048734Y-93152015D01*
X119809937Y-93310448D01*
X119801149Y-93312167D01*
X119793978Y-93307540D01*
X119664873Y-93128419D01*
X119642396Y-93104993D01*
X119537520Y-92995686D01*
X119458580Y-92917690D01*
X119455103Y-92909437D01*
X119458479Y-92901145D01*
X119801095Y-92558529D01*
X119809367Y-92555103D01*
X119817640Y-92558530D01*
G37*
%TD.AperFunction*%
%TD*%
%TA.AperFunction,Conductor*%
%TO.N,/SWDIO*%
G36*
X137022652Y-80232014D02*
G01*
X137026079Y-80240287D01*
X137026046Y-80241172D01*
X137018974Y-80334426D01*
X137018487Y-80336992D01*
X136996051Y-80409682D01*
X136994747Y-80412504D01*
X136959293Y-80468328D01*
X136958155Y-80469836D01*
X136910175Y-80523720D01*
X136910001Y-80523910D01*
X136890472Y-80544890D01*
X136793758Y-80666599D01*
X136785928Y-80670944D01*
X136778134Y-80669072D01*
X136601970Y-80552306D01*
X136598692Y-80549032D01*
X136482267Y-80373858D01*
X136480542Y-80365073D01*
X136485536Y-80357640D01*
X136486682Y-80356969D01*
X136517932Y-80341059D01*
X136520259Y-80340174D01*
X136562425Y-80329098D01*
X136564634Y-80328741D01*
X136648259Y-80323397D01*
X136713167Y-80319260D01*
X136754571Y-80297183D01*
X136768196Y-80270079D01*
X136771801Y-80238940D01*
X136776156Y-80231117D01*
X136783423Y-80228587D01*
X137014379Y-80228587D01*
X137022652Y-80232014D01*
G37*
%TD.AperFunction*%
%TD*%
%TA.AperFunction,Conductor*%
%TO.N,/SWDIO*%
G36*
X131307559Y-73650398D02*
G01*
X131995010Y-74232298D01*
X131999111Y-74240258D01*
X131996381Y-74248787D01*
X131994040Y-74250896D01*
X131899763Y-74315148D01*
X131828672Y-74384909D01*
X131828672Y-74384910D01*
X131762526Y-74466747D01*
X131762513Y-74466765D01*
X131691256Y-74575642D01*
X131691249Y-74575653D01*
X131627567Y-74694601D01*
X131627566Y-74694605D01*
X131565788Y-74835196D01*
X131565767Y-74835248D01*
X131514595Y-74978771D01*
X131514584Y-74978807D01*
X131446497Y-75253491D01*
X131428029Y-75443101D01*
X131423816Y-75451003D01*
X131416384Y-75453667D01*
X131184374Y-75453667D01*
X131176101Y-75450240D01*
X131172679Y-75442298D01*
X131171687Y-75407217D01*
X131171687Y-75407212D01*
X131169885Y-75390175D01*
X131159074Y-75287949D01*
X131133581Y-75154541D01*
X131051035Y-74879067D01*
X130943429Y-74637590D01*
X130826452Y-74451898D01*
X130708719Y-74322541D01*
X130708709Y-74322532D01*
X130605754Y-74250930D01*
X130600918Y-74243393D01*
X130602829Y-74234645D01*
X130604872Y-74232398D01*
X131292441Y-73650397D01*
X131300970Y-73647668D01*
X131307559Y-73650398D01*
G37*
%TD.AperFunction*%
%TD*%
%TA.AperFunction,Conductor*%
%TO.N,/SWCLK*%
G36*
X134424567Y-77257750D02*
G01*
X134427947Y-77264986D01*
X134434251Y-77335919D01*
X134439244Y-77392107D01*
X134469124Y-77483633D01*
X134469135Y-77483664D01*
X134475963Y-77501214D01*
X134476301Y-77502214D01*
X134517164Y-77643925D01*
X134516163Y-77652824D01*
X134509164Y-77658409D01*
X134508254Y-77658632D01*
X134302332Y-77700525D01*
X134297668Y-77700525D01*
X134091353Y-77658552D01*
X134083929Y-77653545D01*
X134082220Y-77644755D01*
X134082335Y-77644245D01*
X134105013Y-77554984D01*
X134105354Y-77553879D01*
X134130870Y-77483649D01*
X134155936Y-77411756D01*
X134155937Y-77411747D01*
X134155939Y-77411743D01*
X134160158Y-77389419D01*
X134168367Y-77346001D01*
X134172439Y-77265432D01*
X134176279Y-77257343D01*
X134184124Y-77254323D01*
X134416294Y-77254323D01*
X134424567Y-77257750D01*
G37*
%TD.AperFunction*%
%TD*%
%TA.AperFunction,Conductor*%
%TO.N,/SWCLK*%
G36*
X133807559Y-73650398D02*
G01*
X134495010Y-74232298D01*
X134499111Y-74240258D01*
X134496381Y-74248787D01*
X134494040Y-74250896D01*
X134399763Y-74315148D01*
X134328672Y-74384909D01*
X134328672Y-74384910D01*
X134262526Y-74466747D01*
X134262513Y-74466765D01*
X134191256Y-74575642D01*
X134191249Y-74575653D01*
X134127567Y-74694601D01*
X134127566Y-74694605D01*
X134065788Y-74835196D01*
X134065767Y-74835248D01*
X134014595Y-74978771D01*
X134014584Y-74978807D01*
X133946497Y-75253491D01*
X133928029Y-75443101D01*
X133923816Y-75451003D01*
X133916384Y-75453667D01*
X133684374Y-75453667D01*
X133676101Y-75450240D01*
X133672679Y-75442298D01*
X133671687Y-75407217D01*
X133671687Y-75407212D01*
X133669885Y-75390175D01*
X133659074Y-75287949D01*
X133633581Y-75154541D01*
X133551035Y-74879067D01*
X133443429Y-74637590D01*
X133326452Y-74451898D01*
X133208719Y-74322541D01*
X133208709Y-74322532D01*
X133105754Y-74250930D01*
X133100918Y-74243393D01*
X133102829Y-74234645D01*
X133104872Y-74232398D01*
X133792441Y-73650397D01*
X133800970Y-73647668D01*
X133807559Y-73650398D01*
G37*
%TD.AperFunction*%
%TD*%
%TA.AperFunction,Conductor*%
%TO.N,+5V*%
G36*
X145055761Y-94582337D02*
G01*
X145145008Y-94605012D01*
X145146117Y-94605353D01*
X145216350Y-94630870D01*
X145288244Y-94655936D01*
X145288249Y-94655937D01*
X145288256Y-94655939D01*
X145318360Y-94661629D01*
X145353999Y-94668367D01*
X145434568Y-94672438D01*
X145442657Y-94676278D01*
X145445677Y-94684123D01*
X145445677Y-94916293D01*
X145442250Y-94924566D01*
X145435013Y-94927947D01*
X145307892Y-94939244D01*
X145216365Y-94969124D01*
X145216334Y-94969135D01*
X145198784Y-94975963D01*
X145197784Y-94976301D01*
X145056074Y-95017164D01*
X145047175Y-95016163D01*
X145041590Y-95009164D01*
X145041370Y-95008269D01*
X144999474Y-94802329D01*
X144999474Y-94797668D01*
X145024951Y-94672438D01*
X145041447Y-94591351D01*
X145046454Y-94583929D01*
X145055244Y-94582220D01*
X145055761Y-94582337D01*
G37*
%TD.AperFunction*%
%TD*%
%TA.AperFunction,Conductor*%
%TO.N,+5V*%
G36*
X146852824Y-94583836D02*
G01*
X146858409Y-94590835D01*
X146858632Y-94591745D01*
X146900525Y-94797668D01*
X146900525Y-94802332D01*
X146858552Y-95008646D01*
X146853545Y-95016070D01*
X146844755Y-95017779D01*
X146844206Y-95017654D01*
X146837971Y-95016070D01*
X146832438Y-95014664D01*
X146754994Y-94994988D01*
X146753880Y-94994645D01*
X146683656Y-94969132D01*
X146611754Y-94944063D01*
X146611744Y-94944060D01*
X146546007Y-94931634D01*
X146546008Y-94931634D01*
X146546002Y-94931633D01*
X146545998Y-94931632D01*
X146545993Y-94931632D01*
X146465432Y-94927561D01*
X146457343Y-94923721D01*
X146454323Y-94915876D01*
X146454323Y-94683706D01*
X146457750Y-94675433D01*
X146464986Y-94672052D01*
X146592103Y-94660756D01*
X146683649Y-94630870D01*
X146701244Y-94624024D01*
X146702192Y-94623704D01*
X146843925Y-94582835D01*
X146852824Y-94583836D01*
G37*
%TD.AperFunction*%
%TD*%
%TA.AperFunction,Conductor*%
%TO.N,/USB_D+*%
G36*
X144557903Y-80877333D02*
G01*
X144606699Y-80920419D01*
X144655931Y-80951663D01*
X144745312Y-80983347D01*
X144803576Y-81000825D01*
X144805555Y-81001622D01*
X144913374Y-81056951D01*
X144919170Y-81063777D01*
X144918441Y-81072702D01*
X144917788Y-81073818D01*
X144802020Y-81248722D01*
X144798722Y-81252020D01*
X144622831Y-81368442D01*
X144614040Y-81370151D01*
X144606617Y-81365144D01*
X144606516Y-81364989D01*
X144541360Y-81263091D01*
X144541289Y-81262979D01*
X144534454Y-81252020D01*
X144519500Y-81228041D01*
X144464139Y-81150897D01*
X144377734Y-81057923D01*
X144374613Y-81049531D01*
X144378031Y-81041687D01*
X144541888Y-80877830D01*
X144550160Y-80874404D01*
X144557903Y-80877333D01*
G37*
%TD.AperFunction*%
%TD*%
%TA.AperFunction,Conductor*%
%TO.N,/USB_D+*%
G36*
X143893057Y-80085071D02*
G01*
X143893357Y-80085548D01*
X143940411Y-80164657D01*
X143940956Y-80165687D01*
X143972571Y-80233383D01*
X144005687Y-80301951D01*
X144005689Y-80301955D01*
X144034890Y-80344769D01*
X144043392Y-80357235D01*
X144070367Y-80387081D01*
X144097484Y-80417085D01*
X144100489Y-80425520D01*
X144097077Y-80433203D01*
X143932908Y-80597372D01*
X143924635Y-80600799D01*
X143917127Y-80598072D01*
X143819256Y-80516175D01*
X143819251Y-80516172D01*
X143733399Y-80472579D01*
X143733372Y-80472566D01*
X143716139Y-80464987D01*
X143715192Y-80464518D01*
X143586092Y-80393208D01*
X143580507Y-80386209D01*
X143581508Y-80377310D01*
X143581976Y-80376536D01*
X143697981Y-80201274D01*
X143701274Y-80197981D01*
X143876844Y-80081772D01*
X143885634Y-80080064D01*
X143893057Y-80085071D01*
G37*
%TD.AperFunction*%
%TD*%
%TA.AperFunction,Conductor*%
%TO.N,+3.3V*%
G36*
X126643004Y-64453814D02*
G01*
X134043936Y-71653980D01*
X134232425Y-71837355D01*
X134232939Y-71838550D01*
X134234019Y-71839278D01*
X134234653Y-71842532D01*
X134235965Y-71845580D01*
X134235732Y-71848067D01*
X134234708Y-71853115D01*
X134229705Y-71860542D01*
X134220916Y-71862255D01*
X134215084Y-71859176D01*
X134201106Y-71845580D01*
X126618994Y-64470587D01*
X126615453Y-64462362D01*
X126618765Y-64454042D01*
X126626990Y-64450501D01*
X126627152Y-64450500D01*
X126634845Y-64450500D01*
X126643004Y-64453814D01*
G37*
%TD.AperFunction*%
%TA.AperFunction,Conductor*%
G36*
X127211050Y-64453811D02*
G01*
X134325015Y-71371468D01*
X134328557Y-71379692D01*
X134328342Y-71382094D01*
X134298303Y-71536220D01*
X134293357Y-71543685D01*
X134284581Y-71545466D01*
X134277116Y-71540520D01*
X134275119Y-71533982D01*
X134275119Y-71370999D01*
X127179439Y-64470588D01*
X127175897Y-64462363D01*
X127179208Y-64454043D01*
X127187433Y-64450501D01*
X127187596Y-64450500D01*
X127202894Y-64450500D01*
X127211050Y-64453811D01*
G37*
%TD.AperFunction*%
%TD*%
%TA.AperFunction,Conductor*%
%TO.N,+3.3V*%
G36*
X134227088Y-71380459D02*
G01*
X134232737Y-71387406D01*
X134232992Y-71388425D01*
X134280527Y-71622673D01*
X134280527Y-71627327D01*
X134232932Y-71861870D01*
X134227929Y-71869296D01*
X134219139Y-71871009D01*
X134218388Y-71870831D01*
X134111739Y-71841752D01*
X134110246Y-71841234D01*
X134029304Y-71806878D01*
X133933148Y-71769241D01*
X133866434Y-71756654D01*
X133787974Y-71752576D01*
X133779890Y-71748725D01*
X133776881Y-71740892D01*
X133776881Y-71509127D01*
X133780308Y-71500854D01*
X133787993Y-71497442D01*
X133863915Y-71493635D01*
X133929288Y-71481786D01*
X134029297Y-71443124D01*
X134076900Y-71421803D01*
X134078332Y-71421272D01*
X134148020Y-71400476D01*
X134218181Y-71379541D01*
X134227088Y-71380459D01*
G37*
%TD.AperFunction*%
%TD*%
M02*
