M48
; DRILL file {KiCad 9.0.2} date 2025-12-01T22:51:21-0500
; FORMAT={-:-/ absolute / metric / decimal}
; #@! TF.CreationDate,2025-12-01T22:51:21-05:00
; #@! TF.GenerationSoftware,Kicad,Pcbnew,9.0.2
; #@! TF.FileFunction,Plated,1,2,PTH
FMAT,2
METRIC
; #@! TA.AperFunction,Plated,PTH,ViaDrill
T1C0.300
; #@! TA.AperFunction,Plated,PTH,ComponentDrill
T2C0.300
; #@! TA.AperFunction,Plated,PTH,ComponentDrill
T3C0.600
; #@! TA.AperFunction,Plated,PTH,ComponentDrill
T4C0.600
; #@! TA.AperFunction,Plated,PTH,ComponentDrill
T5C0.700
; #@! TA.AperFunction,Plated,PTH,ComponentDrill
T6C0.950
; #@! TA.AperFunction,Plated,PTH,ComponentDrill
T7C1.000
; #@! TA.AperFunction,Plated,PTH,ComponentDrill
T8C2.700
%
G90
G05
T1
X96.95Y-86.0
X98.575Y-73.275
X100.1Y-69.125
X101.8Y-94.4
X101.8Y-95.4
X101.9Y-87.2
X101.9Y-88.2
X102.4Y-94.4
X102.4Y-95.4
X102.5Y-87.2
X102.5Y-88.2
X106.2Y-94.6
X106.2Y-95.4
X106.4Y-86.9
X106.4Y-87.6
X107.8Y-85.75
X108.6Y-94.2
X109.3Y-103.6
X110.3Y-83.675
X111.3Y-96.7
X112.8Y-104.7
X112.8Y-108.0
X115.425Y-89.75
X115.625Y-78.225
X116.1Y-90.8
X116.946Y-110.055
X117.1Y-92.3
X117.4Y-97.8
X117.4Y-98.5
X117.4Y-99.2
X117.4Y-99.9
X117.4Y-100.6
X117.4Y-101.3
X117.4Y-102.0
X117.4Y-102.6
X117.7Y-92.3
X118.3Y-92.3
X118.45Y-111.15
X118.7Y-98.7
X118.7Y-100.5
X120.05Y-93.15
X120.775Y-79.4
X120.775Y-80.15
X120.8Y-78.75
X120.8Y-80.9
X120.85Y-81.7
X121.15Y-82.425
X121.275Y-78.025
X121.45Y-83.175
X121.7Y-93.2
X122.0Y-83.575
X122.7Y-83.7
X123.45Y-89.025
X123.625Y-83.725
X123.7Y-84.975
X124.0Y-107.3
X124.0Y-108.1
X124.0Y-108.8
X125.75Y-89.85
X126.25Y-105.45
X126.65Y-77.575
X126.8Y-113.9
X126.9Y-82.602
X126.925Y-90.15
X127.15Y-105.45
X127.55Y-78.5
X128.0Y-105.45
X128.3Y-106.9
X128.3Y-107.5
X128.3Y-108.1
X128.6Y-90.15
X128.9Y-106.9
X128.9Y-107.5
X128.9Y-108.1
X129.35Y-113.95
X129.498Y-77.75
X131.1Y-104.975
X131.125Y-103.6
X132.05Y-109.55
X132.2Y-103.6
X132.3Y-87.3
X132.55Y-102.4
X133.225Y-110.4
X133.3Y-75.875
X133.65Y-115.25
X134.25Y-111.6
X134.3Y-77.7
X135.475Y-110.175
X135.975Y-110.175
X136.225Y-113.0
X136.3Y-105.2
X136.6Y-80.55
X136.6Y-109.125
X137.25Y-87.6
X137.5Y-86.125
X137.675Y-94.675
X137.8Y-88.3
X138.4Y-77.7
X138.5Y-91.75
X139.15Y-91.1
X139.275Y-110.175
X139.662Y-109.787
X139.838Y-90.438
X141.15Y-105.725
X142.25Y-105.725
X143.225Y-105.725
X143.425Y-112.9
X143.7Y-80.2
X144.8Y-81.25
X145.0Y-94.8
X145.55Y-104.3
X146.5Y-102.3
X146.9Y-94.8
X149.45Y-109.55
X150.9Y-104.8
T2
X91.75Y-86.75
X91.75Y-87.75
X91.75Y-93.25
X91.75Y-94.25
X92.75Y-86.75
X92.75Y-87.75
X92.75Y-93.25
X92.75Y-94.25
T5
X147.08Y-78.11
X147.08Y-83.89
T6
X107.75Y-106.305
X110.25Y-106.305
X110.35Y-73.65
X112.75Y-106.305
X112.85Y-73.65
X115.35Y-73.65
X117.85Y-73.65
X120.35Y-73.65
X126.3Y-73.645
X128.8Y-73.645
X131.3Y-73.645
X133.8Y-73.645
X136.3Y-73.645
T7
X82.945Y-75.5
X82.945Y-78.0
X82.945Y-84.0
X82.945Y-86.5
X82.945Y-98.5
X82.945Y-101.0
X127.46Y-93.75
X130.0Y-93.75
X132.54Y-93.75
X135.08Y-93.75
T8
X92.75Y-100.35
X99.95Y-100.35
T3
G00X146.1Y-76.68
M15
G01X147.0Y-76.68
M16
G05
G00X146.1Y-85.32
M15
G01X147.0Y-85.32
M16
G05
G00X150.46Y-76.68
M15
G01X151.06Y-76.68
M16
G05
G00X150.46Y-85.32
M15
G01X151.06Y-85.32
M16
G05
T4
G00X89.6Y-106.9
M15
G01X89.6Y-105.8
M16
G05
G00X103.1Y-106.9
M15
G01X103.1Y-105.8
M16
G05
M30
