%TF.GenerationSoftware,KiCad,Pcbnew,9.0.2*%
%TF.CreationDate,2025-06-02T04:20:20-04:00*%
%TF.ProjectId,VolleyBot,566f6c6c-6579-4426-9f74-2e6b69636164,rev?*%
%TF.SameCoordinates,Original*%
%TF.FileFunction,Soldermask,Top*%
%TF.FilePolarity,Negative*%
%FSLAX46Y46*%
G04 Gerber Fmt 4.6, Leading zero omitted, Abs format (unit mm)*
G04 Created by KiCad (PCBNEW 9.0.2) date 2025-06-02 04:20:20*
%MOMM*%
%LPD*%
G01*
G04 APERTURE LIST*
G04 Aperture macros list*
%AMRoundRect*
0 Rectangle with rounded corners*
0 $1 Rounding radius*
0 $2 $3 $4 $5 $6 $7 $8 $9 X,Y pos of 4 corners*
0 Add a 4 corners polygon primitive as box body*
4,1,4,$2,$3,$4,$5,$6,$7,$8,$9,$2,$3,0*
0 Add four circle primitives for the rounded corners*
1,1,$1+$1,$2,$3*
1,1,$1+$1,$4,$5*
1,1,$1+$1,$6,$7*
1,1,$1+$1,$8,$9*
0 Add four rect primitives between the rounded corners*
20,1,$1+$1,$2,$3,$4,$5,0*
20,1,$1+$1,$4,$5,$6,$7,0*
20,1,$1+$1,$6,$7,$8,$9,0*
20,1,$1+$1,$8,$9,$2,$3,0*%
G04 Aperture macros list end*
%ADD10R,0.700000X1.500000*%
%ADD11R,1.000000X0.800000*%
%ADD12C,0.900000*%
%ADD13O,1.800000X1.200000*%
%ADD14O,2.000000X1.100000*%
%ADD15R,1.100000X0.550000*%
%ADD16R,1.100000X0.300000*%
%ADD17C,0.700000*%
%ADD18R,1.700000X1.700000*%
%ADD19C,1.700000*%
%ADD20RoundRect,0.250000X0.600000X0.725000X-0.600000X0.725000X-0.600000X-0.725000X0.600000X-0.725000X0*%
%ADD21O,1.700000X1.950000*%
%ADD22RoundRect,0.250000X-0.750000X0.600000X-0.750000X-0.600000X0.750000X-0.600000X0.750000X0.600000X0*%
%ADD23O,2.000000X1.700000*%
%ADD24R,0.900000X2.000000*%
%ADD25RoundRect,1.025000X1.025000X1.025000X-1.025000X1.025000X-1.025000X-1.025000X1.025000X-1.025000X0*%
%ADD26C,4.100000*%
%ADD27RoundRect,0.135000X-0.135000X-0.185000X0.135000X-0.185000X0.135000X0.185000X-0.135000X0.185000X0*%
%ADD28RoundRect,0.218750X0.218750X0.256250X-0.218750X0.256250X-0.218750X-0.256250X0.218750X-0.256250X0*%
%ADD29RoundRect,0.135000X0.135000X0.185000X-0.135000X0.185000X-0.135000X-0.185000X0.135000X-0.185000X0*%
%ADD30R,0.800000X1.000000*%
%ADD31RoundRect,0.225000X0.250000X-0.225000X0.250000X0.225000X-0.250000X0.225000X-0.250000X-0.225000X0*%
%ADD32RoundRect,0.112500X-0.187500X-0.112500X0.187500X-0.112500X0.187500X0.112500X-0.187500X0.112500X0*%
%ADD33C,2.200000*%
%ADD34C,2.700000*%
%ADD35R,5.600000X5.600000*%
%ADD36RoundRect,0.062500X-0.062500X-0.375000X0.062500X-0.375000X0.062500X0.375000X-0.062500X0.375000X0*%
%ADD37RoundRect,0.062500X-0.375000X-0.062500X0.375000X-0.062500X0.375000X0.062500X-0.375000X0.062500X0*%
%ADD38R,2.460000X2.310000*%
%ADD39RoundRect,0.100000X-0.687500X-0.100000X0.687500X-0.100000X0.687500X0.100000X-0.687500X0.100000X0*%
%ADD40RoundRect,0.150000X-0.512500X-0.150000X0.512500X-0.150000X0.512500X0.150000X-0.512500X0.150000X0*%
%ADD41RoundRect,0.250000X-0.475000X0.250000X-0.475000X-0.250000X0.475000X-0.250000X0.475000X0.250000X0*%
%ADD42R,1.800000X4.200000*%
%ADD43RoundRect,0.140000X0.140000X0.170000X-0.140000X0.170000X-0.140000X-0.170000X0.140000X-0.170000X0*%
%ADD44RoundRect,0.225000X-0.250000X0.225000X-0.250000X-0.225000X0.250000X-0.225000X0.250000X0.225000X0*%
%ADD45RoundRect,0.140000X-0.170000X0.140000X-0.170000X-0.140000X0.170000X-0.140000X0.170000X0.140000X0*%
%ADD46RoundRect,0.250000X0.450000X0.350000X-0.450000X0.350000X-0.450000X-0.350000X0.450000X-0.350000X0*%
%ADD47RoundRect,0.135000X0.185000X-0.135000X0.185000X0.135000X-0.185000X0.135000X-0.185000X-0.135000X0*%
%ADD48RoundRect,0.140000X0.170000X-0.140000X0.170000X0.140000X-0.170000X0.140000X-0.170000X-0.140000X0*%
%ADD49RoundRect,0.140000X-0.140000X-0.170000X0.140000X-0.170000X0.140000X0.170000X-0.140000X0.170000X0*%
%ADD50RoundRect,0.135000X-0.185000X0.135000X-0.185000X-0.135000X0.185000X-0.135000X0.185000X0.135000X0*%
%ADD51RoundRect,0.218750X-0.218750X-0.256250X0.218750X-0.256250X0.218750X0.256250X-0.218750X0.256250X0*%
%ADD52RoundRect,0.218750X-0.256250X0.218750X-0.256250X-0.218750X0.256250X-0.218750X0.256250X0.218750X0*%
G04 APERTURE END LIST*
D10*
%TO.C,SW2*%
X142000000Y-112345000D03*
X140500000Y-112345000D03*
X137500000Y-112345000D03*
D11*
X143400000Y-115205000D03*
X143400000Y-112995000D03*
D12*
X141250000Y-114105000D03*
X138250000Y-114105000D03*
D11*
X136100000Y-115205000D03*
X136100000Y-112995000D03*
%TD*%
%TO.C,SW3*%
X106100000Y-112970000D03*
X106100000Y-115180000D03*
D12*
X108250000Y-114080000D03*
X111250000Y-114080000D03*
D11*
X113400000Y-112970000D03*
X113400000Y-115180000D03*
D10*
X107500000Y-112320000D03*
X110500000Y-112320000D03*
X112000000Y-112320000D03*
%TD*%
D13*
%TO.C,USB2*%
X150760000Y-76680000D03*
D14*
X146550000Y-76680000D03*
D13*
X150760000Y-85320000D03*
D14*
X146550000Y-85320000D03*
D15*
X146000000Y-77800000D03*
X146000000Y-78600000D03*
D16*
X146000000Y-79250000D03*
X146000000Y-79750000D03*
X146000000Y-80250000D03*
X146000000Y-80750000D03*
X146000000Y-81250000D03*
X146000000Y-81750000D03*
X146000000Y-82250000D03*
X146000000Y-82750000D03*
D15*
X146000000Y-83400000D03*
X146000000Y-84200000D03*
D17*
X147080000Y-78110000D03*
X147080000Y-83890000D03*
%TD*%
D10*
%TO.C,SW1*%
X100750000Y-68260000D03*
X102250000Y-68260000D03*
X105250000Y-68260000D03*
D11*
X99350000Y-65400000D03*
X99350000Y-67610000D03*
D12*
X101500000Y-66500000D03*
X104500000Y-66500000D03*
D11*
X106650000Y-65400000D03*
X106650000Y-67610000D03*
%TD*%
D18*
%TO.C,J2*%
X127000000Y-74945000D03*
D19*
X129540000Y-74945000D03*
X132080000Y-74945000D03*
X134620000Y-74945000D03*
%TD*%
D20*
%TO.C,J4*%
X120750000Y-73945000D03*
D21*
X118250000Y-73945000D03*
X115750000Y-73945000D03*
X113250000Y-73945000D03*
%TD*%
D22*
%TO.C,J5*%
X82945000Y-75500000D03*
D23*
X82945000Y-78000000D03*
%TD*%
D22*
%TO.C,J6*%
X82945000Y-84000000D03*
D23*
X82945000Y-86500000D03*
%TD*%
D22*
%TO.C,J7*%
X82945000Y-98500000D03*
D23*
X82945000Y-101000000D03*
%TD*%
D24*
%TO.C,J3*%
X102000000Y-106750000D03*
X88500000Y-106750000D03*
D25*
X91650000Y-100750000D03*
D26*
X98850000Y-100750000D03*
%TD*%
D27*
%TO.C,R20*%
X123730000Y-112000000D03*
X124750000Y-112000000D03*
%TD*%
D28*
%TO.C,D5*%
X124537500Y-113500000D03*
X122962500Y-113500000D03*
%TD*%
D29*
%TO.C,R19*%
X107270000Y-109000000D03*
X106250000Y-109000000D03*
%TD*%
D30*
%TO.C,Q2*%
X108200000Y-107650000D03*
X107250000Y-105350000D03*
X106300000Y-107650000D03*
%TD*%
D31*
%TO.C,C12*%
X111000000Y-103250000D03*
X111000000Y-104800000D03*
%TD*%
%TO.C,C23*%
X124250000Y-106200000D03*
X124250000Y-107750000D03*
%TD*%
D32*
%TO.C,D1*%
X132850000Y-110000000D03*
X130750000Y-110000000D03*
%TD*%
D33*
%TO.C,H1*%
X149500000Y-68250000D03*
%TD*%
%TO.C,H2*%
X77500000Y-112250000D03*
%TD*%
%TO.C,H3*%
X149500000Y-112250000D03*
%TD*%
%TO.C,H4*%
X77500000Y-68250000D03*
%TD*%
D34*
%TO.C,H5*%
X84500000Y-69500000D03*
%TD*%
%TO.C,H6*%
X142500000Y-69500000D03*
%TD*%
%TO.C,H7*%
X142500000Y-92500000D03*
%TD*%
%TO.C,H8*%
X84500000Y-92500000D03*
%TD*%
D35*
%TO.C,U1*%
X119800000Y-84300000D03*
D36*
X117050000Y-80862500D03*
X117550000Y-80862500D03*
X118050000Y-80862500D03*
X118550000Y-80862500D03*
X119050000Y-80862500D03*
X119550000Y-80862500D03*
X120050000Y-80862500D03*
X120550000Y-80862500D03*
X121050000Y-80862500D03*
X121550000Y-80862500D03*
X122050000Y-80862500D03*
X122550000Y-80862500D03*
D37*
X123237500Y-81550000D03*
X123237500Y-82050000D03*
X123237500Y-82550000D03*
X123237500Y-83050000D03*
X123237500Y-83550000D03*
X123237500Y-84050000D03*
X123237500Y-84550000D03*
X123237500Y-85050000D03*
X123237500Y-85550000D03*
X123237500Y-86050000D03*
X123237500Y-86550000D03*
X123237500Y-87050000D03*
D36*
X122550000Y-87737500D03*
X122050000Y-87737500D03*
X121550000Y-87737500D03*
X121050000Y-87737500D03*
X120550000Y-87737500D03*
X120050000Y-87737500D03*
X119550000Y-87737500D03*
X119050000Y-87737500D03*
X118550000Y-87737500D03*
X118050000Y-87737500D03*
X117550000Y-87737500D03*
X117050000Y-87737500D03*
D37*
X116362500Y-87050000D03*
X116362500Y-86550000D03*
X116362500Y-86050000D03*
X116362500Y-85550000D03*
X116362500Y-85050000D03*
X116362500Y-84550000D03*
X116362500Y-84050000D03*
X116362500Y-83550000D03*
X116362500Y-83050000D03*
X116362500Y-82550000D03*
X116362500Y-82050000D03*
X116362500Y-81550000D03*
%TD*%
D38*
%TO.C,U2*%
X96406250Y-87750000D03*
D39*
X93543750Y-85475000D03*
X93543750Y-86125000D03*
X93543750Y-86775000D03*
X93543750Y-87425000D03*
X93543750Y-88075000D03*
X93543750Y-88725000D03*
X93543750Y-89375000D03*
X93543750Y-90025000D03*
X99268750Y-90025000D03*
X99268750Y-89375000D03*
X99268750Y-88725000D03*
X99268750Y-88075000D03*
X99268750Y-87425000D03*
X99268750Y-86775000D03*
X99268750Y-86125000D03*
X99268750Y-85475000D03*
%TD*%
D38*
%TO.C,U3*%
X96406250Y-94250000D03*
D39*
X93543750Y-91975000D03*
X93543750Y-92625000D03*
X93543750Y-93275000D03*
X93543750Y-93925000D03*
X93543750Y-94575000D03*
X93543750Y-95225000D03*
X93543750Y-95875000D03*
X93543750Y-96525000D03*
X99268750Y-96525000D03*
X99268750Y-95875000D03*
X99268750Y-95225000D03*
X99268750Y-94575000D03*
X99268750Y-93925000D03*
X99268750Y-93275000D03*
X99268750Y-92625000D03*
X99268750Y-91975000D03*
%TD*%
D40*
%TO.C,U4*%
X115637500Y-102050000D03*
X115637500Y-103000000D03*
X115637500Y-103950000D03*
X113362500Y-103950000D03*
X113362500Y-103000000D03*
X113362500Y-102050000D03*
%TD*%
%TO.C,U5*%
X128887500Y-104800000D03*
X128887500Y-105750000D03*
X128887500Y-106700000D03*
X126612500Y-106700000D03*
X126612500Y-105750000D03*
X126612500Y-104800000D03*
%TD*%
D41*
%TO.C,C15*%
X108500000Y-99750000D03*
X108500000Y-101650000D03*
%TD*%
%TO.C,C25*%
X124000000Y-102750000D03*
X124000000Y-104650000D03*
%TD*%
D29*
%TO.C,R9*%
X118520000Y-104000000D03*
X117500000Y-104000000D03*
%TD*%
D41*
%TO.C,C14*%
X110750000Y-99750000D03*
X110750000Y-101650000D03*
%TD*%
D42*
%TO.C,L1*%
X115150000Y-96250000D03*
X110850000Y-96250000D03*
%TD*%
D43*
%TO.C,C7*%
X110730000Y-88287500D03*
X109770000Y-88287500D03*
%TD*%
%TO.C,C2*%
X123500000Y-89750000D03*
X122540000Y-89750000D03*
%TD*%
D41*
%TO.C,C26*%
X121750000Y-102750000D03*
X121750000Y-104650000D03*
%TD*%
D44*
%TO.C,C21*%
X104406250Y-87055000D03*
X104406250Y-88605000D03*
%TD*%
D45*
%TO.C,C4*%
X124750000Y-80995000D03*
X124750000Y-81955000D03*
%TD*%
D18*
%TO.C,J1*%
X127460000Y-93750000D03*
D19*
X130000000Y-93750000D03*
X132540000Y-93750000D03*
X135080000Y-93750000D03*
%TD*%
D43*
%TO.C,C5*%
X110710000Y-85787500D03*
X109750000Y-85787500D03*
%TD*%
D46*
%TO.C,Y1*%
X112000000Y-82250000D03*
X109800000Y-82250000D03*
X109800000Y-83950000D03*
X112000000Y-83950000D03*
%TD*%
D47*
%TO.C,R4*%
X131250000Y-101510000D03*
X131250000Y-100490000D03*
%TD*%
D48*
%TO.C,C22*%
X114500000Y-80940000D03*
X114500000Y-79980000D03*
%TD*%
D28*
%TO.C,D2*%
X117750000Y-113500000D03*
X116175000Y-113500000D03*
%TD*%
D45*
%TO.C,C8*%
X114500000Y-84250000D03*
X114500000Y-85210000D03*
%TD*%
D49*
%TO.C,C20*%
X101156250Y-93250000D03*
X102116250Y-93250000D03*
%TD*%
D48*
%TO.C,C24*%
X129500000Y-103460000D03*
X129500000Y-102500000D03*
%TD*%
D47*
%TO.C,R8*%
X116000000Y-106520000D03*
X116000000Y-105500000D03*
%TD*%
%TO.C,R5*%
X115500000Y-90500000D03*
X115500000Y-89480000D03*
%TD*%
%TO.C,R2*%
X144212500Y-78760000D03*
X144212500Y-77740000D03*
%TD*%
D49*
%TO.C,C11*%
X120290000Y-89750000D03*
X121250000Y-89750000D03*
%TD*%
D11*
%TO.C,Q1*%
X131350000Y-96300000D03*
X131350000Y-98200000D03*
X133650000Y-97250000D03*
%TD*%
D48*
%TO.C,C10*%
X108250000Y-83730000D03*
X108250000Y-82770000D03*
%TD*%
D49*
%TO.C,C3*%
X116790000Y-79250000D03*
X117750000Y-79250000D03*
%TD*%
D50*
%TO.C,R6*%
X116750000Y-89480000D03*
X116750000Y-90500000D03*
%TD*%
D29*
%TO.C,R13*%
X131020000Y-112000000D03*
X130000000Y-112000000D03*
%TD*%
D27*
%TO.C,R7*%
X116905000Y-112000000D03*
X117925000Y-112000000D03*
%TD*%
%TO.C,R1*%
X104750000Y-71000000D03*
X105770000Y-71000000D03*
%TD*%
D44*
%TO.C,C18*%
X104406250Y-94200000D03*
X104406250Y-95750000D03*
%TD*%
D51*
%TO.C,D3*%
X120212500Y-94250000D03*
X121787500Y-94250000D03*
%TD*%
D52*
%TO.C,FB1*%
X112250000Y-86000000D03*
X112250000Y-87575000D03*
%TD*%
D48*
%TO.C,C9*%
X114500000Y-82960000D03*
X114500000Y-82000000D03*
%TD*%
D51*
%TO.C,D4*%
X130222500Y-113500000D03*
X131797500Y-113500000D03*
%TD*%
D47*
%TO.C,R10*%
X129250000Y-109270000D03*
X129250000Y-108250000D03*
%TD*%
D42*
%TO.C,L2*%
X128400000Y-99250000D03*
X124100000Y-99250000D03*
%TD*%
D50*
%TO.C,R12*%
X119000000Y-89480000D03*
X119000000Y-90500000D03*
%TD*%
D49*
%TO.C,C16*%
X101176250Y-86830000D03*
X102136250Y-86830000D03*
%TD*%
D44*
%TO.C,C1*%
X126500000Y-80200000D03*
X126500000Y-81750000D03*
%TD*%
D48*
%TO.C,C13*%
X116250000Y-100730000D03*
X116250000Y-99770000D03*
%TD*%
D50*
%TO.C,R3*%
X144212500Y-83240000D03*
X144212500Y-84260000D03*
%TD*%
D43*
%TO.C,C19*%
X102136250Y-95500000D03*
X101176250Y-95500000D03*
%TD*%
%TO.C,C17*%
X102136250Y-88830000D03*
X101176250Y-88830000D03*
%TD*%
%TO.C,C6*%
X110710000Y-87037500D03*
X109750000Y-87037500D03*
%TD*%
D29*
%TO.C,R11*%
X131500000Y-106750000D03*
X130480000Y-106750000D03*
%TD*%
M02*
