M48
; DRILL file {KiCad 9.0.2} date 2025-06-02T04:05:44-0400
; FORMAT={-:-/ absolute / metric / decimal}
; #@! TF.CreationDate,2025-06-02T04:05:44-04:00
; #@! TF.GenerationSoftware,Kicad,Pcbnew,9.0.2
; #@! TF.FileFunction,Plated,1,2,PTH
FMAT,2
METRIC
; #@! TA.AperFunction,Plated,PTH,ViaDrill
T1C0.300
; #@! TA.AperFunction,Plated,PTH,ComponentDrill
T2C0.300
; #@! TA.AperFunction,Plated,PTH,ComponentDrill
T3C0.600
; #@! TA.AperFunction,Plated,PTH,ComponentDrill
T4C0.600
; #@! TA.AperFunction,Plated,PTH,ComponentDrill
T5C0.700
; #@! TA.AperFunction,Plated,PTH,ComponentDrill
T6C0.950
; #@! TA.AperFunction,Plated,PTH,ComponentDrill
T7C1.000
; #@! TA.AperFunction,Plated,PTH,ComponentDrill
T8C2.700
%
G90
G05
T1
X95.25Y-84.58
X101.5Y-93.872
X101.771Y-89.695
X101.771Y-91.405
X103.0Y-86.83
X103.0Y-89.695
X103.0Y-93.75
X103.25Y-96.75
X104.0Y-91.405
X104.5Y-98.0
X105.5Y-72.5
X105.75Y-94.5
X105.906Y-88.58
X105.906Y-92.075
X106.75Y-90.365
X107.0Y-69.75
X107.25Y-94.5
X107.25Y-96.0
X107.25Y-98.0
X107.5Y-89.5
X107.75Y-103.0
X108.25Y-81.75
X109.25Y-76.5
X109.25Y-103.0
X110.5Y-89.373
X112.0Y-101.25
X112.25Y-80.5
X113.0Y-100.0
X113.25Y-78.0
X113.5Y-80.25
X113.5Y-86.75
X114.0Y-91.0
X115.5Y-80.25
X115.925Y-111.0
X116.261Y-91.261
X117.25Y-107.0
X117.5Y-93.612
X118.25Y-92.25
X118.5Y-103.0
X119.75Y-88.75
X121.0Y-106.0
X122.5Y-106.0
X123.75Y-88.5
X124.5Y-89.5
X124.75Y-79.0
X125.25Y-104.25
X126.25Y-103.0
X126.5Y-77.25
X127.0Y-86.5
X128.25Y-109.25
X131.5Y-105.75
X133.0Y-112.5
X133.25Y-100.0
X134.125Y-105.375
X137.5Y-108.75
T2
X95.656Y-86.25
X95.656Y-87.75
X95.656Y-89.25
X95.656Y-92.75
X95.656Y-94.25
X95.656Y-95.75
X97.156Y-86.25
X97.156Y-87.75
X97.156Y-89.25
X97.156Y-92.75
X97.156Y-94.25
X97.156Y-95.75
T5
X147.08Y-78.11
X147.08Y-83.89
T6
X113.25Y-73.945
X115.75Y-73.945
X118.25Y-73.945
X120.75Y-73.945
T7
X82.945Y-75.5
X82.945Y-78.0
X82.945Y-84.0
X82.945Y-86.5
X82.945Y-98.5
X82.945Y-101.0
X127.0Y-74.945
X127.46Y-93.75
X129.54Y-74.945
X130.0Y-93.75
X132.08Y-74.945
X132.54Y-93.75
X134.62Y-74.945
X135.08Y-93.75
T8
X91.65Y-100.75
X98.85Y-100.75
T3
G00X146.1Y-76.68
M15
G01X147.0Y-76.68
M16
G05
G00X146.1Y-85.32
M15
G01X147.0Y-85.32
M16
G05
G00X150.46Y-76.68
M15
G01X151.06Y-76.68
M16
G05
G00X150.46Y-85.32
M15
G01X151.06Y-85.32
M16
G05
T4
G00X88.5Y-107.3
M15
G01X88.5Y-106.2
M16
G05
G00X102.0Y-107.3
M15
G01X102.0Y-106.2
M16
G05
M30
