%TF.GenerationSoftware,KiCad,Pcbnew,9.0.2*%
%TF.CreationDate,2025-06-02T04:20:19-04:00*%
%TF.ProjectId,VolleyBot,566f6c6c-6579-4426-9f74-2e6b69636164,rev?*%
%TF.SameCoordinates,Original*%
%TF.FileFunction,Copper,L2,Bot*%
%TF.FilePolarity,Positive*%
%FSLAX46Y46*%
G04 Gerber Fmt 4.6, Leading zero omitted, Abs format (unit mm)*
G04 Created by KiCad (PCBNEW 9.0.2) date 2025-06-02 04:20:19*
%MOMM*%
%LPD*%
G01*
G04 APERTURE LIST*
G04 Aperture macros list*
%AMRoundRect*
0 Rectangle with rounded corners*
0 $1 Rounding radius*
0 $2 $3 $4 $5 $6 $7 $8 $9 X,Y pos of 4 corners*
0 Add a 4 corners polygon primitive as box body*
4,1,4,$2,$3,$4,$5,$6,$7,$8,$9,$2,$3,0*
0 Add four circle primitives for the rounded corners*
1,1,$1+$1,$2,$3*
1,1,$1+$1,$4,$5*
1,1,$1+$1,$6,$7*
1,1,$1+$1,$8,$9*
0 Add four rect primitives between the rounded corners*
20,1,$1+$1,$2,$3,$4,$5,0*
20,1,$1+$1,$4,$5,$6,$7,0*
20,1,$1+$1,$6,$7,$8,$9,0*
20,1,$1+$1,$8,$9,$2,$3,0*%
G04 Aperture macros list end*
%TA.AperFunction,ComponentPad*%
%ADD10O,1.800000X1.200000*%
%TD*%
%TA.AperFunction,ComponentPad*%
%ADD11O,2.000000X1.100000*%
%TD*%
%TA.AperFunction,ComponentPad*%
%ADD12C,0.700000*%
%TD*%
%TA.AperFunction,ComponentPad*%
%ADD13R,1.700000X1.700000*%
%TD*%
%TA.AperFunction,ComponentPad*%
%ADD14C,1.700000*%
%TD*%
%TA.AperFunction,ComponentPad*%
%ADD15RoundRect,0.250000X0.600000X0.725000X-0.600000X0.725000X-0.600000X-0.725000X0.600000X-0.725000X0*%
%TD*%
%TA.AperFunction,ComponentPad*%
%ADD16O,1.700000X1.950000*%
%TD*%
%TA.AperFunction,ComponentPad*%
%ADD17RoundRect,0.250000X-0.750000X0.600000X-0.750000X-0.600000X0.750000X-0.600000X0.750000X0.600000X0*%
%TD*%
%TA.AperFunction,ComponentPad*%
%ADD18O,2.000000X1.700000*%
%TD*%
%TA.AperFunction,ComponentPad*%
%ADD19R,0.900000X2.000000*%
%TD*%
%TA.AperFunction,ComponentPad*%
%ADD20RoundRect,1.025000X1.025000X1.025000X-1.025000X1.025000X-1.025000X-1.025000X1.025000X-1.025000X0*%
%TD*%
%TA.AperFunction,ComponentPad*%
%ADD21C,4.100000*%
%TD*%
%TA.AperFunction,HeatsinkPad*%
%ADD22C,0.600000*%
%TD*%
%TA.AperFunction,HeatsinkPad*%
%ADD23R,2.000000X3.500000*%
%TD*%
%TA.AperFunction,ViaPad*%
%ADD24C,0.600000*%
%TD*%
%TA.AperFunction,ViaPad*%
%ADD25C,0.700000*%
%TD*%
%TA.AperFunction,Conductor*%
%ADD26C,0.254000*%
%TD*%
%TA.AperFunction,Conductor*%
%ADD27C,0.406400*%
%TD*%
%TA.AperFunction,Conductor*%
%ADD28C,0.508000*%
%TD*%
G04 APERTURE END LIST*
D10*
%TO.P,USB2,14,SHELL*%
%TO.N,-BATT*%
X150760000Y-76680000D03*
D11*
X146550000Y-76680000D03*
D10*
%TO.P,USB2,13,SHELL*%
X150760000Y-85320000D03*
D11*
X146550000Y-85320000D03*
D12*
%TO.P,USB2,*%
%TO.N,*%
X147080000Y-78110000D03*
X147080000Y-83890000D03*
%TD*%
D13*
%TO.P,J2,1,Pin_1*%
%TO.N,+3.3V*%
X127000000Y-74945000D03*
D14*
%TO.P,J2,2,Pin_2*%
%TO.N,/SWCLK*%
X129540000Y-74945000D03*
%TO.P,J2,3,Pin_3*%
%TO.N,/SWDIO*%
X132080000Y-74945000D03*
%TO.P,J2,4,Pin_4*%
%TO.N,-BATT*%
X134620000Y-74945000D03*
%TD*%
D15*
%TO.P,J4,1,Pin_1*%
%TO.N,-BATT*%
X120750000Y-73945000D03*
D16*
%TO.P,J4,2,Pin_2*%
%TO.N,/I2C1_SCL*%
X118250000Y-73945000D03*
%TO.P,J4,3,Pin_3*%
%TO.N,/I2C1_SDA*%
X115750000Y-73945000D03*
%TO.P,J4,4,Pin_4*%
%TO.N,+3.3V*%
X113250000Y-73945000D03*
%TD*%
D17*
%TO.P,J5,1,Pin_1*%
%TO.N,Net-(J5-Pin_1)*%
X82945000Y-75500000D03*
D18*
%TO.P,J5,2,Pin_2*%
%TO.N,Net-(J5-Pin_2)*%
X82945000Y-78000000D03*
%TD*%
D17*
%TO.P,J6,1,Pin_1*%
%TO.N,Net-(J6-Pin_1)*%
X82945000Y-84000000D03*
D18*
%TO.P,J6,2,Pin_2*%
%TO.N,Net-(J6-Pin_2)*%
X82945000Y-86500000D03*
%TD*%
D17*
%TO.P,J7,1,Pin_1*%
%TO.N,Net-(J7-Pin_1)*%
X82945000Y-98500000D03*
D18*
%TO.P,J7,2,Pin_2*%
%TO.N,Net-(J7-Pin_2)*%
X82945000Y-101000000D03*
%TD*%
D19*
%TO.P,J3,*%
%TO.N,*%
X102000000Y-106750000D03*
X88500000Y-106750000D03*
D20*
%TO.P,J3,1,Pin_1*%
%TO.N,+BATT*%
X91650000Y-100750000D03*
D21*
%TO.P,J3,2,Pin_2*%
%TO.N,-BATT*%
X98850000Y-100750000D03*
%TD*%
D22*
%TO.P,U2,17,GND*%
%TO.N,-BATT*%
X95656250Y-86250000D03*
X95656250Y-87750000D03*
X95656250Y-89250000D03*
D23*
X96406250Y-87750000D03*
D22*
X97156250Y-86250000D03*
X97156250Y-87750000D03*
X97156250Y-89250000D03*
%TD*%
%TO.P,U3,17,GND*%
%TO.N,-BATT*%
X95656250Y-92750000D03*
X95656250Y-94250000D03*
X95656250Y-95750000D03*
D23*
X96406250Y-94250000D03*
D22*
X97156250Y-92750000D03*
X97156250Y-94250000D03*
X97156250Y-95750000D03*
%TD*%
D13*
%TO.P,J1,1,Pin_1*%
%TO.N,/USART1_TX*%
X127460000Y-93750000D03*
D14*
%TO.P,J1,2,Pin_2*%
%TO.N,/USART1_RX*%
X130000000Y-93750000D03*
%TO.P,J1,3,Pin_3*%
%TO.N,-BATT*%
X132540000Y-93750000D03*
%TO.P,J1,4,Pin_4*%
%TO.N,/PI_POWER*%
X135080000Y-93750000D03*
%TD*%
D24*
%TO.N,-BATT*%
X117250000Y-107000000D03*
%TO.N,/BATT+_IN*%
X105750000Y-94500000D03*
%TO.N,+3.3V*%
X115925000Y-111000000D03*
X106750000Y-90365000D03*
X113500000Y-80250000D03*
X101771481Y-91405000D03*
X113250000Y-78000000D03*
X126500000Y-77250000D03*
X123750000Y-88500000D03*
D25*
X113500000Y-86750000D03*
D24*
X107250000Y-96000000D03*
X101500000Y-93871800D03*
X101771481Y-89695000D03*
X113000000Y-100000000D03*
X117500000Y-93612000D03*
X118500000Y-103000000D03*
X95250000Y-84580000D03*
X107250000Y-98000000D03*
X107250000Y-94500000D03*
X110500000Y-89373000D03*
X104500000Y-98000000D03*
%TO.N,+5V*%
X131500000Y-105750000D03*
X126250000Y-103000000D03*
%TO.N,-BATT*%
X124500000Y-89500000D03*
X125250000Y-104250000D03*
X103000000Y-86830000D03*
X121000000Y-106000000D03*
X104000000Y-91405000D03*
X107750000Y-103000000D03*
X118250000Y-92250000D03*
X103000000Y-93750000D03*
X116260549Y-91260549D03*
X128250000Y-109250000D03*
X122500000Y-106000000D03*
X124750000Y-79000000D03*
X112250000Y-80500000D03*
X103250000Y-96750000D03*
X109250000Y-103000000D03*
X105500000Y-72500000D03*
X107000000Y-69750000D03*
X108250000Y-81750000D03*
X115500000Y-80250000D03*
X114000000Y-91000000D03*
X127000000Y-86500000D03*
X112000000Y-101250000D03*
X119750000Y-88750000D03*
X109250000Y-76500000D03*
X103000000Y-89695000D03*
X107500000Y-89500000D03*
%TO.N,/BATT+_IN*%
X105906250Y-88580000D03*
X105906250Y-92075000D03*
%TO.N,/PI_POWER*%
X133250000Y-100000000D03*
X133000000Y-112500000D03*
%TO.N,Net-(SW2-A)*%
X134125000Y-105375000D03*
X137500000Y-108750000D03*
%TD*%
D26*
%TO.N,/PI_POWER*%
X133250000Y-112250000D02*
X133000000Y-112500000D01*
X133250000Y-100000000D02*
X133250000Y-112250000D01*
D27*
%TO.N,Net-(SW2-A)*%
X137500000Y-108750000D02*
X134125000Y-105375000D01*
D26*
%TO.N,+3.3V*%
X101830000Y-91405000D02*
X101771481Y-91405000D01*
X103712500Y-93287500D02*
X101830000Y-91405000D01*
X101771481Y-91405000D02*
X101771481Y-89695000D01*
D27*
%TO.N,/BATT+_IN*%
X105906250Y-94343750D02*
X105750000Y-94500000D01*
X105906250Y-92075000D02*
X105906250Y-94343750D01*
X105906250Y-88580000D02*
X105906250Y-92075000D01*
D26*
%TO.N,+3.3V*%
X118500000Y-104250000D02*
X118500000Y-103000000D01*
X115925000Y-106825000D02*
X118500000Y-104250000D01*
X115925000Y-111000000D02*
X115925000Y-106825000D01*
X101771481Y-87351481D02*
X101771481Y-89695000D01*
X105925000Y-96000000D02*
X103712500Y-93787500D01*
D28*
X113000000Y-100000000D02*
X115500000Y-100000000D01*
D26*
X124250000Y-88000000D02*
X123750000Y-88500000D01*
X106750000Y-94000000D02*
X106750000Y-90365000D01*
D28*
X115500000Y-100000000D02*
X118500000Y-103000000D01*
D26*
X124250000Y-81500000D02*
X124250000Y-88000000D01*
X99000000Y-84580000D02*
X101771481Y-87351481D01*
D27*
X126500000Y-77250000D02*
X127000000Y-76750000D01*
D26*
X118638000Y-93612000D02*
X123750000Y-88500000D01*
X117500000Y-93612000D02*
X118638000Y-93612000D01*
D27*
X127000000Y-76750000D02*
X127000000Y-74945000D01*
D26*
X109508000Y-90365000D02*
X110500000Y-89373000D01*
X95250000Y-84580000D02*
X99000000Y-84580000D01*
X103712500Y-93787500D02*
X103712500Y-93287500D01*
X113500000Y-86750000D02*
X113500000Y-80250000D01*
X126500000Y-77250000D02*
X126500000Y-79250000D01*
D28*
X113250000Y-78000000D02*
X113250000Y-73945000D01*
D26*
X107250000Y-94500000D02*
X106750000Y-94000000D01*
X107250000Y-98000000D02*
X104500000Y-98000000D01*
X101500000Y-93871800D02*
X102249800Y-93122000D01*
X102249800Y-93122000D02*
X103547000Y-93122000D01*
X103547000Y-93122000D02*
X103712500Y-93287500D01*
X106750000Y-90365000D02*
X109508000Y-90365000D01*
X126500000Y-79250000D02*
X124250000Y-81500000D01*
X107250000Y-96000000D02*
X105925000Y-96000000D01*
D28*
%TO.N,+5V*%
X126250000Y-103000000D02*
X128750000Y-103000000D01*
X128750000Y-103000000D02*
X131500000Y-105750000D01*
%TD*%
%TA.AperFunction,Conductor*%
%TO.N,-BATT*%
G36*
X149503032Y-64750648D02*
G01*
X149836929Y-64767052D01*
X149849037Y-64768245D01*
X149952146Y-64783539D01*
X150176699Y-64816849D01*
X150188617Y-64819219D01*
X150509951Y-64899709D01*
X150521588Y-64903240D01*
X150592806Y-64928722D01*
X150833467Y-65014832D01*
X150844688Y-65019479D01*
X151144163Y-65161120D01*
X151154871Y-65166844D01*
X151438988Y-65337137D01*
X151449106Y-65343897D01*
X151715170Y-65541224D01*
X151724576Y-65548944D01*
X151970013Y-65771395D01*
X151978604Y-65779986D01*
X152138032Y-65955888D01*
X152201055Y-66025423D01*
X152208775Y-66034829D01*
X152406102Y-66300893D01*
X152412862Y-66311011D01*
X152567491Y-66568995D01*
X152583148Y-66595116D01*
X152588883Y-66605844D01*
X152695760Y-66831817D01*
X152730514Y-66905297D01*
X152735170Y-66916540D01*
X152846759Y-67228411D01*
X152850292Y-67240055D01*
X152930777Y-67561369D01*
X152933151Y-67573305D01*
X152981754Y-67900962D01*
X152982947Y-67913071D01*
X152999351Y-68246966D01*
X152999500Y-68253051D01*
X152999500Y-112246948D01*
X152999351Y-112253033D01*
X152982947Y-112586928D01*
X152981754Y-112599037D01*
X152933151Y-112926694D01*
X152930777Y-112938630D01*
X152850292Y-113259944D01*
X152846759Y-113271588D01*
X152735170Y-113583459D01*
X152730514Y-113594702D01*
X152588885Y-113894151D01*
X152583148Y-113904883D01*
X152412862Y-114188988D01*
X152406102Y-114199106D01*
X152208775Y-114465170D01*
X152201055Y-114474576D01*
X151978611Y-114720006D01*
X151970006Y-114728611D01*
X151724576Y-114951055D01*
X151715170Y-114958775D01*
X151449106Y-115156102D01*
X151438988Y-115162862D01*
X151154883Y-115333148D01*
X151144151Y-115338885D01*
X150844702Y-115480514D01*
X150833459Y-115485170D01*
X150521588Y-115596759D01*
X150509944Y-115600292D01*
X150188630Y-115680777D01*
X150176694Y-115683151D01*
X149849037Y-115731754D01*
X149836928Y-115732947D01*
X149521989Y-115748419D01*
X149503031Y-115749351D01*
X149496949Y-115749500D01*
X77503051Y-115749500D01*
X77496968Y-115749351D01*
X77476900Y-115748365D01*
X77163071Y-115732947D01*
X77150962Y-115731754D01*
X76823305Y-115683151D01*
X76811369Y-115680777D01*
X76490055Y-115600292D01*
X76478411Y-115596759D01*
X76166540Y-115485170D01*
X76155301Y-115480515D01*
X75855844Y-115338883D01*
X75845121Y-115333150D01*
X75561011Y-115162862D01*
X75550893Y-115156102D01*
X75284829Y-114958775D01*
X75275423Y-114951055D01*
X75236475Y-114915755D01*
X75029986Y-114728604D01*
X75021395Y-114720013D01*
X74798944Y-114474576D01*
X74791224Y-114465170D01*
X74770196Y-114436817D01*
X74593895Y-114199103D01*
X74587137Y-114188988D01*
X74563166Y-114148995D01*
X107549499Y-114148995D01*
X107576418Y-114284322D01*
X107576421Y-114284332D01*
X107629221Y-114411804D01*
X107629228Y-114411817D01*
X107705885Y-114526541D01*
X107705888Y-114526545D01*
X107803454Y-114624111D01*
X107803458Y-114624114D01*
X107918182Y-114700771D01*
X107918195Y-114700778D01*
X107985391Y-114728611D01*
X108045672Y-114753580D01*
X108045676Y-114753580D01*
X108045677Y-114753581D01*
X108181004Y-114780500D01*
X108181007Y-114780500D01*
X108318995Y-114780500D01*
X108410041Y-114762389D01*
X108454328Y-114753580D01*
X108581811Y-114700775D01*
X108696542Y-114624114D01*
X108794114Y-114526542D01*
X108870775Y-114411811D01*
X108923580Y-114284328D01*
X108941504Y-114194218D01*
X108950500Y-114148995D01*
X110549499Y-114148995D01*
X110576418Y-114284322D01*
X110576421Y-114284332D01*
X110629221Y-114411804D01*
X110629228Y-114411817D01*
X110705885Y-114526541D01*
X110705888Y-114526545D01*
X110803454Y-114624111D01*
X110803458Y-114624114D01*
X110918182Y-114700771D01*
X110918195Y-114700778D01*
X110985391Y-114728611D01*
X111045672Y-114753580D01*
X111045676Y-114753580D01*
X111045677Y-114753581D01*
X111181004Y-114780500D01*
X111181007Y-114780500D01*
X111318995Y-114780500D01*
X111410041Y-114762389D01*
X111454328Y-114753580D01*
X111581811Y-114700775D01*
X111696542Y-114624114D01*
X111794114Y-114526542D01*
X111870775Y-114411811D01*
X111923580Y-114284328D01*
X111941504Y-114194218D01*
X111945527Y-114173995D01*
X137549499Y-114173995D01*
X137576418Y-114309322D01*
X137576421Y-114309332D01*
X137629221Y-114436804D01*
X137629228Y-114436817D01*
X137705885Y-114551541D01*
X137705888Y-114551545D01*
X137803454Y-114649111D01*
X137803458Y-114649114D01*
X137918182Y-114725771D01*
X137918195Y-114725778D01*
X138045667Y-114778578D01*
X138045672Y-114778580D01*
X138045676Y-114778580D01*
X138045677Y-114778581D01*
X138181004Y-114805500D01*
X138181007Y-114805500D01*
X138318995Y-114805500D01*
X138410041Y-114787389D01*
X138454328Y-114778580D01*
X138581811Y-114725775D01*
X138696542Y-114649114D01*
X138794114Y-114551542D01*
X138870775Y-114436811D01*
X138923580Y-114309328D01*
X138946477Y-114194218D01*
X138950500Y-114173995D01*
X140549499Y-114173995D01*
X140576418Y-114309322D01*
X140576421Y-114309332D01*
X140629221Y-114436804D01*
X140629228Y-114436817D01*
X140705885Y-114551541D01*
X140705888Y-114551545D01*
X140803454Y-114649111D01*
X140803458Y-114649114D01*
X140918182Y-114725771D01*
X140918195Y-114725778D01*
X141045667Y-114778578D01*
X141045672Y-114778580D01*
X141045676Y-114778580D01*
X141045677Y-114778581D01*
X141181004Y-114805500D01*
X141181007Y-114805500D01*
X141318995Y-114805500D01*
X141410041Y-114787389D01*
X141454328Y-114778580D01*
X141581811Y-114725775D01*
X141696542Y-114649114D01*
X141794114Y-114551542D01*
X141870775Y-114436811D01*
X141923580Y-114309328D01*
X141946477Y-114194218D01*
X141950500Y-114173995D01*
X141950500Y-114036004D01*
X141923581Y-113900677D01*
X141923580Y-113900676D01*
X141923580Y-113900672D01*
X141913223Y-113875667D01*
X141870778Y-113773195D01*
X141870771Y-113773182D01*
X141794114Y-113658458D01*
X141794111Y-113658454D01*
X141696545Y-113560888D01*
X141696541Y-113560885D01*
X141581817Y-113484228D01*
X141581804Y-113484221D01*
X141454332Y-113431421D01*
X141454322Y-113431418D01*
X141318995Y-113404500D01*
X141318993Y-113404500D01*
X141181007Y-113404500D01*
X141181005Y-113404500D01*
X141045677Y-113431418D01*
X141045667Y-113431421D01*
X140918195Y-113484221D01*
X140918182Y-113484228D01*
X140803458Y-113560885D01*
X140803454Y-113560888D01*
X140705888Y-113658454D01*
X140705885Y-113658458D01*
X140629228Y-113773182D01*
X140629221Y-113773195D01*
X140576421Y-113900667D01*
X140576418Y-113900677D01*
X140549500Y-114036004D01*
X140549500Y-114036007D01*
X140549500Y-114173993D01*
X140549500Y-114173995D01*
X140549499Y-114173995D01*
X138950500Y-114173995D01*
X138950500Y-114036004D01*
X138923581Y-113900677D01*
X138923580Y-113900676D01*
X138923580Y-113900672D01*
X138913223Y-113875667D01*
X138870778Y-113773195D01*
X138870771Y-113773182D01*
X138794114Y-113658458D01*
X138794111Y-113658454D01*
X138696545Y-113560888D01*
X138696541Y-113560885D01*
X138581817Y-113484228D01*
X138581804Y-113484221D01*
X138454332Y-113431421D01*
X138454322Y-113431418D01*
X138318995Y-113404500D01*
X138318993Y-113404500D01*
X138181007Y-113404500D01*
X138181005Y-113404500D01*
X138045677Y-113431418D01*
X138045667Y-113431421D01*
X137918195Y-113484221D01*
X137918182Y-113484228D01*
X137803458Y-113560885D01*
X137803454Y-113560888D01*
X137705888Y-113658454D01*
X137705885Y-113658458D01*
X137629228Y-113773182D01*
X137629221Y-113773195D01*
X137576421Y-113900667D01*
X137576418Y-113900677D01*
X137549500Y-114036004D01*
X137549500Y-114036007D01*
X137549500Y-114173993D01*
X137549500Y-114173995D01*
X137549499Y-114173995D01*
X111945527Y-114173995D01*
X111950500Y-114148995D01*
X111950500Y-114011004D01*
X111923581Y-113875677D01*
X111923580Y-113875676D01*
X111923580Y-113875672D01*
X111881133Y-113773195D01*
X111870778Y-113748195D01*
X111870771Y-113748182D01*
X111794114Y-113633458D01*
X111794111Y-113633454D01*
X111696545Y-113535888D01*
X111696541Y-113535885D01*
X111581817Y-113459228D01*
X111581804Y-113459221D01*
X111454332Y-113406421D01*
X111454322Y-113406418D01*
X111318995Y-113379500D01*
X111318993Y-113379500D01*
X111181007Y-113379500D01*
X111181005Y-113379500D01*
X111045677Y-113406418D01*
X111045667Y-113406421D01*
X110918195Y-113459221D01*
X110918182Y-113459228D01*
X110803458Y-113535885D01*
X110803454Y-113535888D01*
X110705888Y-113633454D01*
X110705885Y-113633458D01*
X110629228Y-113748182D01*
X110629221Y-113748195D01*
X110576421Y-113875667D01*
X110576418Y-113875677D01*
X110549500Y-114011004D01*
X110549500Y-114011007D01*
X110549500Y-114148993D01*
X110549500Y-114148995D01*
X110549499Y-114148995D01*
X108950500Y-114148995D01*
X108950500Y-114011004D01*
X108923581Y-113875677D01*
X108923580Y-113875676D01*
X108923580Y-113875672D01*
X108881133Y-113773195D01*
X108870778Y-113748195D01*
X108870771Y-113748182D01*
X108794114Y-113633458D01*
X108794111Y-113633454D01*
X108696545Y-113535888D01*
X108696541Y-113535885D01*
X108581817Y-113459228D01*
X108581804Y-113459221D01*
X108454332Y-113406421D01*
X108454322Y-113406418D01*
X108318995Y-113379500D01*
X108318993Y-113379500D01*
X108181007Y-113379500D01*
X108181005Y-113379500D01*
X108045677Y-113406418D01*
X108045667Y-113406421D01*
X107918195Y-113459221D01*
X107918182Y-113459228D01*
X107803458Y-113535885D01*
X107803454Y-113535888D01*
X107705888Y-113633454D01*
X107705885Y-113633458D01*
X107629228Y-113748182D01*
X107629221Y-113748195D01*
X107576421Y-113875667D01*
X107576418Y-113875677D01*
X107549500Y-114011004D01*
X107549500Y-114011007D01*
X107549500Y-114148993D01*
X107549500Y-114148995D01*
X107549499Y-114148995D01*
X74563166Y-114148995D01*
X74416844Y-113904871D01*
X74411120Y-113894163D01*
X74269479Y-113594688D01*
X74264829Y-113583459D01*
X74256752Y-113560886D01*
X74153240Y-113271588D01*
X74149707Y-113259944D01*
X74117106Y-113129792D01*
X74069219Y-112938617D01*
X74066848Y-112926694D01*
X74018245Y-112599037D01*
X74017052Y-112586927D01*
X74000649Y-112253032D01*
X74000500Y-112246948D01*
X74000500Y-112143713D01*
X76149500Y-112143713D01*
X76149500Y-112356286D01*
X76182753Y-112566239D01*
X76182753Y-112566241D01*
X76182754Y-112566243D01*
X76193409Y-112599037D01*
X76248444Y-112768414D01*
X76344951Y-112957820D01*
X76469890Y-113129786D01*
X76620213Y-113280109D01*
X76792179Y-113405048D01*
X76792181Y-113405049D01*
X76792184Y-113405051D01*
X76981588Y-113501557D01*
X77183757Y-113567246D01*
X77393713Y-113600500D01*
X77393714Y-113600500D01*
X77606286Y-113600500D01*
X77606287Y-113600500D01*
X77816243Y-113567246D01*
X78018412Y-113501557D01*
X78207816Y-113405051D01*
X78242984Y-113379500D01*
X78379786Y-113280109D01*
X78379788Y-113280106D01*
X78379792Y-113280104D01*
X78530104Y-113129792D01*
X78530106Y-113129788D01*
X78530109Y-113129786D01*
X78655048Y-112957820D01*
X78655047Y-112957820D01*
X78655051Y-112957816D01*
X78751557Y-112768412D01*
X78817246Y-112566243D01*
X78839217Y-112427525D01*
X132449500Y-112427525D01*
X132449500Y-112572475D01*
X132487016Y-112712485D01*
X132487017Y-112712488D01*
X132559488Y-112838011D01*
X132559490Y-112838013D01*
X132559491Y-112838015D01*
X132661985Y-112940509D01*
X132661986Y-112940510D01*
X132661988Y-112940511D01*
X132787511Y-113012982D01*
X132787512Y-113012982D01*
X132787515Y-113012984D01*
X132927525Y-113050500D01*
X132927528Y-113050500D01*
X133072472Y-113050500D01*
X133072475Y-113050500D01*
X133212485Y-113012984D01*
X133338015Y-112940509D01*
X133440509Y-112838015D01*
X133512984Y-112712485D01*
X133550500Y-112572475D01*
X133550500Y-112517744D01*
X133554649Y-112502255D01*
X133553995Y-112488512D01*
X133567112Y-112455746D01*
X133593609Y-112409850D01*
X133593611Y-112409847D01*
X133599296Y-112400000D01*
X133601773Y-112395710D01*
X133601774Y-112395709D01*
X133627500Y-112299699D01*
X133627500Y-112143713D01*
X148149500Y-112143713D01*
X148149500Y-112356286D01*
X148182753Y-112566239D01*
X148182753Y-112566241D01*
X148182754Y-112566243D01*
X148193409Y-112599037D01*
X148248444Y-112768414D01*
X148344951Y-112957820D01*
X148469890Y-113129786D01*
X148620213Y-113280109D01*
X148792179Y-113405048D01*
X148792181Y-113405049D01*
X148792184Y-113405051D01*
X148981588Y-113501557D01*
X149183757Y-113567246D01*
X149393713Y-113600500D01*
X149393714Y-113600500D01*
X149606286Y-113600500D01*
X149606287Y-113600500D01*
X149816243Y-113567246D01*
X150018412Y-113501557D01*
X150207816Y-113405051D01*
X150242984Y-113379500D01*
X150379786Y-113280109D01*
X150379788Y-113280106D01*
X150379792Y-113280104D01*
X150530104Y-113129792D01*
X150530106Y-113129788D01*
X150530109Y-113129786D01*
X150655048Y-112957820D01*
X150655047Y-112957820D01*
X150655051Y-112957816D01*
X150751557Y-112768412D01*
X150817246Y-112566243D01*
X150850500Y-112356287D01*
X150850500Y-112143713D01*
X150817246Y-111933757D01*
X150751557Y-111731588D01*
X150655051Y-111542184D01*
X150655049Y-111542181D01*
X150655048Y-111542179D01*
X150530109Y-111370213D01*
X150379786Y-111219890D01*
X150207820Y-111094951D01*
X150018414Y-110998444D01*
X150018413Y-110998443D01*
X150018412Y-110998443D01*
X149816243Y-110932754D01*
X149816241Y-110932753D01*
X149816240Y-110932753D01*
X149654957Y-110907208D01*
X149606287Y-110899500D01*
X149393713Y-110899500D01*
X149345042Y-110907208D01*
X149183760Y-110932753D01*
X148981585Y-110998444D01*
X148792179Y-111094951D01*
X148620213Y-111219890D01*
X148469890Y-111370213D01*
X148344951Y-111542179D01*
X148248444Y-111731585D01*
X148182753Y-111933760D01*
X148149500Y-112143713D01*
X133627500Y-112143713D01*
X133627500Y-105938204D01*
X133637013Y-105905804D01*
X133645912Y-105873187D01*
X133646835Y-105872355D01*
X133647185Y-105871165D01*
X133672696Y-105849059D01*
X133697825Y-105826423D01*
X133699051Y-105826222D01*
X133699989Y-105825410D01*
X133733427Y-105820602D01*
X133766779Y-105815149D01*
X133768151Y-105815609D01*
X133769147Y-105815466D01*
X133800828Y-105824438D01*
X133807343Y-105827263D01*
X133912515Y-105887984D01*
X134003789Y-105912441D01*
X134012184Y-105916081D01*
X134027582Y-105928913D01*
X134050537Y-105942166D01*
X136932832Y-108824461D01*
X136964925Y-108880047D01*
X136987014Y-108962481D01*
X136987017Y-108962488D01*
X137059488Y-109088011D01*
X137059490Y-109088013D01*
X137059491Y-109088015D01*
X137161985Y-109190509D01*
X137161986Y-109190510D01*
X137161988Y-109190511D01*
X137287511Y-109262982D01*
X137287512Y-109262982D01*
X137287515Y-109262984D01*
X137427525Y-109300500D01*
X137427528Y-109300500D01*
X137572472Y-109300500D01*
X137572475Y-109300500D01*
X137712485Y-109262984D01*
X137838015Y-109190509D01*
X137940509Y-109088015D01*
X138012984Y-108962485D01*
X138050500Y-108822475D01*
X138050500Y-108677525D01*
X138012984Y-108537515D01*
X137940509Y-108411985D01*
X137838015Y-108309491D01*
X137838013Y-108309490D01*
X137838011Y-108309488D01*
X137712488Y-108237017D01*
X137712481Y-108237014D01*
X137630047Y-108214925D01*
X137574461Y-108182832D01*
X134692166Y-105300537D01*
X134660073Y-105244951D01*
X134637984Y-105162515D01*
X134565509Y-105036985D01*
X134463015Y-104934491D01*
X134463013Y-104934490D01*
X134463011Y-104934488D01*
X134337488Y-104862017D01*
X134337489Y-104862017D01*
X134322053Y-104857881D01*
X134197475Y-104824500D01*
X134052525Y-104824500D01*
X133927947Y-104857881D01*
X133912511Y-104862017D01*
X133813500Y-104919182D01*
X133745600Y-104935655D01*
X133679573Y-104912803D01*
X133636382Y-104857881D01*
X133627500Y-104811795D01*
X133627500Y-100452386D01*
X133647185Y-100385347D01*
X133663819Y-100364705D01*
X133690509Y-100338015D01*
X133762984Y-100212485D01*
X133800500Y-100072475D01*
X133800500Y-99927525D01*
X133762984Y-99787515D01*
X133690509Y-99661985D01*
X133588015Y-99559491D01*
X133588013Y-99559490D01*
X133588011Y-99559488D01*
X133462488Y-99487017D01*
X133462489Y-99487017D01*
X133451006Y-99483940D01*
X133322475Y-99449500D01*
X133177525Y-99449500D01*
X133048993Y-99483940D01*
X133037511Y-99487017D01*
X132911988Y-99559488D01*
X132911982Y-99559493D01*
X132809493Y-99661982D01*
X132809488Y-99661988D01*
X132737017Y-99787511D01*
X132737016Y-99787515D01*
X132699500Y-99927525D01*
X132699500Y-100072475D01*
X132737016Y-100212485D01*
X132737017Y-100212488D01*
X132809488Y-100338011D01*
X132809493Y-100338017D01*
X132836181Y-100364705D01*
X132869666Y-100426028D01*
X132872500Y-100452386D01*
X132872500Y-111869096D01*
X132852815Y-111936135D01*
X132800011Y-111981890D01*
X132794938Y-111983713D01*
X132795019Y-111983908D01*
X132787511Y-111987017D01*
X132661988Y-112059488D01*
X132661982Y-112059493D01*
X132559493Y-112161982D01*
X132559488Y-112161988D01*
X132487017Y-112287511D01*
X132487016Y-112287515D01*
X132449500Y-112427525D01*
X78839217Y-112427525D01*
X78850500Y-112356287D01*
X78850500Y-112143713D01*
X78817246Y-111933757D01*
X78751557Y-111731588D01*
X78655051Y-111542184D01*
X78655049Y-111542181D01*
X78655048Y-111542179D01*
X78530109Y-111370213D01*
X78379786Y-111219890D01*
X78207820Y-111094951D01*
X78018414Y-110998444D01*
X78018413Y-110998443D01*
X78018412Y-110998443D01*
X77816243Y-110932754D01*
X77816241Y-110932753D01*
X77816240Y-110932753D01*
X77654957Y-110907208D01*
X77606287Y-110899500D01*
X77393713Y-110899500D01*
X77345042Y-110907208D01*
X77183760Y-110932753D01*
X76981585Y-110998444D01*
X76792179Y-111094951D01*
X76620213Y-111219890D01*
X76469890Y-111370213D01*
X76344951Y-111542179D01*
X76248444Y-111731585D01*
X76182753Y-111933760D01*
X76149500Y-112143713D01*
X74000500Y-112143713D01*
X74000500Y-105725321D01*
X87799500Y-105725321D01*
X87799500Y-107774678D01*
X87814032Y-107847735D01*
X87814033Y-107847739D01*
X87814034Y-107847740D01*
X87869399Y-107930601D01*
X87952260Y-107985966D01*
X87952264Y-107985967D01*
X88025321Y-108000499D01*
X88025324Y-108000500D01*
X88025326Y-108000500D01*
X88974676Y-108000500D01*
X88974677Y-108000499D01*
X89047740Y-107985966D01*
X89130601Y-107930601D01*
X89185966Y-107847740D01*
X89200500Y-107774674D01*
X89200500Y-105725326D01*
X89200500Y-105725323D01*
X89200499Y-105725321D01*
X101299500Y-105725321D01*
X101299500Y-107774678D01*
X101314032Y-107847735D01*
X101314033Y-107847739D01*
X101314034Y-107847740D01*
X101369399Y-107930601D01*
X101452260Y-107985966D01*
X101452264Y-107985967D01*
X101525321Y-108000499D01*
X101525324Y-108000500D01*
X101525326Y-108000500D01*
X102474676Y-108000500D01*
X102474677Y-108000499D01*
X102547740Y-107985966D01*
X102630601Y-107930601D01*
X102685966Y-107847740D01*
X102700500Y-107774674D01*
X102700500Y-105725326D01*
X102700500Y-105725323D01*
X102700499Y-105725321D01*
X102685967Y-105652264D01*
X102685966Y-105652260D01*
X102660604Y-105614303D01*
X102630601Y-105569399D01*
X102547740Y-105514034D01*
X102547739Y-105514033D01*
X102547735Y-105514032D01*
X102474677Y-105499500D01*
X102474674Y-105499500D01*
X101525326Y-105499500D01*
X101525323Y-105499500D01*
X101452264Y-105514032D01*
X101452260Y-105514033D01*
X101369399Y-105569399D01*
X101314033Y-105652260D01*
X101314032Y-105652264D01*
X101299500Y-105725321D01*
X89200499Y-105725321D01*
X89185967Y-105652264D01*
X89185966Y-105652260D01*
X89160604Y-105614303D01*
X89130601Y-105569399D01*
X89047740Y-105514034D01*
X89047739Y-105514033D01*
X89047735Y-105514032D01*
X88974677Y-105499500D01*
X88974674Y-105499500D01*
X88025326Y-105499500D01*
X88025323Y-105499500D01*
X87952264Y-105514032D01*
X87952260Y-105514033D01*
X87869399Y-105569399D01*
X87814033Y-105652260D01*
X87814032Y-105652264D01*
X87799500Y-105725321D01*
X74000500Y-105725321D01*
X74000500Y-100913389D01*
X81694500Y-100913389D01*
X81694500Y-101086611D01*
X81721598Y-101257701D01*
X81775127Y-101422445D01*
X81853768Y-101576788D01*
X81955586Y-101716928D01*
X82078072Y-101839414D01*
X82218212Y-101941232D01*
X82372555Y-102019873D01*
X82537299Y-102073402D01*
X82708389Y-102100500D01*
X82708390Y-102100500D01*
X83181610Y-102100500D01*
X83181611Y-102100500D01*
X83352701Y-102073402D01*
X83517445Y-102019873D01*
X83671788Y-101941232D01*
X83811928Y-101839414D01*
X83934414Y-101716928D01*
X84036232Y-101576788D01*
X84114873Y-101422445D01*
X84168402Y-101257701D01*
X84195500Y-101086611D01*
X84195500Y-100913389D01*
X84168402Y-100742299D01*
X84114873Y-100577555D01*
X84036232Y-100423212D01*
X83934414Y-100283072D01*
X83811928Y-100160586D01*
X83671788Y-100058768D01*
X83517445Y-99980127D01*
X83352701Y-99926598D01*
X83352699Y-99926597D01*
X83352698Y-99926597D01*
X83221271Y-99905781D01*
X83181611Y-99899500D01*
X82708389Y-99899500D01*
X82668728Y-99905781D01*
X82537302Y-99926597D01*
X82372552Y-99980128D01*
X82218211Y-100058768D01*
X82138256Y-100116859D01*
X82078072Y-100160586D01*
X82078070Y-100160588D01*
X82078069Y-100160588D01*
X81955588Y-100283069D01*
X81955588Y-100283070D01*
X81955586Y-100283072D01*
X81915670Y-100338011D01*
X81853768Y-100423211D01*
X81775128Y-100577552D01*
X81721597Y-100742302D01*
X81694500Y-100913389D01*
X74000500Y-100913389D01*
X74000500Y-99659481D01*
X89349500Y-99659481D01*
X89349500Y-101840504D01*
X89349501Y-101840519D01*
X89360111Y-101975338D01*
X89416210Y-102197976D01*
X89511159Y-102407010D01*
X89511162Y-102407016D01*
X89641904Y-102595732D01*
X89641908Y-102595737D01*
X89641911Y-102595741D01*
X89804259Y-102758089D01*
X89804263Y-102758092D01*
X89804267Y-102758095D01*
X89846727Y-102787511D01*
X89992986Y-102888839D01*
X90078160Y-102927527D01*
X90202023Y-102983789D01*
X90202024Y-102983789D01*
X90202026Y-102983790D01*
X90424661Y-103039889D01*
X90559487Y-103050500D01*
X92740512Y-103050499D01*
X92875339Y-103039889D01*
X93097974Y-102983790D01*
X93307014Y-102888839D01*
X93495741Y-102758089D01*
X93658089Y-102595741D01*
X93788839Y-102407014D01*
X93883790Y-102197974D01*
X93939889Y-101975339D01*
X93950500Y-101840513D01*
X93950499Y-99927525D01*
X112449500Y-99927525D01*
X112449500Y-100072475D01*
X112487016Y-100212485D01*
X112487017Y-100212488D01*
X112559488Y-100338011D01*
X112559490Y-100338013D01*
X112559491Y-100338015D01*
X112661985Y-100440509D01*
X112661986Y-100440510D01*
X112661988Y-100440511D01*
X112787511Y-100512982D01*
X112787512Y-100512982D01*
X112787515Y-100512984D01*
X112927525Y-100550500D01*
X112927528Y-100550500D01*
X113072472Y-100550500D01*
X113072475Y-100550500D01*
X113212485Y-100512984D01*
X113212486Y-100512982D01*
X113220335Y-100510880D01*
X113220599Y-100511865D01*
X113257632Y-100504500D01*
X115239667Y-100504500D01*
X115306706Y-100524185D01*
X115327348Y-100540819D01*
X117961089Y-103174560D01*
X117977001Y-103194090D01*
X117985581Y-103207133D01*
X117987016Y-103212485D01*
X118059491Y-103338015D01*
X118095135Y-103373659D01*
X118102093Y-103384235D01*
X118108746Y-103406030D01*
X118119666Y-103426028D01*
X118122283Y-103450374D01*
X118122493Y-103451060D01*
X118122394Y-103451407D01*
X118122500Y-103452386D01*
X118122500Y-104042273D01*
X118102815Y-104109312D01*
X118086181Y-104129954D01*
X115622927Y-106593207D01*
X115622925Y-106593210D01*
X115573225Y-106679291D01*
X115573225Y-106679294D01*
X115547500Y-106775301D01*
X115547500Y-110547614D01*
X115527815Y-110614653D01*
X115511181Y-110635295D01*
X115484493Y-110661982D01*
X115484488Y-110661988D01*
X115412017Y-110787511D01*
X115412016Y-110787515D01*
X115374500Y-110927525D01*
X115374500Y-111072475D01*
X115412016Y-111212485D01*
X115412017Y-111212488D01*
X115484488Y-111338011D01*
X115484490Y-111338013D01*
X115484491Y-111338015D01*
X115586985Y-111440509D01*
X115586986Y-111440510D01*
X115586988Y-111440511D01*
X115712511Y-111512982D01*
X115712512Y-111512982D01*
X115712515Y-111512984D01*
X115852525Y-111550500D01*
X115852528Y-111550500D01*
X115997472Y-111550500D01*
X115997475Y-111550500D01*
X116137485Y-111512984D01*
X116263015Y-111440509D01*
X116365509Y-111338015D01*
X116437984Y-111212485D01*
X116475500Y-111072475D01*
X116475500Y-110927525D01*
X116437984Y-110787515D01*
X116365509Y-110661985D01*
X116338819Y-110635295D01*
X116305334Y-110573972D01*
X116302500Y-110547614D01*
X116302500Y-107032727D01*
X116322185Y-106965688D01*
X116338819Y-106945046D01*
X117558544Y-105725321D01*
X118802075Y-104481790D01*
X118851774Y-104395710D01*
X118877500Y-104299699D01*
X118877500Y-104200301D01*
X118877500Y-103452386D01*
X118897185Y-103385347D01*
X118913819Y-103364705D01*
X118940509Y-103338015D01*
X119012984Y-103212485D01*
X119050500Y-103072475D01*
X119050500Y-102927525D01*
X125699500Y-102927525D01*
X125699500Y-103072475D01*
X125737016Y-103212485D01*
X125737017Y-103212488D01*
X125809488Y-103338011D01*
X125809490Y-103338013D01*
X125809491Y-103338015D01*
X125911985Y-103440509D01*
X125911986Y-103440510D01*
X125911988Y-103440511D01*
X126037511Y-103512982D01*
X126037512Y-103512982D01*
X126037515Y-103512984D01*
X126177525Y-103550500D01*
X126177528Y-103550500D01*
X126322472Y-103550500D01*
X126322475Y-103550500D01*
X126462485Y-103512984D01*
X126462486Y-103512982D01*
X126470335Y-103510880D01*
X126470599Y-103511865D01*
X126507632Y-103504500D01*
X128489667Y-103504500D01*
X128556706Y-103524185D01*
X128577348Y-103540819D01*
X130961089Y-105924559D01*
X130982069Y-105955956D01*
X130982952Y-105955447D01*
X131059488Y-106088011D01*
X131059490Y-106088013D01*
X131059491Y-106088015D01*
X131161985Y-106190509D01*
X131161986Y-106190510D01*
X131161988Y-106190511D01*
X131287511Y-106262982D01*
X131287512Y-106262982D01*
X131287515Y-106262984D01*
X131427525Y-106300500D01*
X131427528Y-106300500D01*
X131572472Y-106300500D01*
X131572475Y-106300500D01*
X131712485Y-106262984D01*
X131838015Y-106190509D01*
X131940509Y-106088015D01*
X132012984Y-105962485D01*
X132050500Y-105822475D01*
X132050500Y-105677525D01*
X132012984Y-105537515D01*
X131940509Y-105411985D01*
X131838015Y-105309491D01*
X131838013Y-105309490D01*
X131838011Y-105309488D01*
X131705447Y-105232952D01*
X131705956Y-105232069D01*
X131674559Y-105211089D01*
X129059772Y-102596301D01*
X129059771Y-102596300D01*
X129059770Y-102596299D01*
X129034320Y-102581605D01*
X128986838Y-102554191D01*
X128986837Y-102554191D01*
X128944730Y-102529881D01*
X128944731Y-102529881D01*
X128912652Y-102521285D01*
X128816419Y-102495500D01*
X128816416Y-102495500D01*
X126507632Y-102495500D01*
X126470599Y-102488134D01*
X126470335Y-102489120D01*
X126462486Y-102487017D01*
X126462485Y-102487016D01*
X126322475Y-102449500D01*
X126177525Y-102449500D01*
X126055977Y-102482069D01*
X126037511Y-102487017D01*
X125911988Y-102559488D01*
X125911982Y-102559493D01*
X125809493Y-102661982D01*
X125809488Y-102661988D01*
X125737017Y-102787511D01*
X125737016Y-102787515D01*
X125699500Y-102927525D01*
X119050500Y-102927525D01*
X119012984Y-102787515D01*
X118995998Y-102758095D01*
X118940511Y-102661988D01*
X118940506Y-102661982D01*
X118838017Y-102559493D01*
X118838011Y-102559488D01*
X118705447Y-102482952D01*
X118705956Y-102482069D01*
X118674560Y-102461089D01*
X115809771Y-99596300D01*
X115809770Y-99596299D01*
X115718831Y-99543796D01*
X115718829Y-99543794D01*
X115702763Y-99534519D01*
X115694730Y-99529881D01*
X115566419Y-99495500D01*
X115566416Y-99495500D01*
X113257632Y-99495500D01*
X113220599Y-99488134D01*
X113220335Y-99489120D01*
X113212486Y-99487017D01*
X113212485Y-99487016D01*
X113072475Y-99449500D01*
X112927525Y-99449500D01*
X112798993Y-99483940D01*
X112787511Y-99487017D01*
X112661988Y-99559488D01*
X112661982Y-99559493D01*
X112559493Y-99661982D01*
X112559488Y-99661988D01*
X112487017Y-99787511D01*
X112487016Y-99787515D01*
X112449500Y-99927525D01*
X93950499Y-99927525D01*
X93950499Y-99659488D01*
X93939889Y-99524661D01*
X93883790Y-99302026D01*
X93788839Y-99092986D01*
X93658089Y-98904259D01*
X93495741Y-98741911D01*
X93495737Y-98741908D01*
X93495732Y-98741904D01*
X93307016Y-98611162D01*
X93307010Y-98611159D01*
X93097976Y-98516210D01*
X92949550Y-98478810D01*
X92875339Y-98460111D01*
X92740513Y-98449500D01*
X92740511Y-98449500D01*
X90559495Y-98449500D01*
X90559480Y-98449501D01*
X90424661Y-98460111D01*
X90202023Y-98516210D01*
X89992989Y-98611159D01*
X89992983Y-98611162D01*
X89804267Y-98741904D01*
X89804255Y-98741914D01*
X89641914Y-98904255D01*
X89641904Y-98904267D01*
X89511162Y-99092983D01*
X89511159Y-99092989D01*
X89416210Y-99302023D01*
X89360111Y-99524661D01*
X89349500Y-99659481D01*
X74000500Y-99659481D01*
X74000500Y-97852135D01*
X81694500Y-97852135D01*
X81694500Y-99147870D01*
X81694501Y-99147876D01*
X81700908Y-99207483D01*
X81751202Y-99342328D01*
X81751206Y-99342335D01*
X81837452Y-99457544D01*
X81837455Y-99457547D01*
X81952664Y-99543793D01*
X81952671Y-99543797D01*
X82087517Y-99594091D01*
X82087516Y-99594091D01*
X82094444Y-99594835D01*
X82147127Y-99600500D01*
X83742872Y-99600499D01*
X83802483Y-99594091D01*
X83937331Y-99543796D01*
X84052546Y-99457546D01*
X84138796Y-99342331D01*
X84189091Y-99207483D01*
X84195500Y-99147873D01*
X84195499Y-97927525D01*
X103949500Y-97927525D01*
X103949500Y-98072475D01*
X103987016Y-98212485D01*
X103987017Y-98212488D01*
X104059488Y-98338011D01*
X104059490Y-98338013D01*
X104059491Y-98338015D01*
X104161985Y-98440509D01*
X104161986Y-98440510D01*
X104161988Y-98440511D01*
X104287511Y-98512982D01*
X104287512Y-98512982D01*
X104287515Y-98512984D01*
X104427525Y-98550500D01*
X104427528Y-98550500D01*
X104572472Y-98550500D01*
X104572475Y-98550500D01*
X104712485Y-98512984D01*
X104838015Y-98440509D01*
X104864705Y-98413819D01*
X104926028Y-98380334D01*
X104952386Y-98377500D01*
X106797614Y-98377500D01*
X106864653Y-98397185D01*
X106885295Y-98413819D01*
X106911985Y-98440509D01*
X106911986Y-98440510D01*
X106911988Y-98440511D01*
X107037511Y-98512982D01*
X107037512Y-98512982D01*
X107037515Y-98512984D01*
X107177525Y-98550500D01*
X107177528Y-98550500D01*
X107322472Y-98550500D01*
X107322475Y-98550500D01*
X107462485Y-98512984D01*
X107588015Y-98440509D01*
X107690509Y-98338015D01*
X107762984Y-98212485D01*
X107800500Y-98072475D01*
X107800500Y-97927525D01*
X107762984Y-97787515D01*
X107690509Y-97661985D01*
X107588015Y-97559491D01*
X107588013Y-97559490D01*
X107588011Y-97559488D01*
X107462488Y-97487017D01*
X107462489Y-97487017D01*
X107451006Y-97483940D01*
X107322475Y-97449500D01*
X107177525Y-97449500D01*
X107048993Y-97483940D01*
X107037511Y-97487017D01*
X106911988Y-97559488D01*
X106911982Y-97559493D01*
X106885295Y-97586181D01*
X106823972Y-97619666D01*
X106797614Y-97622500D01*
X104952386Y-97622500D01*
X104885347Y-97602815D01*
X104864705Y-97586181D01*
X104838017Y-97559493D01*
X104838011Y-97559488D01*
X104712488Y-97487017D01*
X104712489Y-97487017D01*
X104701006Y-97483940D01*
X104572475Y-97449500D01*
X104427525Y-97449500D01*
X104298993Y-97483940D01*
X104287511Y-97487017D01*
X104161988Y-97559488D01*
X104161982Y-97559493D01*
X104059493Y-97661982D01*
X104059488Y-97661988D01*
X103987017Y-97787511D01*
X103987016Y-97787515D01*
X103949500Y-97927525D01*
X84195499Y-97927525D01*
X84195499Y-97852128D01*
X84189091Y-97792517D01*
X84187225Y-97787515D01*
X84138797Y-97657671D01*
X84138793Y-97657664D01*
X84052547Y-97542455D01*
X84052544Y-97542452D01*
X83937335Y-97456206D01*
X83937328Y-97456202D01*
X83802482Y-97405908D01*
X83802483Y-97405908D01*
X83742883Y-97399501D01*
X83742881Y-97399500D01*
X83742873Y-97399500D01*
X83742864Y-97399500D01*
X82147129Y-97399500D01*
X82147123Y-97399501D01*
X82087516Y-97405908D01*
X81952671Y-97456202D01*
X81952664Y-97456206D01*
X81837455Y-97542452D01*
X81837452Y-97542455D01*
X81751206Y-97657664D01*
X81751202Y-97657671D01*
X81700908Y-97792517D01*
X81694501Y-97852116D01*
X81694501Y-97852123D01*
X81694500Y-97852135D01*
X74000500Y-97852135D01*
X74000500Y-92374038D01*
X82899500Y-92374038D01*
X82899500Y-92625962D01*
X82905530Y-92664032D01*
X82938910Y-92874785D01*
X83016760Y-93114383D01*
X83095413Y-93268747D01*
X83125377Y-93327555D01*
X83131132Y-93338848D01*
X83279201Y-93542649D01*
X83279205Y-93542654D01*
X83457345Y-93720794D01*
X83457350Y-93720798D01*
X83620714Y-93839488D01*
X83661155Y-93868870D01*
X83782262Y-93930577D01*
X83885616Y-93983239D01*
X83885618Y-93983239D01*
X83885621Y-93983241D01*
X84125215Y-94061090D01*
X84374038Y-94100500D01*
X84374039Y-94100500D01*
X84625961Y-94100500D01*
X84625962Y-94100500D01*
X84874785Y-94061090D01*
X85114379Y-93983241D01*
X85338845Y-93868870D01*
X85542656Y-93720793D01*
X85720793Y-93542656D01*
X85868870Y-93338845D01*
X85983241Y-93114379D01*
X86061090Y-92874785D01*
X86100500Y-92625962D01*
X86100500Y-92374038D01*
X86061090Y-92125215D01*
X85983241Y-91885621D01*
X85983239Y-91885618D01*
X85983239Y-91885616D01*
X85919148Y-91759832D01*
X85868870Y-91661155D01*
X85837142Y-91617485D01*
X85720798Y-91457350D01*
X85720794Y-91457345D01*
X85542654Y-91279205D01*
X85542649Y-91279201D01*
X85338848Y-91131132D01*
X85338847Y-91131131D01*
X85338845Y-91131130D01*
X85268747Y-91095413D01*
X85114383Y-91016760D01*
X84874785Y-90938910D01*
X84625962Y-90899500D01*
X84374038Y-90899500D01*
X84249626Y-90919205D01*
X84125214Y-90938910D01*
X83885616Y-91016760D01*
X83661151Y-91131132D01*
X83457350Y-91279201D01*
X83457345Y-91279205D01*
X83279205Y-91457345D01*
X83279201Y-91457350D01*
X83131132Y-91661151D01*
X83016760Y-91885616D01*
X82938910Y-92125214D01*
X82938910Y-92125215D01*
X82899500Y-92374038D01*
X74000500Y-92374038D01*
X74000500Y-86413389D01*
X81694500Y-86413389D01*
X81694500Y-86586611D01*
X81721598Y-86757701D01*
X81775127Y-86922445D01*
X81853768Y-87076788D01*
X81955586Y-87216928D01*
X82078072Y-87339414D01*
X82218212Y-87441232D01*
X82372555Y-87519873D01*
X82537299Y-87573402D01*
X82708389Y-87600500D01*
X82708390Y-87600500D01*
X83181610Y-87600500D01*
X83181611Y-87600500D01*
X83352701Y-87573402D01*
X83517445Y-87519873D01*
X83671788Y-87441232D01*
X83811928Y-87339414D01*
X83934414Y-87216928D01*
X84036232Y-87076788D01*
X84114873Y-86922445D01*
X84168402Y-86757701D01*
X84195500Y-86586611D01*
X84195500Y-86413389D01*
X84168402Y-86242299D01*
X84114873Y-86077555D01*
X84036232Y-85923212D01*
X83934414Y-85783072D01*
X83811928Y-85660586D01*
X83671788Y-85558768D01*
X83517445Y-85480127D01*
X83352701Y-85426598D01*
X83352699Y-85426597D01*
X83352698Y-85426597D01*
X83221271Y-85405781D01*
X83181611Y-85399500D01*
X82708389Y-85399500D01*
X82668728Y-85405781D01*
X82537302Y-85426597D01*
X82372552Y-85480128D01*
X82218211Y-85558768D01*
X82138256Y-85616859D01*
X82078072Y-85660586D01*
X82078070Y-85660588D01*
X82078069Y-85660588D01*
X81955588Y-85783069D01*
X81955588Y-85783070D01*
X81955586Y-85783072D01*
X81911859Y-85843256D01*
X81853768Y-85923211D01*
X81775128Y-86077552D01*
X81721597Y-86242302D01*
X81710149Y-86314583D01*
X81694500Y-86413389D01*
X74000500Y-86413389D01*
X74000500Y-83352135D01*
X81694500Y-83352135D01*
X81694500Y-84647870D01*
X81694501Y-84647876D01*
X81700908Y-84707483D01*
X81751202Y-84842328D01*
X81751206Y-84842335D01*
X81837452Y-84957544D01*
X81837455Y-84957547D01*
X81952664Y-85043793D01*
X81952671Y-85043797D01*
X82087517Y-85094091D01*
X82087516Y-85094091D01*
X82094444Y-85094835D01*
X82147127Y-85100500D01*
X83742872Y-85100499D01*
X83802483Y-85094091D01*
X83937331Y-85043796D01*
X84052546Y-84957546D01*
X84138796Y-84842331D01*
X84189091Y-84707483D01*
X84195500Y-84647873D01*
X84195500Y-84507525D01*
X94699500Y-84507525D01*
X94699500Y-84652475D01*
X94714240Y-84707483D01*
X94737017Y-84792488D01*
X94809488Y-84918011D01*
X94809490Y-84918013D01*
X94809491Y-84918015D01*
X94911985Y-85020509D01*
X94911986Y-85020510D01*
X94911988Y-85020511D01*
X95037511Y-85092982D01*
X95037512Y-85092982D01*
X95037515Y-85092984D01*
X95177525Y-85130500D01*
X95177528Y-85130500D01*
X95322472Y-85130500D01*
X95322475Y-85130500D01*
X95462485Y-85092984D01*
X95588015Y-85020509D01*
X95614705Y-84993819D01*
X95676028Y-84960334D01*
X95702386Y-84957500D01*
X98792273Y-84957500D01*
X98859312Y-84977185D01*
X98879954Y-84993819D01*
X101357662Y-87471527D01*
X101391147Y-87532850D01*
X101393981Y-87559208D01*
X101393981Y-89242614D01*
X101374296Y-89309653D01*
X101357662Y-89330295D01*
X101330974Y-89356982D01*
X101330969Y-89356988D01*
X101258498Y-89482511D01*
X101258497Y-89482515D01*
X101220981Y-89622525D01*
X101220981Y-89767475D01*
X101252736Y-89885984D01*
X101258498Y-89907488D01*
X101330969Y-90033011D01*
X101330974Y-90033017D01*
X101357662Y-90059705D01*
X101391147Y-90121028D01*
X101393981Y-90147386D01*
X101393981Y-90952614D01*
X101374296Y-91019653D01*
X101357662Y-91040295D01*
X101330974Y-91066982D01*
X101330969Y-91066988D01*
X101258498Y-91192511D01*
X101258497Y-91192515D01*
X101220981Y-91332525D01*
X101220981Y-91477475D01*
X101258497Y-91617485D01*
X101258498Y-91617488D01*
X101330969Y-91743011D01*
X101330971Y-91743013D01*
X101330972Y-91743015D01*
X101433466Y-91845509D01*
X101433467Y-91845510D01*
X101433469Y-91845511D01*
X101558992Y-91917982D01*
X101558993Y-91917982D01*
X101558996Y-91917984D01*
X101699006Y-91955500D01*
X101699009Y-91955500D01*
X101795273Y-91955500D01*
X101862312Y-91975185D01*
X101882954Y-91991819D01*
X102423954Y-92532819D01*
X102457439Y-92594142D01*
X102452455Y-92663834D01*
X102410583Y-92719767D01*
X102345119Y-92744184D01*
X102336273Y-92744500D01*
X102200101Y-92744500D01*
X102104091Y-92770226D01*
X102067708Y-92791231D01*
X102067707Y-92791231D01*
X102018012Y-92819923D01*
X102018006Y-92819927D01*
X101552954Y-93284981D01*
X101491631Y-93318466D01*
X101465273Y-93321300D01*
X101427525Y-93321300D01*
X101298993Y-93355740D01*
X101287511Y-93358817D01*
X101161988Y-93431288D01*
X101161982Y-93431293D01*
X101059493Y-93533782D01*
X101059488Y-93533788D01*
X100987017Y-93659311D01*
X100987016Y-93659315D01*
X100949500Y-93799325D01*
X100949500Y-93944275D01*
X100980373Y-94059493D01*
X100987017Y-94084288D01*
X101059488Y-94209811D01*
X101059490Y-94209813D01*
X101059491Y-94209815D01*
X101161985Y-94312309D01*
X101161986Y-94312310D01*
X101161988Y-94312311D01*
X101287511Y-94384782D01*
X101287512Y-94384782D01*
X101287515Y-94384784D01*
X101427525Y-94422300D01*
X101427528Y-94422300D01*
X101572472Y-94422300D01*
X101572475Y-94422300D01*
X101712485Y-94384784D01*
X101838015Y-94312309D01*
X101940509Y-94209815D01*
X102012984Y-94084285D01*
X102050500Y-93944275D01*
X102050500Y-93906527D01*
X102070185Y-93839488D01*
X102086819Y-93818846D01*
X102369847Y-93535819D01*
X102431170Y-93502334D01*
X102457528Y-93499500D01*
X103211000Y-93499500D01*
X103278039Y-93519185D01*
X103323794Y-93571989D01*
X103335000Y-93623500D01*
X103335000Y-93737801D01*
X103335000Y-93837199D01*
X103360726Y-93933210D01*
X103410425Y-94019290D01*
X105693210Y-96302076D01*
X105693212Y-96302077D01*
X105693216Y-96302080D01*
X105755462Y-96338017D01*
X105779290Y-96351774D01*
X105875301Y-96377500D01*
X106797614Y-96377500D01*
X106864653Y-96397185D01*
X106885295Y-96413819D01*
X106911985Y-96440509D01*
X106911986Y-96440510D01*
X106911988Y-96440511D01*
X107037511Y-96512982D01*
X107037512Y-96512982D01*
X107037515Y-96512984D01*
X107177525Y-96550500D01*
X107177528Y-96550500D01*
X107322472Y-96550500D01*
X107322475Y-96550500D01*
X107462485Y-96512984D01*
X107588015Y-96440509D01*
X107690509Y-96338015D01*
X107762984Y-96212485D01*
X107800500Y-96072475D01*
X107800500Y-95927525D01*
X107762984Y-95787515D01*
X107690509Y-95661985D01*
X107588015Y-95559491D01*
X107588013Y-95559490D01*
X107588011Y-95559488D01*
X107462488Y-95487017D01*
X107462489Y-95487017D01*
X107451006Y-95483940D01*
X107322475Y-95449500D01*
X107177525Y-95449500D01*
X107048993Y-95483940D01*
X107037511Y-95487017D01*
X106911988Y-95559488D01*
X106911982Y-95559493D01*
X106885295Y-95586181D01*
X106823972Y-95619666D01*
X106797614Y-95622500D01*
X106132728Y-95622500D01*
X106065689Y-95602815D01*
X106045047Y-95586181D01*
X105721047Y-95262181D01*
X105687562Y-95200858D01*
X105692546Y-95131166D01*
X105734418Y-95075233D01*
X105799882Y-95050816D01*
X105808728Y-95050500D01*
X105822472Y-95050500D01*
X105822475Y-95050500D01*
X105962485Y-95012984D01*
X106088015Y-94940509D01*
X106190509Y-94838015D01*
X106262984Y-94712485D01*
X106298368Y-94580429D01*
X106298741Y-94579817D01*
X106310792Y-94550462D01*
X106311233Y-94549699D01*
X106329031Y-94518872D01*
X106359237Y-94406139D01*
X106395599Y-94346484D01*
X106458446Y-94315954D01*
X106527822Y-94324248D01*
X106566691Y-94350556D01*
X106663181Y-94447046D01*
X106677009Y-94472370D01*
X106693346Y-94496150D01*
X106693546Y-94502655D01*
X106696666Y-94508369D01*
X106699500Y-94534727D01*
X106699500Y-94572475D01*
X106713488Y-94624678D01*
X106737017Y-94712488D01*
X106809488Y-94838011D01*
X106809490Y-94838013D01*
X106809491Y-94838015D01*
X106911985Y-94940509D01*
X106911986Y-94940510D01*
X106911988Y-94940511D01*
X107037511Y-95012982D01*
X107037512Y-95012982D01*
X107037515Y-95012984D01*
X107177525Y-95050500D01*
X107177528Y-95050500D01*
X107322472Y-95050500D01*
X107322475Y-95050500D01*
X107462485Y-95012984D01*
X107588015Y-94940509D01*
X107690509Y-94838015D01*
X107762984Y-94712485D01*
X107800500Y-94572475D01*
X107800500Y-94427525D01*
X107762984Y-94287515D01*
X107718121Y-94209811D01*
X107690511Y-94161988D01*
X107690506Y-94161982D01*
X107588017Y-94059493D01*
X107588011Y-94059488D01*
X107462488Y-93987017D01*
X107462489Y-93987017D01*
X107448389Y-93983239D01*
X107322475Y-93949500D01*
X107322472Y-93949500D01*
X107284727Y-93949500D01*
X107255286Y-93940855D01*
X107225300Y-93934332D01*
X107220284Y-93930577D01*
X107217688Y-93929815D01*
X107197046Y-93913181D01*
X107163819Y-93879954D01*
X107130334Y-93818631D01*
X107127500Y-93792273D01*
X107127500Y-93539525D01*
X116949500Y-93539525D01*
X116949500Y-93684475D01*
X116985505Y-93818846D01*
X116987017Y-93824488D01*
X117059488Y-93950011D01*
X117059490Y-93950013D01*
X117059491Y-93950015D01*
X117161985Y-94052509D01*
X117161986Y-94052510D01*
X117161988Y-94052511D01*
X117287511Y-94124982D01*
X117287512Y-94124982D01*
X117287515Y-94124984D01*
X117427525Y-94162500D01*
X117427528Y-94162500D01*
X117572472Y-94162500D01*
X117572475Y-94162500D01*
X117712485Y-94124984D01*
X117838015Y-94052509D01*
X117864705Y-94025819D01*
X117926028Y-93992334D01*
X117952386Y-93989500D01*
X118687697Y-93989500D01*
X118687699Y-93989500D01*
X118783710Y-93963774D01*
X118869790Y-93914075D01*
X119908544Y-92875321D01*
X126359500Y-92875321D01*
X126359500Y-94624678D01*
X126374032Y-94697735D01*
X126374033Y-94697739D01*
X126374034Y-94697740D01*
X126429399Y-94780601D01*
X126512260Y-94835966D01*
X126512264Y-94835967D01*
X126585321Y-94850499D01*
X126585324Y-94850500D01*
X126585326Y-94850500D01*
X128334676Y-94850500D01*
X128334677Y-94850499D01*
X128407740Y-94835966D01*
X128490601Y-94780601D01*
X128545966Y-94697740D01*
X128560500Y-94624674D01*
X128560500Y-93663389D01*
X128899500Y-93663389D01*
X128899500Y-93836611D01*
X128902439Y-93855165D01*
X128922723Y-93983239D01*
X128926598Y-94007701D01*
X128980127Y-94172445D01*
X129058768Y-94326788D01*
X129160586Y-94466928D01*
X129283072Y-94589414D01*
X129423212Y-94691232D01*
X129577555Y-94769873D01*
X129742299Y-94823402D01*
X129913389Y-94850500D01*
X129913390Y-94850500D01*
X130086610Y-94850500D01*
X130086611Y-94850500D01*
X130257701Y-94823402D01*
X130422445Y-94769873D01*
X130576788Y-94691232D01*
X130716928Y-94589414D01*
X130839414Y-94466928D01*
X130941232Y-94326788D01*
X131019873Y-94172445D01*
X131073402Y-94007701D01*
X131100500Y-93836611D01*
X131100500Y-93663389D01*
X133979500Y-93663389D01*
X133979500Y-93836611D01*
X133982439Y-93855165D01*
X134002723Y-93983239D01*
X134006598Y-94007701D01*
X134060127Y-94172445D01*
X134138768Y-94326788D01*
X134240586Y-94466928D01*
X134363072Y-94589414D01*
X134503212Y-94691232D01*
X134657555Y-94769873D01*
X134822299Y-94823402D01*
X134993389Y-94850500D01*
X134993390Y-94850500D01*
X135166610Y-94850500D01*
X135166611Y-94850500D01*
X135337701Y-94823402D01*
X135502445Y-94769873D01*
X135656788Y-94691232D01*
X135796928Y-94589414D01*
X135919414Y-94466928D01*
X136021232Y-94326788D01*
X136099873Y-94172445D01*
X136153402Y-94007701D01*
X136180500Y-93836611D01*
X136180500Y-93663389D01*
X136153402Y-93492299D01*
X136099873Y-93327555D01*
X136021232Y-93173212D01*
X135919414Y-93033072D01*
X135796928Y-92910586D01*
X135656788Y-92808768D01*
X135502445Y-92730127D01*
X135337701Y-92676598D01*
X135337699Y-92676597D01*
X135337698Y-92676597D01*
X135206271Y-92655781D01*
X135166611Y-92649500D01*
X134993389Y-92649500D01*
X134953728Y-92655781D01*
X134822302Y-92676597D01*
X134657552Y-92730128D01*
X134503211Y-92808768D01*
X134423256Y-92866859D01*
X134363072Y-92910586D01*
X134363070Y-92910588D01*
X134363069Y-92910588D01*
X134240588Y-93033069D01*
X134240588Y-93033070D01*
X134240586Y-93033072D01*
X134224135Y-93055715D01*
X134138768Y-93173211D01*
X134060128Y-93327552D01*
X134006597Y-93492302D01*
X133988569Y-93606130D01*
X133979500Y-93663389D01*
X131100500Y-93663389D01*
X131073402Y-93492299D01*
X131019873Y-93327555D01*
X130941232Y-93173212D01*
X130839414Y-93033072D01*
X130716928Y-92910586D01*
X130576788Y-92808768D01*
X130422445Y-92730127D01*
X130257701Y-92676598D01*
X130257699Y-92676597D01*
X130257698Y-92676597D01*
X130126271Y-92655781D01*
X130086611Y-92649500D01*
X129913389Y-92649500D01*
X129873728Y-92655781D01*
X129742302Y-92676597D01*
X129577552Y-92730128D01*
X129423211Y-92808768D01*
X129343256Y-92866859D01*
X129283072Y-92910586D01*
X129283070Y-92910588D01*
X129283069Y-92910588D01*
X129160588Y-93033069D01*
X129160588Y-93033070D01*
X129160586Y-93033072D01*
X129144135Y-93055715D01*
X129058768Y-93173211D01*
X128980128Y-93327552D01*
X128926597Y-93492302D01*
X128908569Y-93606130D01*
X128899500Y-93663389D01*
X128560500Y-93663389D01*
X128560500Y-92875326D01*
X128560500Y-92875323D01*
X128560499Y-92875321D01*
X128545967Y-92802264D01*
X128545966Y-92802260D01*
X128524562Y-92770226D01*
X128490601Y-92719399D01*
X128407740Y-92664034D01*
X128407739Y-92664033D01*
X128407735Y-92664032D01*
X128334677Y-92649500D01*
X128334674Y-92649500D01*
X126585326Y-92649500D01*
X126585323Y-92649500D01*
X126512264Y-92664032D01*
X126512260Y-92664033D01*
X126429399Y-92719399D01*
X126374033Y-92802260D01*
X126374032Y-92802264D01*
X126359500Y-92875321D01*
X119908544Y-92875321D01*
X120409827Y-92374038D01*
X140899500Y-92374038D01*
X140899500Y-92625962D01*
X140905530Y-92664032D01*
X140938910Y-92874785D01*
X141016760Y-93114383D01*
X141095413Y-93268747D01*
X141125377Y-93327555D01*
X141131132Y-93338848D01*
X141279201Y-93542649D01*
X141279205Y-93542654D01*
X141457345Y-93720794D01*
X141457350Y-93720798D01*
X141620714Y-93839488D01*
X141661155Y-93868870D01*
X141782262Y-93930577D01*
X141885616Y-93983239D01*
X141885618Y-93983239D01*
X141885621Y-93983241D01*
X142125215Y-94061090D01*
X142374038Y-94100500D01*
X142374039Y-94100500D01*
X142625961Y-94100500D01*
X142625962Y-94100500D01*
X142874785Y-94061090D01*
X143114379Y-93983241D01*
X143338845Y-93868870D01*
X143542656Y-93720793D01*
X143720793Y-93542656D01*
X143868870Y-93338845D01*
X143983241Y-93114379D01*
X144061090Y-92874785D01*
X144100500Y-92625962D01*
X144100500Y-92374038D01*
X144061090Y-92125215D01*
X143983241Y-91885621D01*
X143983239Y-91885618D01*
X143983239Y-91885616D01*
X143919148Y-91759832D01*
X143868870Y-91661155D01*
X143837142Y-91617485D01*
X143720798Y-91457350D01*
X143720794Y-91457345D01*
X143542654Y-91279205D01*
X143542649Y-91279201D01*
X143338848Y-91131132D01*
X143338847Y-91131131D01*
X143338845Y-91131130D01*
X143268747Y-91095413D01*
X143114383Y-91016760D01*
X142874785Y-90938910D01*
X142625962Y-90899500D01*
X142374038Y-90899500D01*
X142249626Y-90919205D01*
X142125214Y-90938910D01*
X141885616Y-91016760D01*
X141661151Y-91131132D01*
X141457350Y-91279201D01*
X141457345Y-91279205D01*
X141279205Y-91457345D01*
X141279201Y-91457350D01*
X141131132Y-91661151D01*
X141016760Y-91885616D01*
X140938910Y-92125214D01*
X140938910Y-92125215D01*
X140899500Y-92374038D01*
X120409827Y-92374038D01*
X123697047Y-89086819D01*
X123758370Y-89053334D01*
X123784728Y-89050500D01*
X123822472Y-89050500D01*
X123822475Y-89050500D01*
X123962485Y-89012984D01*
X124088015Y-88940509D01*
X124190509Y-88838015D01*
X124262984Y-88712485D01*
X124300500Y-88572475D01*
X124300500Y-88534727D01*
X124320185Y-88467688D01*
X124336819Y-88447046D01*
X124416354Y-88367511D01*
X124552075Y-88231790D01*
X124601774Y-88145710D01*
X124627500Y-88049699D01*
X124627500Y-87950301D01*
X124627500Y-83810943D01*
X146479500Y-83810943D01*
X146479500Y-83969057D01*
X146505749Y-84067017D01*
X146520423Y-84121783D01*
X146520426Y-84121790D01*
X146599475Y-84258709D01*
X146599479Y-84258714D01*
X146599480Y-84258716D01*
X146711284Y-84370520D01*
X146711286Y-84370521D01*
X146711290Y-84370524D01*
X146848209Y-84449573D01*
X146848216Y-84449577D01*
X147000943Y-84490500D01*
X147000945Y-84490500D01*
X147159055Y-84490500D01*
X147159057Y-84490500D01*
X147311784Y-84449577D01*
X147448716Y-84370520D01*
X147560520Y-84258716D01*
X147639577Y-84121784D01*
X147680500Y-83969057D01*
X147680500Y-83810943D01*
X147639577Y-83658216D01*
X147639573Y-83658209D01*
X147560524Y-83521290D01*
X147560518Y-83521282D01*
X147448717Y-83409481D01*
X147448709Y-83409475D01*
X147311790Y-83330426D01*
X147311786Y-83330424D01*
X147311784Y-83330423D01*
X147159057Y-83289500D01*
X147000943Y-83289500D01*
X146848216Y-83330423D01*
X146848209Y-83330426D01*
X146711290Y-83409475D01*
X146711282Y-83409481D01*
X146599481Y-83521282D01*
X146599475Y-83521290D01*
X146520426Y-83658209D01*
X146520423Y-83658216D01*
X146479500Y-83810943D01*
X124627500Y-83810943D01*
X124627500Y-81707727D01*
X124647185Y-81640688D01*
X124663819Y-81620046D01*
X125695854Y-80588011D01*
X126802076Y-79481790D01*
X126851774Y-79395710D01*
X126877500Y-79299699D01*
X126877500Y-79200301D01*
X126877500Y-78030943D01*
X146479500Y-78030943D01*
X146479500Y-78189057D01*
X146485779Y-78212488D01*
X146520423Y-78341783D01*
X146520426Y-78341790D01*
X146599475Y-78478709D01*
X146599479Y-78478714D01*
X146599480Y-78478716D01*
X146711284Y-78590520D01*
X146711286Y-78590521D01*
X146711290Y-78590524D01*
X146848209Y-78669573D01*
X146848216Y-78669577D01*
X147000943Y-78710500D01*
X147000945Y-78710500D01*
X147159055Y-78710500D01*
X147159057Y-78710500D01*
X147311784Y-78669577D01*
X147448716Y-78590520D01*
X147560520Y-78478716D01*
X147639577Y-78341784D01*
X147680500Y-78189057D01*
X147680500Y-78030943D01*
X147639577Y-77878216D01*
X147639573Y-77878209D01*
X147560524Y-77741290D01*
X147560518Y-77741282D01*
X147448717Y-77629481D01*
X147448709Y-77629475D01*
X147311790Y-77550426D01*
X147311786Y-77550424D01*
X147311784Y-77550423D01*
X147159057Y-77509500D01*
X147000943Y-77509500D01*
X146848216Y-77550423D01*
X146848209Y-77550426D01*
X146711290Y-77629475D01*
X146711282Y-77629481D01*
X146599481Y-77741282D01*
X146599475Y-77741290D01*
X146520426Y-77878209D01*
X146520423Y-77878216D01*
X146479500Y-78030943D01*
X126877500Y-78030943D01*
X126877500Y-77702386D01*
X126897185Y-77635347D01*
X126913819Y-77614705D01*
X126940509Y-77588015D01*
X127012984Y-77462485D01*
X127035073Y-77380046D01*
X127067163Y-77324464D01*
X127363051Y-77028578D01*
X127400918Y-76962989D01*
X127422781Y-76925122D01*
X127453700Y-76809731D01*
X127453700Y-76169500D01*
X127473385Y-76102461D01*
X127526189Y-76056706D01*
X127577700Y-76045500D01*
X127874676Y-76045500D01*
X127874677Y-76045499D01*
X127947740Y-76030966D01*
X128030601Y-75975601D01*
X128085966Y-75892740D01*
X128100500Y-75819674D01*
X128100500Y-74858389D01*
X128439500Y-74858389D01*
X128439500Y-75031611D01*
X128466598Y-75202701D01*
X128520127Y-75367445D01*
X128598768Y-75521788D01*
X128700586Y-75661928D01*
X128823072Y-75784414D01*
X128963212Y-75886232D01*
X129117555Y-75964873D01*
X129282299Y-76018402D01*
X129453389Y-76045500D01*
X129453390Y-76045500D01*
X129626610Y-76045500D01*
X129626611Y-76045500D01*
X129797701Y-76018402D01*
X129962445Y-75964873D01*
X130116788Y-75886232D01*
X130256928Y-75784414D01*
X130379414Y-75661928D01*
X130481232Y-75521788D01*
X130559873Y-75367445D01*
X130613402Y-75202701D01*
X130640500Y-75031611D01*
X130640500Y-74858389D01*
X130979500Y-74858389D01*
X130979500Y-75031611D01*
X131006598Y-75202701D01*
X131060127Y-75367445D01*
X131138768Y-75521788D01*
X131240586Y-75661928D01*
X131363072Y-75784414D01*
X131503212Y-75886232D01*
X131657555Y-75964873D01*
X131822299Y-76018402D01*
X131993389Y-76045500D01*
X131993390Y-76045500D01*
X132166610Y-76045500D01*
X132166611Y-76045500D01*
X132337701Y-76018402D01*
X132502445Y-75964873D01*
X132656788Y-75886232D01*
X132796928Y-75784414D01*
X132919414Y-75661928D01*
X133021232Y-75521788D01*
X133099873Y-75367445D01*
X133153402Y-75202701D01*
X133180500Y-75031611D01*
X133180500Y-74858389D01*
X133153402Y-74687299D01*
X133099873Y-74522555D01*
X133021232Y-74368212D01*
X132919414Y-74228072D01*
X132796928Y-74105586D01*
X132656788Y-74003768D01*
X132502445Y-73925127D01*
X132337701Y-73871598D01*
X132337699Y-73871597D01*
X132337698Y-73871597D01*
X132206271Y-73850781D01*
X132166611Y-73844500D01*
X131993389Y-73844500D01*
X131953728Y-73850781D01*
X131822302Y-73871597D01*
X131657552Y-73925128D01*
X131503211Y-74003768D01*
X131423256Y-74061859D01*
X131363072Y-74105586D01*
X131363070Y-74105588D01*
X131363069Y-74105588D01*
X131240588Y-74228069D01*
X131240588Y-74228070D01*
X131240586Y-74228072D01*
X131196859Y-74288256D01*
X131138768Y-74368211D01*
X131060128Y-74522552D01*
X131006597Y-74687302D01*
X130990818Y-74786928D01*
X130979500Y-74858389D01*
X130640500Y-74858389D01*
X130613402Y-74687299D01*
X130559873Y-74522555D01*
X130481232Y-74368212D01*
X130379414Y-74228072D01*
X130256928Y-74105586D01*
X130116788Y-74003768D01*
X129962445Y-73925127D01*
X129797701Y-73871598D01*
X129797699Y-73871597D01*
X129797698Y-73871597D01*
X129666271Y-73850781D01*
X129626611Y-73844500D01*
X129453389Y-73844500D01*
X129413728Y-73850781D01*
X129282302Y-73871597D01*
X129117552Y-73925128D01*
X128963211Y-74003768D01*
X128883256Y-74061859D01*
X128823072Y-74105586D01*
X128823070Y-74105588D01*
X128823069Y-74105588D01*
X128700588Y-74228069D01*
X128700588Y-74228070D01*
X128700586Y-74228072D01*
X128656859Y-74288256D01*
X128598768Y-74368211D01*
X128520128Y-74522552D01*
X128466597Y-74687302D01*
X128450818Y-74786928D01*
X128439500Y-74858389D01*
X128100500Y-74858389D01*
X128100500Y-74070326D01*
X128100500Y-74070323D01*
X128100499Y-74070321D01*
X128085967Y-73997264D01*
X128085966Y-73997260D01*
X128030601Y-73914399D01*
X127947740Y-73859034D01*
X127947739Y-73859033D01*
X127947735Y-73859032D01*
X127874677Y-73844500D01*
X127874674Y-73844500D01*
X126125326Y-73844500D01*
X126125323Y-73844500D01*
X126052264Y-73859032D01*
X126052260Y-73859033D01*
X125969399Y-73914399D01*
X125914033Y-73997260D01*
X125914032Y-73997264D01*
X125899500Y-74070321D01*
X125899500Y-75819678D01*
X125914032Y-75892735D01*
X125914033Y-75892739D01*
X125914034Y-75892740D01*
X125969399Y-75975601D01*
X126052260Y-76030966D01*
X126052264Y-76030967D01*
X126125321Y-76045499D01*
X126125324Y-76045500D01*
X126125326Y-76045500D01*
X126422300Y-76045500D01*
X126489339Y-76065185D01*
X126535094Y-76117989D01*
X126546300Y-76169500D01*
X126546300Y-76510707D01*
X126537655Y-76540144D01*
X126531132Y-76570135D01*
X126527376Y-76575151D01*
X126526615Y-76577746D01*
X126509981Y-76598389D01*
X126425535Y-76682834D01*
X126369949Y-76714926D01*
X126287518Y-76737014D01*
X126287511Y-76737017D01*
X126161988Y-76809488D01*
X126161982Y-76809493D01*
X126059493Y-76911982D01*
X126059488Y-76911988D01*
X125987017Y-77037511D01*
X125987016Y-77037515D01*
X125949500Y-77177525D01*
X125949500Y-77322475D01*
X125976493Y-77423212D01*
X125987017Y-77462488D01*
X126059488Y-77588011D01*
X126059493Y-77588017D01*
X126086181Y-77614705D01*
X126119666Y-77676028D01*
X126122500Y-77702386D01*
X126122500Y-79042272D01*
X126102815Y-79109311D01*
X126086181Y-79129953D01*
X123947927Y-81268207D01*
X123947925Y-81268210D01*
X123898225Y-81354291D01*
X123898225Y-81354294D01*
X123872500Y-81450301D01*
X123872500Y-87792273D01*
X123863855Y-87821713D01*
X123857332Y-87851700D01*
X123853577Y-87856715D01*
X123852815Y-87859312D01*
X123836181Y-87879954D01*
X123802954Y-87913181D01*
X123741631Y-87946666D01*
X123715273Y-87949500D01*
X123677525Y-87949500D01*
X123548993Y-87983940D01*
X123537511Y-87987017D01*
X123411988Y-88059488D01*
X123411982Y-88059493D01*
X123309493Y-88161982D01*
X123309488Y-88161988D01*
X123237017Y-88287511D01*
X123237016Y-88287515D01*
X123199500Y-88427525D01*
X123199500Y-88427527D01*
X123199500Y-88465272D01*
X123179815Y-88532311D01*
X123163181Y-88552953D01*
X118517954Y-93198181D01*
X118456631Y-93231666D01*
X118430273Y-93234500D01*
X117952386Y-93234500D01*
X117885347Y-93214815D01*
X117864705Y-93198181D01*
X117838017Y-93171493D01*
X117838011Y-93171488D01*
X117712488Y-93099017D01*
X117712489Y-93099017D01*
X117701006Y-93095940D01*
X117572475Y-93061500D01*
X117427525Y-93061500D01*
X117298993Y-93095940D01*
X117287511Y-93099017D01*
X117161988Y-93171488D01*
X117161982Y-93171493D01*
X117059493Y-93273982D01*
X117059488Y-93273988D01*
X116987017Y-93399511D01*
X116987016Y-93399515D01*
X116949500Y-93539525D01*
X107127500Y-93539525D01*
X107127500Y-90866500D01*
X107147185Y-90799461D01*
X107199989Y-90753706D01*
X107251500Y-90742500D01*
X109557697Y-90742500D01*
X109557699Y-90742500D01*
X109653710Y-90716774D01*
X109739790Y-90667075D01*
X110447046Y-89959819D01*
X110508369Y-89926334D01*
X110534727Y-89923500D01*
X110572472Y-89923500D01*
X110572475Y-89923500D01*
X110712485Y-89885984D01*
X110838015Y-89813509D01*
X110940509Y-89711015D01*
X111012984Y-89585485D01*
X111050500Y-89445475D01*
X111050500Y-89300525D01*
X111012984Y-89160515D01*
X110970435Y-89086819D01*
X110940511Y-89034988D01*
X110940506Y-89034982D01*
X110838017Y-88932493D01*
X110838011Y-88932488D01*
X110712488Y-88860017D01*
X110712489Y-88860017D01*
X110701006Y-88856940D01*
X110572475Y-88822500D01*
X110427525Y-88822500D01*
X110298993Y-88856940D01*
X110287511Y-88860017D01*
X110161988Y-88932488D01*
X110161982Y-88932493D01*
X110059493Y-89034982D01*
X110059488Y-89034988D01*
X109987017Y-89160511D01*
X109987016Y-89160515D01*
X109949500Y-89300525D01*
X109949500Y-89300527D01*
X109949500Y-89338273D01*
X109929815Y-89405312D01*
X109913181Y-89425954D01*
X109387954Y-89951181D01*
X109326631Y-89984666D01*
X109300273Y-89987500D01*
X107202386Y-89987500D01*
X107135347Y-89967815D01*
X107114705Y-89951181D01*
X107088017Y-89924493D01*
X107088011Y-89924488D01*
X106962488Y-89852017D01*
X106962489Y-89852017D01*
X106951006Y-89848940D01*
X106822475Y-89814500D01*
X106677525Y-89814500D01*
X106579108Y-89840870D01*
X106537510Y-89852017D01*
X106531396Y-89854550D01*
X106461926Y-89862014D01*
X106399448Y-89830736D01*
X106363800Y-89770644D01*
X106359950Y-89739986D01*
X106359950Y-88928392D01*
X106376564Y-88866391D01*
X106419231Y-88792490D01*
X106419232Y-88792489D01*
X106419232Y-88792487D01*
X106419234Y-88792485D01*
X106456750Y-88652475D01*
X106456750Y-88507525D01*
X106419234Y-88367515D01*
X106346759Y-88241985D01*
X106244265Y-88139491D01*
X106244263Y-88139490D01*
X106244261Y-88139488D01*
X106118738Y-88067017D01*
X106118739Y-88067017D01*
X106090659Y-88059493D01*
X105978725Y-88029500D01*
X105833775Y-88029500D01*
X105721841Y-88059493D01*
X105693761Y-88067017D01*
X105568238Y-88139488D01*
X105568232Y-88139493D01*
X105465743Y-88241982D01*
X105465738Y-88241988D01*
X105393267Y-88367511D01*
X105393266Y-88367515D01*
X105355750Y-88507525D01*
X105355750Y-88652475D01*
X105371830Y-88712485D01*
X105393267Y-88792489D01*
X105393268Y-88792490D01*
X105435936Y-88866391D01*
X105452550Y-88928392D01*
X105452550Y-91726606D01*
X105435937Y-91788606D01*
X105393267Y-91862511D01*
X105393266Y-91862515D01*
X105355750Y-92002525D01*
X105355750Y-92147475D01*
X105390190Y-92276006D01*
X105393267Y-92287489D01*
X105393268Y-92287490D01*
X105435936Y-92361391D01*
X105452550Y-92423392D01*
X105452550Y-93967563D01*
X105432865Y-94034602D01*
X105416232Y-94055244D01*
X105309488Y-94161988D01*
X105237017Y-94287511D01*
X105237016Y-94287515D01*
X105199500Y-94427525D01*
X105199500Y-94427527D01*
X105199500Y-94441272D01*
X105179815Y-94508311D01*
X105127011Y-94554066D01*
X105057853Y-94564010D01*
X104994297Y-94534985D01*
X104987819Y-94528953D01*
X104126319Y-93667453D01*
X104092834Y-93606130D01*
X104090000Y-93579772D01*
X104090000Y-93237803D01*
X104090000Y-93237801D01*
X104064274Y-93141790D01*
X104017918Y-93061500D01*
X104017918Y-93061499D01*
X104014578Y-93055715D01*
X104014575Y-93055709D01*
X103778790Y-92819925D01*
X102356382Y-91397517D01*
X102325040Y-91340119D01*
X102324084Y-91340376D01*
X102323027Y-91336432D01*
X102322897Y-91336194D01*
X102322773Y-91335486D01*
X102321981Y-91332530D01*
X102321981Y-91332525D01*
X102284465Y-91192515D01*
X102249025Y-91131132D01*
X102211992Y-91066988D01*
X102211987Y-91066982D01*
X102185300Y-91040295D01*
X102151815Y-90978972D01*
X102148981Y-90952614D01*
X102148981Y-90147386D01*
X102168666Y-90080347D01*
X102185300Y-90059705D01*
X102211990Y-90033015D01*
X102284465Y-89907485D01*
X102321981Y-89767475D01*
X102321981Y-89622525D01*
X102284465Y-89482515D01*
X102251809Y-89425954D01*
X102211992Y-89356988D01*
X102211987Y-89356982D01*
X102185300Y-89330295D01*
X102151815Y-89268972D01*
X102148981Y-89242614D01*
X102148981Y-87301784D01*
X102148981Y-87301782D01*
X102127512Y-87221658D01*
X102127512Y-87221657D01*
X102127512Y-87221656D01*
X102123255Y-87205772D01*
X102123255Y-87205771D01*
X102073556Y-87119691D01*
X101624808Y-86670943D01*
X112899500Y-86670943D01*
X112899500Y-86829056D01*
X112940423Y-86981783D01*
X112940426Y-86981790D01*
X113019475Y-87118709D01*
X113019479Y-87118714D01*
X113019480Y-87118716D01*
X113131284Y-87230520D01*
X113131286Y-87230521D01*
X113131290Y-87230524D01*
X113254718Y-87301784D01*
X113268216Y-87309577D01*
X113420943Y-87350500D01*
X113420945Y-87350500D01*
X113579055Y-87350500D01*
X113579057Y-87350500D01*
X113731784Y-87309577D01*
X113868716Y-87230520D01*
X113980520Y-87118716D01*
X114059577Y-86981784D01*
X114100500Y-86829057D01*
X114100500Y-86670943D01*
X114059577Y-86518216D01*
X113999056Y-86413389D01*
X113980524Y-86381290D01*
X113980518Y-86381282D01*
X113913819Y-86314583D01*
X113880334Y-86253260D01*
X113877500Y-86226902D01*
X113877500Y-80702386D01*
X113897185Y-80635347D01*
X113913819Y-80614705D01*
X113940509Y-80588015D01*
X114012984Y-80462485D01*
X114050500Y-80322475D01*
X114050500Y-80177525D01*
X114012984Y-80037515D01*
X113940509Y-79911985D01*
X113838015Y-79809491D01*
X113838013Y-79809490D01*
X113838011Y-79809488D01*
X113712488Y-79737017D01*
X113712489Y-79737017D01*
X113701006Y-79733940D01*
X113572475Y-79699500D01*
X113427525Y-79699500D01*
X113298993Y-79733940D01*
X113287511Y-79737017D01*
X113161988Y-79809488D01*
X113161982Y-79809493D01*
X113059493Y-79911982D01*
X113059488Y-79911988D01*
X112987017Y-80037511D01*
X112987016Y-80037515D01*
X112949500Y-80177525D01*
X112949500Y-80322475D01*
X112987016Y-80462485D01*
X112987017Y-80462488D01*
X113059488Y-80588011D01*
X113059493Y-80588017D01*
X113086181Y-80614705D01*
X113119666Y-80676028D01*
X113122500Y-80702386D01*
X113122500Y-86226902D01*
X113102815Y-86293941D01*
X113086181Y-86314583D01*
X113019481Y-86381282D01*
X113019475Y-86381290D01*
X112940426Y-86518209D01*
X112940423Y-86518216D01*
X112899500Y-86670943D01*
X101624808Y-86670943D01*
X99231790Y-84277925D01*
X99145710Y-84228226D01*
X99049699Y-84202500D01*
X99049698Y-84202500D01*
X95702386Y-84202500D01*
X95635347Y-84182815D01*
X95614705Y-84166181D01*
X95588017Y-84139493D01*
X95588011Y-84139488D01*
X95462488Y-84067017D01*
X95462489Y-84067017D01*
X95451006Y-84063940D01*
X95322475Y-84029500D01*
X95177525Y-84029500D01*
X95048993Y-84063940D01*
X95037511Y-84067017D01*
X94911988Y-84139488D01*
X94911982Y-84139493D01*
X94809493Y-84241982D01*
X94809488Y-84241988D01*
X94737017Y-84367511D01*
X94737016Y-84367515D01*
X94699500Y-84507525D01*
X84195500Y-84507525D01*
X84195499Y-83969057D01*
X84195499Y-83352129D01*
X84195498Y-83352123D01*
X84195497Y-83352116D01*
X84189091Y-83292517D01*
X84138796Y-83157669D01*
X84138795Y-83157668D01*
X84138793Y-83157664D01*
X84052547Y-83042455D01*
X84052544Y-83042452D01*
X83937335Y-82956206D01*
X83937328Y-82956202D01*
X83802482Y-82905908D01*
X83802483Y-82905908D01*
X83742883Y-82899501D01*
X83742881Y-82899500D01*
X83742873Y-82899500D01*
X83742864Y-82899500D01*
X82147129Y-82899500D01*
X82147123Y-82899501D01*
X82087516Y-82905908D01*
X81952671Y-82956202D01*
X81952664Y-82956206D01*
X81837455Y-83042452D01*
X81837452Y-83042455D01*
X81751206Y-83157664D01*
X81751202Y-83157671D01*
X81700908Y-83292517D01*
X81696833Y-83330426D01*
X81694501Y-83352123D01*
X81694500Y-83352135D01*
X74000500Y-83352135D01*
X74000500Y-77913389D01*
X81694500Y-77913389D01*
X81694500Y-78086610D01*
X81710725Y-78189055D01*
X81721598Y-78257701D01*
X81748920Y-78341790D01*
X81775128Y-78422447D01*
X81821259Y-78512984D01*
X81853768Y-78576788D01*
X81955586Y-78716928D01*
X82078072Y-78839414D01*
X82218212Y-78941232D01*
X82372555Y-79019873D01*
X82537299Y-79073402D01*
X82708389Y-79100500D01*
X82708390Y-79100500D01*
X83181610Y-79100500D01*
X83181611Y-79100500D01*
X83352701Y-79073402D01*
X83517445Y-79019873D01*
X83671788Y-78941232D01*
X83811928Y-78839414D01*
X83934414Y-78716928D01*
X84036232Y-78576788D01*
X84114873Y-78422445D01*
X84168402Y-78257701D01*
X84195500Y-78086611D01*
X84195500Y-77913389D01*
X84168402Y-77742299D01*
X84114873Y-77577555D01*
X84036232Y-77423212D01*
X83934414Y-77283072D01*
X83811928Y-77160586D01*
X83671788Y-77058768D01*
X83517445Y-76980127D01*
X83352701Y-76926598D01*
X83352699Y-76926597D01*
X83352698Y-76926597D01*
X83221271Y-76905781D01*
X83181611Y-76899500D01*
X82708389Y-76899500D01*
X82668728Y-76905781D01*
X82537302Y-76926597D01*
X82372552Y-76980128D01*
X82218211Y-77058768D01*
X82138256Y-77116859D01*
X82078072Y-77160586D01*
X82078070Y-77160588D01*
X82078069Y-77160588D01*
X81955588Y-77283069D01*
X81955588Y-77283070D01*
X81955586Y-77283072D01*
X81926960Y-77322472D01*
X81853768Y-77423211D01*
X81775128Y-77577552D01*
X81721597Y-77742302D01*
X81694500Y-77913389D01*
X74000500Y-77913389D01*
X74000500Y-74852135D01*
X81694500Y-74852135D01*
X81694500Y-76147870D01*
X81694501Y-76147876D01*
X81700908Y-76207483D01*
X81751202Y-76342328D01*
X81751206Y-76342335D01*
X81837452Y-76457544D01*
X81837455Y-76457547D01*
X81952664Y-76543793D01*
X81952671Y-76543797D01*
X82087517Y-76594091D01*
X82087516Y-76594091D01*
X82094444Y-76594835D01*
X82147127Y-76600500D01*
X83742872Y-76600499D01*
X83802483Y-76594091D01*
X83937331Y-76543796D01*
X84052546Y-76457546D01*
X84138796Y-76342331D01*
X84189091Y-76207483D01*
X84195500Y-76147873D01*
X84195499Y-74852128D01*
X84189091Y-74792517D01*
X84187007Y-74786930D01*
X84138797Y-74657671D01*
X84138793Y-74657664D01*
X84052547Y-74542455D01*
X84052544Y-74542452D01*
X83937335Y-74456206D01*
X83937328Y-74456202D01*
X83802482Y-74405908D01*
X83802483Y-74405908D01*
X83742883Y-74399501D01*
X83742881Y-74399500D01*
X83742873Y-74399500D01*
X83742864Y-74399500D01*
X82147129Y-74399500D01*
X82147123Y-74399501D01*
X82087516Y-74405908D01*
X81952671Y-74456202D01*
X81952664Y-74456206D01*
X81837455Y-74542452D01*
X81837452Y-74542455D01*
X81751206Y-74657664D01*
X81751202Y-74657671D01*
X81700908Y-74792517D01*
X81694501Y-74852116D01*
X81694501Y-74852123D01*
X81694500Y-74852135D01*
X74000500Y-74852135D01*
X74000500Y-73733389D01*
X112149500Y-73733389D01*
X112149500Y-74156611D01*
X112176598Y-74327701D01*
X112230127Y-74492445D01*
X112308768Y-74646788D01*
X112410586Y-74786928D01*
X112533072Y-74909414D01*
X112612186Y-74966894D01*
X112673207Y-75011229D01*
X112673209Y-75011230D01*
X112673212Y-75011232D01*
X112677791Y-75013565D01*
X112728588Y-75061536D01*
X112745500Y-75124051D01*
X112745500Y-77742368D01*
X112738134Y-77779400D01*
X112739120Y-77779665D01*
X112737017Y-77787513D01*
X112737016Y-77787515D01*
X112699500Y-77927525D01*
X112699500Y-78072475D01*
X112737016Y-78212485D01*
X112737017Y-78212488D01*
X112809488Y-78338011D01*
X112809490Y-78338013D01*
X112809491Y-78338015D01*
X112911985Y-78440509D01*
X112911986Y-78440510D01*
X112911988Y-78440511D01*
X113037511Y-78512982D01*
X113037512Y-78512982D01*
X113037515Y-78512984D01*
X113177525Y-78550500D01*
X113177528Y-78550500D01*
X113322472Y-78550500D01*
X113322475Y-78550500D01*
X113462485Y-78512984D01*
X113588015Y-78440509D01*
X113690509Y-78338015D01*
X113762984Y-78212485D01*
X113800500Y-78072475D01*
X113800500Y-77927525D01*
X113762984Y-77787515D01*
X113762982Y-77787513D01*
X113760880Y-77779665D01*
X113761865Y-77779400D01*
X113754500Y-77742368D01*
X113754500Y-75124051D01*
X113774185Y-75057012D01*
X113822208Y-75013565D01*
X113826788Y-75011232D01*
X113966928Y-74909414D01*
X114089414Y-74786928D01*
X114191232Y-74646788D01*
X114269873Y-74492445D01*
X114323402Y-74327701D01*
X114350500Y-74156611D01*
X114350500Y-73733389D01*
X114649500Y-73733389D01*
X114649500Y-74156611D01*
X114676598Y-74327701D01*
X114730127Y-74492445D01*
X114808768Y-74646788D01*
X114910586Y-74786928D01*
X115033072Y-74909414D01*
X115173212Y-75011232D01*
X115327555Y-75089873D01*
X115492299Y-75143402D01*
X115663389Y-75170500D01*
X115663390Y-75170500D01*
X115836610Y-75170500D01*
X115836611Y-75170500D01*
X116007701Y-75143402D01*
X116172445Y-75089873D01*
X116326788Y-75011232D01*
X116466928Y-74909414D01*
X116589414Y-74786928D01*
X116691232Y-74646788D01*
X116769873Y-74492445D01*
X116823402Y-74327701D01*
X116850500Y-74156611D01*
X116850500Y-73733389D01*
X117149500Y-73733389D01*
X117149500Y-74156611D01*
X117176598Y-74327701D01*
X117230127Y-74492445D01*
X117308768Y-74646788D01*
X117410586Y-74786928D01*
X117533072Y-74909414D01*
X117673212Y-75011232D01*
X117827555Y-75089873D01*
X117992299Y-75143402D01*
X118163389Y-75170500D01*
X118163390Y-75170500D01*
X118336610Y-75170500D01*
X118336611Y-75170500D01*
X118507701Y-75143402D01*
X118672445Y-75089873D01*
X118826788Y-75011232D01*
X118966928Y-74909414D01*
X119089414Y-74786928D01*
X119191232Y-74646788D01*
X119269873Y-74492445D01*
X119323402Y-74327701D01*
X119350500Y-74156611D01*
X119350500Y-73733389D01*
X119323402Y-73562299D01*
X119269873Y-73397555D01*
X119191232Y-73243212D01*
X119089414Y-73103072D01*
X118966928Y-72980586D01*
X118826788Y-72878768D01*
X118672445Y-72800127D01*
X118507701Y-72746598D01*
X118507699Y-72746597D01*
X118507698Y-72746597D01*
X118376271Y-72725781D01*
X118336611Y-72719500D01*
X118163389Y-72719500D01*
X118123728Y-72725781D01*
X117992302Y-72746597D01*
X117827552Y-72800128D01*
X117673211Y-72878768D01*
X117593256Y-72936859D01*
X117533072Y-72980586D01*
X117533070Y-72980588D01*
X117533069Y-72980588D01*
X117410588Y-73103069D01*
X117410588Y-73103070D01*
X117410586Y-73103072D01*
X117366859Y-73163256D01*
X117308768Y-73243211D01*
X117230128Y-73397552D01*
X117176597Y-73562302D01*
X117149500Y-73733389D01*
X116850500Y-73733389D01*
X116823402Y-73562299D01*
X116769873Y-73397555D01*
X116691232Y-73243212D01*
X116589414Y-73103072D01*
X116466928Y-72980586D01*
X116326788Y-72878768D01*
X116172445Y-72800127D01*
X116007701Y-72746598D01*
X116007699Y-72746597D01*
X116007698Y-72746597D01*
X115876271Y-72725781D01*
X115836611Y-72719500D01*
X115663389Y-72719500D01*
X115623728Y-72725781D01*
X115492302Y-72746597D01*
X115327552Y-72800128D01*
X115173211Y-72878768D01*
X115093256Y-72936859D01*
X115033072Y-72980586D01*
X115033070Y-72980588D01*
X115033069Y-72980588D01*
X114910588Y-73103069D01*
X114910588Y-73103070D01*
X114910586Y-73103072D01*
X114866859Y-73163256D01*
X114808768Y-73243211D01*
X114730128Y-73397552D01*
X114676597Y-73562302D01*
X114649500Y-73733389D01*
X114350500Y-73733389D01*
X114323402Y-73562299D01*
X114269873Y-73397555D01*
X114191232Y-73243212D01*
X114089414Y-73103072D01*
X113966928Y-72980586D01*
X113826788Y-72878768D01*
X113672445Y-72800127D01*
X113507701Y-72746598D01*
X113507699Y-72746597D01*
X113507698Y-72746597D01*
X113376271Y-72725781D01*
X113336611Y-72719500D01*
X113163389Y-72719500D01*
X113123728Y-72725781D01*
X112992302Y-72746597D01*
X112827552Y-72800128D01*
X112673211Y-72878768D01*
X112593256Y-72936859D01*
X112533072Y-72980586D01*
X112533070Y-72980588D01*
X112533069Y-72980588D01*
X112410588Y-73103069D01*
X112410588Y-73103070D01*
X112410586Y-73103072D01*
X112366859Y-73163256D01*
X112308768Y-73243211D01*
X112230128Y-73397552D01*
X112176597Y-73562302D01*
X112149500Y-73733389D01*
X74000500Y-73733389D01*
X74000500Y-68253051D01*
X74000649Y-68246966D01*
X74005722Y-68143713D01*
X76149500Y-68143713D01*
X76149500Y-68356286D01*
X76182753Y-68566239D01*
X76248444Y-68768414D01*
X76344951Y-68957820D01*
X76469890Y-69129786D01*
X76620213Y-69280109D01*
X76792179Y-69405048D01*
X76792181Y-69405049D01*
X76792184Y-69405051D01*
X76981588Y-69501557D01*
X77183757Y-69567246D01*
X77393713Y-69600500D01*
X77393714Y-69600500D01*
X77606286Y-69600500D01*
X77606287Y-69600500D01*
X77816243Y-69567246D01*
X78018412Y-69501557D01*
X78207816Y-69405051D01*
X78250502Y-69374038D01*
X82899500Y-69374038D01*
X82899500Y-69625961D01*
X82938910Y-69874785D01*
X83016760Y-70114383D01*
X83131132Y-70338848D01*
X83279201Y-70542649D01*
X83279205Y-70542654D01*
X83457345Y-70720794D01*
X83457350Y-70720798D01*
X83635117Y-70849952D01*
X83661155Y-70868870D01*
X83804184Y-70941747D01*
X83885616Y-70983239D01*
X83885618Y-70983239D01*
X83885621Y-70983241D01*
X84125215Y-71061090D01*
X84374038Y-71100500D01*
X84374039Y-71100500D01*
X84625961Y-71100500D01*
X84625962Y-71100500D01*
X84874785Y-71061090D01*
X85114379Y-70983241D01*
X85338845Y-70868870D01*
X85542656Y-70720793D01*
X85720793Y-70542656D01*
X85868870Y-70338845D01*
X85983241Y-70114379D01*
X86061090Y-69874785D01*
X86100500Y-69625962D01*
X86100500Y-69374038D01*
X140899500Y-69374038D01*
X140899500Y-69625961D01*
X140938910Y-69874785D01*
X141016760Y-70114383D01*
X141131132Y-70338848D01*
X141279201Y-70542649D01*
X141279205Y-70542654D01*
X141457345Y-70720794D01*
X141457350Y-70720798D01*
X141635117Y-70849952D01*
X141661155Y-70868870D01*
X141804184Y-70941747D01*
X141885616Y-70983239D01*
X141885618Y-70983239D01*
X141885621Y-70983241D01*
X142125215Y-71061090D01*
X142374038Y-71100500D01*
X142374039Y-71100500D01*
X142625961Y-71100500D01*
X142625962Y-71100500D01*
X142874785Y-71061090D01*
X143114379Y-70983241D01*
X143338845Y-70868870D01*
X143542656Y-70720793D01*
X143720793Y-70542656D01*
X143868870Y-70338845D01*
X143983241Y-70114379D01*
X144061090Y-69874785D01*
X144100500Y-69625962D01*
X144100500Y-69374038D01*
X144061090Y-69125215D01*
X143983241Y-68885621D01*
X143983239Y-68885618D01*
X143983239Y-68885616D01*
X143923520Y-68768412D01*
X143868870Y-68661155D01*
X143799910Y-68566239D01*
X143720798Y-68457350D01*
X143720794Y-68457345D01*
X143542654Y-68279205D01*
X143542649Y-68279201D01*
X143487536Y-68239159D01*
X143356164Y-68143713D01*
X148149500Y-68143713D01*
X148149500Y-68356286D01*
X148182753Y-68566239D01*
X148248444Y-68768414D01*
X148344951Y-68957820D01*
X148469890Y-69129786D01*
X148620213Y-69280109D01*
X148792179Y-69405048D01*
X148792181Y-69405049D01*
X148792184Y-69405051D01*
X148981588Y-69501557D01*
X149183757Y-69567246D01*
X149393713Y-69600500D01*
X149393714Y-69600500D01*
X149606286Y-69600500D01*
X149606287Y-69600500D01*
X149816243Y-69567246D01*
X150018412Y-69501557D01*
X150207816Y-69405051D01*
X150250502Y-69374038D01*
X150379786Y-69280109D01*
X150379788Y-69280106D01*
X150379792Y-69280104D01*
X150530104Y-69129792D01*
X150530106Y-69129788D01*
X150530109Y-69129786D01*
X150655048Y-68957820D01*
X150655047Y-68957820D01*
X150655051Y-68957816D01*
X150751557Y-68768412D01*
X150817246Y-68566243D01*
X150850500Y-68356287D01*
X150850500Y-68143713D01*
X150817246Y-67933757D01*
X150751557Y-67731588D01*
X150655051Y-67542184D01*
X150655049Y-67542181D01*
X150655048Y-67542179D01*
X150530109Y-67370213D01*
X150379786Y-67219890D01*
X150207820Y-67094951D01*
X150018414Y-66998444D01*
X150018413Y-66998443D01*
X150018412Y-66998443D01*
X149816243Y-66932754D01*
X149816241Y-66932753D01*
X149816240Y-66932753D01*
X149654957Y-66907208D01*
X149606287Y-66899500D01*
X149393713Y-66899500D01*
X149345042Y-66907208D01*
X149183760Y-66932753D01*
X148981585Y-66998444D01*
X148792179Y-67094951D01*
X148620213Y-67219890D01*
X148469890Y-67370213D01*
X148344951Y-67542179D01*
X148248444Y-67731585D01*
X148182753Y-67933760D01*
X148149500Y-68143713D01*
X143356164Y-68143713D01*
X143338848Y-68131132D01*
X143338847Y-68131131D01*
X143338845Y-68131130D01*
X143268747Y-68095413D01*
X143114383Y-68016760D01*
X142874785Y-67938910D01*
X142842250Y-67933757D01*
X142625962Y-67899500D01*
X142374038Y-67899500D01*
X142249626Y-67919205D01*
X142125214Y-67938910D01*
X141885616Y-68016760D01*
X141661151Y-68131132D01*
X141457350Y-68279201D01*
X141457345Y-68279205D01*
X141279205Y-68457345D01*
X141279201Y-68457350D01*
X141131132Y-68661151D01*
X141016760Y-68885616D01*
X140938910Y-69125214D01*
X140899500Y-69374038D01*
X86100500Y-69374038D01*
X86061090Y-69125215D01*
X85983241Y-68885621D01*
X85983239Y-68885618D01*
X85983239Y-68885616D01*
X85923520Y-68768412D01*
X85868870Y-68661155D01*
X85799910Y-68566239D01*
X85720798Y-68457350D01*
X85720794Y-68457345D01*
X85542654Y-68279205D01*
X85542649Y-68279201D01*
X85338848Y-68131132D01*
X85338847Y-68131131D01*
X85338845Y-68131130D01*
X85268747Y-68095413D01*
X85114383Y-68016760D01*
X84874785Y-67938910D01*
X84842250Y-67933757D01*
X84625962Y-67899500D01*
X84374038Y-67899500D01*
X84249626Y-67919205D01*
X84125214Y-67938910D01*
X83885616Y-68016760D01*
X83661151Y-68131132D01*
X83457350Y-68279201D01*
X83457345Y-68279205D01*
X83279205Y-68457345D01*
X83279201Y-68457350D01*
X83131132Y-68661151D01*
X83016760Y-68885616D01*
X82938910Y-69125214D01*
X82899500Y-69374038D01*
X78250502Y-69374038D01*
X78379786Y-69280109D01*
X78379788Y-69280106D01*
X78379792Y-69280104D01*
X78530104Y-69129792D01*
X78530106Y-69129788D01*
X78530109Y-69129786D01*
X78655048Y-68957820D01*
X78655047Y-68957820D01*
X78655051Y-68957816D01*
X78751557Y-68768412D01*
X78817246Y-68566243D01*
X78850500Y-68356287D01*
X78850500Y-68143713D01*
X78817246Y-67933757D01*
X78751557Y-67731588D01*
X78655051Y-67542184D01*
X78655049Y-67542181D01*
X78655048Y-67542179D01*
X78530109Y-67370213D01*
X78379786Y-67219890D01*
X78207820Y-67094951D01*
X78018414Y-66998444D01*
X78018413Y-66998443D01*
X78018412Y-66998443D01*
X77816243Y-66932754D01*
X77816241Y-66932753D01*
X77816240Y-66932753D01*
X77654957Y-66907208D01*
X77606287Y-66899500D01*
X77393713Y-66899500D01*
X77345042Y-66907208D01*
X77183760Y-66932753D01*
X76981585Y-66998444D01*
X76792179Y-67094951D01*
X76620213Y-67219890D01*
X76469890Y-67370213D01*
X76344951Y-67542179D01*
X76248444Y-67731585D01*
X76182753Y-67933760D01*
X76149500Y-68143713D01*
X74005722Y-68143713D01*
X74006260Y-68132756D01*
X74006260Y-68132755D01*
X74017052Y-67913072D01*
X74018245Y-67900962D01*
X74043370Y-67731585D01*
X74066849Y-67573296D01*
X74069218Y-67561385D01*
X74149710Y-67240043D01*
X74153240Y-67228411D01*
X74163227Y-67200500D01*
X74264835Y-66916525D01*
X74269476Y-66905318D01*
X74411124Y-66605828D01*
X74416840Y-66595136D01*
X74432508Y-66568995D01*
X100799499Y-66568995D01*
X100826418Y-66704322D01*
X100826421Y-66704332D01*
X100879221Y-66831804D01*
X100879228Y-66831817D01*
X100955885Y-66946541D01*
X100955888Y-66946545D01*
X101053454Y-67044111D01*
X101053458Y-67044114D01*
X101168182Y-67120771D01*
X101168195Y-67120778D01*
X101295667Y-67173578D01*
X101295672Y-67173580D01*
X101295676Y-67173580D01*
X101295677Y-67173581D01*
X101431004Y-67200500D01*
X101431007Y-67200500D01*
X101568995Y-67200500D01*
X101660041Y-67182389D01*
X101704328Y-67173580D01*
X101831811Y-67120775D01*
X101946542Y-67044114D01*
X102044114Y-66946542D01*
X102120775Y-66831811D01*
X102173580Y-66704328D01*
X102193169Y-66605848D01*
X102200500Y-66568995D01*
X103799499Y-66568995D01*
X103826418Y-66704322D01*
X103826421Y-66704332D01*
X103879221Y-66831804D01*
X103879228Y-66831817D01*
X103955885Y-66946541D01*
X103955888Y-66946545D01*
X104053454Y-67044111D01*
X104053458Y-67044114D01*
X104168182Y-67120771D01*
X104168195Y-67120778D01*
X104295667Y-67173578D01*
X104295672Y-67173580D01*
X104295676Y-67173580D01*
X104295677Y-67173581D01*
X104431004Y-67200500D01*
X104431007Y-67200500D01*
X104568995Y-67200500D01*
X104660041Y-67182389D01*
X104704328Y-67173580D01*
X104831811Y-67120775D01*
X104946542Y-67044114D01*
X105044114Y-66946542D01*
X105120775Y-66831811D01*
X105173580Y-66704328D01*
X105193169Y-66605848D01*
X105200500Y-66568995D01*
X105200500Y-66431004D01*
X105173581Y-66295677D01*
X105173580Y-66295676D01*
X105173580Y-66295672D01*
X105173578Y-66295667D01*
X105120778Y-66168195D01*
X105120771Y-66168182D01*
X105044114Y-66053458D01*
X105044111Y-66053454D01*
X104946545Y-65955888D01*
X104946541Y-65955885D01*
X104831817Y-65879228D01*
X104831804Y-65879221D01*
X104704332Y-65826421D01*
X104704322Y-65826418D01*
X104568995Y-65799500D01*
X104568993Y-65799500D01*
X104431007Y-65799500D01*
X104431005Y-65799500D01*
X104295677Y-65826418D01*
X104295667Y-65826421D01*
X104168195Y-65879221D01*
X104168182Y-65879228D01*
X104053458Y-65955885D01*
X104053454Y-65955888D01*
X103955888Y-66053454D01*
X103955885Y-66053458D01*
X103879228Y-66168182D01*
X103879221Y-66168195D01*
X103826421Y-66295667D01*
X103826418Y-66295677D01*
X103799500Y-66431004D01*
X103799500Y-66431007D01*
X103799500Y-66568993D01*
X103799500Y-66568995D01*
X103799499Y-66568995D01*
X102200500Y-66568995D01*
X102200500Y-66431004D01*
X102173581Y-66295677D01*
X102173580Y-66295676D01*
X102173580Y-66295672D01*
X102173578Y-66295667D01*
X102120778Y-66168195D01*
X102120771Y-66168182D01*
X102044114Y-66053458D01*
X102044111Y-66053454D01*
X101946545Y-65955888D01*
X101946541Y-65955885D01*
X101831817Y-65879228D01*
X101831804Y-65879221D01*
X101704332Y-65826421D01*
X101704322Y-65826418D01*
X101568995Y-65799500D01*
X101568993Y-65799500D01*
X101431007Y-65799500D01*
X101431005Y-65799500D01*
X101295677Y-65826418D01*
X101295667Y-65826421D01*
X101168195Y-65879221D01*
X101168182Y-65879228D01*
X101053458Y-65955885D01*
X101053454Y-65955888D01*
X100955888Y-66053454D01*
X100955885Y-66053458D01*
X100879228Y-66168182D01*
X100879221Y-66168195D01*
X100826421Y-66295667D01*
X100826418Y-66295677D01*
X100799500Y-66431004D01*
X100799500Y-66431007D01*
X100799500Y-66568993D01*
X100799500Y-66568995D01*
X100799499Y-66568995D01*
X74432508Y-66568995D01*
X74587145Y-66310998D01*
X74593888Y-66300905D01*
X74791232Y-66034818D01*
X74798935Y-66025433D01*
X75021405Y-65779975D01*
X75029975Y-65771405D01*
X75275433Y-65548935D01*
X75284818Y-65541232D01*
X75550905Y-65343888D01*
X75560998Y-65337145D01*
X75845136Y-65166840D01*
X75855828Y-65161124D01*
X76155318Y-65019476D01*
X76166525Y-65014835D01*
X76478412Y-64903239D01*
X76490043Y-64899710D01*
X76811385Y-64819218D01*
X76823296Y-64816849D01*
X77150962Y-64768244D01*
X77163068Y-64767052D01*
X77496967Y-64750648D01*
X77503051Y-64750500D01*
X77565892Y-64750500D01*
X149434108Y-64750500D01*
X149496949Y-64750500D01*
X149503032Y-64750648D01*
G37*
%TD.AperFunction*%
%TD*%
M02*
