%TF.GenerationSoftware,KiCad,Pcbnew,9.0.2*%
%TF.CreationDate,2025-06-03T01:32:06-04:00*%
%TF.ProjectId,VolleyBot,566f6c6c-6579-4426-9f74-2e6b69636164,rev?*%
%TF.SameCoordinates,Original*%
%TF.FileFunction,Soldermask,Bot*%
%TF.FilePolarity,Negative*%
%FSLAX46Y46*%
G04 Gerber Fmt 4.6, Leading zero omitted, Abs format (unit mm)*
G04 Created by KiCad (PCBNEW 9.0.2) date 2025-06-03 01:32:06*
%MOMM*%
%LPD*%
G01*
G04 APERTURE LIST*
G04 Aperture macros list*
%AMRoundRect*
0 Rectangle with rounded corners*
0 $1 Rounding radius*
0 $2 $3 $4 $5 $6 $7 $8 $9 X,Y pos of 4 corners*
0 Add a 4 corners polygon primitive as box body*
4,1,4,$2,$3,$4,$5,$6,$7,$8,$9,$2,$3,0*
0 Add four circle primitives for the rounded corners*
1,1,$1+$1,$2,$3*
1,1,$1+$1,$4,$5*
1,1,$1+$1,$6,$7*
1,1,$1+$1,$8,$9*
0 Add four rect primitives between the rounded corners*
20,1,$1+$1,$2,$3,$4,$5,0*
20,1,$1+$1,$4,$5,$6,$7,0*
20,1,$1+$1,$6,$7,$8,$9,0*
20,1,$1+$1,$8,$9,$2,$3,0*%
G04 Aperture macros list end*
%ADD10RoundRect,0.250000X0.600000X0.725000X-0.600000X0.725000X-0.600000X-0.725000X0.600000X-0.725000X0*%
%ADD11O,1.700000X1.950000*%
%ADD12R,1.700000X1.700000*%
%ADD13C,1.700000*%
%ADD14C,0.900000*%
%ADD15C,2.200000*%
%ADD16R,0.900000X2.000000*%
%ADD17RoundRect,1.025000X1.025000X1.025000X-1.025000X1.025000X-1.025000X-1.025000X1.025000X-1.025000X0*%
%ADD18C,4.100000*%
%ADD19RoundRect,0.250000X-0.750000X0.600000X-0.750000X-0.600000X0.750000X-0.600000X0.750000X0.600000X0*%
%ADD20O,2.000000X1.700000*%
%ADD21C,2.700000*%
%ADD22C,0.700000*%
%ADD23O,2.000000X1.100000*%
%ADD24O,1.800000X1.200000*%
G04 APERTURE END LIST*
D10*
%TO.C,J4*%
X120750000Y-73945000D03*
D11*
X118250000Y-73945000D03*
X115750000Y-73945000D03*
X113250000Y-73945000D03*
%TD*%
D12*
%TO.C,J1*%
X127460000Y-93750000D03*
D13*
X130000000Y-93750000D03*
X132540000Y-93750000D03*
X135080000Y-93750000D03*
%TD*%
D14*
%TO.C,SW2*%
X138250000Y-114105000D03*
X141250000Y-114105000D03*
%TD*%
D15*
%TO.C,H2*%
X77500000Y-112250000D03*
%TD*%
D16*
%TO.C,J3*%
X102000000Y-106750000D03*
X88500000Y-106750000D03*
D17*
X91650000Y-100750000D03*
D18*
X98850000Y-100750000D03*
%TD*%
D15*
%TO.C,H3*%
X149500000Y-112250000D03*
%TD*%
D19*
%TO.C,J7*%
X82945000Y-98500000D03*
D20*
X82945000Y-101000000D03*
%TD*%
D15*
%TO.C,H4*%
X77500000Y-68250000D03*
%TD*%
D21*
%TO.C,H5*%
X84500000Y-69500000D03*
%TD*%
D12*
%TO.C,J2*%
X127000000Y-74945000D03*
D13*
X129540000Y-74945000D03*
X132080000Y-74945000D03*
X134620000Y-74945000D03*
%TD*%
D21*
%TO.C,H8*%
X84500000Y-92500000D03*
%TD*%
D14*
%TO.C,SW3*%
X108250000Y-114080000D03*
X111250000Y-114080000D03*
%TD*%
D19*
%TO.C,J6*%
X82945000Y-84000000D03*
D20*
X82945000Y-86500000D03*
%TD*%
D19*
%TO.C,J5*%
X82945000Y-75500000D03*
D20*
X82945000Y-78000000D03*
%TD*%
D15*
%TO.C,H1*%
X149500000Y-68250000D03*
%TD*%
D22*
%TO.C,USB2*%
X147080000Y-83890000D03*
X147080000Y-78110000D03*
D23*
X146550000Y-85320000D03*
D24*
X150760000Y-85320000D03*
D23*
X146550000Y-76680000D03*
D24*
X150760000Y-76680000D03*
%TD*%
D21*
%TO.C,H6*%
X142500000Y-69500000D03*
%TD*%
D14*
%TO.C,SW1*%
X104500000Y-66500000D03*
X101500000Y-66500000D03*
%TD*%
D21*
%TO.C,H7*%
X142500000Y-92500000D03*
%TD*%
M02*
