%TF.GenerationSoftware,KiCad,Pcbnew,9.0.2*%
%TF.CreationDate,2025-06-03T01:32:06-04:00*%
%TF.ProjectId,VolleyBot,566f6c6c-6579-4426-9f74-2e6b69636164,rev?*%
%TF.SameCoordinates,Original*%
%TF.FileFunction,Legend,Top*%
%TF.FilePolarity,Positive*%
%FSLAX46Y46*%
G04 Gerber Fmt 4.6, Leading zero omitted, Abs format (unit mm)*
G04 Created by KiCad (PCBNEW 9.0.2) date 2025-06-03 01:32:06*
%MOMM*%
%LPD*%
G01*
G04 APERTURE LIST*
%ADD10C,0.250000*%
%ADD11C,0.500000*%
%ADD12C,0.150000*%
%ADD13C,0.120000*%
%ADD14C,0.000000*%
%ADD15C,0.600000*%
G04 APERTURE END LIST*
D10*
X87114619Y-103097431D02*
X86114619Y-103097431D01*
X86114619Y-103097431D02*
X86828904Y-102764098D01*
X86828904Y-102764098D02*
X86114619Y-102430765D01*
X86114619Y-102430765D02*
X87114619Y-102430765D01*
X86114619Y-101764098D02*
X86114619Y-101573622D01*
X86114619Y-101573622D02*
X86162238Y-101478384D01*
X86162238Y-101478384D02*
X86257476Y-101383146D01*
X86257476Y-101383146D02*
X86447952Y-101335527D01*
X86447952Y-101335527D02*
X86781285Y-101335527D01*
X86781285Y-101335527D02*
X86971761Y-101383146D01*
X86971761Y-101383146D02*
X87067000Y-101478384D01*
X87067000Y-101478384D02*
X87114619Y-101573622D01*
X87114619Y-101573622D02*
X87114619Y-101764098D01*
X87114619Y-101764098D02*
X87067000Y-101859336D01*
X87067000Y-101859336D02*
X86971761Y-101954574D01*
X86971761Y-101954574D02*
X86781285Y-102002193D01*
X86781285Y-102002193D02*
X86447952Y-102002193D01*
X86447952Y-102002193D02*
X86257476Y-101954574D01*
X86257476Y-101954574D02*
X86162238Y-101859336D01*
X86162238Y-101859336D02*
X86114619Y-101764098D01*
X86114619Y-101049812D02*
X86114619Y-100478384D01*
X87114619Y-100764098D02*
X86114619Y-100764098D01*
X86114619Y-99954574D02*
X86114619Y-99764098D01*
X86114619Y-99764098D02*
X86162238Y-99668860D01*
X86162238Y-99668860D02*
X86257476Y-99573622D01*
X86257476Y-99573622D02*
X86447952Y-99526003D01*
X86447952Y-99526003D02*
X86781285Y-99526003D01*
X86781285Y-99526003D02*
X86971761Y-99573622D01*
X86971761Y-99573622D02*
X87067000Y-99668860D01*
X87067000Y-99668860D02*
X87114619Y-99764098D01*
X87114619Y-99764098D02*
X87114619Y-99954574D01*
X87114619Y-99954574D02*
X87067000Y-100049812D01*
X87067000Y-100049812D02*
X86971761Y-100145050D01*
X86971761Y-100145050D02*
X86781285Y-100192669D01*
X86781285Y-100192669D02*
X86447952Y-100192669D01*
X86447952Y-100192669D02*
X86257476Y-100145050D01*
X86257476Y-100145050D02*
X86162238Y-100049812D01*
X86162238Y-100049812D02*
X86114619Y-99954574D01*
X87114619Y-98526003D02*
X86638428Y-98859336D01*
X87114619Y-99097431D02*
X86114619Y-99097431D01*
X86114619Y-99097431D02*
X86114619Y-98716479D01*
X86114619Y-98716479D02*
X86162238Y-98621241D01*
X86162238Y-98621241D02*
X86209857Y-98573622D01*
X86209857Y-98573622D02*
X86305095Y-98526003D01*
X86305095Y-98526003D02*
X86447952Y-98526003D01*
X86447952Y-98526003D02*
X86543190Y-98573622D01*
X86543190Y-98573622D02*
X86590809Y-98621241D01*
X86590809Y-98621241D02*
X86638428Y-98716479D01*
X86638428Y-98716479D02*
X86638428Y-99097431D01*
X86114619Y-97430764D02*
X86114619Y-96811717D01*
X86114619Y-96811717D02*
X86495571Y-97145050D01*
X86495571Y-97145050D02*
X86495571Y-97002193D01*
X86495571Y-97002193D02*
X86543190Y-96906955D01*
X86543190Y-96906955D02*
X86590809Y-96859336D01*
X86590809Y-96859336D02*
X86686047Y-96811717D01*
X86686047Y-96811717D02*
X86924142Y-96811717D01*
X86924142Y-96811717D02*
X87019380Y-96859336D01*
X87019380Y-96859336D02*
X87067000Y-96906955D01*
X87067000Y-96906955D02*
X87114619Y-97002193D01*
X87114619Y-97002193D02*
X87114619Y-97287907D01*
X87114619Y-97287907D02*
X87067000Y-97383145D01*
X87067000Y-97383145D02*
X87019380Y-97430764D01*
X127723996Y-115564619D02*
X127390663Y-115088428D01*
X127152568Y-115564619D02*
X127152568Y-114564619D01*
X127152568Y-114564619D02*
X127533520Y-114564619D01*
X127533520Y-114564619D02*
X127628758Y-114612238D01*
X127628758Y-114612238D02*
X127676377Y-114659857D01*
X127676377Y-114659857D02*
X127723996Y-114755095D01*
X127723996Y-114755095D02*
X127723996Y-114897952D01*
X127723996Y-114897952D02*
X127676377Y-114993190D01*
X127676377Y-114993190D02*
X127628758Y-115040809D01*
X127628758Y-115040809D02*
X127533520Y-115088428D01*
X127533520Y-115088428D02*
X127152568Y-115088428D01*
X128152568Y-115564619D02*
X128152568Y-114564619D01*
X128152568Y-114564619D02*
X128533520Y-114564619D01*
X128533520Y-114564619D02*
X128628758Y-114612238D01*
X128628758Y-114612238D02*
X128676377Y-114659857D01*
X128676377Y-114659857D02*
X128723996Y-114755095D01*
X128723996Y-114755095D02*
X128723996Y-114897952D01*
X128723996Y-114897952D02*
X128676377Y-114993190D01*
X128676377Y-114993190D02*
X128628758Y-115040809D01*
X128628758Y-115040809D02*
X128533520Y-115088428D01*
X128533520Y-115088428D02*
X128152568Y-115088428D01*
X129152568Y-115564619D02*
X129152568Y-114564619D01*
X130390663Y-115564619D02*
X130390663Y-114564619D01*
X130390663Y-114564619D02*
X130771615Y-114564619D01*
X130771615Y-114564619D02*
X130866853Y-114612238D01*
X130866853Y-114612238D02*
X130914472Y-114659857D01*
X130914472Y-114659857D02*
X130962091Y-114755095D01*
X130962091Y-114755095D02*
X130962091Y-114897952D01*
X130962091Y-114897952D02*
X130914472Y-114993190D01*
X130914472Y-114993190D02*
X130866853Y-115040809D01*
X130866853Y-115040809D02*
X130771615Y-115088428D01*
X130771615Y-115088428D02*
X130390663Y-115088428D01*
X131581139Y-114564619D02*
X131771615Y-114564619D01*
X131771615Y-114564619D02*
X131866853Y-114612238D01*
X131866853Y-114612238D02*
X131962091Y-114707476D01*
X131962091Y-114707476D02*
X132009710Y-114897952D01*
X132009710Y-114897952D02*
X132009710Y-115231285D01*
X132009710Y-115231285D02*
X131962091Y-115421761D01*
X131962091Y-115421761D02*
X131866853Y-115517000D01*
X131866853Y-115517000D02*
X131771615Y-115564619D01*
X131771615Y-115564619D02*
X131581139Y-115564619D01*
X131581139Y-115564619D02*
X131485901Y-115517000D01*
X131485901Y-115517000D02*
X131390663Y-115421761D01*
X131390663Y-115421761D02*
X131343044Y-115231285D01*
X131343044Y-115231285D02*
X131343044Y-114897952D01*
X131343044Y-114897952D02*
X131390663Y-114707476D01*
X131390663Y-114707476D02*
X131485901Y-114612238D01*
X131485901Y-114612238D02*
X131581139Y-114564619D01*
X132343044Y-114564619D02*
X132581139Y-115564619D01*
X132581139Y-115564619D02*
X132771615Y-114850333D01*
X132771615Y-114850333D02*
X132962091Y-115564619D01*
X132962091Y-115564619D02*
X133200187Y-114564619D01*
X133581139Y-115040809D02*
X133914472Y-115040809D01*
X134057329Y-115564619D02*
X133581139Y-115564619D01*
X133581139Y-115564619D02*
X133581139Y-114564619D01*
X133581139Y-114564619D02*
X134057329Y-114564619D01*
X135057329Y-115564619D02*
X134723996Y-115088428D01*
X134485901Y-115564619D02*
X134485901Y-114564619D01*
X134485901Y-114564619D02*
X134866853Y-114564619D01*
X134866853Y-114564619D02*
X134962091Y-114612238D01*
X134962091Y-114612238D02*
X135009710Y-114659857D01*
X135009710Y-114659857D02*
X135057329Y-114755095D01*
X135057329Y-114755095D02*
X135057329Y-114897952D01*
X135057329Y-114897952D02*
X135009710Y-114993190D01*
X135009710Y-114993190D02*
X134962091Y-115040809D01*
X134962091Y-115040809D02*
X134866853Y-115088428D01*
X134866853Y-115088428D02*
X134485901Y-115088428D01*
X113652568Y-77864619D02*
X113652568Y-76864619D01*
X114128758Y-77864619D02*
X114128758Y-76864619D01*
X114128758Y-76864619D02*
X114462091Y-77578904D01*
X114462091Y-77578904D02*
X114795424Y-76864619D01*
X114795424Y-76864619D02*
X114795424Y-77864619D01*
X115271615Y-76864619D02*
X115271615Y-77674142D01*
X115271615Y-77674142D02*
X115319234Y-77769380D01*
X115319234Y-77769380D02*
X115366853Y-77817000D01*
X115366853Y-77817000D02*
X115462091Y-77864619D01*
X115462091Y-77864619D02*
X115652567Y-77864619D01*
X115652567Y-77864619D02*
X115747805Y-77817000D01*
X115747805Y-77817000D02*
X115795424Y-77769380D01*
X115795424Y-77769380D02*
X115843043Y-77674142D01*
X115843043Y-77674142D02*
X115843043Y-76864619D01*
X117652567Y-77769380D02*
X117604948Y-77817000D01*
X117604948Y-77817000D02*
X117462091Y-77864619D01*
X117462091Y-77864619D02*
X117366853Y-77864619D01*
X117366853Y-77864619D02*
X117223996Y-77817000D01*
X117223996Y-77817000D02*
X117128758Y-77721761D01*
X117128758Y-77721761D02*
X117081139Y-77626523D01*
X117081139Y-77626523D02*
X117033520Y-77436047D01*
X117033520Y-77436047D02*
X117033520Y-77293190D01*
X117033520Y-77293190D02*
X117081139Y-77102714D01*
X117081139Y-77102714D02*
X117128758Y-77007476D01*
X117128758Y-77007476D02*
X117223996Y-76912238D01*
X117223996Y-76912238D02*
X117366853Y-76864619D01*
X117366853Y-76864619D02*
X117462091Y-76864619D01*
X117462091Y-76864619D02*
X117604948Y-76912238D01*
X117604948Y-76912238D02*
X117652567Y-76959857D01*
X118271615Y-76864619D02*
X118462091Y-76864619D01*
X118462091Y-76864619D02*
X118557329Y-76912238D01*
X118557329Y-76912238D02*
X118652567Y-77007476D01*
X118652567Y-77007476D02*
X118700186Y-77197952D01*
X118700186Y-77197952D02*
X118700186Y-77531285D01*
X118700186Y-77531285D02*
X118652567Y-77721761D01*
X118652567Y-77721761D02*
X118557329Y-77817000D01*
X118557329Y-77817000D02*
X118462091Y-77864619D01*
X118462091Y-77864619D02*
X118271615Y-77864619D01*
X118271615Y-77864619D02*
X118176377Y-77817000D01*
X118176377Y-77817000D02*
X118081139Y-77721761D01*
X118081139Y-77721761D02*
X118033520Y-77531285D01*
X118033520Y-77531285D02*
X118033520Y-77197952D01*
X118033520Y-77197952D02*
X118081139Y-77007476D01*
X118081139Y-77007476D02*
X118176377Y-76912238D01*
X118176377Y-76912238D02*
X118271615Y-76864619D01*
X119128758Y-77864619D02*
X119128758Y-76864619D01*
X119128758Y-76864619D02*
X119700186Y-77864619D01*
X119700186Y-77864619D02*
X119700186Y-76864619D01*
X120176377Y-77864619D02*
X120176377Y-76864619D01*
X120176377Y-76864619D02*
X120747805Y-77864619D01*
X120747805Y-77864619D02*
X120747805Y-76864619D01*
D11*
X88364661Y-70856857D02*
X89364661Y-73856857D01*
X89364661Y-73856857D02*
X90364661Y-70856857D01*
X91793233Y-73856857D02*
X91507518Y-73714000D01*
X91507518Y-73714000D02*
X91364661Y-73571142D01*
X91364661Y-73571142D02*
X91221804Y-73285428D01*
X91221804Y-73285428D02*
X91221804Y-72428285D01*
X91221804Y-72428285D02*
X91364661Y-72142571D01*
X91364661Y-72142571D02*
X91507518Y-71999714D01*
X91507518Y-71999714D02*
X91793233Y-71856857D01*
X91793233Y-71856857D02*
X92221804Y-71856857D01*
X92221804Y-71856857D02*
X92507518Y-71999714D01*
X92507518Y-71999714D02*
X92650376Y-72142571D01*
X92650376Y-72142571D02*
X92793233Y-72428285D01*
X92793233Y-72428285D02*
X92793233Y-73285428D01*
X92793233Y-73285428D02*
X92650376Y-73571142D01*
X92650376Y-73571142D02*
X92507518Y-73714000D01*
X92507518Y-73714000D02*
X92221804Y-73856857D01*
X92221804Y-73856857D02*
X91793233Y-73856857D01*
X94507519Y-73856857D02*
X94221804Y-73714000D01*
X94221804Y-73714000D02*
X94078947Y-73428285D01*
X94078947Y-73428285D02*
X94078947Y-70856857D01*
X96078948Y-73856857D02*
X95793233Y-73714000D01*
X95793233Y-73714000D02*
X95650376Y-73428285D01*
X95650376Y-73428285D02*
X95650376Y-70856857D01*
X98364662Y-73714000D02*
X98078948Y-73856857D01*
X98078948Y-73856857D02*
X97507520Y-73856857D01*
X97507520Y-73856857D02*
X97221805Y-73714000D01*
X97221805Y-73714000D02*
X97078948Y-73428285D01*
X97078948Y-73428285D02*
X97078948Y-72285428D01*
X97078948Y-72285428D02*
X97221805Y-71999714D01*
X97221805Y-71999714D02*
X97507520Y-71856857D01*
X97507520Y-71856857D02*
X98078948Y-71856857D01*
X98078948Y-71856857D02*
X98364662Y-71999714D01*
X98364662Y-71999714D02*
X98507520Y-72285428D01*
X98507520Y-72285428D02*
X98507520Y-72571142D01*
X98507520Y-72571142D02*
X97078948Y-72856857D01*
X99507520Y-71856857D02*
X100221806Y-73856857D01*
X100936091Y-71856857D02*
X100221806Y-73856857D01*
X100221806Y-73856857D02*
X99936091Y-74571142D01*
X99936091Y-74571142D02*
X99793234Y-74714000D01*
X99793234Y-74714000D02*
X99507520Y-74856857D01*
X103078948Y-72285428D02*
X103507520Y-72428285D01*
X103507520Y-72428285D02*
X103650377Y-72571142D01*
X103650377Y-72571142D02*
X103793234Y-72856857D01*
X103793234Y-72856857D02*
X103793234Y-73285428D01*
X103793234Y-73285428D02*
X103650377Y-73571142D01*
X103650377Y-73571142D02*
X103507520Y-73714000D01*
X103507520Y-73714000D02*
X103221805Y-73856857D01*
X103221805Y-73856857D02*
X102078948Y-73856857D01*
X102078948Y-73856857D02*
X102078948Y-70856857D01*
X102078948Y-70856857D02*
X103078948Y-70856857D01*
X103078948Y-70856857D02*
X103364663Y-70999714D01*
X103364663Y-70999714D02*
X103507520Y-71142571D01*
X103507520Y-71142571D02*
X103650377Y-71428285D01*
X103650377Y-71428285D02*
X103650377Y-71714000D01*
X103650377Y-71714000D02*
X103507520Y-71999714D01*
X103507520Y-71999714D02*
X103364663Y-72142571D01*
X103364663Y-72142571D02*
X103078948Y-72285428D01*
X103078948Y-72285428D02*
X102078948Y-72285428D01*
X105507520Y-73856857D02*
X105221805Y-73714000D01*
X105221805Y-73714000D02*
X105078948Y-73571142D01*
X105078948Y-73571142D02*
X104936091Y-73285428D01*
X104936091Y-73285428D02*
X104936091Y-72428285D01*
X104936091Y-72428285D02*
X105078948Y-72142571D01*
X105078948Y-72142571D02*
X105221805Y-71999714D01*
X105221805Y-71999714D02*
X105507520Y-71856857D01*
X105507520Y-71856857D02*
X105936091Y-71856857D01*
X105936091Y-71856857D02*
X106221805Y-71999714D01*
X106221805Y-71999714D02*
X106364663Y-72142571D01*
X106364663Y-72142571D02*
X106507520Y-72428285D01*
X106507520Y-72428285D02*
X106507520Y-73285428D01*
X106507520Y-73285428D02*
X106364663Y-73571142D01*
X106364663Y-73571142D02*
X106221805Y-73714000D01*
X106221805Y-73714000D02*
X105936091Y-73856857D01*
X105936091Y-73856857D02*
X105507520Y-73856857D01*
X107364663Y-71856857D02*
X108507520Y-71856857D01*
X107793234Y-70856857D02*
X107793234Y-73428285D01*
X107793234Y-73428285D02*
X107936091Y-73714000D01*
X107936091Y-73714000D02*
X108221806Y-73856857D01*
X108221806Y-73856857D02*
X108507520Y-73856857D01*
D10*
X125604949Y-77817000D02*
X125747806Y-77864619D01*
X125747806Y-77864619D02*
X125985901Y-77864619D01*
X125985901Y-77864619D02*
X126081139Y-77817000D01*
X126081139Y-77817000D02*
X126128758Y-77769380D01*
X126128758Y-77769380D02*
X126176377Y-77674142D01*
X126176377Y-77674142D02*
X126176377Y-77578904D01*
X126176377Y-77578904D02*
X126128758Y-77483666D01*
X126128758Y-77483666D02*
X126081139Y-77436047D01*
X126081139Y-77436047D02*
X125985901Y-77388428D01*
X125985901Y-77388428D02*
X125795425Y-77340809D01*
X125795425Y-77340809D02*
X125700187Y-77293190D01*
X125700187Y-77293190D02*
X125652568Y-77245571D01*
X125652568Y-77245571D02*
X125604949Y-77150333D01*
X125604949Y-77150333D02*
X125604949Y-77055095D01*
X125604949Y-77055095D02*
X125652568Y-76959857D01*
X125652568Y-76959857D02*
X125700187Y-76912238D01*
X125700187Y-76912238D02*
X125795425Y-76864619D01*
X125795425Y-76864619D02*
X126033520Y-76864619D01*
X126033520Y-76864619D02*
X126176377Y-76912238D01*
X126604949Y-77340809D02*
X126938282Y-77340809D01*
X127081139Y-77864619D02*
X126604949Y-77864619D01*
X126604949Y-77864619D02*
X126604949Y-76864619D01*
X126604949Y-76864619D02*
X127081139Y-76864619D01*
X128081139Y-77864619D02*
X127747806Y-77388428D01*
X127509711Y-77864619D02*
X127509711Y-76864619D01*
X127509711Y-76864619D02*
X127890663Y-76864619D01*
X127890663Y-76864619D02*
X127985901Y-76912238D01*
X127985901Y-76912238D02*
X128033520Y-76959857D01*
X128033520Y-76959857D02*
X128081139Y-77055095D01*
X128081139Y-77055095D02*
X128081139Y-77197952D01*
X128081139Y-77197952D02*
X128033520Y-77293190D01*
X128033520Y-77293190D02*
X127985901Y-77340809D01*
X127985901Y-77340809D02*
X127890663Y-77388428D01*
X127890663Y-77388428D02*
X127509711Y-77388428D01*
X128509711Y-77864619D02*
X128509711Y-76864619D01*
X128938282Y-77578904D02*
X129414472Y-77578904D01*
X128843044Y-77864619D02*
X129176377Y-76864619D01*
X129176377Y-76864619D02*
X129509710Y-77864619D01*
X130319234Y-77864619D02*
X129843044Y-77864619D01*
X129843044Y-77864619D02*
X129843044Y-76864619D01*
X131414473Y-77864619D02*
X131414473Y-76864619D01*
X131414473Y-76864619D02*
X131652568Y-76864619D01*
X131652568Y-76864619D02*
X131795425Y-76912238D01*
X131795425Y-76912238D02*
X131890663Y-77007476D01*
X131890663Y-77007476D02*
X131938282Y-77102714D01*
X131938282Y-77102714D02*
X131985901Y-77293190D01*
X131985901Y-77293190D02*
X131985901Y-77436047D01*
X131985901Y-77436047D02*
X131938282Y-77626523D01*
X131938282Y-77626523D02*
X131890663Y-77721761D01*
X131890663Y-77721761D02*
X131795425Y-77817000D01*
X131795425Y-77817000D02*
X131652568Y-77864619D01*
X131652568Y-77864619D02*
X131414473Y-77864619D01*
X132414473Y-77340809D02*
X132747806Y-77340809D01*
X132890663Y-77864619D02*
X132414473Y-77864619D01*
X132414473Y-77864619D02*
X132414473Y-76864619D01*
X132414473Y-76864619D02*
X132890663Y-76864619D01*
X133652568Y-77340809D02*
X133795425Y-77388428D01*
X133795425Y-77388428D02*
X133843044Y-77436047D01*
X133843044Y-77436047D02*
X133890663Y-77531285D01*
X133890663Y-77531285D02*
X133890663Y-77674142D01*
X133890663Y-77674142D02*
X133843044Y-77769380D01*
X133843044Y-77769380D02*
X133795425Y-77817000D01*
X133795425Y-77817000D02*
X133700187Y-77864619D01*
X133700187Y-77864619D02*
X133319235Y-77864619D01*
X133319235Y-77864619D02*
X133319235Y-76864619D01*
X133319235Y-76864619D02*
X133652568Y-76864619D01*
X133652568Y-76864619D02*
X133747806Y-76912238D01*
X133747806Y-76912238D02*
X133795425Y-76959857D01*
X133795425Y-76959857D02*
X133843044Y-77055095D01*
X133843044Y-77055095D02*
X133843044Y-77150333D01*
X133843044Y-77150333D02*
X133795425Y-77245571D01*
X133795425Y-77245571D02*
X133747806Y-77293190D01*
X133747806Y-77293190D02*
X133652568Y-77340809D01*
X133652568Y-77340809D02*
X133319235Y-77340809D01*
X134319235Y-76864619D02*
X134319235Y-77674142D01*
X134319235Y-77674142D02*
X134366854Y-77769380D01*
X134366854Y-77769380D02*
X134414473Y-77817000D01*
X134414473Y-77817000D02*
X134509711Y-77864619D01*
X134509711Y-77864619D02*
X134700187Y-77864619D01*
X134700187Y-77864619D02*
X134795425Y-77817000D01*
X134795425Y-77817000D02*
X134843044Y-77769380D01*
X134843044Y-77769380D02*
X134890663Y-77674142D01*
X134890663Y-77674142D02*
X134890663Y-76864619D01*
X135890663Y-76912238D02*
X135795425Y-76864619D01*
X135795425Y-76864619D02*
X135652568Y-76864619D01*
X135652568Y-76864619D02*
X135509711Y-76912238D01*
X135509711Y-76912238D02*
X135414473Y-77007476D01*
X135414473Y-77007476D02*
X135366854Y-77102714D01*
X135366854Y-77102714D02*
X135319235Y-77293190D01*
X135319235Y-77293190D02*
X135319235Y-77436047D01*
X135319235Y-77436047D02*
X135366854Y-77626523D01*
X135366854Y-77626523D02*
X135414473Y-77721761D01*
X135414473Y-77721761D02*
X135509711Y-77817000D01*
X135509711Y-77817000D02*
X135652568Y-77864619D01*
X135652568Y-77864619D02*
X135747806Y-77864619D01*
X135747806Y-77864619D02*
X135890663Y-77817000D01*
X135890663Y-77817000D02*
X135938282Y-77769380D01*
X135938282Y-77769380D02*
X135938282Y-77436047D01*
X135938282Y-77436047D02*
X135747806Y-77436047D01*
X87114619Y-79347431D02*
X86114619Y-79347431D01*
X86114619Y-79347431D02*
X86828904Y-79014098D01*
X86828904Y-79014098D02*
X86114619Y-78680765D01*
X86114619Y-78680765D02*
X87114619Y-78680765D01*
X86114619Y-78014098D02*
X86114619Y-77823622D01*
X86114619Y-77823622D02*
X86162238Y-77728384D01*
X86162238Y-77728384D02*
X86257476Y-77633146D01*
X86257476Y-77633146D02*
X86447952Y-77585527D01*
X86447952Y-77585527D02*
X86781285Y-77585527D01*
X86781285Y-77585527D02*
X86971761Y-77633146D01*
X86971761Y-77633146D02*
X87067000Y-77728384D01*
X87067000Y-77728384D02*
X87114619Y-77823622D01*
X87114619Y-77823622D02*
X87114619Y-78014098D01*
X87114619Y-78014098D02*
X87067000Y-78109336D01*
X87067000Y-78109336D02*
X86971761Y-78204574D01*
X86971761Y-78204574D02*
X86781285Y-78252193D01*
X86781285Y-78252193D02*
X86447952Y-78252193D01*
X86447952Y-78252193D02*
X86257476Y-78204574D01*
X86257476Y-78204574D02*
X86162238Y-78109336D01*
X86162238Y-78109336D02*
X86114619Y-78014098D01*
X86114619Y-77299812D02*
X86114619Y-76728384D01*
X87114619Y-77014098D02*
X86114619Y-77014098D01*
X86114619Y-76204574D02*
X86114619Y-76014098D01*
X86114619Y-76014098D02*
X86162238Y-75918860D01*
X86162238Y-75918860D02*
X86257476Y-75823622D01*
X86257476Y-75823622D02*
X86447952Y-75776003D01*
X86447952Y-75776003D02*
X86781285Y-75776003D01*
X86781285Y-75776003D02*
X86971761Y-75823622D01*
X86971761Y-75823622D02*
X87067000Y-75918860D01*
X87067000Y-75918860D02*
X87114619Y-76014098D01*
X87114619Y-76014098D02*
X87114619Y-76204574D01*
X87114619Y-76204574D02*
X87067000Y-76299812D01*
X87067000Y-76299812D02*
X86971761Y-76395050D01*
X86971761Y-76395050D02*
X86781285Y-76442669D01*
X86781285Y-76442669D02*
X86447952Y-76442669D01*
X86447952Y-76442669D02*
X86257476Y-76395050D01*
X86257476Y-76395050D02*
X86162238Y-76299812D01*
X86162238Y-76299812D02*
X86114619Y-76204574D01*
X87114619Y-74776003D02*
X86638428Y-75109336D01*
X87114619Y-75347431D02*
X86114619Y-75347431D01*
X86114619Y-75347431D02*
X86114619Y-74966479D01*
X86114619Y-74966479D02*
X86162238Y-74871241D01*
X86162238Y-74871241D02*
X86209857Y-74823622D01*
X86209857Y-74823622D02*
X86305095Y-74776003D01*
X86305095Y-74776003D02*
X86447952Y-74776003D01*
X86447952Y-74776003D02*
X86543190Y-74823622D01*
X86543190Y-74823622D02*
X86590809Y-74871241D01*
X86590809Y-74871241D02*
X86638428Y-74966479D01*
X86638428Y-74966479D02*
X86638428Y-75347431D01*
X87114619Y-73061717D02*
X87114619Y-73633145D01*
X87114619Y-73347431D02*
X86114619Y-73347431D01*
X86114619Y-73347431D02*
X86257476Y-73442669D01*
X86257476Y-73442669D02*
X86352714Y-73537907D01*
X86352714Y-73537907D02*
X86400333Y-73633145D01*
X124723996Y-91364619D02*
X124390663Y-90888428D01*
X124152568Y-91364619D02*
X124152568Y-90364619D01*
X124152568Y-90364619D02*
X124533520Y-90364619D01*
X124533520Y-90364619D02*
X124628758Y-90412238D01*
X124628758Y-90412238D02*
X124676377Y-90459857D01*
X124676377Y-90459857D02*
X124723996Y-90555095D01*
X124723996Y-90555095D02*
X124723996Y-90697952D01*
X124723996Y-90697952D02*
X124676377Y-90793190D01*
X124676377Y-90793190D02*
X124628758Y-90840809D01*
X124628758Y-90840809D02*
X124533520Y-90888428D01*
X124533520Y-90888428D02*
X124152568Y-90888428D01*
X125152568Y-91364619D02*
X125152568Y-90364619D01*
X125152568Y-90364619D02*
X125533520Y-90364619D01*
X125533520Y-90364619D02*
X125628758Y-90412238D01*
X125628758Y-90412238D02*
X125676377Y-90459857D01*
X125676377Y-90459857D02*
X125723996Y-90555095D01*
X125723996Y-90555095D02*
X125723996Y-90697952D01*
X125723996Y-90697952D02*
X125676377Y-90793190D01*
X125676377Y-90793190D02*
X125628758Y-90840809D01*
X125628758Y-90840809D02*
X125533520Y-90888428D01*
X125533520Y-90888428D02*
X125152568Y-90888428D01*
X126152568Y-91364619D02*
X126152568Y-90364619D01*
X127295425Y-90364619D02*
X127962091Y-90364619D01*
X127962091Y-90364619D02*
X127295425Y-91364619D01*
X127295425Y-91364619D02*
X127962091Y-91364619D01*
X128343044Y-90840809D02*
X128676377Y-90840809D01*
X128819234Y-91364619D02*
X128343044Y-91364619D01*
X128343044Y-91364619D02*
X128343044Y-90364619D01*
X128343044Y-90364619D02*
X128819234Y-90364619D01*
X129819234Y-91364619D02*
X129485901Y-90888428D01*
X129247806Y-91364619D02*
X129247806Y-90364619D01*
X129247806Y-90364619D02*
X129628758Y-90364619D01*
X129628758Y-90364619D02*
X129723996Y-90412238D01*
X129723996Y-90412238D02*
X129771615Y-90459857D01*
X129771615Y-90459857D02*
X129819234Y-90555095D01*
X129819234Y-90555095D02*
X129819234Y-90697952D01*
X129819234Y-90697952D02*
X129771615Y-90793190D01*
X129771615Y-90793190D02*
X129723996Y-90840809D01*
X129723996Y-90840809D02*
X129628758Y-90888428D01*
X129628758Y-90888428D02*
X129247806Y-90888428D01*
X130438282Y-90364619D02*
X130628758Y-90364619D01*
X130628758Y-90364619D02*
X130723996Y-90412238D01*
X130723996Y-90412238D02*
X130819234Y-90507476D01*
X130819234Y-90507476D02*
X130866853Y-90697952D01*
X130866853Y-90697952D02*
X130866853Y-91031285D01*
X130866853Y-91031285D02*
X130819234Y-91221761D01*
X130819234Y-91221761D02*
X130723996Y-91317000D01*
X130723996Y-91317000D02*
X130628758Y-91364619D01*
X130628758Y-91364619D02*
X130438282Y-91364619D01*
X130438282Y-91364619D02*
X130343044Y-91317000D01*
X130343044Y-91317000D02*
X130247806Y-91221761D01*
X130247806Y-91221761D02*
X130200187Y-91031285D01*
X130200187Y-91031285D02*
X130200187Y-90697952D01*
X130200187Y-90697952D02*
X130247806Y-90507476D01*
X130247806Y-90507476D02*
X130343044Y-90412238D01*
X130343044Y-90412238D02*
X130438282Y-90364619D01*
X132009711Y-90459857D02*
X132057330Y-90412238D01*
X132057330Y-90412238D02*
X132152568Y-90364619D01*
X132152568Y-90364619D02*
X132390663Y-90364619D01*
X132390663Y-90364619D02*
X132485901Y-90412238D01*
X132485901Y-90412238D02*
X132533520Y-90459857D01*
X132533520Y-90459857D02*
X132581139Y-90555095D01*
X132581139Y-90555095D02*
X132581139Y-90650333D01*
X132581139Y-90650333D02*
X132533520Y-90793190D01*
X132533520Y-90793190D02*
X131962092Y-91364619D01*
X131962092Y-91364619D02*
X132581139Y-91364619D01*
X132914473Y-90364619D02*
X133152568Y-91364619D01*
X133152568Y-91364619D02*
X133343044Y-90650333D01*
X133343044Y-90650333D02*
X133533520Y-91364619D01*
X133533520Y-91364619D02*
X133771616Y-90364619D01*
X135485901Y-91269380D02*
X135438282Y-91317000D01*
X135438282Y-91317000D02*
X135295425Y-91364619D01*
X135295425Y-91364619D02*
X135200187Y-91364619D01*
X135200187Y-91364619D02*
X135057330Y-91317000D01*
X135057330Y-91317000D02*
X134962092Y-91221761D01*
X134962092Y-91221761D02*
X134914473Y-91126523D01*
X134914473Y-91126523D02*
X134866854Y-90936047D01*
X134866854Y-90936047D02*
X134866854Y-90793190D01*
X134866854Y-90793190D02*
X134914473Y-90602714D01*
X134914473Y-90602714D02*
X134962092Y-90507476D01*
X134962092Y-90507476D02*
X135057330Y-90412238D01*
X135057330Y-90412238D02*
X135200187Y-90364619D01*
X135200187Y-90364619D02*
X135295425Y-90364619D01*
X135295425Y-90364619D02*
X135438282Y-90412238D01*
X135438282Y-90412238D02*
X135485901Y-90459857D01*
X136104949Y-90364619D02*
X136295425Y-90364619D01*
X136295425Y-90364619D02*
X136390663Y-90412238D01*
X136390663Y-90412238D02*
X136485901Y-90507476D01*
X136485901Y-90507476D02*
X136533520Y-90697952D01*
X136533520Y-90697952D02*
X136533520Y-91031285D01*
X136533520Y-91031285D02*
X136485901Y-91221761D01*
X136485901Y-91221761D02*
X136390663Y-91317000D01*
X136390663Y-91317000D02*
X136295425Y-91364619D01*
X136295425Y-91364619D02*
X136104949Y-91364619D01*
X136104949Y-91364619D02*
X136009711Y-91317000D01*
X136009711Y-91317000D02*
X135914473Y-91221761D01*
X135914473Y-91221761D02*
X135866854Y-91031285D01*
X135866854Y-91031285D02*
X135866854Y-90697952D01*
X135866854Y-90697952D02*
X135914473Y-90507476D01*
X135914473Y-90507476D02*
X136009711Y-90412238D01*
X136009711Y-90412238D02*
X136104949Y-90364619D01*
X136962092Y-91364619D02*
X136962092Y-90364619D01*
X136962092Y-90364619D02*
X137533520Y-91364619D01*
X137533520Y-91364619D02*
X137533520Y-90364619D01*
X138009711Y-91364619D02*
X138009711Y-90364619D01*
X138009711Y-90364619D02*
X138581139Y-91364619D01*
X138581139Y-91364619D02*
X138581139Y-90364619D01*
X114902568Y-115564619D02*
X114902568Y-114564619D01*
X114902568Y-114564619D02*
X115283520Y-114564619D01*
X115283520Y-114564619D02*
X115378758Y-114612238D01*
X115378758Y-114612238D02*
X115426377Y-114659857D01*
X115426377Y-114659857D02*
X115473996Y-114755095D01*
X115473996Y-114755095D02*
X115473996Y-114897952D01*
X115473996Y-114897952D02*
X115426377Y-114993190D01*
X115426377Y-114993190D02*
X115378758Y-115040809D01*
X115378758Y-115040809D02*
X115283520Y-115088428D01*
X115283520Y-115088428D02*
X114902568Y-115088428D01*
X116093044Y-114564619D02*
X116283520Y-114564619D01*
X116283520Y-114564619D02*
X116378758Y-114612238D01*
X116378758Y-114612238D02*
X116473996Y-114707476D01*
X116473996Y-114707476D02*
X116521615Y-114897952D01*
X116521615Y-114897952D02*
X116521615Y-115231285D01*
X116521615Y-115231285D02*
X116473996Y-115421761D01*
X116473996Y-115421761D02*
X116378758Y-115517000D01*
X116378758Y-115517000D02*
X116283520Y-115564619D01*
X116283520Y-115564619D02*
X116093044Y-115564619D01*
X116093044Y-115564619D02*
X115997806Y-115517000D01*
X115997806Y-115517000D02*
X115902568Y-115421761D01*
X115902568Y-115421761D02*
X115854949Y-115231285D01*
X115854949Y-115231285D02*
X115854949Y-114897952D01*
X115854949Y-114897952D02*
X115902568Y-114707476D01*
X115902568Y-114707476D02*
X115997806Y-114612238D01*
X115997806Y-114612238D02*
X116093044Y-114564619D01*
X116854949Y-114564619D02*
X117093044Y-115564619D01*
X117093044Y-115564619D02*
X117283520Y-114850333D01*
X117283520Y-114850333D02*
X117473996Y-115564619D01*
X117473996Y-115564619D02*
X117712092Y-114564619D01*
X118093044Y-115040809D02*
X118426377Y-115040809D01*
X118569234Y-115564619D02*
X118093044Y-115564619D01*
X118093044Y-115564619D02*
X118093044Y-114564619D01*
X118093044Y-114564619D02*
X118569234Y-114564619D01*
X119569234Y-115564619D02*
X119235901Y-115088428D01*
X118997806Y-115564619D02*
X118997806Y-114564619D01*
X118997806Y-114564619D02*
X119378758Y-114564619D01*
X119378758Y-114564619D02*
X119473996Y-114612238D01*
X119473996Y-114612238D02*
X119521615Y-114659857D01*
X119521615Y-114659857D02*
X119569234Y-114755095D01*
X119569234Y-114755095D02*
X119569234Y-114897952D01*
X119569234Y-114897952D02*
X119521615Y-114993190D01*
X119521615Y-114993190D02*
X119473996Y-115040809D01*
X119473996Y-115040809D02*
X119378758Y-115088428D01*
X119378758Y-115088428D02*
X118997806Y-115088428D01*
X118104949Y-96317000D02*
X118247806Y-96364619D01*
X118247806Y-96364619D02*
X118485901Y-96364619D01*
X118485901Y-96364619D02*
X118581139Y-96317000D01*
X118581139Y-96317000D02*
X118628758Y-96269380D01*
X118628758Y-96269380D02*
X118676377Y-96174142D01*
X118676377Y-96174142D02*
X118676377Y-96078904D01*
X118676377Y-96078904D02*
X118628758Y-95983666D01*
X118628758Y-95983666D02*
X118581139Y-95936047D01*
X118581139Y-95936047D02*
X118485901Y-95888428D01*
X118485901Y-95888428D02*
X118295425Y-95840809D01*
X118295425Y-95840809D02*
X118200187Y-95793190D01*
X118200187Y-95793190D02*
X118152568Y-95745571D01*
X118152568Y-95745571D02*
X118104949Y-95650333D01*
X118104949Y-95650333D02*
X118104949Y-95555095D01*
X118104949Y-95555095D02*
X118152568Y-95459857D01*
X118152568Y-95459857D02*
X118200187Y-95412238D01*
X118200187Y-95412238D02*
X118295425Y-95364619D01*
X118295425Y-95364619D02*
X118533520Y-95364619D01*
X118533520Y-95364619D02*
X118676377Y-95412238D01*
X118962092Y-95364619D02*
X119533520Y-95364619D01*
X119247806Y-96364619D02*
X119247806Y-95364619D01*
X119866854Y-96364619D02*
X119866854Y-95364619D01*
X119866854Y-95364619D02*
X120200187Y-96078904D01*
X120200187Y-96078904D02*
X120533520Y-95364619D01*
X120533520Y-95364619D02*
X120533520Y-96364619D01*
X122247806Y-96364619D02*
X121771616Y-96364619D01*
X121771616Y-96364619D02*
X121771616Y-95364619D01*
X122581140Y-95840809D02*
X122914473Y-95840809D01*
X123057330Y-96364619D02*
X122581140Y-96364619D01*
X122581140Y-96364619D02*
X122581140Y-95364619D01*
X122581140Y-95364619D02*
X123057330Y-95364619D01*
X123485902Y-96364619D02*
X123485902Y-95364619D01*
X123485902Y-95364619D02*
X123723997Y-95364619D01*
X123723997Y-95364619D02*
X123866854Y-95412238D01*
X123866854Y-95412238D02*
X123962092Y-95507476D01*
X123962092Y-95507476D02*
X124009711Y-95602714D01*
X124009711Y-95602714D02*
X124057330Y-95793190D01*
X124057330Y-95793190D02*
X124057330Y-95936047D01*
X124057330Y-95936047D02*
X124009711Y-96126523D01*
X124009711Y-96126523D02*
X123962092Y-96221761D01*
X123962092Y-96221761D02*
X123866854Y-96317000D01*
X123866854Y-96317000D02*
X123723997Y-96364619D01*
X123723997Y-96364619D02*
X123485902Y-96364619D01*
X105735901Y-110340809D02*
X105878758Y-110388428D01*
X105878758Y-110388428D02*
X105926377Y-110436047D01*
X105926377Y-110436047D02*
X105973996Y-110531285D01*
X105973996Y-110531285D02*
X105973996Y-110674142D01*
X105973996Y-110674142D02*
X105926377Y-110769380D01*
X105926377Y-110769380D02*
X105878758Y-110817000D01*
X105878758Y-110817000D02*
X105783520Y-110864619D01*
X105783520Y-110864619D02*
X105402568Y-110864619D01*
X105402568Y-110864619D02*
X105402568Y-109864619D01*
X105402568Y-109864619D02*
X105735901Y-109864619D01*
X105735901Y-109864619D02*
X105831139Y-109912238D01*
X105831139Y-109912238D02*
X105878758Y-109959857D01*
X105878758Y-109959857D02*
X105926377Y-110055095D01*
X105926377Y-110055095D02*
X105926377Y-110150333D01*
X105926377Y-110150333D02*
X105878758Y-110245571D01*
X105878758Y-110245571D02*
X105831139Y-110293190D01*
X105831139Y-110293190D02*
X105735901Y-110340809D01*
X105735901Y-110340809D02*
X105402568Y-110340809D01*
X106354949Y-110578904D02*
X106831139Y-110578904D01*
X106259711Y-110864619D02*
X106593044Y-109864619D01*
X106593044Y-109864619D02*
X106926377Y-110864619D01*
X107116854Y-109864619D02*
X107688282Y-109864619D01*
X107402568Y-110864619D02*
X107402568Y-109864619D01*
X107878759Y-109864619D02*
X108450187Y-109864619D01*
X108164473Y-110864619D02*
X108164473Y-109864619D01*
X109497807Y-110817000D02*
X109640664Y-110864619D01*
X109640664Y-110864619D02*
X109878759Y-110864619D01*
X109878759Y-110864619D02*
X109973997Y-110817000D01*
X109973997Y-110817000D02*
X110021616Y-110769380D01*
X110021616Y-110769380D02*
X110069235Y-110674142D01*
X110069235Y-110674142D02*
X110069235Y-110578904D01*
X110069235Y-110578904D02*
X110021616Y-110483666D01*
X110021616Y-110483666D02*
X109973997Y-110436047D01*
X109973997Y-110436047D02*
X109878759Y-110388428D01*
X109878759Y-110388428D02*
X109688283Y-110340809D01*
X109688283Y-110340809D02*
X109593045Y-110293190D01*
X109593045Y-110293190D02*
X109545426Y-110245571D01*
X109545426Y-110245571D02*
X109497807Y-110150333D01*
X109497807Y-110150333D02*
X109497807Y-110055095D01*
X109497807Y-110055095D02*
X109545426Y-109959857D01*
X109545426Y-109959857D02*
X109593045Y-109912238D01*
X109593045Y-109912238D02*
X109688283Y-109864619D01*
X109688283Y-109864619D02*
X109926378Y-109864619D01*
X109926378Y-109864619D02*
X110069235Y-109912238D01*
X110402569Y-109864619D02*
X110640664Y-110864619D01*
X110640664Y-110864619D02*
X110831140Y-110150333D01*
X110831140Y-110150333D02*
X111021616Y-110864619D01*
X111021616Y-110864619D02*
X111259712Y-109864619D01*
X111640664Y-110864619D02*
X111640664Y-109864619D01*
X111973997Y-109864619D02*
X112545425Y-109864619D01*
X112259711Y-110864619D02*
X112259711Y-109864619D01*
X113450187Y-110769380D02*
X113402568Y-110817000D01*
X113402568Y-110817000D02*
X113259711Y-110864619D01*
X113259711Y-110864619D02*
X113164473Y-110864619D01*
X113164473Y-110864619D02*
X113021616Y-110817000D01*
X113021616Y-110817000D02*
X112926378Y-110721761D01*
X112926378Y-110721761D02*
X112878759Y-110626523D01*
X112878759Y-110626523D02*
X112831140Y-110436047D01*
X112831140Y-110436047D02*
X112831140Y-110293190D01*
X112831140Y-110293190D02*
X112878759Y-110102714D01*
X112878759Y-110102714D02*
X112926378Y-110007476D01*
X112926378Y-110007476D02*
X113021616Y-109912238D01*
X113021616Y-109912238D02*
X113164473Y-109864619D01*
X113164473Y-109864619D02*
X113259711Y-109864619D01*
X113259711Y-109864619D02*
X113402568Y-109912238D01*
X113402568Y-109912238D02*
X113450187Y-109959857D01*
X113878759Y-110864619D02*
X113878759Y-109864619D01*
X113878759Y-110340809D02*
X114450187Y-110340809D01*
X114450187Y-110864619D02*
X114450187Y-109864619D01*
X122735901Y-115040809D02*
X122878758Y-115088428D01*
X122878758Y-115088428D02*
X122926377Y-115136047D01*
X122926377Y-115136047D02*
X122973996Y-115231285D01*
X122973996Y-115231285D02*
X122973996Y-115374142D01*
X122973996Y-115374142D02*
X122926377Y-115469380D01*
X122926377Y-115469380D02*
X122878758Y-115517000D01*
X122878758Y-115517000D02*
X122783520Y-115564619D01*
X122783520Y-115564619D02*
X122402568Y-115564619D01*
X122402568Y-115564619D02*
X122402568Y-114564619D01*
X122402568Y-114564619D02*
X122735901Y-114564619D01*
X122735901Y-114564619D02*
X122831139Y-114612238D01*
X122831139Y-114612238D02*
X122878758Y-114659857D01*
X122878758Y-114659857D02*
X122926377Y-114755095D01*
X122926377Y-114755095D02*
X122926377Y-114850333D01*
X122926377Y-114850333D02*
X122878758Y-114945571D01*
X122878758Y-114945571D02*
X122831139Y-114993190D01*
X122831139Y-114993190D02*
X122735901Y-115040809D01*
X122735901Y-115040809D02*
X122402568Y-115040809D01*
X123354949Y-115278904D02*
X123831139Y-115278904D01*
X123259711Y-115564619D02*
X123593044Y-114564619D01*
X123593044Y-114564619D02*
X123926377Y-115564619D01*
X124116854Y-114564619D02*
X124688282Y-114564619D01*
X124402568Y-115564619D02*
X124402568Y-114564619D01*
X124878759Y-114564619D02*
X125450187Y-114564619D01*
X125164473Y-115564619D02*
X125164473Y-114564619D01*
X134223996Y-110864619D02*
X133890663Y-110388428D01*
X133652568Y-110864619D02*
X133652568Y-109864619D01*
X133652568Y-109864619D02*
X134033520Y-109864619D01*
X134033520Y-109864619D02*
X134128758Y-109912238D01*
X134128758Y-109912238D02*
X134176377Y-109959857D01*
X134176377Y-109959857D02*
X134223996Y-110055095D01*
X134223996Y-110055095D02*
X134223996Y-110197952D01*
X134223996Y-110197952D02*
X134176377Y-110293190D01*
X134176377Y-110293190D02*
X134128758Y-110340809D01*
X134128758Y-110340809D02*
X134033520Y-110388428D01*
X134033520Y-110388428D02*
X133652568Y-110388428D01*
X134652568Y-110864619D02*
X134652568Y-109864619D01*
X134652568Y-109864619D02*
X135033520Y-109864619D01*
X135033520Y-109864619D02*
X135128758Y-109912238D01*
X135128758Y-109912238D02*
X135176377Y-109959857D01*
X135176377Y-109959857D02*
X135223996Y-110055095D01*
X135223996Y-110055095D02*
X135223996Y-110197952D01*
X135223996Y-110197952D02*
X135176377Y-110293190D01*
X135176377Y-110293190D02*
X135128758Y-110340809D01*
X135128758Y-110340809D02*
X135033520Y-110388428D01*
X135033520Y-110388428D02*
X134652568Y-110388428D01*
X135652568Y-110864619D02*
X135652568Y-109864619D01*
X136890663Y-110864619D02*
X136890663Y-109864619D01*
X136890663Y-109864619D02*
X137271615Y-109864619D01*
X137271615Y-109864619D02*
X137366853Y-109912238D01*
X137366853Y-109912238D02*
X137414472Y-109959857D01*
X137414472Y-109959857D02*
X137462091Y-110055095D01*
X137462091Y-110055095D02*
X137462091Y-110197952D01*
X137462091Y-110197952D02*
X137414472Y-110293190D01*
X137414472Y-110293190D02*
X137366853Y-110340809D01*
X137366853Y-110340809D02*
X137271615Y-110388428D01*
X137271615Y-110388428D02*
X136890663Y-110388428D01*
X138081139Y-109864619D02*
X138271615Y-109864619D01*
X138271615Y-109864619D02*
X138366853Y-109912238D01*
X138366853Y-109912238D02*
X138462091Y-110007476D01*
X138462091Y-110007476D02*
X138509710Y-110197952D01*
X138509710Y-110197952D02*
X138509710Y-110531285D01*
X138509710Y-110531285D02*
X138462091Y-110721761D01*
X138462091Y-110721761D02*
X138366853Y-110817000D01*
X138366853Y-110817000D02*
X138271615Y-110864619D01*
X138271615Y-110864619D02*
X138081139Y-110864619D01*
X138081139Y-110864619D02*
X137985901Y-110817000D01*
X137985901Y-110817000D02*
X137890663Y-110721761D01*
X137890663Y-110721761D02*
X137843044Y-110531285D01*
X137843044Y-110531285D02*
X137843044Y-110197952D01*
X137843044Y-110197952D02*
X137890663Y-110007476D01*
X137890663Y-110007476D02*
X137985901Y-109912238D01*
X137985901Y-109912238D02*
X138081139Y-109864619D01*
X138843044Y-109864619D02*
X139081139Y-110864619D01*
X139081139Y-110864619D02*
X139271615Y-110150333D01*
X139271615Y-110150333D02*
X139462091Y-110864619D01*
X139462091Y-110864619D02*
X139700187Y-109864619D01*
X140081139Y-110340809D02*
X140414472Y-110340809D01*
X140557329Y-110864619D02*
X140081139Y-110864619D01*
X140081139Y-110864619D02*
X140081139Y-109864619D01*
X140081139Y-109864619D02*
X140557329Y-109864619D01*
X141557329Y-110864619D02*
X141223996Y-110388428D01*
X140985901Y-110864619D02*
X140985901Y-109864619D01*
X140985901Y-109864619D02*
X141366853Y-109864619D01*
X141366853Y-109864619D02*
X141462091Y-109912238D01*
X141462091Y-109912238D02*
X141509710Y-109959857D01*
X141509710Y-109959857D02*
X141557329Y-110055095D01*
X141557329Y-110055095D02*
X141557329Y-110197952D01*
X141557329Y-110197952D02*
X141509710Y-110293190D01*
X141509710Y-110293190D02*
X141462091Y-110340809D01*
X141462091Y-110340809D02*
X141366853Y-110388428D01*
X141366853Y-110388428D02*
X140985901Y-110388428D01*
X142700187Y-110817000D02*
X142843044Y-110864619D01*
X142843044Y-110864619D02*
X143081139Y-110864619D01*
X143081139Y-110864619D02*
X143176377Y-110817000D01*
X143176377Y-110817000D02*
X143223996Y-110769380D01*
X143223996Y-110769380D02*
X143271615Y-110674142D01*
X143271615Y-110674142D02*
X143271615Y-110578904D01*
X143271615Y-110578904D02*
X143223996Y-110483666D01*
X143223996Y-110483666D02*
X143176377Y-110436047D01*
X143176377Y-110436047D02*
X143081139Y-110388428D01*
X143081139Y-110388428D02*
X142890663Y-110340809D01*
X142890663Y-110340809D02*
X142795425Y-110293190D01*
X142795425Y-110293190D02*
X142747806Y-110245571D01*
X142747806Y-110245571D02*
X142700187Y-110150333D01*
X142700187Y-110150333D02*
X142700187Y-110055095D01*
X142700187Y-110055095D02*
X142747806Y-109959857D01*
X142747806Y-109959857D02*
X142795425Y-109912238D01*
X142795425Y-109912238D02*
X142890663Y-109864619D01*
X142890663Y-109864619D02*
X143128758Y-109864619D01*
X143128758Y-109864619D02*
X143271615Y-109912238D01*
X143604949Y-109864619D02*
X143843044Y-110864619D01*
X143843044Y-110864619D02*
X144033520Y-110150333D01*
X144033520Y-110150333D02*
X144223996Y-110864619D01*
X144223996Y-110864619D02*
X144462092Y-109864619D01*
X144843044Y-110864619D02*
X144843044Y-109864619D01*
X145176377Y-109864619D02*
X145747805Y-109864619D01*
X145462091Y-110864619D02*
X145462091Y-109864619D01*
X146652567Y-110769380D02*
X146604948Y-110817000D01*
X146604948Y-110817000D02*
X146462091Y-110864619D01*
X146462091Y-110864619D02*
X146366853Y-110864619D01*
X146366853Y-110864619D02*
X146223996Y-110817000D01*
X146223996Y-110817000D02*
X146128758Y-110721761D01*
X146128758Y-110721761D02*
X146081139Y-110626523D01*
X146081139Y-110626523D02*
X146033520Y-110436047D01*
X146033520Y-110436047D02*
X146033520Y-110293190D01*
X146033520Y-110293190D02*
X146081139Y-110102714D01*
X146081139Y-110102714D02*
X146128758Y-110007476D01*
X146128758Y-110007476D02*
X146223996Y-109912238D01*
X146223996Y-109912238D02*
X146366853Y-109864619D01*
X146366853Y-109864619D02*
X146462091Y-109864619D01*
X146462091Y-109864619D02*
X146604948Y-109912238D01*
X146604948Y-109912238D02*
X146652567Y-109959857D01*
X147081139Y-110864619D02*
X147081139Y-109864619D01*
X147081139Y-110340809D02*
X147652567Y-110340809D01*
X147652567Y-110864619D02*
X147652567Y-109864619D01*
X87114619Y-88347431D02*
X86114619Y-88347431D01*
X86114619Y-88347431D02*
X86828904Y-88014098D01*
X86828904Y-88014098D02*
X86114619Y-87680765D01*
X86114619Y-87680765D02*
X87114619Y-87680765D01*
X86114619Y-87014098D02*
X86114619Y-86823622D01*
X86114619Y-86823622D02*
X86162238Y-86728384D01*
X86162238Y-86728384D02*
X86257476Y-86633146D01*
X86257476Y-86633146D02*
X86447952Y-86585527D01*
X86447952Y-86585527D02*
X86781285Y-86585527D01*
X86781285Y-86585527D02*
X86971761Y-86633146D01*
X86971761Y-86633146D02*
X87067000Y-86728384D01*
X87067000Y-86728384D02*
X87114619Y-86823622D01*
X87114619Y-86823622D02*
X87114619Y-87014098D01*
X87114619Y-87014098D02*
X87067000Y-87109336D01*
X87067000Y-87109336D02*
X86971761Y-87204574D01*
X86971761Y-87204574D02*
X86781285Y-87252193D01*
X86781285Y-87252193D02*
X86447952Y-87252193D01*
X86447952Y-87252193D02*
X86257476Y-87204574D01*
X86257476Y-87204574D02*
X86162238Y-87109336D01*
X86162238Y-87109336D02*
X86114619Y-87014098D01*
X86114619Y-86299812D02*
X86114619Y-85728384D01*
X87114619Y-86014098D02*
X86114619Y-86014098D01*
X86114619Y-85204574D02*
X86114619Y-85014098D01*
X86114619Y-85014098D02*
X86162238Y-84918860D01*
X86162238Y-84918860D02*
X86257476Y-84823622D01*
X86257476Y-84823622D02*
X86447952Y-84776003D01*
X86447952Y-84776003D02*
X86781285Y-84776003D01*
X86781285Y-84776003D02*
X86971761Y-84823622D01*
X86971761Y-84823622D02*
X87067000Y-84918860D01*
X87067000Y-84918860D02*
X87114619Y-85014098D01*
X87114619Y-85014098D02*
X87114619Y-85204574D01*
X87114619Y-85204574D02*
X87067000Y-85299812D01*
X87067000Y-85299812D02*
X86971761Y-85395050D01*
X86971761Y-85395050D02*
X86781285Y-85442669D01*
X86781285Y-85442669D02*
X86447952Y-85442669D01*
X86447952Y-85442669D02*
X86257476Y-85395050D01*
X86257476Y-85395050D02*
X86162238Y-85299812D01*
X86162238Y-85299812D02*
X86114619Y-85204574D01*
X87114619Y-83776003D02*
X86638428Y-84109336D01*
X87114619Y-84347431D02*
X86114619Y-84347431D01*
X86114619Y-84347431D02*
X86114619Y-83966479D01*
X86114619Y-83966479D02*
X86162238Y-83871241D01*
X86162238Y-83871241D02*
X86209857Y-83823622D01*
X86209857Y-83823622D02*
X86305095Y-83776003D01*
X86305095Y-83776003D02*
X86447952Y-83776003D01*
X86447952Y-83776003D02*
X86543190Y-83823622D01*
X86543190Y-83823622D02*
X86590809Y-83871241D01*
X86590809Y-83871241D02*
X86638428Y-83966479D01*
X86638428Y-83966479D02*
X86638428Y-84347431D01*
X86209857Y-82633145D02*
X86162238Y-82585526D01*
X86162238Y-82585526D02*
X86114619Y-82490288D01*
X86114619Y-82490288D02*
X86114619Y-82252193D01*
X86114619Y-82252193D02*
X86162238Y-82156955D01*
X86162238Y-82156955D02*
X86209857Y-82109336D01*
X86209857Y-82109336D02*
X86305095Y-82061717D01*
X86305095Y-82061717D02*
X86400333Y-82061717D01*
X86400333Y-82061717D02*
X86543190Y-82109336D01*
X86543190Y-82109336D02*
X87114619Y-82680764D01*
X87114619Y-82680764D02*
X87114619Y-82061717D01*
X84047415Y-65640809D02*
X84190272Y-65688428D01*
X84190272Y-65688428D02*
X84237891Y-65736047D01*
X84237891Y-65736047D02*
X84285510Y-65831285D01*
X84285510Y-65831285D02*
X84285510Y-65974142D01*
X84285510Y-65974142D02*
X84237891Y-66069380D01*
X84237891Y-66069380D02*
X84190272Y-66117000D01*
X84190272Y-66117000D02*
X84095034Y-66164619D01*
X84095034Y-66164619D02*
X83714082Y-66164619D01*
X83714082Y-66164619D02*
X83714082Y-65164619D01*
X83714082Y-65164619D02*
X84047415Y-65164619D01*
X84047415Y-65164619D02*
X84142653Y-65212238D01*
X84142653Y-65212238D02*
X84190272Y-65259857D01*
X84190272Y-65259857D02*
X84237891Y-65355095D01*
X84237891Y-65355095D02*
X84237891Y-65450333D01*
X84237891Y-65450333D02*
X84190272Y-65545571D01*
X84190272Y-65545571D02*
X84142653Y-65593190D01*
X84142653Y-65593190D02*
X84047415Y-65640809D01*
X84047415Y-65640809D02*
X83714082Y-65640809D01*
X84904558Y-65164619D02*
X85095034Y-65164619D01*
X85095034Y-65164619D02*
X85190272Y-65212238D01*
X85190272Y-65212238D02*
X85285510Y-65307476D01*
X85285510Y-65307476D02*
X85333129Y-65497952D01*
X85333129Y-65497952D02*
X85333129Y-65831285D01*
X85333129Y-65831285D02*
X85285510Y-66021761D01*
X85285510Y-66021761D02*
X85190272Y-66117000D01*
X85190272Y-66117000D02*
X85095034Y-66164619D01*
X85095034Y-66164619D02*
X84904558Y-66164619D01*
X84904558Y-66164619D02*
X84809320Y-66117000D01*
X84809320Y-66117000D02*
X84714082Y-66021761D01*
X84714082Y-66021761D02*
X84666463Y-65831285D01*
X84666463Y-65831285D02*
X84666463Y-65497952D01*
X84666463Y-65497952D02*
X84714082Y-65307476D01*
X84714082Y-65307476D02*
X84809320Y-65212238D01*
X84809320Y-65212238D02*
X84904558Y-65164619D01*
X85952177Y-65164619D02*
X86142653Y-65164619D01*
X86142653Y-65164619D02*
X86237891Y-65212238D01*
X86237891Y-65212238D02*
X86333129Y-65307476D01*
X86333129Y-65307476D02*
X86380748Y-65497952D01*
X86380748Y-65497952D02*
X86380748Y-65831285D01*
X86380748Y-65831285D02*
X86333129Y-66021761D01*
X86333129Y-66021761D02*
X86237891Y-66117000D01*
X86237891Y-66117000D02*
X86142653Y-66164619D01*
X86142653Y-66164619D02*
X85952177Y-66164619D01*
X85952177Y-66164619D02*
X85856939Y-66117000D01*
X85856939Y-66117000D02*
X85761701Y-66021761D01*
X85761701Y-66021761D02*
X85714082Y-65831285D01*
X85714082Y-65831285D02*
X85714082Y-65497952D01*
X85714082Y-65497952D02*
X85761701Y-65307476D01*
X85761701Y-65307476D02*
X85856939Y-65212238D01*
X85856939Y-65212238D02*
X85952177Y-65164619D01*
X86666463Y-65164619D02*
X87237891Y-65164619D01*
X86952177Y-66164619D02*
X86952177Y-65164619D01*
X88333130Y-66164619D02*
X88333130Y-65164619D01*
X88333130Y-65164619D02*
X88666463Y-65878904D01*
X88666463Y-65878904D02*
X88999796Y-65164619D01*
X88999796Y-65164619D02*
X88999796Y-66164619D01*
X89666463Y-65164619D02*
X89856939Y-65164619D01*
X89856939Y-65164619D02*
X89952177Y-65212238D01*
X89952177Y-65212238D02*
X90047415Y-65307476D01*
X90047415Y-65307476D02*
X90095034Y-65497952D01*
X90095034Y-65497952D02*
X90095034Y-65831285D01*
X90095034Y-65831285D02*
X90047415Y-66021761D01*
X90047415Y-66021761D02*
X89952177Y-66117000D01*
X89952177Y-66117000D02*
X89856939Y-66164619D01*
X89856939Y-66164619D02*
X89666463Y-66164619D01*
X89666463Y-66164619D02*
X89571225Y-66117000D01*
X89571225Y-66117000D02*
X89475987Y-66021761D01*
X89475987Y-66021761D02*
X89428368Y-65831285D01*
X89428368Y-65831285D02*
X89428368Y-65497952D01*
X89428368Y-65497952D02*
X89475987Y-65307476D01*
X89475987Y-65307476D02*
X89571225Y-65212238D01*
X89571225Y-65212238D02*
X89666463Y-65164619D01*
X90523606Y-66164619D02*
X90523606Y-65164619D01*
X90523606Y-65164619D02*
X90761701Y-65164619D01*
X90761701Y-65164619D02*
X90904558Y-65212238D01*
X90904558Y-65212238D02*
X90999796Y-65307476D01*
X90999796Y-65307476D02*
X91047415Y-65402714D01*
X91047415Y-65402714D02*
X91095034Y-65593190D01*
X91095034Y-65593190D02*
X91095034Y-65736047D01*
X91095034Y-65736047D02*
X91047415Y-65926523D01*
X91047415Y-65926523D02*
X90999796Y-66021761D01*
X90999796Y-66021761D02*
X90904558Y-66117000D01*
X90904558Y-66117000D02*
X90761701Y-66164619D01*
X90761701Y-66164619D02*
X90523606Y-66164619D01*
X91523606Y-65640809D02*
X91856939Y-65640809D01*
X91999796Y-66164619D02*
X91523606Y-66164619D01*
X91523606Y-66164619D02*
X91523606Y-65164619D01*
X91523606Y-65164619D02*
X91999796Y-65164619D01*
X93142654Y-66117000D02*
X93285511Y-66164619D01*
X93285511Y-66164619D02*
X93523606Y-66164619D01*
X93523606Y-66164619D02*
X93618844Y-66117000D01*
X93618844Y-66117000D02*
X93666463Y-66069380D01*
X93666463Y-66069380D02*
X93714082Y-65974142D01*
X93714082Y-65974142D02*
X93714082Y-65878904D01*
X93714082Y-65878904D02*
X93666463Y-65783666D01*
X93666463Y-65783666D02*
X93618844Y-65736047D01*
X93618844Y-65736047D02*
X93523606Y-65688428D01*
X93523606Y-65688428D02*
X93333130Y-65640809D01*
X93333130Y-65640809D02*
X93237892Y-65593190D01*
X93237892Y-65593190D02*
X93190273Y-65545571D01*
X93190273Y-65545571D02*
X93142654Y-65450333D01*
X93142654Y-65450333D02*
X93142654Y-65355095D01*
X93142654Y-65355095D02*
X93190273Y-65259857D01*
X93190273Y-65259857D02*
X93237892Y-65212238D01*
X93237892Y-65212238D02*
X93333130Y-65164619D01*
X93333130Y-65164619D02*
X93571225Y-65164619D01*
X93571225Y-65164619D02*
X93714082Y-65212238D01*
X94047416Y-65164619D02*
X94285511Y-66164619D01*
X94285511Y-66164619D02*
X94475987Y-65450333D01*
X94475987Y-65450333D02*
X94666463Y-66164619D01*
X94666463Y-66164619D02*
X94904559Y-65164619D01*
X95285511Y-66164619D02*
X95285511Y-65164619D01*
X95618844Y-65164619D02*
X96190272Y-65164619D01*
X95904558Y-66164619D02*
X95904558Y-65164619D01*
X97095034Y-66069380D02*
X97047415Y-66117000D01*
X97047415Y-66117000D02*
X96904558Y-66164619D01*
X96904558Y-66164619D02*
X96809320Y-66164619D01*
X96809320Y-66164619D02*
X96666463Y-66117000D01*
X96666463Y-66117000D02*
X96571225Y-66021761D01*
X96571225Y-66021761D02*
X96523606Y-65926523D01*
X96523606Y-65926523D02*
X96475987Y-65736047D01*
X96475987Y-65736047D02*
X96475987Y-65593190D01*
X96475987Y-65593190D02*
X96523606Y-65402714D01*
X96523606Y-65402714D02*
X96571225Y-65307476D01*
X96571225Y-65307476D02*
X96666463Y-65212238D01*
X96666463Y-65212238D02*
X96809320Y-65164619D01*
X96809320Y-65164619D02*
X96904558Y-65164619D01*
X96904558Y-65164619D02*
X97047415Y-65212238D01*
X97047415Y-65212238D02*
X97095034Y-65259857D01*
X97523606Y-66164619D02*
X97523606Y-65164619D01*
X97523606Y-65640809D02*
X98095034Y-65640809D01*
X98095034Y-66164619D02*
X98095034Y-65164619D01*
D12*
X90928571Y-97514700D02*
X92071429Y-97514700D01*
X91500000Y-98086128D02*
X91500000Y-96943271D01*
X98419048Y-97573866D02*
X99180953Y-97573866D01*
D13*
%TO.C,R11*%
X131712258Y-107522500D02*
X131237742Y-107522500D01*
X131712258Y-106477500D02*
X131237742Y-106477500D01*
%TO.C,C15*%
X107765000Y-100438748D02*
X107765000Y-100961252D01*
X109235000Y-100438748D02*
X109235000Y-100961252D01*
%TO.C,C25*%
X123265000Y-103438748D02*
X123265000Y-103961252D01*
X124735000Y-103438748D02*
X124735000Y-103961252D01*
%TO.C,U4*%
X114500000Y-101440000D02*
X113700000Y-101440000D01*
X114500000Y-101440000D02*
X115300000Y-101440000D01*
X114500000Y-104560000D02*
X113700000Y-104560000D01*
X114500000Y-104560000D02*
X115300000Y-104560000D01*
X113200000Y-101490000D02*
X112960000Y-101160000D01*
X113440000Y-101160000D01*
X113200000Y-101490000D01*
G36*
X113200000Y-101490000D02*
G01*
X112960000Y-101160000D01*
X113440000Y-101160000D01*
X113200000Y-101490000D01*
G37*
%TO.C,R9*%
X118163641Y-103620000D02*
X117856359Y-103620000D01*
X118163641Y-104380000D02*
X117856359Y-104380000D01*
%TO.C,C14*%
X110015000Y-100438748D02*
X110015000Y-100961252D01*
X111485000Y-100438748D02*
X111485000Y-100961252D01*
%TO.C,C23*%
X123740000Y-107115580D02*
X123740000Y-106834420D01*
X124760000Y-107115580D02*
X124760000Y-106834420D01*
%TO.C,U1*%
X116190000Y-81165000D02*
X116190000Y-80930000D01*
X116190000Y-87910000D02*
X116190000Y-87435000D01*
X116665000Y-80690000D02*
X116490000Y-80690000D01*
X116665000Y-87910000D02*
X116190000Y-87910000D01*
X122935000Y-80690000D02*
X123410000Y-80690000D01*
X122935000Y-87910000D02*
X123410000Y-87910000D01*
X123410000Y-80690000D02*
X123410000Y-81165000D01*
X123410000Y-87910000D02*
X123410000Y-87435000D01*
X116190000Y-80690000D02*
X115950000Y-80360000D01*
X116430000Y-80360000D01*
X116190000Y-80690000D01*
G36*
X116190000Y-80690000D02*
G01*
X115950000Y-80360000D01*
X116430000Y-80360000D01*
X116190000Y-80690000D01*
G37*
D10*
%TO.C,L1*%
X110500000Y-93750000D02*
X110500000Y-93920000D01*
X110500000Y-98590000D02*
X110500000Y-98750000D01*
X115500000Y-93750000D02*
X110500000Y-93750000D01*
X115500000Y-93920000D02*
X115500000Y-93750000D01*
X115500000Y-98750000D02*
X110500000Y-98750000D01*
X115500000Y-98750000D02*
X115500000Y-98590000D01*
D13*
%TO.C,C7*%
X110357836Y-87927500D02*
X110142164Y-87927500D01*
X110357836Y-88647500D02*
X110142164Y-88647500D01*
%TO.C,C2*%
X123127836Y-89390000D02*
X122912164Y-89390000D01*
X123127836Y-90110000D02*
X122912164Y-90110000D01*
%TO.C,C26*%
X121015000Y-103438748D02*
X121015000Y-103961252D01*
X122485000Y-103438748D02*
X122485000Y-103961252D01*
%TO.C,C21*%
X103896250Y-87689420D02*
X103896250Y-87970580D01*
X104916250Y-87689420D02*
X104916250Y-87970580D01*
%TO.C,C4*%
X124390000Y-81367164D02*
X124390000Y-81582836D01*
X125110000Y-81367164D02*
X125110000Y-81582836D01*
%TO.C,C12*%
X110490000Y-104165580D02*
X110490000Y-103884420D01*
X111510000Y-104165580D02*
X111510000Y-103884420D01*
%TO.C,J1*%
X126080000Y-95130000D02*
X126080000Y-93750000D01*
X127460000Y-95130000D02*
X126080000Y-95130000D01*
X128730000Y-92370000D02*
X136460000Y-92370000D01*
X128730000Y-95130000D02*
X128730000Y-92370000D01*
X128730000Y-95130000D02*
X136460000Y-95130000D01*
X136460000Y-95130000D02*
X136460000Y-92370000D01*
%TO.C,C5*%
X110337836Y-85427500D02*
X110122164Y-85427500D01*
X110337836Y-86147500D02*
X110122164Y-86147500D01*
%TO.C,Y1*%
X112960000Y-81390000D02*
X108840000Y-81390000D01*
X112960000Y-84810000D02*
X112960000Y-81390000D01*
%TO.C,C22*%
X114140000Y-80567836D02*
X114140000Y-80352164D01*
X114860000Y-80567836D02*
X114860000Y-80352164D01*
%TO.C,D2*%
X116162500Y-114235000D02*
X118447500Y-114235000D01*
X118447500Y-112765000D02*
X116162500Y-112765000D01*
X118447500Y-114235000D02*
X118447500Y-112765000D01*
%TO.C,SW2*%
X136300000Y-113705000D02*
X136300000Y-114495000D01*
X136900000Y-115505000D02*
X142600000Y-115505000D01*
X138150000Y-112655000D02*
X139850000Y-112655000D01*
X141150000Y-112655000D02*
X141350000Y-112655000D01*
X143200000Y-114495000D02*
X143200000Y-113705000D01*
%TO.C,C8*%
X114140000Y-84622164D02*
X114140000Y-84837836D01*
X114860000Y-84622164D02*
X114860000Y-84837836D01*
%TO.C,C20*%
X101528414Y-92890000D02*
X101744086Y-92890000D01*
X101528414Y-93610000D02*
X101744086Y-93610000D01*
%TO.C,D1*%
X130190000Y-109150000D02*
X130190000Y-110850000D01*
X130190000Y-109150000D02*
X132850000Y-109150000D01*
X130190000Y-110850000D02*
X132850000Y-110850000D01*
%TO.C,C24*%
X129140000Y-103087836D02*
X129140000Y-102872164D01*
X129860000Y-103087836D02*
X129860000Y-102872164D01*
%TO.C,R8*%
X115620000Y-106163641D02*
X115620000Y-105856359D01*
X116380000Y-106163641D02*
X116380000Y-105856359D01*
%TO.C,R5*%
X115120000Y-90143641D02*
X115120000Y-89836359D01*
X115880000Y-90143641D02*
X115880000Y-89836359D01*
%TO.C,R2*%
X143832500Y-78403641D02*
X143832500Y-78096359D01*
X144592500Y-78403641D02*
X144592500Y-78096359D01*
%TO.C,C11*%
X120662164Y-89390000D02*
X120877836Y-89390000D01*
X120662164Y-90110000D02*
X120877836Y-90110000D01*
D10*
%TO.C,Q1*%
X132800000Y-96940000D02*
X132800000Y-97570000D01*
X134200000Y-95750000D02*
X133200000Y-95750000D01*
X134200000Y-95750000D02*
X134200000Y-96620000D01*
X134200000Y-97890000D02*
X134200000Y-98750000D01*
X134200000Y-98750000D02*
X133200000Y-98750000D01*
D13*
%TO.C,C10*%
X107890000Y-83357836D02*
X107890000Y-83142164D01*
X108610000Y-83357836D02*
X108610000Y-83142164D01*
%TO.C,C3*%
X117162164Y-78890000D02*
X117377836Y-78890000D01*
X117162164Y-79610000D02*
X117377836Y-79610000D01*
%TO.C,R6*%
X116370000Y-89836359D02*
X116370000Y-90143641D01*
X117130000Y-89836359D02*
X117130000Y-90143641D01*
%TO.C,R13*%
X130663641Y-111620000D02*
X130356359Y-111620000D01*
X130663641Y-112380000D02*
X130356359Y-112380000D01*
%TO.C,R7*%
X117261359Y-111620000D02*
X117568641Y-111620000D01*
X117261359Y-112380000D02*
X117568641Y-112380000D01*
%TO.C,R1*%
X105106359Y-70620000D02*
X105413641Y-70620000D01*
X105106359Y-71380000D02*
X105413641Y-71380000D01*
%TO.C,C18*%
X103896250Y-94834420D02*
X103896250Y-95115580D01*
X104916250Y-94834420D02*
X104916250Y-95115580D01*
%TO.C,U2*%
X96406250Y-84990000D02*
X94206250Y-84990000D01*
X96406250Y-84990000D02*
X98606250Y-84990000D01*
X96406250Y-90510000D02*
X94206250Y-90510000D01*
X96406250Y-90510000D02*
X98606250Y-90510000D01*
X92496250Y-85475000D02*
X92166250Y-85715000D01*
X92166250Y-85235000D01*
X92496250Y-85475000D01*
G36*
X92496250Y-85475000D02*
G01*
X92166250Y-85715000D01*
X92166250Y-85235000D01*
X92496250Y-85475000D01*
G37*
%TO.C,D3*%
X119515000Y-93515000D02*
X119515000Y-94985000D01*
X119515000Y-94985000D02*
X121800000Y-94985000D01*
X121800000Y-93515000D02*
X119515000Y-93515000D01*
%TO.C,FB1*%
X111740000Y-86624721D02*
X111740000Y-86950279D01*
X112760000Y-86624721D02*
X112760000Y-86950279D01*
%TO.C,C9*%
X114140000Y-82587836D02*
X114140000Y-82372164D01*
X114860000Y-82587836D02*
X114860000Y-82372164D01*
D14*
%TO.C,G\u002A\u002A\u002A*%
G36*
X96152851Y-80362926D02*
G01*
X96149081Y-80366695D01*
X96145312Y-80362926D01*
X96149081Y-80359156D01*
X96152851Y-80362926D01*
G37*
G36*
X93430763Y-82350242D02*
G01*
X93436724Y-82352348D01*
X93427678Y-82355846D01*
X93406650Y-82360189D01*
X93386524Y-82361951D01*
X93378451Y-82358121D01*
X93378378Y-82357420D01*
X93385083Y-82352567D01*
X93401911Y-82349792D01*
X93409792Y-82349539D01*
X93430763Y-82350242D01*
G37*
G36*
X96281020Y-80122047D02*
G01*
X96277798Y-80130909D01*
X96269123Y-80150162D01*
X96256474Y-80176805D01*
X96241333Y-80207840D01*
X96225183Y-80240269D01*
X96209504Y-80271091D01*
X96195778Y-80297308D01*
X96185487Y-80315922D01*
X96184034Y-80318365D01*
X96169563Y-80340806D01*
X96161461Y-80350332D01*
X96159685Y-80347677D01*
X96164191Y-80333572D01*
X96174933Y-80308749D01*
X96186012Y-80285648D01*
X96203251Y-80250235D01*
X96220741Y-80213434D01*
X96235477Y-80181596D01*
X96239314Y-80173055D01*
X96251298Y-80148802D01*
X96262589Y-80130545D01*
X96270517Y-80122401D01*
X96279804Y-80120802D01*
X96281020Y-80122047D01*
G37*
G36*
X95679657Y-78221167D02*
G01*
X95731683Y-78236471D01*
X95775272Y-78263533D01*
X95809186Y-78300862D01*
X95832187Y-78346965D01*
X95843036Y-78400353D01*
X95843738Y-78418782D01*
X95837378Y-78473100D01*
X95819081Y-78519441D01*
X95790027Y-78556603D01*
X95751393Y-78583387D01*
X95704359Y-78598590D01*
X95664280Y-78601671D01*
X95620393Y-78597614D01*
X95587315Y-78587405D01*
X95586415Y-78586956D01*
X95556306Y-78565794D01*
X95528059Y-78535893D01*
X95506314Y-78502717D01*
X95498140Y-78482930D01*
X95491298Y-78447626D01*
X95489146Y-78407132D01*
X95491487Y-78366911D01*
X95498119Y-78332430D01*
X95504209Y-78316508D01*
X95530991Y-78278548D01*
X95566905Y-78248521D01*
X95608516Y-78228294D01*
X95652393Y-78219732D01*
X95679657Y-78221167D01*
G37*
G36*
X94338935Y-78860015D02*
G01*
X94353108Y-78864663D01*
X94354721Y-78866369D01*
X94365409Y-78872816D01*
X94373250Y-78873908D01*
X94386528Y-78879343D01*
X94405272Y-78893306D01*
X94425940Y-78912284D01*
X94444986Y-78932763D01*
X94458866Y-78951230D01*
X94464041Y-78963898D01*
X94467495Y-78978346D01*
X94471581Y-78983228D01*
X94476792Y-78994082D01*
X94479279Y-79015859D01*
X94479231Y-79044689D01*
X94476839Y-79076700D01*
X94472290Y-79108022D01*
X94465774Y-79134784D01*
X94463907Y-79140182D01*
X94440165Y-79183372D01*
X94405972Y-79218019D01*
X94364070Y-79242882D01*
X94317202Y-79256717D01*
X94268110Y-79258284D01*
X94224945Y-79248416D01*
X94190618Y-79229821D01*
X94157526Y-79201447D01*
X94130949Y-79168041D01*
X94125871Y-79159330D01*
X94116354Y-79137780D01*
X94110003Y-79112656D01*
X94105906Y-79079538D01*
X94104154Y-79054053D01*
X94102762Y-79014934D01*
X94103841Y-78989722D01*
X94107450Y-78977437D01*
X94108656Y-78976330D01*
X94116503Y-78964791D01*
X94117232Y-78959837D01*
X94123055Y-78945339D01*
X94138259Y-78926152D01*
X94159452Y-78905594D01*
X94183239Y-78886984D01*
X94204636Y-78874370D01*
X94226423Y-78867208D01*
X94254806Y-78861974D01*
X94285725Y-78858887D01*
X94315121Y-78858162D01*
X94338935Y-78860015D01*
G37*
G36*
X95602271Y-79145101D02*
G01*
X95629609Y-79159930D01*
X95639562Y-79168489D01*
X95659450Y-79190932D01*
X95671279Y-79214672D01*
X95676807Y-79244570D01*
X95677873Y-79274582D01*
X95670969Y-79329470D01*
X95650826Y-79388140D01*
X95618301Y-79449016D01*
X95574247Y-79510518D01*
X95519522Y-79571069D01*
X95514360Y-79576167D01*
X95437210Y-79643391D01*
X95357750Y-79695977D01*
X95275106Y-79734296D01*
X95188401Y-79758720D01*
X95096759Y-79769621D01*
X95057100Y-79770262D01*
X95021620Y-79769150D01*
X94987642Y-79766913D01*
X94961006Y-79763970D01*
X94954914Y-79762934D01*
X94905286Y-79747670D01*
X94853946Y-79722315D01*
X94806593Y-79689912D01*
X94788278Y-79674006D01*
X94746857Y-79634928D01*
X94744293Y-79576725D01*
X94743518Y-79545493D01*
X94745121Y-79524392D01*
X94749981Y-79508550D01*
X94758978Y-79493093D01*
X94759549Y-79492248D01*
X94787263Y-79462938D01*
X94822813Y-79442005D01*
X94861045Y-79432291D01*
X94868925Y-79431943D01*
X94904082Y-79435825D01*
X94937100Y-79449072D01*
X94969176Y-79470616D01*
X95005731Y-79492209D01*
X95045733Y-79502444D01*
X95090700Y-79501266D01*
X95142147Y-79488618D01*
X95201592Y-79464443D01*
X95207303Y-79461740D01*
X95274614Y-79422967D01*
X95329594Y-79376402D01*
X95373571Y-79320643D01*
X95407873Y-79254285D01*
X95411077Y-79246369D01*
X95432860Y-79200653D01*
X95457328Y-79168565D01*
X95485962Y-79148701D01*
X95520240Y-79139660D01*
X95523983Y-79139301D01*
X95568209Y-79138514D01*
X95602271Y-79145101D01*
G37*
G36*
X92562330Y-75021675D02*
G01*
X92633486Y-75023011D01*
X92698103Y-75025066D01*
X92753480Y-75027851D01*
X92771462Y-75029096D01*
X92843747Y-75034627D01*
X92905112Y-75039497D01*
X92957979Y-75044051D01*
X93004770Y-75048629D01*
X93047907Y-75053576D01*
X93089814Y-75059234D01*
X93132912Y-75065944D01*
X93179624Y-75074051D01*
X93232371Y-75083896D01*
X93293577Y-75095822D01*
X93365663Y-75110173D01*
X93416074Y-75120275D01*
X93477957Y-75134265D01*
X93550745Y-75153359D01*
X93631534Y-75176606D01*
X93717420Y-75203056D01*
X93805497Y-75231761D01*
X93892862Y-75261771D01*
X93976609Y-75292136D01*
X94053833Y-75321907D01*
X94121631Y-75350134D01*
X94128541Y-75353172D01*
X94274389Y-75420009D01*
X94410700Y-75487541D01*
X94542871Y-75558538D01*
X94660064Y-75626096D01*
X94690378Y-75644786D01*
X94728896Y-75669578D01*
X94773069Y-75698728D01*
X94820346Y-75730495D01*
X94868178Y-75763135D01*
X94914016Y-75794907D01*
X94955309Y-75824068D01*
X94989509Y-75848876D01*
X95014064Y-75867589D01*
X95017413Y-75870298D01*
X95033588Y-75883367D01*
X95057673Y-75902580D01*
X95085710Y-75924786D01*
X95101115Y-75936924D01*
X95191688Y-76011406D01*
X95287226Y-76095971D01*
X95384829Y-76187836D01*
X95481600Y-76284218D01*
X95574639Y-76382333D01*
X95635518Y-76450014D01*
X95672624Y-76492339D01*
X95702809Y-76527100D01*
X95728278Y-76557028D01*
X95751236Y-76584853D01*
X95773886Y-76613306D01*
X95798434Y-76645116D01*
X95827084Y-76683015D01*
X95862040Y-76729731D01*
X95870351Y-76740868D01*
X95893661Y-76772952D01*
X95920576Y-76811391D01*
X95949913Y-76854355D01*
X95980490Y-76900014D01*
X96011125Y-76946538D01*
X96040635Y-76992099D01*
X96067838Y-77034866D01*
X96091551Y-77073010D01*
X96110593Y-77104701D01*
X96123781Y-77128109D01*
X96129932Y-77141405D01*
X96130233Y-77143012D01*
X96133935Y-77151599D01*
X96143364Y-77168227D01*
X96150044Y-77179084D01*
X96161370Y-77198641D01*
X96177782Y-77229110D01*
X96197921Y-77267769D01*
X96220427Y-77311899D01*
X96243940Y-77358779D01*
X96267100Y-77405688D01*
X96288549Y-77449907D01*
X96306926Y-77488714D01*
X96320871Y-77519390D01*
X96325314Y-77529758D01*
X96346192Y-77580537D01*
X96368158Y-77635098D01*
X96392694Y-77697148D01*
X96415032Y-77754318D01*
X96432772Y-77802314D01*
X96452295Y-77859277D01*
X96472851Y-77922635D01*
X96493689Y-77989812D01*
X96514059Y-78058234D01*
X96533210Y-78125327D01*
X96550392Y-78188517D01*
X96564854Y-78245229D01*
X96575845Y-78292889D01*
X96582615Y-78328922D01*
X96582669Y-78329282D01*
X96586839Y-78354265D01*
X96593249Y-78389124D01*
X96600981Y-78428990D01*
X96608104Y-78464136D01*
X96627027Y-78566636D01*
X96642262Y-78674555D01*
X96653956Y-78789711D01*
X96662255Y-78913924D01*
X96667308Y-79049011D01*
X96669260Y-79196792D01*
X96669295Y-79220717D01*
X96668125Y-79358150D01*
X96664484Y-79483134D01*
X96658173Y-79598130D01*
X96648993Y-79705595D01*
X96636746Y-79807989D01*
X96621233Y-79907770D01*
X96608120Y-79978420D01*
X96600128Y-80019420D01*
X96592575Y-80059168D01*
X96586297Y-80093196D01*
X96582131Y-80117039D01*
X96582050Y-80117534D01*
X96574681Y-80155010D01*
X96563159Y-80203939D01*
X96548291Y-80261533D01*
X96530881Y-80325007D01*
X96511735Y-80391572D01*
X96491657Y-80458441D01*
X96471454Y-80522827D01*
X96451929Y-80581943D01*
X96433889Y-80633001D01*
X96430575Y-80641881D01*
X96417103Y-80677974D01*
X96403008Y-80716341D01*
X96391179Y-80749109D01*
X96390436Y-80751201D01*
X96377875Y-80784815D01*
X96361188Y-80826272D01*
X96339631Y-80877366D01*
X96312460Y-80939888D01*
X96305916Y-80954763D01*
X96295502Y-80977288D01*
X96280197Y-81008971D01*
X96261376Y-81047105D01*
X96240415Y-81088981D01*
X96218686Y-81131888D01*
X96197567Y-81173119D01*
X96178430Y-81209965D01*
X96162650Y-81239717D01*
X96151603Y-81259665D01*
X96148929Y-81264117D01*
X96137804Y-81282667D01*
X96131110Y-81295617D01*
X96130233Y-81298422D01*
X96126538Y-81306345D01*
X96116490Y-81324385D01*
X96101645Y-81349822D01*
X96084460Y-81378454D01*
X96066762Y-81408056D01*
X96052674Y-81432528D01*
X96043649Y-81449279D01*
X96041109Y-81455702D01*
X96048893Y-81458684D01*
X96067672Y-81465049D01*
X96094055Y-81473661D01*
X96107615Y-81478002D01*
X96138328Y-81488008D01*
X96164914Y-81497088D01*
X96183045Y-81503748D01*
X96186778Y-81505315D01*
X96201578Y-81511151D01*
X96225401Y-81519589D01*
X96250862Y-81528071D01*
X96278247Y-81537160D01*
X96301588Y-81545325D01*
X96314947Y-81550441D01*
X96329172Y-81555928D01*
X96352980Y-81564456D01*
X96381638Y-81574335D01*
X96386570Y-81575999D01*
X96415973Y-81586051D01*
X96454613Y-81599485D01*
X96497542Y-81614570D01*
X96539809Y-81629576D01*
X96541126Y-81630047D01*
X96579956Y-81643857D01*
X96616370Y-81656693D01*
X96646653Y-81667251D01*
X96667089Y-81674230D01*
X96669295Y-81674960D01*
X96687706Y-81681212D01*
X96716589Y-81691269D01*
X96752227Y-81703826D01*
X96790906Y-81717581D01*
X96797464Y-81719926D01*
X96839619Y-81734907D01*
X96882598Y-81750002D01*
X96921453Y-81763485D01*
X96951239Y-81773628D01*
X96952020Y-81773889D01*
X96982692Y-81784494D01*
X97010867Y-81794852D01*
X97030913Y-81802886D01*
X97032322Y-81803512D01*
X97049802Y-81810769D01*
X97060871Y-81814204D01*
X97061442Y-81814247D01*
X97070204Y-81816613D01*
X97090075Y-81822999D01*
X97117970Y-81832337D01*
X97150804Y-81843557D01*
X97185492Y-81855591D01*
X97218948Y-81867369D01*
X97248088Y-81877823D01*
X97269826Y-81885884D01*
X97279981Y-81889965D01*
X97294779Y-81895726D01*
X97318599Y-81904111D01*
X97344065Y-81912577D01*
X97371454Y-81921703D01*
X97394798Y-81929963D01*
X97408149Y-81935198D01*
X97424767Y-81941826D01*
X97449999Y-81950899D01*
X97480692Y-81961395D01*
X97513688Y-81972292D01*
X97545834Y-81982570D01*
X97573974Y-81991207D01*
X97594953Y-81997180D01*
X97605615Y-81999469D01*
X97606293Y-81999352D01*
X97606870Y-81990939D01*
X97605571Y-81971552D01*
X97602675Y-81945140D01*
X97602155Y-81941079D01*
X97599656Y-81909112D01*
X97876270Y-81909112D01*
X97879322Y-81955192D01*
X97886389Y-81994024D01*
X97898430Y-82029451D01*
X97916406Y-82065317D01*
X97938613Y-82101394D01*
X97966060Y-82143514D01*
X98001116Y-82134318D01*
X98028868Y-82124997D01*
X98059892Y-82111670D01*
X98074212Y-82104419D01*
X98118438Y-82075314D01*
X98165459Y-82035406D01*
X98211963Y-81987682D01*
X98238029Y-81956799D01*
X98256425Y-81933256D01*
X98270533Y-81914274D01*
X98278179Y-81902816D01*
X98278942Y-81900989D01*
X98282694Y-81892718D01*
X98292453Y-81875757D01*
X98303929Y-81857236D01*
X98333575Y-81803893D01*
X98362371Y-81739543D01*
X98388950Y-81668249D01*
X98411944Y-81594074D01*
X98429986Y-81521079D01*
X98441708Y-81453328D01*
X98442730Y-81444819D01*
X98445071Y-81413496D01*
X98446367Y-81373684D01*
X98446622Y-81330561D01*
X98445840Y-81289304D01*
X98444023Y-81255091D01*
X98442598Y-81241258D01*
X98433535Y-81202415D01*
X98417867Y-81162581D01*
X98398160Y-81127311D01*
X98379307Y-81104262D01*
X98352460Y-81088818D01*
X98318527Y-81084352D01*
X98280869Y-81090964D01*
X98257305Y-81100579D01*
X98237067Y-81110951D01*
X98221327Y-81120050D01*
X98206845Y-81130360D01*
X98190382Y-81144367D01*
X98168699Y-81164555D01*
X98147619Y-81184713D01*
X98113936Y-81218448D01*
X98086345Y-81249976D01*
X98061423Y-81283767D01*
X98035750Y-81324293D01*
X98019335Y-81352351D01*
X97977912Y-81433110D01*
X97941150Y-81521380D01*
X97912074Y-81609683D01*
X97905827Y-81632980D01*
X97893573Y-81684138D01*
X97885296Y-81727173D01*
X97880161Y-81768254D01*
X97877336Y-81813550D01*
X97876271Y-81851943D01*
X97876270Y-81909112D01*
X97599656Y-81909112D01*
X97597253Y-81878375D01*
X97597166Y-81808100D01*
X97601609Y-81736706D01*
X97610294Y-81670644D01*
X97615308Y-81645272D01*
X97621089Y-81617827D01*
X97626204Y-81591105D01*
X97626736Y-81588067D01*
X97636186Y-81546740D01*
X97651362Y-81496042D01*
X97670780Y-81439846D01*
X97692956Y-81382023D01*
X97716406Y-81326445D01*
X97739645Y-81276984D01*
X97761039Y-81237756D01*
X97769273Y-81224179D01*
X97782581Y-81202209D01*
X97798233Y-81176354D01*
X97799856Y-81173672D01*
X97814634Y-81149627D01*
X97826523Y-81130973D01*
X97833302Y-81121179D01*
X97833804Y-81120628D01*
X97840162Y-81112633D01*
X97851637Y-81096592D01*
X97858449Y-81086701D01*
X97871982Y-81069412D01*
X97893398Y-81044905D01*
X97919673Y-81016374D01*
X97947782Y-80987014D01*
X97974703Y-80960019D01*
X97997410Y-80938581D01*
X98004794Y-80932145D01*
X98027470Y-80914166D01*
X98050339Y-80897723D01*
X98069671Y-80885334D01*
X98081739Y-80879523D01*
X98082854Y-80879370D01*
X98090227Y-80873673D01*
X98090459Y-80871830D01*
X98096773Y-80865705D01*
X98105537Y-80864291D01*
X98117788Y-80861134D01*
X98120616Y-80856752D01*
X98126573Y-80849715D01*
X98130040Y-80849166D01*
X98143274Y-80845845D01*
X98158864Y-80838996D01*
X98195420Y-80824658D01*
X98241241Y-80813669D01*
X98290696Y-80807027D01*
X98338158Y-80805730D01*
X98344698Y-80806054D01*
X98382879Y-80809067D01*
X98413288Y-80813727D01*
X98440631Y-80821499D01*
X98469615Y-80833848D01*
X98504949Y-80852238D01*
X98520200Y-80860659D01*
X98543054Y-80877103D01*
X98570268Y-80902102D01*
X98598010Y-80931552D01*
X98622449Y-80961348D01*
X98639752Y-80987386D01*
X98641347Y-80990419D01*
X98652240Y-81011277D01*
X98660641Y-81026007D01*
X98663564Y-81030156D01*
X98667555Y-81039159D01*
X98674163Y-81059616D01*
X98682514Y-81088315D01*
X98691733Y-81122040D01*
X98700948Y-81157578D01*
X98709284Y-81191714D01*
X98715866Y-81221235D01*
X98716868Y-81226167D01*
X98721654Y-81260607D01*
X98724889Y-81305087D01*
X98726469Y-81354637D01*
X98726287Y-81404286D01*
X98724236Y-81449065D01*
X98722105Y-81471207D01*
X98699785Y-81603745D01*
X98666207Y-81728585D01*
X98620453Y-81849005D01*
X98609495Y-81873425D01*
X98596815Y-81901203D01*
X98586951Y-81923256D01*
X98581312Y-81936417D01*
X98580515Y-81938685D01*
X98576707Y-81947411D01*
X98566679Y-81965347D01*
X98552523Y-81989126D01*
X98536332Y-82015377D01*
X98520198Y-82040732D01*
X98506213Y-82061822D01*
X98496471Y-82075277D01*
X98494018Y-82077953D01*
X98484391Y-82089529D01*
X98482504Y-82095425D01*
X98477542Y-82105491D01*
X98464074Y-82123781D01*
X98444226Y-82147828D01*
X98420123Y-82175162D01*
X98393891Y-82203317D01*
X98367656Y-82229823D01*
X98362279Y-82235013D01*
X98290911Y-82295785D01*
X98218286Y-82342435D01*
X98142764Y-82375912D01*
X98094736Y-82390231D01*
X98041521Y-82398287D01*
X97995649Y-82394568D01*
X97958082Y-82379266D01*
X97934017Y-82358050D01*
X97926538Y-82352320D01*
X97924593Y-82355097D01*
X97917883Y-82361264D01*
X97900608Y-82368195D01*
X97884623Y-82372481D01*
X97868609Y-82375450D01*
X97852627Y-82376590D01*
X97834765Y-82375444D01*
X97813115Y-82371553D01*
X97785766Y-82364459D01*
X97750807Y-82353704D01*
X97706330Y-82338829D01*
X97650423Y-82319376D01*
X97623020Y-82309711D01*
X97574232Y-82292499D01*
X97521494Y-82273956D01*
X97470331Y-82256020D01*
X97426265Y-82240629D01*
X97415689Y-82236948D01*
X97373569Y-82222255D01*
X97329417Y-82206767D01*
X97289024Y-82192519D01*
X97263017Y-82183278D01*
X97223646Y-82169238D01*
X97179439Y-82153513D01*
X97139755Y-82139431D01*
X97138618Y-82139029D01*
X97108490Y-82128331D01*
X97082403Y-82119017D01*
X97064700Y-82112639D01*
X97061340Y-82111407D01*
X97047535Y-82106546D01*
X97042492Y-82105040D01*
X97034008Y-82102299D01*
X97015328Y-82095840D01*
X96990447Y-82087045D01*
X96989716Y-82086784D01*
X96957562Y-82075317D01*
X96919176Y-82061632D01*
X96882531Y-82048571D01*
X96880396Y-82047811D01*
X96855268Y-82038924D01*
X96818950Y-82026169D01*
X96774501Y-82010617D01*
X96724980Y-81993336D01*
X96673446Y-81975397D01*
X96654216Y-81968715D01*
X96606504Y-81952128D01*
X96563179Y-81937034D01*
X96526403Y-81924188D01*
X96498335Y-81914346D01*
X96481135Y-81908264D01*
X96477042Y-81906776D01*
X96462322Y-81901744D01*
X96458194Y-81900591D01*
X96447980Y-81897292D01*
X96428154Y-81890389D01*
X96403245Y-81881505D01*
X96377785Y-81872263D01*
X96356305Y-81864285D01*
X96348874Y-81861435D01*
X96336751Y-81857079D01*
X96333795Y-81856242D01*
X96325311Y-81853501D01*
X96306631Y-81847042D01*
X96281750Y-81838247D01*
X96281020Y-81837986D01*
X96248848Y-81826532D01*
X96210443Y-81812891D01*
X96173787Y-81799898D01*
X96171699Y-81799160D01*
X96109252Y-81776924D01*
X96059322Y-81758755D01*
X96020141Y-81743895D01*
X95989939Y-81731582D01*
X95966950Y-81721059D01*
X95949404Y-81711565D01*
X95935534Y-81702342D01*
X95923570Y-81692631D01*
X95923555Y-81692617D01*
X95891611Y-81664500D01*
X95877638Y-81688483D01*
X95867347Y-81704187D01*
X95850214Y-81728355D01*
X95828756Y-81757624D01*
X95805488Y-81788634D01*
X95782926Y-81818023D01*
X95763585Y-81842431D01*
X95752473Y-81855713D01*
X95740951Y-81869077D01*
X95723534Y-81889524D01*
X95704306Y-81912258D01*
X95671051Y-81951616D01*
X95644615Y-81982574D01*
X95622178Y-82008327D01*
X95600918Y-82032069D01*
X95578014Y-82056995D01*
X95550645Y-82086298D01*
X95549705Y-82087301D01*
X95516666Y-82121857D01*
X95477672Y-82161600D01*
X95435549Y-82203743D01*
X95393122Y-82245501D01*
X95353217Y-82284087D01*
X95318660Y-82316715D01*
X95297137Y-82336324D01*
X95275871Y-82355045D01*
X95248937Y-82378540D01*
X95222111Y-82401770D01*
X95221744Y-82402086D01*
X95196486Y-82424134D01*
X95172544Y-82445502D01*
X95154821Y-82461810D01*
X95153890Y-82462697D01*
X95132092Y-82482023D01*
X95109171Y-82500250D01*
X95107123Y-82501746D01*
X95091546Y-82513214D01*
X95067374Y-82531272D01*
X95038008Y-82553371D01*
X95009112Y-82575242D01*
X94956215Y-82615154D01*
X94911166Y-82648462D01*
X94870286Y-82677708D01*
X94829900Y-82705438D01*
X94786328Y-82734194D01*
X94735894Y-82766521D01*
X94697760Y-82790609D01*
X94669048Y-82808628D01*
X94647200Y-82822119D01*
X94627375Y-82833969D01*
X94604734Y-82847062D01*
X94574435Y-82864286D01*
X94569592Y-82867029D01*
X94540575Y-82883514D01*
X94512351Y-82899628D01*
X94491839Y-82911418D01*
X94463091Y-82928050D01*
X94493329Y-82940149D01*
X94516751Y-82948627D01*
X94537252Y-82954609D01*
X94541126Y-82955431D01*
X94559327Y-82960429D01*
X94582651Y-82968873D01*
X94588642Y-82971341D01*
X94609968Y-82979876D01*
X94626680Y-82985668D01*
X94629906Y-82986522D01*
X94642656Y-82990285D01*
X94664445Y-82997603D01*
X94686451Y-83005414D01*
X94718273Y-83016919D01*
X94755405Y-83030262D01*
X94784463Y-83040648D01*
X94812554Y-83050822D01*
X94836648Y-83059847D01*
X94851783Y-83065862D01*
X94852317Y-83066095D01*
X94865528Y-83071167D01*
X94889335Y-83079628D01*
X94920005Y-83090170D01*
X94944600Y-83098434D01*
X94977302Y-83109767D01*
X95005195Y-83120270D01*
X95024805Y-83128586D01*
X95031996Y-83132580D01*
X95042469Y-83137964D01*
X95045990Y-83137234D01*
X95054612Y-83137523D01*
X95071712Y-83142783D01*
X95079224Y-83145755D01*
X95097435Y-83152820D01*
X95126216Y-83163337D01*
X95161839Y-83175971D01*
X95200577Y-83189384D01*
X95206665Y-83191462D01*
X95243875Y-83204247D01*
X95276933Y-83215813D01*
X95302701Y-83225046D01*
X95318038Y-83230833D01*
X95319755Y-83231557D01*
X95331372Y-83236204D01*
X95352796Y-83244112D01*
X95384890Y-83255588D01*
X95428517Y-83270937D01*
X95484538Y-83290464D01*
X95553816Y-83314474D01*
X95568156Y-83319432D01*
X95600176Y-83330898D01*
X95627246Y-83341331D01*
X95645914Y-83349357D01*
X95652180Y-83352846D01*
X95663928Y-83358758D01*
X95667655Y-83358877D01*
X95672205Y-83358517D01*
X95679504Y-83360048D01*
X95692796Y-83364486D01*
X95715325Y-83372852D01*
X95730649Y-83378666D01*
X95765924Y-83391652D01*
X95801241Y-83403906D01*
X95833670Y-83414501D01*
X95860281Y-83422507D01*
X95878144Y-83426994D01*
X95884247Y-83427364D01*
X95886897Y-83418481D01*
X95889965Y-83399357D01*
X95891930Y-83382388D01*
X95898470Y-83331459D01*
X95908041Y-83275873D01*
X95919669Y-83220162D01*
X95932380Y-83168858D01*
X95945199Y-83126491D01*
X95949466Y-83114781D01*
X95955978Y-83097348D01*
X95963968Y-83075215D01*
X95964641Y-83073315D01*
X95996684Y-82994216D01*
X96038345Y-82909461D01*
X96087517Y-82822874D01*
X96142089Y-82738276D01*
X96174679Y-82692578D01*
X96191015Y-82672552D01*
X96215363Y-82645198D01*
X96245125Y-82613194D01*
X96277699Y-82579216D01*
X96310487Y-82545941D01*
X96340889Y-82516048D01*
X96366304Y-82492212D01*
X96383345Y-82477708D01*
X96408338Y-82459702D01*
X96435517Y-82441801D01*
X96461369Y-82426121D01*
X96482384Y-82414783D01*
X96495051Y-82409905D01*
X96495774Y-82409854D01*
X96505882Y-82405819D01*
X96507199Y-82402314D01*
X96512942Y-82395000D01*
X96514776Y-82394775D01*
X96525278Y-82391702D01*
X96544473Y-82383770D01*
X96561423Y-82375927D01*
X96584470Y-82365595D01*
X96602867Y-82358749D01*
X96610391Y-82357078D01*
X96619491Y-82353123D01*
X96620289Y-82350569D01*
X96627241Y-82345157D01*
X96645838Y-82339208D01*
X96672699Y-82333393D01*
X96704438Y-82328383D01*
X96737673Y-82324849D01*
X96755466Y-82323773D01*
X96828352Y-82327320D01*
X96895079Y-82344425D01*
X96956697Y-82375402D01*
X96978407Y-82390440D01*
X97013935Y-82420140D01*
X97042990Y-82452526D01*
X97068820Y-82491771D01*
X97091996Y-82536411D01*
X97117863Y-82595800D01*
X97135152Y-82649844D01*
X97145293Y-82704479D01*
X97149711Y-82765640D01*
X97150006Y-82777652D01*
X97145347Y-82887349D01*
X97127577Y-83000936D01*
X97121487Y-83028079D01*
X97116097Y-83048458D01*
X97108169Y-83075698D01*
X97098896Y-83106026D01*
X97089470Y-83135667D01*
X97081083Y-83160850D01*
X97074925Y-83177801D01*
X97072670Y-83182635D01*
X97066917Y-83194228D01*
X97059551Y-83213702D01*
X97057579Y-83219625D01*
X97045819Y-83250035D01*
X97027741Y-83289387D01*
X97005256Y-83333987D01*
X96980273Y-83380140D01*
X96954700Y-83424150D01*
X96938393Y-83450281D01*
X96897738Y-83510821D01*
X96858900Y-83562976D01*
X96817566Y-83612136D01*
X96769425Y-83663693D01*
X96759767Y-83673579D01*
X96731527Y-83701237D01*
X96700231Y-83730102D01*
X96668128Y-83758304D01*
X96637466Y-83783970D01*
X96610495Y-83805227D01*
X96589463Y-83820203D01*
X96576620Y-83827026D01*
X96575188Y-83827247D01*
X96566215Y-83830879D01*
X96548300Y-83840402D01*
X96525316Y-83853758D01*
X96525227Y-83853812D01*
X96497253Y-83869043D01*
X96469249Y-83881716D01*
X96450805Y-83888053D01*
X96427499Y-83894669D01*
X96408294Y-83901295D01*
X96405418Y-83902507D01*
X96367647Y-83914366D01*
X96320386Y-83921575D01*
X96268566Y-83923885D01*
X96217118Y-83921051D01*
X96175705Y-83914017D01*
X96152655Y-83907200D01*
X96136512Y-83900080D01*
X96131726Y-83895810D01*
X96122898Y-83888862D01*
X96114910Y-83887562D01*
X96102666Y-83881885D01*
X96087095Y-83868063D01*
X96072583Y-83850907D01*
X96063515Y-83835229D01*
X96062379Y-83829924D01*
X96059403Y-83818265D01*
X96053417Y-83803724D01*
X96043292Y-83790508D01*
X96025360Y-83781679D01*
X96006296Y-83776885D01*
X95985306Y-83771369D01*
X95954004Y-83761643D01*
X95916140Y-83748937D01*
X95875467Y-83734481D01*
X95862587Y-83729731D01*
X95822212Y-83714797D01*
X95783938Y-83700824D01*
X95751371Y-83689114D01*
X95728121Y-83680974D01*
X95723109Y-83679294D01*
X95699227Y-83671154D01*
X95679275Y-83663842D01*
X95674104Y-83661763D01*
X95655799Y-83654573D01*
X95636407Y-83647566D01*
X95585881Y-83630017D01*
X95536404Y-83612601D01*
X95490184Y-83596116D01*
X95449425Y-83581362D01*
X95416336Y-83569136D01*
X95393122Y-83560238D01*
X95382057Y-83555503D01*
X95365179Y-83549310D01*
X95357452Y-83548292D01*
X95341146Y-83544773D01*
X95332847Y-83541109D01*
X95319155Y-83535157D01*
X95296197Y-83526639D01*
X95270749Y-83517996D01*
X95243377Y-83508906D01*
X95220042Y-83500817D01*
X95206665Y-83495820D01*
X95190842Y-83489602D01*
X95168864Y-83481353D01*
X95145490Y-83472807D01*
X95129329Y-83467066D01*
X96175553Y-83467066D01*
X96180020Y-83522225D01*
X96182299Y-83533820D01*
X96187603Y-83562164D01*
X96191289Y-83590204D01*
X96191754Y-83595835D01*
X96194889Y-83615458D01*
X96202891Y-83625039D01*
X96212838Y-83628362D01*
X96230281Y-83632593D01*
X96239553Y-83635372D01*
X96251614Y-83636404D01*
X96273864Y-83635699D01*
X96301561Y-83633614D01*
X96329963Y-83630507D01*
X96354325Y-83626737D01*
X96354528Y-83626698D01*
X96371150Y-83622167D01*
X96378948Y-83617430D01*
X96379031Y-83617005D01*
X96385071Y-83610774D01*
X96400229Y-83601071D01*
X96407303Y-83597200D01*
X96425688Y-83587146D01*
X96437646Y-83579855D01*
X96439345Y-83578522D01*
X96446667Y-83572143D01*
X96462362Y-83558996D01*
X96483124Y-83541849D01*
X96484460Y-83540753D01*
X96512393Y-83516277D01*
X96542624Y-83487441D01*
X96563623Y-83465788D01*
X96584977Y-83442708D01*
X96604646Y-83421606D01*
X96618379Y-83407042D01*
X96618405Y-83407016D01*
X96630066Y-83393791D01*
X96635342Y-83385770D01*
X96635368Y-83385532D01*
X96639522Y-83378061D01*
X96650454Y-83361925D01*
X96665868Y-83340500D01*
X96667133Y-83338785D01*
X96711150Y-83272296D01*
X96752928Y-83196253D01*
X96790203Y-83115553D01*
X96820711Y-83035094D01*
X96842087Y-82960225D01*
X96851205Y-82918974D01*
X96857157Y-82887127D01*
X96860554Y-82859493D01*
X96862009Y-82830877D01*
X96862134Y-82796087D01*
X96862082Y-82790590D01*
X96861491Y-82751900D01*
X96860303Y-82724580D01*
X96857971Y-82704920D01*
X96853949Y-82689212D01*
X96847690Y-82673747D01*
X96843573Y-82664991D01*
X96826983Y-82636355D01*
X96808413Y-82619770D01*
X96783364Y-82612417D01*
X96757787Y-82611266D01*
X96714604Y-82616784D01*
X96669246Y-82633153D01*
X96620045Y-82661162D01*
X96565334Y-82701598D01*
X96563744Y-82702886D01*
X96474233Y-82784975D01*
X96395126Y-82877524D01*
X96326203Y-82980851D01*
X96267245Y-83095272D01*
X96231603Y-83182635D01*
X96207284Y-83257750D01*
X96189576Y-83332048D01*
X96178869Y-83402747D01*
X96175553Y-83467066D01*
X95129329Y-83467066D01*
X95125478Y-83465698D01*
X95113587Y-83461760D01*
X95112424Y-83461472D01*
X95098692Y-83457853D01*
X95078588Y-83451327D01*
X95059800Y-83444431D01*
X95055879Y-83442804D01*
X95040004Y-83436551D01*
X95011615Y-83426142D01*
X94970257Y-83411416D01*
X94915477Y-83392211D01*
X94852317Y-83370269D01*
X94819420Y-83358745D01*
X94790630Y-83348420D01*
X94769720Y-83340661D01*
X94761845Y-83337510D01*
X94748548Y-83332431D01*
X94724710Y-83324036D01*
X94694136Y-83313647D01*
X94671373Y-83306094D01*
X94639056Y-83295101D01*
X94611580Y-83285055D01*
X94592469Y-83277284D01*
X94585926Y-83273888D01*
X94569341Y-83266298D01*
X94563308Y-83265083D01*
X94552725Y-83262217D01*
X94531114Y-83255226D01*
X94501593Y-83245209D01*
X94467278Y-83233265D01*
X94431286Y-83220494D01*
X94396735Y-83207994D01*
X94366742Y-83196863D01*
X94344424Y-83188202D01*
X94339642Y-83186228D01*
X94324893Y-83180594D01*
X94301155Y-83172127D01*
X94275558Y-83163336D01*
X94235021Y-83148725D01*
X94205671Y-83135291D01*
X94184008Y-83120804D01*
X94166532Y-83103033D01*
X94153745Y-83085738D01*
X94144812Y-83085138D01*
X94124915Y-83090480D01*
X94096603Y-83101015D01*
X94084727Y-83105984D01*
X93990520Y-83143969D01*
X93884665Y-83182292D01*
X93770532Y-83219967D01*
X93651493Y-83256003D01*
X93530920Y-83289412D01*
X93412184Y-83319207D01*
X93298657Y-83344398D01*
X93220052Y-83359483D01*
X93053104Y-83385233D01*
X92882109Y-83403905D01*
X92705061Y-83415602D01*
X92519954Y-83420426D01*
X92324783Y-83418478D01*
X92172085Y-83412707D01*
X91991509Y-83398492D01*
X91804200Y-83373441D01*
X91613142Y-83338246D01*
X91421322Y-83293597D01*
X91231724Y-83240187D01*
X91047336Y-83178707D01*
X90879090Y-83113195D01*
X90840688Y-83097597D01*
X90811943Y-83087493D01*
X90788921Y-83081852D01*
X90767687Y-83079644D01*
X90750922Y-83079609D01*
X90703407Y-83074564D01*
X90663785Y-83056756D01*
X90632300Y-83026301D01*
X90628142Y-83020424D01*
X90620785Y-83011027D01*
X90610551Y-83001364D01*
X90595856Y-82990477D01*
X90575115Y-82977405D01*
X90546741Y-82961191D01*
X90509149Y-82940873D01*
X90460754Y-82915494D01*
X90419191Y-82893991D01*
X90373934Y-82869189D01*
X90319182Y-82836778D01*
X90257378Y-82798360D01*
X90190967Y-82755536D01*
X90122392Y-82709908D01*
X90054098Y-82663077D01*
X89988527Y-82616643D01*
X89928368Y-82572393D01*
X89900743Y-82551477D01*
X89875964Y-82532354D01*
X89850607Y-82512307D01*
X89821244Y-82488622D01*
X89784450Y-82458584D01*
X89775313Y-82451095D01*
X89733966Y-82415870D01*
X89686287Y-82373027D01*
X89634019Y-82324317D01*
X89578905Y-82271492D01*
X89522689Y-82216304D01*
X89467113Y-82160504D01*
X89413921Y-82105844D01*
X89364855Y-82054078D01*
X89321660Y-82006955D01*
X89286079Y-81966229D01*
X89259854Y-81933650D01*
X89258147Y-81931361D01*
X89243169Y-81913135D01*
X89220833Y-81888385D01*
X89194699Y-81860986D01*
X89178448Y-81844659D01*
X89134108Y-81796035D01*
X89100090Y-81748360D01*
X89092482Y-81735084D01*
X89075776Y-81705570D01*
X89058541Y-81677604D01*
X89044332Y-81656935D01*
X89043551Y-81655921D01*
X89028252Y-81635332D01*
X89009617Y-81608860D01*
X88989496Y-81579316D01*
X88969740Y-81549509D01*
X88952199Y-81522249D01*
X88938721Y-81500347D01*
X88931159Y-81486612D01*
X88930174Y-81483728D01*
X88925014Y-81473556D01*
X88919415Y-81467895D01*
X88911304Y-81457732D01*
X88897019Y-81436192D01*
X88877668Y-81405099D01*
X88854358Y-81366280D01*
X88828196Y-81321561D01*
X88800287Y-81272769D01*
X88788909Y-81252567D01*
X88777893Y-81232101D01*
X88762677Y-81202687D01*
X88744333Y-81166512D01*
X88723934Y-81125762D01*
X88702553Y-81082625D01*
X88681263Y-81039285D01*
X88661137Y-80997930D01*
X88643248Y-80960746D01*
X88628668Y-80929920D01*
X88618471Y-80907638D01*
X88613729Y-80896087D01*
X88613522Y-80895135D01*
X88610547Y-80885906D01*
X88602625Y-80866638D01*
X88591256Y-80840924D01*
X88586846Y-80831296D01*
X88571212Y-80795810D01*
X88555444Y-80757350D01*
X88542850Y-80724001D01*
X88542429Y-80722799D01*
X88530000Y-80687587D01*
X88515843Y-80647984D01*
X88505456Y-80619263D01*
X88489980Y-80574701D01*
X88471944Y-80519347D01*
X88452507Y-80457020D01*
X88432832Y-80391540D01*
X88414078Y-80326726D01*
X88397407Y-80266398D01*
X88392022Y-80246066D01*
X88383001Y-80210783D01*
X88374837Y-80176945D01*
X88367046Y-80142142D01*
X88359141Y-80103962D01*
X88350637Y-80059991D01*
X88341049Y-80007820D01*
X88329891Y-79945036D01*
X88319925Y-79887948D01*
X88303984Y-79779816D01*
X88291372Y-79660007D01*
X88282093Y-79531287D01*
X88276145Y-79396421D01*
X88273531Y-79258176D01*
X88273676Y-79230186D01*
X88494520Y-79230186D01*
X88494564Y-79298743D01*
X88495338Y-79362261D01*
X88496879Y-79417866D01*
X88499224Y-79462687D01*
X88499879Y-79471135D01*
X88502840Y-79505580D01*
X88505789Y-79537416D01*
X88509008Y-79569043D01*
X88512778Y-79602863D01*
X88517381Y-79641276D01*
X88523098Y-79686684D01*
X88530210Y-79741488D01*
X88538999Y-79808089D01*
X88542094Y-79831403D01*
X88555172Y-79914655D01*
X88573395Y-80008301D01*
X88595910Y-80108903D01*
X88621861Y-80213023D01*
X88650395Y-80317220D01*
X88680657Y-80418057D01*
X88709730Y-80506173D01*
X88725381Y-80550453D01*
X88742167Y-80596532D01*
X88759264Y-80642300D01*
X88775847Y-80685641D01*
X88791090Y-80724444D01*
X88804169Y-80756595D01*
X88814259Y-80779982D01*
X88820535Y-80792491D01*
X88822085Y-80793949D01*
X88822032Y-80785860D01*
X88819834Y-80765825D01*
X88815862Y-80736766D01*
X88810488Y-80701605D01*
X88809852Y-80697645D01*
X88796596Y-80609190D01*
X88783519Y-80510043D01*
X88771140Y-80404587D01*
X88759983Y-80297206D01*
X88752546Y-80215909D01*
X88748466Y-80158374D01*
X88744877Y-80088294D01*
X88741812Y-80008193D01*
X88739300Y-79920599D01*
X88737374Y-79828036D01*
X88736065Y-79733031D01*
X88735404Y-79638109D01*
X88735407Y-79624007D01*
X89001488Y-79624007D01*
X89001818Y-79713591D01*
X89002695Y-79802197D01*
X89004111Y-79887534D01*
X89006055Y-79967309D01*
X89008519Y-80039232D01*
X89011493Y-80101009D01*
X89014968Y-80150349D01*
X89015443Y-80155594D01*
X89039344Y-80380134D01*
X89067915Y-80591543D01*
X89101397Y-80791101D01*
X89140029Y-80980093D01*
X89184054Y-81159798D01*
X89233711Y-81331500D01*
X89239937Y-81351244D01*
X89259868Y-81412291D01*
X89280700Y-81473251D01*
X89301660Y-81532092D01*
X89321976Y-81586782D01*
X89340874Y-81635290D01*
X89357583Y-81675584D01*
X89371330Y-81705631D01*
X89381341Y-81723401D01*
X89381614Y-81723775D01*
X89402990Y-81750919D01*
X89432974Y-81786504D01*
X89469533Y-81828285D01*
X89510637Y-81874016D01*
X89554257Y-81921451D01*
X89598360Y-81968345D01*
X89640916Y-82012451D01*
X89661411Y-82033190D01*
X89715053Y-82085287D01*
X89777077Y-82142765D01*
X89843614Y-82202210D01*
X89910797Y-82260207D01*
X89974760Y-82313343D01*
X90015485Y-82345769D01*
X90040460Y-82365339D01*
X90064631Y-82384483D01*
X90078379Y-82395512D01*
X90100760Y-82412742D01*
X90131143Y-82434826D01*
X90167548Y-82460451D01*
X90207998Y-82488301D01*
X90250514Y-82517063D01*
X90293117Y-82545423D01*
X90333829Y-82572066D01*
X90370671Y-82595680D01*
X90401665Y-82614949D01*
X90424833Y-82628560D01*
X90438194Y-82635198D01*
X90439924Y-82635630D01*
X90445577Y-82632989D01*
X90445579Y-82632911D01*
X90443059Y-82624993D01*
X90436268Y-82606162D01*
X90426361Y-82579574D01*
X90418709Y-82559402D01*
X90407092Y-82527608D01*
X90392531Y-82485704D01*
X90376485Y-82438002D01*
X90360415Y-82388816D01*
X90351513Y-82360848D01*
X90277141Y-82104959D01*
X90211224Y-81837089D01*
X90153854Y-81557806D01*
X90105124Y-81267675D01*
X90065127Y-80967265D01*
X90033955Y-80657141D01*
X90011702Y-80337871D01*
X90007581Y-80257487D01*
X90005735Y-80207784D01*
X90004298Y-80146185D01*
X90003255Y-80074658D01*
X90002592Y-79995172D01*
X90002295Y-79909695D01*
X90002341Y-79833318D01*
X90261119Y-79833318D01*
X90264529Y-80056063D01*
X90273718Y-80278891D01*
X90279966Y-80381774D01*
X90300588Y-80640237D01*
X90327397Y-80894220D01*
X90360168Y-81142631D01*
X90398676Y-81384375D01*
X90442697Y-81618359D01*
X90492005Y-81843491D01*
X90546375Y-82058677D01*
X90605582Y-82262823D01*
X90669400Y-82454836D01*
X90737606Y-82633623D01*
X90749536Y-82662421D01*
X90771993Y-82715986D01*
X90789481Y-82757384D01*
X90802924Y-82788329D01*
X90813249Y-82810531D01*
X90821381Y-82825705D01*
X90828246Y-82835561D01*
X90834769Y-82841813D01*
X90841876Y-82846171D01*
X90850492Y-82850350D01*
X90851348Y-82850763D01*
X90882361Y-82864906D01*
X90924187Y-82882694D01*
X90973415Y-82902771D01*
X91026633Y-82923783D01*
X91080429Y-82944372D01*
X91131392Y-82963182D01*
X91158045Y-82972652D01*
X91191439Y-82984225D01*
X91221067Y-82994241D01*
X91249595Y-83003511D01*
X91279690Y-83012847D01*
X91314018Y-83023060D01*
X91355248Y-83034963D01*
X91406044Y-83049366D01*
X91459619Y-83064429D01*
X91530717Y-83083205D01*
X91608659Y-83101772D01*
X91688933Y-83119182D01*
X91767028Y-83134490D01*
X91838434Y-83146750D01*
X91881821Y-83152985D01*
X91922626Y-83158294D01*
X91961708Y-83163498D01*
X91994687Y-83168006D01*
X92017183Y-83171228D01*
X92017529Y-83171280D01*
X92041346Y-83174780D01*
X92059668Y-83177287D01*
X92065098Y-83177925D01*
X92065908Y-83173300D01*
X92058351Y-83160297D01*
X92045129Y-83143053D01*
X91989206Y-83068275D01*
X91934232Y-82979683D01*
X91880778Y-82878537D01*
X91829417Y-82766097D01*
X91780720Y-82643623D01*
X91735258Y-82512374D01*
X91693603Y-82373612D01*
X91689744Y-82359645D01*
X91689612Y-82359177D01*
X91976063Y-82359177D01*
X91978412Y-82369854D01*
X91984922Y-82392181D01*
X91994785Y-82423573D01*
X92007192Y-82461443D01*
X92018168Y-82493964D01*
X92061891Y-82611169D01*
X92110074Y-82720551D01*
X92161994Y-82820949D01*
X92216929Y-82911200D01*
X92274158Y-82990142D01*
X92332958Y-83056615D01*
X92392608Y-83109455D01*
X92407267Y-83120188D01*
X92432173Y-83139714D01*
X92453909Y-83160329D01*
X92466840Y-83176262D01*
X92475278Y-83188986D01*
X92483743Y-83196493D01*
X92496237Y-83200157D01*
X92516760Y-83201351D01*
X92540242Y-83201452D01*
X92570289Y-83200859D01*
X92610317Y-83199262D01*
X92655278Y-83196899D01*
X92700126Y-83194008D01*
X92703608Y-83193757D01*
X92748442Y-83189984D01*
X92803483Y-83184547D01*
X92865146Y-83177873D01*
X92929843Y-83170390D01*
X92993990Y-83162526D01*
X93054000Y-83154708D01*
X93106287Y-83147364D01*
X93147264Y-83140920D01*
X93148428Y-83140720D01*
X93202118Y-83130614D01*
X93265277Y-83117390D01*
X93332909Y-83102196D01*
X93400019Y-83086178D01*
X93461613Y-83070483D01*
X93499007Y-83060236D01*
X93538573Y-83049053D01*
X93576637Y-83038460D01*
X93608871Y-83029653D01*
X93630944Y-83023826D01*
X93630945Y-83023825D01*
X93675684Y-83011051D01*
X93731464Y-82992802D01*
X93795695Y-82970045D01*
X93865784Y-82943749D01*
X93939141Y-82914880D01*
X94013174Y-82884405D01*
X94071415Y-82859402D01*
X94108273Y-82842691D01*
X94152761Y-82821623D01*
X94202254Y-82797529D01*
X94254129Y-82771739D01*
X94305762Y-82745585D01*
X94354529Y-82720395D01*
X94397806Y-82697502D01*
X94432969Y-82678234D01*
X94457395Y-82663923D01*
X94459250Y-82662750D01*
X94481186Y-82649112D01*
X94497850Y-82639484D01*
X94505389Y-82636033D01*
X94515335Y-82631810D01*
X94535768Y-82619926D01*
X94564955Y-82601562D01*
X94601169Y-82577900D01*
X94642679Y-82550120D01*
X94687755Y-82519402D01*
X94734669Y-82486927D01*
X94781690Y-82453877D01*
X94827088Y-82421432D01*
X94869135Y-82390772D01*
X94906100Y-82363078D01*
X94913116Y-82357703D01*
X94945028Y-82332990D01*
X94973304Y-82310654D01*
X94999971Y-82288955D01*
X95027052Y-82266153D01*
X95056575Y-82240506D01*
X95090564Y-82210274D01*
X95131045Y-82173716D01*
X95180044Y-82129093D01*
X95194134Y-82116224D01*
X95227866Y-82084962D01*
X95261218Y-82053277D01*
X95290899Y-82024347D01*
X95313614Y-82001351D01*
X95318533Y-81996134D01*
X95342128Y-81970774D01*
X95365892Y-81945389D01*
X95383839Y-81926361D01*
X95403153Y-81905538D01*
X95426648Y-81879536D01*
X95445447Y-81858296D01*
X95469023Y-81831343D01*
X95493914Y-81802901D01*
X95510387Y-81784089D01*
X95524909Y-81766719D01*
X95546609Y-81739748D01*
X95573584Y-81705614D01*
X95603932Y-81666754D01*
X95635750Y-81625604D01*
X95667136Y-81584604D01*
X95696188Y-81546189D01*
X95698706Y-81542831D01*
X95708968Y-81528382D01*
X95725792Y-81503846D01*
X95747482Y-81471750D01*
X95772340Y-81434621D01*
X95798668Y-81394987D01*
X95824771Y-81355376D01*
X95832851Y-81343039D01*
X95862669Y-81295502D01*
X95897141Y-81237260D01*
X95934586Y-81171295D01*
X95973326Y-81100584D01*
X96011679Y-81028109D01*
X96025245Y-81001813D01*
X96068722Y-80916924D01*
X96007121Y-80971655D01*
X95981794Y-80994222D01*
X95960788Y-81013061D01*
X95946579Y-81025943D01*
X95941750Y-81030484D01*
X95932586Y-81038770D01*
X95913779Y-81054596D01*
X95887535Y-81076179D01*
X95856059Y-81101735D01*
X95821559Y-81129480D01*
X95786241Y-81157630D01*
X95752310Y-81184402D01*
X95726879Y-81204222D01*
X95556070Y-81329800D01*
X95372604Y-81452369D01*
X95178801Y-81570641D01*
X94976984Y-81683330D01*
X94769474Y-81789150D01*
X94558593Y-81886816D01*
X94346664Y-81975040D01*
X94309485Y-81989472D01*
X94037474Y-82087341D01*
X93769057Y-82170712D01*
X93504282Y-82239576D01*
X93243198Y-82293924D01*
X92985853Y-82333747D01*
X92732297Y-82359034D01*
X92482578Y-82369779D01*
X92300254Y-82368360D01*
X92231988Y-82366291D01*
X92176923Y-82364521D01*
X92133186Y-82362952D01*
X92098904Y-82361484D01*
X92072204Y-82360020D01*
X92051214Y-82358459D01*
X92034061Y-82356703D01*
X92018872Y-82354654D01*
X92008105Y-82352942D01*
X91987627Y-82350526D01*
X91978141Y-82352774D01*
X91976063Y-82359177D01*
X91689612Y-82359177D01*
X91678383Y-82319254D01*
X91667426Y-82282159D01*
X91657901Y-82251714D01*
X91650836Y-82231272D01*
X91649079Y-82226977D01*
X91642818Y-82206681D01*
X91637338Y-82177880D01*
X91634101Y-82149747D01*
X91631042Y-82121284D01*
X91625684Y-82083110D01*
X91618789Y-82040275D01*
X91611338Y-81998960D01*
X91600191Y-81935462D01*
X91588629Y-81859836D01*
X91577023Y-81775009D01*
X91565744Y-81683911D01*
X91555164Y-81589470D01*
X91545652Y-81494617D01*
X91541141Y-81444819D01*
X91537936Y-81398556D01*
X91535121Y-81339222D01*
X91532703Y-81268821D01*
X91530689Y-81189356D01*
X91529739Y-81138072D01*
X91790263Y-81138072D01*
X91791429Y-81171595D01*
X91793657Y-81214415D01*
X91796825Y-81264630D01*
X91800810Y-81320333D01*
X91805488Y-81379622D01*
X91810738Y-81440592D01*
X91816435Y-81501338D01*
X91818312Y-81520213D01*
X91838385Y-81695351D01*
X91862046Y-81857941D01*
X91879068Y-81955650D01*
X91894864Y-82040509D01*
X91937348Y-82052140D01*
X91967341Y-82060887D01*
X91996821Y-82070328D01*
X92009990Y-82074950D01*
X92032028Y-82080991D01*
X92065559Y-82086884D01*
X92111524Y-82092751D01*
X92170867Y-82098717D01*
X92228630Y-82103646D01*
X92258266Y-82105034D01*
X92300220Y-82105624D01*
X92351756Y-82105488D01*
X92410139Y-82104699D01*
X92472632Y-82103330D01*
X92536502Y-82101453D01*
X92599011Y-82099143D01*
X92657425Y-82096471D01*
X92709007Y-82093511D01*
X92751023Y-82090335D01*
X92760153Y-82089472D01*
X92991996Y-82060378D01*
X93229946Y-82018927D01*
X93472069Y-81965515D01*
X93716430Y-81900541D01*
X93801382Y-81875368D01*
X94015511Y-81805292D01*
X94228145Y-81726020D01*
X94438143Y-81638245D01*
X94644366Y-81542661D01*
X94845672Y-81439959D01*
X95040922Y-81330834D01*
X95228975Y-81215978D01*
X95408691Y-81096084D01*
X95578928Y-80971845D01*
X95738547Y-80843954D01*
X95886408Y-80713104D01*
X96021369Y-80579988D01*
X96129059Y-80460937D01*
X96168391Y-80415198D01*
X96199673Y-80379789D01*
X96224309Y-80353293D01*
X96243701Y-80334291D01*
X96259251Y-80321367D01*
X96272361Y-80313101D01*
X96277823Y-80310530D01*
X96288639Y-80304994D01*
X96296568Y-80297148D01*
X96303084Y-80283937D01*
X96309660Y-80262306D01*
X96317771Y-80229199D01*
X96318459Y-80226266D01*
X96327139Y-80189456D01*
X96338002Y-80143723D01*
X96349682Y-80094799D01*
X96360815Y-80048417D01*
X96361183Y-80046893D01*
X96371390Y-80002171D01*
X96380963Y-79956024D01*
X96388882Y-79913628D01*
X96394131Y-79880161D01*
X96394453Y-79877642D01*
X96398921Y-79843376D01*
X96404852Y-79800219D01*
X96411407Y-79754181D01*
X96416630Y-79718698D01*
X96429254Y-79624516D01*
X96440330Y-79520275D01*
X96450113Y-79403538D01*
X96450531Y-79397892D01*
X96454977Y-79337577D01*
X96411722Y-79386583D01*
X96371425Y-79430911D01*
X96324305Y-79480590D01*
X96273424Y-79532554D01*
X96221847Y-79583741D01*
X96172638Y-79631086D01*
X96128859Y-79671524D01*
X96111450Y-79686909D01*
X96081920Y-79712560D01*
X96055343Y-79735717D01*
X96034418Y-79754024D01*
X96021848Y-79765122D01*
X96020978Y-79765903D01*
X96010042Y-79774939D01*
X95989442Y-79791226D01*
X95961544Y-79812921D01*
X95928712Y-79838182D01*
X95904053Y-79857005D01*
X95715286Y-79992464D01*
X95513650Y-80121682D01*
X95300141Y-80244344D01*
X95075756Y-80360133D01*
X94841491Y-80468734D01*
X94598342Y-80569831D01*
X94347307Y-80663108D01*
X94089381Y-80748248D01*
X93825562Y-80824936D01*
X93556845Y-80892856D01*
X93284228Y-80951692D01*
X93008706Y-81001128D01*
X92731277Y-81040849D01*
X92452937Y-81070537D01*
X92174682Y-81089878D01*
X91993647Y-81096768D01*
X91940578Y-81098286D01*
X91892548Y-81099986D01*
X91851595Y-81101769D01*
X91819754Y-81103537D01*
X91799062Y-81105190D01*
X91791611Y-81106537D01*
X91790283Y-81115751D01*
X91790263Y-81138072D01*
X91529739Y-81138072D01*
X91529086Y-81102831D01*
X91527902Y-81011248D01*
X91527143Y-80916612D01*
X91526890Y-80842919D01*
X91779351Y-80842919D01*
X91909749Y-80838019D01*
X91959819Y-80835891D01*
X92019822Y-80832949D01*
X92084651Y-80829468D01*
X92149198Y-80825721D01*
X92206012Y-80822137D01*
X92464227Y-80800556D01*
X92721424Y-80770245D01*
X92976839Y-80731510D01*
X93229710Y-80684658D01*
X93479273Y-80629995D01*
X93724766Y-80567828D01*
X93965426Y-80498463D01*
X94200489Y-80422207D01*
X94429194Y-80339365D01*
X94650776Y-80250245D01*
X94864474Y-80155153D01*
X95069524Y-80054394D01*
X95265163Y-79948277D01*
X95450629Y-79837106D01*
X95625158Y-79721188D01*
X95787988Y-79600831D01*
X95938356Y-79476339D01*
X96075498Y-79348020D01*
X96195489Y-79219817D01*
X96219941Y-79190293D01*
X96249614Y-79152235D01*
X96281602Y-79109590D01*
X96312997Y-79066307D01*
X96340895Y-79026332D01*
X96362387Y-78993611D01*
X96364148Y-78990768D01*
X96382505Y-78962369D01*
X96401095Y-78936028D01*
X96416275Y-78916871D01*
X96417940Y-78915034D01*
X96439310Y-78892076D01*
X96431661Y-78828332D01*
X96426821Y-78790409D01*
X96420675Y-78745634D01*
X96414337Y-78702042D01*
X96412534Y-78690196D01*
X96406492Y-78649916D01*
X96400378Y-78607302D01*
X96395237Y-78569691D01*
X96393870Y-78559134D01*
X96385656Y-78506829D01*
X96373053Y-78442996D01*
X96356756Y-78370304D01*
X96337456Y-78291422D01*
X96315847Y-78209018D01*
X96292624Y-78125761D01*
X96268478Y-78044320D01*
X96244104Y-77967363D01*
X96226868Y-77916413D01*
X96207904Y-77863918D01*
X96186195Y-77806885D01*
X96162562Y-77747211D01*
X96137831Y-77686795D01*
X96112824Y-77627535D01*
X96088364Y-77571329D01*
X96065276Y-77520074D01*
X96044383Y-77475668D01*
X96026509Y-77440009D01*
X96012477Y-77414995D01*
X96004407Y-77403751D01*
X95997765Y-77405699D01*
X95992024Y-77411841D01*
X95980996Y-77421962D01*
X95958484Y-77438810D01*
X95925982Y-77461436D01*
X95884984Y-77488891D01*
X95836983Y-77520226D01*
X95783474Y-77554492D01*
X95725951Y-77590739D01*
X95665908Y-77628020D01*
X95604839Y-77665383D01*
X95544238Y-77701880D01*
X95485598Y-77736563D01*
X95432845Y-77767093D01*
X95216968Y-77887011D01*
X94996213Y-78003027D01*
X94774087Y-78113412D01*
X94554094Y-78216436D01*
X94339741Y-78310370D01*
X94286867Y-78332469D01*
X94095861Y-78408890D01*
X93906014Y-78479756D01*
X93718879Y-78544594D01*
X93536008Y-78602934D01*
X93358954Y-78654304D01*
X93189270Y-78698235D01*
X93028507Y-78734253D01*
X92878219Y-78761889D01*
X92864656Y-78764044D01*
X92753050Y-78779749D01*
X92649519Y-78790292D01*
X92548118Y-78796063D01*
X92442904Y-78797453D01*
X92373736Y-78796301D01*
X92312536Y-78794374D01*
X92262975Y-78791911D01*
X92221611Y-78788519D01*
X92185006Y-78783807D01*
X92149718Y-78777384D01*
X92112309Y-78768858D01*
X92095331Y-78764605D01*
X92084613Y-78762710D01*
X92077268Y-78765594D01*
X92071151Y-78776068D01*
X92064117Y-78796942D01*
X92059922Y-78811023D01*
X92018665Y-78961284D01*
X91979552Y-79123980D01*
X91942977Y-79296567D01*
X91909332Y-79476504D01*
X91879009Y-79661248D01*
X91852402Y-79848257D01*
X91829904Y-80034987D01*
X91811906Y-80218898D01*
X91798802Y-80397446D01*
X91791647Y-80547639D01*
X91789841Y-80598109D01*
X91787810Y-80651472D01*
X91785765Y-80702359D01*
X91783917Y-80745401D01*
X91783363Y-80757479D01*
X91779351Y-80842919D01*
X91526890Y-80842919D01*
X91526815Y-80820926D01*
X91526927Y-80726192D01*
X91527485Y-80634415D01*
X91528497Y-80547598D01*
X91529968Y-80467744D01*
X91531906Y-80396856D01*
X91534319Y-80336937D01*
X91537110Y-80291302D01*
X91563490Y-80002133D01*
X91596997Y-79723088D01*
X91637519Y-79454806D01*
X91684945Y-79197927D01*
X91739163Y-78953091D01*
X91800060Y-78720937D01*
X91828123Y-78625661D01*
X91854379Y-78539509D01*
X91838884Y-78508801D01*
X91773127Y-78389153D01*
X91695254Y-78265960D01*
X91607072Y-78141474D01*
X91510388Y-78017944D01*
X91407007Y-77897620D01*
X91298735Y-77782751D01*
X91187380Y-77675589D01*
X91127053Y-77622105D01*
X91090557Y-77591450D01*
X91049634Y-77558288D01*
X91006035Y-77523918D01*
X90961512Y-77489641D01*
X90917820Y-77456757D01*
X90876709Y-77426565D01*
X90839934Y-77400366D01*
X90809246Y-77379460D01*
X90786397Y-77365147D01*
X90773141Y-77358727D01*
X90771694Y-77358503D01*
X90762393Y-77365050D01*
X90747888Y-77383428D01*
X90729214Y-77411741D01*
X90707408Y-77448093D01*
X90683505Y-77490588D01*
X90658543Y-77537331D01*
X90633557Y-77586426D01*
X90609584Y-77635978D01*
X90587660Y-77684089D01*
X90568821Y-77728866D01*
X90567695Y-77731700D01*
X90516144Y-77874358D01*
X90468939Y-78030295D01*
X90426209Y-78198310D01*
X90388085Y-78377204D01*
X90354698Y-78565777D01*
X90326176Y-78762831D01*
X90302651Y-78967165D01*
X90284252Y-79177581D01*
X90271110Y-79392878D01*
X90263356Y-79611857D01*
X90261119Y-79833318D01*
X90002341Y-79833318D01*
X90002349Y-79820196D01*
X90002740Y-79728643D01*
X90003454Y-79637003D01*
X90004477Y-79547247D01*
X90005793Y-79461341D01*
X90007389Y-79381255D01*
X90009251Y-79308956D01*
X90011364Y-79246414D01*
X90013713Y-79195596D01*
X90015500Y-79167942D01*
X90037687Y-78918926D01*
X90065063Y-78683789D01*
X90097618Y-78462566D01*
X90135346Y-78255289D01*
X90178237Y-78061992D01*
X90226283Y-77882706D01*
X90279476Y-77717466D01*
X90337809Y-77566304D01*
X90401272Y-77429253D01*
X90469857Y-77306347D01*
X90487850Y-77277760D01*
X90504943Y-77250733D01*
X90518138Y-77228846D01*
X90525806Y-77214865D01*
X90527016Y-77211266D01*
X90518491Y-77206184D01*
X90499168Y-77196161D01*
X90471930Y-77182592D01*
X90439663Y-77166871D01*
X90405250Y-77150394D01*
X90371576Y-77134555D01*
X90341526Y-77120749D01*
X90321180Y-77111737D01*
X90196579Y-77062933D01*
X90065783Y-77020634D01*
X89991316Y-77000431D01*
X89952872Y-76990953D01*
X89919138Y-76982981D01*
X89893060Y-76977184D01*
X89877583Y-76974234D01*
X89875181Y-76973997D01*
X89856564Y-76979596D01*
X89830288Y-76995295D01*
X89798150Y-77019449D01*
X89761947Y-77050414D01*
X89723475Y-77086544D01*
X89684530Y-77126193D01*
X89646910Y-77167716D01*
X89612410Y-77209469D01*
X89599368Y-77226565D01*
X89514190Y-77352126D01*
X89434912Y-77491278D01*
X89361632Y-77643693D01*
X89294448Y-77809044D01*
X89233457Y-77987005D01*
X89178756Y-78177249D01*
X89130445Y-78379448D01*
X89088619Y-78593276D01*
X89053378Y-78818404D01*
X89024818Y-79054508D01*
X89011526Y-79194330D01*
X89008376Y-79241647D01*
X89005829Y-79301738D01*
X89003876Y-79372312D01*
X89002507Y-79451076D01*
X89001714Y-79535738D01*
X89001488Y-79624007D01*
X88735407Y-79624007D01*
X88735421Y-79545797D01*
X88736149Y-79458619D01*
X88737618Y-79379102D01*
X88739860Y-79309772D01*
X88741040Y-79284287D01*
X88758934Y-79028840D01*
X88785831Y-78780762D01*
X88821560Y-78540889D01*
X88865949Y-78310058D01*
X88918827Y-78089104D01*
X88980022Y-77878865D01*
X89049362Y-77680177D01*
X89091855Y-77573867D01*
X89134021Y-77479503D01*
X89181665Y-77383669D01*
X89233023Y-77289432D01*
X89286330Y-77199861D01*
X89339820Y-77118022D01*
X89391728Y-77046982D01*
X89403703Y-77031943D01*
X89423641Y-77007127D01*
X89440098Y-76986186D01*
X89450619Y-76972261D01*
X89452835Y-76969003D01*
X89449261Y-76965698D01*
X89432727Y-76966963D01*
X89404555Y-76972531D01*
X89366069Y-76982138D01*
X89318589Y-76995517D01*
X89313867Y-76996913D01*
X89274480Y-77006293D01*
X89237726Y-77010877D01*
X89207379Y-77010438D01*
X89187213Y-77004748D01*
X89186878Y-77004541D01*
X89181871Y-77002045D01*
X89176868Y-77002762D01*
X89170316Y-77008518D01*
X89160665Y-77021137D01*
X89146364Y-77042444D01*
X89125863Y-77074263D01*
X89120505Y-77082639D01*
X89098861Y-77117306D01*
X89072592Y-77160618D01*
X89044382Y-77208034D01*
X89016919Y-77255012D01*
X88992887Y-77297011D01*
X88979659Y-77320806D01*
X88963418Y-77351352D01*
X88944118Y-77388895D01*
X88922788Y-77431303D01*
X88900458Y-77476439D01*
X88878157Y-77522169D01*
X88856915Y-77566358D01*
X88837761Y-77606871D01*
X88821724Y-77641574D01*
X88809835Y-77668332D01*
X88803121Y-77685010D01*
X88802005Y-77689228D01*
X88799261Y-77698976D01*
X88791867Y-77719254D01*
X88781081Y-77746714D01*
X88772788Y-77766971D01*
X88747968Y-77829693D01*
X88721934Y-77900842D01*
X88695781Y-77976989D01*
X88670604Y-78054704D01*
X88647497Y-78130555D01*
X88627557Y-78201114D01*
X88611877Y-78262949D01*
X88605959Y-78289610D01*
X88599610Y-78319921D01*
X88591125Y-78360137D01*
X88581529Y-78405419D01*
X88571844Y-78450927D01*
X88570069Y-78459245D01*
X88560219Y-78508060D01*
X88550686Y-78561168D01*
X88541156Y-78620649D01*
X88531316Y-78688584D01*
X88520853Y-78767050D01*
X88509452Y-78858130D01*
X88507532Y-78873908D01*
X88503967Y-78912368D01*
X88500912Y-78963027D01*
X88498402Y-79023011D01*
X88496476Y-79089447D01*
X88495170Y-79159463D01*
X88494520Y-79230186D01*
X88273676Y-79230186D01*
X88274251Y-79119317D01*
X88278306Y-78982612D01*
X88285697Y-78850825D01*
X88296426Y-78726723D01*
X88310493Y-78613072D01*
X88319437Y-78557256D01*
X88326823Y-78515182D01*
X88335536Y-78465644D01*
X88344275Y-78416025D01*
X88349285Y-78387621D01*
X88366731Y-78300612D01*
X88390357Y-78202495D01*
X88420361Y-78092509D01*
X88456938Y-77969891D01*
X88460662Y-77957880D01*
X88529957Y-77752744D01*
X88608085Y-77555557D01*
X88696342Y-77363578D01*
X88796024Y-77174066D01*
X88908424Y-76984280D01*
X88955782Y-76909913D01*
X88978139Y-76875684D01*
X88998059Y-76845828D01*
X89017660Y-76817338D01*
X89039060Y-76787209D01*
X89064375Y-76752435D01*
X89095723Y-76710010D01*
X89109338Y-76691692D01*
X89406827Y-76691692D01*
X89414717Y-76691925D01*
X89434567Y-76690965D01*
X89463321Y-76688992D01*
X89495640Y-76686388D01*
X89640268Y-76681110D01*
X89790098Y-76689470D01*
X89944235Y-76711316D01*
X90101781Y-76746494D01*
X90261842Y-76794852D01*
X90373955Y-76836089D01*
X90549952Y-76913050D01*
X90724343Y-77003963D01*
X90895902Y-77107706D01*
X91063405Y-77223158D01*
X91225626Y-77349196D01*
X91381337Y-77484698D01*
X91529315Y-77628543D01*
X91668334Y-77779609D01*
X91797167Y-77936774D01*
X91914588Y-78098916D01*
X92019373Y-78264913D01*
X92102727Y-78418405D01*
X92140802Y-78494424D01*
X92197404Y-78507754D01*
X92231795Y-78515349D01*
X92266851Y-78522285D01*
X92294093Y-78526920D01*
X92334656Y-78530891D01*
X92386263Y-78533008D01*
X92445001Y-78533316D01*
X92506955Y-78531861D01*
X92568212Y-78528687D01*
X92624856Y-78523838D01*
X92631984Y-78523053D01*
X92806367Y-78498509D01*
X92990635Y-78463462D01*
X93184039Y-78418100D01*
X93385833Y-78362609D01*
X93595267Y-78297177D01*
X93766653Y-78238216D01*
X93853297Y-78206896D01*
X93926603Y-78179664D01*
X93986388Y-78156595D01*
X94032473Y-78137763D01*
X94064674Y-78123240D01*
X94082809Y-78113101D01*
X94087075Y-78108322D01*
X94083650Y-78092596D01*
X94074073Y-78065847D01*
X94059390Y-78030302D01*
X94040645Y-77988188D01*
X94018885Y-77941732D01*
X93995154Y-77893161D01*
X93970499Y-77844701D01*
X93945965Y-77798580D01*
X93922597Y-77757025D01*
X93920315Y-77753122D01*
X93813298Y-77585563D01*
X93692751Y-77424267D01*
X93558982Y-77269502D01*
X93412300Y-77121539D01*
X93253011Y-76980649D01*
X93081425Y-76847101D01*
X92897847Y-76721165D01*
X92702587Y-76603112D01*
X92495952Y-76493211D01*
X92469889Y-76480330D01*
X92247581Y-76378308D01*
X92021650Y-76288644D01*
X91789911Y-76210581D01*
X91550182Y-76143362D01*
X91383040Y-76103803D01*
X91244918Y-76075756D01*
X91100592Y-76050828D01*
X90953344Y-76029402D01*
X90806457Y-76011864D01*
X90663213Y-75998598D01*
X90526895Y-75989990D01*
X90400786Y-75986422D01*
X90380813Y-75986345D01*
X90336317Y-75986089D01*
X90303764Y-75985088D01*
X90280022Y-75982992D01*
X90261960Y-75979453D01*
X90246446Y-75974120D01*
X90238132Y-75970421D01*
X90217553Y-75961254D01*
X90204904Y-75958462D01*
X90194546Y-75961847D01*
X90184587Y-75968536D01*
X90166488Y-75981336D01*
X90143207Y-75997650D01*
X90132380Y-76005193D01*
X90068095Y-76052170D01*
X89996431Y-76108598D01*
X89919765Y-76172432D01*
X89840477Y-76241629D01*
X89760945Y-76314142D01*
X89683547Y-76387929D01*
X89658771Y-76412317D01*
X89628201Y-76443223D01*
X89594848Y-76477892D01*
X89560205Y-76514668D01*
X89525770Y-76551893D01*
X89493035Y-76587907D01*
X89463498Y-76621054D01*
X89438653Y-76649675D01*
X89419995Y-76672112D01*
X89409019Y-76686708D01*
X89406827Y-76691692D01*
X89109338Y-76691692D01*
X89112451Y-76687503D01*
X89145674Y-76643455D01*
X89178113Y-76601865D01*
X89211891Y-76560169D01*
X89249131Y-76515808D01*
X89291955Y-76466219D01*
X89342486Y-76408842D01*
X89356138Y-76393469D01*
X89393075Y-76353410D01*
X89438841Y-76306120D01*
X89490799Y-76254164D01*
X89546314Y-76200108D01*
X89602750Y-76146514D01*
X89657471Y-76095948D01*
X89707843Y-76050975D01*
X89710494Y-76048663D01*
X89755637Y-76009391D01*
X89791379Y-75978431D01*
X89819667Y-75954168D01*
X89842446Y-75934985D01*
X89861663Y-75919263D01*
X89879265Y-75905387D01*
X89897197Y-75891738D01*
X89917406Y-75876701D01*
X89917826Y-75876390D01*
X89948456Y-75853699D01*
X89981199Y-75829389D01*
X90008298Y-75809221D01*
X90027595Y-75795449D01*
X90056442Y-75775633D01*
X90092025Y-75751630D01*
X90130121Y-75726238D01*
X90571551Y-75726238D01*
X90608461Y-75728078D01*
X90872729Y-75748164D01*
X91136305Y-75781864D01*
X91397859Y-75828827D01*
X91656064Y-75888706D01*
X91909593Y-75961151D01*
X92157117Y-76045814D01*
X92397308Y-76142347D01*
X92628839Y-76250401D01*
X92661884Y-76267143D01*
X92875434Y-76383880D01*
X93078506Y-76510298D01*
X93273229Y-76647801D01*
X93446232Y-76784802D01*
X93480813Y-76814737D01*
X93522442Y-76852505D01*
X93568848Y-76895888D01*
X93617756Y-76942666D01*
X93666895Y-76990620D01*
X93713992Y-77037532D01*
X93756773Y-77081181D01*
X93792967Y-77119349D01*
X93820301Y-77149817D01*
X93821456Y-77151171D01*
X93843033Y-77176451D01*
X93863625Y-77200409D01*
X93879002Y-77218128D01*
X93879790Y-77219025D01*
X93901361Y-77244986D01*
X93929173Y-77280544D01*
X93961082Y-77322767D01*
X93994941Y-77368721D01*
X94028605Y-77415474D01*
X94059930Y-77460093D01*
X94086768Y-77499643D01*
X94100382Y-77520599D01*
X94146507Y-77596503D01*
X94192709Y-77678302D01*
X94236613Y-77761502D01*
X94275842Y-77841606D01*
X94306622Y-77910759D01*
X94321240Y-77945537D01*
X94333676Y-77974709D01*
X94342846Y-77995767D01*
X94347667Y-78006200D01*
X94348112Y-78006885D01*
X94355072Y-78003968D01*
X94372719Y-77996117D01*
X94398033Y-77984685D01*
X94416170Y-77976428D01*
X94453192Y-77959515D01*
X94492634Y-77941476D01*
X94527448Y-77925535D01*
X94535665Y-77921768D01*
X94568785Y-77906244D01*
X94610365Y-77886227D01*
X94658702Y-77862580D01*
X94712094Y-77836168D01*
X94768836Y-77807855D01*
X94827226Y-77778507D01*
X94885561Y-77748987D01*
X94942138Y-77720160D01*
X94995253Y-77692891D01*
X95043203Y-77668044D01*
X95084286Y-77646483D01*
X95116797Y-77629074D01*
X95139035Y-77616680D01*
X95148901Y-77610493D01*
X95146814Y-77603163D01*
X95138632Y-77584604D01*
X95125407Y-77556866D01*
X95108193Y-77521998D01*
X95088042Y-77482049D01*
X95066005Y-77439068D01*
X95043135Y-77395104D01*
X95020485Y-77352205D01*
X94999107Y-77312422D01*
X94980053Y-77277803D01*
X94964376Y-77250397D01*
X94961408Y-77245413D01*
X94822761Y-77028334D01*
X94674610Y-76822539D01*
X94516271Y-76627083D01*
X94504307Y-76613208D01*
X94483539Y-76590174D01*
X94454293Y-76559060D01*
X94418432Y-76521738D01*
X94377819Y-76480077D01*
X94334319Y-76435948D01*
X94289794Y-76391222D01*
X94246109Y-76347770D01*
X94205125Y-76307461D01*
X94168708Y-76272167D01*
X94138720Y-76243758D01*
X94117025Y-76224104D01*
X94114697Y-76222108D01*
X94089897Y-76200919D01*
X94067177Y-76181247D01*
X94050942Y-76166912D01*
X94049378Y-76165493D01*
X94036050Y-76154022D01*
X94014030Y-76135802D01*
X93986471Y-76113416D01*
X93958906Y-76091340D01*
X93757664Y-75939272D01*
X93555148Y-75802165D01*
X93351213Y-75679946D01*
X93145713Y-75572539D01*
X92938504Y-75479871D01*
X92729440Y-75401867D01*
X92518375Y-75338452D01*
X92487316Y-75330528D01*
X93291676Y-75330528D01*
X93295186Y-75333833D01*
X93309950Y-75342835D01*
X93333824Y-75356305D01*
X93364667Y-75373016D01*
X93378378Y-75380280D01*
X93460363Y-75424840D01*
X93548146Y-75474994D01*
X93636573Y-75527682D01*
X93720489Y-75579847D01*
X93781274Y-75619388D01*
X93812766Y-75640946D01*
X93852256Y-75668833D01*
X93897158Y-75701137D01*
X93944880Y-75735950D01*
X93992836Y-75771361D01*
X94038435Y-75805460D01*
X94079088Y-75836337D01*
X94112208Y-75862082D01*
X94132580Y-75878569D01*
X94182960Y-75920888D01*
X94224377Y-75956021D01*
X94259520Y-75986354D01*
X94291074Y-76014276D01*
X94321728Y-76042173D01*
X94354168Y-76072432D01*
X94391083Y-76107440D01*
X94402445Y-76118283D01*
X94426758Y-76141812D01*
X94456744Y-76171299D01*
X94490313Y-76204637D01*
X94525371Y-76239719D01*
X94559827Y-76274437D01*
X94591589Y-76306686D01*
X94618563Y-76334358D01*
X94638659Y-76355346D01*
X94648755Y-76366340D01*
X94657452Y-76376171D01*
X94672798Y-76393377D01*
X94690221Y-76412842D01*
X94719948Y-76446124D01*
X94744075Y-76473544D01*
X94765822Y-76498892D01*
X94788409Y-76525955D01*
X94815055Y-76558522D01*
X94836395Y-76584829D01*
X94986282Y-76780831D01*
X95122594Y-76982081D01*
X95246402Y-77190237D01*
X95332485Y-77353458D01*
X95353902Y-77396124D01*
X95369798Y-77426963D01*
X95381356Y-77447655D01*
X95389755Y-77459881D01*
X95396176Y-77465322D01*
X95401802Y-77465657D01*
X95407811Y-77462569D01*
X95408735Y-77461970D01*
X95420574Y-77454519D01*
X95442768Y-77440816D01*
X95472775Y-77422420D01*
X95508054Y-77400891D01*
X95534626Y-77384729D01*
X95580251Y-77356647D01*
X95630102Y-77325348D01*
X95678997Y-77294124D01*
X95721752Y-77266265D01*
X95733187Y-77258668D01*
X95768159Y-77235803D01*
X95801368Y-77215016D01*
X95829521Y-77198305D01*
X95849326Y-77187670D01*
X95852432Y-77186261D01*
X95882436Y-77173518D01*
X95840470Y-77109570D01*
X95808821Y-77061809D01*
X95772326Y-77007483D01*
X95734863Y-76952322D01*
X95700309Y-76902059D01*
X95692952Y-76891466D01*
X95667008Y-76855278D01*
X95635755Y-76813333D01*
X95602179Y-76769498D01*
X95569266Y-76727639D01*
X95540005Y-76691620D01*
X95523706Y-76672424D01*
X95499624Y-76644772D01*
X95475302Y-76616719D01*
X95455466Y-76593713D01*
X95453105Y-76590960D01*
X95437174Y-76573031D01*
X95413920Y-76547731D01*
X95385381Y-76517193D01*
X95353597Y-76483550D01*
X95320606Y-76448938D01*
X95288449Y-76415489D01*
X95259164Y-76385337D01*
X95234791Y-76360617D01*
X95217369Y-76343462D01*
X95210892Y-76337510D01*
X95193159Y-76321869D01*
X95172668Y-76303091D01*
X95168553Y-76299227D01*
X95142211Y-76275035D01*
X95106190Y-76242988D01*
X95062448Y-76204814D01*
X95018182Y-76166716D01*
X94987485Y-76141467D01*
X94947335Y-76109929D01*
X94900727Y-76074325D01*
X94850657Y-76036874D01*
X94800119Y-75999799D01*
X94752109Y-75965321D01*
X94709622Y-75935659D01*
X94678912Y-75915132D01*
X94648552Y-75895424D01*
X94620907Y-75877338D01*
X94599704Y-75863319D01*
X94590924Y-75857397D01*
X94557015Y-75835495D01*
X94512219Y-75808729D01*
X94458943Y-75778358D01*
X94399592Y-75745643D01*
X94336574Y-75711842D01*
X94272294Y-75678218D01*
X94209160Y-75646028D01*
X94149578Y-75616534D01*
X94095953Y-75590995D01*
X94050693Y-75570671D01*
X94018339Y-75557600D01*
X93990529Y-75547075D01*
X93956085Y-75533623D01*
X93922301Y-75520093D01*
X93921210Y-75519648D01*
X93835387Y-75486595D01*
X93738638Y-75452725D01*
X93634955Y-75419406D01*
X93581940Y-75403433D01*
X93537964Y-75390811D01*
X93490998Y-75377902D01*
X93443617Y-75365353D01*
X93398395Y-75353810D01*
X93357907Y-75343920D01*
X93324729Y-75336331D01*
X93301435Y-75331687D01*
X93291676Y-75330528D01*
X92487316Y-75330528D01*
X92472131Y-75326654D01*
X93272827Y-75326654D01*
X93276597Y-75330423D01*
X93280367Y-75326654D01*
X93276597Y-75322884D01*
X93272827Y-75326654D01*
X92472131Y-75326654D01*
X92461152Y-75323853D01*
X92415458Y-75312923D01*
X92369873Y-75302531D01*
X92328607Y-75293603D01*
X92295873Y-75287066D01*
X92285175Y-75285171D01*
X92253337Y-75278722D01*
X92223713Y-75270715D01*
X92202600Y-75262856D01*
X92202242Y-75262679D01*
X92189562Y-75257105D01*
X92176615Y-75253948D01*
X92159990Y-75253113D01*
X92136273Y-75254503D01*
X92102053Y-75258022D01*
X92089153Y-75259487D01*
X91850869Y-75292851D01*
X91621309Y-75337392D01*
X91398627Y-75393532D01*
X91180978Y-75461693D01*
X91135427Y-75477685D01*
X91060556Y-75504983D01*
X90992865Y-75530914D01*
X90928777Y-75557016D01*
X90864719Y-75584824D01*
X90797117Y-75615876D01*
X90722396Y-75651708D01*
X90665006Y-75679930D01*
X90571551Y-75726238D01*
X90130121Y-75726238D01*
X90131530Y-75725299D01*
X90172144Y-75698499D01*
X90211051Y-75673088D01*
X90245440Y-75650925D01*
X90272495Y-75633868D01*
X90287259Y-75624980D01*
X90305027Y-75614674D01*
X90328568Y-75600855D01*
X90340028Y-75594080D01*
X90365242Y-75579137D01*
X90395864Y-75560995D01*
X90419191Y-75547179D01*
X90446430Y-75531854D01*
X90484135Y-75511743D01*
X90529112Y-75488448D01*
X90578166Y-75463568D01*
X90628104Y-75438704D01*
X90675730Y-75415454D01*
X90717851Y-75395419D01*
X90751272Y-75380198D01*
X90760554Y-75376208D01*
X90834485Y-75345350D01*
X90897241Y-75319574D01*
X90951446Y-75297884D01*
X90999724Y-75279285D01*
X91044699Y-75262781D01*
X91088997Y-75247377D01*
X91135242Y-75232078D01*
X91169329Y-75221166D01*
X91224543Y-75204021D01*
X91282643Y-75186590D01*
X91341127Y-75169570D01*
X91397492Y-75153658D01*
X91449236Y-75139548D01*
X91493857Y-75127938D01*
X91528853Y-75119523D01*
X91550090Y-75115250D01*
X91567517Y-75112173D01*
X91596545Y-75106737D01*
X91633993Y-75099554D01*
X91676679Y-75091230D01*
X91708416Y-75084963D01*
X91758424Y-75075558D01*
X91810825Y-75066596D01*
X91860703Y-75058861D01*
X91903136Y-75053137D01*
X91919518Y-75051324D01*
X91960489Y-75047188D01*
X92010081Y-75042051D01*
X92061930Y-75036577D01*
X92108001Y-75031614D01*
X92149313Y-75028199D01*
X92202991Y-75025432D01*
X92266332Y-75023324D01*
X92336637Y-75021883D01*
X92411206Y-75021122D01*
X92487337Y-75021049D01*
X92562330Y-75021675D01*
G37*
D13*
%TO.C,D4*%
X129525000Y-112765000D02*
X129525000Y-114235000D01*
X129525000Y-114235000D02*
X131810000Y-114235000D01*
X131810000Y-112765000D02*
X129525000Y-112765000D01*
%TO.C,R10*%
X128870000Y-108913641D02*
X128870000Y-108606359D01*
X129630000Y-108913641D02*
X129630000Y-108606359D01*
%TO.C,SW3*%
X106300000Y-113680000D02*
X106300000Y-114470000D01*
X106900000Y-115480000D02*
X112600000Y-115480000D01*
X108150000Y-112630000D02*
X109850000Y-112630000D01*
X111150000Y-112630000D02*
X111350000Y-112630000D01*
X113200000Y-114470000D02*
X113200000Y-113680000D01*
%TO.C,U3*%
X96406250Y-91490000D02*
X94206250Y-91490000D01*
X96406250Y-91490000D02*
X98606250Y-91490000D01*
X96406250Y-97010000D02*
X94206250Y-97010000D01*
X96406250Y-97010000D02*
X98606250Y-97010000D01*
X92496250Y-91975000D02*
X92166250Y-92215000D01*
X92166250Y-91735000D01*
X92496250Y-91975000D01*
G36*
X92496250Y-91975000D02*
G01*
X92166250Y-92215000D01*
X92166250Y-91735000D01*
X92496250Y-91975000D01*
G37*
%TO.C,R21*%
X108903641Y-107620000D02*
X108596359Y-107620000D01*
X108903641Y-108380000D02*
X108596359Y-108380000D01*
%TO.C,R20*%
X124086359Y-111620000D02*
X124393641Y-111620000D01*
X124086359Y-112380000D02*
X124393641Y-112380000D01*
%TO.C,D5*%
X122950000Y-114235000D02*
X125235000Y-114235000D01*
X125235000Y-112765000D02*
X122950000Y-112765000D01*
X125235000Y-114235000D02*
X125235000Y-112765000D01*
D10*
%TO.C,L2*%
X123750000Y-96750000D02*
X123750000Y-96920000D01*
X123750000Y-101590000D02*
X123750000Y-101750000D01*
X128750000Y-96750000D02*
X123750000Y-96750000D01*
X128750000Y-96920000D02*
X128750000Y-96750000D01*
X128750000Y-101750000D02*
X123750000Y-101750000D01*
X128750000Y-101750000D02*
X128750000Y-101590000D01*
D13*
%TO.C,R12*%
X118620000Y-89836359D02*
X118620000Y-90143641D01*
X119380000Y-89836359D02*
X119380000Y-90143641D01*
%TO.C,C16*%
X101548414Y-86470000D02*
X101764086Y-86470000D01*
X101548414Y-87190000D02*
X101764086Y-87190000D01*
%TO.C,U5*%
X127750000Y-104190000D02*
X126950000Y-104190000D01*
X127750000Y-104190000D02*
X128550000Y-104190000D01*
X127750000Y-107310000D02*
X126950000Y-107310000D01*
X127750000Y-107310000D02*
X128550000Y-107310000D01*
X126450000Y-104240000D02*
X126210000Y-103910000D01*
X126690000Y-103910000D01*
X126450000Y-104240000D01*
G36*
X126450000Y-104240000D02*
G01*
X126210000Y-103910000D01*
X126690000Y-103910000D01*
X126450000Y-104240000D01*
G37*
%TO.C,C1*%
X125990000Y-80834420D02*
X125990000Y-81115580D01*
X127010000Y-80834420D02*
X127010000Y-81115580D01*
%TO.C,C13*%
X115890000Y-100357836D02*
X115890000Y-100142164D01*
X116610000Y-100357836D02*
X116610000Y-100142164D01*
%TO.C,R3*%
X143832500Y-83596359D02*
X143832500Y-83903641D01*
X144592500Y-83596359D02*
X144592500Y-83903641D01*
D10*
%TO.C,Q2*%
X105550000Y-105190000D02*
X105550000Y-105820000D01*
X106950000Y-104000000D02*
X105950000Y-104000000D01*
X106950000Y-104000000D02*
X106950000Y-104870000D01*
X106950000Y-106140000D02*
X106950000Y-107000000D01*
X106950000Y-107000000D02*
X105950000Y-107000000D01*
D13*
%TO.C,R4*%
X140153641Y-108620000D02*
X139846359Y-108620000D01*
X140153641Y-109380000D02*
X139846359Y-109380000D01*
%TO.C,C19*%
X101764086Y-95140000D02*
X101548414Y-95140000D01*
X101764086Y-95860000D02*
X101548414Y-95860000D01*
%TO.C,C17*%
X101764086Y-88470000D02*
X101548414Y-88470000D01*
X101764086Y-89190000D02*
X101548414Y-89190000D01*
%TO.C,C6*%
X110337836Y-86677500D02*
X110122164Y-86677500D01*
X110337836Y-87397500D02*
X110122164Y-87397500D01*
%TO.C,SW1*%
X99550000Y-66110000D02*
X99550000Y-66900000D01*
X101600000Y-67950000D02*
X101400000Y-67950000D01*
X104600000Y-67950000D02*
X102900000Y-67950000D01*
X105850000Y-65100000D02*
X100150000Y-65100000D01*
X106450000Y-66900000D02*
X106450000Y-66110000D01*
%TD*%
D15*
%TO.C,U2*%
X95656250Y-89250000D03*
%TD*%
M02*
