%TF.GenerationSoftware,KiCad,Pcbnew,9.0.2*%
%TF.CreationDate,2025-12-02T02:07:46-05:00*%
%TF.ProjectId,VolleyBot,566f6c6c-6579-4426-9f74-2e6b69636164,rev?*%
%TF.SameCoordinates,Original*%
%TF.FileFunction,Legend,Top*%
%TF.FilePolarity,Positive*%
%FSLAX46Y46*%
G04 Gerber Fmt 4.6, Leading zero omitted, Abs format (unit mm)*
G04 Created by KiCad (PCBNEW 9.0.2) date 2025-12-02 02:07:46*
%MOMM*%
%LPD*%
G01*
G04 APERTURE LIST*
%ADD10C,0.250000*%
%ADD11C,0.750000*%
%ADD12C,0.375000*%
%ADD13C,0.120000*%
%ADD14C,0.150000*%
%ADD15C,0.300000*%
%ADD16C,0.000000*%
G04 APERTURE END LIST*
D10*
X105735901Y-98130865D02*
X105878758Y-98178484D01*
X105878758Y-98178484D02*
X105926377Y-98226103D01*
X105926377Y-98226103D02*
X105973996Y-98321341D01*
X105973996Y-98321341D02*
X105973996Y-98464198D01*
X105973996Y-98464198D02*
X105926377Y-98559436D01*
X105926377Y-98559436D02*
X105878758Y-98607056D01*
X105878758Y-98607056D02*
X105783520Y-98654675D01*
X105783520Y-98654675D02*
X105402568Y-98654675D01*
X105402568Y-98654675D02*
X105402568Y-97654675D01*
X105402568Y-97654675D02*
X105735901Y-97654675D01*
X105735901Y-97654675D02*
X105831139Y-97702294D01*
X105831139Y-97702294D02*
X105878758Y-97749913D01*
X105878758Y-97749913D02*
X105926377Y-97845151D01*
X105926377Y-97845151D02*
X105926377Y-97940389D01*
X105926377Y-97940389D02*
X105878758Y-98035627D01*
X105878758Y-98035627D02*
X105831139Y-98083246D01*
X105831139Y-98083246D02*
X105735901Y-98130865D01*
X105735901Y-98130865D02*
X105402568Y-98130865D01*
X106354949Y-98368960D02*
X106831139Y-98368960D01*
X106259711Y-98654675D02*
X106593044Y-97654675D01*
X106593044Y-97654675D02*
X106926377Y-98654675D01*
X107116854Y-97654675D02*
X107688282Y-97654675D01*
X107402568Y-98654675D02*
X107402568Y-97654675D01*
X107878759Y-97654675D02*
X108450187Y-97654675D01*
X108164473Y-98654675D02*
X108164473Y-97654675D01*
X105973996Y-100169380D02*
X105926377Y-100217000D01*
X105926377Y-100217000D02*
X105783520Y-100264619D01*
X105783520Y-100264619D02*
X105688282Y-100264619D01*
X105688282Y-100264619D02*
X105545425Y-100217000D01*
X105545425Y-100217000D02*
X105450187Y-100121761D01*
X105450187Y-100121761D02*
X105402568Y-100026523D01*
X105402568Y-100026523D02*
X105354949Y-99836047D01*
X105354949Y-99836047D02*
X105354949Y-99693190D01*
X105354949Y-99693190D02*
X105402568Y-99502714D01*
X105402568Y-99502714D02*
X105450187Y-99407476D01*
X105450187Y-99407476D02*
X105545425Y-99312238D01*
X105545425Y-99312238D02*
X105688282Y-99264619D01*
X105688282Y-99264619D02*
X105783520Y-99264619D01*
X105783520Y-99264619D02*
X105926377Y-99312238D01*
X105926377Y-99312238D02*
X105973996Y-99359857D01*
X106402568Y-100264619D02*
X106402568Y-99264619D01*
X106402568Y-99740809D02*
X106973996Y-99740809D01*
X106973996Y-100264619D02*
X106973996Y-99264619D01*
X108021615Y-100264619D02*
X107688282Y-99788428D01*
X107450187Y-100264619D02*
X107450187Y-99264619D01*
X107450187Y-99264619D02*
X107831139Y-99264619D01*
X107831139Y-99264619D02*
X107926377Y-99312238D01*
X107926377Y-99312238D02*
X107973996Y-99359857D01*
X107973996Y-99359857D02*
X108021615Y-99455095D01*
X108021615Y-99455095D02*
X108021615Y-99597952D01*
X108021615Y-99597952D02*
X107973996Y-99693190D01*
X107973996Y-99693190D02*
X107926377Y-99740809D01*
X107926377Y-99740809D02*
X107831139Y-99788428D01*
X107831139Y-99788428D02*
X107450187Y-99788428D01*
X108973996Y-99312238D02*
X108878758Y-99264619D01*
X108878758Y-99264619D02*
X108735901Y-99264619D01*
X108735901Y-99264619D02*
X108593044Y-99312238D01*
X108593044Y-99312238D02*
X108497806Y-99407476D01*
X108497806Y-99407476D02*
X108450187Y-99502714D01*
X108450187Y-99502714D02*
X108402568Y-99693190D01*
X108402568Y-99693190D02*
X108402568Y-99836047D01*
X108402568Y-99836047D02*
X108450187Y-100026523D01*
X108450187Y-100026523D02*
X108497806Y-100121761D01*
X108497806Y-100121761D02*
X108593044Y-100217000D01*
X108593044Y-100217000D02*
X108735901Y-100264619D01*
X108735901Y-100264619D02*
X108831139Y-100264619D01*
X108831139Y-100264619D02*
X108973996Y-100217000D01*
X108973996Y-100217000D02*
X109021615Y-100169380D01*
X109021615Y-100169380D02*
X109021615Y-99836047D01*
X109021615Y-99836047D02*
X108831139Y-99836047D01*
X87114619Y-103097431D02*
X86114619Y-103097431D01*
X86114619Y-103097431D02*
X86828904Y-102764098D01*
X86828904Y-102764098D02*
X86114619Y-102430765D01*
X86114619Y-102430765D02*
X87114619Y-102430765D01*
X86114619Y-101764098D02*
X86114619Y-101573622D01*
X86114619Y-101573622D02*
X86162238Y-101478384D01*
X86162238Y-101478384D02*
X86257476Y-101383146D01*
X86257476Y-101383146D02*
X86447952Y-101335527D01*
X86447952Y-101335527D02*
X86781285Y-101335527D01*
X86781285Y-101335527D02*
X86971761Y-101383146D01*
X86971761Y-101383146D02*
X87067000Y-101478384D01*
X87067000Y-101478384D02*
X87114619Y-101573622D01*
X87114619Y-101573622D02*
X87114619Y-101764098D01*
X87114619Y-101764098D02*
X87067000Y-101859336D01*
X87067000Y-101859336D02*
X86971761Y-101954574D01*
X86971761Y-101954574D02*
X86781285Y-102002193D01*
X86781285Y-102002193D02*
X86447952Y-102002193D01*
X86447952Y-102002193D02*
X86257476Y-101954574D01*
X86257476Y-101954574D02*
X86162238Y-101859336D01*
X86162238Y-101859336D02*
X86114619Y-101764098D01*
X86114619Y-101049812D02*
X86114619Y-100478384D01*
X87114619Y-100764098D02*
X86114619Y-100764098D01*
X86114619Y-99954574D02*
X86114619Y-99764098D01*
X86114619Y-99764098D02*
X86162238Y-99668860D01*
X86162238Y-99668860D02*
X86257476Y-99573622D01*
X86257476Y-99573622D02*
X86447952Y-99526003D01*
X86447952Y-99526003D02*
X86781285Y-99526003D01*
X86781285Y-99526003D02*
X86971761Y-99573622D01*
X86971761Y-99573622D02*
X87067000Y-99668860D01*
X87067000Y-99668860D02*
X87114619Y-99764098D01*
X87114619Y-99764098D02*
X87114619Y-99954574D01*
X87114619Y-99954574D02*
X87067000Y-100049812D01*
X87067000Y-100049812D02*
X86971761Y-100145050D01*
X86971761Y-100145050D02*
X86781285Y-100192669D01*
X86781285Y-100192669D02*
X86447952Y-100192669D01*
X86447952Y-100192669D02*
X86257476Y-100145050D01*
X86257476Y-100145050D02*
X86162238Y-100049812D01*
X86162238Y-100049812D02*
X86114619Y-99954574D01*
X87114619Y-98526003D02*
X86638428Y-98859336D01*
X87114619Y-99097431D02*
X86114619Y-99097431D01*
X86114619Y-99097431D02*
X86114619Y-98716479D01*
X86114619Y-98716479D02*
X86162238Y-98621241D01*
X86162238Y-98621241D02*
X86209857Y-98573622D01*
X86209857Y-98573622D02*
X86305095Y-98526003D01*
X86305095Y-98526003D02*
X86447952Y-98526003D01*
X86447952Y-98526003D02*
X86543190Y-98573622D01*
X86543190Y-98573622D02*
X86590809Y-98621241D01*
X86590809Y-98621241D02*
X86638428Y-98716479D01*
X86638428Y-98716479D02*
X86638428Y-99097431D01*
X86114619Y-97430764D02*
X86114619Y-96811717D01*
X86114619Y-96811717D02*
X86495571Y-97145050D01*
X86495571Y-97145050D02*
X86495571Y-97002193D01*
X86495571Y-97002193D02*
X86543190Y-96906955D01*
X86543190Y-96906955D02*
X86590809Y-96859336D01*
X86590809Y-96859336D02*
X86686047Y-96811717D01*
X86686047Y-96811717D02*
X86924142Y-96811717D01*
X86924142Y-96811717D02*
X87019380Y-96859336D01*
X87019380Y-96859336D02*
X87067000Y-96906955D01*
X87067000Y-96906955D02*
X87114619Y-97002193D01*
X87114619Y-97002193D02*
X87114619Y-97287907D01*
X87114619Y-97287907D02*
X87067000Y-97383145D01*
X87067000Y-97383145D02*
X87019380Y-97430764D01*
X138352568Y-115839619D02*
X138352568Y-114839619D01*
X138352568Y-114839619D02*
X138733520Y-114839619D01*
X138733520Y-114839619D02*
X138828758Y-114887238D01*
X138828758Y-114887238D02*
X138876377Y-114934857D01*
X138876377Y-114934857D02*
X138923996Y-115030095D01*
X138923996Y-115030095D02*
X138923996Y-115172952D01*
X138923996Y-115172952D02*
X138876377Y-115268190D01*
X138876377Y-115268190D02*
X138828758Y-115315809D01*
X138828758Y-115315809D02*
X138733520Y-115363428D01*
X138733520Y-115363428D02*
X138352568Y-115363428D01*
X139257330Y-114839619D02*
X139495425Y-115839619D01*
X139495425Y-115839619D02*
X139685901Y-115125333D01*
X139685901Y-115125333D02*
X139876377Y-115839619D01*
X139876377Y-115839619D02*
X140114473Y-114839619D01*
X141066853Y-115839619D02*
X140733520Y-115363428D01*
X140495425Y-115839619D02*
X140495425Y-114839619D01*
X140495425Y-114839619D02*
X140876377Y-114839619D01*
X140876377Y-114839619D02*
X140971615Y-114887238D01*
X140971615Y-114887238D02*
X141019234Y-114934857D01*
X141019234Y-114934857D02*
X141066853Y-115030095D01*
X141066853Y-115030095D02*
X141066853Y-115172952D01*
X141066853Y-115172952D02*
X141019234Y-115268190D01*
X141019234Y-115268190D02*
X140971615Y-115315809D01*
X140971615Y-115315809D02*
X140876377Y-115363428D01*
X140876377Y-115363428D02*
X140495425Y-115363428D01*
D11*
X100479135Y-76893857D02*
X101479135Y-79893857D01*
X101479135Y-79893857D02*
X102479135Y-76893857D01*
X103907707Y-79893857D02*
X103621992Y-79751000D01*
X103621992Y-79751000D02*
X103479135Y-79608142D01*
X103479135Y-79608142D02*
X103336278Y-79322428D01*
X103336278Y-79322428D02*
X103336278Y-78465285D01*
X103336278Y-78465285D02*
X103479135Y-78179571D01*
X103479135Y-78179571D02*
X103621992Y-78036714D01*
X103621992Y-78036714D02*
X103907707Y-77893857D01*
X103907707Y-77893857D02*
X104336278Y-77893857D01*
X104336278Y-77893857D02*
X104621992Y-78036714D01*
X104621992Y-78036714D02*
X104764850Y-78179571D01*
X104764850Y-78179571D02*
X104907707Y-78465285D01*
X104907707Y-78465285D02*
X104907707Y-79322428D01*
X104907707Y-79322428D02*
X104764850Y-79608142D01*
X104764850Y-79608142D02*
X104621992Y-79751000D01*
X104621992Y-79751000D02*
X104336278Y-79893857D01*
X104336278Y-79893857D02*
X103907707Y-79893857D01*
X106621993Y-79893857D02*
X106336278Y-79751000D01*
X106336278Y-79751000D02*
X106193421Y-79465285D01*
X106193421Y-79465285D02*
X106193421Y-76893857D01*
X108193422Y-79893857D02*
X107907707Y-79751000D01*
X107907707Y-79751000D02*
X107764850Y-79465285D01*
X107764850Y-79465285D02*
X107764850Y-76893857D01*
X110479136Y-79751000D02*
X110193422Y-79893857D01*
X110193422Y-79893857D02*
X109621994Y-79893857D01*
X109621994Y-79893857D02*
X109336279Y-79751000D01*
X109336279Y-79751000D02*
X109193422Y-79465285D01*
X109193422Y-79465285D02*
X109193422Y-78322428D01*
X109193422Y-78322428D02*
X109336279Y-78036714D01*
X109336279Y-78036714D02*
X109621994Y-77893857D01*
X109621994Y-77893857D02*
X110193422Y-77893857D01*
X110193422Y-77893857D02*
X110479136Y-78036714D01*
X110479136Y-78036714D02*
X110621994Y-78322428D01*
X110621994Y-78322428D02*
X110621994Y-78608142D01*
X110621994Y-78608142D02*
X109193422Y-78893857D01*
X111621994Y-77893857D02*
X112336280Y-79893857D01*
X113050565Y-77893857D02*
X112336280Y-79893857D01*
X112336280Y-79893857D02*
X112050565Y-80608142D01*
X112050565Y-80608142D02*
X111907708Y-80751000D01*
X111907708Y-80751000D02*
X111621994Y-80893857D01*
X115193422Y-78322428D02*
X115621994Y-78465285D01*
X115621994Y-78465285D02*
X115764851Y-78608142D01*
X115764851Y-78608142D02*
X115907708Y-78893857D01*
X115907708Y-78893857D02*
X115907708Y-79322428D01*
X115907708Y-79322428D02*
X115764851Y-79608142D01*
X115764851Y-79608142D02*
X115621994Y-79751000D01*
X115621994Y-79751000D02*
X115336279Y-79893857D01*
X115336279Y-79893857D02*
X114193422Y-79893857D01*
X114193422Y-79893857D02*
X114193422Y-76893857D01*
X114193422Y-76893857D02*
X115193422Y-76893857D01*
X115193422Y-76893857D02*
X115479137Y-77036714D01*
X115479137Y-77036714D02*
X115621994Y-77179571D01*
X115621994Y-77179571D02*
X115764851Y-77465285D01*
X115764851Y-77465285D02*
X115764851Y-77751000D01*
X115764851Y-77751000D02*
X115621994Y-78036714D01*
X115621994Y-78036714D02*
X115479137Y-78179571D01*
X115479137Y-78179571D02*
X115193422Y-78322428D01*
X115193422Y-78322428D02*
X114193422Y-78322428D01*
X117621994Y-79893857D02*
X117336279Y-79751000D01*
X117336279Y-79751000D02*
X117193422Y-79608142D01*
X117193422Y-79608142D02*
X117050565Y-79322428D01*
X117050565Y-79322428D02*
X117050565Y-78465285D01*
X117050565Y-78465285D02*
X117193422Y-78179571D01*
X117193422Y-78179571D02*
X117336279Y-78036714D01*
X117336279Y-78036714D02*
X117621994Y-77893857D01*
X117621994Y-77893857D02*
X118050565Y-77893857D01*
X118050565Y-77893857D02*
X118336279Y-78036714D01*
X118336279Y-78036714D02*
X118479137Y-78179571D01*
X118479137Y-78179571D02*
X118621994Y-78465285D01*
X118621994Y-78465285D02*
X118621994Y-79322428D01*
X118621994Y-79322428D02*
X118479137Y-79608142D01*
X118479137Y-79608142D02*
X118336279Y-79751000D01*
X118336279Y-79751000D02*
X118050565Y-79893857D01*
X118050565Y-79893857D02*
X117621994Y-79893857D01*
X119479137Y-77893857D02*
X120621994Y-77893857D01*
X119907708Y-76893857D02*
X119907708Y-79465285D01*
X119907708Y-79465285D02*
X120050565Y-79751000D01*
X120050565Y-79751000D02*
X120336280Y-79893857D01*
X120336280Y-79893857D02*
X120621994Y-79893857D01*
D10*
X124210901Y-109680865D02*
X124353758Y-109728484D01*
X124353758Y-109728484D02*
X124401377Y-109776103D01*
X124401377Y-109776103D02*
X124448996Y-109871341D01*
X124448996Y-109871341D02*
X124448996Y-110014198D01*
X124448996Y-110014198D02*
X124401377Y-110109436D01*
X124401377Y-110109436D02*
X124353758Y-110157056D01*
X124353758Y-110157056D02*
X124258520Y-110204675D01*
X124258520Y-110204675D02*
X123877568Y-110204675D01*
X123877568Y-110204675D02*
X123877568Y-109204675D01*
X123877568Y-109204675D02*
X124210901Y-109204675D01*
X124210901Y-109204675D02*
X124306139Y-109252294D01*
X124306139Y-109252294D02*
X124353758Y-109299913D01*
X124353758Y-109299913D02*
X124401377Y-109395151D01*
X124401377Y-109395151D02*
X124401377Y-109490389D01*
X124401377Y-109490389D02*
X124353758Y-109585627D01*
X124353758Y-109585627D02*
X124306139Y-109633246D01*
X124306139Y-109633246D02*
X124210901Y-109680865D01*
X124210901Y-109680865D02*
X123877568Y-109680865D01*
X124829949Y-109918960D02*
X125306139Y-109918960D01*
X124734711Y-110204675D02*
X125068044Y-109204675D01*
X125068044Y-109204675D02*
X125401377Y-110204675D01*
X125591854Y-109204675D02*
X126163282Y-109204675D01*
X125877568Y-110204675D02*
X125877568Y-109204675D01*
X126353759Y-109204675D02*
X126925187Y-109204675D01*
X126639473Y-110204675D02*
X126639473Y-109204675D01*
X124163282Y-112195571D02*
X124115663Y-112147952D01*
X124115663Y-112147952D02*
X124020425Y-112005095D01*
X124020425Y-112005095D02*
X123972806Y-111909857D01*
X123972806Y-111909857D02*
X123925187Y-111767000D01*
X123925187Y-111767000D02*
X123877568Y-111528904D01*
X123877568Y-111528904D02*
X123877568Y-111338428D01*
X123877568Y-111338428D02*
X123925187Y-111100333D01*
X123925187Y-111100333D02*
X123972806Y-110957476D01*
X123972806Y-110957476D02*
X124020425Y-110862238D01*
X124020425Y-110862238D02*
X124115663Y-110719380D01*
X124115663Y-110719380D02*
X124163282Y-110671761D01*
X124734711Y-110814619D02*
X124925187Y-110814619D01*
X124925187Y-110814619D02*
X125020425Y-110862238D01*
X125020425Y-110862238D02*
X125115663Y-110957476D01*
X125115663Y-110957476D02*
X125163282Y-111147952D01*
X125163282Y-111147952D02*
X125163282Y-111481285D01*
X125163282Y-111481285D02*
X125115663Y-111671761D01*
X125115663Y-111671761D02*
X125020425Y-111767000D01*
X125020425Y-111767000D02*
X124925187Y-111814619D01*
X124925187Y-111814619D02*
X124734711Y-111814619D01*
X124734711Y-111814619D02*
X124639473Y-111767000D01*
X124639473Y-111767000D02*
X124544235Y-111671761D01*
X124544235Y-111671761D02*
X124496616Y-111481285D01*
X124496616Y-111481285D02*
X124496616Y-111147952D01*
X124496616Y-111147952D02*
X124544235Y-110957476D01*
X124544235Y-110957476D02*
X124639473Y-110862238D01*
X124639473Y-110862238D02*
X124734711Y-110814619D01*
X126306139Y-110767000D02*
X125448997Y-112052714D01*
X126639473Y-111814619D02*
X126639473Y-110814619D01*
X127020425Y-112195571D02*
X127068044Y-112147952D01*
X127068044Y-112147952D02*
X127163282Y-112005095D01*
X127163282Y-112005095D02*
X127210901Y-111909857D01*
X127210901Y-111909857D02*
X127258520Y-111767000D01*
X127258520Y-111767000D02*
X127306139Y-111528904D01*
X127306139Y-111528904D02*
X127306139Y-111338428D01*
X127306139Y-111338428D02*
X127258520Y-111100333D01*
X127258520Y-111100333D02*
X127210901Y-110957476D01*
X127210901Y-110957476D02*
X127163282Y-110862238D01*
X127163282Y-110862238D02*
X127068044Y-110719380D01*
X127068044Y-110719380D02*
X127020425Y-110671761D01*
X129933401Y-115375809D02*
X130076258Y-115423428D01*
X130076258Y-115423428D02*
X130123877Y-115471047D01*
X130123877Y-115471047D02*
X130171496Y-115566285D01*
X130171496Y-115566285D02*
X130171496Y-115709142D01*
X130171496Y-115709142D02*
X130123877Y-115804380D01*
X130123877Y-115804380D02*
X130076258Y-115852000D01*
X130076258Y-115852000D02*
X129981020Y-115899619D01*
X129981020Y-115899619D02*
X129600068Y-115899619D01*
X129600068Y-115899619D02*
X129600068Y-114899619D01*
X129600068Y-114899619D02*
X129933401Y-114899619D01*
X129933401Y-114899619D02*
X130028639Y-114947238D01*
X130028639Y-114947238D02*
X130076258Y-114994857D01*
X130076258Y-114994857D02*
X130123877Y-115090095D01*
X130123877Y-115090095D02*
X130123877Y-115185333D01*
X130123877Y-115185333D02*
X130076258Y-115280571D01*
X130076258Y-115280571D02*
X130028639Y-115328190D01*
X130028639Y-115328190D02*
X129933401Y-115375809D01*
X129933401Y-115375809D02*
X129600068Y-115375809D01*
X130552449Y-115613904D02*
X131028639Y-115613904D01*
X130457211Y-115899619D02*
X130790544Y-114899619D01*
X130790544Y-114899619D02*
X131123877Y-115899619D01*
X131314354Y-114899619D02*
X131885782Y-114899619D01*
X131600068Y-115899619D02*
X131600068Y-114899619D01*
X132076259Y-114899619D02*
X132647687Y-114899619D01*
X132361973Y-115899619D02*
X132361973Y-114899619D01*
X138427568Y-83979675D02*
X138427568Y-82979675D01*
X138427568Y-82979675D02*
X138665663Y-82979675D01*
X138665663Y-82979675D02*
X138808520Y-83027294D01*
X138808520Y-83027294D02*
X138903758Y-83122532D01*
X138903758Y-83122532D02*
X138951377Y-83217770D01*
X138951377Y-83217770D02*
X138998996Y-83408246D01*
X138998996Y-83408246D02*
X138998996Y-83551103D01*
X138998996Y-83551103D02*
X138951377Y-83741579D01*
X138951377Y-83741579D02*
X138903758Y-83836817D01*
X138903758Y-83836817D02*
X138808520Y-83932056D01*
X138808520Y-83932056D02*
X138665663Y-83979675D01*
X138665663Y-83979675D02*
X138427568Y-83979675D01*
X139427568Y-83455865D02*
X139760901Y-83455865D01*
X139903758Y-83979675D02*
X139427568Y-83979675D01*
X139427568Y-83979675D02*
X139427568Y-82979675D01*
X139427568Y-82979675D02*
X139903758Y-82979675D01*
X140665663Y-83455865D02*
X140808520Y-83503484D01*
X140808520Y-83503484D02*
X140856139Y-83551103D01*
X140856139Y-83551103D02*
X140903758Y-83646341D01*
X140903758Y-83646341D02*
X140903758Y-83789198D01*
X140903758Y-83789198D02*
X140856139Y-83884436D01*
X140856139Y-83884436D02*
X140808520Y-83932056D01*
X140808520Y-83932056D02*
X140713282Y-83979675D01*
X140713282Y-83979675D02*
X140332330Y-83979675D01*
X140332330Y-83979675D02*
X140332330Y-82979675D01*
X140332330Y-82979675D02*
X140665663Y-82979675D01*
X140665663Y-82979675D02*
X140760901Y-83027294D01*
X140760901Y-83027294D02*
X140808520Y-83074913D01*
X140808520Y-83074913D02*
X140856139Y-83170151D01*
X140856139Y-83170151D02*
X140856139Y-83265389D01*
X140856139Y-83265389D02*
X140808520Y-83360627D01*
X140808520Y-83360627D02*
X140760901Y-83408246D01*
X140760901Y-83408246D02*
X140665663Y-83455865D01*
X140665663Y-83455865D02*
X140332330Y-83455865D01*
X141332330Y-82979675D02*
X141332330Y-83789198D01*
X141332330Y-83789198D02*
X141379949Y-83884436D01*
X141379949Y-83884436D02*
X141427568Y-83932056D01*
X141427568Y-83932056D02*
X141522806Y-83979675D01*
X141522806Y-83979675D02*
X141713282Y-83979675D01*
X141713282Y-83979675D02*
X141808520Y-83932056D01*
X141808520Y-83932056D02*
X141856139Y-83884436D01*
X141856139Y-83884436D02*
X141903758Y-83789198D01*
X141903758Y-83789198D02*
X141903758Y-82979675D01*
X142903758Y-83027294D02*
X142808520Y-82979675D01*
X142808520Y-82979675D02*
X142665663Y-82979675D01*
X142665663Y-82979675D02*
X142522806Y-83027294D01*
X142522806Y-83027294D02*
X142427568Y-83122532D01*
X142427568Y-83122532D02*
X142379949Y-83217770D01*
X142379949Y-83217770D02*
X142332330Y-83408246D01*
X142332330Y-83408246D02*
X142332330Y-83551103D01*
X142332330Y-83551103D02*
X142379949Y-83741579D01*
X142379949Y-83741579D02*
X142427568Y-83836817D01*
X142427568Y-83836817D02*
X142522806Y-83932056D01*
X142522806Y-83932056D02*
X142665663Y-83979675D01*
X142665663Y-83979675D02*
X142760901Y-83979675D01*
X142760901Y-83979675D02*
X142903758Y-83932056D01*
X142903758Y-83932056D02*
X142951377Y-83884436D01*
X142951377Y-83884436D02*
X142951377Y-83551103D01*
X142951377Y-83551103D02*
X142760901Y-83551103D01*
X138903758Y-85589619D02*
X138427568Y-85589619D01*
X138427568Y-85589619D02*
X138427568Y-84589619D01*
X139237092Y-85065809D02*
X139570425Y-85065809D01*
X139713282Y-85589619D02*
X139237092Y-85589619D01*
X139237092Y-85589619D02*
X139237092Y-84589619D01*
X139237092Y-84589619D02*
X139713282Y-84589619D01*
X140141854Y-85589619D02*
X140141854Y-84589619D01*
X140141854Y-84589619D02*
X140379949Y-84589619D01*
X140379949Y-84589619D02*
X140522806Y-84637238D01*
X140522806Y-84637238D02*
X140618044Y-84732476D01*
X140618044Y-84732476D02*
X140665663Y-84827714D01*
X140665663Y-84827714D02*
X140713282Y-85018190D01*
X140713282Y-85018190D02*
X140713282Y-85161047D01*
X140713282Y-85161047D02*
X140665663Y-85351523D01*
X140665663Y-85351523D02*
X140618044Y-85446761D01*
X140618044Y-85446761D02*
X140522806Y-85542000D01*
X140522806Y-85542000D02*
X140379949Y-85589619D01*
X140379949Y-85589619D02*
X140141854Y-85589619D01*
X87114619Y-79347431D02*
X86114619Y-79347431D01*
X86114619Y-79347431D02*
X86828904Y-79014098D01*
X86828904Y-79014098D02*
X86114619Y-78680765D01*
X86114619Y-78680765D02*
X87114619Y-78680765D01*
X86114619Y-78014098D02*
X86114619Y-77823622D01*
X86114619Y-77823622D02*
X86162238Y-77728384D01*
X86162238Y-77728384D02*
X86257476Y-77633146D01*
X86257476Y-77633146D02*
X86447952Y-77585527D01*
X86447952Y-77585527D02*
X86781285Y-77585527D01*
X86781285Y-77585527D02*
X86971761Y-77633146D01*
X86971761Y-77633146D02*
X87067000Y-77728384D01*
X87067000Y-77728384D02*
X87114619Y-77823622D01*
X87114619Y-77823622D02*
X87114619Y-78014098D01*
X87114619Y-78014098D02*
X87067000Y-78109336D01*
X87067000Y-78109336D02*
X86971761Y-78204574D01*
X86971761Y-78204574D02*
X86781285Y-78252193D01*
X86781285Y-78252193D02*
X86447952Y-78252193D01*
X86447952Y-78252193D02*
X86257476Y-78204574D01*
X86257476Y-78204574D02*
X86162238Y-78109336D01*
X86162238Y-78109336D02*
X86114619Y-78014098D01*
X86114619Y-77299812D02*
X86114619Y-76728384D01*
X87114619Y-77014098D02*
X86114619Y-77014098D01*
X86114619Y-76204574D02*
X86114619Y-76014098D01*
X86114619Y-76014098D02*
X86162238Y-75918860D01*
X86162238Y-75918860D02*
X86257476Y-75823622D01*
X86257476Y-75823622D02*
X86447952Y-75776003D01*
X86447952Y-75776003D02*
X86781285Y-75776003D01*
X86781285Y-75776003D02*
X86971761Y-75823622D01*
X86971761Y-75823622D02*
X87067000Y-75918860D01*
X87067000Y-75918860D02*
X87114619Y-76014098D01*
X87114619Y-76014098D02*
X87114619Y-76204574D01*
X87114619Y-76204574D02*
X87067000Y-76299812D01*
X87067000Y-76299812D02*
X86971761Y-76395050D01*
X86971761Y-76395050D02*
X86781285Y-76442669D01*
X86781285Y-76442669D02*
X86447952Y-76442669D01*
X86447952Y-76442669D02*
X86257476Y-76395050D01*
X86257476Y-76395050D02*
X86162238Y-76299812D01*
X86162238Y-76299812D02*
X86114619Y-76204574D01*
X87114619Y-74776003D02*
X86638428Y-75109336D01*
X87114619Y-75347431D02*
X86114619Y-75347431D01*
X86114619Y-75347431D02*
X86114619Y-74966479D01*
X86114619Y-74966479D02*
X86162238Y-74871241D01*
X86162238Y-74871241D02*
X86209857Y-74823622D01*
X86209857Y-74823622D02*
X86305095Y-74776003D01*
X86305095Y-74776003D02*
X86447952Y-74776003D01*
X86447952Y-74776003D02*
X86543190Y-74823622D01*
X86543190Y-74823622D02*
X86590809Y-74871241D01*
X86590809Y-74871241D02*
X86638428Y-74966479D01*
X86638428Y-74966479D02*
X86638428Y-75347431D01*
X87114619Y-73061717D02*
X87114619Y-73633145D01*
X87114619Y-73347431D02*
X86114619Y-73347431D01*
X86114619Y-73347431D02*
X86257476Y-73442669D01*
X86257476Y-73442669D02*
X86352714Y-73537907D01*
X86352714Y-73537907D02*
X86400333Y-73633145D01*
X114327568Y-76064619D02*
X114327568Y-75064619D01*
X114803758Y-76064619D02*
X114803758Y-75064619D01*
X114803758Y-75064619D02*
X115137091Y-75778904D01*
X115137091Y-75778904D02*
X115470424Y-75064619D01*
X115470424Y-75064619D02*
X115470424Y-76064619D01*
X115946615Y-75064619D02*
X115946615Y-75874142D01*
X115946615Y-75874142D02*
X115994234Y-75969380D01*
X115994234Y-75969380D02*
X116041853Y-76017000D01*
X116041853Y-76017000D02*
X116137091Y-76064619D01*
X116137091Y-76064619D02*
X116327567Y-76064619D01*
X116327567Y-76064619D02*
X116422805Y-76017000D01*
X116422805Y-76017000D02*
X116470424Y-75969380D01*
X116470424Y-75969380D02*
X116518043Y-75874142D01*
X116518043Y-75874142D02*
X116518043Y-75064619D01*
X130054949Y-75967000D02*
X130197806Y-76014619D01*
X130197806Y-76014619D02*
X130435901Y-76014619D01*
X130435901Y-76014619D02*
X130531139Y-75967000D01*
X130531139Y-75967000D02*
X130578758Y-75919380D01*
X130578758Y-75919380D02*
X130626377Y-75824142D01*
X130626377Y-75824142D02*
X130626377Y-75728904D01*
X130626377Y-75728904D02*
X130578758Y-75633666D01*
X130578758Y-75633666D02*
X130531139Y-75586047D01*
X130531139Y-75586047D02*
X130435901Y-75538428D01*
X130435901Y-75538428D02*
X130245425Y-75490809D01*
X130245425Y-75490809D02*
X130150187Y-75443190D01*
X130150187Y-75443190D02*
X130102568Y-75395571D01*
X130102568Y-75395571D02*
X130054949Y-75300333D01*
X130054949Y-75300333D02*
X130054949Y-75205095D01*
X130054949Y-75205095D02*
X130102568Y-75109857D01*
X130102568Y-75109857D02*
X130150187Y-75062238D01*
X130150187Y-75062238D02*
X130245425Y-75014619D01*
X130245425Y-75014619D02*
X130483520Y-75014619D01*
X130483520Y-75014619D02*
X130626377Y-75062238D01*
X130959711Y-75014619D02*
X131197806Y-76014619D01*
X131197806Y-76014619D02*
X131388282Y-75300333D01*
X131388282Y-75300333D02*
X131578758Y-76014619D01*
X131578758Y-76014619D02*
X131816854Y-75014619D01*
X132197806Y-76014619D02*
X132197806Y-75014619D01*
X132197806Y-75014619D02*
X132435901Y-75014619D01*
X132435901Y-75014619D02*
X132578758Y-75062238D01*
X132578758Y-75062238D02*
X132673996Y-75157476D01*
X132673996Y-75157476D02*
X132721615Y-75252714D01*
X132721615Y-75252714D02*
X132769234Y-75443190D01*
X132769234Y-75443190D02*
X132769234Y-75586047D01*
X132769234Y-75586047D02*
X132721615Y-75776523D01*
X132721615Y-75776523D02*
X132673996Y-75871761D01*
X132673996Y-75871761D02*
X132578758Y-75967000D01*
X132578758Y-75967000D02*
X132435901Y-76014619D01*
X132435901Y-76014619D02*
X132197806Y-76014619D01*
X128998996Y-91689619D02*
X128665663Y-91213428D01*
X128427568Y-91689619D02*
X128427568Y-90689619D01*
X128427568Y-90689619D02*
X128808520Y-90689619D01*
X128808520Y-90689619D02*
X128903758Y-90737238D01*
X128903758Y-90737238D02*
X128951377Y-90784857D01*
X128951377Y-90784857D02*
X128998996Y-90880095D01*
X128998996Y-90880095D02*
X128998996Y-91022952D01*
X128998996Y-91022952D02*
X128951377Y-91118190D01*
X128951377Y-91118190D02*
X128903758Y-91165809D01*
X128903758Y-91165809D02*
X128808520Y-91213428D01*
X128808520Y-91213428D02*
X128427568Y-91213428D01*
X129427568Y-91689619D02*
X129427568Y-90689619D01*
X129427568Y-90689619D02*
X129808520Y-90689619D01*
X129808520Y-90689619D02*
X129903758Y-90737238D01*
X129903758Y-90737238D02*
X129951377Y-90784857D01*
X129951377Y-90784857D02*
X129998996Y-90880095D01*
X129998996Y-90880095D02*
X129998996Y-91022952D01*
X129998996Y-91022952D02*
X129951377Y-91118190D01*
X129951377Y-91118190D02*
X129903758Y-91165809D01*
X129903758Y-91165809D02*
X129808520Y-91213428D01*
X129808520Y-91213428D02*
X129427568Y-91213428D01*
X130427568Y-91689619D02*
X130427568Y-90689619D01*
X132237091Y-91594380D02*
X132189472Y-91642000D01*
X132189472Y-91642000D02*
X132046615Y-91689619D01*
X132046615Y-91689619D02*
X131951377Y-91689619D01*
X131951377Y-91689619D02*
X131808520Y-91642000D01*
X131808520Y-91642000D02*
X131713282Y-91546761D01*
X131713282Y-91546761D02*
X131665663Y-91451523D01*
X131665663Y-91451523D02*
X131618044Y-91261047D01*
X131618044Y-91261047D02*
X131618044Y-91118190D01*
X131618044Y-91118190D02*
X131665663Y-90927714D01*
X131665663Y-90927714D02*
X131713282Y-90832476D01*
X131713282Y-90832476D02*
X131808520Y-90737238D01*
X131808520Y-90737238D02*
X131951377Y-90689619D01*
X131951377Y-90689619D02*
X132046615Y-90689619D01*
X132046615Y-90689619D02*
X132189472Y-90737238D01*
X132189472Y-90737238D02*
X132237091Y-90784857D01*
X132856139Y-90689619D02*
X133046615Y-90689619D01*
X133046615Y-90689619D02*
X133141853Y-90737238D01*
X133141853Y-90737238D02*
X133237091Y-90832476D01*
X133237091Y-90832476D02*
X133284710Y-91022952D01*
X133284710Y-91022952D02*
X133284710Y-91356285D01*
X133284710Y-91356285D02*
X133237091Y-91546761D01*
X133237091Y-91546761D02*
X133141853Y-91642000D01*
X133141853Y-91642000D02*
X133046615Y-91689619D01*
X133046615Y-91689619D02*
X132856139Y-91689619D01*
X132856139Y-91689619D02*
X132760901Y-91642000D01*
X132760901Y-91642000D02*
X132665663Y-91546761D01*
X132665663Y-91546761D02*
X132618044Y-91356285D01*
X132618044Y-91356285D02*
X132618044Y-91022952D01*
X132618044Y-91022952D02*
X132665663Y-90832476D01*
X132665663Y-90832476D02*
X132760901Y-90737238D01*
X132760901Y-90737238D02*
X132856139Y-90689619D01*
X133713282Y-91689619D02*
X133713282Y-90689619D01*
X133713282Y-90689619D02*
X134284710Y-91689619D01*
X134284710Y-91689619D02*
X134284710Y-90689619D01*
X134760901Y-91689619D02*
X134760901Y-90689619D01*
X134760901Y-90689619D02*
X135332329Y-91689619D01*
X135332329Y-91689619D02*
X135332329Y-90689619D01*
X145804675Y-94307142D02*
X145328484Y-94640475D01*
X145804675Y-94878570D02*
X144804675Y-94878570D01*
X144804675Y-94878570D02*
X144804675Y-94497618D01*
X144804675Y-94497618D02*
X144852294Y-94402380D01*
X144852294Y-94402380D02*
X144899913Y-94354761D01*
X144899913Y-94354761D02*
X144995151Y-94307142D01*
X144995151Y-94307142D02*
X145138008Y-94307142D01*
X145138008Y-94307142D02*
X145233246Y-94354761D01*
X145233246Y-94354761D02*
X145280865Y-94402380D01*
X145280865Y-94402380D02*
X145328484Y-94497618D01*
X145328484Y-94497618D02*
X145328484Y-94878570D01*
X145804675Y-93878570D02*
X144804675Y-93878570D01*
X144804675Y-93878570D02*
X144804675Y-93497618D01*
X144804675Y-93497618D02*
X144852294Y-93402380D01*
X144852294Y-93402380D02*
X144899913Y-93354761D01*
X144899913Y-93354761D02*
X144995151Y-93307142D01*
X144995151Y-93307142D02*
X145138008Y-93307142D01*
X145138008Y-93307142D02*
X145233246Y-93354761D01*
X145233246Y-93354761D02*
X145280865Y-93402380D01*
X145280865Y-93402380D02*
X145328484Y-93497618D01*
X145328484Y-93497618D02*
X145328484Y-93878570D01*
X145804675Y-92878570D02*
X144804675Y-92878570D01*
X145804675Y-91640475D02*
X144804675Y-91640475D01*
X144804675Y-91640475D02*
X144804675Y-91259523D01*
X144804675Y-91259523D02*
X144852294Y-91164285D01*
X144852294Y-91164285D02*
X144899913Y-91116666D01*
X144899913Y-91116666D02*
X144995151Y-91069047D01*
X144995151Y-91069047D02*
X145138008Y-91069047D01*
X145138008Y-91069047D02*
X145233246Y-91116666D01*
X145233246Y-91116666D02*
X145280865Y-91164285D01*
X145280865Y-91164285D02*
X145328484Y-91259523D01*
X145328484Y-91259523D02*
X145328484Y-91640475D01*
X144804675Y-90449999D02*
X144804675Y-90259523D01*
X144804675Y-90259523D02*
X144852294Y-90164285D01*
X144852294Y-90164285D02*
X144947532Y-90069047D01*
X144947532Y-90069047D02*
X145138008Y-90021428D01*
X145138008Y-90021428D02*
X145471341Y-90021428D01*
X145471341Y-90021428D02*
X145661817Y-90069047D01*
X145661817Y-90069047D02*
X145757056Y-90164285D01*
X145757056Y-90164285D02*
X145804675Y-90259523D01*
X145804675Y-90259523D02*
X145804675Y-90449999D01*
X145804675Y-90449999D02*
X145757056Y-90545237D01*
X145757056Y-90545237D02*
X145661817Y-90640475D01*
X145661817Y-90640475D02*
X145471341Y-90688094D01*
X145471341Y-90688094D02*
X145138008Y-90688094D01*
X145138008Y-90688094D02*
X144947532Y-90640475D01*
X144947532Y-90640475D02*
X144852294Y-90545237D01*
X144852294Y-90545237D02*
X144804675Y-90449999D01*
X144804675Y-89688094D02*
X145804675Y-89449999D01*
X145804675Y-89449999D02*
X145090389Y-89259523D01*
X145090389Y-89259523D02*
X145804675Y-89069047D01*
X145804675Y-89069047D02*
X144804675Y-88830952D01*
X145280865Y-88449999D02*
X145280865Y-88116666D01*
X145804675Y-87973809D02*
X145804675Y-88449999D01*
X145804675Y-88449999D02*
X144804675Y-88449999D01*
X144804675Y-88449999D02*
X144804675Y-87973809D01*
X145804675Y-86973809D02*
X145328484Y-87307142D01*
X145804675Y-87545237D02*
X144804675Y-87545237D01*
X144804675Y-87545237D02*
X144804675Y-87164285D01*
X144804675Y-87164285D02*
X144852294Y-87069047D01*
X144852294Y-87069047D02*
X144899913Y-87021428D01*
X144899913Y-87021428D02*
X144995151Y-86973809D01*
X144995151Y-86973809D02*
X145138008Y-86973809D01*
X145138008Y-86973809D02*
X145233246Y-87021428D01*
X145233246Y-87021428D02*
X145280865Y-87069047D01*
X145280865Y-87069047D02*
X145328484Y-87164285D01*
X145328484Y-87164285D02*
X145328484Y-87545237D01*
X147367000Y-95783332D02*
X147414619Y-95640475D01*
X147414619Y-95640475D02*
X147414619Y-95402380D01*
X147414619Y-95402380D02*
X147367000Y-95307142D01*
X147367000Y-95307142D02*
X147319380Y-95259523D01*
X147319380Y-95259523D02*
X147224142Y-95211904D01*
X147224142Y-95211904D02*
X147128904Y-95211904D01*
X147128904Y-95211904D02*
X147033666Y-95259523D01*
X147033666Y-95259523D02*
X146986047Y-95307142D01*
X146986047Y-95307142D02*
X146938428Y-95402380D01*
X146938428Y-95402380D02*
X146890809Y-95592856D01*
X146890809Y-95592856D02*
X146843190Y-95688094D01*
X146843190Y-95688094D02*
X146795571Y-95735713D01*
X146795571Y-95735713D02*
X146700333Y-95783332D01*
X146700333Y-95783332D02*
X146605095Y-95783332D01*
X146605095Y-95783332D02*
X146509857Y-95735713D01*
X146509857Y-95735713D02*
X146462238Y-95688094D01*
X146462238Y-95688094D02*
X146414619Y-95592856D01*
X146414619Y-95592856D02*
X146414619Y-95354761D01*
X146414619Y-95354761D02*
X146462238Y-95211904D01*
X146414619Y-94878570D02*
X147414619Y-94640475D01*
X147414619Y-94640475D02*
X146700333Y-94449999D01*
X146700333Y-94449999D02*
X147414619Y-94259523D01*
X147414619Y-94259523D02*
X146414619Y-94021428D01*
X147414619Y-93640475D02*
X146414619Y-93640475D01*
X146414619Y-93307142D02*
X146414619Y-92735714D01*
X147414619Y-93021428D02*
X146414619Y-93021428D01*
X147319380Y-91830952D02*
X147367000Y-91878571D01*
X147367000Y-91878571D02*
X147414619Y-92021428D01*
X147414619Y-92021428D02*
X147414619Y-92116666D01*
X147414619Y-92116666D02*
X147367000Y-92259523D01*
X147367000Y-92259523D02*
X147271761Y-92354761D01*
X147271761Y-92354761D02*
X147176523Y-92402380D01*
X147176523Y-92402380D02*
X146986047Y-92449999D01*
X146986047Y-92449999D02*
X146843190Y-92449999D01*
X146843190Y-92449999D02*
X146652714Y-92402380D01*
X146652714Y-92402380D02*
X146557476Y-92354761D01*
X146557476Y-92354761D02*
X146462238Y-92259523D01*
X146462238Y-92259523D02*
X146414619Y-92116666D01*
X146414619Y-92116666D02*
X146414619Y-92021428D01*
X146414619Y-92021428D02*
X146462238Y-91878571D01*
X146462238Y-91878571D02*
X146509857Y-91830952D01*
X147414619Y-91402380D02*
X146414619Y-91402380D01*
X146890809Y-91402380D02*
X146890809Y-90830952D01*
X147414619Y-90830952D02*
X146414619Y-90830952D01*
X147795571Y-89307142D02*
X147747952Y-89354761D01*
X147747952Y-89354761D02*
X147605095Y-89449999D01*
X147605095Y-89449999D02*
X147509857Y-89497618D01*
X147509857Y-89497618D02*
X147367000Y-89545237D01*
X147367000Y-89545237D02*
X147128904Y-89592856D01*
X147128904Y-89592856D02*
X146938428Y-89592856D01*
X146938428Y-89592856D02*
X146700333Y-89545237D01*
X146700333Y-89545237D02*
X146557476Y-89497618D01*
X146557476Y-89497618D02*
X146462238Y-89449999D01*
X146462238Y-89449999D02*
X146319380Y-89354761D01*
X146319380Y-89354761D02*
X146271761Y-89307142D01*
X147414619Y-88926189D02*
X146414619Y-88926189D01*
X146367000Y-87735714D02*
X147652714Y-88592856D01*
X146414619Y-87211904D02*
X146414619Y-87021428D01*
X146414619Y-87021428D02*
X146462238Y-86926190D01*
X146462238Y-86926190D02*
X146557476Y-86830952D01*
X146557476Y-86830952D02*
X146747952Y-86783333D01*
X146747952Y-86783333D02*
X147081285Y-86783333D01*
X147081285Y-86783333D02*
X147271761Y-86830952D01*
X147271761Y-86830952D02*
X147367000Y-86926190D01*
X147367000Y-86926190D02*
X147414619Y-87021428D01*
X147414619Y-87021428D02*
X147414619Y-87211904D01*
X147414619Y-87211904D02*
X147367000Y-87307142D01*
X147367000Y-87307142D02*
X147271761Y-87402380D01*
X147271761Y-87402380D02*
X147081285Y-87449999D01*
X147081285Y-87449999D02*
X146747952Y-87449999D01*
X146747952Y-87449999D02*
X146557476Y-87402380D01*
X146557476Y-87402380D02*
X146462238Y-87307142D01*
X146462238Y-87307142D02*
X146414619Y-87211904D01*
X147795571Y-86449999D02*
X147747952Y-86402380D01*
X147747952Y-86402380D02*
X147605095Y-86307142D01*
X147605095Y-86307142D02*
X147509857Y-86259523D01*
X147509857Y-86259523D02*
X147367000Y-86211904D01*
X147367000Y-86211904D02*
X147128904Y-86164285D01*
X147128904Y-86164285D02*
X146938428Y-86164285D01*
X146938428Y-86164285D02*
X146700333Y-86211904D01*
X146700333Y-86211904D02*
X146557476Y-86259523D01*
X146557476Y-86259523D02*
X146462238Y-86307142D01*
X146462238Y-86307142D02*
X146319380Y-86402380D01*
X146319380Y-86402380D02*
X146271761Y-86449999D01*
X103335901Y-70855865D02*
X103478758Y-70903484D01*
X103478758Y-70903484D02*
X103526377Y-70951103D01*
X103526377Y-70951103D02*
X103573996Y-71046341D01*
X103573996Y-71046341D02*
X103573996Y-71189198D01*
X103573996Y-71189198D02*
X103526377Y-71284436D01*
X103526377Y-71284436D02*
X103478758Y-71332056D01*
X103478758Y-71332056D02*
X103383520Y-71379675D01*
X103383520Y-71379675D02*
X103002568Y-71379675D01*
X103002568Y-71379675D02*
X103002568Y-70379675D01*
X103002568Y-70379675D02*
X103335901Y-70379675D01*
X103335901Y-70379675D02*
X103431139Y-70427294D01*
X103431139Y-70427294D02*
X103478758Y-70474913D01*
X103478758Y-70474913D02*
X103526377Y-70570151D01*
X103526377Y-70570151D02*
X103526377Y-70665389D01*
X103526377Y-70665389D02*
X103478758Y-70760627D01*
X103478758Y-70760627D02*
X103431139Y-70808246D01*
X103431139Y-70808246D02*
X103335901Y-70855865D01*
X103335901Y-70855865D02*
X103002568Y-70855865D01*
X104193044Y-70379675D02*
X104383520Y-70379675D01*
X104383520Y-70379675D02*
X104478758Y-70427294D01*
X104478758Y-70427294D02*
X104573996Y-70522532D01*
X104573996Y-70522532D02*
X104621615Y-70713008D01*
X104621615Y-70713008D02*
X104621615Y-71046341D01*
X104621615Y-71046341D02*
X104573996Y-71236817D01*
X104573996Y-71236817D02*
X104478758Y-71332056D01*
X104478758Y-71332056D02*
X104383520Y-71379675D01*
X104383520Y-71379675D02*
X104193044Y-71379675D01*
X104193044Y-71379675D02*
X104097806Y-71332056D01*
X104097806Y-71332056D02*
X104002568Y-71236817D01*
X104002568Y-71236817D02*
X103954949Y-71046341D01*
X103954949Y-71046341D02*
X103954949Y-70713008D01*
X103954949Y-70713008D02*
X104002568Y-70522532D01*
X104002568Y-70522532D02*
X104097806Y-70427294D01*
X104097806Y-70427294D02*
X104193044Y-70379675D01*
X105240663Y-70379675D02*
X105431139Y-70379675D01*
X105431139Y-70379675D02*
X105526377Y-70427294D01*
X105526377Y-70427294D02*
X105621615Y-70522532D01*
X105621615Y-70522532D02*
X105669234Y-70713008D01*
X105669234Y-70713008D02*
X105669234Y-71046341D01*
X105669234Y-71046341D02*
X105621615Y-71236817D01*
X105621615Y-71236817D02*
X105526377Y-71332056D01*
X105526377Y-71332056D02*
X105431139Y-71379675D01*
X105431139Y-71379675D02*
X105240663Y-71379675D01*
X105240663Y-71379675D02*
X105145425Y-71332056D01*
X105145425Y-71332056D02*
X105050187Y-71236817D01*
X105050187Y-71236817D02*
X105002568Y-71046341D01*
X105002568Y-71046341D02*
X105002568Y-70713008D01*
X105002568Y-70713008D02*
X105050187Y-70522532D01*
X105050187Y-70522532D02*
X105145425Y-70427294D01*
X105145425Y-70427294D02*
X105240663Y-70379675D01*
X105954949Y-70379675D02*
X106526377Y-70379675D01*
X106240663Y-71379675D02*
X106240663Y-70379675D01*
X107050187Y-70379675D02*
X107145425Y-70379675D01*
X107145425Y-70379675D02*
X107240663Y-70427294D01*
X107240663Y-70427294D02*
X107288282Y-70474913D01*
X107288282Y-70474913D02*
X107335901Y-70570151D01*
X107335901Y-70570151D02*
X107383520Y-70760627D01*
X107383520Y-70760627D02*
X107383520Y-70998722D01*
X107383520Y-70998722D02*
X107335901Y-71189198D01*
X107335901Y-71189198D02*
X107288282Y-71284436D01*
X107288282Y-71284436D02*
X107240663Y-71332056D01*
X107240663Y-71332056D02*
X107145425Y-71379675D01*
X107145425Y-71379675D02*
X107050187Y-71379675D01*
X107050187Y-71379675D02*
X106954949Y-71332056D01*
X106954949Y-71332056D02*
X106907330Y-71284436D01*
X106907330Y-71284436D02*
X106859711Y-71189198D01*
X106859711Y-71189198D02*
X106812092Y-70998722D01*
X106812092Y-70998722D02*
X106812092Y-70760627D01*
X106812092Y-70760627D02*
X106859711Y-70570151D01*
X106859711Y-70570151D02*
X106907330Y-70474913D01*
X106907330Y-70474913D02*
X106954949Y-70427294D01*
X106954949Y-70427294D02*
X107050187Y-70379675D01*
X103288282Y-73370571D02*
X103240663Y-73322952D01*
X103240663Y-73322952D02*
X103145425Y-73180095D01*
X103145425Y-73180095D02*
X103097806Y-73084857D01*
X103097806Y-73084857D02*
X103050187Y-72942000D01*
X103050187Y-72942000D02*
X103002568Y-72703904D01*
X103002568Y-72703904D02*
X103002568Y-72513428D01*
X103002568Y-72513428D02*
X103050187Y-72275333D01*
X103050187Y-72275333D02*
X103097806Y-72132476D01*
X103097806Y-72132476D02*
X103145425Y-72037238D01*
X103145425Y-72037238D02*
X103240663Y-71894380D01*
X103240663Y-71894380D02*
X103288282Y-71846761D01*
X103669235Y-72989619D02*
X103669235Y-71989619D01*
X104859710Y-71942000D02*
X104002568Y-73227714D01*
X105383520Y-71989619D02*
X105573996Y-71989619D01*
X105573996Y-71989619D02*
X105669234Y-72037238D01*
X105669234Y-72037238D02*
X105764472Y-72132476D01*
X105764472Y-72132476D02*
X105812091Y-72322952D01*
X105812091Y-72322952D02*
X105812091Y-72656285D01*
X105812091Y-72656285D02*
X105764472Y-72846761D01*
X105764472Y-72846761D02*
X105669234Y-72942000D01*
X105669234Y-72942000D02*
X105573996Y-72989619D01*
X105573996Y-72989619D02*
X105383520Y-72989619D01*
X105383520Y-72989619D02*
X105288282Y-72942000D01*
X105288282Y-72942000D02*
X105193044Y-72846761D01*
X105193044Y-72846761D02*
X105145425Y-72656285D01*
X105145425Y-72656285D02*
X105145425Y-72322952D01*
X105145425Y-72322952D02*
X105193044Y-72132476D01*
X105193044Y-72132476D02*
X105288282Y-72037238D01*
X105288282Y-72037238D02*
X105383520Y-71989619D01*
X106145425Y-73370571D02*
X106193044Y-73322952D01*
X106193044Y-73322952D02*
X106288282Y-73180095D01*
X106288282Y-73180095D02*
X106335901Y-73084857D01*
X106335901Y-73084857D02*
X106383520Y-72942000D01*
X106383520Y-72942000D02*
X106431139Y-72703904D01*
X106431139Y-72703904D02*
X106431139Y-72513428D01*
X106431139Y-72513428D02*
X106383520Y-72275333D01*
X106383520Y-72275333D02*
X106335901Y-72132476D01*
X106335901Y-72132476D02*
X106288282Y-72037238D01*
X106288282Y-72037238D02*
X106193044Y-71894380D01*
X106193044Y-71894380D02*
X106145425Y-71846761D01*
X87114619Y-88347431D02*
X86114619Y-88347431D01*
X86114619Y-88347431D02*
X86828904Y-88014098D01*
X86828904Y-88014098D02*
X86114619Y-87680765D01*
X86114619Y-87680765D02*
X87114619Y-87680765D01*
X86114619Y-87014098D02*
X86114619Y-86823622D01*
X86114619Y-86823622D02*
X86162238Y-86728384D01*
X86162238Y-86728384D02*
X86257476Y-86633146D01*
X86257476Y-86633146D02*
X86447952Y-86585527D01*
X86447952Y-86585527D02*
X86781285Y-86585527D01*
X86781285Y-86585527D02*
X86971761Y-86633146D01*
X86971761Y-86633146D02*
X87067000Y-86728384D01*
X87067000Y-86728384D02*
X87114619Y-86823622D01*
X87114619Y-86823622D02*
X87114619Y-87014098D01*
X87114619Y-87014098D02*
X87067000Y-87109336D01*
X87067000Y-87109336D02*
X86971761Y-87204574D01*
X86971761Y-87204574D02*
X86781285Y-87252193D01*
X86781285Y-87252193D02*
X86447952Y-87252193D01*
X86447952Y-87252193D02*
X86257476Y-87204574D01*
X86257476Y-87204574D02*
X86162238Y-87109336D01*
X86162238Y-87109336D02*
X86114619Y-87014098D01*
X86114619Y-86299812D02*
X86114619Y-85728384D01*
X87114619Y-86014098D02*
X86114619Y-86014098D01*
X86114619Y-85204574D02*
X86114619Y-85014098D01*
X86114619Y-85014098D02*
X86162238Y-84918860D01*
X86162238Y-84918860D02*
X86257476Y-84823622D01*
X86257476Y-84823622D02*
X86447952Y-84776003D01*
X86447952Y-84776003D02*
X86781285Y-84776003D01*
X86781285Y-84776003D02*
X86971761Y-84823622D01*
X86971761Y-84823622D02*
X87067000Y-84918860D01*
X87067000Y-84918860D02*
X87114619Y-85014098D01*
X87114619Y-85014098D02*
X87114619Y-85204574D01*
X87114619Y-85204574D02*
X87067000Y-85299812D01*
X87067000Y-85299812D02*
X86971761Y-85395050D01*
X86971761Y-85395050D02*
X86781285Y-85442669D01*
X86781285Y-85442669D02*
X86447952Y-85442669D01*
X86447952Y-85442669D02*
X86257476Y-85395050D01*
X86257476Y-85395050D02*
X86162238Y-85299812D01*
X86162238Y-85299812D02*
X86114619Y-85204574D01*
X87114619Y-83776003D02*
X86638428Y-84109336D01*
X87114619Y-84347431D02*
X86114619Y-84347431D01*
X86114619Y-84347431D02*
X86114619Y-83966479D01*
X86114619Y-83966479D02*
X86162238Y-83871241D01*
X86162238Y-83871241D02*
X86209857Y-83823622D01*
X86209857Y-83823622D02*
X86305095Y-83776003D01*
X86305095Y-83776003D02*
X86447952Y-83776003D01*
X86447952Y-83776003D02*
X86543190Y-83823622D01*
X86543190Y-83823622D02*
X86590809Y-83871241D01*
X86590809Y-83871241D02*
X86638428Y-83966479D01*
X86638428Y-83966479D02*
X86638428Y-84347431D01*
X86209857Y-82633145D02*
X86162238Y-82585526D01*
X86162238Y-82585526D02*
X86114619Y-82490288D01*
X86114619Y-82490288D02*
X86114619Y-82252193D01*
X86114619Y-82252193D02*
X86162238Y-82156955D01*
X86162238Y-82156955D02*
X86209857Y-82109336D01*
X86209857Y-82109336D02*
X86305095Y-82061717D01*
X86305095Y-82061717D02*
X86400333Y-82061717D01*
X86400333Y-82061717D02*
X86543190Y-82109336D01*
X86543190Y-82109336D02*
X87114619Y-82680764D01*
X87114619Y-82680764D02*
X87114619Y-82061717D01*
X145848996Y-115815619D02*
X145515663Y-115339428D01*
X145277568Y-115815619D02*
X145277568Y-114815619D01*
X145277568Y-114815619D02*
X145658520Y-114815619D01*
X145658520Y-114815619D02*
X145753758Y-114863238D01*
X145753758Y-114863238D02*
X145801377Y-114910857D01*
X145801377Y-114910857D02*
X145848996Y-115006095D01*
X145848996Y-115006095D02*
X145848996Y-115148952D01*
X145848996Y-115148952D02*
X145801377Y-115244190D01*
X145801377Y-115244190D02*
X145753758Y-115291809D01*
X145753758Y-115291809D02*
X145658520Y-115339428D01*
X145658520Y-115339428D02*
X145277568Y-115339428D01*
X146277568Y-115815619D02*
X146277568Y-114815619D01*
X146277568Y-114815619D02*
X146658520Y-114815619D01*
X146658520Y-114815619D02*
X146753758Y-114863238D01*
X146753758Y-114863238D02*
X146801377Y-114910857D01*
X146801377Y-114910857D02*
X146848996Y-115006095D01*
X146848996Y-115006095D02*
X146848996Y-115148952D01*
X146848996Y-115148952D02*
X146801377Y-115244190D01*
X146801377Y-115244190D02*
X146753758Y-115291809D01*
X146753758Y-115291809D02*
X146658520Y-115339428D01*
X146658520Y-115339428D02*
X146277568Y-115339428D01*
X147277568Y-115815619D02*
X147277568Y-114815619D01*
D12*
X88078571Y-97303000D02*
X89221429Y-97303000D01*
X88650000Y-97874428D02*
X88650000Y-96731571D01*
D10*
X104019048Y-97368666D02*
X104780953Y-97368666D01*
D13*
%TO.C,R10*%
X151912258Y-108522500D02*
X151437742Y-108522500D01*
X151912258Y-107477500D02*
X151437742Y-107477500D01*
%TO.C,C36*%
X99510000Y-76613748D02*
X99510000Y-78036252D01*
X97690000Y-76613748D02*
X97690000Y-78036252D01*
%TO.C,C19*%
X99610000Y-91688748D02*
X99610000Y-93111252D01*
X97790000Y-91688748D02*
X97790000Y-93111252D01*
%TO.C,C16*%
X99510000Y-84213748D02*
X99510000Y-85636252D01*
X97690000Y-84213748D02*
X97690000Y-85636252D01*
D14*
%TO.C,U8*%
X90580000Y-96230000D02*
X90580000Y-91170000D01*
X93620000Y-96230000D02*
X90580000Y-96230000D01*
X90580000Y-91170000D02*
X93620000Y-91170000D01*
X93620000Y-91170000D02*
X93620000Y-96230000D01*
D15*
X95020000Y-96350000D02*
G75*
G02*
X94720000Y-96350000I-150000J0D01*
G01*
X94720000Y-96350000D02*
G75*
G02*
X95020000Y-96350000I150000J0D01*
G01*
X93020000Y-95610000D02*
G75*
G02*
X92720000Y-95610000I-150000J0D01*
G01*
X92720000Y-95610000D02*
G75*
G02*
X93020000Y-95610000I150000J0D01*
G01*
D14*
%TO.C,U3*%
X90580000Y-81230000D02*
X90580000Y-76170000D01*
X93620000Y-81230000D02*
X90580000Y-81230000D01*
X90580000Y-76170000D02*
X93620000Y-76170000D01*
X93620000Y-76170000D02*
X93620000Y-81230000D01*
D15*
X95020000Y-81350000D02*
G75*
G02*
X94720000Y-81350000I-150000J0D01*
G01*
X94720000Y-81350000D02*
G75*
G02*
X95020000Y-81350000I150000J0D01*
G01*
X93020000Y-80610000D02*
G75*
G02*
X92720000Y-80610000I-150000J0D01*
G01*
X92720000Y-80610000D02*
G75*
G02*
X93020000Y-80610000I150000J0D01*
G01*
D14*
%TO.C,U2*%
X90580000Y-88730000D02*
X90580000Y-83670000D01*
X93620000Y-88730000D02*
X90580000Y-88730000D01*
X90580000Y-83670000D02*
X93620000Y-83670000D01*
X93620000Y-83670000D02*
X93620000Y-88730000D01*
D15*
X95020000Y-88850000D02*
G75*
G02*
X94720000Y-88850000I-150000J0D01*
G01*
X94720000Y-88850000D02*
G75*
G02*
X95020000Y-88850000I150000J0D01*
G01*
X93020000Y-88110000D02*
G75*
G02*
X92720000Y-88110000I-150000J0D01*
G01*
X92720000Y-88110000D02*
G75*
G02*
X93020000Y-88110000I150000J0D01*
G01*
D13*
%TO.C,C37*%
X97160000Y-77312164D02*
X97160000Y-77527836D01*
X96440000Y-77312164D02*
X96440000Y-77527836D01*
%TO.C,C15*%
X126765000Y-102838748D02*
X126765000Y-103361252D01*
X128235000Y-102838748D02*
X128235000Y-103361252D01*
%TO.C,C25*%
X143465000Y-102938748D02*
X143465000Y-103461252D01*
X144935000Y-102938748D02*
X144935000Y-103461252D01*
%TO.C,R26*%
X109586359Y-93042500D02*
X109893641Y-93042500D01*
X109586359Y-93802500D02*
X109893641Y-93802500D01*
%TO.C,U4*%
X133500000Y-103840000D02*
X132700000Y-103840000D01*
X133500000Y-103840000D02*
X134300000Y-103840000D01*
X133500000Y-106960000D02*
X132700000Y-106960000D01*
X133500000Y-106960000D02*
X134300000Y-106960000D01*
X132200000Y-103890000D02*
X131960000Y-103560000D01*
X132440000Y-103560000D01*
X132200000Y-103890000D01*
G36*
X132200000Y-103890000D02*
G01*
X131960000Y-103560000D01*
X132440000Y-103560000D01*
X132200000Y-103890000D01*
G37*
%TO.C,R9*%
X137163641Y-106020000D02*
X136856359Y-106020000D01*
X137163641Y-106780000D02*
X136856359Y-106780000D01*
%TO.C,C30*%
X121665000Y-91258752D02*
X121665000Y-90736248D01*
X123135000Y-91258752D02*
X123135000Y-90736248D01*
%TO.C,R18*%
X114537258Y-87937500D02*
X114062742Y-87937500D01*
X114537258Y-88982500D02*
X114062742Y-88982500D01*
%TO.C,C14*%
X129015000Y-102838748D02*
X129015000Y-103361252D01*
X130485000Y-102838748D02*
X130485000Y-103361252D01*
%TO.C,C23*%
X143940000Y-106615580D02*
X143940000Y-106334420D01*
X144960000Y-106615580D02*
X144960000Y-106334420D01*
%TO.C,U1*%
X127690000Y-79165000D02*
X127690000Y-78930000D01*
X127690000Y-85910000D02*
X127690000Y-85435000D01*
X128165000Y-78690000D02*
X127990000Y-78690000D01*
X128165000Y-85910000D02*
X127690000Y-85910000D01*
X134435000Y-78690000D02*
X134910000Y-78690000D01*
X134435000Y-85910000D02*
X134910000Y-85910000D01*
X134910000Y-78690000D02*
X134910000Y-79165000D01*
X134910000Y-85910000D02*
X134910000Y-85435000D01*
X127690000Y-78690000D02*
X127450000Y-78360000D01*
X127930000Y-78360000D01*
X127690000Y-78690000D01*
G36*
X127690000Y-78690000D02*
G01*
X127450000Y-78360000D01*
X127930000Y-78360000D01*
X127690000Y-78690000D01*
G37*
D10*
%TO.C,L4*%
X111460000Y-97200000D02*
X114820000Y-97200000D01*
X111480000Y-103200000D02*
X114840000Y-103200000D01*
D13*
%TO.C,R16*%
X108987742Y-91500000D02*
X109462258Y-91500000D01*
X108987742Y-92545000D02*
X109462258Y-92545000D01*
D10*
%TO.C,L1*%
X129500000Y-96150000D02*
X129500000Y-96320000D01*
X129500000Y-100990000D02*
X129500000Y-101150000D01*
X134500000Y-96150000D02*
X129500000Y-96150000D01*
X134500000Y-96320000D02*
X134500000Y-96150000D01*
X134500000Y-101150000D02*
X129500000Y-101150000D01*
X134500000Y-101150000D02*
X134500000Y-100990000D01*
D13*
%TO.C,C7*%
X121715000Y-102838748D02*
X121715000Y-103361252D01*
X123185000Y-102838748D02*
X123185000Y-103361252D01*
%TO.C,C2*%
X135240000Y-86372164D02*
X135240000Y-86587836D01*
X135960000Y-86372164D02*
X135960000Y-86587836D01*
%TO.C,J4*%
X105190000Y-103895000D02*
X106610000Y-103895000D01*
X105190000Y-115615000D02*
X105190000Y-103895000D01*
X106610000Y-103895000D02*
X106610000Y-108395000D01*
X106610000Y-108395000D02*
X110250000Y-108395000D01*
X107450000Y-104205000D02*
X108050000Y-104205000D01*
X107500000Y-109505000D02*
X107500000Y-115005000D01*
X107500000Y-115005000D02*
X108000000Y-115005000D01*
X107750000Y-104805000D02*
X107450000Y-104205000D01*
X108000000Y-109505000D02*
X107500000Y-109505000D01*
X108000000Y-115005000D02*
X108000000Y-109505000D01*
X108050000Y-104205000D02*
X107750000Y-104805000D01*
X110000000Y-109505000D02*
X110000000Y-115005000D01*
X110000000Y-115005000D02*
X110500000Y-115005000D01*
X110250000Y-115615000D02*
X105190000Y-115615000D01*
X110250000Y-115615000D02*
X115310000Y-115615000D01*
X110500000Y-109505000D02*
X110000000Y-109505000D01*
X110500000Y-115005000D02*
X110500000Y-109505000D01*
X112500000Y-109505000D02*
X112500000Y-115005000D01*
X112500000Y-115005000D02*
X113000000Y-115005000D01*
X113000000Y-109505000D02*
X112500000Y-109505000D01*
X113000000Y-115005000D02*
X113000000Y-109505000D01*
X113890000Y-103895000D02*
X113890000Y-108395000D01*
X113890000Y-108395000D02*
X110250000Y-108395000D01*
X115310000Y-103895000D02*
X113890000Y-103895000D01*
X115310000Y-115615000D02*
X115310000Y-103895000D01*
%TO.C,C26*%
X141215000Y-102938748D02*
X141215000Y-103461252D01*
X142685000Y-102938748D02*
X142685000Y-103461252D01*
%TO.C,R14*%
X117370000Y-94783859D02*
X117370000Y-95091141D01*
X118130000Y-94783859D02*
X118130000Y-95091141D01*
%TO.C,C4*%
X135640000Y-79312164D02*
X135640000Y-79527836D01*
X136360000Y-79312164D02*
X136360000Y-79527836D01*
%TO.C,C12*%
X129490000Y-106565580D02*
X129490000Y-106284420D01*
X130510000Y-106565580D02*
X130510000Y-106284420D01*
%TO.C,J1*%
X126080000Y-95130000D02*
X126080000Y-93750000D01*
X127460000Y-95130000D02*
X126080000Y-95130000D01*
X128730000Y-92370000D02*
X136460000Y-92370000D01*
X128730000Y-95130000D02*
X128730000Y-92370000D01*
X128730000Y-95130000D02*
X136460000Y-95130000D01*
X136460000Y-95130000D02*
X136460000Y-92370000D01*
%TO.C,C5*%
X125640000Y-83417836D02*
X125640000Y-83202164D01*
X126360000Y-83417836D02*
X126360000Y-83202164D01*
%TO.C,R19*%
X118640000Y-95035436D02*
X118640000Y-96489564D01*
X120460000Y-95035436D02*
X120460000Y-96489564D01*
%TO.C,Y1*%
X125360000Y-78612000D02*
X121240000Y-78612000D01*
X125360000Y-82032000D02*
X125360000Y-78612000D01*
%TO.C,C22*%
X126238586Y-78977836D02*
X126238586Y-78762164D01*
X126958586Y-78977836D02*
X126958586Y-78762164D01*
%TO.C,C33*%
X108965000Y-95434420D02*
X108965000Y-95715580D01*
X109985000Y-95434420D02*
X109985000Y-95715580D01*
%TO.C,D2*%
X135665000Y-115975000D02*
X137950000Y-115975000D01*
X137950000Y-114505000D02*
X135665000Y-114505000D01*
X137950000Y-115975000D02*
X137950000Y-114505000D01*
%TO.C,SW2*%
X150260000Y-89700000D02*
X150260000Y-89500000D01*
X150260000Y-92700000D02*
X150260000Y-91000000D01*
X151310000Y-94550000D02*
X152100000Y-94550000D01*
X152100000Y-87650000D02*
X151310000Y-87650000D01*
X153110000Y-93950000D02*
X153110000Y-88250000D01*
%TO.C,C8*%
X123815000Y-102838748D02*
X123815000Y-103361252D01*
X125285000Y-102838748D02*
X125285000Y-103361252D01*
D14*
%TO.C,D1*%
X137120000Y-98625000D02*
X137120000Y-103825000D01*
X137370000Y-103815000D02*
X137140000Y-103825000D01*
X139980000Y-98625000D02*
X139980000Y-103825000D01*
X139980000Y-100345000D02*
X137120000Y-100345000D01*
X139980000Y-103825000D02*
X139740000Y-103825000D01*
D13*
%TO.C,C24*%
X149340000Y-102587836D02*
X149340000Y-102372164D01*
X150060000Y-102587836D02*
X150060000Y-102372164D01*
%TO.C,R8*%
X135195000Y-108568641D02*
X135195000Y-108261359D01*
X135955000Y-108568641D02*
X135955000Y-108261359D01*
D14*
%TO.C,Q3*%
X129270000Y-108970000D02*
X129270000Y-110010000D01*
X129270000Y-112030000D02*
X129270000Y-110990000D01*
X130730000Y-108970000D02*
X129270000Y-108970000D01*
X130730000Y-110040000D02*
X130730000Y-110960000D01*
X130730000Y-112030000D02*
X129270000Y-112030000D01*
D13*
%TO.C,D8*%
X129240000Y-112350000D02*
X129240000Y-114050000D01*
X129240000Y-112350000D02*
X131900000Y-112350000D01*
X129240000Y-114050000D02*
X131900000Y-114050000D01*
%TO.C,R5*%
X124261359Y-90445000D02*
X124568641Y-90445000D01*
X124261359Y-91205000D02*
X124568641Y-91205000D01*
%TO.C,R2*%
X143220000Y-78943641D02*
X143220000Y-78636359D01*
X143980000Y-78943641D02*
X143980000Y-78636359D01*
%TO.C,C11*%
X133712164Y-86740000D02*
X133927836Y-86740000D01*
X133712164Y-87460000D02*
X133927836Y-87460000D01*
D10*
%TO.C,Q1*%
X137100000Y-94700000D02*
X138100000Y-94700000D01*
X137100000Y-95560000D02*
X137100000Y-94700000D01*
X137100000Y-97700000D02*
X137100000Y-96830000D01*
X137100000Y-97700000D02*
X138100000Y-97700000D01*
X138500000Y-96510000D02*
X138500000Y-95880000D01*
D13*
%TO.C,C10*%
X122612164Y-82440000D02*
X122827836Y-82440000D01*
X122612164Y-83160000D02*
X122827836Y-83160000D01*
%TO.C,J8*%
X107790000Y-64340000D02*
X107790000Y-76060000D01*
X107790000Y-76060000D02*
X109210000Y-76060000D01*
X109210000Y-71560000D02*
X115350000Y-71560000D01*
X109210000Y-76060000D02*
X109210000Y-71560000D01*
X110100000Y-64950000D02*
X110100000Y-70450000D01*
X110100000Y-70450000D02*
X110600000Y-70450000D01*
X110600000Y-64950000D02*
X110100000Y-64950000D01*
X110600000Y-70450000D02*
X110600000Y-64950000D01*
X112600000Y-64950000D02*
X112600000Y-70450000D01*
X112600000Y-70450000D02*
X113100000Y-70450000D01*
X113100000Y-64950000D02*
X112600000Y-64950000D01*
X113100000Y-70450000D02*
X113100000Y-64950000D01*
X115100000Y-64950000D02*
X115100000Y-70450000D01*
X115100000Y-70450000D02*
X115600000Y-70450000D01*
X115350000Y-64340000D02*
X107790000Y-64340000D01*
X115350000Y-64340000D02*
X122910000Y-64340000D01*
X115600000Y-64950000D02*
X115100000Y-64950000D01*
X115600000Y-70450000D02*
X115600000Y-64950000D01*
X117600000Y-64950000D02*
X117600000Y-70450000D01*
X117600000Y-70450000D02*
X118100000Y-70450000D01*
X118100000Y-64950000D02*
X117600000Y-64950000D01*
X118100000Y-70450000D02*
X118100000Y-64950000D01*
X120050000Y-75750000D02*
X120350000Y-75150000D01*
X120100000Y-64950000D02*
X120100000Y-70450000D01*
X120100000Y-70450000D02*
X120600000Y-70450000D01*
X120350000Y-75150000D02*
X120650000Y-75750000D01*
X120600000Y-64950000D02*
X120100000Y-64950000D01*
X120600000Y-70450000D02*
X120600000Y-64950000D01*
X120650000Y-75750000D02*
X120050000Y-75750000D01*
X121490000Y-71560000D02*
X115350000Y-71560000D01*
X121490000Y-76060000D02*
X121490000Y-71560000D01*
X122910000Y-64340000D02*
X122910000Y-76060000D01*
X122910000Y-76060000D02*
X121490000Y-76060000D01*
%TO.C,C3*%
X128200962Y-77246497D02*
X128416634Y-77246497D01*
X128200962Y-77966497D02*
X128416634Y-77966497D01*
%TO.C,C29*%
X119565000Y-91258752D02*
X119565000Y-90736248D01*
X121035000Y-91258752D02*
X121035000Y-90736248D01*
%TO.C,C35*%
X111607836Y-104140000D02*
X111392164Y-104140000D01*
X111607836Y-104860000D02*
X111392164Y-104860000D01*
%TO.C,R6*%
X124568641Y-89395000D02*
X124261359Y-89395000D01*
X124568641Y-90155000D02*
X124261359Y-90155000D01*
%TO.C,R13*%
X142733859Y-113371000D02*
X143041141Y-113371000D01*
X142733859Y-114131000D02*
X143041141Y-114131000D01*
%TO.C,R27*%
X136871141Y-113510000D02*
X136563859Y-113510000D01*
X136871141Y-114270000D02*
X136563859Y-114270000D01*
%TO.C,R7*%
X110552500Y-95337742D02*
X110552500Y-95812258D01*
X111597500Y-95337742D02*
X111597500Y-95812258D01*
%TO.C,R15*%
X128163641Y-113520000D02*
X127856359Y-113520000D01*
X128163641Y-114280000D02*
X127856359Y-114280000D01*
%TO.C,R1*%
X102546359Y-69245000D02*
X102853641Y-69245000D01*
X102546359Y-70005000D02*
X102853641Y-70005000D01*
%TO.C,C18*%
X97160000Y-92272164D02*
X97160000Y-92487836D01*
X96440000Y-92272164D02*
X96440000Y-92487836D01*
%TO.C,J7*%
X73635000Y-95940000D02*
X85355000Y-95940000D01*
X73635000Y-99750000D02*
X73635000Y-95940000D01*
X73635000Y-99750000D02*
X73635000Y-103560000D01*
X73635000Y-103560000D02*
X85355000Y-103560000D01*
X74245000Y-98250000D02*
X74245000Y-98750000D01*
X74245000Y-98750000D02*
X79745000Y-98750000D01*
X74245000Y-100750000D02*
X74245000Y-101250000D01*
X74245000Y-101250000D02*
X79745000Y-101250000D01*
X79745000Y-98250000D02*
X74245000Y-98250000D01*
X79745000Y-98750000D02*
X79745000Y-98250000D01*
X79745000Y-100750000D02*
X74245000Y-100750000D01*
X79745000Y-101250000D02*
X79745000Y-100750000D01*
X80855000Y-97360000D02*
X80855000Y-99750000D01*
X80855000Y-102140000D02*
X80855000Y-99750000D01*
X84445000Y-98500000D02*
X85045000Y-98200000D01*
X85045000Y-98200000D02*
X85045000Y-98800000D01*
X85045000Y-98800000D02*
X84445000Y-98500000D01*
X85355000Y-95940000D02*
X85355000Y-97360000D01*
X85355000Y-97360000D02*
X80855000Y-97360000D01*
X85355000Y-102140000D02*
X80855000Y-102140000D01*
X85355000Y-103560000D02*
X85355000Y-102140000D01*
%TO.C,Q4*%
X99415000Y-71212500D02*
X99415000Y-70562500D01*
X99415000Y-71212500D02*
X99415000Y-71862500D01*
X102535000Y-71212500D02*
X102535000Y-70562500D01*
X102535000Y-71212500D02*
X102535000Y-71862500D01*
X99465000Y-72375000D02*
X99135000Y-72615000D01*
X99135000Y-72135000D01*
X99465000Y-72375000D01*
G36*
X99465000Y-72375000D02*
G01*
X99135000Y-72615000D01*
X99135000Y-72135000D01*
X99465000Y-72375000D01*
G37*
%TO.C,R25*%
X119977500Y-108937258D02*
X119977500Y-108462742D01*
X121022500Y-108937258D02*
X121022500Y-108462742D01*
%TO.C,C34*%
X108712164Y-104860000D02*
X108927836Y-104860000D01*
X108712164Y-104140000D02*
X108927836Y-104140000D01*
%TO.C,J2*%
X123740000Y-64335000D02*
X123740000Y-76055000D01*
X123740000Y-76055000D02*
X125160000Y-76055000D01*
X125160000Y-71555000D02*
X131300000Y-71555000D01*
X125160000Y-76055000D02*
X125160000Y-71555000D01*
X126050000Y-64945000D02*
X126050000Y-70445000D01*
X126050000Y-70445000D02*
X126550000Y-70445000D01*
X126550000Y-64945000D02*
X126050000Y-64945000D01*
X126550000Y-70445000D02*
X126550000Y-64945000D01*
X128550000Y-64945000D02*
X128550000Y-70445000D01*
X128550000Y-70445000D02*
X129050000Y-70445000D01*
X129050000Y-64945000D02*
X128550000Y-64945000D01*
X129050000Y-70445000D02*
X129050000Y-64945000D01*
X131050000Y-64945000D02*
X131050000Y-70445000D01*
X131050000Y-70445000D02*
X131550000Y-70445000D01*
X131300000Y-64335000D02*
X123740000Y-64335000D01*
X131300000Y-64335000D02*
X138860000Y-64335000D01*
X131550000Y-64945000D02*
X131050000Y-64945000D01*
X131550000Y-70445000D02*
X131550000Y-64945000D01*
X133550000Y-64945000D02*
X133550000Y-70445000D01*
X133550000Y-70445000D02*
X134050000Y-70445000D01*
X134050000Y-64945000D02*
X133550000Y-64945000D01*
X134050000Y-70445000D02*
X134050000Y-64945000D01*
X136000000Y-75745000D02*
X136300000Y-75145000D01*
X136050000Y-64945000D02*
X136050000Y-70445000D01*
X136050000Y-70445000D02*
X136550000Y-70445000D01*
X136300000Y-75145000D02*
X136600000Y-75745000D01*
X136550000Y-64945000D02*
X136050000Y-64945000D01*
X136550000Y-70445000D02*
X136550000Y-64945000D01*
X136600000Y-75745000D02*
X136000000Y-75745000D01*
X137440000Y-71555000D02*
X131300000Y-71555000D01*
X137440000Y-76055000D02*
X137440000Y-71555000D01*
X138860000Y-64335000D02*
X138860000Y-76055000D01*
X138860000Y-76055000D02*
X137440000Y-76055000D01*
%TO.C,D3*%
X136565000Y-82840000D02*
X136565000Y-85125000D01*
X138035000Y-82840000D02*
X136565000Y-82840000D01*
X138035000Y-85125000D02*
X138035000Y-82840000D01*
%TO.C,FB1*%
X123712779Y-100040000D02*
X123387221Y-100040000D01*
X123712779Y-101060000D02*
X123387221Y-101060000D01*
%TO.C,C9*%
X122707836Y-77612000D02*
X122492164Y-77612000D01*
X122707836Y-78332000D02*
X122492164Y-78332000D01*
D16*
%TO.C,G\u002A\u002A\u002A*%
G36*
X107952851Y-85790459D02*
G01*
X107949081Y-85794228D01*
X107945312Y-85790459D01*
X107949081Y-85786689D01*
X107952851Y-85790459D01*
G37*
G36*
X105230763Y-87777775D02*
G01*
X105236724Y-87779881D01*
X105227678Y-87783379D01*
X105206650Y-87787722D01*
X105186524Y-87789484D01*
X105178451Y-87785654D01*
X105178378Y-87784953D01*
X105185083Y-87780100D01*
X105201911Y-87777325D01*
X105209792Y-87777072D01*
X105230763Y-87777775D01*
G37*
G36*
X108081020Y-85549580D02*
G01*
X108077798Y-85558442D01*
X108069123Y-85577695D01*
X108056474Y-85604338D01*
X108041333Y-85635373D01*
X108025183Y-85667802D01*
X108009504Y-85698624D01*
X107995778Y-85724841D01*
X107985487Y-85743455D01*
X107984034Y-85745898D01*
X107969563Y-85768339D01*
X107961461Y-85777865D01*
X107959685Y-85775210D01*
X107964191Y-85761105D01*
X107974933Y-85736282D01*
X107986012Y-85713181D01*
X108003251Y-85677768D01*
X108020741Y-85640967D01*
X108035477Y-85609129D01*
X108039314Y-85600588D01*
X108051298Y-85576335D01*
X108062589Y-85558078D01*
X108070517Y-85549934D01*
X108079804Y-85548335D01*
X108081020Y-85549580D01*
G37*
G36*
X107479657Y-83648700D02*
G01*
X107531683Y-83664004D01*
X107575272Y-83691066D01*
X107609186Y-83728395D01*
X107632187Y-83774498D01*
X107643036Y-83827886D01*
X107643738Y-83846315D01*
X107637378Y-83900633D01*
X107619081Y-83946974D01*
X107590027Y-83984136D01*
X107551393Y-84010920D01*
X107504359Y-84026123D01*
X107464280Y-84029204D01*
X107420393Y-84025147D01*
X107387315Y-84014938D01*
X107386415Y-84014489D01*
X107356306Y-83993327D01*
X107328059Y-83963426D01*
X107306314Y-83930250D01*
X107298140Y-83910463D01*
X107291298Y-83875159D01*
X107289146Y-83834665D01*
X107291487Y-83794444D01*
X107298119Y-83759963D01*
X107304209Y-83744041D01*
X107330991Y-83706081D01*
X107366905Y-83676054D01*
X107408516Y-83655827D01*
X107452393Y-83647265D01*
X107479657Y-83648700D01*
G37*
G36*
X106138935Y-84287548D02*
G01*
X106153108Y-84292196D01*
X106154721Y-84293902D01*
X106165409Y-84300349D01*
X106173250Y-84301441D01*
X106186528Y-84306876D01*
X106205272Y-84320839D01*
X106225940Y-84339817D01*
X106244986Y-84360296D01*
X106258866Y-84378763D01*
X106264041Y-84391431D01*
X106267495Y-84405879D01*
X106271581Y-84410761D01*
X106276792Y-84421615D01*
X106279279Y-84443392D01*
X106279231Y-84472222D01*
X106276839Y-84504233D01*
X106272290Y-84535555D01*
X106265774Y-84562317D01*
X106263907Y-84567715D01*
X106240165Y-84610905D01*
X106205972Y-84645552D01*
X106164070Y-84670415D01*
X106117202Y-84684250D01*
X106068110Y-84685817D01*
X106024945Y-84675949D01*
X105990618Y-84657354D01*
X105957526Y-84628980D01*
X105930949Y-84595574D01*
X105925871Y-84586863D01*
X105916354Y-84565313D01*
X105910003Y-84540189D01*
X105905906Y-84507071D01*
X105904154Y-84481586D01*
X105902762Y-84442467D01*
X105903841Y-84417255D01*
X105907450Y-84404970D01*
X105908656Y-84403863D01*
X105916503Y-84392324D01*
X105917232Y-84387370D01*
X105923055Y-84372872D01*
X105938259Y-84353685D01*
X105959452Y-84333127D01*
X105983239Y-84314517D01*
X106004636Y-84301903D01*
X106026423Y-84294741D01*
X106054806Y-84289507D01*
X106085725Y-84286420D01*
X106115121Y-84285695D01*
X106138935Y-84287548D01*
G37*
G36*
X107402271Y-84572634D02*
G01*
X107429609Y-84587463D01*
X107439562Y-84596022D01*
X107459450Y-84618465D01*
X107471279Y-84642205D01*
X107476807Y-84672103D01*
X107477873Y-84702115D01*
X107470969Y-84757003D01*
X107450826Y-84815673D01*
X107418301Y-84876549D01*
X107374247Y-84938051D01*
X107319522Y-84998602D01*
X107314360Y-85003700D01*
X107237210Y-85070924D01*
X107157750Y-85123510D01*
X107075106Y-85161829D01*
X106988401Y-85186253D01*
X106896759Y-85197154D01*
X106857100Y-85197795D01*
X106821620Y-85196683D01*
X106787642Y-85194446D01*
X106761006Y-85191503D01*
X106754914Y-85190467D01*
X106705286Y-85175203D01*
X106653946Y-85149848D01*
X106606593Y-85117445D01*
X106588278Y-85101539D01*
X106546857Y-85062461D01*
X106544293Y-85004258D01*
X106543518Y-84973026D01*
X106545121Y-84951925D01*
X106549981Y-84936083D01*
X106558978Y-84920626D01*
X106559549Y-84919781D01*
X106587263Y-84890471D01*
X106622813Y-84869538D01*
X106661045Y-84859824D01*
X106668925Y-84859476D01*
X106704082Y-84863358D01*
X106737100Y-84876605D01*
X106769176Y-84898149D01*
X106805731Y-84919742D01*
X106845733Y-84929977D01*
X106890700Y-84928799D01*
X106942147Y-84916151D01*
X107001592Y-84891976D01*
X107007303Y-84889273D01*
X107074614Y-84850500D01*
X107129594Y-84803935D01*
X107173571Y-84748176D01*
X107207873Y-84681818D01*
X107211077Y-84673902D01*
X107232860Y-84628186D01*
X107257328Y-84596098D01*
X107285962Y-84576234D01*
X107320240Y-84567193D01*
X107323983Y-84566834D01*
X107368209Y-84566047D01*
X107402271Y-84572634D01*
G37*
G36*
X104362330Y-80449208D02*
G01*
X104433486Y-80450544D01*
X104498103Y-80452599D01*
X104553480Y-80455384D01*
X104571462Y-80456629D01*
X104643747Y-80462160D01*
X104705112Y-80467030D01*
X104757979Y-80471584D01*
X104804770Y-80476162D01*
X104847907Y-80481109D01*
X104889814Y-80486767D01*
X104932912Y-80493477D01*
X104979624Y-80501584D01*
X105032371Y-80511429D01*
X105093577Y-80523355D01*
X105165663Y-80537706D01*
X105216074Y-80547808D01*
X105277957Y-80561798D01*
X105350745Y-80580892D01*
X105431534Y-80604139D01*
X105517420Y-80630589D01*
X105605497Y-80659294D01*
X105692862Y-80689304D01*
X105776609Y-80719669D01*
X105853833Y-80749440D01*
X105921631Y-80777667D01*
X105928541Y-80780705D01*
X106074389Y-80847542D01*
X106210700Y-80915074D01*
X106342871Y-80986071D01*
X106460064Y-81053629D01*
X106490378Y-81072319D01*
X106528896Y-81097111D01*
X106573069Y-81126261D01*
X106620346Y-81158028D01*
X106668178Y-81190668D01*
X106714016Y-81222440D01*
X106755309Y-81251601D01*
X106789509Y-81276409D01*
X106814064Y-81295122D01*
X106817413Y-81297831D01*
X106833588Y-81310900D01*
X106857673Y-81330113D01*
X106885710Y-81352319D01*
X106901115Y-81364457D01*
X106991688Y-81438939D01*
X107087226Y-81523504D01*
X107184829Y-81615369D01*
X107281600Y-81711751D01*
X107374639Y-81809866D01*
X107435518Y-81877547D01*
X107472624Y-81919872D01*
X107502809Y-81954633D01*
X107528278Y-81984561D01*
X107551236Y-82012386D01*
X107573886Y-82040839D01*
X107598434Y-82072649D01*
X107627084Y-82110548D01*
X107662040Y-82157264D01*
X107670351Y-82168401D01*
X107693661Y-82200485D01*
X107720576Y-82238924D01*
X107749913Y-82281888D01*
X107780490Y-82327547D01*
X107811125Y-82374071D01*
X107840635Y-82419632D01*
X107867838Y-82462399D01*
X107891551Y-82500543D01*
X107910593Y-82532234D01*
X107923781Y-82555642D01*
X107929932Y-82568938D01*
X107930233Y-82570545D01*
X107933935Y-82579132D01*
X107943364Y-82595760D01*
X107950044Y-82606617D01*
X107961370Y-82626174D01*
X107977782Y-82656643D01*
X107997921Y-82695302D01*
X108020427Y-82739432D01*
X108043940Y-82786312D01*
X108067100Y-82833221D01*
X108088549Y-82877440D01*
X108106926Y-82916247D01*
X108120871Y-82946923D01*
X108125314Y-82957291D01*
X108146192Y-83008070D01*
X108168158Y-83062631D01*
X108192694Y-83124681D01*
X108215032Y-83181851D01*
X108232772Y-83229847D01*
X108252295Y-83286810D01*
X108272851Y-83350168D01*
X108293689Y-83417345D01*
X108314059Y-83485767D01*
X108333210Y-83552860D01*
X108350392Y-83616050D01*
X108364854Y-83672762D01*
X108375845Y-83720422D01*
X108382615Y-83756455D01*
X108382669Y-83756815D01*
X108386839Y-83781798D01*
X108393249Y-83816657D01*
X108400981Y-83856523D01*
X108408104Y-83891669D01*
X108427027Y-83994169D01*
X108442262Y-84102088D01*
X108453956Y-84217244D01*
X108462255Y-84341457D01*
X108467308Y-84476544D01*
X108469260Y-84624325D01*
X108469295Y-84648250D01*
X108468125Y-84785683D01*
X108464484Y-84910667D01*
X108458173Y-85025663D01*
X108448993Y-85133128D01*
X108436746Y-85235522D01*
X108421233Y-85335303D01*
X108408120Y-85405953D01*
X108400128Y-85446953D01*
X108392575Y-85486701D01*
X108386297Y-85520729D01*
X108382131Y-85544572D01*
X108382050Y-85545067D01*
X108374681Y-85582543D01*
X108363159Y-85631472D01*
X108348291Y-85689066D01*
X108330881Y-85752540D01*
X108311735Y-85819105D01*
X108291657Y-85885974D01*
X108271454Y-85950360D01*
X108251929Y-86009476D01*
X108233889Y-86060534D01*
X108230575Y-86069414D01*
X108217103Y-86105507D01*
X108203008Y-86143874D01*
X108191179Y-86176642D01*
X108190436Y-86178734D01*
X108177875Y-86212348D01*
X108161188Y-86253805D01*
X108139631Y-86304899D01*
X108112460Y-86367421D01*
X108105916Y-86382296D01*
X108095502Y-86404821D01*
X108080197Y-86436504D01*
X108061376Y-86474638D01*
X108040415Y-86516514D01*
X108018686Y-86559421D01*
X107997567Y-86600652D01*
X107978430Y-86637498D01*
X107962650Y-86667250D01*
X107951603Y-86687198D01*
X107948929Y-86691650D01*
X107937804Y-86710200D01*
X107931110Y-86723150D01*
X107930233Y-86725955D01*
X107926538Y-86733878D01*
X107916490Y-86751918D01*
X107901645Y-86777355D01*
X107884460Y-86805987D01*
X107866762Y-86835589D01*
X107852674Y-86860061D01*
X107843649Y-86876812D01*
X107841109Y-86883235D01*
X107848893Y-86886217D01*
X107867672Y-86892582D01*
X107894055Y-86901194D01*
X107907615Y-86905535D01*
X107938328Y-86915541D01*
X107964914Y-86924621D01*
X107983045Y-86931281D01*
X107986778Y-86932848D01*
X108001578Y-86938684D01*
X108025401Y-86947122D01*
X108050862Y-86955604D01*
X108078247Y-86964693D01*
X108101588Y-86972858D01*
X108114947Y-86977974D01*
X108129172Y-86983461D01*
X108152980Y-86991989D01*
X108181638Y-87001868D01*
X108186570Y-87003532D01*
X108215973Y-87013584D01*
X108254613Y-87027018D01*
X108297542Y-87042103D01*
X108339809Y-87057109D01*
X108341126Y-87057580D01*
X108379956Y-87071390D01*
X108416370Y-87084226D01*
X108446653Y-87094784D01*
X108467089Y-87101763D01*
X108469295Y-87102493D01*
X108487706Y-87108745D01*
X108516589Y-87118802D01*
X108552227Y-87131359D01*
X108590906Y-87145114D01*
X108597464Y-87147459D01*
X108639619Y-87162440D01*
X108682598Y-87177535D01*
X108721453Y-87191018D01*
X108751239Y-87201161D01*
X108752020Y-87201422D01*
X108782692Y-87212027D01*
X108810867Y-87222385D01*
X108830913Y-87230419D01*
X108832322Y-87231045D01*
X108849802Y-87238302D01*
X108860871Y-87241737D01*
X108861442Y-87241780D01*
X108870204Y-87244146D01*
X108890075Y-87250532D01*
X108917970Y-87259870D01*
X108950804Y-87271090D01*
X108985492Y-87283124D01*
X109018948Y-87294902D01*
X109048088Y-87305356D01*
X109069826Y-87313417D01*
X109079981Y-87317498D01*
X109094779Y-87323259D01*
X109118599Y-87331644D01*
X109144065Y-87340110D01*
X109171454Y-87349236D01*
X109194798Y-87357496D01*
X109208149Y-87362731D01*
X109224767Y-87369359D01*
X109249999Y-87378432D01*
X109280692Y-87388928D01*
X109313688Y-87399825D01*
X109345834Y-87410103D01*
X109373974Y-87418740D01*
X109394953Y-87424713D01*
X109405615Y-87427002D01*
X109406293Y-87426885D01*
X109406870Y-87418472D01*
X109405571Y-87399085D01*
X109402675Y-87372673D01*
X109402155Y-87368612D01*
X109399656Y-87336645D01*
X109676270Y-87336645D01*
X109679322Y-87382725D01*
X109686389Y-87421557D01*
X109698430Y-87456984D01*
X109716406Y-87492850D01*
X109738613Y-87528927D01*
X109766060Y-87571047D01*
X109801116Y-87561851D01*
X109828868Y-87552530D01*
X109859892Y-87539203D01*
X109874212Y-87531952D01*
X109918438Y-87502847D01*
X109965459Y-87462939D01*
X110011963Y-87415215D01*
X110038029Y-87384332D01*
X110056425Y-87360789D01*
X110070533Y-87341807D01*
X110078179Y-87330349D01*
X110078942Y-87328522D01*
X110082694Y-87320251D01*
X110092453Y-87303290D01*
X110103929Y-87284769D01*
X110133575Y-87231426D01*
X110162371Y-87167076D01*
X110188950Y-87095782D01*
X110211944Y-87021607D01*
X110229986Y-86948612D01*
X110241708Y-86880861D01*
X110242730Y-86872352D01*
X110245071Y-86841029D01*
X110246367Y-86801217D01*
X110246622Y-86758094D01*
X110245840Y-86716837D01*
X110244023Y-86682624D01*
X110242598Y-86668791D01*
X110233535Y-86629948D01*
X110217867Y-86590114D01*
X110198160Y-86554844D01*
X110179307Y-86531795D01*
X110152460Y-86516351D01*
X110118527Y-86511885D01*
X110080869Y-86518497D01*
X110057305Y-86528112D01*
X110037067Y-86538484D01*
X110021327Y-86547583D01*
X110006845Y-86557893D01*
X109990382Y-86571900D01*
X109968699Y-86592088D01*
X109947619Y-86612246D01*
X109913936Y-86645981D01*
X109886345Y-86677509D01*
X109861423Y-86711300D01*
X109835750Y-86751826D01*
X109819335Y-86779884D01*
X109777912Y-86860643D01*
X109741150Y-86948913D01*
X109712074Y-87037216D01*
X109705827Y-87060513D01*
X109693573Y-87111671D01*
X109685296Y-87154706D01*
X109680161Y-87195787D01*
X109677336Y-87241083D01*
X109676271Y-87279476D01*
X109676270Y-87336645D01*
X109399656Y-87336645D01*
X109397253Y-87305908D01*
X109397166Y-87235633D01*
X109401609Y-87164239D01*
X109410294Y-87098177D01*
X109415308Y-87072805D01*
X109421089Y-87045360D01*
X109426204Y-87018638D01*
X109426736Y-87015600D01*
X109436186Y-86974273D01*
X109451362Y-86923575D01*
X109470780Y-86867379D01*
X109492956Y-86809556D01*
X109516406Y-86753978D01*
X109539645Y-86704517D01*
X109561039Y-86665289D01*
X109569273Y-86651712D01*
X109582581Y-86629742D01*
X109598233Y-86603887D01*
X109599856Y-86601205D01*
X109614634Y-86577160D01*
X109626523Y-86558506D01*
X109633302Y-86548712D01*
X109633804Y-86548161D01*
X109640162Y-86540166D01*
X109651637Y-86524125D01*
X109658449Y-86514234D01*
X109671982Y-86496945D01*
X109693398Y-86472438D01*
X109719673Y-86443907D01*
X109747782Y-86414547D01*
X109774703Y-86387552D01*
X109797410Y-86366114D01*
X109804794Y-86359678D01*
X109827470Y-86341699D01*
X109850339Y-86325256D01*
X109869671Y-86312867D01*
X109881739Y-86307056D01*
X109882854Y-86306903D01*
X109890227Y-86301206D01*
X109890459Y-86299363D01*
X109896773Y-86293238D01*
X109905537Y-86291824D01*
X109917788Y-86288667D01*
X109920616Y-86284285D01*
X109926573Y-86277248D01*
X109930040Y-86276699D01*
X109943274Y-86273378D01*
X109958864Y-86266529D01*
X109995420Y-86252191D01*
X110041241Y-86241202D01*
X110090696Y-86234560D01*
X110138158Y-86233263D01*
X110144698Y-86233587D01*
X110182879Y-86236600D01*
X110213288Y-86241260D01*
X110240631Y-86249032D01*
X110269615Y-86261381D01*
X110304949Y-86279771D01*
X110320200Y-86288192D01*
X110343054Y-86304636D01*
X110370268Y-86329635D01*
X110398010Y-86359085D01*
X110422449Y-86388881D01*
X110439752Y-86414919D01*
X110441347Y-86417952D01*
X110452240Y-86438810D01*
X110460641Y-86453540D01*
X110463564Y-86457689D01*
X110467555Y-86466692D01*
X110474163Y-86487149D01*
X110482514Y-86515848D01*
X110491733Y-86549573D01*
X110500948Y-86585111D01*
X110509284Y-86619247D01*
X110515866Y-86648768D01*
X110516868Y-86653700D01*
X110521654Y-86688140D01*
X110524889Y-86732620D01*
X110526469Y-86782170D01*
X110526287Y-86831819D01*
X110524236Y-86876598D01*
X110522105Y-86898740D01*
X110499785Y-87031278D01*
X110466207Y-87156118D01*
X110420453Y-87276538D01*
X110409495Y-87300958D01*
X110396815Y-87328736D01*
X110386951Y-87350789D01*
X110381312Y-87363950D01*
X110380515Y-87366218D01*
X110376707Y-87374944D01*
X110366679Y-87392880D01*
X110352523Y-87416659D01*
X110336332Y-87442910D01*
X110320198Y-87468265D01*
X110306213Y-87489355D01*
X110296471Y-87502810D01*
X110294018Y-87505486D01*
X110284391Y-87517062D01*
X110282504Y-87522958D01*
X110277542Y-87533024D01*
X110264074Y-87551314D01*
X110244226Y-87575361D01*
X110220123Y-87602695D01*
X110193891Y-87630850D01*
X110167656Y-87657356D01*
X110162279Y-87662546D01*
X110090911Y-87723318D01*
X110018286Y-87769968D01*
X109942764Y-87803445D01*
X109894736Y-87817764D01*
X109841521Y-87825820D01*
X109795649Y-87822101D01*
X109758082Y-87806799D01*
X109734017Y-87785583D01*
X109726538Y-87779853D01*
X109724593Y-87782630D01*
X109717883Y-87788797D01*
X109700608Y-87795728D01*
X109684623Y-87800014D01*
X109668609Y-87802983D01*
X109652627Y-87804123D01*
X109634765Y-87802977D01*
X109613115Y-87799086D01*
X109585766Y-87791992D01*
X109550807Y-87781237D01*
X109506330Y-87766362D01*
X109450423Y-87746909D01*
X109423020Y-87737244D01*
X109374232Y-87720032D01*
X109321494Y-87701489D01*
X109270331Y-87683553D01*
X109226265Y-87668162D01*
X109215689Y-87664481D01*
X109173569Y-87649788D01*
X109129417Y-87634300D01*
X109089024Y-87620052D01*
X109063017Y-87610811D01*
X109023646Y-87596771D01*
X108979439Y-87581046D01*
X108939755Y-87566964D01*
X108938618Y-87566562D01*
X108908490Y-87555864D01*
X108882403Y-87546550D01*
X108864700Y-87540172D01*
X108861340Y-87538940D01*
X108847535Y-87534079D01*
X108842492Y-87532573D01*
X108834008Y-87529832D01*
X108815328Y-87523373D01*
X108790447Y-87514578D01*
X108789716Y-87514317D01*
X108757562Y-87502850D01*
X108719176Y-87489165D01*
X108682531Y-87476104D01*
X108680396Y-87475344D01*
X108655268Y-87466457D01*
X108618950Y-87453702D01*
X108574501Y-87438150D01*
X108524980Y-87420869D01*
X108473446Y-87402930D01*
X108454216Y-87396248D01*
X108406504Y-87379661D01*
X108363179Y-87364567D01*
X108326403Y-87351721D01*
X108298335Y-87341879D01*
X108281135Y-87335797D01*
X108277042Y-87334309D01*
X108262322Y-87329277D01*
X108258194Y-87328124D01*
X108247980Y-87324825D01*
X108228154Y-87317922D01*
X108203245Y-87309038D01*
X108177785Y-87299796D01*
X108156305Y-87291818D01*
X108148874Y-87288968D01*
X108136751Y-87284612D01*
X108133795Y-87283775D01*
X108125311Y-87281034D01*
X108106631Y-87274575D01*
X108081750Y-87265780D01*
X108081020Y-87265519D01*
X108048848Y-87254065D01*
X108010443Y-87240424D01*
X107973787Y-87227431D01*
X107971699Y-87226693D01*
X107909252Y-87204457D01*
X107859322Y-87186288D01*
X107820141Y-87171428D01*
X107789939Y-87159115D01*
X107766950Y-87148592D01*
X107749404Y-87139098D01*
X107735534Y-87129875D01*
X107723570Y-87120164D01*
X107723555Y-87120150D01*
X107691611Y-87092033D01*
X107677638Y-87116016D01*
X107667347Y-87131720D01*
X107650214Y-87155888D01*
X107628756Y-87185157D01*
X107605488Y-87216167D01*
X107582926Y-87245556D01*
X107563585Y-87269964D01*
X107552473Y-87283246D01*
X107540951Y-87296610D01*
X107523534Y-87317057D01*
X107504306Y-87339791D01*
X107471051Y-87379149D01*
X107444615Y-87410107D01*
X107422178Y-87435860D01*
X107400918Y-87459602D01*
X107378014Y-87484528D01*
X107350645Y-87513831D01*
X107349705Y-87514834D01*
X107316666Y-87549390D01*
X107277672Y-87589133D01*
X107235549Y-87631276D01*
X107193122Y-87673034D01*
X107153217Y-87711620D01*
X107118660Y-87744248D01*
X107097137Y-87763857D01*
X107075871Y-87782578D01*
X107048937Y-87806073D01*
X107022111Y-87829303D01*
X107021744Y-87829619D01*
X106996486Y-87851667D01*
X106972544Y-87873035D01*
X106954821Y-87889343D01*
X106953890Y-87890230D01*
X106932092Y-87909556D01*
X106909171Y-87927783D01*
X106907123Y-87929279D01*
X106891546Y-87940747D01*
X106867374Y-87958805D01*
X106838008Y-87980904D01*
X106809112Y-88002775D01*
X106756215Y-88042687D01*
X106711166Y-88075995D01*
X106670286Y-88105241D01*
X106629900Y-88132971D01*
X106586328Y-88161727D01*
X106535894Y-88194054D01*
X106497760Y-88218142D01*
X106469048Y-88236161D01*
X106447200Y-88249652D01*
X106427375Y-88261502D01*
X106404734Y-88274595D01*
X106374435Y-88291819D01*
X106369592Y-88294562D01*
X106340575Y-88311047D01*
X106312351Y-88327161D01*
X106291839Y-88338951D01*
X106263091Y-88355583D01*
X106293329Y-88367682D01*
X106316751Y-88376160D01*
X106337252Y-88382142D01*
X106341126Y-88382964D01*
X106359327Y-88387962D01*
X106382651Y-88396406D01*
X106388642Y-88398874D01*
X106409968Y-88407409D01*
X106426680Y-88413201D01*
X106429906Y-88414055D01*
X106442656Y-88417818D01*
X106464445Y-88425136D01*
X106486451Y-88432947D01*
X106518273Y-88444452D01*
X106555405Y-88457795D01*
X106584463Y-88468181D01*
X106612554Y-88478355D01*
X106636648Y-88487380D01*
X106651783Y-88493395D01*
X106652317Y-88493628D01*
X106665528Y-88498700D01*
X106689335Y-88507161D01*
X106720005Y-88517703D01*
X106744600Y-88525967D01*
X106777302Y-88537300D01*
X106805195Y-88547803D01*
X106824805Y-88556119D01*
X106831996Y-88560113D01*
X106842469Y-88565497D01*
X106845990Y-88564767D01*
X106854612Y-88565056D01*
X106871712Y-88570316D01*
X106879224Y-88573288D01*
X106897435Y-88580353D01*
X106926216Y-88590870D01*
X106961839Y-88603504D01*
X107000577Y-88616917D01*
X107006665Y-88618995D01*
X107043875Y-88631780D01*
X107076933Y-88643346D01*
X107102701Y-88652579D01*
X107118038Y-88658366D01*
X107119755Y-88659090D01*
X107131372Y-88663737D01*
X107152796Y-88671645D01*
X107184890Y-88683121D01*
X107228517Y-88698470D01*
X107284538Y-88717997D01*
X107353816Y-88742007D01*
X107368156Y-88746965D01*
X107400176Y-88758431D01*
X107427246Y-88768864D01*
X107445914Y-88776890D01*
X107452180Y-88780379D01*
X107463928Y-88786291D01*
X107467655Y-88786410D01*
X107472205Y-88786050D01*
X107479504Y-88787581D01*
X107492796Y-88792019D01*
X107515325Y-88800385D01*
X107530649Y-88806199D01*
X107565924Y-88819185D01*
X107601241Y-88831439D01*
X107633670Y-88842034D01*
X107660281Y-88850040D01*
X107678144Y-88854527D01*
X107684247Y-88854897D01*
X107686897Y-88846014D01*
X107689965Y-88826890D01*
X107691930Y-88809921D01*
X107698470Y-88758992D01*
X107708041Y-88703406D01*
X107719669Y-88647695D01*
X107732380Y-88596391D01*
X107745199Y-88554024D01*
X107749466Y-88542314D01*
X107755978Y-88524881D01*
X107763968Y-88502748D01*
X107764641Y-88500848D01*
X107796684Y-88421749D01*
X107838345Y-88336994D01*
X107887517Y-88250407D01*
X107942089Y-88165809D01*
X107974679Y-88120111D01*
X107991015Y-88100085D01*
X108015363Y-88072731D01*
X108045125Y-88040727D01*
X108077699Y-88006749D01*
X108110487Y-87973474D01*
X108140889Y-87943581D01*
X108166304Y-87919745D01*
X108183345Y-87905241D01*
X108208338Y-87887235D01*
X108235517Y-87869334D01*
X108261369Y-87853654D01*
X108282384Y-87842316D01*
X108295051Y-87837438D01*
X108295774Y-87837387D01*
X108305882Y-87833352D01*
X108307199Y-87829847D01*
X108312942Y-87822533D01*
X108314776Y-87822308D01*
X108325278Y-87819235D01*
X108344473Y-87811303D01*
X108361423Y-87803460D01*
X108384470Y-87793128D01*
X108402867Y-87786282D01*
X108410391Y-87784611D01*
X108419491Y-87780656D01*
X108420289Y-87778102D01*
X108427241Y-87772690D01*
X108445838Y-87766741D01*
X108472699Y-87760926D01*
X108504438Y-87755916D01*
X108537673Y-87752382D01*
X108555466Y-87751306D01*
X108628352Y-87754853D01*
X108695079Y-87771958D01*
X108756697Y-87802935D01*
X108778407Y-87817973D01*
X108813935Y-87847673D01*
X108842990Y-87880059D01*
X108868820Y-87919304D01*
X108891996Y-87963944D01*
X108917863Y-88023333D01*
X108935152Y-88077377D01*
X108945293Y-88132012D01*
X108949711Y-88193173D01*
X108950006Y-88205185D01*
X108945347Y-88314882D01*
X108927577Y-88428469D01*
X108921487Y-88455612D01*
X108916097Y-88475991D01*
X108908169Y-88503231D01*
X108898896Y-88533559D01*
X108889470Y-88563200D01*
X108881083Y-88588383D01*
X108874925Y-88605334D01*
X108872670Y-88610168D01*
X108866917Y-88621761D01*
X108859551Y-88641235D01*
X108857579Y-88647158D01*
X108845819Y-88677568D01*
X108827741Y-88716920D01*
X108805256Y-88761520D01*
X108780273Y-88807673D01*
X108754700Y-88851683D01*
X108738393Y-88877814D01*
X108697738Y-88938354D01*
X108658900Y-88990509D01*
X108617566Y-89039669D01*
X108569425Y-89091226D01*
X108559767Y-89101112D01*
X108531527Y-89128770D01*
X108500231Y-89157635D01*
X108468128Y-89185837D01*
X108437466Y-89211503D01*
X108410495Y-89232760D01*
X108389463Y-89247736D01*
X108376620Y-89254559D01*
X108375188Y-89254780D01*
X108366215Y-89258412D01*
X108348300Y-89267935D01*
X108325316Y-89281291D01*
X108325227Y-89281345D01*
X108297253Y-89296576D01*
X108269249Y-89309249D01*
X108250805Y-89315586D01*
X108227499Y-89322202D01*
X108208294Y-89328828D01*
X108205418Y-89330040D01*
X108167647Y-89341899D01*
X108120386Y-89349108D01*
X108068566Y-89351418D01*
X108017118Y-89348584D01*
X107975705Y-89341550D01*
X107952655Y-89334733D01*
X107936512Y-89327613D01*
X107931726Y-89323343D01*
X107922898Y-89316395D01*
X107914910Y-89315095D01*
X107902666Y-89309418D01*
X107887095Y-89295596D01*
X107872583Y-89278440D01*
X107863515Y-89262762D01*
X107862379Y-89257457D01*
X107859403Y-89245798D01*
X107853417Y-89231257D01*
X107843292Y-89218041D01*
X107825360Y-89209212D01*
X107806296Y-89204418D01*
X107785306Y-89198902D01*
X107754004Y-89189176D01*
X107716140Y-89176470D01*
X107675467Y-89162014D01*
X107662587Y-89157264D01*
X107622212Y-89142330D01*
X107583938Y-89128357D01*
X107551371Y-89116647D01*
X107528121Y-89108507D01*
X107523109Y-89106827D01*
X107499227Y-89098687D01*
X107479275Y-89091375D01*
X107474104Y-89089296D01*
X107455799Y-89082106D01*
X107436407Y-89075099D01*
X107385881Y-89057550D01*
X107336404Y-89040134D01*
X107290184Y-89023649D01*
X107249425Y-89008895D01*
X107216336Y-88996669D01*
X107193122Y-88987771D01*
X107182057Y-88983036D01*
X107165179Y-88976843D01*
X107157452Y-88975825D01*
X107141146Y-88972306D01*
X107132847Y-88968642D01*
X107119155Y-88962690D01*
X107096197Y-88954172D01*
X107070749Y-88945529D01*
X107043377Y-88936439D01*
X107020042Y-88928350D01*
X107006665Y-88923353D01*
X106990842Y-88917135D01*
X106968864Y-88908886D01*
X106945490Y-88900340D01*
X106929329Y-88894599D01*
X107975553Y-88894599D01*
X107980020Y-88949758D01*
X107982299Y-88961353D01*
X107987603Y-88989697D01*
X107991289Y-89017737D01*
X107991754Y-89023368D01*
X107994889Y-89042991D01*
X108002891Y-89052572D01*
X108012838Y-89055895D01*
X108030281Y-89060126D01*
X108039553Y-89062905D01*
X108051614Y-89063937D01*
X108073864Y-89063232D01*
X108101561Y-89061147D01*
X108129963Y-89058040D01*
X108154325Y-89054270D01*
X108154528Y-89054231D01*
X108171150Y-89049700D01*
X108178948Y-89044963D01*
X108179031Y-89044538D01*
X108185071Y-89038307D01*
X108200229Y-89028604D01*
X108207303Y-89024733D01*
X108225688Y-89014679D01*
X108237646Y-89007388D01*
X108239345Y-89006055D01*
X108246667Y-88999676D01*
X108262362Y-88986529D01*
X108283124Y-88969382D01*
X108284460Y-88968286D01*
X108312393Y-88943810D01*
X108342624Y-88914974D01*
X108363623Y-88893321D01*
X108384977Y-88870241D01*
X108404646Y-88849139D01*
X108418379Y-88834575D01*
X108418405Y-88834549D01*
X108430066Y-88821324D01*
X108435342Y-88813303D01*
X108435368Y-88813065D01*
X108439522Y-88805594D01*
X108450454Y-88789458D01*
X108465868Y-88768033D01*
X108467133Y-88766318D01*
X108511150Y-88699829D01*
X108552928Y-88623786D01*
X108590203Y-88543086D01*
X108620711Y-88462627D01*
X108642087Y-88387758D01*
X108651205Y-88346507D01*
X108657157Y-88314660D01*
X108660554Y-88287026D01*
X108662009Y-88258410D01*
X108662134Y-88223620D01*
X108662082Y-88218123D01*
X108661491Y-88179433D01*
X108660303Y-88152113D01*
X108657971Y-88132453D01*
X108653949Y-88116745D01*
X108647690Y-88101280D01*
X108643573Y-88092524D01*
X108626983Y-88063888D01*
X108608413Y-88047303D01*
X108583364Y-88039950D01*
X108557787Y-88038799D01*
X108514604Y-88044317D01*
X108469246Y-88060686D01*
X108420045Y-88088695D01*
X108365334Y-88129131D01*
X108363744Y-88130419D01*
X108274233Y-88212508D01*
X108195126Y-88305057D01*
X108126203Y-88408384D01*
X108067245Y-88522805D01*
X108031603Y-88610168D01*
X108007284Y-88685283D01*
X107989576Y-88759581D01*
X107978869Y-88830280D01*
X107975553Y-88894599D01*
X106929329Y-88894599D01*
X106925478Y-88893231D01*
X106913587Y-88889293D01*
X106912424Y-88889005D01*
X106898692Y-88885386D01*
X106878588Y-88878860D01*
X106859800Y-88871964D01*
X106855879Y-88870337D01*
X106840004Y-88864084D01*
X106811615Y-88853675D01*
X106770257Y-88838949D01*
X106715477Y-88819744D01*
X106652317Y-88797802D01*
X106619420Y-88786278D01*
X106590630Y-88775953D01*
X106569720Y-88768194D01*
X106561845Y-88765043D01*
X106548548Y-88759964D01*
X106524710Y-88751569D01*
X106494136Y-88741180D01*
X106471373Y-88733627D01*
X106439056Y-88722634D01*
X106411580Y-88712588D01*
X106392469Y-88704817D01*
X106385926Y-88701421D01*
X106369341Y-88693831D01*
X106363308Y-88692616D01*
X106352725Y-88689750D01*
X106331114Y-88682759D01*
X106301593Y-88672742D01*
X106267278Y-88660798D01*
X106231286Y-88648027D01*
X106196735Y-88635527D01*
X106166742Y-88624396D01*
X106144424Y-88615735D01*
X106139642Y-88613761D01*
X106124893Y-88608127D01*
X106101155Y-88599660D01*
X106075558Y-88590869D01*
X106035021Y-88576258D01*
X106005671Y-88562824D01*
X105984008Y-88548337D01*
X105966532Y-88530566D01*
X105953745Y-88513271D01*
X105944812Y-88512671D01*
X105924915Y-88518013D01*
X105896603Y-88528548D01*
X105884727Y-88533517D01*
X105790520Y-88571502D01*
X105684665Y-88609825D01*
X105570532Y-88647500D01*
X105451493Y-88683536D01*
X105330920Y-88716945D01*
X105212184Y-88746740D01*
X105098657Y-88771931D01*
X105020052Y-88787016D01*
X104853104Y-88812766D01*
X104682109Y-88831438D01*
X104505061Y-88843135D01*
X104319954Y-88847959D01*
X104124783Y-88846011D01*
X103972085Y-88840240D01*
X103791509Y-88826025D01*
X103604200Y-88800974D01*
X103413142Y-88765779D01*
X103221322Y-88721130D01*
X103031724Y-88667720D01*
X102847336Y-88606240D01*
X102679090Y-88540728D01*
X102640688Y-88525130D01*
X102611943Y-88515026D01*
X102588921Y-88509385D01*
X102567687Y-88507177D01*
X102550922Y-88507142D01*
X102503407Y-88502097D01*
X102463785Y-88484289D01*
X102432300Y-88453834D01*
X102428142Y-88447957D01*
X102420785Y-88438560D01*
X102410551Y-88428897D01*
X102395856Y-88418010D01*
X102375115Y-88404938D01*
X102346741Y-88388724D01*
X102309149Y-88368406D01*
X102260754Y-88343027D01*
X102219191Y-88321524D01*
X102173934Y-88296722D01*
X102119182Y-88264311D01*
X102057378Y-88225893D01*
X101990967Y-88183069D01*
X101922392Y-88137441D01*
X101854098Y-88090610D01*
X101788527Y-88044176D01*
X101728368Y-87999926D01*
X101700743Y-87979010D01*
X101675964Y-87959887D01*
X101650607Y-87939840D01*
X101621244Y-87916155D01*
X101584450Y-87886117D01*
X101575313Y-87878628D01*
X101533966Y-87843403D01*
X101486287Y-87800560D01*
X101434019Y-87751850D01*
X101378905Y-87699025D01*
X101322689Y-87643837D01*
X101267113Y-87588037D01*
X101213921Y-87533377D01*
X101164855Y-87481611D01*
X101121660Y-87434488D01*
X101086079Y-87393762D01*
X101059854Y-87361183D01*
X101058147Y-87358894D01*
X101043169Y-87340668D01*
X101020833Y-87315918D01*
X100994699Y-87288519D01*
X100978448Y-87272192D01*
X100934108Y-87223568D01*
X100900090Y-87175893D01*
X100892482Y-87162617D01*
X100875776Y-87133103D01*
X100858541Y-87105137D01*
X100844332Y-87084468D01*
X100843551Y-87083454D01*
X100828252Y-87062865D01*
X100809617Y-87036393D01*
X100789496Y-87006849D01*
X100769740Y-86977042D01*
X100752199Y-86949782D01*
X100738721Y-86927880D01*
X100731159Y-86914145D01*
X100730174Y-86911261D01*
X100725014Y-86901089D01*
X100719415Y-86895428D01*
X100711304Y-86885265D01*
X100697019Y-86863725D01*
X100677668Y-86832632D01*
X100654358Y-86793813D01*
X100628196Y-86749094D01*
X100600287Y-86700302D01*
X100588909Y-86680100D01*
X100577893Y-86659634D01*
X100562677Y-86630220D01*
X100544333Y-86594045D01*
X100523934Y-86553295D01*
X100502553Y-86510158D01*
X100481263Y-86466818D01*
X100461137Y-86425463D01*
X100443248Y-86388279D01*
X100428668Y-86357453D01*
X100418471Y-86335171D01*
X100413729Y-86323620D01*
X100413522Y-86322668D01*
X100410547Y-86313439D01*
X100402625Y-86294171D01*
X100391256Y-86268457D01*
X100386846Y-86258829D01*
X100371212Y-86223343D01*
X100355444Y-86184883D01*
X100342850Y-86151534D01*
X100342429Y-86150332D01*
X100330000Y-86115120D01*
X100315843Y-86075517D01*
X100305456Y-86046796D01*
X100289980Y-86002234D01*
X100271944Y-85946880D01*
X100252507Y-85884553D01*
X100232832Y-85819073D01*
X100214078Y-85754259D01*
X100197407Y-85693931D01*
X100192022Y-85673599D01*
X100183001Y-85638316D01*
X100174837Y-85604478D01*
X100167046Y-85569675D01*
X100159141Y-85531495D01*
X100150637Y-85487524D01*
X100141049Y-85435353D01*
X100129891Y-85372569D01*
X100119925Y-85315481D01*
X100103984Y-85207349D01*
X100091372Y-85087540D01*
X100082093Y-84958820D01*
X100076145Y-84823954D01*
X100073531Y-84685709D01*
X100073676Y-84657719D01*
X100294520Y-84657719D01*
X100294564Y-84726276D01*
X100295338Y-84789794D01*
X100296879Y-84845399D01*
X100299224Y-84890220D01*
X100299879Y-84898668D01*
X100302840Y-84933113D01*
X100305789Y-84964949D01*
X100309008Y-84996576D01*
X100312778Y-85030396D01*
X100317381Y-85068809D01*
X100323098Y-85114217D01*
X100330210Y-85169021D01*
X100338999Y-85235622D01*
X100342094Y-85258936D01*
X100355172Y-85342188D01*
X100373395Y-85435834D01*
X100395910Y-85536436D01*
X100421861Y-85640556D01*
X100450395Y-85744753D01*
X100480657Y-85845590D01*
X100509730Y-85933706D01*
X100525381Y-85977986D01*
X100542167Y-86024065D01*
X100559264Y-86069833D01*
X100575847Y-86113174D01*
X100591090Y-86151977D01*
X100604169Y-86184128D01*
X100614259Y-86207515D01*
X100620535Y-86220024D01*
X100622085Y-86221482D01*
X100622032Y-86213393D01*
X100619834Y-86193358D01*
X100615862Y-86164299D01*
X100610488Y-86129138D01*
X100609852Y-86125178D01*
X100596596Y-86036723D01*
X100583519Y-85937576D01*
X100571140Y-85832120D01*
X100559983Y-85724739D01*
X100552546Y-85643442D01*
X100548466Y-85585907D01*
X100544877Y-85515827D01*
X100541812Y-85435726D01*
X100539300Y-85348132D01*
X100537374Y-85255569D01*
X100536065Y-85160564D01*
X100535404Y-85065642D01*
X100535407Y-85051540D01*
X100801488Y-85051540D01*
X100801818Y-85141124D01*
X100802695Y-85229730D01*
X100804111Y-85315067D01*
X100806055Y-85394842D01*
X100808519Y-85466765D01*
X100811493Y-85528542D01*
X100814968Y-85577882D01*
X100815443Y-85583127D01*
X100839344Y-85807667D01*
X100867915Y-86019076D01*
X100901397Y-86218634D01*
X100940029Y-86407626D01*
X100984054Y-86587331D01*
X101033711Y-86759033D01*
X101039937Y-86778777D01*
X101059868Y-86839824D01*
X101080700Y-86900784D01*
X101101660Y-86959625D01*
X101121976Y-87014315D01*
X101140874Y-87062823D01*
X101157583Y-87103117D01*
X101171330Y-87133164D01*
X101181341Y-87150934D01*
X101181614Y-87151308D01*
X101202990Y-87178452D01*
X101232974Y-87214037D01*
X101269533Y-87255818D01*
X101310637Y-87301549D01*
X101354257Y-87348984D01*
X101398360Y-87395878D01*
X101440916Y-87439984D01*
X101461411Y-87460723D01*
X101515053Y-87512820D01*
X101577077Y-87570298D01*
X101643614Y-87629743D01*
X101710797Y-87687740D01*
X101774760Y-87740876D01*
X101815485Y-87773302D01*
X101840460Y-87792872D01*
X101864631Y-87812016D01*
X101878379Y-87823045D01*
X101900760Y-87840275D01*
X101931143Y-87862359D01*
X101967548Y-87887984D01*
X102007998Y-87915834D01*
X102050514Y-87944596D01*
X102093117Y-87972956D01*
X102133829Y-87999599D01*
X102170671Y-88023213D01*
X102201665Y-88042482D01*
X102224833Y-88056093D01*
X102238194Y-88062731D01*
X102239924Y-88063163D01*
X102245577Y-88060522D01*
X102245579Y-88060444D01*
X102243059Y-88052526D01*
X102236268Y-88033695D01*
X102226361Y-88007107D01*
X102218709Y-87986935D01*
X102207092Y-87955141D01*
X102192531Y-87913237D01*
X102176485Y-87865535D01*
X102160415Y-87816349D01*
X102151513Y-87788381D01*
X102077141Y-87532492D01*
X102011224Y-87264622D01*
X101953854Y-86985339D01*
X101905124Y-86695208D01*
X101865127Y-86394798D01*
X101833955Y-86084674D01*
X101811702Y-85765404D01*
X101807581Y-85685020D01*
X101805735Y-85635317D01*
X101804298Y-85573718D01*
X101803255Y-85502191D01*
X101802592Y-85422705D01*
X101802295Y-85337228D01*
X101802341Y-85260851D01*
X102061119Y-85260851D01*
X102064529Y-85483596D01*
X102073718Y-85706424D01*
X102079966Y-85809307D01*
X102100588Y-86067770D01*
X102127397Y-86321753D01*
X102160168Y-86570164D01*
X102198676Y-86811908D01*
X102242697Y-87045892D01*
X102292005Y-87271024D01*
X102346375Y-87486210D01*
X102405582Y-87690356D01*
X102469400Y-87882369D01*
X102537606Y-88061156D01*
X102549536Y-88089954D01*
X102571993Y-88143519D01*
X102589481Y-88184917D01*
X102602924Y-88215862D01*
X102613249Y-88238064D01*
X102621381Y-88253238D01*
X102628246Y-88263094D01*
X102634769Y-88269346D01*
X102641876Y-88273704D01*
X102650492Y-88277883D01*
X102651348Y-88278296D01*
X102682361Y-88292439D01*
X102724187Y-88310227D01*
X102773415Y-88330304D01*
X102826633Y-88351316D01*
X102880429Y-88371905D01*
X102931392Y-88390715D01*
X102958045Y-88400185D01*
X102991439Y-88411758D01*
X103021067Y-88421774D01*
X103049595Y-88431044D01*
X103079690Y-88440380D01*
X103114018Y-88450593D01*
X103155248Y-88462496D01*
X103206044Y-88476899D01*
X103259619Y-88491962D01*
X103330717Y-88510738D01*
X103408659Y-88529305D01*
X103488933Y-88546715D01*
X103567028Y-88562023D01*
X103638434Y-88574283D01*
X103681821Y-88580518D01*
X103722626Y-88585827D01*
X103761708Y-88591031D01*
X103794687Y-88595539D01*
X103817183Y-88598761D01*
X103817529Y-88598813D01*
X103841346Y-88602313D01*
X103859668Y-88604820D01*
X103865098Y-88605458D01*
X103865908Y-88600833D01*
X103858351Y-88587830D01*
X103845129Y-88570586D01*
X103789206Y-88495808D01*
X103734232Y-88407216D01*
X103680778Y-88306070D01*
X103629417Y-88193630D01*
X103580720Y-88071156D01*
X103535258Y-87939907D01*
X103493603Y-87801145D01*
X103489744Y-87787178D01*
X103489612Y-87786710D01*
X103776063Y-87786710D01*
X103778412Y-87797387D01*
X103784922Y-87819714D01*
X103794785Y-87851106D01*
X103807192Y-87888976D01*
X103818168Y-87921497D01*
X103861891Y-88038702D01*
X103910074Y-88148084D01*
X103961994Y-88248482D01*
X104016929Y-88338733D01*
X104074158Y-88417675D01*
X104132958Y-88484148D01*
X104192608Y-88536988D01*
X104207267Y-88547721D01*
X104232173Y-88567247D01*
X104253909Y-88587862D01*
X104266840Y-88603795D01*
X104275278Y-88616519D01*
X104283743Y-88624026D01*
X104296237Y-88627690D01*
X104316760Y-88628884D01*
X104340242Y-88628985D01*
X104370289Y-88628392D01*
X104410317Y-88626795D01*
X104455278Y-88624432D01*
X104500126Y-88621541D01*
X104503608Y-88621290D01*
X104548442Y-88617517D01*
X104603483Y-88612080D01*
X104665146Y-88605406D01*
X104729843Y-88597923D01*
X104793990Y-88590059D01*
X104854000Y-88582241D01*
X104906287Y-88574897D01*
X104947264Y-88568453D01*
X104948428Y-88568253D01*
X105002118Y-88558147D01*
X105065277Y-88544923D01*
X105132909Y-88529729D01*
X105200019Y-88513711D01*
X105261613Y-88498016D01*
X105299007Y-88487769D01*
X105338573Y-88476586D01*
X105376637Y-88465993D01*
X105408871Y-88457186D01*
X105430944Y-88451359D01*
X105430945Y-88451358D01*
X105475684Y-88438584D01*
X105531464Y-88420335D01*
X105595695Y-88397578D01*
X105665784Y-88371282D01*
X105739141Y-88342413D01*
X105813174Y-88311938D01*
X105871415Y-88286935D01*
X105908273Y-88270224D01*
X105952761Y-88249156D01*
X106002254Y-88225062D01*
X106054129Y-88199272D01*
X106105762Y-88173118D01*
X106154529Y-88147928D01*
X106197806Y-88125035D01*
X106232969Y-88105767D01*
X106257395Y-88091456D01*
X106259250Y-88090283D01*
X106281186Y-88076645D01*
X106297850Y-88067017D01*
X106305389Y-88063566D01*
X106315335Y-88059343D01*
X106335768Y-88047459D01*
X106364955Y-88029095D01*
X106401169Y-88005433D01*
X106442679Y-87977653D01*
X106487755Y-87946935D01*
X106534669Y-87914460D01*
X106581690Y-87881410D01*
X106627088Y-87848965D01*
X106669135Y-87818305D01*
X106706100Y-87790611D01*
X106713116Y-87785236D01*
X106745028Y-87760523D01*
X106773304Y-87738187D01*
X106799971Y-87716488D01*
X106827052Y-87693686D01*
X106856575Y-87668039D01*
X106890564Y-87637807D01*
X106931045Y-87601249D01*
X106980044Y-87556626D01*
X106994134Y-87543757D01*
X107027866Y-87512495D01*
X107061218Y-87480810D01*
X107090899Y-87451880D01*
X107113614Y-87428884D01*
X107118533Y-87423667D01*
X107142128Y-87398307D01*
X107165892Y-87372922D01*
X107183839Y-87353894D01*
X107203153Y-87333071D01*
X107226648Y-87307069D01*
X107245447Y-87285829D01*
X107269023Y-87258876D01*
X107293914Y-87230434D01*
X107310387Y-87211622D01*
X107324909Y-87194252D01*
X107346609Y-87167281D01*
X107373584Y-87133147D01*
X107403932Y-87094287D01*
X107435750Y-87053137D01*
X107467136Y-87012137D01*
X107496188Y-86973722D01*
X107498706Y-86970364D01*
X107508968Y-86955915D01*
X107525792Y-86931379D01*
X107547482Y-86899283D01*
X107572340Y-86862154D01*
X107598668Y-86822520D01*
X107624771Y-86782909D01*
X107632851Y-86770572D01*
X107662669Y-86723035D01*
X107697141Y-86664793D01*
X107734586Y-86598828D01*
X107773326Y-86528117D01*
X107811679Y-86455642D01*
X107825245Y-86429346D01*
X107868722Y-86344457D01*
X107807121Y-86399188D01*
X107781794Y-86421755D01*
X107760788Y-86440594D01*
X107746579Y-86453476D01*
X107741750Y-86458017D01*
X107732586Y-86466303D01*
X107713779Y-86482129D01*
X107687535Y-86503712D01*
X107656059Y-86529268D01*
X107621559Y-86557013D01*
X107586241Y-86585163D01*
X107552310Y-86611935D01*
X107526879Y-86631755D01*
X107356070Y-86757333D01*
X107172604Y-86879902D01*
X106978801Y-86998174D01*
X106776984Y-87110863D01*
X106569474Y-87216683D01*
X106358593Y-87314349D01*
X106146664Y-87402573D01*
X106109485Y-87417005D01*
X105837474Y-87514874D01*
X105569057Y-87598245D01*
X105304282Y-87667109D01*
X105043198Y-87721457D01*
X104785853Y-87761280D01*
X104532297Y-87786567D01*
X104282578Y-87797312D01*
X104100254Y-87795893D01*
X104031988Y-87793824D01*
X103976923Y-87792054D01*
X103933186Y-87790485D01*
X103898904Y-87789017D01*
X103872204Y-87787553D01*
X103851214Y-87785992D01*
X103834061Y-87784236D01*
X103818872Y-87782187D01*
X103808105Y-87780475D01*
X103787627Y-87778059D01*
X103778141Y-87780307D01*
X103776063Y-87786710D01*
X103489612Y-87786710D01*
X103478383Y-87746787D01*
X103467426Y-87709692D01*
X103457901Y-87679247D01*
X103450836Y-87658805D01*
X103449079Y-87654510D01*
X103442818Y-87634214D01*
X103437338Y-87605413D01*
X103434101Y-87577280D01*
X103431042Y-87548817D01*
X103425684Y-87510643D01*
X103418789Y-87467808D01*
X103411338Y-87426493D01*
X103400191Y-87362995D01*
X103388629Y-87287369D01*
X103377023Y-87202542D01*
X103365744Y-87111444D01*
X103355164Y-87017003D01*
X103345652Y-86922150D01*
X103341141Y-86872352D01*
X103337936Y-86826089D01*
X103335121Y-86766755D01*
X103332703Y-86696354D01*
X103330689Y-86616889D01*
X103329739Y-86565605D01*
X103590263Y-86565605D01*
X103591429Y-86599128D01*
X103593657Y-86641948D01*
X103596825Y-86692163D01*
X103600810Y-86747866D01*
X103605488Y-86807155D01*
X103610738Y-86868125D01*
X103616435Y-86928871D01*
X103618312Y-86947746D01*
X103638385Y-87122884D01*
X103662046Y-87285474D01*
X103679068Y-87383183D01*
X103694864Y-87468042D01*
X103737348Y-87479673D01*
X103767341Y-87488420D01*
X103796821Y-87497861D01*
X103809990Y-87502483D01*
X103832028Y-87508524D01*
X103865559Y-87514417D01*
X103911524Y-87520284D01*
X103970867Y-87526250D01*
X104028630Y-87531179D01*
X104058266Y-87532567D01*
X104100220Y-87533157D01*
X104151756Y-87533021D01*
X104210139Y-87532232D01*
X104272632Y-87530863D01*
X104336502Y-87528986D01*
X104399011Y-87526676D01*
X104457425Y-87524004D01*
X104509007Y-87521044D01*
X104551023Y-87517868D01*
X104560153Y-87517005D01*
X104791996Y-87487911D01*
X105029946Y-87446460D01*
X105272069Y-87393048D01*
X105516430Y-87328074D01*
X105601382Y-87302901D01*
X105815511Y-87232825D01*
X106028145Y-87153553D01*
X106238143Y-87065778D01*
X106444366Y-86970194D01*
X106645672Y-86867492D01*
X106840922Y-86758367D01*
X107028975Y-86643511D01*
X107208691Y-86523617D01*
X107378928Y-86399378D01*
X107538547Y-86271487D01*
X107686408Y-86140637D01*
X107821369Y-86007521D01*
X107929059Y-85888470D01*
X107968391Y-85842731D01*
X107999673Y-85807322D01*
X108024309Y-85780826D01*
X108043701Y-85761824D01*
X108059251Y-85748900D01*
X108072361Y-85740634D01*
X108077823Y-85738063D01*
X108088639Y-85732527D01*
X108096568Y-85724681D01*
X108103084Y-85711470D01*
X108109660Y-85689839D01*
X108117771Y-85656732D01*
X108118459Y-85653799D01*
X108127139Y-85616989D01*
X108138002Y-85571256D01*
X108149682Y-85522332D01*
X108160815Y-85475950D01*
X108161183Y-85474426D01*
X108171390Y-85429704D01*
X108180963Y-85383557D01*
X108188882Y-85341161D01*
X108194131Y-85307694D01*
X108194453Y-85305175D01*
X108198921Y-85270909D01*
X108204852Y-85227752D01*
X108211407Y-85181714D01*
X108216630Y-85146231D01*
X108229254Y-85052049D01*
X108240330Y-84947808D01*
X108250113Y-84831071D01*
X108250531Y-84825425D01*
X108254977Y-84765110D01*
X108211722Y-84814116D01*
X108171425Y-84858444D01*
X108124305Y-84908123D01*
X108073424Y-84960087D01*
X108021847Y-85011274D01*
X107972638Y-85058619D01*
X107928859Y-85099057D01*
X107911450Y-85114442D01*
X107881920Y-85140093D01*
X107855343Y-85163250D01*
X107834418Y-85181557D01*
X107821848Y-85192655D01*
X107820978Y-85193436D01*
X107810042Y-85202472D01*
X107789442Y-85218759D01*
X107761544Y-85240454D01*
X107728712Y-85265715D01*
X107704053Y-85284538D01*
X107515286Y-85419997D01*
X107313650Y-85549215D01*
X107100141Y-85671877D01*
X106875756Y-85787666D01*
X106641491Y-85896267D01*
X106398342Y-85997364D01*
X106147307Y-86090641D01*
X105889381Y-86175781D01*
X105625562Y-86252469D01*
X105356845Y-86320389D01*
X105084228Y-86379225D01*
X104808706Y-86428661D01*
X104531277Y-86468382D01*
X104252937Y-86498070D01*
X103974682Y-86517411D01*
X103793647Y-86524301D01*
X103740578Y-86525819D01*
X103692548Y-86527519D01*
X103651595Y-86529302D01*
X103619754Y-86531070D01*
X103599062Y-86532723D01*
X103591611Y-86534070D01*
X103590283Y-86543284D01*
X103590263Y-86565605D01*
X103329739Y-86565605D01*
X103329086Y-86530364D01*
X103327902Y-86438781D01*
X103327143Y-86344145D01*
X103326890Y-86270452D01*
X103579351Y-86270452D01*
X103709749Y-86265552D01*
X103759819Y-86263424D01*
X103819822Y-86260482D01*
X103884651Y-86257001D01*
X103949198Y-86253254D01*
X104006012Y-86249670D01*
X104264227Y-86228089D01*
X104521424Y-86197778D01*
X104776839Y-86159043D01*
X105029710Y-86112191D01*
X105279273Y-86057528D01*
X105524766Y-85995361D01*
X105765426Y-85925996D01*
X106000489Y-85849740D01*
X106229194Y-85766898D01*
X106450776Y-85677778D01*
X106664474Y-85582686D01*
X106869524Y-85481927D01*
X107065163Y-85375810D01*
X107250629Y-85264639D01*
X107425158Y-85148721D01*
X107587988Y-85028364D01*
X107738356Y-84903872D01*
X107875498Y-84775553D01*
X107995489Y-84647350D01*
X108019941Y-84617826D01*
X108049614Y-84579768D01*
X108081602Y-84537123D01*
X108112997Y-84493840D01*
X108140895Y-84453865D01*
X108162387Y-84421144D01*
X108164148Y-84418301D01*
X108182505Y-84389902D01*
X108201095Y-84363561D01*
X108216275Y-84344404D01*
X108217940Y-84342567D01*
X108239310Y-84319609D01*
X108231661Y-84255865D01*
X108226821Y-84217942D01*
X108220675Y-84173167D01*
X108214337Y-84129575D01*
X108212534Y-84117729D01*
X108206492Y-84077449D01*
X108200378Y-84034835D01*
X108195237Y-83997224D01*
X108193870Y-83986667D01*
X108185656Y-83934362D01*
X108173053Y-83870529D01*
X108156756Y-83797837D01*
X108137456Y-83718955D01*
X108115847Y-83636551D01*
X108092624Y-83553294D01*
X108068478Y-83471853D01*
X108044104Y-83394896D01*
X108026868Y-83343946D01*
X108007904Y-83291451D01*
X107986195Y-83234418D01*
X107962562Y-83174744D01*
X107937831Y-83114328D01*
X107912824Y-83055068D01*
X107888364Y-82998862D01*
X107865276Y-82947607D01*
X107844383Y-82903201D01*
X107826509Y-82867542D01*
X107812477Y-82842528D01*
X107804407Y-82831284D01*
X107797765Y-82833232D01*
X107792024Y-82839374D01*
X107780996Y-82849495D01*
X107758484Y-82866343D01*
X107725982Y-82888969D01*
X107684984Y-82916424D01*
X107636983Y-82947759D01*
X107583474Y-82982025D01*
X107525951Y-83018272D01*
X107465908Y-83055553D01*
X107404839Y-83092916D01*
X107344238Y-83129413D01*
X107285598Y-83164096D01*
X107232845Y-83194626D01*
X107016968Y-83314544D01*
X106796213Y-83430560D01*
X106574087Y-83540945D01*
X106354094Y-83643969D01*
X106139741Y-83737903D01*
X106086867Y-83760002D01*
X105895861Y-83836423D01*
X105706014Y-83907289D01*
X105518879Y-83972127D01*
X105336008Y-84030467D01*
X105158954Y-84081837D01*
X104989270Y-84125768D01*
X104828507Y-84161786D01*
X104678219Y-84189422D01*
X104664656Y-84191577D01*
X104553050Y-84207282D01*
X104449519Y-84217825D01*
X104348118Y-84223596D01*
X104242904Y-84224986D01*
X104173736Y-84223834D01*
X104112536Y-84221907D01*
X104062975Y-84219444D01*
X104021611Y-84216052D01*
X103985006Y-84211340D01*
X103949718Y-84204917D01*
X103912309Y-84196391D01*
X103895331Y-84192138D01*
X103884613Y-84190243D01*
X103877268Y-84193127D01*
X103871151Y-84203601D01*
X103864117Y-84224475D01*
X103859922Y-84238556D01*
X103818665Y-84388817D01*
X103779552Y-84551513D01*
X103742977Y-84724100D01*
X103709332Y-84904037D01*
X103679009Y-85088781D01*
X103652402Y-85275790D01*
X103629904Y-85462520D01*
X103611906Y-85646431D01*
X103598802Y-85824979D01*
X103591647Y-85975172D01*
X103589841Y-86025642D01*
X103587810Y-86079005D01*
X103585765Y-86129892D01*
X103583917Y-86172934D01*
X103583363Y-86185012D01*
X103579351Y-86270452D01*
X103326890Y-86270452D01*
X103326815Y-86248459D01*
X103326927Y-86153725D01*
X103327485Y-86061948D01*
X103328497Y-85975131D01*
X103329968Y-85895277D01*
X103331906Y-85824389D01*
X103334319Y-85764470D01*
X103337110Y-85718835D01*
X103363490Y-85429666D01*
X103396997Y-85150621D01*
X103437519Y-84882339D01*
X103484945Y-84625460D01*
X103539163Y-84380624D01*
X103600060Y-84148470D01*
X103628123Y-84053194D01*
X103654379Y-83967042D01*
X103638884Y-83936334D01*
X103573127Y-83816686D01*
X103495254Y-83693493D01*
X103407072Y-83569007D01*
X103310388Y-83445477D01*
X103207007Y-83325153D01*
X103098735Y-83210284D01*
X102987380Y-83103122D01*
X102927053Y-83049638D01*
X102890557Y-83018983D01*
X102849634Y-82985821D01*
X102806035Y-82951451D01*
X102761512Y-82917174D01*
X102717820Y-82884290D01*
X102676709Y-82854098D01*
X102639934Y-82827899D01*
X102609246Y-82806993D01*
X102586397Y-82792680D01*
X102573141Y-82786260D01*
X102571694Y-82786036D01*
X102562393Y-82792583D01*
X102547888Y-82810961D01*
X102529214Y-82839274D01*
X102507408Y-82875626D01*
X102483505Y-82918121D01*
X102458543Y-82964864D01*
X102433557Y-83013959D01*
X102409584Y-83063511D01*
X102387660Y-83111622D01*
X102368821Y-83156399D01*
X102367695Y-83159233D01*
X102316144Y-83301891D01*
X102268939Y-83457828D01*
X102226209Y-83625843D01*
X102188085Y-83804737D01*
X102154698Y-83993310D01*
X102126176Y-84190364D01*
X102102651Y-84394698D01*
X102084252Y-84605114D01*
X102071110Y-84820411D01*
X102063356Y-85039390D01*
X102061119Y-85260851D01*
X101802341Y-85260851D01*
X101802349Y-85247729D01*
X101802740Y-85156176D01*
X101803454Y-85064536D01*
X101804477Y-84974780D01*
X101805793Y-84888874D01*
X101807389Y-84808788D01*
X101809251Y-84736489D01*
X101811364Y-84673947D01*
X101813713Y-84623129D01*
X101815500Y-84595475D01*
X101837687Y-84346459D01*
X101865063Y-84111322D01*
X101897618Y-83890099D01*
X101935346Y-83682822D01*
X101978237Y-83489525D01*
X102026283Y-83310239D01*
X102079476Y-83144999D01*
X102137809Y-82993837D01*
X102201272Y-82856786D01*
X102269857Y-82733880D01*
X102287850Y-82705293D01*
X102304943Y-82678266D01*
X102318138Y-82656379D01*
X102325806Y-82642398D01*
X102327016Y-82638799D01*
X102318491Y-82633717D01*
X102299168Y-82623694D01*
X102271930Y-82610125D01*
X102239663Y-82594404D01*
X102205250Y-82577927D01*
X102171576Y-82562088D01*
X102141526Y-82548282D01*
X102121180Y-82539270D01*
X101996579Y-82490466D01*
X101865783Y-82448167D01*
X101791316Y-82427964D01*
X101752872Y-82418486D01*
X101719138Y-82410514D01*
X101693060Y-82404717D01*
X101677583Y-82401767D01*
X101675181Y-82401530D01*
X101656564Y-82407129D01*
X101630288Y-82422828D01*
X101598150Y-82446982D01*
X101561947Y-82477947D01*
X101523475Y-82514077D01*
X101484530Y-82553726D01*
X101446910Y-82595249D01*
X101412410Y-82637002D01*
X101399368Y-82654098D01*
X101314190Y-82779659D01*
X101234912Y-82918811D01*
X101161632Y-83071226D01*
X101094448Y-83236577D01*
X101033457Y-83414538D01*
X100978756Y-83604782D01*
X100930445Y-83806981D01*
X100888619Y-84020809D01*
X100853378Y-84245937D01*
X100824818Y-84482041D01*
X100811526Y-84621863D01*
X100808376Y-84669180D01*
X100805829Y-84729271D01*
X100803876Y-84799845D01*
X100802507Y-84878609D01*
X100801714Y-84963271D01*
X100801488Y-85051540D01*
X100535407Y-85051540D01*
X100535421Y-84973330D01*
X100536149Y-84886152D01*
X100537618Y-84806635D01*
X100539860Y-84737305D01*
X100541040Y-84711820D01*
X100558934Y-84456373D01*
X100585831Y-84208295D01*
X100621560Y-83968422D01*
X100665949Y-83737591D01*
X100718827Y-83516637D01*
X100780022Y-83306398D01*
X100849362Y-83107710D01*
X100891855Y-83001400D01*
X100934021Y-82907036D01*
X100981665Y-82811202D01*
X101033023Y-82716965D01*
X101086330Y-82627394D01*
X101139820Y-82545555D01*
X101191728Y-82474515D01*
X101203703Y-82459476D01*
X101223641Y-82434660D01*
X101240098Y-82413719D01*
X101250619Y-82399794D01*
X101252835Y-82396536D01*
X101249261Y-82393231D01*
X101232727Y-82394496D01*
X101204555Y-82400064D01*
X101166069Y-82409671D01*
X101118589Y-82423050D01*
X101113867Y-82424446D01*
X101074480Y-82433826D01*
X101037726Y-82438410D01*
X101007379Y-82437971D01*
X100987213Y-82432281D01*
X100986878Y-82432074D01*
X100981871Y-82429578D01*
X100976868Y-82430295D01*
X100970316Y-82436051D01*
X100960665Y-82448670D01*
X100946364Y-82469977D01*
X100925863Y-82501796D01*
X100920505Y-82510172D01*
X100898861Y-82544839D01*
X100872592Y-82588151D01*
X100844382Y-82635567D01*
X100816919Y-82682545D01*
X100792887Y-82724544D01*
X100779659Y-82748339D01*
X100763418Y-82778885D01*
X100744118Y-82816428D01*
X100722788Y-82858836D01*
X100700458Y-82903972D01*
X100678157Y-82949702D01*
X100656915Y-82993891D01*
X100637761Y-83034404D01*
X100621724Y-83069107D01*
X100609835Y-83095865D01*
X100603121Y-83112543D01*
X100602005Y-83116761D01*
X100599261Y-83126509D01*
X100591867Y-83146787D01*
X100581081Y-83174247D01*
X100572788Y-83194504D01*
X100547968Y-83257226D01*
X100521934Y-83328375D01*
X100495781Y-83404522D01*
X100470604Y-83482237D01*
X100447497Y-83558088D01*
X100427557Y-83628647D01*
X100411877Y-83690482D01*
X100405959Y-83717143D01*
X100399610Y-83747454D01*
X100391125Y-83787670D01*
X100381529Y-83832952D01*
X100371844Y-83878460D01*
X100370069Y-83886778D01*
X100360219Y-83935593D01*
X100350686Y-83988701D01*
X100341156Y-84048182D01*
X100331316Y-84116117D01*
X100320853Y-84194583D01*
X100309452Y-84285663D01*
X100307532Y-84301441D01*
X100303967Y-84339901D01*
X100300912Y-84390560D01*
X100298402Y-84450544D01*
X100296476Y-84516980D01*
X100295170Y-84586996D01*
X100294520Y-84657719D01*
X100073676Y-84657719D01*
X100074251Y-84546850D01*
X100078306Y-84410145D01*
X100085697Y-84278358D01*
X100096426Y-84154256D01*
X100110493Y-84040605D01*
X100119437Y-83984789D01*
X100126823Y-83942715D01*
X100135536Y-83893177D01*
X100144275Y-83843558D01*
X100149285Y-83815154D01*
X100166731Y-83728145D01*
X100190357Y-83630028D01*
X100220361Y-83520042D01*
X100256938Y-83397424D01*
X100260662Y-83385413D01*
X100329957Y-83180277D01*
X100408085Y-82983090D01*
X100496342Y-82791111D01*
X100596024Y-82601599D01*
X100708424Y-82411813D01*
X100755782Y-82337446D01*
X100778139Y-82303217D01*
X100798059Y-82273361D01*
X100817660Y-82244871D01*
X100839060Y-82214742D01*
X100864375Y-82179968D01*
X100895723Y-82137543D01*
X100909338Y-82119225D01*
X101206827Y-82119225D01*
X101214717Y-82119458D01*
X101234567Y-82118498D01*
X101263321Y-82116525D01*
X101295640Y-82113921D01*
X101440268Y-82108643D01*
X101590098Y-82117003D01*
X101744235Y-82138849D01*
X101901781Y-82174027D01*
X102061842Y-82222385D01*
X102173955Y-82263622D01*
X102349952Y-82340583D01*
X102524343Y-82431496D01*
X102695902Y-82535239D01*
X102863405Y-82650691D01*
X103025626Y-82776729D01*
X103181337Y-82912231D01*
X103329315Y-83056076D01*
X103468334Y-83207142D01*
X103597167Y-83364307D01*
X103714588Y-83526449D01*
X103819373Y-83692446D01*
X103902727Y-83845938D01*
X103940802Y-83921957D01*
X103997404Y-83935287D01*
X104031795Y-83942882D01*
X104066851Y-83949818D01*
X104094093Y-83954453D01*
X104134656Y-83958424D01*
X104186263Y-83960541D01*
X104245001Y-83960849D01*
X104306955Y-83959394D01*
X104368212Y-83956220D01*
X104424856Y-83951371D01*
X104431984Y-83950586D01*
X104606367Y-83926042D01*
X104790635Y-83890995D01*
X104984039Y-83845633D01*
X105185833Y-83790142D01*
X105395267Y-83724710D01*
X105566653Y-83665749D01*
X105653297Y-83634429D01*
X105726603Y-83607197D01*
X105786388Y-83584128D01*
X105832473Y-83565296D01*
X105864674Y-83550773D01*
X105882809Y-83540634D01*
X105887075Y-83535855D01*
X105883650Y-83520129D01*
X105874073Y-83493380D01*
X105859390Y-83457835D01*
X105840645Y-83415721D01*
X105818885Y-83369265D01*
X105795154Y-83320694D01*
X105770499Y-83272234D01*
X105745965Y-83226113D01*
X105722597Y-83184558D01*
X105720315Y-83180655D01*
X105613298Y-83013096D01*
X105492751Y-82851800D01*
X105358982Y-82697035D01*
X105212300Y-82549072D01*
X105053011Y-82408182D01*
X104881425Y-82274634D01*
X104697847Y-82148698D01*
X104502587Y-82030645D01*
X104295952Y-81920744D01*
X104269889Y-81907863D01*
X104047581Y-81805841D01*
X103821650Y-81716177D01*
X103589911Y-81638114D01*
X103350182Y-81570895D01*
X103183040Y-81531336D01*
X103044918Y-81503289D01*
X102900592Y-81478361D01*
X102753344Y-81456935D01*
X102606457Y-81439397D01*
X102463213Y-81426131D01*
X102326895Y-81417523D01*
X102200786Y-81413955D01*
X102180813Y-81413878D01*
X102136317Y-81413622D01*
X102103764Y-81412621D01*
X102080022Y-81410525D01*
X102061960Y-81406986D01*
X102046446Y-81401653D01*
X102038132Y-81397954D01*
X102017553Y-81388787D01*
X102004904Y-81385995D01*
X101994546Y-81389380D01*
X101984587Y-81396069D01*
X101966488Y-81408869D01*
X101943207Y-81425183D01*
X101932380Y-81432726D01*
X101868095Y-81479703D01*
X101796431Y-81536131D01*
X101719765Y-81599965D01*
X101640477Y-81669162D01*
X101560945Y-81741675D01*
X101483547Y-81815462D01*
X101458771Y-81839850D01*
X101428201Y-81870756D01*
X101394848Y-81905425D01*
X101360205Y-81942201D01*
X101325770Y-81979426D01*
X101293035Y-82015440D01*
X101263498Y-82048587D01*
X101238653Y-82077208D01*
X101219995Y-82099645D01*
X101209019Y-82114241D01*
X101206827Y-82119225D01*
X100909338Y-82119225D01*
X100912451Y-82115036D01*
X100945674Y-82070988D01*
X100978113Y-82029398D01*
X101011891Y-81987702D01*
X101049131Y-81943341D01*
X101091955Y-81893752D01*
X101142486Y-81836375D01*
X101156138Y-81821002D01*
X101193075Y-81780943D01*
X101238841Y-81733653D01*
X101290799Y-81681697D01*
X101346314Y-81627641D01*
X101402750Y-81574047D01*
X101457471Y-81523481D01*
X101507843Y-81478508D01*
X101510494Y-81476196D01*
X101555637Y-81436924D01*
X101591379Y-81405964D01*
X101619667Y-81381701D01*
X101642446Y-81362518D01*
X101661663Y-81346796D01*
X101679265Y-81332920D01*
X101697197Y-81319271D01*
X101717406Y-81304234D01*
X101717826Y-81303923D01*
X101748456Y-81281232D01*
X101781199Y-81256922D01*
X101808298Y-81236754D01*
X101827595Y-81222982D01*
X101856442Y-81203166D01*
X101892025Y-81179163D01*
X101930121Y-81153771D01*
X102371551Y-81153771D01*
X102408461Y-81155611D01*
X102672729Y-81175697D01*
X102936305Y-81209397D01*
X103197859Y-81256360D01*
X103456064Y-81316239D01*
X103709593Y-81388684D01*
X103957117Y-81473347D01*
X104197308Y-81569880D01*
X104428839Y-81677934D01*
X104461884Y-81694676D01*
X104675434Y-81811413D01*
X104878506Y-81937831D01*
X105073229Y-82075334D01*
X105246232Y-82212335D01*
X105280813Y-82242270D01*
X105322442Y-82280038D01*
X105368848Y-82323421D01*
X105417756Y-82370199D01*
X105466895Y-82418153D01*
X105513992Y-82465065D01*
X105556773Y-82508714D01*
X105592967Y-82546882D01*
X105620301Y-82577350D01*
X105621456Y-82578704D01*
X105643033Y-82603984D01*
X105663625Y-82627942D01*
X105679002Y-82645661D01*
X105679790Y-82646558D01*
X105701361Y-82672519D01*
X105729173Y-82708077D01*
X105761082Y-82750300D01*
X105794941Y-82796254D01*
X105828605Y-82843007D01*
X105859930Y-82887626D01*
X105886768Y-82927176D01*
X105900382Y-82948132D01*
X105946507Y-83024036D01*
X105992709Y-83105835D01*
X106036613Y-83189035D01*
X106075842Y-83269139D01*
X106106622Y-83338292D01*
X106121240Y-83373070D01*
X106133676Y-83402242D01*
X106142846Y-83423300D01*
X106147667Y-83433733D01*
X106148112Y-83434418D01*
X106155072Y-83431501D01*
X106172719Y-83423650D01*
X106198033Y-83412218D01*
X106216170Y-83403961D01*
X106253192Y-83387048D01*
X106292634Y-83369009D01*
X106327448Y-83353068D01*
X106335665Y-83349301D01*
X106368785Y-83333777D01*
X106410365Y-83313760D01*
X106458702Y-83290113D01*
X106512094Y-83263701D01*
X106568836Y-83235388D01*
X106627226Y-83206040D01*
X106685561Y-83176520D01*
X106742138Y-83147693D01*
X106795253Y-83120424D01*
X106843203Y-83095577D01*
X106884286Y-83074016D01*
X106916797Y-83056607D01*
X106939035Y-83044213D01*
X106948901Y-83038026D01*
X106946814Y-83030696D01*
X106938632Y-83012137D01*
X106925407Y-82984399D01*
X106908193Y-82949531D01*
X106888042Y-82909582D01*
X106866005Y-82866601D01*
X106843135Y-82822637D01*
X106820485Y-82779738D01*
X106799107Y-82739955D01*
X106780053Y-82705336D01*
X106764376Y-82677930D01*
X106761408Y-82672946D01*
X106622761Y-82455867D01*
X106474610Y-82250072D01*
X106316271Y-82054616D01*
X106304307Y-82040741D01*
X106283539Y-82017707D01*
X106254293Y-81986593D01*
X106218432Y-81949271D01*
X106177819Y-81907610D01*
X106134319Y-81863481D01*
X106089794Y-81818755D01*
X106046109Y-81775303D01*
X106005125Y-81734994D01*
X105968708Y-81699700D01*
X105938720Y-81671291D01*
X105917025Y-81651637D01*
X105914697Y-81649641D01*
X105889897Y-81628452D01*
X105867177Y-81608780D01*
X105850942Y-81594445D01*
X105849378Y-81593026D01*
X105836050Y-81581555D01*
X105814030Y-81563335D01*
X105786471Y-81540949D01*
X105758906Y-81518873D01*
X105557664Y-81366805D01*
X105355148Y-81229698D01*
X105151213Y-81107479D01*
X104945713Y-81000072D01*
X104738504Y-80907404D01*
X104529440Y-80829400D01*
X104318375Y-80765985D01*
X104287316Y-80758061D01*
X105091676Y-80758061D01*
X105095186Y-80761366D01*
X105109950Y-80770368D01*
X105133824Y-80783838D01*
X105164667Y-80800549D01*
X105178378Y-80807813D01*
X105260363Y-80852373D01*
X105348146Y-80902527D01*
X105436573Y-80955215D01*
X105520489Y-81007380D01*
X105581274Y-81046921D01*
X105612766Y-81068479D01*
X105652256Y-81096366D01*
X105697158Y-81128670D01*
X105744880Y-81163483D01*
X105792836Y-81198894D01*
X105838435Y-81232993D01*
X105879088Y-81263870D01*
X105912208Y-81289615D01*
X105932580Y-81306102D01*
X105982960Y-81348421D01*
X106024377Y-81383554D01*
X106059520Y-81413887D01*
X106091074Y-81441809D01*
X106121728Y-81469706D01*
X106154168Y-81499965D01*
X106191083Y-81534973D01*
X106202445Y-81545816D01*
X106226758Y-81569345D01*
X106256744Y-81598832D01*
X106290313Y-81632170D01*
X106325371Y-81667252D01*
X106359827Y-81701970D01*
X106391589Y-81734219D01*
X106418563Y-81761891D01*
X106438659Y-81782879D01*
X106448755Y-81793873D01*
X106457452Y-81803704D01*
X106472798Y-81820910D01*
X106490221Y-81840375D01*
X106519948Y-81873657D01*
X106544075Y-81901077D01*
X106565822Y-81926425D01*
X106588409Y-81953488D01*
X106615055Y-81986055D01*
X106636395Y-82012362D01*
X106786282Y-82208364D01*
X106922594Y-82409614D01*
X107046402Y-82617770D01*
X107132485Y-82780991D01*
X107153902Y-82823657D01*
X107169798Y-82854496D01*
X107181356Y-82875188D01*
X107189755Y-82887414D01*
X107196176Y-82892855D01*
X107201802Y-82893190D01*
X107207811Y-82890102D01*
X107208735Y-82889503D01*
X107220574Y-82882052D01*
X107242768Y-82868349D01*
X107272775Y-82849953D01*
X107308054Y-82828424D01*
X107334626Y-82812262D01*
X107380251Y-82784180D01*
X107430102Y-82752881D01*
X107478997Y-82721657D01*
X107521752Y-82693798D01*
X107533187Y-82686201D01*
X107568159Y-82663336D01*
X107601368Y-82642549D01*
X107629521Y-82625838D01*
X107649326Y-82615203D01*
X107652432Y-82613794D01*
X107682436Y-82601051D01*
X107640470Y-82537103D01*
X107608821Y-82489342D01*
X107572326Y-82435016D01*
X107534863Y-82379855D01*
X107500309Y-82329592D01*
X107492952Y-82318999D01*
X107467008Y-82282811D01*
X107435755Y-82240866D01*
X107402179Y-82197031D01*
X107369266Y-82155172D01*
X107340005Y-82119153D01*
X107323706Y-82099957D01*
X107299624Y-82072305D01*
X107275302Y-82044252D01*
X107255466Y-82021246D01*
X107253105Y-82018493D01*
X107237174Y-82000564D01*
X107213920Y-81975264D01*
X107185381Y-81944726D01*
X107153597Y-81911083D01*
X107120606Y-81876471D01*
X107088449Y-81843022D01*
X107059164Y-81812870D01*
X107034791Y-81788150D01*
X107017369Y-81770995D01*
X107010892Y-81765043D01*
X106993159Y-81749402D01*
X106972668Y-81730624D01*
X106968553Y-81726760D01*
X106942211Y-81702568D01*
X106906190Y-81670521D01*
X106862448Y-81632347D01*
X106818182Y-81594249D01*
X106787485Y-81569000D01*
X106747335Y-81537462D01*
X106700727Y-81501858D01*
X106650657Y-81464407D01*
X106600119Y-81427332D01*
X106552109Y-81392854D01*
X106509622Y-81363192D01*
X106478912Y-81342665D01*
X106448552Y-81322957D01*
X106420907Y-81304871D01*
X106399704Y-81290852D01*
X106390924Y-81284930D01*
X106357015Y-81263028D01*
X106312219Y-81236262D01*
X106258943Y-81205891D01*
X106199592Y-81173176D01*
X106136574Y-81139375D01*
X106072294Y-81105751D01*
X106009160Y-81073561D01*
X105949578Y-81044067D01*
X105895953Y-81018528D01*
X105850693Y-80998204D01*
X105818339Y-80985133D01*
X105790529Y-80974608D01*
X105756085Y-80961156D01*
X105722301Y-80947626D01*
X105721210Y-80947181D01*
X105635387Y-80914128D01*
X105538638Y-80880258D01*
X105434955Y-80846939D01*
X105381940Y-80830966D01*
X105337964Y-80818344D01*
X105290998Y-80805435D01*
X105243617Y-80792886D01*
X105198395Y-80781343D01*
X105157907Y-80771453D01*
X105124729Y-80763864D01*
X105101435Y-80759220D01*
X105091676Y-80758061D01*
X104287316Y-80758061D01*
X104272131Y-80754187D01*
X105072827Y-80754187D01*
X105076597Y-80757956D01*
X105080367Y-80754187D01*
X105076597Y-80750417D01*
X105072827Y-80754187D01*
X104272131Y-80754187D01*
X104261152Y-80751386D01*
X104215458Y-80740456D01*
X104169873Y-80730064D01*
X104128607Y-80721136D01*
X104095873Y-80714599D01*
X104085175Y-80712704D01*
X104053337Y-80706255D01*
X104023713Y-80698248D01*
X104002600Y-80690389D01*
X104002242Y-80690212D01*
X103989562Y-80684638D01*
X103976615Y-80681481D01*
X103959990Y-80680646D01*
X103936273Y-80682036D01*
X103902053Y-80685555D01*
X103889153Y-80687020D01*
X103650869Y-80720384D01*
X103421309Y-80764925D01*
X103198627Y-80821065D01*
X102980978Y-80889226D01*
X102935427Y-80905218D01*
X102860556Y-80932516D01*
X102792865Y-80958447D01*
X102728777Y-80984549D01*
X102664719Y-81012357D01*
X102597117Y-81043409D01*
X102522396Y-81079241D01*
X102465006Y-81107463D01*
X102371551Y-81153771D01*
X101930121Y-81153771D01*
X101931530Y-81152832D01*
X101972144Y-81126032D01*
X102011051Y-81100621D01*
X102045440Y-81078458D01*
X102072495Y-81061401D01*
X102087259Y-81052513D01*
X102105027Y-81042207D01*
X102128568Y-81028388D01*
X102140028Y-81021613D01*
X102165242Y-81006670D01*
X102195864Y-80988528D01*
X102219191Y-80974712D01*
X102246430Y-80959387D01*
X102284135Y-80939276D01*
X102329112Y-80915981D01*
X102378166Y-80891101D01*
X102428104Y-80866237D01*
X102475730Y-80842987D01*
X102517851Y-80822952D01*
X102551272Y-80807731D01*
X102560554Y-80803741D01*
X102634485Y-80772883D01*
X102697241Y-80747107D01*
X102751446Y-80725417D01*
X102799724Y-80706818D01*
X102844699Y-80690314D01*
X102888997Y-80674910D01*
X102935242Y-80659611D01*
X102969329Y-80648699D01*
X103024543Y-80631554D01*
X103082643Y-80614123D01*
X103141127Y-80597103D01*
X103197492Y-80581191D01*
X103249236Y-80567081D01*
X103293857Y-80555471D01*
X103328853Y-80547056D01*
X103350090Y-80542783D01*
X103367517Y-80539706D01*
X103396545Y-80534270D01*
X103433993Y-80527087D01*
X103476679Y-80518763D01*
X103508416Y-80512496D01*
X103558424Y-80503091D01*
X103610825Y-80494129D01*
X103660703Y-80486394D01*
X103703136Y-80480670D01*
X103719518Y-80478857D01*
X103760489Y-80474721D01*
X103810081Y-80469584D01*
X103861930Y-80464110D01*
X103908001Y-80459147D01*
X103949313Y-80455732D01*
X104002991Y-80452965D01*
X104066332Y-80450857D01*
X104136637Y-80449416D01*
X104211206Y-80448655D01*
X104287337Y-80448582D01*
X104362330Y-80449208D01*
G37*
D13*
%TO.C,D4*%
X142587500Y-115986000D02*
X144872500Y-115986000D01*
X144872500Y-114516000D02*
X142587500Y-114516000D01*
X144872500Y-115986000D02*
X144872500Y-114516000D01*
%TO.C,R17*%
X108987742Y-89900000D02*
X109462258Y-89900000D01*
X108987742Y-90945000D02*
X109462258Y-90945000D01*
%TO.C,SW3*%
X117300000Y-113860000D02*
X117300000Y-114650000D01*
X117900000Y-115660000D02*
X123600000Y-115660000D01*
X119150000Y-112810000D02*
X120850000Y-112810000D01*
X122150000Y-112810000D02*
X122350000Y-112810000D01*
X124200000Y-114650000D02*
X124200000Y-113860000D01*
%TO.C,R21*%
X121153641Y-110420000D02*
X120846359Y-110420000D01*
X121153641Y-111180000D02*
X120846359Y-111180000D01*
D14*
%TO.C,D10*%
X100800000Y-89970000D02*
X106000000Y-89970000D01*
X100800000Y-92830000D02*
X106000000Y-92830000D01*
X102520000Y-89970000D02*
X102520000Y-92830000D01*
X105990000Y-92580000D02*
X106000000Y-92810000D01*
X106000000Y-89970000D02*
X106000000Y-90210000D01*
D13*
%TO.C,R22*%
X100737742Y-73452500D02*
X101212258Y-73452500D01*
X100737742Y-74497500D02*
X101212258Y-74497500D01*
D14*
%TO.C,U7*%
X111250000Y-89700000D02*
X111250000Y-90100000D01*
X111250000Y-93900000D02*
X111250000Y-93500000D01*
X111650000Y-89700000D02*
X111250000Y-89700000D01*
X111750000Y-93900000D02*
X111250000Y-93900000D01*
X115050000Y-89690000D02*
X115450000Y-89690000D01*
X115450000Y-89690000D02*
X115450000Y-90100000D01*
X115450000Y-93490000D02*
X115450000Y-93890000D01*
X115450000Y-93890000D02*
X115050000Y-93890000D01*
D10*
X115390000Y-89260000D02*
G75*
G02*
X115130000Y-89260000I-130000J0D01*
G01*
X115130000Y-89260000D02*
G75*
G02*
X115390000Y-89260000I130000J0D01*
G01*
D13*
%TO.C,J6*%
X73635000Y-81440000D02*
X85355000Y-81440000D01*
X73635000Y-85250000D02*
X73635000Y-81440000D01*
X73635000Y-85250000D02*
X73635000Y-89060000D01*
X73635000Y-89060000D02*
X85355000Y-89060000D01*
X74245000Y-83750000D02*
X74245000Y-84250000D01*
X74245000Y-84250000D02*
X79745000Y-84250000D01*
X74245000Y-86250000D02*
X74245000Y-86750000D01*
X74245000Y-86750000D02*
X79745000Y-86750000D01*
X79745000Y-83750000D02*
X74245000Y-83750000D01*
X79745000Y-84250000D02*
X79745000Y-83750000D01*
X79745000Y-86250000D02*
X74245000Y-86250000D01*
X79745000Y-86750000D02*
X79745000Y-86250000D01*
X80855000Y-82860000D02*
X80855000Y-85250000D01*
X80855000Y-87640000D02*
X80855000Y-85250000D01*
X84445000Y-84000000D02*
X85045000Y-83700000D01*
X85045000Y-83700000D02*
X85045000Y-84300000D01*
X85045000Y-84300000D02*
X84445000Y-84000000D01*
X85355000Y-81440000D02*
X85355000Y-82860000D01*
X85355000Y-82860000D02*
X80855000Y-82860000D01*
X85355000Y-87640000D02*
X80855000Y-87640000D01*
X85355000Y-89060000D02*
X85355000Y-87640000D01*
%TO.C,J5*%
X73635000Y-72940000D02*
X85355000Y-72940000D01*
X73635000Y-76750000D02*
X73635000Y-72940000D01*
X73635000Y-76750000D02*
X73635000Y-80560000D01*
X73635000Y-80560000D02*
X85355000Y-80560000D01*
X74245000Y-75250000D02*
X74245000Y-75750000D01*
X74245000Y-75750000D02*
X79745000Y-75750000D01*
X74245000Y-77750000D02*
X74245000Y-78250000D01*
X74245000Y-78250000D02*
X79745000Y-78250000D01*
X79745000Y-75250000D02*
X74245000Y-75250000D01*
X79745000Y-75750000D02*
X79745000Y-75250000D01*
X79745000Y-77750000D02*
X74245000Y-77750000D01*
X79745000Y-78250000D02*
X79745000Y-77750000D01*
X80855000Y-74360000D02*
X80855000Y-76750000D01*
X80855000Y-79140000D02*
X80855000Y-76750000D01*
X84445000Y-75500000D02*
X85045000Y-75200000D01*
X85045000Y-75200000D02*
X85045000Y-75800000D01*
X85045000Y-75800000D02*
X84445000Y-75500000D01*
X85355000Y-72940000D02*
X85355000Y-74360000D01*
X85355000Y-74360000D02*
X80855000Y-74360000D01*
X85355000Y-79140000D02*
X80855000Y-79140000D01*
X85355000Y-80560000D02*
X85355000Y-79140000D01*
%TO.C,R28*%
X106218641Y-100720000D02*
X105911359Y-100720000D01*
X106218641Y-101480000D02*
X105911359Y-101480000D01*
%TO.C,D6*%
X105587500Y-103235000D02*
X107872500Y-103235000D01*
X107872500Y-101765000D02*
X105587500Y-101765000D01*
X107872500Y-103235000D02*
X107872500Y-101765000D01*
%TO.C,C28*%
X117990000Y-90913080D02*
X117990000Y-90631920D01*
X119010000Y-90913080D02*
X119010000Y-90631920D01*
%TO.C,D5*%
X126227500Y-114565000D02*
X126227500Y-116035000D01*
X126227500Y-116035000D02*
X128512500Y-116035000D01*
X128512500Y-114565000D02*
X126227500Y-114565000D01*
D10*
%TO.C,L2*%
X143950000Y-96250000D02*
X143950000Y-96420000D01*
X143950000Y-101090000D02*
X143950000Y-101250000D01*
X148950000Y-96250000D02*
X143950000Y-96250000D01*
X148950000Y-96420000D02*
X148950000Y-96250000D01*
X148950000Y-101250000D02*
X143950000Y-101250000D01*
X148950000Y-101250000D02*
X148950000Y-101090000D01*
D13*
%TO.C,R12*%
X135620000Y-83988641D02*
X135620000Y-83681359D01*
X136380000Y-83988641D02*
X136380000Y-83681359D01*
%TO.C,U5*%
X147950000Y-103690000D02*
X147150000Y-103690000D01*
X147950000Y-103690000D02*
X148750000Y-103690000D01*
X147950000Y-106810000D02*
X147150000Y-106810000D01*
X147950000Y-106810000D02*
X148750000Y-106810000D01*
X146650000Y-103740000D02*
X146410000Y-103410000D01*
X146890000Y-103410000D01*
X146650000Y-103740000D01*
G36*
X146650000Y-103740000D02*
G01*
X146410000Y-103410000D01*
X146890000Y-103410000D01*
X146650000Y-103740000D01*
G37*
D10*
%TO.C,Q5*%
X117098586Y-107750000D02*
X118098586Y-107750000D01*
X117098586Y-108610000D02*
X117098586Y-107750000D01*
X117098586Y-110750000D02*
X117098586Y-109880000D01*
X117098586Y-110750000D02*
X118098586Y-110750000D01*
X118498586Y-109560000D02*
X118498586Y-108930000D01*
D13*
%TO.C,D7*%
X97325000Y-72822500D02*
X97325000Y-70162500D01*
X97325000Y-72822500D02*
X99025000Y-72822500D01*
X99025000Y-72822500D02*
X99025000Y-70162500D01*
%TO.C,C1*%
X136790000Y-78784420D02*
X136790000Y-79065580D01*
X137810000Y-78784420D02*
X137810000Y-79065580D01*
%TO.C,C32*%
X115840000Y-94988080D02*
X115840000Y-94706920D01*
X116860000Y-94988080D02*
X116860000Y-94706920D01*
%TO.C,C13*%
X134890000Y-102757836D02*
X134890000Y-102542164D01*
X135610000Y-102757836D02*
X135610000Y-102542164D01*
%TO.C,R3*%
X143220000Y-82556359D02*
X143220000Y-82863641D01*
X143980000Y-82556359D02*
X143980000Y-82863641D01*
D10*
%TO.C,Q2*%
X117100000Y-105490000D02*
X117100000Y-106120000D01*
X118500000Y-104300000D02*
X117500000Y-104300000D01*
X118500000Y-104300000D02*
X118500000Y-105170000D01*
X118500000Y-106440000D02*
X118500000Y-107300000D01*
X118500000Y-107300000D02*
X117500000Y-107300000D01*
D13*
%TO.C,R4*%
X147920000Y-91846359D02*
X147920000Y-92153641D01*
X148680000Y-91846359D02*
X148680000Y-92153641D01*
%TO.C,C17*%
X97060000Y-84872164D02*
X97060000Y-85087836D01*
X96340000Y-84872164D02*
X96340000Y-85087836D01*
%TO.C,C6*%
X124190000Y-83975580D02*
X124190000Y-83694420D01*
X125210000Y-83975580D02*
X125210000Y-83694420D01*
%TO.C,C27*%
X116390000Y-90913080D02*
X116390000Y-90631920D01*
X117410000Y-90913080D02*
X117410000Y-90631920D01*
%TO.C,R23*%
X131970000Y-111053641D02*
X131970000Y-110746359D01*
X132730000Y-111053641D02*
X132730000Y-110746359D01*
D10*
%TO.C,BUZZER1*%
X88290000Y-66660000D02*
X88290000Y-71370000D01*
X89060000Y-69010000D02*
X89940000Y-68120000D01*
X89820000Y-69770000D02*
X89060000Y-69010000D01*
X89940000Y-68120000D02*
X89940000Y-69900000D01*
X89940000Y-69900000D02*
X89820000Y-69770000D01*
X90260000Y-73330000D02*
X94970000Y-73330000D01*
X92870000Y-70280000D02*
X95150000Y-70280000D01*
X94010000Y-69140000D02*
X94010000Y-71420000D01*
X94970000Y-64690000D02*
X90260000Y-64690000D01*
X96930000Y-71370000D02*
X96930000Y-66660000D01*
X95150000Y-70280000D02*
G75*
G02*
X92870000Y-70280000I-1140000J0D01*
G01*
X92870000Y-70280000D02*
G75*
G02*
X95150000Y-70280000I1140000J0D01*
G01*
D13*
%TO.C,SW1*%
X98900000Y-65660000D02*
X98900000Y-66450000D01*
X100950000Y-67500000D02*
X100750000Y-67500000D01*
X103950000Y-67500000D02*
X102250000Y-67500000D01*
X105200000Y-64650000D02*
X99500000Y-64650000D01*
X105800000Y-66450000D02*
X105800000Y-65660000D01*
%TO.C,R11*%
X151912258Y-105977500D02*
X151437742Y-105977500D01*
X151912258Y-107022500D02*
X151437742Y-107022500D01*
%TO.C,C31*%
X112962164Y-94540000D02*
X113177836Y-94540000D01*
X112962164Y-95260000D02*
X113177836Y-95260000D01*
%TO.C,R24*%
X128170000Y-112156359D02*
X128170000Y-112463641D01*
X128930000Y-112156359D02*
X128930000Y-112463641D01*
%TD*%
M02*
