%TF.GenerationSoftware,KiCad,Pcbnew,9.0.2*%
%TF.CreationDate,2025-12-02T02:07:46-05:00*%
%TF.ProjectId,VolleyBot,566f6c6c-6579-4426-9f74-2e6b69636164,rev?*%
%TF.SameCoordinates,Original*%
%TF.FileFunction,Paste,Top*%
%TF.FilePolarity,Positive*%
%FSLAX46Y46*%
G04 Gerber Fmt 4.6, Leading zero omitted, Abs format (unit mm)*
G04 Created by KiCad (PCBNEW 9.0.2) date 2025-12-02 02:07:46*
%MOMM*%
%LPD*%
G01*
G04 APERTURE LIST*
G04 Aperture macros list*
%AMRoundRect*
0 Rectangle with rounded corners*
0 $1 Rounding radius*
0 $2 $3 $4 $5 $6 $7 $8 $9 X,Y pos of 4 corners*
0 Add a 4 corners polygon primitive as box body*
4,1,4,$2,$3,$4,$5,$6,$7,$8,$9,$2,$3,0*
0 Add four circle primitives for the rounded corners*
1,1,$1+$1,$2,$3*
1,1,$1+$1,$4,$5*
1,1,$1+$1,$6,$7*
1,1,$1+$1,$8,$9*
0 Add four rect primitives between the rounded corners*
20,1,$1+$1,$2,$3,$4,$5,0*
20,1,$1+$1,$4,$5,$6,$7,0*
20,1,$1+$1,$6,$7,$8,$9,0*
20,1,$1+$1,$8,$9,$2,$3,0*%
G04 Aperture macros list end*
%ADD10RoundRect,0.200000X0.200000X0.275000X-0.200000X0.275000X-0.200000X-0.275000X0.200000X-0.275000X0*%
%ADD11RoundRect,0.250000X-0.650000X0.325000X-0.650000X-0.325000X0.650000X-0.325000X0.650000X0.325000X0*%
%ADD12O,2.050000X0.590000*%
%ADD13RoundRect,0.140000X-0.170000X0.140000X-0.170000X-0.140000X0.170000X-0.140000X0.170000X0.140000X0*%
%ADD14RoundRect,0.250000X-0.475000X0.250000X-0.475000X-0.250000X0.475000X-0.250000X0.475000X0.250000X0*%
%ADD15RoundRect,0.135000X-0.135000X-0.185000X0.135000X-0.185000X0.135000X0.185000X-0.135000X0.185000X0*%
%ADD16RoundRect,0.150000X-0.512500X-0.150000X0.512500X-0.150000X0.512500X0.150000X-0.512500X0.150000X0*%
%ADD17RoundRect,0.135000X0.135000X0.185000X-0.135000X0.185000X-0.135000X-0.185000X0.135000X-0.185000X0*%
%ADD18RoundRect,0.250000X0.475000X-0.250000X0.475000X0.250000X-0.475000X0.250000X-0.475000X-0.250000X0*%
%ADD19RoundRect,0.225000X0.250000X-0.225000X0.250000X0.225000X-0.250000X0.225000X-0.250000X-0.225000X0*%
%ADD20RoundRect,0.250000X-0.315000X-0.315000X0.315000X-0.315000X0.315000X0.315000X-0.315000X0.315000X0*%
%ADD21RoundRect,0.062500X-0.375000X-0.062500X0.375000X-0.062500X0.375000X0.062500X-0.375000X0.062500X0*%
%ADD22RoundRect,0.062500X-0.062500X-0.375000X0.062500X-0.375000X0.062500X0.375000X-0.062500X0.375000X0*%
%ADD23R,2.500000X5.700000*%
%ADD24RoundRect,0.200000X-0.200000X-0.275000X0.200000X-0.275000X0.200000X0.275000X-0.200000X0.275000X0*%
%ADD25R,1.800000X4.200000*%
%ADD26RoundRect,0.135000X-0.185000X0.135000X-0.185000X-0.135000X0.185000X-0.135000X0.185000X0.135000X0*%
%ADD27RoundRect,0.140000X0.170000X-0.140000X0.170000X0.140000X-0.170000X0.140000X-0.170000X-0.140000X0*%
%ADD28RoundRect,0.250000X-0.625000X0.312500X-0.625000X-0.312500X0.625000X-0.312500X0.625000X0.312500X0*%
%ADD29RoundRect,0.250000X0.450000X0.350000X-0.450000X0.350000X-0.450000X-0.350000X0.450000X-0.350000X0*%
%ADD30RoundRect,0.225000X-0.250000X0.225000X-0.250000X-0.225000X0.250000X-0.225000X0.250000X0.225000X0*%
%ADD31RoundRect,0.218750X0.218750X0.256250X-0.218750X0.256250X-0.218750X-0.256250X0.218750X-0.256250X0*%
%ADD32R,0.800000X1.000000*%
%ADD33R,1.500000X0.700000*%
%ADD34R,2.000000X2.000000*%
%ADD35RoundRect,0.135000X0.185000X-0.135000X0.185000X0.135000X-0.185000X0.135000X-0.185000X-0.135000X0*%
%ADD36R,1.250000X0.700000*%
%ADD37RoundRect,0.112500X-0.187500X-0.112500X0.187500X-0.112500X0.187500X0.112500X-0.187500X0.112500X0*%
%ADD38RoundRect,0.140000X-0.140000X-0.170000X0.140000X-0.170000X0.140000X0.170000X-0.140000X0.170000X0*%
%ADD39R,1.000000X0.800000*%
%ADD40RoundRect,0.140000X0.140000X0.170000X-0.140000X0.170000X-0.140000X-0.170000X0.140000X-0.170000X0*%
%ADD41RoundRect,0.200000X-0.275000X0.200000X-0.275000X-0.200000X0.275000X-0.200000X0.275000X0.200000X0*%
%ADD42RoundRect,0.150000X0.150000X-0.587500X0.150000X0.587500X-0.150000X0.587500X-0.150000X-0.587500X0*%
%ADD43RoundRect,0.200000X0.275000X-0.200000X0.275000X0.200000X-0.275000X0.200000X-0.275000X-0.200000X0*%
%ADD44RoundRect,0.218750X-0.256250X0.218750X-0.256250X-0.218750X0.256250X-0.218750X0.256250X0.218750X0*%
%ADD45R,0.700000X1.500000*%
%ADD46R,0.300000X0.700000*%
%ADD47R,0.700000X0.300000*%
%ADD48R,2.600000X2.600000*%
%ADD49RoundRect,0.218750X-0.218750X-0.256250X0.218750X-0.256250X0.218750X0.256250X-0.218750X0.256250X0*%
%ADD50RoundRect,0.112500X0.112500X-0.187500X0.112500X0.187500X-0.112500X0.187500X-0.112500X-0.187500X0*%
%ADD51R,1.100000X0.550000*%
%ADD52R,1.100000X0.300000*%
%ADD53R,1.800000X1.800000*%
G04 APERTURE END LIST*
D10*
%TO.C,R10*%
X152500000Y-108000000D03*
X150850000Y-108000000D03*
%TD*%
D11*
%TO.C,C36*%
X98600000Y-75850000D03*
X98600000Y-78800000D03*
%TD*%
%TO.C,C19*%
X98700000Y-90925000D03*
X98700000Y-93875000D03*
%TD*%
%TO.C,C16*%
X98600000Y-83450000D03*
X98600000Y-86400000D03*
%TD*%
D12*
%TO.C,U8*%
X94870000Y-95610000D03*
X94870000Y-94330000D03*
X94870000Y-93070000D03*
X94870000Y-91800000D03*
X89330000Y-91800000D03*
X89330000Y-93070000D03*
X89330000Y-94330000D03*
X89330000Y-95610000D03*
%TD*%
%TO.C,U3*%
X94870000Y-80610000D03*
X94870000Y-79330000D03*
X94870000Y-78070000D03*
X94870000Y-76800000D03*
X89330000Y-76800000D03*
X89330000Y-78070000D03*
X89330000Y-79330000D03*
X89330000Y-80610000D03*
%TD*%
%TO.C,U2*%
X94870000Y-88110000D03*
X94870000Y-86830000D03*
X94870000Y-85570000D03*
X94870000Y-84300000D03*
X89330000Y-84300000D03*
X89330000Y-85570000D03*
X89330000Y-86830000D03*
X89330000Y-88110000D03*
%TD*%
D13*
%TO.C,C37*%
X96800000Y-76940000D03*
X96800000Y-77900000D03*
%TD*%
D14*
%TO.C,C15*%
X127500000Y-102150000D03*
X127500000Y-104050000D03*
%TD*%
%TO.C,C25*%
X144200000Y-102250000D03*
X144200000Y-104150000D03*
%TD*%
D15*
%TO.C,R26*%
X109230000Y-93422500D03*
X110250000Y-93422500D03*
%TD*%
D16*
%TO.C,U4*%
X132362500Y-104450000D03*
X132362500Y-105400000D03*
X132362500Y-106350000D03*
X134637500Y-106350000D03*
X134637500Y-105400000D03*
X134637500Y-104450000D03*
%TD*%
D17*
%TO.C,R9*%
X137520000Y-106400000D03*
X136500000Y-106400000D03*
%TD*%
D18*
%TO.C,C30*%
X122400000Y-91947500D03*
X122400000Y-90047500D03*
%TD*%
D10*
%TO.C,R18*%
X115125000Y-88460000D03*
X113475000Y-88460000D03*
%TD*%
D14*
%TO.C,C14*%
X129750000Y-102150000D03*
X129750000Y-104050000D03*
%TD*%
D19*
%TO.C,C23*%
X144450000Y-107250000D03*
X144450000Y-105700000D03*
%TD*%
D20*
%TO.C,U1*%
X129200000Y-80200000D03*
X129200000Y-81600000D03*
X129200000Y-83000000D03*
X129200000Y-84400000D03*
X130600000Y-80200000D03*
X130600000Y-81600000D03*
X130600000Y-83000000D03*
X130600000Y-84400000D03*
X132000000Y-80200000D03*
X132000000Y-81600000D03*
X132000000Y-83000000D03*
X132000000Y-84400000D03*
X133400000Y-80200000D03*
X133400000Y-81600000D03*
X133400000Y-83000000D03*
X133400000Y-84400000D03*
D21*
X127862500Y-79550000D03*
X127862500Y-80050000D03*
X127862500Y-80550000D03*
X127862500Y-81050000D03*
X127862500Y-81550000D03*
X127862500Y-82050000D03*
X127862500Y-82550000D03*
X127862500Y-83050000D03*
X127862500Y-83550000D03*
X127862500Y-84050000D03*
X127862500Y-84550000D03*
X127862500Y-85050000D03*
D22*
X128550000Y-85737500D03*
X129050000Y-85737500D03*
X129550000Y-85737500D03*
X130050000Y-85737500D03*
X130550000Y-85737500D03*
X131050000Y-85737500D03*
X131550000Y-85737500D03*
X132050000Y-85737500D03*
X132550000Y-85737500D03*
X133050000Y-85737500D03*
X133550000Y-85737500D03*
X134050000Y-85737500D03*
D21*
X134737500Y-85050000D03*
X134737500Y-84550000D03*
X134737500Y-84050000D03*
X134737500Y-83550000D03*
X134737500Y-83050000D03*
X134737500Y-82550000D03*
X134737500Y-82050000D03*
X134737500Y-81550000D03*
X134737500Y-81050000D03*
X134737500Y-80550000D03*
X134737500Y-80050000D03*
X134737500Y-79550000D03*
D22*
X134050000Y-78862500D03*
X133550000Y-78862500D03*
X133050000Y-78862500D03*
X132550000Y-78862500D03*
X132050000Y-78862500D03*
X131550000Y-78862500D03*
X131050000Y-78862500D03*
X130550000Y-78862500D03*
X130050000Y-78862500D03*
X129550000Y-78862500D03*
X129050000Y-78862500D03*
X128550000Y-78862500D03*
%TD*%
D23*
%TO.C,L4*%
X110800000Y-100210000D03*
X115500000Y-100190000D03*
%TD*%
D24*
%TO.C,R16*%
X108400000Y-92022500D03*
X110050000Y-92022500D03*
%TD*%
D25*
%TO.C,L1*%
X134150000Y-98650000D03*
X129850000Y-98650000D03*
%TD*%
D14*
%TO.C,C7*%
X122450000Y-102150000D03*
X122450000Y-104050000D03*
%TD*%
D13*
%TO.C,C2*%
X135600000Y-86000000D03*
X135600000Y-86960000D03*
%TD*%
D14*
%TO.C,C26*%
X141950000Y-102250000D03*
X141950000Y-104150000D03*
%TD*%
D26*
%TO.C,R14*%
X117750000Y-94427500D03*
X117750000Y-95447500D03*
%TD*%
D13*
%TO.C,C4*%
X136000000Y-78940000D03*
X136000000Y-79900000D03*
%TD*%
D19*
%TO.C,C12*%
X130000000Y-107200000D03*
X130000000Y-105650000D03*
%TD*%
D27*
%TO.C,C5*%
X126000000Y-83790000D03*
X126000000Y-82830000D03*
%TD*%
D28*
%TO.C,R19*%
X119550000Y-94300000D03*
X119550000Y-97225000D03*
%TD*%
D29*
%TO.C,Y1*%
X124400000Y-79472000D03*
X122200000Y-79472000D03*
X122200000Y-81172000D03*
X124400000Y-81172000D03*
%TD*%
D27*
%TO.C,C22*%
X126598586Y-79350000D03*
X126598586Y-78390000D03*
%TD*%
D30*
%TO.C,C33*%
X109475000Y-94800000D03*
X109475000Y-96350000D03*
%TD*%
D31*
%TO.C,D2*%
X137252500Y-115240000D03*
X135677500Y-115240000D03*
%TD*%
D32*
%TO.C,SW2*%
X150600000Y-94750000D03*
X152810000Y-94750000D03*
X150600000Y-87450000D03*
X152810000Y-87450000D03*
D33*
X149950000Y-93350000D03*
X149950000Y-90350000D03*
X149950000Y-88850000D03*
%TD*%
D14*
%TO.C,C8*%
X124550000Y-102150000D03*
X124550000Y-104050000D03*
%TD*%
D34*
%TO.C,D1*%
X138550000Y-99025000D03*
X138550000Y-103425000D03*
%TD*%
D27*
%TO.C,C24*%
X149700000Y-102960000D03*
X149700000Y-102000000D03*
%TD*%
D35*
%TO.C,R8*%
X135575000Y-108925000D03*
X135575000Y-107905000D03*
%TD*%
D36*
%TO.C,Q3*%
X131000000Y-111450000D03*
X131000000Y-109550000D03*
X129000000Y-110500000D03*
%TD*%
D34*
%TO.C,D12*%
X126900000Y-107450000D03*
X122500000Y-107450000D03*
%TD*%
D37*
%TO.C,D8*%
X129800000Y-113200000D03*
X131900000Y-113200000D03*
%TD*%
D15*
%TO.C,R5*%
X123905000Y-90825000D03*
X124925000Y-90825000D03*
%TD*%
D35*
%TO.C,R2*%
X143600000Y-79300000D03*
X143600000Y-78280000D03*
%TD*%
D38*
%TO.C,C11*%
X133340000Y-87100000D03*
X134300000Y-87100000D03*
%TD*%
D39*
%TO.C,Q1*%
X138950000Y-97150000D03*
X138950000Y-95250000D03*
X136650000Y-96200000D03*
%TD*%
D38*
%TO.C,C10*%
X122240000Y-82800000D03*
X123200000Y-82800000D03*
%TD*%
%TO.C,C3*%
X127828798Y-77606497D03*
X128788798Y-77606497D03*
%TD*%
D18*
%TO.C,C29*%
X120300000Y-91947500D03*
X120300000Y-90047500D03*
%TD*%
D40*
%TO.C,C35*%
X111980000Y-104500000D03*
X111020000Y-104500000D03*
%TD*%
D17*
%TO.C,R6*%
X124925000Y-89775000D03*
X123905000Y-89775000D03*
%TD*%
D15*
%TO.C,R13*%
X142377500Y-113751000D03*
X143397500Y-113751000D03*
%TD*%
D17*
%TO.C,R27*%
X137227500Y-113890000D03*
X136207500Y-113890000D03*
%TD*%
D41*
%TO.C,R7*%
X111075000Y-94750000D03*
X111075000Y-96400000D03*
%TD*%
D17*
%TO.C,R15*%
X128520000Y-113900000D03*
X127500000Y-113900000D03*
%TD*%
D15*
%TO.C,R1*%
X102190000Y-69625000D03*
X103210000Y-69625000D03*
%TD*%
D13*
%TO.C,C18*%
X96800000Y-91900000D03*
X96800000Y-92860000D03*
%TD*%
D42*
%TO.C,Q4*%
X100025000Y-72150000D03*
X101925000Y-72150000D03*
X100975000Y-70275000D03*
%TD*%
D43*
%TO.C,R25*%
X120500000Y-109525000D03*
X120500000Y-107875000D03*
%TD*%
D38*
%TO.C,C34*%
X108340000Y-104500000D03*
X109300000Y-104500000D03*
%TD*%
D44*
%TO.C,D3*%
X137300000Y-83537500D03*
X137300000Y-85112500D03*
%TD*%
D31*
%TO.C,FB1*%
X124337500Y-100550000D03*
X122762500Y-100550000D03*
%TD*%
D40*
%TO.C,C9*%
X123080000Y-77972000D03*
X122120000Y-77972000D03*
%TD*%
D31*
%TO.C,D4*%
X144175000Y-115251000D03*
X142600000Y-115251000D03*
%TD*%
D24*
%TO.C,R17*%
X108400000Y-90422500D03*
X110050000Y-90422500D03*
%TD*%
D39*
%TO.C,SW3*%
X117100000Y-113150000D03*
X117100000Y-115360000D03*
X124400000Y-113150000D03*
X124400000Y-115360000D03*
D45*
X118500000Y-112500000D03*
X121500000Y-112500000D03*
X123000000Y-112500000D03*
%TD*%
D17*
%TO.C,R21*%
X121510000Y-110800000D03*
X120490000Y-110800000D03*
%TD*%
D34*
%TO.C,D10*%
X101200000Y-91400000D03*
X105600000Y-91400000D03*
%TD*%
D24*
%TO.C,R22*%
X100150000Y-73975000D03*
X101800000Y-73975000D03*
%TD*%
D46*
%TO.C,U7*%
X114600000Y-89860000D03*
X114100000Y-89860000D03*
X113600000Y-89860000D03*
X113100000Y-89860000D03*
X112600000Y-89860000D03*
X112100000Y-89860000D03*
D47*
X111400000Y-90550000D03*
X111400000Y-91050000D03*
X111400000Y-91550000D03*
X111400000Y-92050000D03*
X111400000Y-92550000D03*
X111400000Y-93050000D03*
D46*
X112100000Y-93740000D03*
X112600000Y-93740000D03*
X113100000Y-93740000D03*
X113600000Y-93740000D03*
X114100000Y-93740000D03*
X114600000Y-93740000D03*
D47*
X115300000Y-93050000D03*
X115300000Y-92550000D03*
X115300000Y-92050000D03*
X115300000Y-91550000D03*
X115300000Y-91050000D03*
X115300000Y-90550000D03*
D48*
X113350000Y-91800000D03*
%TD*%
D17*
%TO.C,R28*%
X106575000Y-101100000D03*
X105555000Y-101100000D03*
%TD*%
D31*
%TO.C,D6*%
X107175000Y-102500000D03*
X105600000Y-102500000D03*
%TD*%
D19*
%TO.C,C28*%
X118500000Y-91547500D03*
X118500000Y-89997500D03*
%TD*%
D49*
%TO.C,D5*%
X126925000Y-115300000D03*
X128500000Y-115300000D03*
%TD*%
D25*
%TO.C,L2*%
X148600000Y-98750000D03*
X144300000Y-98750000D03*
%TD*%
D35*
%TO.C,R12*%
X136000000Y-84345000D03*
X136000000Y-83325000D03*
%TD*%
D16*
%TO.C,U5*%
X146812500Y-104300000D03*
X146812500Y-105250000D03*
X146812500Y-106200000D03*
X149087500Y-106200000D03*
X149087500Y-105250000D03*
X149087500Y-104300000D03*
%TD*%
D39*
%TO.C,Q5*%
X118948586Y-110200000D03*
X118948586Y-108300000D03*
X116648586Y-109250000D03*
%TD*%
D50*
%TO.C,D7*%
X98175000Y-72262500D03*
X98175000Y-70162500D03*
%TD*%
D30*
%TO.C,C1*%
X137300000Y-78150000D03*
X137300000Y-79700000D03*
%TD*%
D19*
%TO.C,C32*%
X116350000Y-95622500D03*
X116350000Y-94072500D03*
%TD*%
D51*
%TO.C,USB2*%
X146000000Y-84200000D03*
X146000000Y-83400000D03*
D52*
X146000000Y-82750000D03*
X146000000Y-82250000D03*
X146000000Y-81750000D03*
X146000000Y-81250000D03*
X146000000Y-80750000D03*
X146000000Y-80250000D03*
X146000000Y-79750000D03*
X146000000Y-79250000D03*
D51*
X146000000Y-78600000D03*
X146000000Y-77800000D03*
%TD*%
D27*
%TO.C,C13*%
X135250000Y-103130000D03*
X135250000Y-102170000D03*
%TD*%
D26*
%TO.C,R3*%
X143600000Y-82200000D03*
X143600000Y-83220000D03*
%TD*%
D39*
%TO.C,Q2*%
X116650000Y-104850000D03*
X116650000Y-106750000D03*
X118950000Y-105800000D03*
%TD*%
D26*
%TO.C,R4*%
X148300000Y-91490000D03*
X148300000Y-92510000D03*
%TD*%
D13*
%TO.C,C17*%
X96700000Y-84500000D03*
X96700000Y-85460000D03*
%TD*%
D19*
%TO.C,C6*%
X124700000Y-84610000D03*
X124700000Y-83060000D03*
%TD*%
%TO.C,C27*%
X116900000Y-91547500D03*
X116900000Y-89997500D03*
%TD*%
D35*
%TO.C,R23*%
X132350000Y-111410000D03*
X132350000Y-110390000D03*
%TD*%
D53*
%TO.C,BUZZER1*%
X96100000Y-72500000D03*
X96100000Y-65520000D03*
X89120000Y-65520000D03*
X89120000Y-72500000D03*
%TD*%
D39*
%TO.C,SW1*%
X106000000Y-67160000D03*
X106000000Y-64950000D03*
X98700000Y-67160000D03*
X98700000Y-64950000D03*
D45*
X104600000Y-67810000D03*
X101600000Y-67810000D03*
X100100000Y-67810000D03*
%TD*%
D10*
%TO.C,R11*%
X152500000Y-106500000D03*
X150850000Y-106500000D03*
%TD*%
D38*
%TO.C,C31*%
X112590000Y-94900000D03*
X113550000Y-94900000D03*
%TD*%
D26*
%TO.C,R24*%
X128550000Y-111800000D03*
X128550000Y-112820000D03*
%TD*%
M02*
